<?xml version="1.0" encoding="utf-8" standalone="no"?>
<!DOCTYPE svg PUBLIC "-//W3C//DTD SVG 1.1//EN"
  "http://www.w3.org/Graphics/SVG/1.1/DTD/svg11.dtd">
<svg xmlns:xlink="http://www.w3.org/1999/xlink" width="864pt" height="432pt" viewBox="0 0 864 432" xmlns="http://www.w3.org/2000/svg" version="1.1">
 <metadata>
  <rdf:RDF xmlns:dc="http://purl.org/dc/elements/1.1/" xmlns:cc="http://creativecommons.org/ns#" xmlns:rdf="http://www.w3.org/1999/02/22-rdf-syntax-ns#">
   <cc:Work>
    <dc:type rdf:resource="http://purl.org/dc/dcmitype/StillImage"/>
    <dc:date>2025-05-31T22:47:39.160622</dc:date>
    <dc:format>image/svg+xml</dc:format>
    <dc:creator>
     <cc:Agent>
      <dc:title>Matplotlib v3.10.1, https://matplotlib.org/</dc:title>
     </cc:Agent>
    </dc:creator>
   </cc:Work>
  </rdf:RDF>
 </metadata>
 <defs>
  <style type="text/css">*{stroke-linejoin: round; stroke-linecap: butt}</style>
 </defs>
 <g id="figure_1">
  <g id="patch_1">
   <path d="M 0 432 
L 864 432 
L 864 0 
L 0 0 
z
" style="fill: #ffffff"/>
  </g>
  <g id="axes_1">
   <g id="patch_2">
    <path d="M 39.58149 398.64351 
L 437.381562 398.64351 
L 437.381562 18.118365 
L 39.58149 18.118365 
z
" style="fill: #ffffff"/>
   </g>
   <g id="matplotlib.axis_1">
    <g id="xtick_1">
     <g id="line2d_1">
      <path d="M 39.58149 398.64351 
L 39.58149 18.118365 
" clip-path="url(#pd743c491ef)" style="fill: none; stroke-dasharray: 2.96,1.28; stroke-dashoffset: 0; stroke: #b0b0b0; stroke-opacity: 0.7; stroke-width: 0.8"/>
     </g>
     <g id="line2d_2">
      <defs>
       <path id="m5fbffe16a3" d="M 0 0 
L 0 3.5 
" style="stroke: #000000; stroke-width: 0.8"/>
      </defs>
      <g>
       <use xlink:href="#m5fbffe16a3" x="39.58149" y="398.64351" style="stroke: #000000; stroke-width: 0.8"/>
      </g>
     </g>
     <g id="text_1">
      <!-- 0 -->
      <g transform="translate(36.40024 413.241947) scale(0.1 -0.1)">
       <defs>
        <path id="DejaVuSans-30" d="M 2034 4250 
Q 1547 4250 1301 3770 
Q 1056 3291 1056 2328 
Q 1056 1369 1301 889 
Q 1547 409 2034 409 
Q 2525 409 2770 889 
Q 3016 1369 3016 2328 
Q 3016 3291 2770 3770 
Q 2525 4250 2034 4250 
z
M 2034 4750 
Q 2819 4750 3233 4129 
Q 3647 3509 3647 2328 
Q 3647 1150 3233 529 
Q 2819 -91 2034 -91 
Q 1250 -91 836 529 
Q 422 1150 422 2328 
Q 422 3509 836 4129 
Q 1250 4750 2034 4750 
z
" transform="scale(0.015625)"/>
       </defs>
       <use xlink:href="#DejaVuSans-30"/>
      </g>
     </g>
    </g>
    <g id="xtick_2">
     <g id="line2d_3">
      <path d="M 115.504779 398.64351 
L 115.504779 18.118365 
" clip-path="url(#pd743c491ef)" style="fill: none; stroke-dasharray: 2.96,1.28; stroke-dashoffset: 0; stroke: #b0b0b0; stroke-opacity: 0.7; stroke-width: 0.8"/>
     </g>
     <g id="line2d_4">
      <g>
       <use xlink:href="#m5fbffe16a3" x="115.504779" y="398.64351" style="stroke: #000000; stroke-width: 0.8"/>
      </g>
     </g>
     <g id="text_2">
      <!-- 100 -->
      <g transform="translate(105.961029 413.241947) scale(0.1 -0.1)">
       <defs>
        <path id="DejaVuSans-31" d="M 794 531 
L 1825 531 
L 1825 4091 
L 703 3866 
L 703 4441 
L 1819 4666 
L 2450 4666 
L 2450 531 
L 3481 531 
L 3481 0 
L 794 0 
L 794 531 
z
" transform="scale(0.015625)"/>
       </defs>
       <use xlink:href="#DejaVuSans-31"/>
       <use xlink:href="#DejaVuSans-30" transform="translate(63.623047 0)"/>
       <use xlink:href="#DejaVuSans-30" transform="translate(127.246094 0)"/>
      </g>
     </g>
    </g>
    <g id="xtick_3">
     <g id="line2d_5">
      <path d="M 191.428068 398.64351 
L 191.428068 18.118365 
" clip-path="url(#pd743c491ef)" style="fill: none; stroke-dasharray: 2.96,1.28; stroke-dashoffset: 0; stroke: #b0b0b0; stroke-opacity: 0.7; stroke-width: 0.8"/>
     </g>
     <g id="line2d_6">
      <g>
       <use xlink:href="#m5fbffe16a3" x="191.428068" y="398.64351" style="stroke: #000000; stroke-width: 0.8"/>
      </g>
     </g>
     <g id="text_3">
      <!-- 200 -->
      <g transform="translate(181.884318 413.241947) scale(0.1 -0.1)">
       <defs>
        <path id="DejaVuSans-32" d="M 1228 531 
L 3431 531 
L 3431 0 
L 469 0 
L 469 531 
Q 828 903 1448 1529 
Q 2069 2156 2228 2338 
Q 2531 2678 2651 2914 
Q 2772 3150 2772 3378 
Q 2772 3750 2511 3984 
Q 2250 4219 1831 4219 
Q 1534 4219 1204 4116 
Q 875 4013 500 3803 
L 500 4441 
Q 881 4594 1212 4672 
Q 1544 4750 1819 4750 
Q 2544 4750 2975 4387 
Q 3406 4025 3406 3419 
Q 3406 3131 3298 2873 
Q 3191 2616 2906 2266 
Q 2828 2175 2409 1742 
Q 1991 1309 1228 531 
z
" transform="scale(0.015625)"/>
       </defs>
       <use xlink:href="#DejaVuSans-32"/>
       <use xlink:href="#DejaVuSans-30" transform="translate(63.623047 0)"/>
       <use xlink:href="#DejaVuSans-30" transform="translate(127.246094 0)"/>
      </g>
     </g>
    </g>
    <g id="xtick_4">
     <g id="line2d_7">
      <path d="M 267.351357 398.64351 
L 267.351357 18.118365 
" clip-path="url(#pd743c491ef)" style="fill: none; stroke-dasharray: 2.96,1.28; stroke-dashoffset: 0; stroke: #b0b0b0; stroke-opacity: 0.7; stroke-width: 0.8"/>
     </g>
     <g id="line2d_8">
      <g>
       <use xlink:href="#m5fbffe16a3" x="267.351357" y="398.64351" style="stroke: #000000; stroke-width: 0.8"/>
      </g>
     </g>
     <g id="text_4">
      <!-- 300 -->
      <g transform="translate(257.807607 413.241947) scale(0.1 -0.1)">
       <defs>
        <path id="DejaVuSans-33" d="M 2597 2516 
Q 3050 2419 3304 2112 
Q 3559 1806 3559 1356 
Q 3559 666 3084 287 
Q 2609 -91 1734 -91 
Q 1441 -91 1130 -33 
Q 819 25 488 141 
L 488 750 
Q 750 597 1062 519 
Q 1375 441 1716 441 
Q 2309 441 2620 675 
Q 2931 909 2931 1356 
Q 2931 1769 2642 2001 
Q 2353 2234 1838 2234 
L 1294 2234 
L 1294 2753 
L 1863 2753 
Q 2328 2753 2575 2939 
Q 2822 3125 2822 3475 
Q 2822 3834 2567 4026 
Q 2313 4219 1838 4219 
Q 1578 4219 1281 4162 
Q 984 4106 628 3988 
L 628 4550 
Q 988 4650 1302 4700 
Q 1616 4750 1894 4750 
Q 2613 4750 3031 4423 
Q 3450 4097 3450 3541 
Q 3450 3153 3228 2886 
Q 3006 2619 2597 2516 
z
" transform="scale(0.015625)"/>
       </defs>
       <use xlink:href="#DejaVuSans-33"/>
       <use xlink:href="#DejaVuSans-30" transform="translate(63.623047 0)"/>
       <use xlink:href="#DejaVuSans-30" transform="translate(127.246094 0)"/>
      </g>
     </g>
    </g>
    <g id="xtick_5">
     <g id="line2d_9">
      <path d="M 343.274646 398.64351 
L 343.274646 18.118365 
" clip-path="url(#pd743c491ef)" style="fill: none; stroke-dasharray: 2.96,1.28; stroke-dashoffset: 0; stroke: #b0b0b0; stroke-opacity: 0.7; stroke-width: 0.8"/>
     </g>
     <g id="line2d_10">
      <g>
       <use xlink:href="#m5fbffe16a3" x="343.274646" y="398.64351" style="stroke: #000000; stroke-width: 0.8"/>
      </g>
     </g>
     <g id="text_5">
      <!-- 400 -->
      <g transform="translate(333.730896 413.241947) scale(0.1 -0.1)">
       <defs>
        <path id="DejaVuSans-34" d="M 2419 4116 
L 825 1625 
L 2419 1625 
L 2419 4116 
z
M 2253 4666 
L 3047 4666 
L 3047 1625 
L 3713 1625 
L 3713 1100 
L 3047 1100 
L 3047 0 
L 2419 0 
L 2419 1100 
L 313 1100 
L 313 1709 
L 2253 4666 
z
" transform="scale(0.015625)"/>
       </defs>
       <use xlink:href="#DejaVuSans-34"/>
       <use xlink:href="#DejaVuSans-30" transform="translate(63.623047 0)"/>
       <use xlink:href="#DejaVuSans-30" transform="translate(127.246094 0)"/>
      </g>
     </g>
    </g>
    <g id="xtick_6">
     <g id="line2d_11">
      <path d="M 419.197935 398.64351 
L 419.197935 18.118365 
" clip-path="url(#pd743c491ef)" style="fill: none; stroke-dasharray: 2.96,1.28; stroke-dashoffset: 0; stroke: #b0b0b0; stroke-opacity: 0.7; stroke-width: 0.8"/>
     </g>
     <g id="line2d_12">
      <g>
       <use xlink:href="#m5fbffe16a3" x="419.197935" y="398.64351" style="stroke: #000000; stroke-width: 0.8"/>
      </g>
     </g>
     <g id="text_6">
      <!-- 500 -->
      <g transform="translate(409.654185 413.241947) scale(0.1 -0.1)">
       <defs>
        <path id="DejaVuSans-35" d="M 691 4666 
L 3169 4666 
L 3169 4134 
L 1269 4134 
L 1269 2991 
Q 1406 3038 1543 3061 
Q 1681 3084 1819 3084 
Q 2600 3084 3056 2656 
Q 3513 2228 3513 1497 
Q 3513 744 3044 326 
Q 2575 -91 1722 -91 
Q 1428 -91 1123 -41 
Q 819 9 494 109 
L 494 744 
Q 775 591 1075 516 
Q 1375 441 1709 441 
Q 2250 441 2565 725 
Q 2881 1009 2881 1497 
Q 2881 1984 2565 2268 
Q 2250 2553 1709 2553 
Q 1456 2553 1204 2497 
Q 953 2441 691 2322 
L 691 4666 
z
" transform="scale(0.015625)"/>
       </defs>
       <use xlink:href="#DejaVuSans-35"/>
       <use xlink:href="#DejaVuSans-30" transform="translate(63.623047 0)"/>
       <use xlink:href="#DejaVuSans-30" transform="translate(127.246094 0)"/>
      </g>
     </g>
    </g>
    <g id="text_7">
     <!-- Steps -->
     <g transform="translate(224.491682 426.920073) scale(0.1 -0.1)">
      <defs>
       <path id="DejaVuSans-53" d="M 3425 4513 
L 3425 3897 
Q 3066 4069 2747 4153 
Q 2428 4238 2131 4238 
Q 1616 4238 1336 4038 
Q 1056 3838 1056 3469 
Q 1056 3159 1242 3001 
Q 1428 2844 1947 2747 
L 2328 2669 
Q 3034 2534 3370 2195 
Q 3706 1856 3706 1288 
Q 3706 609 3251 259 
Q 2797 -91 1919 -91 
Q 1588 -91 1214 -16 
Q 841 59 441 206 
L 441 856 
Q 825 641 1194 531 
Q 1563 422 1919 422 
Q 2459 422 2753 634 
Q 3047 847 3047 1241 
Q 3047 1584 2836 1778 
Q 2625 1972 2144 2069 
L 1759 2144 
Q 1053 2284 737 2584 
Q 422 2884 422 3419 
Q 422 4038 858 4394 
Q 1294 4750 2059 4750 
Q 2388 4750 2728 4690 
Q 3069 4631 3425 4513 
z
" transform="scale(0.015625)"/>
       <path id="DejaVuSans-74" d="M 1172 4494 
L 1172 3500 
L 2356 3500 
L 2356 3053 
L 1172 3053 
L 1172 1153 
Q 1172 725 1289 603 
Q 1406 481 1766 481 
L 2356 481 
L 2356 0 
L 1766 0 
Q 1100 0 847 248 
Q 594 497 594 1153 
L 594 3053 
L 172 3053 
L 172 3500 
L 594 3500 
L 594 4494 
L 1172 4494 
z
" transform="scale(0.015625)"/>
       <path id="DejaVuSans-65" d="M 3597 1894 
L 3597 1613 
L 953 1613 
Q 991 1019 1311 708 
Q 1631 397 2203 397 
Q 2534 397 2845 478 
Q 3156 559 3463 722 
L 3463 178 
Q 3153 47 2828 -22 
Q 2503 -91 2169 -91 
Q 1331 -91 842 396 
Q 353 884 353 1716 
Q 353 2575 817 3079 
Q 1281 3584 2069 3584 
Q 2775 3584 3186 3129 
Q 3597 2675 3597 1894 
z
M 3022 2063 
Q 3016 2534 2758 2815 
Q 2500 3097 2075 3097 
Q 1594 3097 1305 2825 
Q 1016 2553 972 2059 
L 3022 2063 
z
" transform="scale(0.015625)"/>
       <path id="DejaVuSans-70" d="M 1159 525 
L 1159 -1331 
L 581 -1331 
L 581 3500 
L 1159 3500 
L 1159 2969 
Q 1341 3281 1617 3432 
Q 1894 3584 2278 3584 
Q 2916 3584 3314 3078 
Q 3713 2572 3713 1747 
Q 3713 922 3314 415 
Q 2916 -91 2278 -91 
Q 1894 -91 1617 61 
Q 1341 213 1159 525 
z
M 3116 1747 
Q 3116 2381 2855 2742 
Q 2594 3103 2138 3103 
Q 1681 3103 1420 2742 
Q 1159 2381 1159 1747 
Q 1159 1113 1420 752 
Q 1681 391 2138 391 
Q 2594 391 2855 752 
Q 3116 1113 3116 1747 
z
" transform="scale(0.015625)"/>
       <path id="DejaVuSans-73" d="M 2834 3397 
L 2834 2853 
Q 2591 2978 2328 3040 
Q 2066 3103 1784 3103 
Q 1356 3103 1142 2972 
Q 928 2841 928 2578 
Q 928 2378 1081 2264 
Q 1234 2150 1697 2047 
L 1894 2003 
Q 2506 1872 2764 1633 
Q 3022 1394 3022 966 
Q 3022 478 2636 193 
Q 2250 -91 1575 -91 
Q 1294 -91 989 -36 
Q 684 19 347 128 
L 347 722 
Q 666 556 975 473 
Q 1284 391 1588 391 
Q 1994 391 2212 530 
Q 2431 669 2431 922 
Q 2431 1156 2273 1281 
Q 2116 1406 1581 1522 
L 1381 1569 
Q 847 1681 609 1914 
Q 372 2147 372 2553 
Q 372 3047 722 3315 
Q 1072 3584 1716 3584 
Q 2034 3584 2315 3537 
Q 2597 3491 2834 3397 
z
" transform="scale(0.015625)"/>
      </defs>
      <use xlink:href="#DejaVuSans-53"/>
      <use xlink:href="#DejaVuSans-74" transform="translate(63.476562 0)"/>
      <use xlink:href="#DejaVuSans-65" transform="translate(102.685547 0)"/>
      <use xlink:href="#DejaVuSans-70" transform="translate(164.208984 0)"/>
      <use xlink:href="#DejaVuSans-73" transform="translate(227.685547 0)"/>
     </g>
    </g>
   </g>
   <g id="matplotlib.axis_2">
    <g id="ytick_1">
     <g id="line2d_13">
      <path d="M 39.58149 398.64351 
L 437.381562 398.64351 
" clip-path="url(#pd743c491ef)" style="fill: none; stroke-dasharray: 2.96,1.28; stroke-dashoffset: 0; stroke: #b0b0b0; stroke-opacity: 0.7; stroke-width: 0.8"/>
     </g>
     <g id="line2d_14">
      <defs>
       <path id="mb854954d4e" d="M 0 0 
L -3.5 0 
" style="stroke: #000000; stroke-width: 0.8"/>
      </defs>
      <g>
       <use xlink:href="#mb854954d4e" x="39.58149" y="398.64351" style="stroke: #000000; stroke-width: 0.8"/>
      </g>
     </g>
     <g id="text_8">
      <!-- 0.0 -->
      <g transform="translate(16.678365 402.442729) scale(0.1 -0.1)">
       <defs>
        <path id="DejaVuSans-2e" d="M 684 794 
L 1344 794 
L 1344 0 
L 684 0 
L 684 794 
z
" transform="scale(0.015625)"/>
       </defs>
       <use xlink:href="#DejaVuSans-30"/>
       <use xlink:href="#DejaVuSans-2e" transform="translate(63.623047 0)"/>
       <use xlink:href="#DejaVuSans-30" transform="translate(95.410156 0)"/>
      </g>
     </g>
    </g>
    <g id="ytick_2">
     <g id="line2d_15">
      <path d="M 39.58149 327.125883 
L 437.381562 327.125883 
" clip-path="url(#pd743c491ef)" style="fill: none; stroke-dasharray: 2.96,1.28; stroke-dashoffset: 0; stroke: #b0b0b0; stroke-opacity: 0.7; stroke-width: 0.8"/>
     </g>
     <g id="line2d_16">
      <g>
       <use xlink:href="#mb854954d4e" x="39.58149" y="327.125883" style="stroke: #000000; stroke-width: 0.8"/>
      </g>
     </g>
     <g id="text_9">
      <!-- 0.2 -->
      <g transform="translate(16.678365 330.925102) scale(0.1 -0.1)">
       <use xlink:href="#DejaVuSans-30"/>
       <use xlink:href="#DejaVuSans-2e" transform="translate(63.623047 0)"/>
       <use xlink:href="#DejaVuSans-32" transform="translate(95.410156 0)"/>
      </g>
     </g>
    </g>
    <g id="ytick_3">
     <g id="line2d_17">
      <path d="M 39.58149 255.608256 
L 437.381562 255.608256 
" clip-path="url(#pd743c491ef)" style="fill: none; stroke-dasharray: 2.96,1.28; stroke-dashoffset: 0; stroke: #b0b0b0; stroke-opacity: 0.7; stroke-width: 0.8"/>
     </g>
     <g id="line2d_18">
      <g>
       <use xlink:href="#mb854954d4e" x="39.58149" y="255.608256" style="stroke: #000000; stroke-width: 0.8"/>
      </g>
     </g>
     <g id="text_10">
      <!-- 0.4 -->
      <g transform="translate(16.678365 259.407475) scale(0.1 -0.1)">
       <use xlink:href="#DejaVuSans-30"/>
       <use xlink:href="#DejaVuSans-2e" transform="translate(63.623047 0)"/>
       <use xlink:href="#DejaVuSans-34" transform="translate(95.410156 0)"/>
      </g>
     </g>
    </g>
    <g id="ytick_4">
     <g id="line2d_19">
      <path d="M 39.58149 184.090629 
L 437.381562 184.090629 
" clip-path="url(#pd743c491ef)" style="fill: none; stroke-dasharray: 2.96,1.28; stroke-dashoffset: 0; stroke: #b0b0b0; stroke-opacity: 0.7; stroke-width: 0.8"/>
     </g>
     <g id="line2d_20">
      <g>
       <use xlink:href="#mb854954d4e" x="39.58149" y="184.090629" style="stroke: #000000; stroke-width: 0.8"/>
      </g>
     </g>
     <g id="text_11">
      <!-- 0.6 -->
      <g transform="translate(16.678365 187.889848) scale(0.1 -0.1)">
       <defs>
        <path id="DejaVuSans-36" d="M 2113 2584 
Q 1688 2584 1439 2293 
Q 1191 2003 1191 1497 
Q 1191 994 1439 701 
Q 1688 409 2113 409 
Q 2538 409 2786 701 
Q 3034 994 3034 1497 
Q 3034 2003 2786 2293 
Q 2538 2584 2113 2584 
z
M 3366 4563 
L 3366 3988 
Q 3128 4100 2886 4159 
Q 2644 4219 2406 4219 
Q 1781 4219 1451 3797 
Q 1122 3375 1075 2522 
Q 1259 2794 1537 2939 
Q 1816 3084 2150 3084 
Q 2853 3084 3261 2657 
Q 3669 2231 3669 1497 
Q 3669 778 3244 343 
Q 2819 -91 2113 -91 
Q 1303 -91 875 529 
Q 447 1150 447 2328 
Q 447 3434 972 4092 
Q 1497 4750 2381 4750 
Q 2619 4750 2861 4703 
Q 3103 4656 3366 4563 
z
" transform="scale(0.015625)"/>
       </defs>
       <use xlink:href="#DejaVuSans-30"/>
       <use xlink:href="#DejaVuSans-2e" transform="translate(63.623047 0)"/>
       <use xlink:href="#DejaVuSans-36" transform="translate(95.410156 0)"/>
      </g>
     </g>
    </g>
    <g id="ytick_5">
     <g id="line2d_21">
      <path d="M 39.58149 112.573002 
L 437.381562 112.573002 
" clip-path="url(#pd743c491ef)" style="fill: none; stroke-dasharray: 2.96,1.28; stroke-dashoffset: 0; stroke: #b0b0b0; stroke-opacity: 0.7; stroke-width: 0.8"/>
     </g>
     <g id="line2d_22">
      <g>
       <use xlink:href="#mb854954d4e" x="39.58149" y="112.573002" style="stroke: #000000; stroke-width: 0.8"/>
      </g>
     </g>
     <g id="text_12">
      <!-- 0.8 -->
      <g transform="translate(16.678365 116.372221) scale(0.1 -0.1)">
       <defs>
        <path id="DejaVuSans-38" d="M 2034 2216 
Q 1584 2216 1326 1975 
Q 1069 1734 1069 1313 
Q 1069 891 1326 650 
Q 1584 409 2034 409 
Q 2484 409 2743 651 
Q 3003 894 3003 1313 
Q 3003 1734 2745 1975 
Q 2488 2216 2034 2216 
z
M 1403 2484 
Q 997 2584 770 2862 
Q 544 3141 544 3541 
Q 544 4100 942 4425 
Q 1341 4750 2034 4750 
Q 2731 4750 3128 4425 
Q 3525 4100 3525 3541 
Q 3525 3141 3298 2862 
Q 3072 2584 2669 2484 
Q 3125 2378 3379 2068 
Q 3634 1759 3634 1313 
Q 3634 634 3220 271 
Q 2806 -91 2034 -91 
Q 1263 -91 848 271 
Q 434 634 434 1313 
Q 434 1759 690 2068 
Q 947 2378 1403 2484 
z
M 1172 3481 
Q 1172 3119 1398 2916 
Q 1625 2713 2034 2713 
Q 2441 2713 2670 2916 
Q 2900 3119 2900 3481 
Q 2900 3844 2670 4047 
Q 2441 4250 2034 4250 
Q 1625 4250 1398 4047 
Q 1172 3844 1172 3481 
z
" transform="scale(0.015625)"/>
       </defs>
       <use xlink:href="#DejaVuSans-30"/>
       <use xlink:href="#DejaVuSans-2e" transform="translate(63.623047 0)"/>
       <use xlink:href="#DejaVuSans-38" transform="translate(95.410156 0)"/>
      </g>
     </g>
    </g>
    <g id="ytick_6">
     <g id="line2d_23">
      <path d="M 39.58149 41.055376 
L 437.381562 41.055376 
" clip-path="url(#pd743c491ef)" style="fill: none; stroke-dasharray: 2.96,1.28; stroke-dashoffset: 0; stroke: #b0b0b0; stroke-opacity: 0.7; stroke-width: 0.8"/>
     </g>
     <g id="line2d_24">
      <g>
       <use xlink:href="#mb854954d4e" x="39.58149" y="41.055376" style="stroke: #000000; stroke-width: 0.8"/>
      </g>
     </g>
     <g id="text_13">
      <!-- 1.0 -->
      <g transform="translate(16.678365 44.854594) scale(0.1 -0.1)">
       <use xlink:href="#DejaVuSans-31"/>
       <use xlink:href="#DejaVuSans-2e" transform="translate(63.623047 0)"/>
       <use xlink:href="#DejaVuSans-30" transform="translate(95.410156 0)"/>
      </g>
     </g>
    </g>
    <g id="text_14">
     <!-- Accuracy -->
     <g transform="translate(10.598677 231.209062) rotate(-90) scale(0.1 -0.1)">
      <defs>
       <path id="DejaVuSans-41" d="M 2188 4044 
L 1331 1722 
L 3047 1722 
L 2188 4044 
z
M 1831 4666 
L 2547 4666 
L 4325 0 
L 3669 0 
L 3244 1197 
L 1141 1197 
L 716 0 
L 50 0 
L 1831 4666 
z
" transform="scale(0.015625)"/>
       <path id="DejaVuSans-63" d="M 3122 3366 
L 3122 2828 
Q 2878 2963 2633 3030 
Q 2388 3097 2138 3097 
Q 1578 3097 1268 2742 
Q 959 2388 959 1747 
Q 959 1106 1268 751 
Q 1578 397 2138 397 
Q 2388 397 2633 464 
Q 2878 531 3122 666 
L 3122 134 
Q 2881 22 2623 -34 
Q 2366 -91 2075 -91 
Q 1284 -91 818 406 
Q 353 903 353 1747 
Q 353 2603 823 3093 
Q 1294 3584 2113 3584 
Q 2378 3584 2631 3529 
Q 2884 3475 3122 3366 
z
" transform="scale(0.015625)"/>
       <path id="DejaVuSans-75" d="M 544 1381 
L 544 3500 
L 1119 3500 
L 1119 1403 
Q 1119 906 1312 657 
Q 1506 409 1894 409 
Q 2359 409 2629 706 
Q 2900 1003 2900 1516 
L 2900 3500 
L 3475 3500 
L 3475 0 
L 2900 0 
L 2900 538 
Q 2691 219 2414 64 
Q 2138 -91 1772 -91 
Q 1169 -91 856 284 
Q 544 659 544 1381 
z
M 1991 3584 
L 1991 3584 
z
" transform="scale(0.015625)"/>
       <path id="DejaVuSans-72" d="M 2631 2963 
Q 2534 3019 2420 3045 
Q 2306 3072 2169 3072 
Q 1681 3072 1420 2755 
Q 1159 2438 1159 1844 
L 1159 0 
L 581 0 
L 581 3500 
L 1159 3500 
L 1159 2956 
Q 1341 3275 1631 3429 
Q 1922 3584 2338 3584 
Q 2397 3584 2469 3576 
Q 2541 3569 2628 3553 
L 2631 2963 
z
" transform="scale(0.015625)"/>
       <path id="DejaVuSans-61" d="M 2194 1759 
Q 1497 1759 1228 1600 
Q 959 1441 959 1056 
Q 959 750 1161 570 
Q 1363 391 1709 391 
Q 2188 391 2477 730 
Q 2766 1069 2766 1631 
L 2766 1759 
L 2194 1759 
z
M 3341 1997 
L 3341 0 
L 2766 0 
L 2766 531 
Q 2569 213 2275 61 
Q 1981 -91 1556 -91 
Q 1019 -91 701 211 
Q 384 513 384 1019 
Q 384 1609 779 1909 
Q 1175 2209 1959 2209 
L 2766 2209 
L 2766 2266 
Q 2766 2663 2505 2880 
Q 2244 3097 1772 3097 
Q 1472 3097 1187 3025 
Q 903 2953 641 2809 
L 641 3341 
Q 956 3463 1253 3523 
Q 1550 3584 1831 3584 
Q 2591 3584 2966 3190 
Q 3341 2797 3341 1997 
z
" transform="scale(0.015625)"/>
       <path id="DejaVuSans-79" d="M 2059 -325 
Q 1816 -950 1584 -1140 
Q 1353 -1331 966 -1331 
L 506 -1331 
L 506 -850 
L 844 -850 
Q 1081 -850 1212 -737 
Q 1344 -625 1503 -206 
L 1606 56 
L 191 3500 
L 800 3500 
L 1894 763 
L 2988 3500 
L 3597 3500 
L 2059 -325 
z
" transform="scale(0.015625)"/>
      </defs>
      <use xlink:href="#DejaVuSans-41"/>
      <use xlink:href="#DejaVuSans-63" transform="translate(66.658203 0)"/>
      <use xlink:href="#DejaVuSans-63" transform="translate(121.638672 0)"/>
      <use xlink:href="#DejaVuSans-75" transform="translate(176.619141 0)"/>
      <use xlink:href="#DejaVuSans-72" transform="translate(239.998047 0)"/>
      <use xlink:href="#DejaVuSans-61" transform="translate(281.111328 0)"/>
      <use xlink:href="#DejaVuSans-63" transform="translate(342.390625 0)"/>
      <use xlink:href="#DejaVuSans-79" transform="translate(397.371094 0)"/>
     </g>
    </g>
   </g>
   <g id="line2d_25">
    <path d="M 39.58149 368.445132 
L 41.859189 317.588778 
L 42.618422 302.202455 
L 43.377654 280.171741 
L 44.89612 253.792586 
L 46.414586 233.890922 
L 47.933052 217.100962 
L 49.451518 202.323779 
L 50.969983 189.593442 
L 52.488449 179.052182 
L 54.006915 169.945493 
L 54.766148 171.911921 
L 55.525381 165.959691 
L 56.284614 153.916094 
L 57.803079 119.881067 
L 58.562312 102.360916 
L 59.321545 87.441717 
L 60.080778 77.221445 
L 60.840011 73.634312 
L 61.599244 79.149653 
L 63.11771 78.996498 
L 64.636175 78.57697 
L 66.154641 77.98104 
L 69.191573 76.393581 
L 70.710038 75.932739 
L 72.228504 75.50584 
L 73.74697 74.780472 
L 74.506203 75.085349 
L 75.265436 74.595311 
L 76.024669 73.734896 
L 79.820833 67.380247 
L 80.580066 66.857408 
L 81.339299 67.115792 
L 82.098532 66.659045 
L 83.616998 66.11848 
L 88.931628 65.678929 
L 91.968559 65.124782 
L 92.727792 65.636519 
L 93.487025 65.134281 
L 95.764724 62.01331 
L 96.523957 61.412426 
L 97.28319 61.148759 
L 98.042422 61.239914 
L 98.801655 61.813377 
L 99.560888 62.802589 
L 100.320121 62.601222 
L 101.079354 62.270721 
L 102.59782 61.90831 
L 106.393984 61.753483 
L 108.671683 61.496743 
L 110.949382 61.23984 
L 111.708615 62.145546 
L 112.467847 60.916512 
L 113.22708 59.466457 
L 113.986313 58.384098 
L 114.745546 57.692173 
L 115.504779 57.237663 
L 116.264012 57.219863 
L 117.023245 57.640201 
L 117.782478 58.547296 
L 118.541711 60.039567 
L 119.300943 59.347834 
L 120.060176 59.109246 
L 121.578642 59.144342 
L 123.856341 58.736087 
L 126.134039 58.495627 
L 127.652505 58.424911 
L 130.689437 58.42506 
L 132.207903 58.235233 
L 136.004067 57.851378 
L 139.800231 57.10626 
L 141.318697 57.086097 
L 143.596396 57.264464 
L 146.633327 57.394219 
L 148.911026 57.178301 
L 149.670259 57.518605 
L 151.188725 56.50454 
L 153.466423 55.30225 
L 154.225656 55.108177 
L 154.984889 55.193082 
L 155.744122 55.521949 
L 156.503355 56.165391 
L 157.262588 55.928549 
L 158.781054 56.050098 
L 161.817985 55.657552 
L 163.336451 55.65213 
L 167.891848 55.987123 
L 168.651081 57.2952 
L 169.410314 55.554865 
L 170.169547 54.115473 
L 170.92878 53.004601 
L 171.688013 52.15804 
L 172.447246 51.736701 
L 173.206479 51.795833 
L 173.965711 52.417605 
L 174.724944 53.633631 
L 175.484177 55.508386 
L 176.24341 54.443069 
L 177.761876 54.700255 
L 179.280342 54.76328 
L 182.317273 54.918879 
L 185.354205 54.779196 
L 186.872671 54.722081 
L 187.631903 55.136291 
L 189.150369 53.903452 
L 189.909602 53.494257 
L 190.668835 53.294822 
L 191.428068 53.292277 
L 192.187301 53.426016 
L 192.946534 53.679893 
L 193.705767 54.056958 
L 194.464999 54.630099 
L 195.224232 54.189306 
L 196.742698 54.055773 
L 199.77963 54.16923 
L 202.057328 54.115994 
L 205.09426 53.96743 
L 205.853493 53.916049 
L 206.612726 54.259913 
L 207.371959 53.929508 
L 210.40889 51.60124 
L 211.168123 51.26094 
L 211.927356 51.114594 
L 212.686589 51.316413 
L 213.445822 51.9442 
L 214.964287 52.012872 
L 217.241986 52.341656 
L 224.834315 52.720766 
L 225.593548 53.263363 
L 227.112014 51.970619 
L 228.63048 51.254379 
L 229.389712 51.177093 
L 230.148945 51.308099 
L 230.908178 51.683021 
L 231.667411 52.265695 
L 232.426644 53.037993 
L 233.185877 52.549518 
L 240.018973 52.368397 
L 248.370535 52.817373 
L 251.407466 52.987205 
L 252.925932 52.845473 
L 254.444398 52.836766 
L 258.240562 52.938872 
L 264.314425 52.765942 
L 265.073658 52.570001 
L 266.592124 51.975132 
L 268.11059 51.642532 
L 269.629056 51.679097 
L 271.906754 52.334239 
L 274.943686 52.389358 
L 277.221384 52.18191 
L 281.776782 51.890611 
L 282.536015 52.045871 
L 284.05448 51.555332 
L 286.332179 50.977972 
L 287.850645 50.774573 
L 288.609878 50.821489 
L 289.369111 51.02577 
L 290.128344 50.836892 
L 292.406042 50.864708 
L 296.202207 50.919297 
L 300.757604 51.38711 
L 301.516837 52.148005 
L 303.035303 50.581977 
L 303.794536 50.027013 
L 304.553768 49.734668 
L 305.313001 49.637596 
L 306.072234 49.788245 
L 306.831467 50.161237 
L 307.5907 50.763846 
L 308.349933 51.640234 
L 309.109166 50.965479 
L 310.627632 50.91365 
L 314.423796 51.322337 
L 317.460728 51.199775 
L 319.738426 51.070167 
L 320.497659 50.481786 
L 322.016125 51.989706 
L 322.775358 52.510788 
L 323.534591 52.764487 
L 324.293824 52.830486 
L 325.053056 52.679952 
L 325.812289 52.368525 
L 326.571522 51.825979 
L 327.330755 50.993548 
L 328.089988 51.519736 
L 328.849221 51.604918 
L 331.12692 51.417967 
L 336.44155 51.00453 
L 338.719248 50.992418 
L 339.478481 50.872367 
L 340.996947 51.195147 
L 342.515413 51.157989 
L 344.033879 50.707068 
L 346.311577 49.576651 
L 350.107742 49.553511 
L 354.663139 50.035955 
L 358.459304 50.182742 
L 359.218537 49.917908 
L 359.977769 49.961009 
L 363.014701 51.004481 
L 363.773934 51.040357 
L 364.533167 50.914532 
L 365.2924 50.674705 
L 366.051633 50.135887 
L 367.570098 49.924792 
L 369.847797 50.112869 
L 372.884729 50.422235 
L 376.680893 50.409267 
L 377.440126 50.741916 
L 378.958592 49.838818 
L 379.717825 49.66009 
L 380.477057 49.628449 
L 381.23629 49.824396 
L 382.754756 50.673517 
L 384.273222 51.67845 
L 385.032455 51.231455 
L 387.310153 50.603406 
L 388.828619 50.484752 
L 395.661715 50.492508 
L 396.420948 49.652699 
L 397.180181 51.091627 
L 397.939414 51.933731 
L 398.698647 52.323491 
L 399.45788 52.431102 
L 400.217113 52.15158 
L 400.976345 51.573481 
L 401.735578 50.746378 
L 402.494811 49.727584 
L 403.254044 48.509113 
L 404.013277 49.613075 
L 405.531743 49.636958 
L 407.050209 49.807978 
L 409.327907 49.786715 
L 412.364839 49.669845 
L 416.920236 49.909135 
L 418.438702 50.045254 
L 418.438702 50.045254 
" clip-path="url(#pd743c491ef)" style="fill: none; stroke: #1f77b4; stroke-width: 1.5; stroke-linecap: square"/>
   </g>
   <g id="line2d_26">
    <path d="M 39.58149 377.408528 
L 41.099956 301.838089 
L 43.377654 200.314574 
L 44.136887 179.041996 
L 44.89612 161.591514 
L 45.655353 149.077867 
L 46.414586 139.549533 
L 47.173819 131.725138 
L 47.933052 125.198372 
L 49.451518 114.819736 
L 50.969983 106.830292 
L 52.488449 100.496624 
L 54.006915 95.264528 
L 54.766148 96.596077 
L 55.525381 92.966001 
L 56.284614 86.147136 
L 59.321545 51.139777 
L 60.080778 46.296656 
L 60.840011 45.157889 
L 61.599244 48.940552 
L 69.191573 47.91453 
L 72.987737 47.797466 
L 73.74697 47.561381 
L 75.265436 47.933075 
L 76.024669 47.936711 
L 76.783902 47.821744 
L 78.302367 47.236744 
L 80.580066 46.072278 
L 81.339299 46.158329 
L 84.37623 45.791282 
L 85.894696 45.80961 
L 90.450094 45.981876 
L 95.764724 46.01151 
L 99.560888 45.451473 
L 101.079354 45.414234 
L 103.357053 45.182966 
L 108.671683 45.398783 
L 110.949382 45.505516 
L 111.708615 45.90828 
L 112.467847 45.317422 
L 113.986313 44.736479 
L 115.504779 44.622026 
L 117.023245 44.789034 
L 117.782478 45.01708 
L 118.541711 45.377731 
L 119.300943 44.818811 
L 121.578642 44.838233 
L 124.615574 44.833954 
L 128.411738 44.801956 
L 129.930204 44.824019 
L 130.689437 45.164029 
L 132.207903 44.407679 
L 133.726368 43.843671 
L 134.485601 43.71941 
L 135.244834 43.739201 
L 136.004067 43.887395 
L 136.7633 44.186001 
L 137.522533 44.648833 
L 138.281766 44.366929 
L 139.800231 44.376004 
L 142.07793 44.374179 
L 147.39256 44.46716 
L 148.911026 44.455157 
L 149.670259 43.781856 
L 150.429492 44.81789 
L 151.188725 45.526793 
L 151.947958 45.96192 
L 152.707191 46.085142 
L 153.466423 45.8831 
L 154.225656 45.466629 
L 154.984889 44.865509 
L 156.503355 43.181579 
L 157.262588 44.010202 
L 159.540287 44.213575 
L 162.577218 44.128562 
L 170.169547 44.251883 
L 172.447246 43.892694 
L 174.724944 43.859123 
L 176.24341 43.976865 
L 182.317273 43.918195 
L 186.113438 43.883667 
L 189.909602 43.88484 
L 192.946534 44.283559 
L 194.464999 44.197426 
L 195.983465 43.916271 
L 199.77963 43.748497 
L 205.853493 43.719583 
L 206.612726 43.926393 
L 207.371959 43.704 
L 208.890424 43.033283 
L 210.40889 42.680719 
L 211.168123 42.66565 
L 211.927356 42.811963 
L 212.686589 43.097614 
L 213.445822 43.543059 
L 214.964287 43.474059 
L 217.241986 43.616998 
L 224.834315 43.740829 
L 225.593548 43.97133 
L 228.63048 42.941542 
L 230.148945 42.714841 
L 230.908178 42.710436 
L 231.667411 42.850573 
L 232.426644 43.12954 
L 233.185877 42.936384 
L 234.704343 42.942618 
L 243.815137 43.497808 
L 244.57437 43.462957 
L 245.333603 43.583977 
L 246.852069 43.458302 
L 249.889 43.117979 
L 251.407466 43.089381 
L 252.166699 43.240867 
L 254.444398 43.2621 
L 261.277494 43.444351 
L 262.79596 43.417931 
L 263.555192 43.609713 
L 265.073658 43.068647 
L 266.592124 42.86749 
L 268.11059 42.915339 
L 269.629056 43.240857 
L 270.388288 43.507853 
L 271.147521 43.275286 
L 272.665987 43.201521 
L 277.221384 43.313709 
L 280.258316 43.438889 
L 281.776782 43.420444 
L 282.536015 43.616588 
L 285.572946 42.751594 
L 287.091412 42.933609 
L 288.609878 43.3915 
L 289.369111 43.713396 
L 290.887576 43.36804 
L 292.406042 43.265938 
L 300.757604 43.256853 
L 301.516837 43.445533 
L 302.27607 43.131567 
L 303.794536 42.869894 
L 305.313001 42.962531 
L 307.5907 43.429021 
L 308.349933 43.621126 
L 309.109166 43.290157 
L 312.146097 43.021551 
L 316.701495 42.997509 
L 319.738426 42.98439 
L 320.497659 43.153021 
L 325.053056 42.163371 
L 325.812289 42.257902 
L 326.571522 42.48349 
L 327.330755 42.856855 
L 328.849221 42.976516 
L 331.12692 43.065821 
L 334.163851 42.998817 
L 337.200783 43.021844 
L 338.719248 43.058971 
L 339.478481 42.765374 
L 340.237714 43.241721 
L 340.996947 43.557905 
L 342.515413 43.868604 
L 343.274646 43.880821 
L 344.033879 43.768126 
L 344.793112 43.539938 
L 346.311577 42.719816 
L 347.07081 43.006723 
L 349.348509 42.929834 
L 354.663139 43.070074 
L 359.218537 42.953153 
L 362.255468 43.44844 
L 363.773934 43.397189 
L 366.810865 42.9698 
L 369.847797 42.906446 
L 376.680893 42.951449 
L 377.440126 43.120569 
L 378.958592 42.736093 
L 381.23629 42.402352 
L 382.754756 42.441572 
L 384.273222 42.744648 
L 385.032455 42.563337 
L 390.347085 42.766179 
L 395.661715 42.761165 
L 396.420948 42.664618 
L 398.698647 42.974136 
L 400.976345 42.915295 
L 404.013277 42.76136 
L 407.809441 42.971786 
L 410.846373 42.975702 
L 418.438702 42.952731 
L 418.438702 42.952731 
" clip-path="url(#pd743c491ef)" style="fill: none; stroke: #ff7f0e; stroke-width: 1.5; stroke-linecap: square"/>
   </g>
   <g id="line2d_27">
    <path d="M 39.58149 374.267291 
L 41.099956 271.627504 
L 41.859189 230.119813 
L 42.618422 195.15359 
L 43.377654 153.905041 
L 44.136887 137.246713 
L 44.89612 126.708503 
L 45.655353 118.828036 
L 46.414586 112.143957 
L 47.173819 106.553231 
L 47.933052 101.915822 
L 49.451518 94.598524 
L 50.969983 88.97761 
L 52.488449 84.459997 
L 54.006915 80.700251 
L 54.766148 81.61266 
L 55.525381 79.052366 
L 56.284614 74.282214 
L 59.321545 49.811756 
L 60.080778 46.336336 
L 60.840011 45.443867 
L 61.599244 48.007052 
L 63.11771 47.796007 
L 69.191573 47.293665 
L 72.987737 47.069453 
L 73.74697 47.259793 
L 75.265436 46.584117 
L 76.783902 45.821278 
L 78.302367 45.357053 
L 79.0616 45.333288 
L 79.820833 45.513213 
L 80.580066 45.892767 
L 82.857765 45.560725 
L 85.135463 45.331904 
L 87.413162 45.379227 
L 91.209326 45.485633 
L 91.968559 45.497775 
L 92.727792 45.387224 
L 94.246258 45.643551 
L 95.005491 45.634681 
L 97.28319 45.289493 
L 99.560888 44.928184 
L 100.320121 45.094189 
L 101.838587 45.014776 
L 103.357053 44.877566 
L 107.153217 45.001107 
L 110.190149 45.108038 
L 110.949382 45.110753 
L 111.708615 45.459717 
L 112.467847 44.946694 
L 113.986313 44.360346 
L 115.504779 44.165824 
L 117.023245 44.275911 
L 117.782478 44.469377 
L 118.541711 44.781961 
L 119.300943 44.283804 
L 120.819409 44.246969 
L 124.615574 44.458716 
L 126.893272 44.417704 
L 129.930204 44.526728 
L 130.689437 44.357219 
L 132.207903 44.837059 
L 133.726368 44.981961 
L 135.244834 44.730117 
L 136.7633 44.175221 
L 137.522533 43.816516 
L 138.281766 43.940099 
L 141.318697 43.874035 
L 148.911026 44.029063 
L 149.670259 43.578295 
L 150.429492 44.346346 
L 151.188725 44.782577 
L 151.947958 45.049564 
L 152.707191 45.124894 
L 153.466423 44.964607 
L 154.225656 44.646818 
L 155.744122 43.651009 
L 156.503355 43.031721 
L 157.262588 43.636974 
L 167.891848 43.848482 
L 168.651081 44.083427 
L 170.169547 43.495431 
L 171.688013 43.150279 
L 173.206479 42.98392 
L 174.724944 43.163294 
L 175.484177 43.450948 
L 176.24341 43.222725 
L 180.039575 43.381159 
L 189.909602 43.526988 
L 193.705767 43.144875 
L 194.464999 43.163746 
L 195.224232 43.313099 
L 205.853493 43.281518 
L 206.612726 43.460888 
L 208.890424 42.759337 
L 210.40889 42.6396 
L 211.927356 42.867724 
L 213.445822 43.384366 
L 214.964287 43.212014 
L 224.834315 43.459895 
L 225.593548 43.64838 
L 228.63048 42.732753 
L 230.148945 42.624405 
L 231.667411 42.809703 
L 232.426644 43.057935 
L 233.185877 42.873412 
L 235.463576 42.88925 
L 242.296672 43.094557 
L 246.852069 43.148948 
L 249.129768 42.883268 
L 251.407466 42.822612 
L 252.166699 43.050892 
L 254.444398 43.061974 
L 258.240562 43.183215 
L 263.555192 43.337391 
L 265.073658 42.832799 
L 266.592124 42.645079 
L 268.11059 42.761645 
L 269.629056 43.132529 
L 270.388288 43.379178 
L 271.906754 43.047767 
L 274.184453 42.932806 
L 276.462152 43.017209 
L 279.499083 43.146028 
L 281.776782 43.12254 
L 282.536015 43.296842 
L 285.572946 42.543872 
L 287.091412 42.642699 
L 288.609878 43.002012 
L 289.369111 43.285316 
L 290.887576 43.028543 
L 293.165275 42.932074 
L 300.757604 43.010413 
L 301.516837 43.199051 
L 302.27607 42.940761 
L 304.553768 42.628878 
L 306.072234 42.671721 
L 307.5907 42.889258 
L 308.349933 43.095105 
L 309.109166 42.880924 
L 311.386864 42.876026 
L 319.738426 42.826723 
L 320.497659 42.996449 
L 322.016125 42.647239 
L 324.293824 42.057619 
L 325.053056 41.991564 
L 325.812289 42.062891 
L 326.571522 42.245835 
L 327.330755 42.565453 
L 337.960016 42.659689 
L 343.274646 42.84368 
L 347.07081 42.655574 
L 350.107742 42.541015 
L 356.181605 42.682893 
L 359.218537 42.64278 
L 361.496235 43.104804 
L 363.014701 43.245226 
L 364.533167 43.050688 
L 365.2924 42.819885 
L 369.088564 42.692702 
L 373.643961 42.677866 
L 378.958592 42.951911 
L 380.477057 42.94472 
L 382.754756 42.649623 
L 384.273222 42.333203 
L 385.791688 42.46943 
L 391.106318 42.658793 
L 395.661715 42.648737 
L 396.420948 42.311157 
L 397.939414 43.201637 
L 398.698647 43.493612 
L 399.45788 43.622353 
L 400.217113 43.602171 
L 400.976345 43.455783 
L 401.735578 43.189411 
L 402.494811 42.784315 
L 403.254044 42.223503 
L 404.013277 42.533382 
L 407.050209 42.703124 
L 410.08714 42.771909 
L 418.438702 42.817224 
L 418.438702 42.817224 
" clip-path="url(#pd743c491ef)" style="fill: none; stroke: #2ca02c; stroke-width: 1.5; stroke-linecap: square"/>
   </g>
   <g id="patch_3">
    <path d="M 39.58149 398.64351 
L 39.58149 18.118365 
" style="fill: none; stroke: #000000; stroke-width: 0.8; stroke-linejoin: miter; stroke-linecap: square"/>
   </g>
   <g id="patch_4">
    <path d="M 437.381562 398.64351 
L 437.381562 18.118365 
" style="fill: none; stroke: #000000; stroke-width: 0.8; stroke-linejoin: miter; stroke-linecap: square"/>
   </g>
   <g id="patch_5">
    <path d="M 39.58149 398.64351 
L 437.381562 398.64351 
" style="fill: none; stroke: #000000; stroke-width: 0.8; stroke-linejoin: miter; stroke-linecap: square"/>
   </g>
   <g id="patch_6">
    <path d="M 39.58149 18.118365 
L 437.381562 18.118365 
" style="fill: none; stroke: #000000; stroke-width: 0.8; stroke-linejoin: miter; stroke-linecap: square"/>
   </g>
   <g id="text_15">
    <!-- Learning curves -->
    <g transform="translate(190.588401 12.118365) scale(0.12 -0.12)">
     <defs>
      <path id="DejaVuSans-4c" d="M 628 4666 
L 1259 4666 
L 1259 531 
L 3531 531 
L 3531 0 
L 628 0 
L 628 4666 
z
" transform="scale(0.015625)"/>
      <path id="DejaVuSans-6e" d="M 3513 2113 
L 3513 0 
L 2938 0 
L 2938 2094 
Q 2938 2591 2744 2837 
Q 2550 3084 2163 3084 
Q 1697 3084 1428 2787 
Q 1159 2491 1159 1978 
L 1159 0 
L 581 0 
L 581 3500 
L 1159 3500 
L 1159 2956 
Q 1366 3272 1645 3428 
Q 1925 3584 2291 3584 
Q 2894 3584 3203 3211 
Q 3513 2838 3513 2113 
z
" transform="scale(0.015625)"/>
      <path id="DejaVuSans-69" d="M 603 3500 
L 1178 3500 
L 1178 0 
L 603 0 
L 603 3500 
z
M 603 4863 
L 1178 4863 
L 1178 4134 
L 603 4134 
L 603 4863 
z
" transform="scale(0.015625)"/>
      <path id="DejaVuSans-67" d="M 2906 1791 
Q 2906 2416 2648 2759 
Q 2391 3103 1925 3103 
Q 1463 3103 1205 2759 
Q 947 2416 947 1791 
Q 947 1169 1205 825 
Q 1463 481 1925 481 
Q 2391 481 2648 825 
Q 2906 1169 2906 1791 
z
M 3481 434 
Q 3481 -459 3084 -895 
Q 2688 -1331 1869 -1331 
Q 1566 -1331 1297 -1286 
Q 1028 -1241 775 -1147 
L 775 -588 
Q 1028 -725 1275 -790 
Q 1522 -856 1778 -856 
Q 2344 -856 2625 -561 
Q 2906 -266 2906 331 
L 2906 616 
Q 2728 306 2450 153 
Q 2172 0 1784 0 
Q 1141 0 747 490 
Q 353 981 353 1791 
Q 353 2603 747 3093 
Q 1141 3584 1784 3584 
Q 2172 3584 2450 3431 
Q 2728 3278 2906 2969 
L 2906 3500 
L 3481 3500 
L 3481 434 
z
" transform="scale(0.015625)"/>
      <path id="DejaVuSans-20" transform="scale(0.015625)"/>
      <path id="DejaVuSans-76" d="M 191 3500 
L 800 3500 
L 1894 563 
L 2988 3500 
L 3597 3500 
L 2284 0 
L 1503 0 
L 191 3500 
z
" transform="scale(0.015625)"/>
     </defs>
     <use xlink:href="#DejaVuSans-4c"/>
     <use xlink:href="#DejaVuSans-65" transform="translate(53.962891 0)"/>
     <use xlink:href="#DejaVuSans-61" transform="translate(115.486328 0)"/>
     <use xlink:href="#DejaVuSans-72" transform="translate(176.765625 0)"/>
     <use xlink:href="#DejaVuSans-6e" transform="translate(216.128906 0)"/>
     <use xlink:href="#DejaVuSans-69" transform="translate(279.507812 0)"/>
     <use xlink:href="#DejaVuSans-6e" transform="translate(307.291016 0)"/>
     <use xlink:href="#DejaVuSans-67" transform="translate(370.669922 0)"/>
     <use xlink:href="#DejaVuSans-20" transform="translate(434.146484 0)"/>
     <use xlink:href="#DejaVuSans-63" transform="translate(465.933594 0)"/>
     <use xlink:href="#DejaVuSans-75" transform="translate(520.914062 0)"/>
     <use xlink:href="#DejaVuSans-72" transform="translate(584.292969 0)"/>
     <use xlink:href="#DejaVuSans-76" transform="translate(625.40625 0)"/>
     <use xlink:href="#DejaVuSans-65" transform="translate(684.585938 0)"/>
     <use xlink:href="#DejaVuSans-73" transform="translate(746.109375 0)"/>
    </g>
   </g>
   <g id="legend_1">
    <g id="patch_7">
     <path d="M 46.58149 393.64351 
L 139.87524 393.64351 
Q 141.87524 393.64351 141.87524 391.64351 
L 141.87524 347.77476 
Q 141.87524 345.77476 139.87524 345.77476 
L 46.58149 345.77476 
Q 44.58149 345.77476 44.58149 347.77476 
L 44.58149 391.64351 
Q 44.58149 393.64351 46.58149 393.64351 
z
" style="fill: #ffffff; opacity: 0.8; stroke: #cccccc; stroke-linejoin: miter"/>
    </g>
    <g id="line2d_28">
     <path d="M 48.58149 353.873198 
L 58.58149 353.873198 
L 68.58149 353.873198 
" style="fill: none; stroke: #1f77b4; stroke-width: 1.5; stroke-linecap: square"/>
    </g>
    <g id="text_16">
     <!-- MLP_mnist -->
     <g transform="translate(76.58149 357.373198) scale(0.1 -0.1)">
      <defs>
       <path id="DejaVuSans-4d" d="M 628 4666 
L 1569 4666 
L 2759 1491 
L 3956 4666 
L 4897 4666 
L 4897 0 
L 4281 0 
L 4281 4097 
L 3078 897 
L 2444 897 
L 1241 4097 
L 1241 0 
L 628 0 
L 628 4666 
z
" transform="scale(0.015625)"/>
       <path id="DejaVuSans-50" d="M 1259 4147 
L 1259 2394 
L 2053 2394 
Q 2494 2394 2734 2622 
Q 2975 2850 2975 3272 
Q 2975 3691 2734 3919 
Q 2494 4147 2053 4147 
L 1259 4147 
z
M 628 4666 
L 2053 4666 
Q 2838 4666 3239 4311 
Q 3641 3956 3641 3272 
Q 3641 2581 3239 2228 
Q 2838 1875 2053 1875 
L 1259 1875 
L 1259 0 
L 628 0 
L 628 4666 
z
" transform="scale(0.015625)"/>
       <path id="DejaVuSans-5f" d="M 3263 -1063 
L 3263 -1509 
L -63 -1509 
L -63 -1063 
L 3263 -1063 
z
" transform="scale(0.015625)"/>
       <path id="DejaVuSans-6d" d="M 3328 2828 
Q 3544 3216 3844 3400 
Q 4144 3584 4550 3584 
Q 5097 3584 5394 3201 
Q 5691 2819 5691 2113 
L 5691 0 
L 5113 0 
L 5113 2094 
Q 5113 2597 4934 2840 
Q 4756 3084 4391 3084 
Q 3944 3084 3684 2787 
Q 3425 2491 3425 1978 
L 3425 0 
L 2847 0 
L 2847 2094 
Q 2847 2600 2669 2842 
Q 2491 3084 2119 3084 
Q 1678 3084 1418 2786 
Q 1159 2488 1159 1978 
L 1159 0 
L 581 0 
L 581 3500 
L 1159 3500 
L 1159 2956 
Q 1356 3278 1631 3431 
Q 1906 3584 2284 3584 
Q 2666 3584 2933 3390 
Q 3200 3197 3328 2828 
z
" transform="scale(0.015625)"/>
      </defs>
      <use xlink:href="#DejaVuSans-4d"/>
      <use xlink:href="#DejaVuSans-4c" transform="translate(86.279297 0)"/>
      <use xlink:href="#DejaVuSans-50" transform="translate(141.992188 0)"/>
      <use xlink:href="#DejaVuSans-5f" transform="translate(202.294922 0)"/>
      <use xlink:href="#DejaVuSans-6d" transform="translate(252.294922 0)"/>
      <use xlink:href="#DejaVuSans-6e" transform="translate(349.707031 0)"/>
      <use xlink:href="#DejaVuSans-69" transform="translate(413.085938 0)"/>
      <use xlink:href="#DejaVuSans-73" transform="translate(440.869141 0)"/>
      <use xlink:href="#DejaVuSans-74" transform="translate(492.96875 0)"/>
     </g>
    </g>
    <g id="line2d_29">
     <path d="M 48.58149 368.829448 
L 58.58149 368.829448 
L 68.58149 368.829448 
" style="fill: none; stroke: #ff7f0e; stroke-width: 1.5; stroke-linecap: square"/>
    </g>
    <g id="text_17">
     <!-- CNN1_mnist -->
     <g transform="translate(76.58149 372.329448) scale(0.1 -0.1)">
      <defs>
       <path id="DejaVuSans-43" d="M 4122 4306 
L 4122 3641 
Q 3803 3938 3442 4084 
Q 3081 4231 2675 4231 
Q 1875 4231 1450 3742 
Q 1025 3253 1025 2328 
Q 1025 1406 1450 917 
Q 1875 428 2675 428 
Q 3081 428 3442 575 
Q 3803 722 4122 1019 
L 4122 359 
Q 3791 134 3420 21 
Q 3050 -91 2638 -91 
Q 1578 -91 968 557 
Q 359 1206 359 2328 
Q 359 3453 968 4101 
Q 1578 4750 2638 4750 
Q 3056 4750 3426 4639 
Q 3797 4528 4122 4306 
z
" transform="scale(0.015625)"/>
       <path id="DejaVuSans-4e" d="M 628 4666 
L 1478 4666 
L 3547 763 
L 3547 4666 
L 4159 4666 
L 4159 0 
L 3309 0 
L 1241 3903 
L 1241 0 
L 628 0 
L 628 4666 
z
" transform="scale(0.015625)"/>
      </defs>
      <use xlink:href="#DejaVuSans-43"/>
      <use xlink:href="#DejaVuSans-4e" transform="translate(69.824219 0)"/>
      <use xlink:href="#DejaVuSans-4e" transform="translate(144.628906 0)"/>
      <use xlink:href="#DejaVuSans-31" transform="translate(219.433594 0)"/>
      <use xlink:href="#DejaVuSans-5f" transform="translate(283.056641 0)"/>
      <use xlink:href="#DejaVuSans-6d" transform="translate(333.056641 0)"/>
      <use xlink:href="#DejaVuSans-6e" transform="translate(430.46875 0)"/>
      <use xlink:href="#DejaVuSans-69" transform="translate(493.847656 0)"/>
      <use xlink:href="#DejaVuSans-73" transform="translate(521.630859 0)"/>
      <use xlink:href="#DejaVuSans-74" transform="translate(573.730469 0)"/>
     </g>
    </g>
    <g id="line2d_30">
     <path d="M 48.58149 383.785698 
L 58.58149 383.785698 
L 68.58149 383.785698 
" style="fill: none; stroke: #2ca02c; stroke-width: 1.5; stroke-linecap: square"/>
    </g>
    <g id="text_18">
     <!-- CNN2_mnist -->
     <g transform="translate(76.58149 387.285698) scale(0.1 -0.1)">
      <use xlink:href="#DejaVuSans-43"/>
      <use xlink:href="#DejaVuSans-4e" transform="translate(69.824219 0)"/>
      <use xlink:href="#DejaVuSans-4e" transform="translate(144.628906 0)"/>
      <use xlink:href="#DejaVuSans-32" transform="translate(219.433594 0)"/>
      <use xlink:href="#DejaVuSans-5f" transform="translate(283.056641 0)"/>
      <use xlink:href="#DejaVuSans-6d" transform="translate(333.056641 0)"/>
      <use xlink:href="#DejaVuSans-6e" transform="translate(430.46875 0)"/>
      <use xlink:href="#DejaVuSans-69" transform="translate(493.847656 0)"/>
      <use xlink:href="#DejaVuSans-73" transform="translate(521.630859 0)"/>
      <use xlink:href="#DejaVuSans-74" transform="translate(573.730469 0)"/>
     </g>
    </g>
   </g>
  </g>
  <g id="axes_2">
   <g id="patch_8">
    <path d="M 463.199687 398.64351 
L 860.99976 398.64351 
L 860.99976 18.118365 
L 463.199687 18.118365 
z
" style="fill: #ffffff"/>
   </g>
   <g id="matplotlib.axis_3">
    <g id="xtick_7">
     <g id="line2d_31">
      <path d="M 463.199687 398.64351 
L 463.199687 18.118365 
" clip-path="url(#p7635e417f1)" style="fill: none; stroke-dasharray: 2.96,1.28; stroke-dashoffset: 0; stroke: #b0b0b0; stroke-opacity: 0.7; stroke-width: 0.8"/>
     </g>
     <g id="line2d_32">
      <g>
       <use xlink:href="#m5fbffe16a3" x="463.199687" y="398.64351" style="stroke: #000000; stroke-width: 0.8"/>
      </g>
     </g>
     <g id="text_19">
      <!-- 0 -->
      <g transform="translate(460.018437 413.241947) scale(0.1 -0.1)">
       <use xlink:href="#DejaVuSans-30"/>
      </g>
     </g>
    </g>
    <g id="xtick_8">
     <g id="line2d_33">
      <path d="M 539.122976 398.64351 
L 539.122976 18.118365 
" clip-path="url(#p7635e417f1)" style="fill: none; stroke-dasharray: 2.96,1.28; stroke-dashoffset: 0; stroke: #b0b0b0; stroke-opacity: 0.7; stroke-width: 0.8"/>
     </g>
     <g id="line2d_34">
      <g>
       <use xlink:href="#m5fbffe16a3" x="539.122976" y="398.64351" style="stroke: #000000; stroke-width: 0.8"/>
      </g>
     </g>
     <g id="text_20">
      <!-- 100 -->
      <g transform="translate(529.579226 413.241947) scale(0.1 -0.1)">
       <use xlink:href="#DejaVuSans-31"/>
       <use xlink:href="#DejaVuSans-30" transform="translate(63.623047 0)"/>
       <use xlink:href="#DejaVuSans-30" transform="translate(127.246094 0)"/>
      </g>
     </g>
    </g>
    <g id="xtick_9">
     <g id="line2d_35">
      <path d="M 615.046265 398.64351 
L 615.046265 18.118365 
" clip-path="url(#p7635e417f1)" style="fill: none; stroke-dasharray: 2.96,1.28; stroke-dashoffset: 0; stroke: #b0b0b0; stroke-opacity: 0.7; stroke-width: 0.8"/>
     </g>
     <g id="line2d_36">
      <g>
       <use xlink:href="#m5fbffe16a3" x="615.046265" y="398.64351" style="stroke: #000000; stroke-width: 0.8"/>
      </g>
     </g>
     <g id="text_21">
      <!-- 200 -->
      <g transform="translate(605.502515 413.241947) scale(0.1 -0.1)">
       <use xlink:href="#DejaVuSans-32"/>
       <use xlink:href="#DejaVuSans-30" transform="translate(63.623047 0)"/>
       <use xlink:href="#DejaVuSans-30" transform="translate(127.246094 0)"/>
      </g>
     </g>
    </g>
    <g id="xtick_10">
     <g id="line2d_37">
      <path d="M 690.969554 398.64351 
L 690.969554 18.118365 
" clip-path="url(#p7635e417f1)" style="fill: none; stroke-dasharray: 2.96,1.28; stroke-dashoffset: 0; stroke: #b0b0b0; stroke-opacity: 0.7; stroke-width: 0.8"/>
     </g>
     <g id="line2d_38">
      <g>
       <use xlink:href="#m5fbffe16a3" x="690.969554" y="398.64351" style="stroke: #000000; stroke-width: 0.8"/>
      </g>
     </g>
     <g id="text_22">
      <!-- 300 -->
      <g transform="translate(681.425804 413.241947) scale(0.1 -0.1)">
       <use xlink:href="#DejaVuSans-33"/>
       <use xlink:href="#DejaVuSans-30" transform="translate(63.623047 0)"/>
       <use xlink:href="#DejaVuSans-30" transform="translate(127.246094 0)"/>
      </g>
     </g>
    </g>
    <g id="xtick_11">
     <g id="line2d_39">
      <path d="M 766.892843 398.64351 
L 766.892843 18.118365 
" clip-path="url(#p7635e417f1)" style="fill: none; stroke-dasharray: 2.96,1.28; stroke-dashoffset: 0; stroke: #b0b0b0; stroke-opacity: 0.7; stroke-width: 0.8"/>
     </g>
     <g id="line2d_40">
      <g>
       <use xlink:href="#m5fbffe16a3" x="766.892843" y="398.64351" style="stroke: #000000; stroke-width: 0.8"/>
      </g>
     </g>
     <g id="text_23">
      <!-- 400 -->
      <g transform="translate(757.349093 413.241947) scale(0.1 -0.1)">
       <use xlink:href="#DejaVuSans-34"/>
       <use xlink:href="#DejaVuSans-30" transform="translate(63.623047 0)"/>
       <use xlink:href="#DejaVuSans-30" transform="translate(127.246094 0)"/>
      </g>
     </g>
    </g>
    <g id="xtick_12">
     <g id="line2d_41">
      <path d="M 842.816132 398.64351 
L 842.816132 18.118365 
" clip-path="url(#p7635e417f1)" style="fill: none; stroke-dasharray: 2.96,1.28; stroke-dashoffset: 0; stroke: #b0b0b0; stroke-opacity: 0.7; stroke-width: 0.8"/>
     </g>
     <g id="line2d_42">
      <g>
       <use xlink:href="#m5fbffe16a3" x="842.816132" y="398.64351" style="stroke: #000000; stroke-width: 0.8"/>
      </g>
     </g>
     <g id="text_24">
      <!-- 500 -->
      <g transform="translate(833.272382 413.241947) scale(0.1 -0.1)">
       <use xlink:href="#DejaVuSans-35"/>
       <use xlink:href="#DejaVuSans-30" transform="translate(63.623047 0)"/>
       <use xlink:href="#DejaVuSans-30" transform="translate(127.246094 0)"/>
      </g>
     </g>
    </g>
    <g id="text_25">
     <!-- Steps -->
     <g transform="translate(648.10988 426.920073) scale(0.1 -0.1)">
      <use xlink:href="#DejaVuSans-53"/>
      <use xlink:href="#DejaVuSans-74" transform="translate(63.476562 0)"/>
      <use xlink:href="#DejaVuSans-65" transform="translate(102.685547 0)"/>
      <use xlink:href="#DejaVuSans-70" transform="translate(164.208984 0)"/>
      <use xlink:href="#DejaVuSans-73" transform="translate(227.685547 0)"/>
     </g>
    </g>
   </g>
   <g id="matplotlib.axis_4">
    <g id="ytick_7">
     <g id="line2d_43">
      <path d="M 463.199687 398.64351 
L 860.99976 398.64351 
" clip-path="url(#p7635e417f1)" style="fill: none; stroke-dasharray: 2.96,1.28; stroke-dashoffset: 0; stroke: #b0b0b0; stroke-opacity: 0.7; stroke-width: 0.8"/>
     </g>
     <g id="line2d_44">
      <g>
       <use xlink:href="#mb854954d4e" x="463.199687" y="398.64351" style="stroke: #000000; stroke-width: 0.8"/>
      </g>
     </g>
    </g>
    <g id="ytick_8">
     <g id="line2d_45">
      <path d="M 463.199687 327.125883 
L 860.99976 327.125883 
" clip-path="url(#p7635e417f1)" style="fill: none; stroke-dasharray: 2.96,1.28; stroke-dashoffset: 0; stroke: #b0b0b0; stroke-opacity: 0.7; stroke-width: 0.8"/>
     </g>
     <g id="line2d_46">
      <g>
       <use xlink:href="#mb854954d4e" x="463.199687" y="327.125883" style="stroke: #000000; stroke-width: 0.8"/>
      </g>
     </g>
    </g>
    <g id="ytick_9">
     <g id="line2d_47">
      <path d="M 463.199687 255.608256 
L 860.99976 255.608256 
" clip-path="url(#p7635e417f1)" style="fill: none; stroke-dasharray: 2.96,1.28; stroke-dashoffset: 0; stroke: #b0b0b0; stroke-opacity: 0.7; stroke-width: 0.8"/>
     </g>
     <g id="line2d_48">
      <g>
       <use xlink:href="#mb854954d4e" x="463.199687" y="255.608256" style="stroke: #000000; stroke-width: 0.8"/>
      </g>
     </g>
    </g>
    <g id="ytick_10">
     <g id="line2d_49">
      <path d="M 463.199687 184.090629 
L 860.99976 184.090629 
" clip-path="url(#p7635e417f1)" style="fill: none; stroke-dasharray: 2.96,1.28; stroke-dashoffset: 0; stroke: #b0b0b0; stroke-opacity: 0.7; stroke-width: 0.8"/>
     </g>
     <g id="line2d_50">
      <g>
       <use xlink:href="#mb854954d4e" x="463.199687" y="184.090629" style="stroke: #000000; stroke-width: 0.8"/>
      </g>
     </g>
    </g>
    <g id="ytick_11">
     <g id="line2d_51">
      <path d="M 463.199687 112.573002 
L 860.99976 112.573002 
" clip-path="url(#p7635e417f1)" style="fill: none; stroke-dasharray: 2.96,1.28; stroke-dashoffset: 0; stroke: #b0b0b0; stroke-opacity: 0.7; stroke-width: 0.8"/>
     </g>
     <g id="line2d_52">
      <g>
       <use xlink:href="#mb854954d4e" x="463.199687" y="112.573002" style="stroke: #000000; stroke-width: 0.8"/>
      </g>
     </g>
    </g>
    <g id="ytick_12">
     <g id="line2d_53">
      <path d="M 463.199687 41.055376 
L 860.99976 41.055376 
" clip-path="url(#p7635e417f1)" style="fill: none; stroke-dasharray: 2.96,1.28; stroke-dashoffset: 0; stroke: #b0b0b0; stroke-opacity: 0.7; stroke-width: 0.8"/>
     </g>
     <g id="line2d_54">
      <g>
       <use xlink:href="#mb854954d4e" x="463.199687" y="41.055376" style="stroke: #000000; stroke-width: 0.8"/>
      </g>
     </g>
    </g>
    <g id="text_26">
     <!-- Accuracy -->
     <g transform="translate(453.62 231.209062) rotate(-90) scale(0.1 -0.1)">
      <use xlink:href="#DejaVuSans-41"/>
      <use xlink:href="#DejaVuSans-63" transform="translate(66.658203 0)"/>
      <use xlink:href="#DejaVuSans-63" transform="translate(121.638672 0)"/>
      <use xlink:href="#DejaVuSans-75" transform="translate(176.619141 0)"/>
      <use xlink:href="#DejaVuSans-72" transform="translate(239.998047 0)"/>
      <use xlink:href="#DejaVuSans-61" transform="translate(281.111328 0)"/>
      <use xlink:href="#DejaVuSans-63" transform="translate(342.390625 0)"/>
      <use xlink:href="#DejaVuSans-79" transform="translate(397.371094 0)"/>
     </g>
    </g>
   </g>
   <g id="line2d_55">
    <path d="M 463.199687 336.395589 
L 464.718153 262.0143 
L 466.236619 199.15649 
L 467.755085 147.822159 
L 469.273551 108.011307 
L 470.032784 92.427186 
L 470.792016 79.159005 
L 471.551249 76.111474 
L 472.310482 75.077164 
L 473.069715 74.49034 
L 473.828948 74.1081 
L 474.588181 72.039277 
L 475.347414 70.502054 
L 476.86588 66.507862 
L 477.625112 66.628684 
L 478.384345 66.079976 
L 479.143578 65.219624 
L 479.902811 65.003906 
L 480.662044 63.888773 
L 481.421277 63.227533 
L 482.18051 62.752428 
L 482.939743 61.902628 
L 484.458208 60.992458 
L 485.217441 60.820531 
L 488.254373 58.675829 
L 489.013606 57.929607 
L 490.532072 56.893496 
L 491.291304 56.913583 
L 492.050537 56.585361 
L 492.80977 56.632592 
L 495.087469 55.69051 
L 495.846702 55.440022 
L 498.1244 55.525599 
L 498.883633 55.510212 
L 501.920565 54.674418 
L 505.716729 54.256351 
L 507.994428 53.49802 
L 509.512894 53.267037 
L 510.272127 52.915775 
L 511.03136 52.846248 
L 512.549825 52.404762 
L 513.309058 52.349323 
L 514.068291 52.100217 
L 515.586757 52.201858 
L 516.34599 52.26789 
L 523.179086 51.452129 
L 525.456784 50.879202 
L 528.493716 50.702386 
L 529.252949 50.741057 
L 530.012182 50.619883 
L 534.567579 50.757812 
L 535.326812 50.98637 
L 536.845278 51.158378 
L 538.363744 51.094798 
L 539.122976 51.076295 
L 539.882209 50.857015 
L 540.641442 50.84492 
L 542.919141 50.216228 
L 544.437607 50.073816 
L 545.19684 50.068561 
L 545.956072 49.911506 
L 546.715305 49.923494 
L 547.474538 50.056343 
L 548.233771 50.004344 
L 548.993004 49.817138 
L 549.752237 49.951789 
L 550.51147 49.91878 
L 552.029936 50.096111 
L 552.789168 50.177964 
L 557.344566 49.52011 
L 558.103799 49.548554 
L 559.622264 49.226007 
L 560.381497 49.140145 
L 561.14073 49.199161 
L 562.659196 48.91351 
L 563.418429 48.7708 
L 565.696128 48.763188 
L 566.45536 48.564117 
L 568.733059 48.597031 
L 571.769991 48.418671 
L 573.288456 48.111104 
L 574.047689 48.208154 
L 580.880785 47.987073 
L 581.640018 48.112337 
L 583.158484 48.051601 
L 588.473114 48.014894 
L 592.269279 47.823002 
L 597.583909 47.597437 
L 599.861608 47.966958 
L 601.380073 48.011846 
L 602.898539 47.848114 
L 605.176238 47.697088 
L 605.935471 47.760587 
L 612.009334 47.430183 
L 612.768567 47.532326 
L 616.564731 47.03964 
L 617.323964 47.231166 
L 618.083197 47.228728 
L 618.84243 47.407157 
L 621.879361 47.533654 
L 624.916293 47.459562 
L 626.434759 47.318152 
L 627.953225 46.971251 
L 628.712457 46.94557 
L 630.230923 46.608448 
L 631.749389 46.779332 
L 632.508622 46.732561 
L 634.786321 46.854683 
L 637.064019 46.772749 
L 640.100951 46.841314 
L 642.378649 46.930454 
L 643.897115 47.13757 
L 646.174814 47.22564 
L 652.248677 47.016288 
L 653.767143 47.024917 
L 655.285609 46.893936 
L 658.32254 47.157861 
L 662.877937 47.00957 
L 666.674102 46.975694 
L 667.433335 46.93808 
L 669.711033 46.492151 
L 673.507198 46.3716 
L 675.784897 46.636717 
L 678.821828 46.881258 
L 680.340294 46.860765 
L 681.85876 46.757471 
L 685.654924 46.388708 
L 686.414157 46.372115 
L 687.17339 46.490742 
L 689.451089 46.556165 
L 690.969554 46.489158 
L 693.247253 46.340555 
L 696.284185 46.258974 
L 697.80265 46.379064 
L 700.839582 46.330979 
L 704.635746 46.144153 
L 707.672678 45.846731 
L 709.950377 46.217242 
L 711.468842 46.343305 
L 713.746541 46.158917 
L 715.265007 46.11946 
L 722.098103 45.926186 
L 722.857336 46.226655 
L 724.375802 46.256617 
L 726.6535 46.207232 
L 727.412733 46.174764 
L 729.690432 46.42704 
L 735.005062 46.177392 
L 738.041994 46.091991 
L 739.560459 46.017128 
L 741.838158 46.080762 
L 743.356624 46.186657 
L 744.87509 46.114327 
L 754.745117 46.069777 
L 758.541282 45.836654 
L 760.059747 45.784899 
L 761.578213 45.751226 
L 766.13361 45.69202 
L 769.170542 45.73531 
L 770.689008 45.767331 
L 774.485172 45.917694 
L 776.003638 45.906194 
L 777.522104 45.65721 
L 779.799802 45.640428 
L 780.559035 45.738656 
L 784.3552 45.555311 
L 785.873666 45.52073 
L 788.151364 45.449673 
L 790.429063 45.525755 
L 791.947529 45.47251 
L 794.98446 45.67173 
L 798.780625 45.565578 
L 802.576789 45.503352 
L 804.854488 45.557356 
L 806.372954 45.43728 
L 807.891419 45.527489 
L 810.928351 45.389601 
L 817.002214 45.353057 
L 820.798378 45.396536 
L 822.316844 45.473255 
L 823.83531 45.436954 
L 826.113009 45.440408 
L 833.705338 45.333051 
L 835.223803 45.28368 
L 839.019968 45.457391 
L 842.056899 45.794486 
L 842.056899 45.794486 
" clip-path="url(#p7635e417f1)" style="fill: none; stroke: #1f77b4; stroke-width: 1.5; stroke-linecap: square"/>
   </g>
   <g id="line2d_56">
    <path d="M 463.199687 353.567018 
L 464.718153 260.59818 
L 466.236619 183.194667 
L 467.755085 121.356479 
L 468.514318 96.274382 
L 469.273551 75.083616 
L 470.032784 57.784182 
L 470.792016 44.330449 
L 471.551249 46.115789 
L 472.310482 53.020085 
L 473.069715 56.494921 
L 473.828948 56.397979 
L 474.588181 58.531724 
L 475.347414 54.662579 
L 476.106647 54.816071 
L 476.86588 54.483894 
L 477.625112 54.456248 
L 478.384345 53.449326 
L 479.143578 50.867526 
L 479.902811 52.07035 
L 480.662044 53.905874 
L 481.421277 54.931163 
L 482.18051 55.056441 
L 482.939743 54.578627 
L 483.698976 55.10886 
L 484.458208 54.882902 
L 485.217441 54.847157 
L 485.976674 54.107451 
L 486.735907 53.050223 
L 488.254373 50.220928 
L 489.772839 46.222036 
L 490.532072 47.967432 
L 491.291304 47.34741 
L 492.050537 46.545044 
L 492.80977 44.974975 
L 493.569003 44.21384 
L 494.328236 45.598235 
L 495.087469 46.310634 
L 495.846702 46.541279 
L 497.365168 46.552873 
L 498.1244 46.801573 
L 498.883633 46.741447 
L 499.642866 46.90377 
L 500.402099 46.641268 
L 501.161332 46.975518 
L 501.920565 46.512726 
L 503.439031 46.182038 
L 504.198264 46.080369 
L 504.957496 45.743329 
L 505.716729 45.578689 
L 506.475962 45.127736 
L 507.235195 44.429016 
L 507.994428 44.829596 
L 508.753661 45.372087 
L 510.272127 46.034221 
L 511.03136 46.142717 
L 512.549825 46.689664 
L 514.068291 46.863758 
L 515.586757 46.554336 
L 516.34599 46.153119 
L 517.105223 46.17555 
L 517.864456 45.987464 
L 519.382921 45.269457 
L 520.142154 44.857174 
L 521.66062 43.707474 
L 522.419853 43.804632 
L 523.179086 43.688606 
L 524.697552 43.658929 
L 525.456784 43.558804 
L 529.252949 44.047372 
L 533.808346 44.40664 
L 537.604511 44.04805 
L 542.159908 43.472089 
L 544.437607 43.54786 
L 545.19684 43.391753 
L 548.233771 43.976315 
L 548.993004 43.868118 
L 550.51147 44.177946 
L 552.029936 44.284572 
L 555.066867 44.092856 
L 559.622264 43.520919 
L 560.381497 43.714206 
L 561.899963 43.595633 
L 563.418429 43.38983 
L 564.936895 43.516489 
L 566.45536 43.449428 
L 569.492292 43.346784 
L 571.010758 43.515081 
L 573.288456 43.522219 
L 576.325388 43.341637 
L 580.121552 43.197396 
L 583.158484 43.105791 
L 584.67695 43.328241 
L 587.713881 43.646874 
L 592.269279 43.546383 
L 596.065443 43.017898 
L 597.583909 42.827333 
L 598.343142 42.833835 
L 599.861608 43.135943 
L 603.657772 43.306853 
L 606.694704 43.306772 
L 610.490868 43.183621 
L 612.009334 43.016516 
L 612.768567 43.212187 
L 614.287033 43.278138 
L 615.805498 43.189066 
L 619.601663 43.07308 
L 621.120129 42.985458 
L 623.397827 43.014891 
L 631.749389 42.882543 
L 636.304786 42.960995 
L 641.619417 42.959641 
L 647.69328 43.071279 
L 658.32254 42.750912 
L 662.118705 42.933147 
L 667.433335 42.964571 
L 671.229499 42.584959 
L 673.507198 42.653605 
L 676.544129 42.668531 
L 679.581061 42.717673 
L 684.136458 42.617237 
L 694.765719 42.673475 
L 698.561883 42.594657 
L 706.154212 42.77104 
L 709.191144 42.900287 
L 713.746541 42.966264 
L 719.820404 42.682442 
L 722.098103 42.706227 
L 725.135034 42.638434 
L 727.412733 42.6482 
L 728.931199 42.646304 
L 733.486596 42.64988 
L 738.041994 42.672947 
L 740.319692 42.705238 
L 748.671254 42.443116 
L 754.745117 42.612306 
L 758.541282 42.758227 
L 762.337446 42.68721 
L 768.411309 42.535262 
L 776.003638 42.460683 
L 779.04057 42.483967 
L 783.595967 42.644936 
L 790.429063 42.518954 
L 792.706762 42.511897 
L 801.058323 42.607714 
L 804.095255 42.553738 
L 810.169118 42.4434 
L 814.724515 42.547629 
L 817.002214 42.553331 
L 830.668406 42.5816 
L 832.946105 42.622465 
L 842.056899 42.503491 
L 842.056899 42.503491 
" clip-path="url(#p7635e417f1)" style="fill: none; stroke: #ff7f0e; stroke-width: 1.5; stroke-linecap: square"/>
   </g>
   <g id="line2d_57">
    <path d="M 463.199687 297.014454 
L 464.718153 214.607856 
L 466.236619 146.611546 
L 467.755085 93.025524 
L 468.514318 71.636371 
L 469.273551 53.849791 
L 470.032784 39.665783 
L 470.792016 35.22742 
L 471.551249 46.35517 
L 472.310482 52.082852 
L 473.069715 51.520463 
L 473.828948 52.417359 
L 474.588181 51.589827 
L 475.347414 51.150996 
L 476.106647 51.272861 
L 476.86588 50.410829 
L 477.625112 50.097059 
L 478.384345 50.493955 
L 480.662044 48.186821 
L 481.421277 48.840598 
L 482.18051 48.256537 
L 484.458208 47.073476 
L 485.217441 46.676973 
L 485.976674 46.848859 
L 492.050537 45.930142 
L 493.569003 45.120286 
L 495.087469 44.797833 
L 495.846702 44.897078 
L 497.365168 44.590094 
L 498.1244 44.589322 
L 498.883633 44.403525 
L 499.642866 44.687008 
L 500.402099 44.642472 
L 501.161332 44.749302 
L 505.716729 44.517763 
L 507.235195 44.135415 
L 510.272127 44.496294 
L 511.03136 44.43648 
L 514.827524 44.800353 
L 517.105223 44.775105 
L 520.142154 44.191545 
L 520.901387 43.862727 
L 521.66062 43.665566 
L 522.419853 43.673016 
L 523.179086 43.431508 
L 523.938319 43.467145 
L 525.456784 43.228509 
L 528.493716 43.374836 
L 530.012182 43.627504 
L 532.28988 43.739968 
L 533.808346 43.835447 
L 537.604511 43.599588 
L 538.363744 43.623143 
L 539.882209 43.478008 
L 544.437607 43.327686 
L 545.19684 43.16482 
L 547.474538 43.260706 
L 548.993004 43.209573 
L 555.8261 43.602365 
L 556.585333 43.589226 
L 558.103799 43.694335 
L 563.418429 43.246429 
L 566.45536 43.00973 
L 567.973826 42.96789 
L 568.733059 42.922609 
L 570.251525 43.143311 
L 572.529224 43.373942 
L 574.047689 43.355859 
L 579.36232 43.066931 
L 580.880785 43.128804 
L 583.158484 43.13173 
L 584.67695 43.187969 
L 586.954649 43.152386 
L 589.99158 42.94703 
L 592.269279 42.892417 
L 593.787745 42.988302 
L 596.065443 42.868212 
L 597.583909 42.75293 
L 608.213169 43.044893 
L 609.731635 43.114528 
L 611.250101 43.119011 
L 614.287033 43.200539 
L 616.564731 42.969244 
L 624.15706 42.723335 
L 627.953225 42.658603 
L 629.47169 42.591975 
L 637.823252 42.941965 
L 639.341718 42.908468 
L 643.137882 42.844021 
L 646.174814 42.822254 
L 648.452513 42.811445 
L 651.489444 42.770539 
L 653.767143 42.741837 
L 662.118705 42.523911 
L 665.155636 42.694104 
L 671.229499 42.808248 
L 677.303362 42.742921 
L 679.581061 42.798509 
L 683.377225 42.614121 
L 689.451089 42.671159 
L 694.006486 42.611019 
L 695.524952 42.543552 
L 699.321116 42.585013 
L 702.358048 42.642363 
L 707.672678 42.756886 
L 722.098103 42.521406 
L 725.894267 42.588318 
L 729.690432 42.638353 
L 732.727363 42.624578 
L 735.764295 42.57503 
L 782.836734 42.489697 
L 794.98446 42.509838 
L 798.021392 42.603732 
L 821.557611 42.471885 
L 825.353776 42.660811 
L 829.14994 42.600657 
L 835.983036 42.34833 
L 839.779201 42.459191 
L 842.056899 42.614971 
L 842.056899 42.614971 
" clip-path="url(#p7635e417f1)" style="fill: none; stroke: #2ca02c; stroke-width: 1.5; stroke-linecap: square"/>
   </g>
   <g id="patch_9">
    <path d="M 463.199687 398.64351 
L 463.199687 18.118365 
" style="fill: none; stroke: #000000; stroke-width: 0.8; stroke-linejoin: miter; stroke-linecap: square"/>
   </g>
   <g id="patch_10">
    <path d="M 860.99976 398.64351 
L 860.99976 18.118365 
" style="fill: none; stroke: #000000; stroke-width: 0.8; stroke-linejoin: miter; stroke-linecap: square"/>
   </g>
   <g id="patch_11">
    <path d="M 463.199687 398.64351 
L 860.99976 398.64351 
" style="fill: none; stroke: #000000; stroke-width: 0.8; stroke-linejoin: miter; stroke-linecap: square"/>
   </g>
   <g id="patch_12">
    <path d="M 463.199687 18.118365 
L 860.99976 18.118365 
" style="fill: none; stroke: #000000; stroke-width: 0.8; stroke-linejoin: miter; stroke-linecap: square"/>
   </g>
   <g id="text_27">
    <!-- Validation curves -->
    <g transform="translate(610.627224 12.118365) scale(0.12 -0.12)">
     <defs>
      <path id="DejaVuSans-56" d="M 1831 0 
L 50 4666 
L 709 4666 
L 2188 738 
L 3669 4666 
L 4325 4666 
L 2547 0 
L 1831 0 
z
" transform="scale(0.015625)"/>
      <path id="DejaVuSans-6c" d="M 603 4863 
L 1178 4863 
L 1178 0 
L 603 0 
L 603 4863 
z
" transform="scale(0.015625)"/>
      <path id="DejaVuSans-64" d="M 2906 2969 
L 2906 4863 
L 3481 4863 
L 3481 0 
L 2906 0 
L 2906 525 
Q 2725 213 2448 61 
Q 2172 -91 1784 -91 
Q 1150 -91 751 415 
Q 353 922 353 1747 
Q 353 2572 751 3078 
Q 1150 3584 1784 3584 
Q 2172 3584 2448 3432 
Q 2725 3281 2906 2969 
z
M 947 1747 
Q 947 1113 1208 752 
Q 1469 391 1925 391 
Q 2381 391 2643 752 
Q 2906 1113 2906 1747 
Q 2906 2381 2643 2742 
Q 2381 3103 1925 3103 
Q 1469 3103 1208 2742 
Q 947 2381 947 1747 
z
" transform="scale(0.015625)"/>
      <path id="DejaVuSans-6f" d="M 1959 3097 
Q 1497 3097 1228 2736 
Q 959 2375 959 1747 
Q 959 1119 1226 758 
Q 1494 397 1959 397 
Q 2419 397 2687 759 
Q 2956 1122 2956 1747 
Q 2956 2369 2687 2733 
Q 2419 3097 1959 3097 
z
M 1959 3584 
Q 2709 3584 3137 3096 
Q 3566 2609 3566 1747 
Q 3566 888 3137 398 
Q 2709 -91 1959 -91 
Q 1206 -91 779 398 
Q 353 888 353 1747 
Q 353 2609 779 3096 
Q 1206 3584 1959 3584 
z
" transform="scale(0.015625)"/>
     </defs>
     <use xlink:href="#DejaVuSans-56"/>
     <use xlink:href="#DejaVuSans-61" transform="translate(60.658203 0)"/>
     <use xlink:href="#DejaVuSans-6c" transform="translate(121.9375 0)"/>
     <use xlink:href="#DejaVuSans-69" transform="translate(149.720703 0)"/>
     <use xlink:href="#DejaVuSans-64" transform="translate(177.503906 0)"/>
     <use xlink:href="#DejaVuSans-61" transform="translate(240.980469 0)"/>
     <use xlink:href="#DejaVuSans-74" transform="translate(302.259766 0)"/>
     <use xlink:href="#DejaVuSans-69" transform="translate(341.46875 0)"/>
     <use xlink:href="#DejaVuSans-6f" transform="translate(369.251953 0)"/>
     <use xlink:href="#DejaVuSans-6e" transform="translate(430.433594 0)"/>
     <use xlink:href="#DejaVuSans-20" transform="translate(493.8125 0)"/>
     <use xlink:href="#DejaVuSans-63" transform="translate(525.599609 0)"/>
     <use xlink:href="#DejaVuSans-75" transform="translate(580.580078 0)"/>
     <use xlink:href="#DejaVuSans-72" transform="translate(643.958984 0)"/>
     <use xlink:href="#DejaVuSans-76" transform="translate(685.072266 0)"/>
     <use xlink:href="#DejaVuSans-65" transform="translate(744.251953 0)"/>
     <use xlink:href="#DejaVuSans-73" transform="translate(805.775391 0)"/>
    </g>
   </g>
   <g id="legend_2">
    <g id="patch_13">
     <path d="M 470.199687 393.64351 
L 563.493437 393.64351 
Q 565.493437 393.64351 565.493437 391.64351 
L 565.493437 347.77476 
Q 565.493437 345.77476 563.493437 345.77476 
L 470.199687 345.77476 
Q 468.199687 345.77476 468.199687 347.77476 
L 468.199687 391.64351 
Q 468.199687 393.64351 470.199687 393.64351 
z
" style="fill: #ffffff; opacity: 0.8; stroke: #cccccc; stroke-linejoin: miter"/>
    </g>
    <g id="line2d_58">
     <path d="M 472.199687 353.873198 
L 482.199687 353.873198 
L 492.199687 353.873198 
" style="fill: none; stroke: #1f77b4; stroke-width: 1.5; stroke-linecap: square"/>
    </g>
    <g id="text_28">
     <!-- MLP_mnist -->
     <g transform="translate(500.199687 357.373198) scale(0.1 -0.1)">
      <use xlink:href="#DejaVuSans-4d"/>
      <use xlink:href="#DejaVuSans-4c" transform="translate(86.279297 0)"/>
      <use xlink:href="#DejaVuSans-50" transform="translate(141.992188 0)"/>
      <use xlink:href="#DejaVuSans-5f" transform="translate(202.294922 0)"/>
      <use xlink:href="#DejaVuSans-6d" transform="translate(252.294922 0)"/>
      <use xlink:href="#DejaVuSans-6e" transform="translate(349.707031 0)"/>
      <use xlink:href="#DejaVuSans-69" transform="translate(413.085938 0)"/>
      <use xlink:href="#DejaVuSans-73" transform="translate(440.869141 0)"/>
      <use xlink:href="#DejaVuSans-74" transform="translate(492.96875 0)"/>
     </g>
    </g>
    <g id="line2d_59">
     <path d="M 472.199687 368.829448 
L 482.199687 368.829448 
L 492.199687 368.829448 
" style="fill: none; stroke: #ff7f0e; stroke-width: 1.5; stroke-linecap: square"/>
    </g>
    <g id="text_29">
     <!-- CNN1_mnist -->
     <g transform="translate(500.199687 372.329448) scale(0.1 -0.1)">
      <use xlink:href="#DejaVuSans-43"/>
      <use xlink:href="#DejaVuSans-4e" transform="translate(69.824219 0)"/>
      <use xlink:href="#DejaVuSans-4e" transform="translate(144.628906 0)"/>
      <use xlink:href="#DejaVuSans-31" transform="translate(219.433594 0)"/>
      <use xlink:href="#DejaVuSans-5f" transform="translate(283.056641 0)"/>
      <use xlink:href="#DejaVuSans-6d" transform="translate(333.056641 0)"/>
      <use xlink:href="#DejaVuSans-6e" transform="translate(430.46875 0)"/>
      <use xlink:href="#DejaVuSans-69" transform="translate(493.847656 0)"/>
      <use xlink:href="#DejaVuSans-73" transform="translate(521.630859 0)"/>
      <use xlink:href="#DejaVuSans-74" transform="translate(573.730469 0)"/>
     </g>
    </g>
    <g id="line2d_60">
     <path d="M 472.199687 383.785698 
L 482.199687 383.785698 
L 492.199687 383.785698 
" style="fill: none; stroke: #2ca02c; stroke-width: 1.5; stroke-linecap: square"/>
    </g>
    <g id="text_30">
     <!-- CNN2_mnist -->
     <g transform="translate(500.199687 387.285698) scale(0.1 -0.1)">
      <use xlink:href="#DejaVuSans-43"/>
      <use xlink:href="#DejaVuSans-4e" transform="translate(69.824219 0)"/>
      <use xlink:href="#DejaVuSans-4e" transform="translate(144.628906 0)"/>
      <use xlink:href="#DejaVuSans-32" transform="translate(219.433594 0)"/>
      <use xlink:href="#DejaVuSans-5f" transform="translate(283.056641 0)"/>
      <use xlink:href="#DejaVuSans-6d" transform="translate(333.056641 0)"/>
      <use xlink:href="#DejaVuSans-6e" transform="translate(430.46875 0)"/>
      <use xlink:href="#DejaVuSans-69" transform="translate(493.847656 0)"/>
      <use xlink:href="#DejaVuSans-73" transform="translate(521.630859 0)"/>
      <use xlink:href="#DejaVuSans-74" transform="translate(573.730469 0)"/>
     </g>
    </g>
   </g>
  </g>
 </g>
 <defs>
  <clipPath id="pd743c491ef">
   <rect x="39.58149" y="18.118365" width="397.800072" height="380.525145"/>
  </clipPath>
  <clipPath id="p7635e417f1">
   <rect x="463.199687" y="18.118365" width="397.800073" height="380.525145"/>
  </clipPath>
 </defs>
</svg>
