<?xml version="1.0" encoding="utf-8" standalone="no"?>
<!DOCTYPE svg PUBLIC "-//W3C//DTD SVG 1.1//EN"
  "http://www.w3.org/Graphics/SVG/1.1/DTD/svg11.dtd">
<svg xmlns:xlink="http://www.w3.org/1999/xlink" width="864pt" height="432pt" viewBox="0 0 864 432" xmlns="http://www.w3.org/2000/svg" version="1.1">
 <metadata>
  <rdf:RDF xmlns:dc="http://purl.org/dc/elements/1.1/" xmlns:cc="http://creativecommons.org/ns#" xmlns:rdf="http://www.w3.org/1999/02/22-rdf-syntax-ns#">
   <cc:Work>
    <dc:type rdf:resource="http://purl.org/dc/dcmitype/StillImage"/>
    <dc:date>2025-05-23T19:32:26.760362</dc:date>
    <dc:format>image/svg+xml</dc:format>
    <dc:creator>
     <cc:Agent>
      <dc:title>Matplotlib v3.10.1, https://matplotlib.org/</dc:title>
     </cc:Agent>
    </dc:creator>
   </cc:Work>
  </rdf:RDF>
 </metadata>
 <defs>
  <style type="text/css">*{stroke-linejoin: round; stroke-linecap: butt}</style>
 </defs>
 <g id="figure_1">
  <g id="patch_1">
   <path d="M 0 432 
L 864 432 
L 864 0 
L 0 0 
z
" style="fill: #ffffff"/>
  </g>
  <g id="axes_1">
   <g id="patch_2">
    <path d="M 39.58149 398.64351 
L 427.68 398.64351 
L 427.68 18.118365 
L 39.58149 18.118365 
z
" style="fill: #ffffff"/>
   </g>
   <g id="matplotlib.axis_1">
    <g id="xtick_1">
     <g id="line2d_1">
      <path d="M 39.58149 398.64351 
L 39.58149 18.118365 
" clip-path="url(#p9f62a2a107)" style="fill: none; stroke-dasharray: 2.96,1.28; stroke-dashoffset: 0; stroke: #b0b0b0; stroke-opacity: 0.7; stroke-width: 0.8"/>
     </g>
     <g id="line2d_2">
      <defs>
       <path id="mef4165dfa4" d="M 0 0 
L 0 3.5 
" style="stroke: #000000; stroke-width: 0.8"/>
      </defs>
      <g>
       <use xlink:href="#mef4165dfa4" x="39.58149" y="398.64351" style="stroke: #000000; stroke-width: 0.8"/>
      </g>
     </g>
     <g id="text_1">
      <!-- 0 -->
      <g transform="translate(36.40024 413.241947) scale(0.1 -0.1)">
       <defs>
        <path id="DejaVuSans-30" d="M 2034 4250 
Q 1547 4250 1301 3770 
Q 1056 3291 1056 2328 
Q 1056 1369 1301 889 
Q 1547 409 2034 409 
Q 2525 409 2770 889 
Q 3016 1369 3016 2328 
Q 3016 3291 2770 3770 
Q 2525 4250 2034 4250 
z
M 2034 4750 
Q 2819 4750 3233 4129 
Q 3647 3509 3647 2328 
Q 3647 1150 3233 529 
Q 2819 -91 2034 -91 
Q 1250 -91 836 529 
Q 422 1150 422 2328 
Q 422 3509 836 4129 
Q 1250 4750 2034 4750 
z
" transform="scale(0.015625)"/>
       </defs>
       <use xlink:href="#DejaVuSans-30"/>
      </g>
     </g>
    </g>
    <g id="xtick_2">
     <g id="line2d_3">
      <path d="M 113.653159 398.64351 
L 113.653159 18.118365 
" clip-path="url(#p9f62a2a107)" style="fill: none; stroke-dasharray: 2.96,1.28; stroke-dashoffset: 0; stroke: #b0b0b0; stroke-opacity: 0.7; stroke-width: 0.8"/>
     </g>
     <g id="line2d_4">
      <g>
       <use xlink:href="#mef4165dfa4" x="113.653159" y="398.64351" style="stroke: #000000; stroke-width: 0.8"/>
      </g>
     </g>
     <g id="text_2">
      <!-- 100 -->
      <g transform="translate(104.109409 413.241947) scale(0.1 -0.1)">
       <defs>
        <path id="DejaVuSans-31" d="M 794 531 
L 1825 531 
L 1825 4091 
L 703 3866 
L 703 4441 
L 1819 4666 
L 2450 4666 
L 2450 531 
L 3481 531 
L 3481 0 
L 794 0 
L 794 531 
z
" transform="scale(0.015625)"/>
       </defs>
       <use xlink:href="#DejaVuSans-31"/>
       <use xlink:href="#DejaVuSans-30" transform="translate(63.623047 0)"/>
       <use xlink:href="#DejaVuSans-30" transform="translate(127.246094 0)"/>
      </g>
     </g>
    </g>
    <g id="xtick_3">
     <g id="line2d_5">
      <path d="M 187.724828 398.64351 
L 187.724828 18.118365 
" clip-path="url(#p9f62a2a107)" style="fill: none; stroke-dasharray: 2.96,1.28; stroke-dashoffset: 0; stroke: #b0b0b0; stroke-opacity: 0.7; stroke-width: 0.8"/>
     </g>
     <g id="line2d_6">
      <g>
       <use xlink:href="#mef4165dfa4" x="187.724828" y="398.64351" style="stroke: #000000; stroke-width: 0.8"/>
      </g>
     </g>
     <g id="text_3">
      <!-- 200 -->
      <g transform="translate(178.181078 413.241947) scale(0.1 -0.1)">
       <defs>
        <path id="DejaVuSans-32" d="M 1228 531 
L 3431 531 
L 3431 0 
L 469 0 
L 469 531 
Q 828 903 1448 1529 
Q 2069 2156 2228 2338 
Q 2531 2678 2651 2914 
Q 2772 3150 2772 3378 
Q 2772 3750 2511 3984 
Q 2250 4219 1831 4219 
Q 1534 4219 1204 4116 
Q 875 4013 500 3803 
L 500 4441 
Q 881 4594 1212 4672 
Q 1544 4750 1819 4750 
Q 2544 4750 2975 4387 
Q 3406 4025 3406 3419 
Q 3406 3131 3298 2873 
Q 3191 2616 2906 2266 
Q 2828 2175 2409 1742 
Q 1991 1309 1228 531 
z
" transform="scale(0.015625)"/>
       </defs>
       <use xlink:href="#DejaVuSans-32"/>
       <use xlink:href="#DejaVuSans-30" transform="translate(63.623047 0)"/>
       <use xlink:href="#DejaVuSans-30" transform="translate(127.246094 0)"/>
      </g>
     </g>
    </g>
    <g id="xtick_4">
     <g id="line2d_7">
      <path d="M 261.796497 398.64351 
L 261.796497 18.118365 
" clip-path="url(#p9f62a2a107)" style="fill: none; stroke-dasharray: 2.96,1.28; stroke-dashoffset: 0; stroke: #b0b0b0; stroke-opacity: 0.7; stroke-width: 0.8"/>
     </g>
     <g id="line2d_8">
      <g>
       <use xlink:href="#mef4165dfa4" x="261.796497" y="398.64351" style="stroke: #000000; stroke-width: 0.8"/>
      </g>
     </g>
     <g id="text_4">
      <!-- 300 -->
      <g transform="translate(252.252747 413.241947) scale(0.1 -0.1)">
       <defs>
        <path id="DejaVuSans-33" d="M 2597 2516 
Q 3050 2419 3304 2112 
Q 3559 1806 3559 1356 
Q 3559 666 3084 287 
Q 2609 -91 1734 -91 
Q 1441 -91 1130 -33 
Q 819 25 488 141 
L 488 750 
Q 750 597 1062 519 
Q 1375 441 1716 441 
Q 2309 441 2620 675 
Q 2931 909 2931 1356 
Q 2931 1769 2642 2001 
Q 2353 2234 1838 2234 
L 1294 2234 
L 1294 2753 
L 1863 2753 
Q 2328 2753 2575 2939 
Q 2822 3125 2822 3475 
Q 2822 3834 2567 4026 
Q 2313 4219 1838 4219 
Q 1578 4219 1281 4162 
Q 984 4106 628 3988 
L 628 4550 
Q 988 4650 1302 4700 
Q 1616 4750 1894 4750 
Q 2613 4750 3031 4423 
Q 3450 4097 3450 3541 
Q 3450 3153 3228 2886 
Q 3006 2619 2597 2516 
z
" transform="scale(0.015625)"/>
       </defs>
       <use xlink:href="#DejaVuSans-33"/>
       <use xlink:href="#DejaVuSans-30" transform="translate(63.623047 0)"/>
       <use xlink:href="#DejaVuSans-30" transform="translate(127.246094 0)"/>
      </g>
     </g>
    </g>
    <g id="xtick_5">
     <g id="line2d_9">
      <path d="M 335.868166 398.64351 
L 335.868166 18.118365 
" clip-path="url(#p9f62a2a107)" style="fill: none; stroke-dasharray: 2.96,1.28; stroke-dashoffset: 0; stroke: #b0b0b0; stroke-opacity: 0.7; stroke-width: 0.8"/>
     </g>
     <g id="line2d_10">
      <g>
       <use xlink:href="#mef4165dfa4" x="335.868166" y="398.64351" style="stroke: #000000; stroke-width: 0.8"/>
      </g>
     </g>
     <g id="text_5">
      <!-- 400 -->
      <g transform="translate(326.324416 413.241947) scale(0.1 -0.1)">
       <defs>
        <path id="DejaVuSans-34" d="M 2419 4116 
L 825 1625 
L 2419 1625 
L 2419 4116 
z
M 2253 4666 
L 3047 4666 
L 3047 1625 
L 3713 1625 
L 3713 1100 
L 3047 1100 
L 3047 0 
L 2419 0 
L 2419 1100 
L 313 1100 
L 313 1709 
L 2253 4666 
z
" transform="scale(0.015625)"/>
       </defs>
       <use xlink:href="#DejaVuSans-34"/>
       <use xlink:href="#DejaVuSans-30" transform="translate(63.623047 0)"/>
       <use xlink:href="#DejaVuSans-30" transform="translate(127.246094 0)"/>
      </g>
     </g>
    </g>
    <g id="xtick_6">
     <g id="line2d_11">
      <path d="M 409.939835 398.64351 
L 409.939835 18.118365 
" clip-path="url(#p9f62a2a107)" style="fill: none; stroke-dasharray: 2.96,1.28; stroke-dashoffset: 0; stroke: #b0b0b0; stroke-opacity: 0.7; stroke-width: 0.8"/>
     </g>
     <g id="line2d_12">
      <g>
       <use xlink:href="#mef4165dfa4" x="409.939835" y="398.64351" style="stroke: #000000; stroke-width: 0.8"/>
      </g>
     </g>
     <g id="text_6">
      <!-- 500 -->
      <g transform="translate(400.396085 413.241947) scale(0.1 -0.1)">
       <defs>
        <path id="DejaVuSans-35" d="M 691 4666 
L 3169 4666 
L 3169 4134 
L 1269 4134 
L 1269 2991 
Q 1406 3038 1543 3061 
Q 1681 3084 1819 3084 
Q 2600 3084 3056 2656 
Q 3513 2228 3513 1497 
Q 3513 744 3044 326 
Q 2575 -91 1722 -91 
Q 1428 -91 1123 -41 
Q 819 9 494 109 
L 494 744 
Q 775 591 1075 516 
Q 1375 441 1709 441 
Q 2250 441 2565 725 
Q 2881 1009 2881 1497 
Q 2881 1984 2565 2268 
Q 2250 2553 1709 2553 
Q 1456 2553 1204 2497 
Q 953 2441 691 2322 
L 691 4666 
z
" transform="scale(0.015625)"/>
       </defs>
       <use xlink:href="#DejaVuSans-35"/>
       <use xlink:href="#DejaVuSans-30" transform="translate(63.623047 0)"/>
       <use xlink:href="#DejaVuSans-30" transform="translate(127.246094 0)"/>
      </g>
     </g>
    </g>
    <g id="text_7">
     <!-- Steps -->
     <g transform="translate(219.640901 426.920073) scale(0.1 -0.1)">
      <defs>
       <path id="DejaVuSans-53" d="M 3425 4513 
L 3425 3897 
Q 3066 4069 2747 4153 
Q 2428 4238 2131 4238 
Q 1616 4238 1336 4038 
Q 1056 3838 1056 3469 
Q 1056 3159 1242 3001 
Q 1428 2844 1947 2747 
L 2328 2669 
Q 3034 2534 3370 2195 
Q 3706 1856 3706 1288 
Q 3706 609 3251 259 
Q 2797 -91 1919 -91 
Q 1588 -91 1214 -16 
Q 841 59 441 206 
L 441 856 
Q 825 641 1194 531 
Q 1563 422 1919 422 
Q 2459 422 2753 634 
Q 3047 847 3047 1241 
Q 3047 1584 2836 1778 
Q 2625 1972 2144 2069 
L 1759 2144 
Q 1053 2284 737 2584 
Q 422 2884 422 3419 
Q 422 4038 858 4394 
Q 1294 4750 2059 4750 
Q 2388 4750 2728 4690 
Q 3069 4631 3425 4513 
z
" transform="scale(0.015625)"/>
       <path id="DejaVuSans-74" d="M 1172 4494 
L 1172 3500 
L 2356 3500 
L 2356 3053 
L 1172 3053 
L 1172 1153 
Q 1172 725 1289 603 
Q 1406 481 1766 481 
L 2356 481 
L 2356 0 
L 1766 0 
Q 1100 0 847 248 
Q 594 497 594 1153 
L 594 3053 
L 172 3053 
L 172 3500 
L 594 3500 
L 594 4494 
L 1172 4494 
z
" transform="scale(0.015625)"/>
       <path id="DejaVuSans-65" d="M 3597 1894 
L 3597 1613 
L 953 1613 
Q 991 1019 1311 708 
Q 1631 397 2203 397 
Q 2534 397 2845 478 
Q 3156 559 3463 722 
L 3463 178 
Q 3153 47 2828 -22 
Q 2503 -91 2169 -91 
Q 1331 -91 842 396 
Q 353 884 353 1716 
Q 353 2575 817 3079 
Q 1281 3584 2069 3584 
Q 2775 3584 3186 3129 
Q 3597 2675 3597 1894 
z
M 3022 2063 
Q 3016 2534 2758 2815 
Q 2500 3097 2075 3097 
Q 1594 3097 1305 2825 
Q 1016 2553 972 2059 
L 3022 2063 
z
" transform="scale(0.015625)"/>
       <path id="DejaVuSans-70" d="M 1159 525 
L 1159 -1331 
L 581 -1331 
L 581 3500 
L 1159 3500 
L 1159 2969 
Q 1341 3281 1617 3432 
Q 1894 3584 2278 3584 
Q 2916 3584 3314 3078 
Q 3713 2572 3713 1747 
Q 3713 922 3314 415 
Q 2916 -91 2278 -91 
Q 1894 -91 1617 61 
Q 1341 213 1159 525 
z
M 3116 1747 
Q 3116 2381 2855 2742 
Q 2594 3103 2138 3103 
Q 1681 3103 1420 2742 
Q 1159 2381 1159 1747 
Q 1159 1113 1420 752 
Q 1681 391 2138 391 
Q 2594 391 2855 752 
Q 3116 1113 3116 1747 
z
" transform="scale(0.015625)"/>
       <path id="DejaVuSans-73" d="M 2834 3397 
L 2834 2853 
Q 2591 2978 2328 3040 
Q 2066 3103 1784 3103 
Q 1356 3103 1142 2972 
Q 928 2841 928 2578 
Q 928 2378 1081 2264 
Q 1234 2150 1697 2047 
L 1894 2003 
Q 2506 1872 2764 1633 
Q 3022 1394 3022 966 
Q 3022 478 2636 193 
Q 2250 -91 1575 -91 
Q 1294 -91 989 -36 
Q 684 19 347 128 
L 347 722 
Q 666 556 975 473 
Q 1284 391 1588 391 
Q 1994 391 2212 530 
Q 2431 669 2431 922 
Q 2431 1156 2273 1281 
Q 2116 1406 1581 1522 
L 1381 1569 
Q 847 1681 609 1914 
Q 372 2147 372 2553 
Q 372 3047 722 3315 
Q 1072 3584 1716 3584 
Q 2034 3584 2315 3537 
Q 2597 3491 2834 3397 
z
" transform="scale(0.015625)"/>
      </defs>
      <use xlink:href="#DejaVuSans-53"/>
      <use xlink:href="#DejaVuSans-74" transform="translate(63.476562 0)"/>
      <use xlink:href="#DejaVuSans-65" transform="translate(102.685547 0)"/>
      <use xlink:href="#DejaVuSans-70" transform="translate(164.208984 0)"/>
      <use xlink:href="#DejaVuSans-73" transform="translate(227.685547 0)"/>
     </g>
    </g>
   </g>
   <g id="matplotlib.axis_2">
    <g id="ytick_1">
     <g id="line2d_13">
      <path d="M 39.58149 398.64351 
L 427.68 398.64351 
" clip-path="url(#p9f62a2a107)" style="fill: none; stroke-dasharray: 2.96,1.28; stroke-dashoffset: 0; stroke: #b0b0b0; stroke-opacity: 0.7; stroke-width: 0.8"/>
     </g>
     <g id="line2d_14">
      <defs>
       <path id="m11a539792f" d="M 0 0 
L -3.5 0 
" style="stroke: #000000; stroke-width: 0.8"/>
      </defs>
      <g>
       <use xlink:href="#m11a539792f" x="39.58149" y="398.64351" style="stroke: #000000; stroke-width: 0.8"/>
      </g>
     </g>
     <g id="text_8">
      <!-- 0.0 -->
      <g transform="translate(16.678365 402.442729) scale(0.1 -0.1)">
       <defs>
        <path id="DejaVuSans-2e" d="M 684 794 
L 1344 794 
L 1344 0 
L 684 0 
L 684 794 
z
" transform="scale(0.015625)"/>
       </defs>
       <use xlink:href="#DejaVuSans-30"/>
       <use xlink:href="#DejaVuSans-2e" transform="translate(63.623047 0)"/>
       <use xlink:href="#DejaVuSans-30" transform="translate(95.410156 0)"/>
      </g>
     </g>
    </g>
    <g id="ytick_2">
     <g id="line2d_15">
      <path d="M 39.58149 325.765647 
L 427.68 325.765647 
" clip-path="url(#p9f62a2a107)" style="fill: none; stroke-dasharray: 2.96,1.28; stroke-dashoffset: 0; stroke: #b0b0b0; stroke-opacity: 0.7; stroke-width: 0.8"/>
     </g>
     <g id="line2d_16">
      <g>
       <use xlink:href="#m11a539792f" x="39.58149" y="325.765647" style="stroke: #000000; stroke-width: 0.8"/>
      </g>
     </g>
     <g id="text_9">
      <!-- 0.2 -->
      <g transform="translate(16.678365 329.564865) scale(0.1 -0.1)">
       <use xlink:href="#DejaVuSans-30"/>
       <use xlink:href="#DejaVuSans-2e" transform="translate(63.623047 0)"/>
       <use xlink:href="#DejaVuSans-32" transform="translate(95.410156 0)"/>
      </g>
     </g>
    </g>
    <g id="ytick_3">
     <g id="line2d_17">
      <path d="M 39.58149 252.887783 
L 427.68 252.887783 
" clip-path="url(#p9f62a2a107)" style="fill: none; stroke-dasharray: 2.96,1.28; stroke-dashoffset: 0; stroke: #b0b0b0; stroke-opacity: 0.7; stroke-width: 0.8"/>
     </g>
     <g id="line2d_18">
      <g>
       <use xlink:href="#m11a539792f" x="39.58149" y="252.887783" style="stroke: #000000; stroke-width: 0.8"/>
      </g>
     </g>
     <g id="text_10">
      <!-- 0.4 -->
      <g transform="translate(16.678365 256.687002) scale(0.1 -0.1)">
       <use xlink:href="#DejaVuSans-30"/>
       <use xlink:href="#DejaVuSans-2e" transform="translate(63.623047 0)"/>
       <use xlink:href="#DejaVuSans-34" transform="translate(95.410156 0)"/>
      </g>
     </g>
    </g>
    <g id="ytick_4">
     <g id="line2d_19">
      <path d="M 39.58149 180.00992 
L 427.68 180.00992 
" clip-path="url(#p9f62a2a107)" style="fill: none; stroke-dasharray: 2.96,1.28; stroke-dashoffset: 0; stroke: #b0b0b0; stroke-opacity: 0.7; stroke-width: 0.8"/>
     </g>
     <g id="line2d_20">
      <g>
       <use xlink:href="#m11a539792f" x="39.58149" y="180.00992" style="stroke: #000000; stroke-width: 0.8"/>
      </g>
     </g>
     <g id="text_11">
      <!-- 0.6 -->
      <g transform="translate(16.678365 183.809139) scale(0.1 -0.1)">
       <defs>
        <path id="DejaVuSans-36" d="M 2113 2584 
Q 1688 2584 1439 2293 
Q 1191 2003 1191 1497 
Q 1191 994 1439 701 
Q 1688 409 2113 409 
Q 2538 409 2786 701 
Q 3034 994 3034 1497 
Q 3034 2003 2786 2293 
Q 2538 2584 2113 2584 
z
M 3366 4563 
L 3366 3988 
Q 3128 4100 2886 4159 
Q 2644 4219 2406 4219 
Q 1781 4219 1451 3797 
Q 1122 3375 1075 2522 
Q 1259 2794 1537 2939 
Q 1816 3084 2150 3084 
Q 2853 3084 3261 2657 
Q 3669 2231 3669 1497 
Q 3669 778 3244 343 
Q 2819 -91 2113 -91 
Q 1303 -91 875 529 
Q 447 1150 447 2328 
Q 447 3434 972 4092 
Q 1497 4750 2381 4750 
Q 2619 4750 2861 4703 
Q 3103 4656 3366 4563 
z
" transform="scale(0.015625)"/>
       </defs>
       <use xlink:href="#DejaVuSans-30"/>
       <use xlink:href="#DejaVuSans-2e" transform="translate(63.623047 0)"/>
       <use xlink:href="#DejaVuSans-36" transform="translate(95.410156 0)"/>
      </g>
     </g>
    </g>
    <g id="ytick_5">
     <g id="line2d_21">
      <path d="M 39.58149 107.132057 
L 427.68 107.132057 
" clip-path="url(#p9f62a2a107)" style="fill: none; stroke-dasharray: 2.96,1.28; stroke-dashoffset: 0; stroke: #b0b0b0; stroke-opacity: 0.7; stroke-width: 0.8"/>
     </g>
     <g id="line2d_22">
      <g>
       <use xlink:href="#m11a539792f" x="39.58149" y="107.132057" style="stroke: #000000; stroke-width: 0.8"/>
      </g>
     </g>
     <g id="text_12">
      <!-- 0.8 -->
      <g transform="translate(16.678365 110.931275) scale(0.1 -0.1)">
       <defs>
        <path id="DejaVuSans-38" d="M 2034 2216 
Q 1584 2216 1326 1975 
Q 1069 1734 1069 1313 
Q 1069 891 1326 650 
Q 1584 409 2034 409 
Q 2484 409 2743 651 
Q 3003 894 3003 1313 
Q 3003 1734 2745 1975 
Q 2488 2216 2034 2216 
z
M 1403 2484 
Q 997 2584 770 2862 
Q 544 3141 544 3541 
Q 544 4100 942 4425 
Q 1341 4750 2034 4750 
Q 2731 4750 3128 4425 
Q 3525 4100 3525 3541 
Q 3525 3141 3298 2862 
Q 3072 2584 2669 2484 
Q 3125 2378 3379 2068 
Q 3634 1759 3634 1313 
Q 3634 634 3220 271 
Q 2806 -91 2034 -91 
Q 1263 -91 848 271 
Q 434 634 434 1313 
Q 434 1759 690 2068 
Q 947 2378 1403 2484 
z
M 1172 3481 
Q 1172 3119 1398 2916 
Q 1625 2713 2034 2713 
Q 2441 2713 2670 2916 
Q 2900 3119 2900 3481 
Q 2900 3844 2670 4047 
Q 2441 4250 2034 4250 
Q 1625 4250 1398 4047 
Q 1172 3844 1172 3481 
z
" transform="scale(0.015625)"/>
       </defs>
       <use xlink:href="#DejaVuSans-30"/>
       <use xlink:href="#DejaVuSans-2e" transform="translate(63.623047 0)"/>
       <use xlink:href="#DejaVuSans-38" transform="translate(95.410156 0)"/>
      </g>
     </g>
    </g>
    <g id="ytick_6">
     <g id="line2d_23">
      <path d="M 39.58149 34.254193 
L 427.68 34.254193 
" clip-path="url(#p9f62a2a107)" style="fill: none; stroke-dasharray: 2.96,1.28; stroke-dashoffset: 0; stroke: #b0b0b0; stroke-opacity: 0.7; stroke-width: 0.8"/>
     </g>
     <g id="line2d_24">
      <g>
       <use xlink:href="#m11a539792f" x="39.58149" y="34.254193" style="stroke: #000000; stroke-width: 0.8"/>
      </g>
     </g>
     <g id="text_13">
      <!-- 1.0 -->
      <g transform="translate(16.678365 38.053412) scale(0.1 -0.1)">
       <use xlink:href="#DejaVuSans-31"/>
       <use xlink:href="#DejaVuSans-2e" transform="translate(63.623047 0)"/>
       <use xlink:href="#DejaVuSans-30" transform="translate(95.410156 0)"/>
      </g>
     </g>
    </g>
    <g id="text_14">
     <!-- Accuracy -->
     <g transform="translate(10.598677 231.209062) rotate(-90) scale(0.1 -0.1)">
      <defs>
       <path id="DejaVuSans-41" d="M 2188 4044 
L 1331 1722 
L 3047 1722 
L 2188 4044 
z
M 1831 4666 
L 2547 4666 
L 4325 0 
L 3669 0 
L 3244 1197 
L 1141 1197 
L 716 0 
L 50 0 
L 1831 4666 
z
" transform="scale(0.015625)"/>
       <path id="DejaVuSans-63" d="M 3122 3366 
L 3122 2828 
Q 2878 2963 2633 3030 
Q 2388 3097 2138 3097 
Q 1578 3097 1268 2742 
Q 959 2388 959 1747 
Q 959 1106 1268 751 
Q 1578 397 2138 397 
Q 2388 397 2633 464 
Q 2878 531 3122 666 
L 3122 134 
Q 2881 22 2623 -34 
Q 2366 -91 2075 -91 
Q 1284 -91 818 406 
Q 353 903 353 1747 
Q 353 2603 823 3093 
Q 1294 3584 2113 3584 
Q 2378 3584 2631 3529 
Q 2884 3475 3122 3366 
z
" transform="scale(0.015625)"/>
       <path id="DejaVuSans-75" d="M 544 1381 
L 544 3500 
L 1119 3500 
L 1119 1403 
Q 1119 906 1312 657 
Q 1506 409 1894 409 
Q 2359 409 2629 706 
Q 2900 1003 2900 1516 
L 2900 3500 
L 3475 3500 
L 3475 0 
L 2900 0 
L 2900 538 
Q 2691 219 2414 64 
Q 2138 -91 1772 -91 
Q 1169 -91 856 284 
Q 544 659 544 1381 
z
M 1991 3584 
L 1991 3584 
z
" transform="scale(0.015625)"/>
       <path id="DejaVuSans-72" d="M 2631 2963 
Q 2534 3019 2420 3045 
Q 2306 3072 2169 3072 
Q 1681 3072 1420 2755 
Q 1159 2438 1159 1844 
L 1159 0 
L 581 0 
L 581 3500 
L 1159 3500 
L 1159 2956 
Q 1341 3275 1631 3429 
Q 1922 3584 2338 3584 
Q 2397 3584 2469 3576 
Q 2541 3569 2628 3553 
L 2631 2963 
z
" transform="scale(0.015625)"/>
       <path id="DejaVuSans-61" d="M 2194 1759 
Q 1497 1759 1228 1600 
Q 959 1441 959 1056 
Q 959 750 1161 570 
Q 1363 391 1709 391 
Q 2188 391 2477 730 
Q 2766 1069 2766 1631 
L 2766 1759 
L 2194 1759 
z
M 3341 1997 
L 3341 0 
L 2766 0 
L 2766 531 
Q 2569 213 2275 61 
Q 1981 -91 1556 -91 
Q 1019 -91 701 211 
Q 384 513 384 1019 
Q 384 1609 779 1909 
Q 1175 2209 1959 2209 
L 2766 2209 
L 2766 2266 
Q 2766 2663 2505 2880 
Q 2244 3097 1772 3097 
Q 1472 3097 1187 3025 
Q 903 2953 641 2809 
L 641 3341 
Q 956 3463 1253 3523 
Q 1550 3584 1831 3584 
Q 2591 3584 2966 3190 
Q 3341 2797 3341 1997 
z
" transform="scale(0.015625)"/>
       <path id="DejaVuSans-79" d="M 2059 -325 
Q 1816 -950 1584 -1140 
Q 1353 -1331 966 -1331 
L 506 -1331 
L 506 -850 
L 844 -850 
Q 1081 -850 1212 -737 
Q 1344 -625 1503 -206 
L 1606 56 
L 191 3500 
L 800 3500 
L 1894 763 
L 2988 3500 
L 3597 3500 
L 2059 -325 
z
" transform="scale(0.015625)"/>
      </defs>
      <use xlink:href="#DejaVuSans-41"/>
      <use xlink:href="#DejaVuSans-63" transform="translate(66.658203 0)"/>
      <use xlink:href="#DejaVuSans-63" transform="translate(121.638672 0)"/>
      <use xlink:href="#DejaVuSans-75" transform="translate(176.619141 0)"/>
      <use xlink:href="#DejaVuSans-72" transform="translate(239.998047 0)"/>
      <use xlink:href="#DejaVuSans-61" transform="translate(281.111328 0)"/>
      <use xlink:href="#DejaVuSans-63" transform="translate(342.390625 0)"/>
      <use xlink:href="#DejaVuSans-79" transform="translate(397.371094 0)"/>
     </g>
    </g>
   </g>
   <g id="line2d_25">
    <path d="M 39.58149 367.870771 
L 41.80364 316.04715 
L 42.544357 300.368185 
L 43.285073 277.918456 
L 44.766507 251.03758 
L 46.24794 230.757394 
L 47.729374 213.648096 
L 49.210807 198.589857 
L 50.69224 185.617394 
L 52.173674 174.875643 
L 53.655107 165.595749 
L 54.395824 167.599578 
L 55.136541 161.534139 
L 55.877257 149.261477 
L 57.358691 114.579117 
L 58.840124 81.522784 
L 59.580841 71.108127 
L 60.321557 67.452768 
L 61.062274 73.073009 
L 62.543707 72.916941 
L 64.025141 72.489433 
L 65.506574 71.882169 
L 68.469441 70.264517 
L 69.950874 69.79491 
L 71.432308 69.359891 
L 72.913741 68.620728 
L 73.654458 68.931403 
L 74.395174 68.432045 
L 75.135891 67.555265 
L 78.839475 61.079753 
L 79.580191 60.54697 
L 80.320908 60.810268 
L 81.061625 60.344834 
L 82.543058 59.793988 
L 87.728075 59.346076 
L 90.690942 58.78139 
L 91.431658 59.30286 
L 92.172375 58.79107 
L 94.394525 55.610739 
L 95.135242 54.998426 
L 95.875958 54.729745 
L 96.616675 54.822634 
L 97.357392 55.407004 
L 98.098109 56.41503 
L 98.838825 56.209833 
L 99.579542 55.873046 
L 101.060975 55.503742 
L 104.764559 55.34597 
L 106.986709 55.084347 
L 109.208859 54.822558 
L 109.949576 55.74549 
L 110.690292 54.49308 
L 111.431009 53.015446 
L 112.171726 51.912501 
L 112.912442 51.207416 
L 113.653159 50.744262 
L 114.393876 50.726122 
L 115.134592 51.154455 
L 115.875309 52.078802 
L 116.616026 53.599456 
L 117.356743 52.894567 
L 118.097459 52.651441 
L 119.578893 52.687204 
L 121.801043 52.271184 
L 124.023193 52.026152 
L 125.504626 51.95409 
L 128.467493 51.954243 
L 129.948926 51.760804 
L 133.65251 51.369649 
L 137.356093 50.610359 
L 138.837527 50.589813 
L 141.059677 50.771572 
L 144.022543 50.903795 
L 146.244693 50.68377 
L 146.98541 51.030547 
L 148.466844 49.997194 
L 150.688994 48.772038 
L 151.42971 48.574273 
L 152.170427 48.660793 
L 152.911144 48.995915 
L 153.65186 49.651595 
L 154.392577 49.410249 
L 155.133294 49.529438 
L 155.87401 49.534109 
L 158.836877 49.134097 
L 160.318311 49.128572 
L 164.762611 49.469936 
L 165.503327 50.802892 
L 166.244044 49.029457 
L 166.984761 47.562688 
L 167.725477 46.430688 
L 168.466194 45.568025 
L 169.206911 45.138673 
L 169.947628 45.19893 
L 170.688344 45.832528 
L 171.429061 47.071682 
L 172.169778 48.982094 
L 172.910494 47.896515 
L 174.391928 48.158593 
L 175.873361 48.222817 
L 178.836228 48.381375 
L 181.799095 48.239035 
L 183.280528 48.180834 
L 184.021245 48.602921 
L 185.502678 47.346635 
L 186.243395 46.929657 
L 186.984111 46.726429 
L 187.724828 46.723835 
L 188.465545 46.860118 
L 189.206261 47.118824 
L 189.946978 47.503061 
L 190.687695 48.087102 
L 191.428412 47.637925 
L 192.909845 47.501853 
L 195.872712 47.617468 
L 197.354145 47.551049 
L 199.576295 47.505745 
L 201.798445 47.359472 
L 202.539162 47.709875 
L 203.279879 47.373187 
L 206.242745 45.000635 
L 206.983462 44.653864 
L 207.724179 44.504734 
L 208.464895 44.710391 
L 209.205612 45.350119 
L 210.687046 45.420097 
L 212.168479 45.68658 
L 213.649912 45.787401 
L 215.131346 45.803945 
L 219.575646 46.141605 
L 220.316362 46.141454 
L 221.057079 46.694371 
L 222.538513 45.377041 
L 224.019946 44.647178 
L 224.760663 44.568422 
L 225.501379 44.70192 
L 226.242096 45.083972 
L 226.982813 45.677728 
L 227.723529 46.464715 
L 228.464246 45.966949 
L 235.130696 45.782384 
L 243.27858 46.239899 
L 246.241447 46.412961 
L 247.72288 46.268533 
L 249.204313 46.259661 
L 252.907897 46.363709 
L 258.83363 46.18749 
L 259.574347 45.987822 
L 261.05578 45.381639 
L 262.537214 45.042713 
L 263.277931 45.005063 
L 264.018647 45.079973 
L 266.240797 45.747576 
L 269.203664 45.803744 
L 271.425814 45.59235 
L 275.870114 45.29551 
L 276.610831 45.453723 
L 278.092264 44.953854 
L 280.314414 44.365514 
L 281.795848 44.158246 
L 282.536564 44.206054 
L 283.277281 44.41422 
L 284.017998 44.22175 
L 286.240148 44.250095 
L 289.943731 44.305722 
L 294.388032 44.782433 
L 295.128748 45.5578 
L 296.610182 43.961987 
L 297.350898 43.396467 
L 298.091615 43.098562 
L 298.832332 42.999644 
L 299.573048 43.153158 
L 300.313765 43.533245 
L 301.054482 44.147315 
L 301.795198 45.040372 
L 302.535915 44.352782 
L 304.017349 44.299968 
L 307.720932 44.716428 
L 309.943082 44.650728 
L 312.905949 44.459462 
L 313.646665 43.85989 
L 315.128099 45.39649 
L 315.868816 45.927483 
L 316.609532 46.186007 
L 317.350249 46.253262 
L 318.090966 46.099865 
L 318.831682 45.782514 
L 319.572399 45.22965 
L 320.313116 44.381386 
L 321.053832 44.917582 
L 321.794549 45.004383 
L 324.016699 44.813877 
L 329.201716 44.392577 
L 331.423866 44.380234 
L 332.164583 44.2579 
L 333.646016 44.586819 
L 335.12745 44.548954 
L 336.608883 44.089457 
L 338.831033 42.93754 
L 342.534616 42.913959 
L 346.2382 43.357511 
L 349.201067 43.466051 
L 350.6825 43.555158 
L 351.423217 43.285288 
L 352.163933 43.329208 
L 355.1268 44.392527 
L 355.867517 44.429085 
L 356.608234 44.300867 
L 357.34895 44.056479 
L 358.089667 43.507413 
L 359.5711 43.292303 
L 361.79325 43.483956 
L 364.756117 43.799206 
L 368.459701 43.785992 
L 369.200417 44.124968 
L 370.681851 43.204693 
L 371.422567 43.022566 
L 372.163284 42.990323 
L 372.904001 43.189997 
L 374.385434 44.055268 
L 375.866867 45.079315 
L 376.607584 44.623818 
L 378.829734 43.983823 
L 380.311168 43.862912 
L 386.977618 43.870816 
L 387.718335 43.015035 
L 388.459051 44.48133 
L 389.199768 45.339451 
L 389.940485 45.736624 
L 390.681201 45.846281 
L 391.421918 45.561443 
L 392.162635 44.972348 
L 392.903351 44.129514 
L 393.644068 43.091343 
L 394.384785 41.849698 
L 395.125501 42.974657 
L 396.606935 42.998994 
L 398.088368 43.173267 
L 400.310518 43.1516 
L 403.273385 43.032506 
L 407.717685 43.276348 
L 409.199119 43.415055 
L 409.199119 43.415055 
" clip-path="url(#p9f62a2a107)" style="fill: none; stroke: #1f77b4; stroke-width: 1.5; stroke-linecap: square"/>
   </g>
   <g id="line2d_26">
    <path d="M 39.58149 377.004648 
L 41.062923 299.996889 
L 43.285073 196.542437 
L 44.02579 174.865264 
L 44.766507 157.08288 
L 45.507224 144.331229 
L 46.24794 134.62167 
L 46.988657 126.648458 
L 48.47009 114.331515 
L 49.951524 105.106552 
L 51.432957 97.886381 
L 52.91439 92.053628 
L 53.655107 89.494382 
L 54.395824 90.851256 
L 55.136541 87.152138 
L 55.877257 80.203581 
L 58.840124 44.530395 
L 59.580841 39.595161 
L 60.321557 38.434734 
L 61.062274 42.289343 
L 68.469441 41.243806 
L 72.173024 41.124515 
L 72.913741 40.88394 
L 74.395174 41.262704 
L 75.135891 41.266408 
L 75.876608 41.149255 
L 77.358041 40.553129 
L 79.580191 39.366515 
L 80.320908 39.454203 
L 83.283775 39.080174 
L 84.765208 39.098851 
L 89.209508 39.274393 
L 94.394525 39.304591 
L 98.098109 38.733902 
L 99.579542 38.695955 
L 101.801692 38.460288 
L 106.986709 38.68021 
L 109.208859 38.788974 
L 109.949576 39.199398 
L 110.690292 38.597302 
L 112.171726 38.00531 
L 113.653159 37.88868 
L 115.134592 38.058864 
L 115.875309 38.291248 
L 116.616026 38.658758 
L 117.356743 38.089208 
L 119.578893 38.108999 
L 122.541759 38.104639 
L 126.245343 38.072032 
L 127.726776 38.094515 
L 128.467493 38.440991 
L 129.948926 37.670256 
L 131.43036 37.095521 
L 132.171076 36.968897 
L 132.911793 36.989064 
L 133.65251 37.140076 
L 134.393226 37.444361 
L 135.133943 37.915997 
L 135.87466 37.628731 
L 137.356093 37.637979 
L 139.578243 37.636119 
L 144.76326 37.730869 
L 146.244693 37.718637 
L 146.98541 37.03253 
L 147.726127 38.088269 
L 148.466844 38.810656 
L 149.20756 39.254058 
L 149.948277 39.379624 
L 150.688994 39.173738 
L 151.42971 38.749347 
L 152.170427 38.136794 
L 153.65186 36.420836 
L 154.392577 37.265219 
L 156.614727 37.47246 
L 159.577594 37.385831 
L 166.984761 37.511496 
L 169.206911 37.145476 
L 170.688344 37.089091 
L 174.391928 37.119628 
L 177.354794 37.123264 
L 181.799095 37.141979 
L 186.243395 37.137473 
L 189.206261 37.543775 
L 190.687695 37.456004 
L 192.169128 37.169502 
L 195.872712 36.998536 
L 201.798445 36.969073 
L 202.539162 37.179817 
L 203.279879 36.953193 
L 204.761312 36.26972 
L 206.242745 35.91045 
L 206.983462 35.895094 
L 207.724179 36.04419 
L 208.464895 36.335274 
L 209.205612 36.789192 
L 210.687046 36.718879 
L 212.909196 36.864537 
L 220.316362 36.990723 
L 221.057079 37.225608 
L 224.019946 36.176233 
L 225.501379 35.945221 
L 226.242096 35.940732 
L 226.982813 36.083535 
L 227.723529 36.367808 
L 228.464246 36.170977 
L 229.945679 36.17733 
L 238.83428 36.743079 
L 239.574996 36.707566 
L 240.315713 36.830888 
L 241.797147 36.702822 
L 244.760013 36.356026 
L 246.241447 36.326885 
L 246.982163 36.481252 
L 249.204313 36.502889 
L 255.870764 36.688606 
L 257.352197 36.661684 
L 258.092914 36.857113 
L 259.574347 36.305756 
L 261.05578 36.100774 
L 262.537214 36.149532 
L 264.018647 36.481241 
L 264.759364 36.753316 
L 265.500081 36.516325 
L 266.981514 36.441157 
L 271.425814 36.555479 
L 274.388681 36.68304 
L 275.870114 36.664244 
L 276.610831 36.864119 
L 279.573698 35.982673 
L 281.055131 36.16815 
L 282.536564 36.63475 
L 283.277281 36.962769 
L 284.758715 36.610844 
L 286.240148 36.506799 
L 294.388032 36.497542 
L 295.128748 36.68981 
L 295.869465 36.369873 
L 297.350898 36.103223 
L 298.832332 36.197622 
L 301.054482 36.672984 
L 301.795198 36.868743 
L 302.535915 36.53148 
L 305.498782 36.257764 
L 309.943082 36.233266 
L 312.905949 36.219896 
L 313.646665 36.391735 
L 318.090966 35.383262 
L 318.831682 35.479591 
L 319.572399 35.70947 
L 320.313116 36.089936 
L 321.794549 36.211873 
L 324.016699 36.302876 
L 326.979566 36.234598 
L 329.942433 36.258063 
L 331.423866 36.295896 
L 332.164583 35.996715 
L 332.905299 36.482122 
L 333.646016 36.80432 
L 335.12745 37.120928 
L 335.868166 37.133378 
L 336.608883 37.018539 
L 337.3496 36.786011 
L 338.831033 35.950291 
L 339.57175 36.242654 
L 341.053183 36.147454 
L 349.941783 36.24693 
L 350.6825 36.156353 
L 352.163933 36.330914 
L 354.386083 36.692773 
L 355.867517 36.640547 
L 358.830384 36.205029 
L 361.79325 36.14047 
L 368.459701 36.186329 
L 369.200417 36.358666 
L 370.681851 35.966878 
L 372.904001 35.626789 
L 374.385434 35.666754 
L 375.866867 35.975595 
L 376.607584 35.790836 
L 381.792601 35.997535 
L 386.977618 35.992426 
L 387.718335 35.894043 
L 389.940485 36.209448 
L 392.162635 36.149487 
L 395.125501 35.992624 
L 398.829085 36.207053 
L 401.791952 36.211043 
L 409.199119 36.187635 
L 409.199119 36.187635 
" clip-path="url(#p9f62a2a107)" style="fill: none; stroke: #ff7f0e; stroke-width: 1.5; stroke-linecap: square"/>
   </g>
   <g id="line2d_27">
    <path d="M 39.58149 373.803665 
L 41.062923 269.211711 
L 41.80364 226.91456 
L 42.544357 191.283294 
L 43.285073 149.250214 
L 44.02579 132.275051 
L 44.766507 121.536408 
L 45.507224 113.506058 
L 46.24794 106.694851 
L 46.988657 100.997792 
L 48.47009 92.259934 
L 49.951524 85.790983 
L 51.432957 80.667289 
L 52.91439 76.495332 
L 53.655107 74.653098 
L 54.395824 75.582861 
L 55.136541 72.973871 
L 55.877257 68.112993 
L 58.840124 43.177116 
L 59.580841 39.635595 
L 60.321557 38.726151 
L 61.062274 41.338088 
L 62.543707 41.123029 
L 68.469441 40.611133 
L 72.173024 40.382656 
L 72.913741 40.576616 
L 74.395174 39.888089 
L 75.876608 39.110741 
L 77.358041 38.637687 
L 78.098758 38.61347 
L 78.839475 38.796817 
L 79.580191 39.183589 
L 81.802341 38.845232 
L 84.024491 38.612059 
L 86.246642 38.660283 
L 89.950225 38.768712 
L 90.690942 38.781085 
L 91.431658 38.668432 
L 92.172375 38.856379 
L 93.653808 38.920596 
L 95.875958 38.568842 
L 98.098109 38.200661 
L 98.838825 38.369823 
L 100.320259 38.2889 
L 101.801692 38.14908 
L 105.505275 38.274971 
L 107.727426 38.371683 
L 109.208859 38.386702 
L 109.949576 38.742304 
L 110.690292 38.219523 
L 112.171726 37.622023 
L 113.653159 37.423801 
L 115.134592 37.535982 
L 115.875309 37.733128 
L 116.616026 38.051657 
L 117.356743 37.544025 
L 118.838176 37.506489 
L 122.541759 37.722264 
L 124.763909 37.680472 
L 127.726776 37.791569 
L 128.467493 37.618836 
L 129.948926 38.107803 
L 131.43036 38.25546 
L 132.911793 37.998827 
L 134.393226 37.433377 
L 135.133943 37.067849 
L 135.87466 37.193783 
L 138.837527 37.126462 
L 146.244693 37.284439 
L 146.98541 36.825098 
L 147.726127 37.607757 
L 148.466844 38.052284 
L 149.20756 38.32435 
L 149.948277 38.401112 
L 150.688994 38.237777 
L 151.42971 37.913944 
L 152.911144 36.899195 
L 153.65186 36.268127 
L 154.392577 36.884893 
L 164.762611 37.100423 
L 165.503327 37.339837 
L 166.984761 36.740657 
L 168.466194 36.388941 
L 169.947628 36.219418 
L 170.688344 36.254336 
L 171.429061 36.402203 
L 172.169778 36.695328 
L 172.910494 36.462765 
L 176.614078 36.624212 
L 186.243395 36.772814 
L 189.946978 36.383434 
L 190.687695 36.402664 
L 191.428412 36.554858 
L 201.798445 36.522676 
L 202.539162 36.705458 
L 204.761312 35.990563 
L 206.242745 35.868548 
L 207.724179 36.101011 
L 209.205612 36.62748 
L 209.946329 36.482327 
L 211.427762 36.466522 
L 215.872062 36.651242 
L 220.316362 36.704446 
L 221.057079 36.896516 
L 224.019946 35.963473 
L 225.501379 35.853065 
L 226.982813 36.041887 
L 227.723529 36.29484 
L 228.464246 36.106808 
L 230.686396 36.122947 
L 237.352846 36.332159 
L 241.797147 36.387585 
L 244.019297 36.116851 
L 246.241447 36.055041 
L 246.982163 36.287663 
L 249.204313 36.298956 
L 252.907897 36.422503 
L 258.092914 36.579612 
L 259.574347 36.065422 
L 261.05578 35.874132 
L 262.537214 35.992915 
L 264.018647 36.370853 
L 264.759364 36.622193 
L 265.500081 36.394533 
L 266.981514 36.227904 
L 269.203664 36.173165 
L 274.388681 36.383136 
L 275.870114 36.360674 
L 276.610831 36.538291 
L 279.573698 35.771 
L 281.055131 35.871706 
L 282.536564 36.237854 
L 283.277281 36.526547 
L 284.758715 36.264889 
L 286.980865 36.166585 
L 294.388032 36.246414 
L 295.128748 36.43864 
L 295.869465 36.175438 
L 298.091615 35.857623 
L 299.573048 35.901281 
L 301.054482 36.122955 
L 301.795198 36.332717 
L 302.535915 36.114463 
L 304.758065 36.109472 
L 312.905949 36.059231 
L 313.646665 36.232185 
L 315.128099 35.876334 
L 317.350249 35.275499 
L 318.090966 35.208188 
L 318.831682 35.280871 
L 319.572399 35.467295 
L 320.313116 35.792992 
L 330.683149 35.88902 
L 335.868166 36.076511 
L 339.57175 35.884827 
L 342.534616 35.768089 
L 348.46035 35.912665 
L 351.423217 35.87179 
L 353.645367 36.342601 
L 355.1268 36.485694 
L 356.608234 36.287456 
L 357.34895 36.052263 
L 361.052534 35.922661 
L 365.496834 35.907543 
L 370.681851 36.1868 
L 372.163284 36.179472 
L 374.385434 35.878763 
L 375.866867 35.556324 
L 377.348301 35.695142 
L 382.533318 35.888107 
L 386.977618 35.877859 
L 387.718335 35.533859 
L 389.199768 36.441275 
L 389.940485 36.738804 
L 390.681201 36.869993 
L 391.421918 36.849428 
L 392.162635 36.700256 
L 392.903351 36.428817 
L 393.644068 36.016016 
L 394.384785 35.444538 
L 395.125501 35.760311 
L 398.088368 35.933281 
L 401.051235 36.003374 
L 409.199119 36.049552 
L 409.199119 36.049552 
" clip-path="url(#p9f62a2a107)" style="fill: none; stroke: #2ca02c; stroke-width: 1.5; stroke-linecap: square"/>
   </g>
   <g id="patch_3">
    <path d="M 39.58149 398.64351 
L 39.58149 18.118365 
" style="fill: none; stroke: #000000; stroke-width: 0.8; stroke-linejoin: miter; stroke-linecap: square"/>
   </g>
   <g id="patch_4">
    <path d="M 427.68 398.64351 
L 427.68 18.118365 
" style="fill: none; stroke: #000000; stroke-width: 0.8; stroke-linejoin: miter; stroke-linecap: square"/>
   </g>
   <g id="patch_5">
    <path d="M 39.58149 398.64351 
L 427.68 398.64351 
" style="fill: none; stroke: #000000; stroke-width: 0.8; stroke-linejoin: miter; stroke-linecap: square"/>
   </g>
   <g id="patch_6">
    <path d="M 39.58149 18.118365 
L 427.68 18.118365 
" style="fill: none; stroke: #000000; stroke-width: 0.8; stroke-linejoin: miter; stroke-linecap: square"/>
   </g>
   <g id="text_15">
    <!-- Learning curves -->
    <g transform="translate(185.73762 12.118365) scale(0.12 -0.12)">
     <defs>
      <path id="DejaVuSans-4c" d="M 628 4666 
L 1259 4666 
L 1259 531 
L 3531 531 
L 3531 0 
L 628 0 
L 628 4666 
z
" transform="scale(0.015625)"/>
      <path id="DejaVuSans-6e" d="M 3513 2113 
L 3513 0 
L 2938 0 
L 2938 2094 
Q 2938 2591 2744 2837 
Q 2550 3084 2163 3084 
Q 1697 3084 1428 2787 
Q 1159 2491 1159 1978 
L 1159 0 
L 581 0 
L 581 3500 
L 1159 3500 
L 1159 2956 
Q 1366 3272 1645 3428 
Q 1925 3584 2291 3584 
Q 2894 3584 3203 3211 
Q 3513 2838 3513 2113 
z
" transform="scale(0.015625)"/>
      <path id="DejaVuSans-69" d="M 603 3500 
L 1178 3500 
L 1178 0 
L 603 0 
L 603 3500 
z
M 603 4863 
L 1178 4863 
L 1178 4134 
L 603 4134 
L 603 4863 
z
" transform="scale(0.015625)"/>
      <path id="DejaVuSans-67" d="M 2906 1791 
Q 2906 2416 2648 2759 
Q 2391 3103 1925 3103 
Q 1463 3103 1205 2759 
Q 947 2416 947 1791 
Q 947 1169 1205 825 
Q 1463 481 1925 481 
Q 2391 481 2648 825 
Q 2906 1169 2906 1791 
z
M 3481 434 
Q 3481 -459 3084 -895 
Q 2688 -1331 1869 -1331 
Q 1566 -1331 1297 -1286 
Q 1028 -1241 775 -1147 
L 775 -588 
Q 1028 -725 1275 -790 
Q 1522 -856 1778 -856 
Q 2344 -856 2625 -561 
Q 2906 -266 2906 331 
L 2906 616 
Q 2728 306 2450 153 
Q 2172 0 1784 0 
Q 1141 0 747 490 
Q 353 981 353 1791 
Q 353 2603 747 3093 
Q 1141 3584 1784 3584 
Q 2172 3584 2450 3431 
Q 2728 3278 2906 2969 
L 2906 3500 
L 3481 3500 
L 3481 434 
z
" transform="scale(0.015625)"/>
      <path id="DejaVuSans-20" transform="scale(0.015625)"/>
      <path id="DejaVuSans-76" d="M 191 3500 
L 800 3500 
L 1894 563 
L 2988 3500 
L 3597 3500 
L 2284 0 
L 1503 0 
L 191 3500 
z
" transform="scale(0.015625)"/>
     </defs>
     <use xlink:href="#DejaVuSans-4c"/>
     <use xlink:href="#DejaVuSans-65" transform="translate(53.962891 0)"/>
     <use xlink:href="#DejaVuSans-61" transform="translate(115.486328 0)"/>
     <use xlink:href="#DejaVuSans-72" transform="translate(176.765625 0)"/>
     <use xlink:href="#DejaVuSans-6e" transform="translate(216.128906 0)"/>
     <use xlink:href="#DejaVuSans-69" transform="translate(279.507812 0)"/>
     <use xlink:href="#DejaVuSans-6e" transform="translate(307.291016 0)"/>
     <use xlink:href="#DejaVuSans-67" transform="translate(370.669922 0)"/>
     <use xlink:href="#DejaVuSans-20" transform="translate(434.146484 0)"/>
     <use xlink:href="#DejaVuSans-63" transform="translate(465.933594 0)"/>
     <use xlink:href="#DejaVuSans-75" transform="translate(520.914062 0)"/>
     <use xlink:href="#DejaVuSans-72" transform="translate(584.292969 0)"/>
     <use xlink:href="#DejaVuSans-76" transform="translate(625.40625 0)"/>
     <use xlink:href="#DejaVuSans-65" transform="translate(684.585938 0)"/>
     <use xlink:href="#DejaVuSans-73" transform="translate(746.109375 0)"/>
    </g>
   </g>
   <g id="legend_1">
    <g id="patch_7">
     <path d="M 46.58149 393.64351 
L 139.87524 393.64351 
Q 141.87524 393.64351 141.87524 391.64351 
L 141.87524 347.77476 
Q 141.87524 345.77476 139.87524 345.77476 
L 46.58149 345.77476 
Q 44.58149 345.77476 44.58149 347.77476 
L 44.58149 391.64351 
Q 44.58149 393.64351 46.58149 393.64351 
z
" style="fill: #ffffff; opacity: 0.8; stroke: #cccccc; stroke-linejoin: miter"/>
    </g>
    <g id="line2d_28">
     <path d="M 48.58149 353.873198 
L 58.58149 353.873198 
L 68.58149 353.873198 
" style="fill: none; stroke: #1f77b4; stroke-width: 1.5; stroke-linecap: square"/>
    </g>
    <g id="text_16">
     <!-- MLP_mnist -->
     <g transform="translate(76.58149 357.373198) scale(0.1 -0.1)">
      <defs>
       <path id="DejaVuSans-4d" d="M 628 4666 
L 1569 4666 
L 2759 1491 
L 3956 4666 
L 4897 4666 
L 4897 0 
L 4281 0 
L 4281 4097 
L 3078 897 
L 2444 897 
L 1241 4097 
L 1241 0 
L 628 0 
L 628 4666 
z
" transform="scale(0.015625)"/>
       <path id="DejaVuSans-50" d="M 1259 4147 
L 1259 2394 
L 2053 2394 
Q 2494 2394 2734 2622 
Q 2975 2850 2975 3272 
Q 2975 3691 2734 3919 
Q 2494 4147 2053 4147 
L 1259 4147 
z
M 628 4666 
L 2053 4666 
Q 2838 4666 3239 4311 
Q 3641 3956 3641 3272 
Q 3641 2581 3239 2228 
Q 2838 1875 2053 1875 
L 1259 1875 
L 1259 0 
L 628 0 
L 628 4666 
z
" transform="scale(0.015625)"/>
       <path id="DejaVuSans-5f" d="M 3263 -1063 
L 3263 -1509 
L -63 -1509 
L -63 -1063 
L 3263 -1063 
z
" transform="scale(0.015625)"/>
       <path id="DejaVuSans-6d" d="M 3328 2828 
Q 3544 3216 3844 3400 
Q 4144 3584 4550 3584 
Q 5097 3584 5394 3201 
Q 5691 2819 5691 2113 
L 5691 0 
L 5113 0 
L 5113 2094 
Q 5113 2597 4934 2840 
Q 4756 3084 4391 3084 
Q 3944 3084 3684 2787 
Q 3425 2491 3425 1978 
L 3425 0 
L 2847 0 
L 2847 2094 
Q 2847 2600 2669 2842 
Q 2491 3084 2119 3084 
Q 1678 3084 1418 2786 
Q 1159 2488 1159 1978 
L 1159 0 
L 581 0 
L 581 3500 
L 1159 3500 
L 1159 2956 
Q 1356 3278 1631 3431 
Q 1906 3584 2284 3584 
Q 2666 3584 2933 3390 
Q 3200 3197 3328 2828 
z
" transform="scale(0.015625)"/>
      </defs>
      <use xlink:href="#DejaVuSans-4d"/>
      <use xlink:href="#DejaVuSans-4c" transform="translate(86.279297 0)"/>
      <use xlink:href="#DejaVuSans-50" transform="translate(141.992188 0)"/>
      <use xlink:href="#DejaVuSans-5f" transform="translate(202.294922 0)"/>
      <use xlink:href="#DejaVuSans-6d" transform="translate(252.294922 0)"/>
      <use xlink:href="#DejaVuSans-6e" transform="translate(349.707031 0)"/>
      <use xlink:href="#DejaVuSans-69" transform="translate(413.085938 0)"/>
      <use xlink:href="#DejaVuSans-73" transform="translate(440.869141 0)"/>
      <use xlink:href="#DejaVuSans-74" transform="translate(492.96875 0)"/>
     </g>
    </g>
    <g id="line2d_29">
     <path d="M 48.58149 368.829448 
L 58.58149 368.829448 
L 68.58149 368.829448 
" style="fill: none; stroke: #ff7f0e; stroke-width: 1.5; stroke-linecap: square"/>
    </g>
    <g id="text_17">
     <!-- CNN1_mnist -->
     <g transform="translate(76.58149 372.329448) scale(0.1 -0.1)">
      <defs>
       <path id="DejaVuSans-43" d="M 4122 4306 
L 4122 3641 
Q 3803 3938 3442 4084 
Q 3081 4231 2675 4231 
Q 1875 4231 1450 3742 
Q 1025 3253 1025 2328 
Q 1025 1406 1450 917 
Q 1875 428 2675 428 
Q 3081 428 3442 575 
Q 3803 722 4122 1019 
L 4122 359 
Q 3791 134 3420 21 
Q 3050 -91 2638 -91 
Q 1578 -91 968 557 
Q 359 1206 359 2328 
Q 359 3453 968 4101 
Q 1578 4750 2638 4750 
Q 3056 4750 3426 4639 
Q 3797 4528 4122 4306 
z
" transform="scale(0.015625)"/>
       <path id="DejaVuSans-4e" d="M 628 4666 
L 1478 4666 
L 3547 763 
L 3547 4666 
L 4159 4666 
L 4159 0 
L 3309 0 
L 1241 3903 
L 1241 0 
L 628 0 
L 628 4666 
z
" transform="scale(0.015625)"/>
      </defs>
      <use xlink:href="#DejaVuSans-43"/>
      <use xlink:href="#DejaVuSans-4e" transform="translate(69.824219 0)"/>
      <use xlink:href="#DejaVuSans-4e" transform="translate(144.628906 0)"/>
      <use xlink:href="#DejaVuSans-31" transform="translate(219.433594 0)"/>
      <use xlink:href="#DejaVuSans-5f" transform="translate(283.056641 0)"/>
      <use xlink:href="#DejaVuSans-6d" transform="translate(333.056641 0)"/>
      <use xlink:href="#DejaVuSans-6e" transform="translate(430.46875 0)"/>
      <use xlink:href="#DejaVuSans-69" transform="translate(493.847656 0)"/>
      <use xlink:href="#DejaVuSans-73" transform="translate(521.630859 0)"/>
      <use xlink:href="#DejaVuSans-74" transform="translate(573.730469 0)"/>
     </g>
    </g>
    <g id="line2d_30">
     <path d="M 48.58149 383.785698 
L 58.58149 383.785698 
L 68.58149 383.785698 
" style="fill: none; stroke: #2ca02c; stroke-width: 1.5; stroke-linecap: square"/>
    </g>
    <g id="text_18">
     <!-- CNN2_mnist -->
     <g transform="translate(76.58149 387.285698) scale(0.1 -0.1)">
      <use xlink:href="#DejaVuSans-43"/>
      <use xlink:href="#DejaVuSans-4e" transform="translate(69.824219 0)"/>
      <use xlink:href="#DejaVuSans-4e" transform="translate(144.628906 0)"/>
      <use xlink:href="#DejaVuSans-32" transform="translate(219.433594 0)"/>
      <use xlink:href="#DejaVuSans-5f" transform="translate(283.056641 0)"/>
      <use xlink:href="#DejaVuSans-6d" transform="translate(333.056641 0)"/>
      <use xlink:href="#DejaVuSans-6e" transform="translate(430.46875 0)"/>
      <use xlink:href="#DejaVuSans-69" transform="translate(493.847656 0)"/>
      <use xlink:href="#DejaVuSans-73" transform="translate(521.630859 0)"/>
      <use xlink:href="#DejaVuSans-74" transform="translate(573.730469 0)"/>
     </g>
    </g>
   </g>
  </g>
  <g id="axes_2">
   <g id="patch_8">
    <path d="M 472.90125 398.64351 
L 860.99976 398.64351 
L 860.99976 18.118365 
L 472.90125 18.118365 
z
" style="fill: #ffffff"/>
   </g>
   <g id="matplotlib.axis_3">
    <g id="xtick_7">
     <g id="line2d_31">
      <path d="M 472.90125 398.64351 
L 472.90125 18.118365 
" clip-path="url(#p07bb92887a)" style="fill: none; stroke-dasharray: 2.96,1.28; stroke-dashoffset: 0; stroke: #b0b0b0; stroke-opacity: 0.7; stroke-width: 0.8"/>
     </g>
     <g id="line2d_32">
      <g>
       <use xlink:href="#mef4165dfa4" x="472.90125" y="398.64351" style="stroke: #000000; stroke-width: 0.8"/>
      </g>
     </g>
     <g id="text_19">
      <!-- 0 -->
      <g transform="translate(469.72 413.241947) scale(0.1 -0.1)">
       <use xlink:href="#DejaVuSans-30"/>
      </g>
     </g>
    </g>
    <g id="xtick_8">
     <g id="line2d_33">
      <path d="M 546.972919 398.64351 
L 546.972919 18.118365 
" clip-path="url(#p07bb92887a)" style="fill: none; stroke-dasharray: 2.96,1.28; stroke-dashoffset: 0; stroke: #b0b0b0; stroke-opacity: 0.7; stroke-width: 0.8"/>
     </g>
     <g id="line2d_34">
      <g>
       <use xlink:href="#mef4165dfa4" x="546.972919" y="398.64351" style="stroke: #000000; stroke-width: 0.8"/>
      </g>
     </g>
     <g id="text_20">
      <!-- 100 -->
      <g transform="translate(537.429169 413.241947) scale(0.1 -0.1)">
       <use xlink:href="#DejaVuSans-31"/>
       <use xlink:href="#DejaVuSans-30" transform="translate(63.623047 0)"/>
       <use xlink:href="#DejaVuSans-30" transform="translate(127.246094 0)"/>
      </g>
     </g>
    </g>
    <g id="xtick_9">
     <g id="line2d_35">
      <path d="M 621.044588 398.64351 
L 621.044588 18.118365 
" clip-path="url(#p07bb92887a)" style="fill: none; stroke-dasharray: 2.96,1.28; stroke-dashoffset: 0; stroke: #b0b0b0; stroke-opacity: 0.7; stroke-width: 0.8"/>
     </g>
     <g id="line2d_36">
      <g>
       <use xlink:href="#mef4165dfa4" x="621.044588" y="398.64351" style="stroke: #000000; stroke-width: 0.8"/>
      </g>
     </g>
     <g id="text_21">
      <!-- 200 -->
      <g transform="translate(611.500838 413.241947) scale(0.1 -0.1)">
       <use xlink:href="#DejaVuSans-32"/>
       <use xlink:href="#DejaVuSans-30" transform="translate(63.623047 0)"/>
       <use xlink:href="#DejaVuSans-30" transform="translate(127.246094 0)"/>
      </g>
     </g>
    </g>
    <g id="xtick_10">
     <g id="line2d_37">
      <path d="M 695.116257 398.64351 
L 695.116257 18.118365 
" clip-path="url(#p07bb92887a)" style="fill: none; stroke-dasharray: 2.96,1.28; stroke-dashoffset: 0; stroke: #b0b0b0; stroke-opacity: 0.7; stroke-width: 0.8"/>
     </g>
     <g id="line2d_38">
      <g>
       <use xlink:href="#mef4165dfa4" x="695.116257" y="398.64351" style="stroke: #000000; stroke-width: 0.8"/>
      </g>
     </g>
     <g id="text_22">
      <!-- 300 -->
      <g transform="translate(685.572507 413.241947) scale(0.1 -0.1)">
       <use xlink:href="#DejaVuSans-33"/>
       <use xlink:href="#DejaVuSans-30" transform="translate(63.623047 0)"/>
       <use xlink:href="#DejaVuSans-30" transform="translate(127.246094 0)"/>
      </g>
     </g>
    </g>
    <g id="xtick_11">
     <g id="line2d_39">
      <path d="M 769.187926 398.64351 
L 769.187926 18.118365 
" clip-path="url(#p07bb92887a)" style="fill: none; stroke-dasharray: 2.96,1.28; stroke-dashoffset: 0; stroke: #b0b0b0; stroke-opacity: 0.7; stroke-width: 0.8"/>
     </g>
     <g id="line2d_40">
      <g>
       <use xlink:href="#mef4165dfa4" x="769.187926" y="398.64351" style="stroke: #000000; stroke-width: 0.8"/>
      </g>
     </g>
     <g id="text_23">
      <!-- 400 -->
      <g transform="translate(759.644176 413.241947) scale(0.1 -0.1)">
       <use xlink:href="#DejaVuSans-34"/>
       <use xlink:href="#DejaVuSans-30" transform="translate(63.623047 0)"/>
       <use xlink:href="#DejaVuSans-30" transform="translate(127.246094 0)"/>
      </g>
     </g>
    </g>
    <g id="xtick_12">
     <g id="line2d_41">
      <path d="M 843.259595 398.64351 
L 843.259595 18.118365 
" clip-path="url(#p07bb92887a)" style="fill: none; stroke-dasharray: 2.96,1.28; stroke-dashoffset: 0; stroke: #b0b0b0; stroke-opacity: 0.7; stroke-width: 0.8"/>
     </g>
     <g id="line2d_42">
      <g>
       <use xlink:href="#mef4165dfa4" x="843.259595" y="398.64351" style="stroke: #000000; stroke-width: 0.8"/>
      </g>
     </g>
     <g id="text_24">
      <!-- 500 -->
      <g transform="translate(833.715845 413.241947) scale(0.1 -0.1)">
       <use xlink:href="#DejaVuSans-35"/>
       <use xlink:href="#DejaVuSans-30" transform="translate(63.623047 0)"/>
       <use xlink:href="#DejaVuSans-30" transform="translate(127.246094 0)"/>
      </g>
     </g>
    </g>
    <g id="text_25">
     <!-- Steps -->
     <g transform="translate(652.960661 426.920073) scale(0.1 -0.1)">
      <use xlink:href="#DejaVuSans-53"/>
      <use xlink:href="#DejaVuSans-74" transform="translate(63.476562 0)"/>
      <use xlink:href="#DejaVuSans-65" transform="translate(102.685547 0)"/>
      <use xlink:href="#DejaVuSans-70" transform="translate(164.208984 0)"/>
      <use xlink:href="#DejaVuSans-73" transform="translate(227.685547 0)"/>
     </g>
    </g>
   </g>
   <g id="matplotlib.axis_4">
    <g id="ytick_7">
     <g id="line2d_43">
      <path d="M 472.90125 398.64351 
L 860.99976 398.64351 
" clip-path="url(#p07bb92887a)" style="fill: none; stroke-dasharray: 2.96,1.28; stroke-dashoffset: 0; stroke: #b0b0b0; stroke-opacity: 0.7; stroke-width: 0.8"/>
     </g>
     <g id="line2d_44">
      <g>
       <use xlink:href="#m11a539792f" x="472.90125" y="398.64351" style="stroke: #000000; stroke-width: 0.8"/>
      </g>
     </g>
     <g id="text_26">
      <!-- 0.0 -->
      <g transform="translate(449.998125 402.442729) scale(0.1 -0.1)">
       <use xlink:href="#DejaVuSans-30"/>
       <use xlink:href="#DejaVuSans-2e" transform="translate(63.623047 0)"/>
       <use xlink:href="#DejaVuSans-30" transform="translate(95.410156 0)"/>
      </g>
     </g>
    </g>
    <g id="ytick_8">
     <g id="line2d_45">
      <path d="M 472.90125 325.765647 
L 860.99976 325.765647 
" clip-path="url(#p07bb92887a)" style="fill: none; stroke-dasharray: 2.96,1.28; stroke-dashoffset: 0; stroke: #b0b0b0; stroke-opacity: 0.7; stroke-width: 0.8"/>
     </g>
     <g id="line2d_46">
      <g>
       <use xlink:href="#m11a539792f" x="472.90125" y="325.765647" style="stroke: #000000; stroke-width: 0.8"/>
      </g>
     </g>
     <g id="text_27">
      <!-- 0.2 -->
      <g transform="translate(449.998125 329.564865) scale(0.1 -0.1)">
       <use xlink:href="#DejaVuSans-30"/>
       <use xlink:href="#DejaVuSans-2e" transform="translate(63.623047 0)"/>
       <use xlink:href="#DejaVuSans-32" transform="translate(95.410156 0)"/>
      </g>
     </g>
    </g>
    <g id="ytick_9">
     <g id="line2d_47">
      <path d="M 472.90125 252.887783 
L 860.99976 252.887783 
" clip-path="url(#p07bb92887a)" style="fill: none; stroke-dasharray: 2.96,1.28; stroke-dashoffset: 0; stroke: #b0b0b0; stroke-opacity: 0.7; stroke-width: 0.8"/>
     </g>
     <g id="line2d_48">
      <g>
       <use xlink:href="#m11a539792f" x="472.90125" y="252.887783" style="stroke: #000000; stroke-width: 0.8"/>
      </g>
     </g>
     <g id="text_28">
      <!-- 0.4 -->
      <g transform="translate(449.998125 256.687002) scale(0.1 -0.1)">
       <use xlink:href="#DejaVuSans-30"/>
       <use xlink:href="#DejaVuSans-2e" transform="translate(63.623047 0)"/>
       <use xlink:href="#DejaVuSans-34" transform="translate(95.410156 0)"/>
      </g>
     </g>
    </g>
    <g id="ytick_10">
     <g id="line2d_49">
      <path d="M 472.90125 180.00992 
L 860.99976 180.00992 
" clip-path="url(#p07bb92887a)" style="fill: none; stroke-dasharray: 2.96,1.28; stroke-dashoffset: 0; stroke: #b0b0b0; stroke-opacity: 0.7; stroke-width: 0.8"/>
     </g>
     <g id="line2d_50">
      <g>
       <use xlink:href="#m11a539792f" x="472.90125" y="180.00992" style="stroke: #000000; stroke-width: 0.8"/>
      </g>
     </g>
     <g id="text_29">
      <!-- 0.6 -->
      <g transform="translate(449.998125 183.809139) scale(0.1 -0.1)">
       <use xlink:href="#DejaVuSans-30"/>
       <use xlink:href="#DejaVuSans-2e" transform="translate(63.623047 0)"/>
       <use xlink:href="#DejaVuSans-36" transform="translate(95.410156 0)"/>
      </g>
     </g>
    </g>
    <g id="ytick_11">
     <g id="line2d_51">
      <path d="M 472.90125 107.132057 
L 860.99976 107.132057 
" clip-path="url(#p07bb92887a)" style="fill: none; stroke-dasharray: 2.96,1.28; stroke-dashoffset: 0; stroke: #b0b0b0; stroke-opacity: 0.7; stroke-width: 0.8"/>
     </g>
     <g id="line2d_52">
      <g>
       <use xlink:href="#m11a539792f" x="472.90125" y="107.132057" style="stroke: #000000; stroke-width: 0.8"/>
      </g>
     </g>
     <g id="text_30">
      <!-- 0.8 -->
      <g transform="translate(449.998125 110.931275) scale(0.1 -0.1)">
       <use xlink:href="#DejaVuSans-30"/>
       <use xlink:href="#DejaVuSans-2e" transform="translate(63.623047 0)"/>
       <use xlink:href="#DejaVuSans-38" transform="translate(95.410156 0)"/>
      </g>
     </g>
    </g>
    <g id="ytick_12">
     <g id="line2d_53">
      <path d="M 472.90125 34.254193 
L 860.99976 34.254193 
" clip-path="url(#p07bb92887a)" style="fill: none; stroke-dasharray: 2.96,1.28; stroke-dashoffset: 0; stroke: #b0b0b0; stroke-opacity: 0.7; stroke-width: 0.8"/>
     </g>
     <g id="line2d_54">
      <g>
       <use xlink:href="#m11a539792f" x="472.90125" y="34.254193" style="stroke: #000000; stroke-width: 0.8"/>
      </g>
     </g>
     <g id="text_31">
      <!-- 1.0 -->
      <g transform="translate(449.998125 38.053412) scale(0.1 -0.1)">
       <use xlink:href="#DejaVuSans-31"/>
       <use xlink:href="#DejaVuSans-2e" transform="translate(63.623047 0)"/>
       <use xlink:href="#DejaVuSans-30" transform="translate(95.410156 0)"/>
      </g>
     </g>
    </g>
    <g id="text_32">
     <!-- Accuracy -->
     <g transform="translate(443.918437 231.209062) rotate(-90) scale(0.1 -0.1)">
      <use xlink:href="#DejaVuSans-41"/>
      <use xlink:href="#DejaVuSans-63" transform="translate(66.658203 0)"/>
      <use xlink:href="#DejaVuSans-63" transform="translate(121.638672 0)"/>
      <use xlink:href="#DejaVuSans-75" transform="translate(176.619141 0)"/>
      <use xlink:href="#DejaVuSans-72" transform="translate(239.998047 0)"/>
      <use xlink:href="#DejaVuSans-61" transform="translate(281.111328 0)"/>
      <use xlink:href="#DejaVuSans-63" transform="translate(342.390625 0)"/>
      <use xlink:href="#DejaVuSans-79" transform="translate(397.371094 0)"/>
     </g>
    </g>
   </g>
   <g id="line2d_55">
    <path d="M 472.90125 367.870771 
L 475.1234 316.04715 
L 475.864117 300.368185 
L 476.604833 277.918456 
L 478.086267 251.03758 
L 479.5677 230.757394 
L 481.049134 213.648096 
L 482.530567 198.589857 
L 484.012 185.617394 
L 485.493434 174.875643 
L 486.974867 165.595749 
L 487.715584 167.599578 
L 488.456301 161.534139 
L 489.197017 149.261477 
L 490.678451 114.579117 
L 492.159884 81.522784 
L 492.900601 71.108127 
L 493.641317 67.452768 
L 494.382034 73.073009 
L 495.863467 72.916941 
L 497.344901 72.489433 
L 498.826334 71.882169 
L 501.789201 70.264517 
L 503.270634 69.79491 
L 504.752068 69.359891 
L 506.233501 68.620728 
L 506.974218 68.931403 
L 507.714934 68.432045 
L 508.455651 67.555265 
L 512.159235 61.079753 
L 512.899951 60.54697 
L 513.640668 60.810268 
L 514.381385 60.344834 
L 515.862818 59.793988 
L 521.047835 59.346076 
L 524.010702 58.78139 
L 524.751418 59.30286 
L 525.492135 58.79107 
L 527.714285 55.610739 
L 528.455002 54.998426 
L 529.195718 54.729745 
L 529.936435 54.822634 
L 530.677152 55.407004 
L 531.417869 56.41503 
L 532.158585 56.209833 
L 532.899302 55.873046 
L 534.380735 55.503742 
L 538.084319 55.34597 
L 540.306469 55.084347 
L 542.528619 54.822558 
L 543.269336 55.74549 
L 544.010052 54.49308 
L 544.750769 53.015446 
L 545.491486 51.912501 
L 546.232202 51.207416 
L 546.972919 50.744262 
L 547.713636 50.726122 
L 548.454352 51.154455 
L 549.195069 52.078802 
L 549.935786 53.599456 
L 550.676503 52.894567 
L 551.417219 52.651441 
L 552.898653 52.687204 
L 555.120803 52.271184 
L 557.342953 52.026152 
L 558.824386 51.95409 
L 561.787253 51.954243 
L 563.268686 51.760804 
L 566.97227 51.369649 
L 570.675853 50.610359 
L 572.157287 50.589813 
L 574.379437 50.771572 
L 577.342303 50.903795 
L 579.564453 50.68377 
L 580.30517 51.030547 
L 581.786604 49.997194 
L 584.008754 48.772038 
L 584.74947 48.574273 
L 585.490187 48.660793 
L 586.230904 48.995915 
L 586.97162 49.651595 
L 587.712337 49.410249 
L 588.453054 49.529438 
L 589.19377 49.534109 
L 592.156637 49.134097 
L 593.638071 49.128572 
L 598.082371 49.469936 
L 598.823087 50.802892 
L 599.563804 49.029457 
L 600.304521 47.562688 
L 601.045237 46.430688 
L 601.785954 45.568025 
L 602.526671 45.138673 
L 603.267388 45.19893 
L 604.008104 45.832528 
L 604.748821 47.071682 
L 605.489538 48.982094 
L 606.230254 47.896515 
L 607.711688 48.158593 
L 609.193121 48.222817 
L 612.155988 48.381375 
L 615.118855 48.239035 
L 616.600288 48.180834 
L 617.341005 48.602921 
L 618.822438 47.346635 
L 619.563155 46.929657 
L 620.303871 46.726429 
L 621.044588 46.723835 
L 621.785305 46.860118 
L 622.526021 47.118824 
L 623.266738 47.503061 
L 624.007455 48.087102 
L 624.748172 47.637925 
L 626.229605 47.501853 
L 629.192472 47.617468 
L 630.673905 47.551049 
L 632.896055 47.505745 
L 635.118205 47.359472 
L 635.858922 47.709875 
L 636.599639 47.373187 
L 639.562505 45.000635 
L 640.303222 44.653864 
L 641.043939 44.504734 
L 641.784655 44.710391 
L 642.525372 45.350119 
L 644.006806 45.420097 
L 645.488239 45.68658 
L 646.969672 45.787401 
L 648.451106 45.803945 
L 652.895406 46.141605 
L 653.636122 46.141454 
L 654.376839 46.694371 
L 655.858273 45.377041 
L 657.339706 44.647178 
L 658.080423 44.568422 
L 658.821139 44.70192 
L 659.561856 45.083972 
L 660.302573 45.677728 
L 661.043289 46.464715 
L 661.784006 45.966949 
L 668.450456 45.782384 
L 676.59834 46.239899 
L 679.561207 46.412961 
L 681.04264 46.268533 
L 682.524073 46.259661 
L 686.227657 46.363709 
L 692.15339 46.18749 
L 692.894107 45.987822 
L 694.37554 45.381639 
L 695.856974 45.042713 
L 696.597691 45.005063 
L 697.338407 45.079973 
L 699.560557 45.747576 
L 702.523424 45.803744 
L 704.745574 45.59235 
L 709.189874 45.29551 
L 709.930591 45.453723 
L 711.412024 44.953854 
L 713.634174 44.365514 
L 715.115608 44.158246 
L 715.856324 44.206054 
L 716.597041 44.41422 
L 717.337758 44.22175 
L 719.559908 44.250095 
L 723.263491 44.305722 
L 727.707792 44.782433 
L 728.448508 45.5578 
L 729.929942 43.961987 
L 730.670658 43.396467 
L 731.411375 43.098562 
L 732.152092 42.999644 
L 732.892808 43.153158 
L 733.633525 43.533245 
L 734.374242 44.147315 
L 735.114958 45.040372 
L 735.855675 44.352782 
L 737.337109 44.299968 
L 741.040692 44.716428 
L 743.262842 44.650728 
L 746.225709 44.459462 
L 746.966425 43.85989 
L 748.447859 45.39649 
L 749.188576 45.927483 
L 749.929292 46.186007 
L 750.670009 46.253262 
L 751.410726 46.099865 
L 752.151442 45.782514 
L 752.892159 45.22965 
L 753.632876 44.381386 
L 754.373592 44.917582 
L 755.114309 45.004383 
L 757.336459 44.813877 
L 762.521476 44.392577 
L 764.743626 44.380234 
L 765.484343 44.2579 
L 766.965776 44.586819 
L 768.44721 44.548954 
L 769.928643 44.089457 
L 772.150793 42.93754 
L 775.854376 42.913959 
L 779.55796 43.357511 
L 782.520827 43.466051 
L 784.00226 43.555158 
L 784.742977 43.285288 
L 785.483693 43.329208 
L 788.44656 44.392527 
L 789.187277 44.429085 
L 789.927994 44.300867 
L 790.66871 44.056479 
L 791.409427 43.507413 
L 792.89086 43.292303 
L 795.11301 43.483956 
L 798.075877 43.799206 
L 801.779461 43.785992 
L 802.520177 44.124968 
L 804.001611 43.204693 
L 804.742327 43.022566 
L 805.483044 42.990323 
L 806.223761 43.189997 
L 807.705194 44.055268 
L 809.186627 45.079315 
L 809.927344 44.623818 
L 812.149494 43.983823 
L 813.630928 43.862912 
L 820.297378 43.870816 
L 821.038095 43.015035 
L 821.778811 44.48133 
L 822.519528 45.339451 
L 823.260245 45.736624 
L 824.000961 45.846281 
L 824.741678 45.561443 
L 825.482395 44.972348 
L 826.223111 44.129514 
L 826.963828 43.091343 
L 827.704545 41.849698 
L 828.445261 42.974657 
L 829.926695 42.998994 
L 831.408128 43.173267 
L 833.630278 43.1516 
L 836.593145 43.032506 
L 841.037445 43.276348 
L 842.518879 43.415055 
L 842.518879 43.415055 
" clip-path="url(#p07bb92887a)" style="fill: none; stroke: #1f77b4; stroke-width: 1.5; stroke-linecap: square"/>
   </g>
   <g id="line2d_56">
    <path d="M 472.90125 377.004648 
L 474.382683 299.996889 
L 476.604833 196.542437 
L 477.34555 174.865264 
L 478.086267 157.08288 
L 478.826984 144.331229 
L 479.5677 134.62167 
L 480.308417 126.648458 
L 481.78985 114.331515 
L 483.271284 105.106552 
L 484.752717 97.886381 
L 486.23415 92.053628 
L 486.974867 89.494382 
L 487.715584 90.851256 
L 488.456301 87.152138 
L 489.197017 80.203581 
L 492.159884 44.530395 
L 492.900601 39.595161 
L 493.641317 38.434734 
L 494.382034 42.289343 
L 501.789201 41.243806 
L 505.492784 41.124515 
L 506.233501 40.88394 
L 507.714934 41.262704 
L 508.455651 41.266408 
L 509.196368 41.149255 
L 510.677801 40.553129 
L 512.899951 39.366515 
L 513.640668 39.454203 
L 516.603535 39.080174 
L 518.084968 39.098851 
L 522.529268 39.274393 
L 527.714285 39.304591 
L 531.417869 38.733902 
L 532.899302 38.695955 
L 535.121452 38.460288 
L 540.306469 38.68021 
L 542.528619 38.788974 
L 543.269336 39.199398 
L 544.010052 38.597302 
L 545.491486 38.00531 
L 546.972919 37.88868 
L 548.454352 38.058864 
L 549.195069 38.291248 
L 549.935786 38.658758 
L 550.676503 38.089208 
L 552.898653 38.108999 
L 555.861519 38.104639 
L 559.565103 38.072032 
L 561.046536 38.094515 
L 561.787253 38.440991 
L 563.268686 37.670256 
L 564.75012 37.095521 
L 565.490836 36.968897 
L 566.231553 36.989064 
L 566.97227 37.140076 
L 567.712986 37.444361 
L 568.453703 37.915997 
L 569.19442 37.628731 
L 570.675853 37.637979 
L 572.898003 37.636119 
L 578.08302 37.730869 
L 579.564453 37.718637 
L 580.30517 37.03253 
L 581.045887 38.088269 
L 581.786604 38.810656 
L 582.52732 39.254058 
L 583.268037 39.379624 
L 584.008754 39.173738 
L 584.74947 38.749347 
L 585.490187 38.136794 
L 586.97162 36.420836 
L 587.712337 37.265219 
L 589.934487 37.47246 
L 592.897354 37.385831 
L 600.304521 37.511496 
L 602.526671 37.145476 
L 604.008104 37.089091 
L 607.711688 37.119628 
L 610.674554 37.123264 
L 615.118855 37.141979 
L 619.563155 37.137473 
L 622.526021 37.543775 
L 624.007455 37.456004 
L 625.488888 37.169502 
L 629.192472 36.998536 
L 635.118205 36.969073 
L 635.858922 37.179817 
L 636.599639 36.953193 
L 638.081072 36.26972 
L 639.562505 35.91045 
L 640.303222 35.895094 
L 641.043939 36.04419 
L 641.784655 36.335274 
L 642.525372 36.789192 
L 644.006806 36.718879 
L 646.228956 36.864537 
L 653.636122 36.990723 
L 654.376839 37.225608 
L 657.339706 36.176233 
L 658.821139 35.945221 
L 659.561856 35.940732 
L 660.302573 36.083535 
L 661.043289 36.367808 
L 661.784006 36.170977 
L 663.265439 36.17733 
L 672.15404 36.743079 
L 672.894756 36.707566 
L 673.635473 36.830888 
L 675.116907 36.702822 
L 678.079773 36.356026 
L 679.561207 36.326885 
L 680.301923 36.481252 
L 682.524073 36.502889 
L 689.190524 36.688606 
L 690.671957 36.661684 
L 691.412674 36.857113 
L 692.894107 36.305756 
L 694.37554 36.100774 
L 695.856974 36.149532 
L 697.338407 36.481241 
L 698.079124 36.753316 
L 698.819841 36.516325 
L 700.301274 36.441157 
L 704.745574 36.555479 
L 707.708441 36.68304 
L 709.189874 36.664244 
L 709.930591 36.864119 
L 712.893458 35.982673 
L 714.374891 36.16815 
L 715.856324 36.63475 
L 716.597041 36.962769 
L 718.078475 36.610844 
L 719.559908 36.506799 
L 727.707792 36.497542 
L 728.448508 36.68981 
L 729.189225 36.369873 
L 730.670658 36.103223 
L 732.152092 36.197622 
L 734.374242 36.672984 
L 735.114958 36.868743 
L 735.855675 36.53148 
L 738.818542 36.257764 
L 743.262842 36.233266 
L 746.225709 36.219896 
L 746.966425 36.391735 
L 751.410726 35.383262 
L 752.151442 35.479591 
L 752.892159 35.70947 
L 753.632876 36.089936 
L 755.114309 36.211873 
L 757.336459 36.302876 
L 760.299326 36.234598 
L 763.262193 36.258063 
L 764.743626 36.295896 
L 765.484343 35.996715 
L 766.225059 36.482122 
L 766.965776 36.80432 
L 768.44721 37.120928 
L 769.187926 37.133378 
L 769.928643 37.018539 
L 770.66936 36.786011 
L 772.150793 35.950291 
L 772.89151 36.242654 
L 774.372943 36.147454 
L 783.261543 36.24693 
L 784.00226 36.156353 
L 785.483693 36.330914 
L 787.705843 36.692773 
L 789.187277 36.640547 
L 792.150144 36.205029 
L 795.11301 36.14047 
L 801.779461 36.186329 
L 802.520177 36.358666 
L 804.001611 35.966878 
L 806.223761 35.626789 
L 807.705194 35.666754 
L 809.186627 35.975595 
L 809.927344 35.790836 
L 815.112361 35.997535 
L 820.297378 35.992426 
L 821.038095 35.894043 
L 823.260245 36.209448 
L 825.482395 36.149487 
L 828.445261 35.992624 
L 832.148845 36.207053 
L 835.111712 36.211043 
L 842.518879 36.187635 
L 842.518879 36.187635 
" clip-path="url(#p07bb92887a)" style="fill: none; stroke: #ff7f0e; stroke-width: 1.5; stroke-linecap: square"/>
   </g>
   <g id="line2d_57">
    <path d="M 472.90125 373.803665 
L 474.382683 269.211711 
L 475.1234 226.91456 
L 475.864117 191.283294 
L 476.604833 149.250214 
L 477.34555 132.275051 
L 478.086267 121.536408 
L 478.826984 113.506058 
L 479.5677 106.694851 
L 480.308417 100.997792 
L 481.78985 92.259934 
L 483.271284 85.790983 
L 484.752717 80.667289 
L 486.23415 76.495332 
L 486.974867 74.653098 
L 487.715584 75.582861 
L 488.456301 72.973871 
L 489.197017 68.112993 
L 492.159884 43.177116 
L 492.900601 39.635595 
L 493.641317 38.726151 
L 494.382034 41.338088 
L 495.863467 41.123029 
L 501.789201 40.611133 
L 505.492784 40.382656 
L 506.233501 40.576616 
L 507.714934 39.888089 
L 509.196368 39.110741 
L 510.677801 38.637687 
L 511.418518 38.61347 
L 512.159235 38.796817 
L 512.899951 39.183589 
L 515.122101 38.845232 
L 517.344251 38.612059 
L 519.566402 38.660283 
L 523.269985 38.768712 
L 524.010702 38.781085 
L 524.751418 38.668432 
L 525.492135 38.856379 
L 526.973568 38.920596 
L 529.195718 38.568842 
L 531.417869 38.200661 
L 532.158585 38.369823 
L 533.640019 38.2889 
L 535.121452 38.14908 
L 538.825035 38.274971 
L 541.047186 38.371683 
L 542.528619 38.386702 
L 543.269336 38.742304 
L 544.010052 38.219523 
L 545.491486 37.622023 
L 546.972919 37.423801 
L 548.454352 37.535982 
L 549.195069 37.733128 
L 549.935786 38.051657 
L 550.676503 37.544025 
L 552.157936 37.506489 
L 555.861519 37.722264 
L 558.083669 37.680472 
L 561.046536 37.791569 
L 561.787253 37.618836 
L 563.268686 38.107803 
L 564.75012 38.25546 
L 566.231553 37.998827 
L 567.712986 37.433377 
L 568.453703 37.067849 
L 569.19442 37.193783 
L 572.157287 37.126462 
L 579.564453 37.284439 
L 580.30517 36.825098 
L 581.045887 37.607757 
L 581.786604 38.052284 
L 582.52732 38.32435 
L 583.268037 38.401112 
L 584.008754 38.237777 
L 584.74947 37.913944 
L 586.230904 36.899195 
L 586.97162 36.268127 
L 587.712337 36.884893 
L 598.082371 37.100423 
L 598.823087 37.339837 
L 600.304521 36.740657 
L 601.785954 36.388941 
L 603.267388 36.219418 
L 604.008104 36.254336 
L 604.748821 36.402203 
L 605.489538 36.695328 
L 606.230254 36.462765 
L 609.933838 36.624212 
L 619.563155 36.772814 
L 623.266738 36.383434 
L 624.007455 36.402664 
L 624.748172 36.554858 
L 635.118205 36.522676 
L 635.858922 36.705458 
L 638.081072 35.990563 
L 639.562505 35.868548 
L 641.043939 36.101011 
L 642.525372 36.62748 
L 643.266089 36.482327 
L 644.747522 36.466522 
L 649.191822 36.651242 
L 653.636122 36.704446 
L 654.376839 36.896516 
L 657.339706 35.963473 
L 658.821139 35.853065 
L 660.302573 36.041887 
L 661.043289 36.29484 
L 661.784006 36.106808 
L 664.006156 36.122947 
L 670.672606 36.332159 
L 675.116907 36.387585 
L 677.339057 36.116851 
L 679.561207 36.055041 
L 680.301923 36.287663 
L 682.524073 36.298956 
L 686.227657 36.422503 
L 691.412674 36.579612 
L 692.894107 36.065422 
L 694.37554 35.874132 
L 695.856974 35.992915 
L 697.338407 36.370853 
L 698.079124 36.622193 
L 698.819841 36.394533 
L 700.301274 36.227904 
L 702.523424 36.173165 
L 707.708441 36.383136 
L 709.189874 36.360674 
L 709.930591 36.538291 
L 712.893458 35.771 
L 714.374891 35.871706 
L 715.856324 36.237854 
L 716.597041 36.526547 
L 718.078475 36.264889 
L 720.300625 36.166585 
L 727.707792 36.246414 
L 728.448508 36.43864 
L 729.189225 36.175438 
L 731.411375 35.857623 
L 732.892808 35.901281 
L 734.374242 36.122955 
L 735.114958 36.332717 
L 735.855675 36.114463 
L 738.077825 36.109472 
L 746.225709 36.059231 
L 746.966425 36.232185 
L 748.447859 35.876334 
L 750.670009 35.275499 
L 751.410726 35.208188 
L 752.151442 35.280871 
L 752.892159 35.467295 
L 753.632876 35.792992 
L 764.002909 35.88902 
L 769.187926 36.076511 
L 772.89151 35.884827 
L 775.854376 35.768089 
L 781.78011 35.912665 
L 784.742977 35.87179 
L 786.965127 36.342601 
L 788.44656 36.485694 
L 789.927994 36.287456 
L 790.66871 36.052263 
L 794.372294 35.922661 
L 798.816594 35.907543 
L 804.001611 36.1868 
L 805.483044 36.179472 
L 807.705194 35.878763 
L 809.186627 35.556324 
L 810.668061 35.695142 
L 815.853078 35.888107 
L 820.297378 35.877859 
L 821.038095 35.533859 
L 822.519528 36.441275 
L 823.260245 36.738804 
L 824.000961 36.869993 
L 824.741678 36.849428 
L 825.482395 36.700256 
L 826.223111 36.428817 
L 826.963828 36.016016 
L 827.704545 35.444538 
L 828.445261 35.760311 
L 831.408128 35.933281 
L 834.370995 36.003374 
L 842.518879 36.049552 
L 842.518879 36.049552 
" clip-path="url(#p07bb92887a)" style="fill: none; stroke: #2ca02c; stroke-width: 1.5; stroke-linecap: square"/>
   </g>
   <g id="patch_9">
    <path d="M 472.90125 398.64351 
L 472.90125 18.118365 
" style="fill: none; stroke: #000000; stroke-width: 0.8; stroke-linejoin: miter; stroke-linecap: square"/>
   </g>
   <g id="patch_10">
    <path d="M 860.99976 398.64351 
L 860.99976 18.118365 
" style="fill: none; stroke: #000000; stroke-width: 0.8; stroke-linejoin: miter; stroke-linecap: square"/>
   </g>
   <g id="patch_11">
    <path d="M 472.90125 398.64351 
L 860.99976 398.64351 
" style="fill: none; stroke: #000000; stroke-width: 0.8; stroke-linejoin: miter; stroke-linecap: square"/>
   </g>
   <g id="patch_12">
    <path d="M 472.90125 18.118365 
L 860.99976 18.118365 
" style="fill: none; stroke: #000000; stroke-width: 0.8; stroke-linejoin: miter; stroke-linecap: square"/>
   </g>
   <g id="text_33">
    <!-- Validation curves -->
    <g transform="translate(615.478005 12.118365) scale(0.12 -0.12)">
     <defs>
      <path id="DejaVuSans-56" d="M 1831 0 
L 50 4666 
L 709 4666 
L 2188 738 
L 3669 4666 
L 4325 4666 
L 2547 0 
L 1831 0 
z
" transform="scale(0.015625)"/>
      <path id="DejaVuSans-6c" d="M 603 4863 
L 1178 4863 
L 1178 0 
L 603 0 
L 603 4863 
z
" transform="scale(0.015625)"/>
      <path id="DejaVuSans-64" d="M 2906 2969 
L 2906 4863 
L 3481 4863 
L 3481 0 
L 2906 0 
L 2906 525 
Q 2725 213 2448 61 
Q 2172 -91 1784 -91 
Q 1150 -91 751 415 
Q 353 922 353 1747 
Q 353 2572 751 3078 
Q 1150 3584 1784 3584 
Q 2172 3584 2448 3432 
Q 2725 3281 2906 2969 
z
M 947 1747 
Q 947 1113 1208 752 
Q 1469 391 1925 391 
Q 2381 391 2643 752 
Q 2906 1113 2906 1747 
Q 2906 2381 2643 2742 
Q 2381 3103 1925 3103 
Q 1469 3103 1208 2742 
Q 947 2381 947 1747 
z
" transform="scale(0.015625)"/>
      <path id="DejaVuSans-6f" d="M 1959 3097 
Q 1497 3097 1228 2736 
Q 959 2375 959 1747 
Q 959 1119 1226 758 
Q 1494 397 1959 397 
Q 2419 397 2687 759 
Q 2956 1122 2956 1747 
Q 2956 2369 2687 2733 
Q 2419 3097 1959 3097 
z
M 1959 3584 
Q 2709 3584 3137 3096 
Q 3566 2609 3566 1747 
Q 3566 888 3137 398 
Q 2709 -91 1959 -91 
Q 1206 -91 779 398 
Q 353 888 353 1747 
Q 353 2609 779 3096 
Q 1206 3584 1959 3584 
z
" transform="scale(0.015625)"/>
     </defs>
     <use xlink:href="#DejaVuSans-56"/>
     <use xlink:href="#DejaVuSans-61" transform="translate(60.658203 0)"/>
     <use xlink:href="#DejaVuSans-6c" transform="translate(121.9375 0)"/>
     <use xlink:href="#DejaVuSans-69" transform="translate(149.720703 0)"/>
     <use xlink:href="#DejaVuSans-64" transform="translate(177.503906 0)"/>
     <use xlink:href="#DejaVuSans-61" transform="translate(240.980469 0)"/>
     <use xlink:href="#DejaVuSans-74" transform="translate(302.259766 0)"/>
     <use xlink:href="#DejaVuSans-69" transform="translate(341.46875 0)"/>
     <use xlink:href="#DejaVuSans-6f" transform="translate(369.251953 0)"/>
     <use xlink:href="#DejaVuSans-6e" transform="translate(430.433594 0)"/>
     <use xlink:href="#DejaVuSans-20" transform="translate(493.8125 0)"/>
     <use xlink:href="#DejaVuSans-63" transform="translate(525.599609 0)"/>
     <use xlink:href="#DejaVuSans-75" transform="translate(580.580078 0)"/>
     <use xlink:href="#DejaVuSans-72" transform="translate(643.958984 0)"/>
     <use xlink:href="#DejaVuSans-76" transform="translate(685.072266 0)"/>
     <use xlink:href="#DejaVuSans-65" transform="translate(744.251953 0)"/>
     <use xlink:href="#DejaVuSans-73" transform="translate(805.775391 0)"/>
    </g>
   </g>
   <g id="legend_2">
    <g id="patch_13">
     <path d="M 479.90125 393.64351 
L 573.195 393.64351 
Q 575.195 393.64351 575.195 391.64351 
L 575.195 347.77476 
Q 575.195 345.77476 573.195 345.77476 
L 479.90125 345.77476 
Q 477.90125 345.77476 477.90125 347.77476 
L 477.90125 391.64351 
Q 477.90125 393.64351 479.90125 393.64351 
z
" style="fill: #ffffff; opacity: 0.8; stroke: #cccccc; stroke-linejoin: miter"/>
    </g>
    <g id="line2d_58">
     <path d="M 481.90125 353.873198 
L 491.90125 353.873198 
L 501.90125 353.873198 
" style="fill: none; stroke: #1f77b4; stroke-width: 1.5; stroke-linecap: square"/>
    </g>
    <g id="text_34">
     <!-- MLP_mnist -->
     <g transform="translate(509.90125 357.373198) scale(0.1 -0.1)">
      <use xlink:href="#DejaVuSans-4d"/>
      <use xlink:href="#DejaVuSans-4c" transform="translate(86.279297 0)"/>
      <use xlink:href="#DejaVuSans-50" transform="translate(141.992188 0)"/>
      <use xlink:href="#DejaVuSans-5f" transform="translate(202.294922 0)"/>
      <use xlink:href="#DejaVuSans-6d" transform="translate(252.294922 0)"/>
      <use xlink:href="#DejaVuSans-6e" transform="translate(349.707031 0)"/>
      <use xlink:href="#DejaVuSans-69" transform="translate(413.085938 0)"/>
      <use xlink:href="#DejaVuSans-73" transform="translate(440.869141 0)"/>
      <use xlink:href="#DejaVuSans-74" transform="translate(492.96875 0)"/>
     </g>
    </g>
    <g id="line2d_59">
     <path d="M 481.90125 368.829448 
L 491.90125 368.829448 
L 501.90125 368.829448 
" style="fill: none; stroke: #ff7f0e; stroke-width: 1.5; stroke-linecap: square"/>
    </g>
    <g id="text_35">
     <!-- CNN1_mnist -->
     <g transform="translate(509.90125 372.329448) scale(0.1 -0.1)">
      <use xlink:href="#DejaVuSans-43"/>
      <use xlink:href="#DejaVuSans-4e" transform="translate(69.824219 0)"/>
      <use xlink:href="#DejaVuSans-4e" transform="translate(144.628906 0)"/>
      <use xlink:href="#DejaVuSans-31" transform="translate(219.433594 0)"/>
      <use xlink:href="#DejaVuSans-5f" transform="translate(283.056641 0)"/>
      <use xlink:href="#DejaVuSans-6d" transform="translate(333.056641 0)"/>
      <use xlink:href="#DejaVuSans-6e" transform="translate(430.46875 0)"/>
      <use xlink:href="#DejaVuSans-69" transform="translate(493.847656 0)"/>
      <use xlink:href="#DejaVuSans-73" transform="translate(521.630859 0)"/>
      <use xlink:href="#DejaVuSans-74" transform="translate(573.730469 0)"/>
     </g>
    </g>
    <g id="line2d_60">
     <path d="M 481.90125 383.785698 
L 491.90125 383.785698 
L 501.90125 383.785698 
" style="fill: none; stroke: #2ca02c; stroke-width: 1.5; stroke-linecap: square"/>
    </g>
    <g id="text_36">
     <!-- CNN2_mnist -->
     <g transform="translate(509.90125 387.285698) scale(0.1 -0.1)">
      <use xlink:href="#DejaVuSans-43"/>
      <use xlink:href="#DejaVuSans-4e" transform="translate(69.824219 0)"/>
      <use xlink:href="#DejaVuSans-4e" transform="translate(144.628906 0)"/>
      <use xlink:href="#DejaVuSans-32" transform="translate(219.433594 0)"/>
      <use xlink:href="#DejaVuSans-5f" transform="translate(283.056641 0)"/>
      <use xlink:href="#DejaVuSans-6d" transform="translate(333.056641 0)"/>
      <use xlink:href="#DejaVuSans-6e" transform="translate(430.46875 0)"/>
      <use xlink:href="#DejaVuSans-69" transform="translate(493.847656 0)"/>
      <use xlink:href="#DejaVuSans-73" transform="translate(521.630859 0)"/>
      <use xlink:href="#DejaVuSans-74" transform="translate(573.730469 0)"/>
     </g>
    </g>
   </g>
  </g>
 </g>
 <defs>
  <clipPath id="p9f62a2a107">
   <rect x="39.58149" y="18.118365" width="388.09851" height="380.525145"/>
  </clipPath>
  <clipPath id="p07bb92887a">
   <rect x="472.90125" y="18.118365" width="388.09851" height="380.525145"/>
  </clipPath>
 </defs>
</svg>
