<?xml version="1.0" encoding="utf-8" standalone="no"?>
<!DOCTYPE svg PUBLIC "-//W3C//DTD SVG 1.1//EN"
  "http://www.w3.org/Graphics/SVG/1.1/DTD/svg11.dtd">
<svg xmlns:xlink="http://www.w3.org/1999/xlink" width="576pt" height="288pt" viewBox="0 0 576 288" xmlns="http://www.w3.org/2000/svg" version="1.1">
 <metadata>
  <rdf:RDF xmlns:dc="http://purl.org/dc/elements/1.1/" xmlns:cc="http://creativecommons.org/ns#" xmlns:rdf="http://www.w3.org/1999/02/22-rdf-syntax-ns#">
   <cc:Work>
    <dc:type rdf:resource="http://purl.org/dc/dcmitype/StillImage"/>
    <dc:date>2025-05-25T10:00:45.100730</dc:date>
    <dc:format>image/svg+xml</dc:format>
    <dc:creator>
     <cc:Agent>
      <dc:title>Matplotlib v3.10.1, https://matplotlib.org/</dc:title>
     </cc:Agent>
    </dc:creator>
   </cc:Work>
  </rdf:RDF>
 </metadata>
 <defs>
  <style type="text/css">*{stroke-linejoin: round; stroke-linecap: butt}</style>
 </defs>
 <g id="figure_1">
  <g id="patch_1">
   <path d="M 0 288 
L 576 288 
L 576 0 
L 0 0 
z
" style="fill: #ffffff"/>
  </g>
  <g id="axes_1">
   <g id="patch_2">
    <path d="M 55.069198 255.465455 
L 269.320107 255.465455 
L 269.320107 41.214545 
L 55.069198 41.214545 
z
" style="fill: #ffffff"/>
   </g>
   <g id="matplotlib.axis_1">
    <g id="xtick_1">
     <g id="line2d_1">
      <defs>
       <path id="meb6972c8d4" d="M 0 0 
L 0 3.5 
" style="stroke: #000000; stroke-width: 0.8"/>
      </defs>
      <g>
       <use xlink:href="#meb6972c8d4" x="57.169697" y="255.465455" style="stroke: #000000; stroke-width: 0.8"/>
      </g>
     </g>
     <g id="text_1">
      <!-- 0.0 -->
      <g transform="translate(49.218134 270.063892) scale(0.1 -0.1)">
       <defs>
        <path id="DejaVuSans-30" d="M 2034 4250 
Q 1547 4250 1301 3770 
Q 1056 3291 1056 2328 
Q 1056 1369 1301 889 
Q 1547 409 2034 409 
Q 2525 409 2770 889 
Q 3016 1369 3016 2328 
Q 3016 3291 2770 3770 
Q 2525 4250 2034 4250 
z
M 2034 4750 
Q 2819 4750 3233 4129 
Q 3647 3509 3647 2328 
Q 3647 1150 3233 529 
Q 2819 -91 2034 -91 
Q 1250 -91 836 529 
Q 422 1150 422 2328 
Q 422 3509 836 4129 
Q 1250 4750 2034 4750 
z
" transform="scale(0.015625)"/>
        <path id="DejaVuSans-2e" d="M 684 794 
L 1344 794 
L 1344 0 
L 684 0 
L 684 794 
z
" transform="scale(0.015625)"/>
       </defs>
       <use xlink:href="#DejaVuSans-30"/>
       <use xlink:href="#DejaVuSans-2e" transform="translate(63.623047 0)"/>
       <use xlink:href="#DejaVuSans-30" transform="translate(95.410156 0)"/>
      </g>
     </g>
    </g>
    <g id="xtick_2">
     <g id="line2d_2">
      <g>
       <use xlink:href="#meb6972c8d4" x="99.179679" y="255.465455" style="stroke: #000000; stroke-width: 0.8"/>
      </g>
     </g>
     <g id="text_2">
      <!-- 0.2 -->
      <g transform="translate(91.228117 270.063892) scale(0.1 -0.1)">
       <defs>
        <path id="DejaVuSans-32" d="M 1228 531 
L 3431 531 
L 3431 0 
L 469 0 
L 469 531 
Q 828 903 1448 1529 
Q 2069 2156 2228 2338 
Q 2531 2678 2651 2914 
Q 2772 3150 2772 3378 
Q 2772 3750 2511 3984 
Q 2250 4219 1831 4219 
Q 1534 4219 1204 4116 
Q 875 4013 500 3803 
L 500 4441 
Q 881 4594 1212 4672 
Q 1544 4750 1819 4750 
Q 2544 4750 2975 4387 
Q 3406 4025 3406 3419 
Q 3406 3131 3298 2873 
Q 3191 2616 2906 2266 
Q 2828 2175 2409 1742 
Q 1991 1309 1228 531 
z
" transform="scale(0.015625)"/>
       </defs>
       <use xlink:href="#DejaVuSans-30"/>
       <use xlink:href="#DejaVuSans-2e" transform="translate(63.623047 0)"/>
       <use xlink:href="#DejaVuSans-32" transform="translate(95.410156 0)"/>
      </g>
     </g>
    </g>
    <g id="xtick_3">
     <g id="line2d_3">
      <g>
       <use xlink:href="#meb6972c8d4" x="141.189661" y="255.465455" style="stroke: #000000; stroke-width: 0.8"/>
      </g>
     </g>
     <g id="text_3">
      <!-- 0.4 -->
      <g transform="translate(133.238099 270.063892) scale(0.1 -0.1)">
       <defs>
        <path id="DejaVuSans-34" d="M 2419 4116 
L 825 1625 
L 2419 1625 
L 2419 4116 
z
M 2253 4666 
L 3047 4666 
L 3047 1625 
L 3713 1625 
L 3713 1100 
L 3047 1100 
L 3047 0 
L 2419 0 
L 2419 1100 
L 313 1100 
L 313 1709 
L 2253 4666 
z
" transform="scale(0.015625)"/>
       </defs>
       <use xlink:href="#DejaVuSans-30"/>
       <use xlink:href="#DejaVuSans-2e" transform="translate(63.623047 0)"/>
       <use xlink:href="#DejaVuSans-34" transform="translate(95.410156 0)"/>
      </g>
     </g>
    </g>
    <g id="xtick_4">
     <g id="line2d_4">
      <g>
       <use xlink:href="#meb6972c8d4" x="183.199643" y="255.465455" style="stroke: #000000; stroke-width: 0.8"/>
      </g>
     </g>
     <g id="text_4">
      <!-- 0.6 -->
      <g transform="translate(175.248081 270.063892) scale(0.1 -0.1)">
       <defs>
        <path id="DejaVuSans-36" d="M 2113 2584 
Q 1688 2584 1439 2293 
Q 1191 2003 1191 1497 
Q 1191 994 1439 701 
Q 1688 409 2113 409 
Q 2538 409 2786 701 
Q 3034 994 3034 1497 
Q 3034 2003 2786 2293 
Q 2538 2584 2113 2584 
z
M 3366 4563 
L 3366 3988 
Q 3128 4100 2886 4159 
Q 2644 4219 2406 4219 
Q 1781 4219 1451 3797 
Q 1122 3375 1075 2522 
Q 1259 2794 1537 2939 
Q 1816 3084 2150 3084 
Q 2853 3084 3261 2657 
Q 3669 2231 3669 1497 
Q 3669 778 3244 343 
Q 2819 -91 2113 -91 
Q 1303 -91 875 529 
Q 447 1150 447 2328 
Q 447 3434 972 4092 
Q 1497 4750 2381 4750 
Q 2619 4750 2861 4703 
Q 3103 4656 3366 4563 
z
" transform="scale(0.015625)"/>
       </defs>
       <use xlink:href="#DejaVuSans-30"/>
       <use xlink:href="#DejaVuSans-2e" transform="translate(63.623047 0)"/>
       <use xlink:href="#DejaVuSans-36" transform="translate(95.410156 0)"/>
      </g>
     </g>
    </g>
    <g id="xtick_5">
     <g id="line2d_5">
      <g>
       <use xlink:href="#meb6972c8d4" x="225.209626" y="255.465455" style="stroke: #000000; stroke-width: 0.8"/>
      </g>
     </g>
     <g id="text_5">
      <!-- 0.8 -->
      <g transform="translate(217.258063 270.063892) scale(0.1 -0.1)">
       <defs>
        <path id="DejaVuSans-38" d="M 2034 2216 
Q 1584 2216 1326 1975 
Q 1069 1734 1069 1313 
Q 1069 891 1326 650 
Q 1584 409 2034 409 
Q 2484 409 2743 651 
Q 3003 894 3003 1313 
Q 3003 1734 2745 1975 
Q 2488 2216 2034 2216 
z
M 1403 2484 
Q 997 2584 770 2862 
Q 544 3141 544 3541 
Q 544 4100 942 4425 
Q 1341 4750 2034 4750 
Q 2731 4750 3128 4425 
Q 3525 4100 3525 3541 
Q 3525 3141 3298 2862 
Q 3072 2584 2669 2484 
Q 3125 2378 3379 2068 
Q 3634 1759 3634 1313 
Q 3634 634 3220 271 
Q 2806 -91 2034 -91 
Q 1263 -91 848 271 
Q 434 634 434 1313 
Q 434 1759 690 2068 
Q 947 2378 1403 2484 
z
M 1172 3481 
Q 1172 3119 1398 2916 
Q 1625 2713 2034 2713 
Q 2441 2713 2670 2916 
Q 2900 3119 2900 3481 
Q 2900 3844 2670 4047 
Q 2441 4250 2034 4250 
Q 1625 4250 1398 4047 
Q 1172 3844 1172 3481 
z
" transform="scale(0.015625)"/>
       </defs>
       <use xlink:href="#DejaVuSans-30"/>
       <use xlink:href="#DejaVuSans-2e" transform="translate(63.623047 0)"/>
       <use xlink:href="#DejaVuSans-38" transform="translate(95.410156 0)"/>
      </g>
     </g>
    </g>
    <g id="xtick_6">
     <g id="line2d_6">
      <g>
       <use xlink:href="#meb6972c8d4" x="267.219608" y="255.465455" style="stroke: #000000; stroke-width: 0.8"/>
      </g>
     </g>
     <g id="text_6">
      <!-- 1.0 -->
      <g transform="translate(259.268045 270.063892) scale(0.1 -0.1)">
       <defs>
        <path id="DejaVuSans-31" d="M 794 531 
L 1825 531 
L 1825 4091 
L 703 3866 
L 703 4441 
L 1819 4666 
L 2450 4666 
L 2450 531 
L 3481 531 
L 3481 0 
L 794 0 
L 794 531 
z
" transform="scale(0.015625)"/>
       </defs>
       <use xlink:href="#DejaVuSans-31"/>
       <use xlink:href="#DejaVuSans-2e" transform="translate(63.623047 0)"/>
       <use xlink:href="#DejaVuSans-30" transform="translate(95.410156 0)"/>
      </g>
     </g>
    </g>
    <g id="text_7">
     <!-- False Positive Rate (Positive label: 1) -->
     <g transform="translate(70.829027 283.742017) scale(0.1 -0.1)">
      <defs>
       <path id="DejaVuSans-46" d="M 628 4666 
L 3309 4666 
L 3309 4134 
L 1259 4134 
L 1259 2759 
L 3109 2759 
L 3109 2228 
L 1259 2228 
L 1259 0 
L 628 0 
L 628 4666 
z
" transform="scale(0.015625)"/>
       <path id="DejaVuSans-61" d="M 2194 1759 
Q 1497 1759 1228 1600 
Q 959 1441 959 1056 
Q 959 750 1161 570 
Q 1363 391 1709 391 
Q 2188 391 2477 730 
Q 2766 1069 2766 1631 
L 2766 1759 
L 2194 1759 
z
M 3341 1997 
L 3341 0 
L 2766 0 
L 2766 531 
Q 2569 213 2275 61 
Q 1981 -91 1556 -91 
Q 1019 -91 701 211 
Q 384 513 384 1019 
Q 384 1609 779 1909 
Q 1175 2209 1959 2209 
L 2766 2209 
L 2766 2266 
Q 2766 2663 2505 2880 
Q 2244 3097 1772 3097 
Q 1472 3097 1187 3025 
Q 903 2953 641 2809 
L 641 3341 
Q 956 3463 1253 3523 
Q 1550 3584 1831 3584 
Q 2591 3584 2966 3190 
Q 3341 2797 3341 1997 
z
" transform="scale(0.015625)"/>
       <path id="DejaVuSans-6c" d="M 603 4863 
L 1178 4863 
L 1178 0 
L 603 0 
L 603 4863 
z
" transform="scale(0.015625)"/>
       <path id="DejaVuSans-73" d="M 2834 3397 
L 2834 2853 
Q 2591 2978 2328 3040 
Q 2066 3103 1784 3103 
Q 1356 3103 1142 2972 
Q 928 2841 928 2578 
Q 928 2378 1081 2264 
Q 1234 2150 1697 2047 
L 1894 2003 
Q 2506 1872 2764 1633 
Q 3022 1394 3022 966 
Q 3022 478 2636 193 
Q 2250 -91 1575 -91 
Q 1294 -91 989 -36 
Q 684 19 347 128 
L 347 722 
Q 666 556 975 473 
Q 1284 391 1588 391 
Q 1994 391 2212 530 
Q 2431 669 2431 922 
Q 2431 1156 2273 1281 
Q 2116 1406 1581 1522 
L 1381 1569 
Q 847 1681 609 1914 
Q 372 2147 372 2553 
Q 372 3047 722 3315 
Q 1072 3584 1716 3584 
Q 2034 3584 2315 3537 
Q 2597 3491 2834 3397 
z
" transform="scale(0.015625)"/>
       <path id="DejaVuSans-65" d="M 3597 1894 
L 3597 1613 
L 953 1613 
Q 991 1019 1311 708 
Q 1631 397 2203 397 
Q 2534 397 2845 478 
Q 3156 559 3463 722 
L 3463 178 
Q 3153 47 2828 -22 
Q 2503 -91 2169 -91 
Q 1331 -91 842 396 
Q 353 884 353 1716 
Q 353 2575 817 3079 
Q 1281 3584 2069 3584 
Q 2775 3584 3186 3129 
Q 3597 2675 3597 1894 
z
M 3022 2063 
Q 3016 2534 2758 2815 
Q 2500 3097 2075 3097 
Q 1594 3097 1305 2825 
Q 1016 2553 972 2059 
L 3022 2063 
z
" transform="scale(0.015625)"/>
       <path id="DejaVuSans-20" transform="scale(0.015625)"/>
       <path id="DejaVuSans-50" d="M 1259 4147 
L 1259 2394 
L 2053 2394 
Q 2494 2394 2734 2622 
Q 2975 2850 2975 3272 
Q 2975 3691 2734 3919 
Q 2494 4147 2053 4147 
L 1259 4147 
z
M 628 4666 
L 2053 4666 
Q 2838 4666 3239 4311 
Q 3641 3956 3641 3272 
Q 3641 2581 3239 2228 
Q 2838 1875 2053 1875 
L 1259 1875 
L 1259 0 
L 628 0 
L 628 4666 
z
" transform="scale(0.015625)"/>
       <path id="DejaVuSans-6f" d="M 1959 3097 
Q 1497 3097 1228 2736 
Q 959 2375 959 1747 
Q 959 1119 1226 758 
Q 1494 397 1959 397 
Q 2419 397 2687 759 
Q 2956 1122 2956 1747 
Q 2956 2369 2687 2733 
Q 2419 3097 1959 3097 
z
M 1959 3584 
Q 2709 3584 3137 3096 
Q 3566 2609 3566 1747 
Q 3566 888 3137 398 
Q 2709 -91 1959 -91 
Q 1206 -91 779 398 
Q 353 888 353 1747 
Q 353 2609 779 3096 
Q 1206 3584 1959 3584 
z
" transform="scale(0.015625)"/>
       <path id="DejaVuSans-69" d="M 603 3500 
L 1178 3500 
L 1178 0 
L 603 0 
L 603 3500 
z
M 603 4863 
L 1178 4863 
L 1178 4134 
L 603 4134 
L 603 4863 
z
" transform="scale(0.015625)"/>
       <path id="DejaVuSans-74" d="M 1172 4494 
L 1172 3500 
L 2356 3500 
L 2356 3053 
L 1172 3053 
L 1172 1153 
Q 1172 725 1289 603 
Q 1406 481 1766 481 
L 2356 481 
L 2356 0 
L 1766 0 
Q 1100 0 847 248 
Q 594 497 594 1153 
L 594 3053 
L 172 3053 
L 172 3500 
L 594 3500 
L 594 4494 
L 1172 4494 
z
" transform="scale(0.015625)"/>
       <path id="DejaVuSans-76" d="M 191 3500 
L 800 3500 
L 1894 563 
L 2988 3500 
L 3597 3500 
L 2284 0 
L 1503 0 
L 191 3500 
z
" transform="scale(0.015625)"/>
       <path id="DejaVuSans-52" d="M 2841 2188 
Q 3044 2119 3236 1894 
Q 3428 1669 3622 1275 
L 4263 0 
L 3584 0 
L 2988 1197 
Q 2756 1666 2539 1819 
Q 2322 1972 1947 1972 
L 1259 1972 
L 1259 0 
L 628 0 
L 628 4666 
L 2053 4666 
Q 2853 4666 3247 4331 
Q 3641 3997 3641 3322 
Q 3641 2881 3436 2590 
Q 3231 2300 2841 2188 
z
M 1259 4147 
L 1259 2491 
L 2053 2491 
Q 2509 2491 2742 2702 
Q 2975 2913 2975 3322 
Q 2975 3731 2742 3939 
Q 2509 4147 2053 4147 
L 1259 4147 
z
" transform="scale(0.015625)"/>
       <path id="DejaVuSans-28" d="M 1984 4856 
Q 1566 4138 1362 3434 
Q 1159 2731 1159 2009 
Q 1159 1288 1364 580 
Q 1569 -128 1984 -844 
L 1484 -844 
Q 1016 -109 783 600 
Q 550 1309 550 2009 
Q 550 2706 781 3412 
Q 1013 4119 1484 4856 
L 1984 4856 
z
" transform="scale(0.015625)"/>
       <path id="DejaVuSans-62" d="M 3116 1747 
Q 3116 2381 2855 2742 
Q 2594 3103 2138 3103 
Q 1681 3103 1420 2742 
Q 1159 2381 1159 1747 
Q 1159 1113 1420 752 
Q 1681 391 2138 391 
Q 2594 391 2855 752 
Q 3116 1113 3116 1747 
z
M 1159 2969 
Q 1341 3281 1617 3432 
Q 1894 3584 2278 3584 
Q 2916 3584 3314 3078 
Q 3713 2572 3713 1747 
Q 3713 922 3314 415 
Q 2916 -91 2278 -91 
Q 1894 -91 1617 61 
Q 1341 213 1159 525 
L 1159 0 
L 581 0 
L 581 4863 
L 1159 4863 
L 1159 2969 
z
" transform="scale(0.015625)"/>
       <path id="DejaVuSans-3a" d="M 750 794 
L 1409 794 
L 1409 0 
L 750 0 
L 750 794 
z
M 750 3309 
L 1409 3309 
L 1409 2516 
L 750 2516 
L 750 3309 
z
" transform="scale(0.015625)"/>
       <path id="DejaVuSans-29" d="M 513 4856 
L 1013 4856 
Q 1481 4119 1714 3412 
Q 1947 2706 1947 2009 
Q 1947 1309 1714 600 
Q 1481 -109 1013 -844 
L 513 -844 
Q 928 -128 1133 580 
Q 1338 1288 1338 2009 
Q 1338 2731 1133 3434 
Q 928 4138 513 4856 
z
" transform="scale(0.015625)"/>
      </defs>
      <use xlink:href="#DejaVuSans-46"/>
      <use xlink:href="#DejaVuSans-61" transform="translate(48.394531 0)"/>
      <use xlink:href="#DejaVuSans-6c" transform="translate(109.673828 0)"/>
      <use xlink:href="#DejaVuSans-73" transform="translate(137.457031 0)"/>
      <use xlink:href="#DejaVuSans-65" transform="translate(189.556641 0)"/>
      <use xlink:href="#DejaVuSans-20" transform="translate(251.080078 0)"/>
      <use xlink:href="#DejaVuSans-50" transform="translate(282.867188 0)"/>
      <use xlink:href="#DejaVuSans-6f" transform="translate(339.544922 0)"/>
      <use xlink:href="#DejaVuSans-73" transform="translate(400.726562 0)"/>
      <use xlink:href="#DejaVuSans-69" transform="translate(452.826172 0)"/>
      <use xlink:href="#DejaVuSans-74" transform="translate(480.609375 0)"/>
      <use xlink:href="#DejaVuSans-69" transform="translate(519.818359 0)"/>
      <use xlink:href="#DejaVuSans-76" transform="translate(547.601562 0)"/>
      <use xlink:href="#DejaVuSans-65" transform="translate(606.78125 0)"/>
      <use xlink:href="#DejaVuSans-20" transform="translate(668.304688 0)"/>
      <use xlink:href="#DejaVuSans-52" transform="translate(700.091797 0)"/>
      <use xlink:href="#DejaVuSans-61" transform="translate(767.324219 0)"/>
      <use xlink:href="#DejaVuSans-74" transform="translate(828.603516 0)"/>
      <use xlink:href="#DejaVuSans-65" transform="translate(867.8125 0)"/>
      <use xlink:href="#DejaVuSans-20" transform="translate(929.335938 0)"/>
      <use xlink:href="#DejaVuSans-28" transform="translate(961.123047 0)"/>
      <use xlink:href="#DejaVuSans-50" transform="translate(1000.136719 0)"/>
      <use xlink:href="#DejaVuSans-6f" transform="translate(1056.814453 0)"/>
      <use xlink:href="#DejaVuSans-73" transform="translate(1117.996094 0)"/>
      <use xlink:href="#DejaVuSans-69" transform="translate(1170.095703 0)"/>
      <use xlink:href="#DejaVuSans-74" transform="translate(1197.878906 0)"/>
      <use xlink:href="#DejaVuSans-69" transform="translate(1237.087891 0)"/>
      <use xlink:href="#DejaVuSans-76" transform="translate(1264.871094 0)"/>
      <use xlink:href="#DejaVuSans-65" transform="translate(1324.050781 0)"/>
      <use xlink:href="#DejaVuSans-20" transform="translate(1385.574219 0)"/>
      <use xlink:href="#DejaVuSans-6c" transform="translate(1417.361328 0)"/>
      <use xlink:href="#DejaVuSans-61" transform="translate(1445.144531 0)"/>
      <use xlink:href="#DejaVuSans-62" transform="translate(1506.423828 0)"/>
      <use xlink:href="#DejaVuSans-65" transform="translate(1569.900391 0)"/>
      <use xlink:href="#DejaVuSans-6c" transform="translate(1631.423828 0)"/>
      <use xlink:href="#DejaVuSans-3a" transform="translate(1659.207031 0)"/>
      <use xlink:href="#DejaVuSans-20" transform="translate(1692.898438 0)"/>
      <use xlink:href="#DejaVuSans-31" transform="translate(1724.685547 0)"/>
      <use xlink:href="#DejaVuSans-29" transform="translate(1788.308594 0)"/>
     </g>
    </g>
   </g>
   <g id="matplotlib.axis_2">
    <g id="ytick_1">
     <g id="line2d_7">
      <defs>
       <path id="m65c8499772" d="M 0 0 
L -3.5 0 
" style="stroke: #000000; stroke-width: 0.8"/>
      </defs>
      <g>
       <use xlink:href="#m65c8499772" x="55.069198" y="253.364955" style="stroke: #000000; stroke-width: 0.8"/>
      </g>
     </g>
     <g id="text_8">
      <!-- 0.0 -->
      <g transform="translate(32.166073 257.164174) scale(0.1 -0.1)">
       <use xlink:href="#DejaVuSans-30"/>
       <use xlink:href="#DejaVuSans-2e" transform="translate(63.623047 0)"/>
       <use xlink:href="#DejaVuSans-30" transform="translate(95.410156 0)"/>
      </g>
     </g>
    </g>
    <g id="ytick_2">
     <g id="line2d_8">
      <g>
       <use xlink:href="#m65c8499772" x="55.069198" y="211.354973" style="stroke: #000000; stroke-width: 0.8"/>
      </g>
     </g>
     <g id="text_9">
      <!-- 0.2 -->
      <g transform="translate(32.166073 215.154192) scale(0.1 -0.1)">
       <use xlink:href="#DejaVuSans-30"/>
       <use xlink:href="#DejaVuSans-2e" transform="translate(63.623047 0)"/>
       <use xlink:href="#DejaVuSans-32" transform="translate(95.410156 0)"/>
      </g>
     </g>
    </g>
    <g id="ytick_3">
     <g id="line2d_9">
      <g>
       <use xlink:href="#m65c8499772" x="55.069198" y="169.344991" style="stroke: #000000; stroke-width: 0.8"/>
      </g>
     </g>
     <g id="text_10">
      <!-- 0.4 -->
      <g transform="translate(32.166073 173.14421) scale(0.1 -0.1)">
       <use xlink:href="#DejaVuSans-30"/>
       <use xlink:href="#DejaVuSans-2e" transform="translate(63.623047 0)"/>
       <use xlink:href="#DejaVuSans-34" transform="translate(95.410156 0)"/>
      </g>
     </g>
    </g>
    <g id="ytick_4">
     <g id="line2d_10">
      <g>
       <use xlink:href="#m65c8499772" x="55.069198" y="127.335009" style="stroke: #000000; stroke-width: 0.8"/>
      </g>
     </g>
     <g id="text_11">
      <!-- 0.6 -->
      <g transform="translate(32.166073 131.134228) scale(0.1 -0.1)">
       <use xlink:href="#DejaVuSans-30"/>
       <use xlink:href="#DejaVuSans-2e" transform="translate(63.623047 0)"/>
       <use xlink:href="#DejaVuSans-36" transform="translate(95.410156 0)"/>
      </g>
     </g>
    </g>
    <g id="ytick_5">
     <g id="line2d_11">
      <g>
       <use xlink:href="#m65c8499772" x="55.069198" y="85.325027" style="stroke: #000000; stroke-width: 0.8"/>
      </g>
     </g>
     <g id="text_12">
      <!-- 0.8 -->
      <g transform="translate(32.166073 89.124245) scale(0.1 -0.1)">
       <use xlink:href="#DejaVuSans-30"/>
       <use xlink:href="#DejaVuSans-2e" transform="translate(63.623047 0)"/>
       <use xlink:href="#DejaVuSans-38" transform="translate(95.410156 0)"/>
      </g>
     </g>
    </g>
    <g id="ytick_6">
     <g id="line2d_12">
      <g>
       <use xlink:href="#m65c8499772" x="55.069198" y="43.315045" style="stroke: #000000; stroke-width: 0.8"/>
      </g>
     </g>
     <g id="text_13">
      <!-- 1.0 -->
      <g transform="translate(32.166073 47.114263) scale(0.1 -0.1)">
       <use xlink:href="#DejaVuSans-31"/>
       <use xlink:href="#DejaVuSans-2e" transform="translate(63.623047 0)"/>
       <use xlink:href="#DejaVuSans-30" transform="translate(95.410156 0)"/>
      </g>
     </g>
    </g>
    <g id="text_14">
     <!-- True Positive Rate (Positive label: 1) -->
     <g transform="translate(26.086385 237.768906) rotate(-90) scale(0.1 -0.1)">
      <defs>
       <path id="DejaVuSans-54" d="M -19 4666 
L 3928 4666 
L 3928 4134 
L 2272 4134 
L 2272 0 
L 1638 0 
L 1638 4134 
L -19 4134 
L -19 4666 
z
" transform="scale(0.015625)"/>
       <path id="DejaVuSans-72" d="M 2631 2963 
Q 2534 3019 2420 3045 
Q 2306 3072 2169 3072 
Q 1681 3072 1420 2755 
Q 1159 2438 1159 1844 
L 1159 0 
L 581 0 
L 581 3500 
L 1159 3500 
L 1159 2956 
Q 1341 3275 1631 3429 
Q 1922 3584 2338 3584 
Q 2397 3584 2469 3576 
Q 2541 3569 2628 3553 
L 2631 2963 
z
" transform="scale(0.015625)"/>
       <path id="DejaVuSans-75" d="M 544 1381 
L 544 3500 
L 1119 3500 
L 1119 1403 
Q 1119 906 1312 657 
Q 1506 409 1894 409 
Q 2359 409 2629 706 
Q 2900 1003 2900 1516 
L 2900 3500 
L 3475 3500 
L 3475 0 
L 2900 0 
L 2900 538 
Q 2691 219 2414 64 
Q 2138 -91 1772 -91 
Q 1169 -91 856 284 
Q 544 659 544 1381 
z
M 1991 3584 
L 1991 3584 
z
" transform="scale(0.015625)"/>
      </defs>
      <use xlink:href="#DejaVuSans-54"/>
      <use xlink:href="#DejaVuSans-72" transform="translate(46.333984 0)"/>
      <use xlink:href="#DejaVuSans-75" transform="translate(87.447266 0)"/>
      <use xlink:href="#DejaVuSans-65" transform="translate(150.826172 0)"/>
      <use xlink:href="#DejaVuSans-20" transform="translate(212.349609 0)"/>
      <use xlink:href="#DejaVuSans-50" transform="translate(244.136719 0)"/>
      <use xlink:href="#DejaVuSans-6f" transform="translate(300.814453 0)"/>
      <use xlink:href="#DejaVuSans-73" transform="translate(361.996094 0)"/>
      <use xlink:href="#DejaVuSans-69" transform="translate(414.095703 0)"/>
      <use xlink:href="#DejaVuSans-74" transform="translate(441.878906 0)"/>
      <use xlink:href="#DejaVuSans-69" transform="translate(481.087891 0)"/>
      <use xlink:href="#DejaVuSans-76" transform="translate(508.871094 0)"/>
      <use xlink:href="#DejaVuSans-65" transform="translate(568.050781 0)"/>
      <use xlink:href="#DejaVuSans-20" transform="translate(629.574219 0)"/>
      <use xlink:href="#DejaVuSans-52" transform="translate(661.361328 0)"/>
      <use xlink:href="#DejaVuSans-61" transform="translate(728.59375 0)"/>
      <use xlink:href="#DejaVuSans-74" transform="translate(789.873047 0)"/>
      <use xlink:href="#DejaVuSans-65" transform="translate(829.082031 0)"/>
      <use xlink:href="#DejaVuSans-20" transform="translate(890.605469 0)"/>
      <use xlink:href="#DejaVuSans-28" transform="translate(922.392578 0)"/>
      <use xlink:href="#DejaVuSans-50" transform="translate(961.40625 0)"/>
      <use xlink:href="#DejaVuSans-6f" transform="translate(1018.083984 0)"/>
      <use xlink:href="#DejaVuSans-73" transform="translate(1079.265625 0)"/>
      <use xlink:href="#DejaVuSans-69" transform="translate(1131.365234 0)"/>
      <use xlink:href="#DejaVuSans-74" transform="translate(1159.148438 0)"/>
      <use xlink:href="#DejaVuSans-69" transform="translate(1198.357422 0)"/>
      <use xlink:href="#DejaVuSans-76" transform="translate(1226.140625 0)"/>
      <use xlink:href="#DejaVuSans-65" transform="translate(1285.320312 0)"/>
      <use xlink:href="#DejaVuSans-20" transform="translate(1346.84375 0)"/>
      <use xlink:href="#DejaVuSans-6c" transform="translate(1378.630859 0)"/>
      <use xlink:href="#DejaVuSans-61" transform="translate(1406.414062 0)"/>
      <use xlink:href="#DejaVuSans-62" transform="translate(1467.693359 0)"/>
      <use xlink:href="#DejaVuSans-65" transform="translate(1531.169922 0)"/>
      <use xlink:href="#DejaVuSans-6c" transform="translate(1592.693359 0)"/>
      <use xlink:href="#DejaVuSans-3a" transform="translate(1620.476562 0)"/>
      <use xlink:href="#DejaVuSans-20" transform="translate(1654.167969 0)"/>
      <use xlink:href="#DejaVuSans-31" transform="translate(1685.955078 0)"/>
      <use xlink:href="#DejaVuSans-29" transform="translate(1749.578125 0)"/>
     </g>
    </g>
   </g>
   <g id="line2d_13">
    <path d="M 57.169697 253.364955 
L 91.764917 253.280935 
L 91.764917 253.196916 
L 96.764105 253.112896 
L 96.764105 253.028876 
L 98.822594 252.944856 
L 98.822594 252.860836 
L 100.860078 252.776816 
L 100.860078 252.692796 
L 105.250122 252.608776 
L 105.250122 252.524756 
L 106.279366 252.440736 
L 106.279366 252.356716 
L 107.644691 252.272696 
L 107.644691 252.188676 
L 109.010015 252.104656 
L 109.010015 252.020636 
L 110.354334 251.936616 
L 110.354334 251.852596 
L 112.790913 251.768576 
L 112.790913 251.684556 
L 113.400058 251.600536 
L 113.400058 251.516516 
L 113.484078 251.516516 
L 115.017442 251.432496 
L 115.017442 251.348476 
L 116.361762 251.264456 
L 116.361762 251.180436 
L 119.092411 251.096416 
L 119.092411 251.012396 
L 122.537229 250.928376 
L 122.537229 250.844357 
L 126.276118 250.760337 
L 126.276118 250.676317 
L 126.843252 250.592297 
L 126.843252 250.508277 
L 127.074307 250.424257 
L 127.074307 250.340237 
L 127.368377 250.256217 
L 127.410387 250.088177 
L 128.103552 250.004157 
L 128.103552 249.920137 
L 129.636916 249.836117 
L 129.636916 249.752097 
L 130.561136 249.668077 
L 130.561136 249.584057 
L 132.115505 249.500037 
L 132.115505 249.416017 
L 132.80867 249.331997 
L 132.80867 249.247977 
L 136.211478 249.163957 
L 136.211478 249.079937 
L 138.564037 248.995917 
L 138.648057 248.827877 
L 138.900117 248.743857 
L 138.900117 248.659837 
L 139.488257 248.575817 
L 139.488257 248.491798 
L 140.244437 248.407778 
L 140.244437 248.239738 
L 141.987851 248.155718 
L 142.050866 247.987678 
L 142.786041 247.903658 
L 142.786041 247.819638 
L 143.50021 247.735618 
L 143.58423 247.483558 
L 144.67649 247.399538 
L 144.67649 247.315518 
L 145.201615 247.231498 
L 145.285635 246.979438 
L 145.768749 246.895418 
L 145.810759 246.727378 
L 146.608949 246.643358 
L 146.608949 246.559338 
L 146.903019 246.475318 
L 146.903019 246.391298 
L 147.365129 246.307278 
L 147.365129 246.223258 
L 147.764224 246.139239 
L 147.764224 246.055219 
L 148.709448 245.971199 
L 148.709448 245.887179 
L 149.885728 245.803159 
L 149.927738 245.635119 
L 150.893967 245.551099 
L 150.893967 245.467079 
L 151.104017 245.383059 
L 151.104017 245.215019 
L 151.503112 245.130999 
L 151.503112 245.046979 
L 152.427332 244.962959 
L 152.427332 244.878939 
L 153.582606 244.794919 
L 153.624616 244.542859 
L 154.359791 244.458839 
L 154.359791 244.290799 
L 155.347025 244.206779 
L 155.347025 244.122759 
L 155.70411 244.038739 
L 155.725115 243.870699 
L 156.46029 243.78668 
L 156.46029 243.70266 
L 157.153455 243.61864 
L 157.153455 243.53462 
L 157.510539 243.4506 
L 157.510539 243.36658 
L 157.867624 243.28256 
L 157.867624 243.19854 
L 158.077674 243.11452 
L 158.077674 243.0305 
L 159.064909 242.94648 
L 159.064909 242.86246 
L 159.274959 242.77844 
L 159.358979 242.44236 
L 159.569029 242.35834 
L 159.653048 242.1903 
L 159.884103 242.10628 
L 159.884103 242.02226 
L 160.556263 241.93824 
L 160.556263 241.85422 
L 161.207418 241.7702 
L 161.207418 241.68618 
L 161.942593 241.60216 
L 161.942593 241.51814 
L 162.341687 241.43412 
L 162.341687 241.350101 
L 163.181887 241.266081 
L 163.181887 241.182061 
L 163.854047 241.098041 
L 163.854047 241.014021 
L 164.400176 240.930001 
L 164.400176 240.845981 
L 165.114346 240.761961 
L 165.114346 240.677941 
L 165.429421 240.593921 
L 165.429421 240.509901 
L 166.101581 240.425881 
L 166.101581 240.341861 
L 167.046805 240.257841 
L 167.130825 240.089801 
L 167.466905 240.005781 
L 167.466905 239.921761 
L 168.11806 239.837741 
L 168.20208 239.501661 
L 168.66419 239.417641 
L 168.66419 239.333621 
L 168.87424 239.249601 
L 168.87424 239.165581 
L 169.084289 239.081561 
L 169.084289 238.997542 
L 169.546399 238.913522 
L 169.546399 238.829502 
L 169.798459 238.745482 
L 169.903484 238.577442 
L 170.092529 238.493422 
L 170.197554 238.325382 
L 170.344589 238.241362 
L 170.407604 238.073322 
L 170.533634 237.989302 
L 170.533634 237.905282 
L 171.016749 237.821262 
L 171.016749 237.737242 
L 171.268809 237.653222 
L 171.268809 237.569202 
L 172.151018 237.485182 
L 172.151018 237.401162 
L 172.865188 237.401162 
L 172.865188 237.149102 
L 173.495338 237.065082 
L 173.495338 236.897042 
L 173.810412 236.813022 
L 173.831417 236.644983 
L 174.104482 236.560963 
L 174.125487 236.308903 
L 174.566592 236.224883 
L 174.566592 236.140863 
L 174.713627 236.140863 
L 174.713627 235.972823 
L 175.364782 235.888803 
L 175.364782 235.804783 
L 175.553827 235.720763 
L 175.553827 235.636743 
L 175.910912 235.552723 
L 175.910912 235.468703 
L 176.099957 235.468703 
L 176.204981 235.216643 
L 176.331011 235.132623 
L 176.331011 235.048603 
L 176.814126 234.964583 
L 176.835131 234.796543 
L 177.129201 234.712523 
L 177.150206 234.544483 
L 177.339251 234.460463 
L 177.360256 234.208404 
L 178.116436 234.124384 
L 178.116436 234.040364 
L 178.242466 234.040364 
L 178.284476 233.788304 
L 178.64156 233.704284 
L 178.662565 233.452224 
L 179.376735 233.368204 
L 179.43975 233.032124 
L 179.754825 233.032124 
L 179.85985 232.780064 
L 180.511005 232.696044 
L 180.61603 232.528004 
L 181.057134 232.443984 
L 181.057134 232.359964 
L 181.267184 232.275944 
L 181.267184 232.191924 
L 181.519244 232.191924 
L 181.561254 231.939865 
L 181.939344 231.855845 
L 181.939344 231.771825 
L 182.233414 231.687805 
L 182.233414 231.603785 
L 182.422459 231.519765 
L 182.422459 231.435745 
L 182.758539 231.351725 
L 182.842559 231.015645 
L 182.905574 231.015645 
L 182.968589 230.763585 
L 183.073614 230.679565 
L 183.136629 230.511525 
L 183.682758 230.427505 
L 183.703763 230.259465 
L 183.871803 230.175445 
L 183.913813 229.839365 
L 184.123863 229.755345 
L 184.228888 229.587306 
L 184.354918 229.503286 
L 184.417933 229.335246 
L 185.048083 229.251226 
L 185.132103 228.999166 
L 185.216123 228.915146 
L 185.216123 228.831126 
L 185.447178 228.747106 
L 185.468183 228.495046 
L 185.783257 228.411026 
L 185.783257 228.074946 
L 186.056322 227.990926 
L 186.056322 227.738866 
L 186.224362 227.654846 
L 186.245367 227.486806 
L 186.392402 227.402786 
L 186.413407 227.234747 
L 186.833507 227.150727 
L 186.833507 226.982687 
L 187.106572 226.898667 
L 187.127577 226.646607 
L 187.484662 226.562587 
L 187.568682 226.310527 
L 187.631697 226.226507 
L 187.673707 225.974447 
L 188.093806 225.890427 
L 188.198831 225.722387 
L 188.261846 225.638367 
L 188.324861 225.470327 
L 188.408881 225.470327 
L 188.471896 225.134247 
L 189.459131 225.050227 
L 189.459131 224.966207 
L 189.627171 224.966207 
L 189.669181 224.714148 
L 189.837221 224.630128 
L 189.900236 224.378068 
L 190.173301 224.294048 
L 190.25732 224.041988 
L 190.404355 223.957968 
L 190.50938 223.621888 
L 190.824455 223.621888 
L 190.824455 223.453848 
L 191.076515 223.369828 
L 191.118525 223.117768 
L 191.39159 223.033748 
L 191.47561 222.865708 
L 191.60164 222.781688 
L 191.64365 222.613648 
L 192.06375 222.529629 
L 192.06375 222.445609 
L 192.56787 222.361589 
L 192.56787 222.277569 
L 192.798924 222.277569 
L 192.861939 221.941489 
L 192.966964 221.941489 
L 193.050984 221.689429 
L 193.345054 221.605409 
L 193.450079 221.437369 
L 193.597114 221.353349 
L 193.702139 221.101289 
L 193.807164 221.017269 
L 193.912189 220.765209 
L 194.038219 220.681189 
L 194.038219 220.597169 
L 194.269274 220.513149 
L 194.269274 220.345109 
L 194.395304 220.345109 
L 194.395304 220.17707 
L 194.836409 220.09305 
L 194.899424 219.92501 
L 195.109473 219.84099 
L 195.193493 219.67295 
L 195.340528 219.58893 
L 195.424548 219.33687 
L 195.571583 219.25285 
L 195.592588 219.08481 
L 195.739623 219.00079 
L 195.802638 218.83275 
L 196.012688 218.74873 
L 196.117713 218.58069 
L 196.411783 218.49667 
L 196.495803 218.24461 
L 196.600828 218.16059 
L 196.705853 217.824511 
L 196.810878 217.824511 
L 196.810878 217.656471 
L 197.041933 217.572451 
L 197.146958 217.404411 
L 197.272988 217.320391 
L 197.336002 217.152351 
L 197.630072 217.068331 
L 197.735097 216.900291 
L 197.966152 216.816271 
L 198.008162 216.648231 
L 198.197207 216.564211 
L 198.302232 216.060091 
L 198.407257 215.976071 
L 198.491277 215.639991 
L 198.722332 215.555971 
L 198.722332 215.471952 
L 199.520522 215.387932 
L 199.583537 215.051852 
L 199.751576 214.967832 
L 199.856601 214.799792 
L 199.940621 214.799792 
L 199.961626 214.547732 
L 200.360721 214.463712 
L 200.444741 214.127632 
L 200.570771 214.043612 
L 200.570771 213.959592 
L 200.885846 213.875572 
L 200.990871 213.707532 
L 201.116901 213.623512 
L 201.137906 213.455472 
L 201.263936 213.371452 
L 201.305946 213.119393 
L 201.705041 213.035373 
L 201.789061 212.783313 
L 202.146145 212.699293 
L 202.25117 212.363213 
L 202.440215 212.279193 
L 202.440215 212.195173 
L 202.71328 212.111153 
L 202.7973 211.943113 
L 202.92333 211.943113 
L 203.00735 211.607033 
L 203.2174 211.607033 
L 203.280415 211.018893 
L 203.38544 210.934873 
L 203.490465 210.766834 
L 203.532475 210.682814 
L 203.574485 210.430754 
L 203.72152 210.346734 
L 203.826545 210.094674 
L 204.078605 210.010654 
L 204.078605 209.926634 
L 204.30966 209.842614 
L 204.330665 209.506534 
L 204.645739 209.422514 
L 204.750764 209.086434 
L 204.960814 209.002414 
L 205.065839 208.750354 
L 205.401919 208.666334 
L 205.485939 208.414275 
L 205.527949 208.414275 
L 205.611969 208.078195 
L 205.780009 208.078195 
L 205.885034 207.826135 
L 206.074079 207.742115 
L 206.179104 207.490055 
L 206.431164 207.406035 
L 206.515184 207.069955 
L 206.620209 206.985935 
L 206.620209 206.901915 
L 206.893273 206.817895 
L 206.956288 206.481815 
L 207.208348 206.397795 
L 207.250358 206.229755 
L 207.460408 206.229755 
L 207.565433 205.809656 
L 207.775483 205.725636 
L 207.796488 205.389556 
L 207.964528 205.305536 
L 207.985533 205.053476 
L 208.237593 204.969456 
L 208.279603 204.549356 
L 208.426638 204.465336 
L 208.510658 204.045236 
L 208.699703 203.961216 
L 208.699703 203.877196 
L 208.888748 203.793176 
L 208.972768 203.625137 
L 209.035783 203.541117 
L 209.077793 203.373077 
L 209.224827 203.289057 
L 209.287842 203.121017 
L 209.518897 203.036997 
L 209.560907 202.784937 
L 209.791962 202.700917 
L 209.875982 202.448857 
L 209.981007 202.364837 
L 210.086032 202.196797 
L 210.191057 202.112777 
L 210.191057 202.028757 
L 210.506132 201.944737 
L 210.548142 201.776697 
L 210.758192 201.692677 
L 210.863217 201.356598 
L 210.926232 201.272578 
L 211.031257 201.104538 
L 211.178292 201.020518 
L 211.220302 200.768458 
L 211.409347 200.684438 
L 211.451357 200.432378 
L 211.724421 200.348358 
L 211.724421 200.264338 
L 211.871456 200.180318 
L 211.976481 199.676198 
L 212.144521 199.592178 
L 212.207536 199.424138 
L 212.270551 199.424138 
L 212.333566 199.088058 
L 212.417586 199.088058 
L 212.522611 198.667959 
L 212.858691 198.583939 
L 212.858691 198.499919 
L 213.152761 198.415899 
L 213.236781 198.163839 
L 213.320801 198.079819 
L 213.341806 197.827759 
L 213.488841 197.743739 
L 213.488841 197.659719 
L 213.719896 197.575699 
L 213.82492 196.987559 
L 213.90894 196.987559 
L 213.95095 196.735499 
L 214.097985 196.735499 
L 214.097985 196.56746 
L 214.37105 196.48344 
L 214.434065 196.14736 
L 214.560095 196.14736 
L 214.62311 195.64324 
L 214.770145 195.55922 
L 214.79115 195.30716 
L 215.106225 195.30716 
L 215.21125 194.635 
L 215.37929 194.55098 
L 215.484315 194.130881 
L 215.58934 194.046861 
L 215.652355 193.794801 
L 215.778385 193.794801 
L 215.862405 193.458721 
L 216.00944 193.374701 
L 216.00944 193.290681 
L 216.17748 193.206661 
L 216.282504 192.870581 
L 216.303509 192.870581 
L 216.303509 192.702541 
L 216.534564 192.618521 
L 216.534564 192.534501 
L 216.681599 192.450481 
L 216.786624 191.946361 
L 216.849639 191.862342 
L 216.954664 191.610282 
L 217.059689 191.526262 
L 217.143709 191.274202 
L 217.311749 191.274202 
L 217.395769 191.022142 
L 217.521799 190.938122 
L 217.563809 190.602042 
L 218.025919 190.518022 
L 218.088934 190.349982 
L 218.172954 190.349982 
L 218.172954 190.181942 
L 218.361999 190.097922 
L 218.467024 189.005663 
L 218.509034 189.005663 
L 218.572048 188.669583 
L 218.908128 188.585563 
L 218.950138 188.333503 
L 219.034158 188.333503 
L 219.139183 187.913403 
L 219.202198 187.829383 
L 219.286218 187.577323 
L 219.349233 187.493303 
L 219.433253 187.325263 
L 219.769333 187.241243 
L 219.874358 186.821144 
L 219.916368 186.821144 
L 219.979383 186.485064 
L 220.105413 186.401044 
L 220.210438 186.148984 
L 220.483503 186.064964 
L 220.567523 185.560844 
L 220.672548 185.476824 
L 220.777573 185.056724 
L 220.798578 185.056724 
L 220.798578 184.972704 
L 220.861593 184.552605 
L 220.945612 184.468585 
L 221.029632 184.048485 
L 221.092647 184.048485 
L 221.176667 183.376325 
L 221.344707 183.292305 
L 221.344707 183.208285 
L 221.491742 183.208285 
L 221.575762 182.536125 
L 221.764807 182.452106 
L 221.827822 182.032006 
L 221.911842 181.947986 
L 221.932847 181.779946 
L 222.058877 181.695926 
L 222.142897 181.443866 
L 222.184907 181.443866 
L 222.226917 181.191806 
L 222.373952 181.191806 
L 222.478977 180.687686 
L 222.689027 180.687686 
L 222.773047 180.351606 
L 222.857067 180.351606 
L 222.899077 179.763467 
L 223.067117 179.763467 
L 223.172142 179.091307 
L 223.193147 179.091307 
L 223.277166 178.755227 
L 223.361186 178.671207 
L 223.445206 178.083067 
L 223.529226 177.999047 
L 223.613246 177.494928 
L 223.655256 177.494928 
L 223.718271 176.990808 
L 223.781286 176.990808 
L 223.886311 176.570708 
L 223.970331 176.570708 
L 224.075356 176.066588 
L 224.159376 175.982568 
L 224.264401 175.646488 
L 224.453446 175.562468 
L 224.558471 174.890309 
L 224.600481 174.806289 
L 224.642491 174.554229 
L 224.873546 174.470209 
L 224.936561 174.218149 
L 225.083596 174.218149 
L 225.167616 173.714029 
L 225.293646 173.630009 
L 225.398671 173.377949 
L 225.545706 173.293929 
L 225.629725 173.125889 
L 225.797765 173.04187 
L 225.81877 172.87383 
L 225.98681 172.78981 
L 226.02882 172.62177 
L 226.175855 172.62177 
L 226.259875 172.28569 
L 226.3649 172.28569 
L 226.469925 171.94961 
L 226.57495 171.86559 
L 226.65897 170.94137 
L 226.70098 170.94137 
L 226.806005 170.437251 
L 226.890025 170.353231 
L 226.974045 170.101171 
L 227.03706 170.017151 
L 227.12108 169.765091 
L 227.16309 169.765091 
L 227.226105 169.260971 
L 227.33113 169.176951 
L 227.41515 168.840871 
L 227.54118 168.756851 
L 227.6252 168.420771 
L 227.730225 168.336752 
L 227.79324 168.168712 
L 228.024294 168.084692 
L 228.066304 167.580572 
L 228.297359 167.496552 
L 228.297359 167.412532 
L 228.570424 167.328512 
L 228.570424 167.244492 
L 228.822484 167.160472 
L 228.927509 166.572332 
L 229.116554 166.488312 
L 229.200574 166.152232 
L 229.305599 166.068212 
L 229.389619 165.648113 
L 229.494644 165.564093 
L 229.578664 165.143993 
L 229.830724 165.059973 
L 229.914744 164.723893 
L 229.956754 164.723893 
L 230.040774 164.471833 
L 230.103789 164.387813 
L 230.187809 164.135753 
L 230.334843 164.051733 
L 230.334843 163.967713 
L 230.502883 163.883693 
L 230.586903 163.463594 
L 230.649918 163.379574 
L 230.754943 163.211534 
L 230.859968 163.127514 
L 230.922983 162.539374 
L 231.007003 162.539374 
L 231.049013 162.287314 
L 231.133033 162.287314 
L 231.133033 161.951234 
L 231.469113 161.867214 
L 231.490118 161.699174 
L 231.679163 161.699174 
L 231.784188 161.279075 
L 231.805193 161.279075 
L 231.826198 160.690935 
L 231.952228 160.690935 
L 232.057253 160.102795 
L 232.099263 160.018775 
L 232.162278 159.766715 
L 232.372328 159.682695 
L 232.435343 159.346615 
L 232.498358 159.346615 
L 232.582378 158.590436 
L 232.687402 158.506416 
L 232.687402 158.170336 
L 232.876447 158.170336 
L 232.918457 157.918276 
L 233.065492 157.918276 
L 233.170517 157.666216 
L 233.317552 157.666216 
L 233.317552 157.330136 
L 233.443582 157.330136 
L 233.548607 156.657976 
L 233.632627 156.573957 
L 233.632627 156.489937 
L 233.821672 156.405917 
L 233.926697 155.565717 
L 233.989712 155.565717 
L 234.073732 155.145617 
L 234.136747 155.061597 
L 234.178757 154.725517 
L 234.262777 154.725517 
L 234.346797 154.305417 
L 234.577852 154.221398 
L 234.598857 154.053358 
L 234.871922 153.969338 
L 234.976947 153.465218 
L 235.123981 153.381198 
L 235.229006 152.625018 
L 235.334031 152.540998 
L 235.397046 152.036878 
L 235.544081 151.952858 
L 235.628101 151.448739 
L 235.733126 151.364719 
L 235.775136 151.028639 
L 235.985186 151.028639 
L 236.090211 150.356479 
L 236.237246 150.272459 
L 236.300261 149.936379 
L 236.447296 149.852359 
L 236.531316 149.43226 
L 236.972421 149.34824 
L 236.972421 149.26422 
L 237.098451 149.26422 
L 237.161466 148.92814 
L 237.266491 148.84412 
L 237.287496 148.67608 
L 237.39252 148.67608 
L 237.497545 148.25598 
L 237.56056 148.17196 
L 237.60257 147.9199 
L 237.81262 147.83588 
L 237.917645 147.41578 
L 238.02267 147.33176 
L 238.10669 147.079701 
L 238.211715 146.995681 
L 238.253725 146.575581 
L 238.421765 146.575581 
L 238.52679 145.819401 
L 238.589805 145.735381 
L 238.589805 145.651361 
L 238.86287 145.567341 
L 238.967895 144.643122 
L 238.9889 144.643122 
L 239.093925 144.054982 
L 239.177945 143.970962 
L 239.219955 143.802922 
L 239.387995 143.718902 
L 239.472015 143.130762 
L 239.70307 143.130762 
L 239.787089 142.626642 
L 239.997139 142.542622 
L 240.081159 142.038503 
L 240.333219 141.954483 
L 240.333219 141.534383 
L 240.543269 141.450363 
L 240.627289 141.114283 
L 240.711309 141.030263 
L 240.795329 140.694183 
L 240.837339 140.694183 
L 240.837339 140.526143 
L 240.963369 140.526143 
L 241.026384 139.938004 
L 241.110404 139.853984 
L 241.215429 139.433884 
L 241.236434 139.433884 
L 241.341459 139.097804 
L 241.425479 139.013784 
L 241.530504 138.509664 
L 241.593519 138.425644 
L 241.677539 137.921524 
L 241.782564 137.837504 
L 241.782564 137.585445 
L 242.013619 137.501425 
L 242.118643 137.081325 
L 242.265678 136.997305 
L 242.370703 136.661225 
L 242.496733 136.577205 
L 242.538743 136.409165 
L 242.643768 136.325145 
L 242.643768 136.157105 
L 242.853818 136.073085 
L 242.895828 135.905045 
L 243.063868 135.821025 
L 243.168893 135.652985 
L 243.210903 135.652985 
L 243.315928 135.148866 
L 243.357938 135.064846 
L 243.420953 134.560726 
L 243.546983 134.560726 
L 243.652008 133.804546 
L 243.715023 133.720526 
L 243.820048 133.384446 
L 243.841053 133.384446 
L 243.946078 132.460227 
L 243.967083 132.460227 
L 244.072108 131.704047 
L 244.114118 131.704047 
L 244.219143 131.115907 
L 244.261153 131.115907 
L 244.366178 130.191688 
L 244.408188 130.191688 
L 244.471202 129.855608 
L 244.555222 129.771588 
L 244.639242 129.351488 
L 244.786277 129.351488 
L 244.786277 129.099428 
L 244.912307 129.099428 
L 245.017332 128.343248 
L 245.059342 128.343248 
L 245.143362 126.914909 
L 245.269392 126.830889 
L 245.374417 126.326769 
L 245.416427 126.326769 
L 245.458437 125.90667 
L 245.584467 125.82265 
L 245.689492 125.23451 
L 245.752507 125.15049 
L 245.815522 124.73039 
L 245.899542 124.64637 
L 246.004567 123.97421 
L 246.067582 123.89019 
L 246.172607 123.134011 
L 246.235622 123.049991 
L 246.298637 122.797931 
L 246.445672 122.713911 
L 246.466677 122.209791 
L 246.613712 122.125771 
L 246.718737 121.873711 
L 246.760747 121.873711 
L 246.865771 121.453611 
L 246.991801 121.369591 
L 247.075821 121.201552 
L 247.117831 121.201552 
L 247.222856 120.529392 
L 247.243861 120.529392 
L 247.285871 119.941252 
L 247.432906 119.941252 
L 247.495921 119.521152 
L 247.663961 119.521152 
L 247.768986 118.848993 
L 247.853006 118.764973 
L 247.958031 118.260853 
L 247.979036 118.260853 
L 248.084061 117.588693 
L 248.126071 117.504673 
L 248.210091 117.000553 
L 248.336121 116.916533 
L 248.441146 116.748493 
L 248.546171 116.664473 
L 248.546171 116.580453 
L 248.798231 116.496434 
L 248.903256 115.656234 
L 248.945266 115.656234 
L 249.050291 115.236134 
L 249.113306 115.152114 
L 249.155316 114.732014 
L 249.323355 114.732014 
L 249.38637 114.311914 
L 249.59642 114.227894 
L 249.68044 114.059855 
L 249.72245 114.059855 
L 249.72245 113.723775 
L 249.84848 113.723775 
L 249.911495 112.715535 
L 250.01652 112.631515 
L 250.05853 112.295435 
L 250.14255 112.295435 
L 250.22657 111.875335 
L 250.289585 111.875335 
L 250.373605 111.539256 
L 250.52064 111.455236 
L 250.625665 110.783076 
L 250.68868 110.783076 
L 250.793705 110.110916 
L 250.85672 110.026896 
L 250.94074 109.354737 
L 251.003755 109.270717 
L 251.10878 108.346497 
L 251.171795 108.262477 
L 251.27682 107.926397 
L 251.36084 107.842377 
L 251.465865 107.590317 
L 251.48687 107.590317 
L 251.570889 107.086198 
L 251.696919 107.002178 
L 251.759934 106.666098 
L 251.864959 106.666098 
L 251.948979 106.161978 
L 251.990989 106.161978 
L 252.096014 105.657858 
L 252.159029 105.573838 
L 252.264054 104.817658 
L 252.306064 104.733639 
L 252.306064 104.649619 
L 252.474104 104.565599 
L 252.579129 103.977459 
L 252.621139 103.977459 
L 252.726164 103.389319 
L 252.768174 103.389319 
L 252.873199 102.38108 
L 252.915209 102.38108 
L 253.020234 101.37284 
L 253.104254 101.28882 
L 253.209279 100.86872 
L 253.293299 100.7847 
L 253.398324 100.28058 
L 253.461339 100.28058 
L 253.545359 100.02852 
L 253.671389 99.944501 
L 253.776414 99.440381 
L 253.839429 99.356361 
L 253.944453 99.104301 
L 253.986463 99.104301 
L 254.028473 98.516161 
L 254.259528 98.432141 
L 254.259528 98.348121 
L 254.406563 98.348121 
L 254.511588 97.507922 
L 254.637618 97.423902 
L 254.742643 97.087822 
L 254.784653 97.003802 
L 254.889678 95.995562 
L 254.952693 95.911542 
L 255.057718 94.987323 
L 255.162743 94.903303 
L 255.183748 94.483203 
L 255.330783 94.399183 
L 255.330783 94.231143 
L 255.498823 94.147123 
L 255.603848 93.474963 
L 255.624853 93.474963 
L 255.708873 92.634764 
L 255.771888 92.634764 
L 255.876913 91.878584 
L 255.939928 91.878584 
L 256.044953 91.122404 
L 256.107968 91.038384 
L 256.149978 90.702304 
L 256.276007 90.702304 
L 256.360027 89.862105 
L 256.402037 89.862105 
L 256.402037 89.610045 
L 256.696107 89.526025 
L 256.696107 89.442005 
L 256.864147 89.357985 
L 256.969172 88.769845 
L 257.011182 88.769845 
L 257.095202 88.265725 
L 257.137212 88.265725 
L 257.242237 87.593566 
L 257.284247 87.593566 
L 257.389272 86.669346 
L 257.431282 86.585326 
L 257.515302 85.913166 
L 257.599322 85.829147 
L 257.704347 84.904927 
L 257.767362 84.904927 
L 257.830377 84.568847 
L 257.956407 84.484827 
L 258.061432 84.148747 
L 258.124447 84.064727 
L 258.229472 83.728647 
L 258.292487 83.728647 
L 258.376507 83.056488 
L 258.502537 82.972468 
L 258.586557 82.552368 
L 258.649571 82.552368 
L 258.670576 82.216288 
L 258.775601 82.216288 
L 258.880626 81.292068 
L 259.069671 81.208048 
L 259.174696 80.703929 
L 259.258716 80.619909 
L 259.363741 80.283829 
L 259.384746 80.283829 
L 259.447761 79.863729 
L 259.531781 79.863729 
L 259.636806 79.611669 
L 259.657811 79.611669 
L 259.741831 78.855489 
L 259.825851 78.77147 
L 259.867861 78.35137 
L 259.993891 78.35137 
L 259.993891 78.18333 
L 260.182936 78.09931 
L 260.245951 77.51117 
L 260.308966 77.51117 
L 260.413991 76.58695 
L 260.498011 76.50293 
L 260.603036 75.914791 
L 260.771076 75.914791 
L 260.876101 75.158611 
L 260.939116 75.074591 
L 261.04414 74.318411 
L 261.107155 74.234391 
L 261.21218 73.646252 
L 261.275195 73.562232 
L 261.38022 73.394192 
L 261.485245 73.394192 
L 261.54826 72.638012 
L 261.7163 72.553992 
L 261.821325 71.965852 
L 261.88434 71.965852 
L 261.96836 71.125653 
L 262.031375 71.125653 
L 262.1364 70.117413 
L 262.157405 70.117413 
L 262.22042 69.697313 
L 262.325445 69.613293 
L 262.43047 68.689074 
L 262.451475 68.689074 
L 262.535495 67.764854 
L 262.577505 67.764854 
L 262.68253 67.092694 
L 262.72454 67.092694 
L 262.829565 66.084455 
L 262.89258 66.084455 
L 262.997605 64.992195 
L 263.06062 64.908175 
L 263.165645 63.143756 
L 263.18665 63.143756 
L 263.27067 62.303557 
L 263.31268 62.303557 
L 263.417704 61.883457 
L 263.459714 61.799437 
L 263.564739 61.043257 
L 263.627754 60.959237 
L 263.627754 60.707177 
L 263.816799 60.623157 
L 263.921824 59.866978 
L 263.963834 59.782958 
L 263.963834 59.698938 
L 264.089864 59.698938 
L 264.194889 59.110798 
L 264.299914 59.026778 
L 264.404939 58.186578 
L 264.509964 58.102558 
L 264.614989 57.850498 
L 264.656999 57.766478 
L 264.762024 57.262359 
L 264.783029 57.262359 
L 264.888054 56.674219 
L 264.951069 56.590199 
L 265.056094 55.329899 
L 265.098104 55.24588 
L 265.203129 54.15362 
L 265.224134 54.15362 
L 265.308154 53.14538 
L 265.392174 53.06136 
L 265.497199 52.557241 
L 265.560214 52.473221 
L 265.665239 51.717041 
L 265.728253 51.633021 
L 265.833278 51.380961 
L 265.896293 51.296941 
L 266.001318 50.288702 
L 266.022323 50.288702 
L 266.127348 49.448502 
L 266.190363 49.364482 
L 266.295388 48.104183 
L 266.337398 48.020163 
L 266.442423 47.684083 
L 266.463428 47.684083 
L 266.526443 46.759863 
L 266.610463 46.759863 
L 266.715488 45.919663 
L 266.736493 45.919663 
L 266.841518 45.079464 
L 266.883528 44.995444 
L 266.988553 44.323284 
L 267.030563 44.323284 
L 267.135588 43.483084 
L 267.219608 43.399065 
L 267.219608 43.315045 
L 267.219608 43.315045 
" clip-path="url(#p6f1835f72e)" style="fill: none; stroke: #1f77b4; stroke-width: 1.5; stroke-linecap: square"/>
   </g>
   <g id="patch_3">
    <path d="M 55.069198 255.465455 
L 55.069198 41.214545 
" style="fill: none; stroke: #000000; stroke-width: 0.8; stroke-linejoin: miter; stroke-linecap: square"/>
   </g>
   <g id="patch_4">
    <path d="M 269.320107 255.465455 
L 269.320107 41.214545 
" style="fill: none; stroke: #000000; stroke-width: 0.8; stroke-linejoin: miter; stroke-linecap: square"/>
   </g>
   <g id="patch_5">
    <path d="M 55.069198 255.465455 
L 269.320107 255.465455 
" style="fill: none; stroke: #000000; stroke-width: 0.8; stroke-linejoin: miter; stroke-linecap: square"/>
   </g>
   <g id="patch_6">
    <path d="M 55.069198 41.214545 
L 269.320107 41.214545 
" style="fill: none; stroke: #000000; stroke-width: 0.8; stroke-linejoin: miter; stroke-linecap: square"/>
   </g>
   <g id="text_15">
    <!-- ROC Curve -->
    <g transform="translate(129.504027 35.214545) scale(0.12 -0.12)">
     <defs>
      <path id="DejaVuSans-4f" d="M 2522 4238 
Q 1834 4238 1429 3725 
Q 1025 3213 1025 2328 
Q 1025 1447 1429 934 
Q 1834 422 2522 422 
Q 3209 422 3611 934 
Q 4013 1447 4013 2328 
Q 4013 3213 3611 3725 
Q 3209 4238 2522 4238 
z
M 2522 4750 
Q 3503 4750 4090 4092 
Q 4678 3434 4678 2328 
Q 4678 1225 4090 567 
Q 3503 -91 2522 -91 
Q 1538 -91 948 565 
Q 359 1222 359 2328 
Q 359 3434 948 4092 
Q 1538 4750 2522 4750 
z
" transform="scale(0.015625)"/>
      <path id="DejaVuSans-43" d="M 4122 4306 
L 4122 3641 
Q 3803 3938 3442 4084 
Q 3081 4231 2675 4231 
Q 1875 4231 1450 3742 
Q 1025 3253 1025 2328 
Q 1025 1406 1450 917 
Q 1875 428 2675 428 
Q 3081 428 3442 575 
Q 3803 722 4122 1019 
L 4122 359 
Q 3791 134 3420 21 
Q 3050 -91 2638 -91 
Q 1578 -91 968 557 
Q 359 1206 359 2328 
Q 359 3453 968 4101 
Q 1578 4750 2638 4750 
Q 3056 4750 3426 4639 
Q 3797 4528 4122 4306 
z
" transform="scale(0.015625)"/>
     </defs>
     <use xlink:href="#DejaVuSans-52"/>
     <use xlink:href="#DejaVuSans-4f" transform="translate(69.482422 0)"/>
     <use xlink:href="#DejaVuSans-43" transform="translate(148.193359 0)"/>
     <use xlink:href="#DejaVuSans-20" transform="translate(218.017578 0)"/>
     <use xlink:href="#DejaVuSans-43" transform="translate(249.804688 0)"/>
     <use xlink:href="#DejaVuSans-75" transform="translate(319.628906 0)"/>
     <use xlink:href="#DejaVuSans-72" transform="translate(383.007812 0)"/>
     <use xlink:href="#DejaVuSans-76" transform="translate(424.121094 0)"/>
     <use xlink:href="#DejaVuSans-65" transform="translate(483.300781 0)"/>
    </g>
   </g>
   <g id="legend_1">
    <g id="patch_7">
     <path d="M 115.546669 250.465455 
L 262.320107 250.465455 
Q 264.320107 250.465455 264.320107 248.465455 
L 264.320107 234.78733 
Q 264.320107 232.78733 262.320107 232.78733 
L 115.546669 232.78733 
Q 113.546669 232.78733 113.546669 234.78733 
L 113.546669 248.465455 
Q 113.546669 250.465455 115.546669 250.465455 
z
" style="fill: #ffffff; opacity: 0.8; stroke: #cccccc; stroke-linejoin: miter"/>
    </g>
    <g id="line2d_14">
     <path d="M 117.546669 240.885767 
L 127.546669 240.885767 
L 137.546669 240.885767 
" style="fill: none; stroke: #1f77b4; stroke-width: 1.5; stroke-linecap: square"/>
    </g>
    <g id="text_16">
     <!-- Classifier (AUC = 0.19) -->
     <g transform="translate(145.546669 244.385767) scale(0.1 -0.1)">
      <defs>
       <path id="DejaVuSans-66" d="M 2375 4863 
L 2375 4384 
L 1825 4384 
Q 1516 4384 1395 4259 
Q 1275 4134 1275 3809 
L 1275 3500 
L 2222 3500 
L 2222 3053 
L 1275 3053 
L 1275 0 
L 697 0 
L 697 3053 
L 147 3053 
L 147 3500 
L 697 3500 
L 697 3744 
Q 697 4328 969 4595 
Q 1241 4863 1831 4863 
L 2375 4863 
z
" transform="scale(0.015625)"/>
       <path id="DejaVuSans-41" d="M 2188 4044 
L 1331 1722 
L 3047 1722 
L 2188 4044 
z
M 1831 4666 
L 2547 4666 
L 4325 0 
L 3669 0 
L 3244 1197 
L 1141 1197 
L 716 0 
L 50 0 
L 1831 4666 
z
" transform="scale(0.015625)"/>
       <path id="DejaVuSans-55" d="M 556 4666 
L 1191 4666 
L 1191 1831 
Q 1191 1081 1462 751 
Q 1734 422 2344 422 
Q 2950 422 3222 751 
Q 3494 1081 3494 1831 
L 3494 4666 
L 4128 4666 
L 4128 1753 
Q 4128 841 3676 375 
Q 3225 -91 2344 -91 
Q 1459 -91 1007 375 
Q 556 841 556 1753 
L 556 4666 
z
" transform="scale(0.015625)"/>
       <path id="DejaVuSans-3d" d="M 678 2906 
L 4684 2906 
L 4684 2381 
L 678 2381 
L 678 2906 
z
M 678 1631 
L 4684 1631 
L 4684 1100 
L 678 1100 
L 678 1631 
z
" transform="scale(0.015625)"/>
       <path id="DejaVuSans-39" d="M 703 97 
L 703 672 
Q 941 559 1184 500 
Q 1428 441 1663 441 
Q 2288 441 2617 861 
Q 2947 1281 2994 2138 
Q 2813 1869 2534 1725 
Q 2256 1581 1919 1581 
Q 1219 1581 811 2004 
Q 403 2428 403 3163 
Q 403 3881 828 4315 
Q 1253 4750 1959 4750 
Q 2769 4750 3195 4129 
Q 3622 3509 3622 2328 
Q 3622 1225 3098 567 
Q 2575 -91 1691 -91 
Q 1453 -91 1209 -44 
Q 966 3 703 97 
z
M 1959 2075 
Q 2384 2075 2632 2365 
Q 2881 2656 2881 3163 
Q 2881 3666 2632 3958 
Q 2384 4250 1959 4250 
Q 1534 4250 1286 3958 
Q 1038 3666 1038 3163 
Q 1038 2656 1286 2365 
Q 1534 2075 1959 2075 
z
" transform="scale(0.015625)"/>
      </defs>
      <use xlink:href="#DejaVuSans-43"/>
      <use xlink:href="#DejaVuSans-6c" transform="translate(69.824219 0)"/>
      <use xlink:href="#DejaVuSans-61" transform="translate(97.607422 0)"/>
      <use xlink:href="#DejaVuSans-73" transform="translate(158.886719 0)"/>
      <use xlink:href="#DejaVuSans-73" transform="translate(210.986328 0)"/>
      <use xlink:href="#DejaVuSans-69" transform="translate(263.085938 0)"/>
      <use xlink:href="#DejaVuSans-66" transform="translate(290.869141 0)"/>
      <use xlink:href="#DejaVuSans-69" transform="translate(326.074219 0)"/>
      <use xlink:href="#DejaVuSans-65" transform="translate(353.857422 0)"/>
      <use xlink:href="#DejaVuSans-72" transform="translate(415.380859 0)"/>
      <use xlink:href="#DejaVuSans-20" transform="translate(456.494141 0)"/>
      <use xlink:href="#DejaVuSans-28" transform="translate(488.28125 0)"/>
      <use xlink:href="#DejaVuSans-41" transform="translate(527.294922 0)"/>
      <use xlink:href="#DejaVuSans-55" transform="translate(595.703125 0)"/>
      <use xlink:href="#DejaVuSans-43" transform="translate(668.896484 0)"/>
      <use xlink:href="#DejaVuSans-20" transform="translate(738.720703 0)"/>
      <use xlink:href="#DejaVuSans-3d" transform="translate(770.507812 0)"/>
      <use xlink:href="#DejaVuSans-20" transform="translate(854.296875 0)"/>
      <use xlink:href="#DejaVuSans-30" transform="translate(886.083984 0)"/>
      <use xlink:href="#DejaVuSans-2e" transform="translate(949.707031 0)"/>
      <use xlink:href="#DejaVuSans-31" transform="translate(981.494141 0)"/>
      <use xlink:href="#DejaVuSans-39" transform="translate(1045.117188 0)"/>
      <use xlink:href="#DejaVuSans-29" transform="translate(1108.740234 0)"/>
     </g>
    </g>
   </g>
  </g>
  <g id="axes_2">
   <g id="patch_8">
    <path d="M 337.669198 255.465455 
L 551.920107 255.465455 
L 551.920107 41.214545 
L 337.669198 41.214545 
z
" style="fill: #ffffff"/>
   </g>
   <g id="matplotlib.axis_3">
    <g id="xtick_7">
     <g id="line2d_15">
      <g>
       <use xlink:href="#meb6972c8d4" x="339.769697" y="255.465455" style="stroke: #000000; stroke-width: 0.8"/>
      </g>
     </g>
     <g id="text_17">
      <!-- 0.0 -->
      <g transform="translate(331.818134 270.063892) scale(0.1 -0.1)">
       <use xlink:href="#DejaVuSans-30"/>
       <use xlink:href="#DejaVuSans-2e" transform="translate(63.623047 0)"/>
       <use xlink:href="#DejaVuSans-30" transform="translate(95.410156 0)"/>
      </g>
     </g>
    </g>
    <g id="xtick_8">
     <g id="line2d_16">
      <g>
       <use xlink:href="#meb6972c8d4" x="381.779679" y="255.465455" style="stroke: #000000; stroke-width: 0.8"/>
      </g>
     </g>
     <g id="text_18">
      <!-- 0.2 -->
      <g transform="translate(373.828117 270.063892) scale(0.1 -0.1)">
       <use xlink:href="#DejaVuSans-30"/>
       <use xlink:href="#DejaVuSans-2e" transform="translate(63.623047 0)"/>
       <use xlink:href="#DejaVuSans-32" transform="translate(95.410156 0)"/>
      </g>
     </g>
    </g>
    <g id="xtick_9">
     <g id="line2d_17">
      <g>
       <use xlink:href="#meb6972c8d4" x="423.789661" y="255.465455" style="stroke: #000000; stroke-width: 0.8"/>
      </g>
     </g>
     <g id="text_19">
      <!-- 0.4 -->
      <g transform="translate(415.838099 270.063892) scale(0.1 -0.1)">
       <use xlink:href="#DejaVuSans-30"/>
       <use xlink:href="#DejaVuSans-2e" transform="translate(63.623047 0)"/>
       <use xlink:href="#DejaVuSans-34" transform="translate(95.410156 0)"/>
      </g>
     </g>
    </g>
    <g id="xtick_10">
     <g id="line2d_18">
      <g>
       <use xlink:href="#meb6972c8d4" x="465.799643" y="255.465455" style="stroke: #000000; stroke-width: 0.8"/>
      </g>
     </g>
     <g id="text_20">
      <!-- 0.6 -->
      <g transform="translate(457.848081 270.063892) scale(0.1 -0.1)">
       <use xlink:href="#DejaVuSans-30"/>
       <use xlink:href="#DejaVuSans-2e" transform="translate(63.623047 0)"/>
       <use xlink:href="#DejaVuSans-36" transform="translate(95.410156 0)"/>
      </g>
     </g>
    </g>
    <g id="xtick_11">
     <g id="line2d_19">
      <g>
       <use xlink:href="#meb6972c8d4" x="507.809626" y="255.465455" style="stroke: #000000; stroke-width: 0.8"/>
      </g>
     </g>
     <g id="text_21">
      <!-- 0.8 -->
      <g transform="translate(499.858063 270.063892) scale(0.1 -0.1)">
       <use xlink:href="#DejaVuSans-30"/>
       <use xlink:href="#DejaVuSans-2e" transform="translate(63.623047 0)"/>
       <use xlink:href="#DejaVuSans-38" transform="translate(95.410156 0)"/>
      </g>
     </g>
    </g>
    <g id="xtick_12">
     <g id="line2d_20">
      <g>
       <use xlink:href="#meb6972c8d4" x="549.819608" y="255.465455" style="stroke: #000000; stroke-width: 0.8"/>
      </g>
     </g>
     <g id="text_22">
      <!-- 1.0 -->
      <g transform="translate(541.868045 270.063892) scale(0.1 -0.1)">
       <use xlink:href="#DejaVuSans-31"/>
       <use xlink:href="#DejaVuSans-2e" transform="translate(63.623047 0)"/>
       <use xlink:href="#DejaVuSans-30" transform="translate(95.410156 0)"/>
      </g>
     </g>
    </g>
    <g id="text_23">
     <!-- Recall (Positive label: 1) -->
     <g transform="translate(384.978246 283.742017) scale(0.1 -0.1)">
      <defs>
       <path id="DejaVuSans-63" d="M 3122 3366 
L 3122 2828 
Q 2878 2963 2633 3030 
Q 2388 3097 2138 3097 
Q 1578 3097 1268 2742 
Q 959 2388 959 1747 
Q 959 1106 1268 751 
Q 1578 397 2138 397 
Q 2388 397 2633 464 
Q 2878 531 3122 666 
L 3122 134 
Q 2881 22 2623 -34 
Q 2366 -91 2075 -91 
Q 1284 -91 818 406 
Q 353 903 353 1747 
Q 353 2603 823 3093 
Q 1294 3584 2113 3584 
Q 2378 3584 2631 3529 
Q 2884 3475 3122 3366 
z
" transform="scale(0.015625)"/>
      </defs>
      <use xlink:href="#DejaVuSans-52"/>
      <use xlink:href="#DejaVuSans-65" transform="translate(64.982422 0)"/>
      <use xlink:href="#DejaVuSans-63" transform="translate(126.505859 0)"/>
      <use xlink:href="#DejaVuSans-61" transform="translate(181.486328 0)"/>
      <use xlink:href="#DejaVuSans-6c" transform="translate(242.765625 0)"/>
      <use xlink:href="#DejaVuSans-6c" transform="translate(270.548828 0)"/>
      <use xlink:href="#DejaVuSans-20" transform="translate(298.332031 0)"/>
      <use xlink:href="#DejaVuSans-28" transform="translate(330.119141 0)"/>
      <use xlink:href="#DejaVuSans-50" transform="translate(369.132812 0)"/>
      <use xlink:href="#DejaVuSans-6f" transform="translate(425.810547 0)"/>
      <use xlink:href="#DejaVuSans-73" transform="translate(486.992188 0)"/>
      <use xlink:href="#DejaVuSans-69" transform="translate(539.091797 0)"/>
      <use xlink:href="#DejaVuSans-74" transform="translate(566.875 0)"/>
      <use xlink:href="#DejaVuSans-69" transform="translate(606.083984 0)"/>
      <use xlink:href="#DejaVuSans-76" transform="translate(633.867188 0)"/>
      <use xlink:href="#DejaVuSans-65" transform="translate(693.046875 0)"/>
      <use xlink:href="#DejaVuSans-20" transform="translate(754.570312 0)"/>
      <use xlink:href="#DejaVuSans-6c" transform="translate(786.357422 0)"/>
      <use xlink:href="#DejaVuSans-61" transform="translate(814.140625 0)"/>
      <use xlink:href="#DejaVuSans-62" transform="translate(875.419922 0)"/>
      <use xlink:href="#DejaVuSans-65" transform="translate(938.896484 0)"/>
      <use xlink:href="#DejaVuSans-6c" transform="translate(1000.419922 0)"/>
      <use xlink:href="#DejaVuSans-3a" transform="translate(1028.203125 0)"/>
      <use xlink:href="#DejaVuSans-20" transform="translate(1061.894531 0)"/>
      <use xlink:href="#DejaVuSans-31" transform="translate(1093.681641 0)"/>
      <use xlink:href="#DejaVuSans-29" transform="translate(1157.304688 0)"/>
     </g>
    </g>
   </g>
   <g id="matplotlib.axis_4">
    <g id="ytick_7">
     <g id="line2d_21">
      <g>
       <use xlink:href="#m65c8499772" x="337.669198" y="253.364955" style="stroke: #000000; stroke-width: 0.8"/>
      </g>
     </g>
     <g id="text_24">
      <!-- 0.0 -->
      <g transform="translate(314.766073 257.164174) scale(0.1 -0.1)">
       <use xlink:href="#DejaVuSans-30"/>
       <use xlink:href="#DejaVuSans-2e" transform="translate(63.623047 0)"/>
       <use xlink:href="#DejaVuSans-30" transform="translate(95.410156 0)"/>
      </g>
     </g>
    </g>
    <g id="ytick_8">
     <g id="line2d_22">
      <g>
       <use xlink:href="#m65c8499772" x="337.669198" y="211.354973" style="stroke: #000000; stroke-width: 0.8"/>
      </g>
     </g>
     <g id="text_25">
      <!-- 0.2 -->
      <g transform="translate(314.766073 215.154192) scale(0.1 -0.1)">
       <use xlink:href="#DejaVuSans-30"/>
       <use xlink:href="#DejaVuSans-2e" transform="translate(63.623047 0)"/>
       <use xlink:href="#DejaVuSans-32" transform="translate(95.410156 0)"/>
      </g>
     </g>
    </g>
    <g id="ytick_9">
     <g id="line2d_23">
      <g>
       <use xlink:href="#m65c8499772" x="337.669198" y="169.344991" style="stroke: #000000; stroke-width: 0.8"/>
      </g>
     </g>
     <g id="text_26">
      <!-- 0.4 -->
      <g transform="translate(314.766073 173.14421) scale(0.1 -0.1)">
       <use xlink:href="#DejaVuSans-30"/>
       <use xlink:href="#DejaVuSans-2e" transform="translate(63.623047 0)"/>
       <use xlink:href="#DejaVuSans-34" transform="translate(95.410156 0)"/>
      </g>
     </g>
    </g>
    <g id="ytick_10">
     <g id="line2d_24">
      <g>
       <use xlink:href="#m65c8499772" x="337.669198" y="127.335009" style="stroke: #000000; stroke-width: 0.8"/>
      </g>
     </g>
     <g id="text_27">
      <!-- 0.6 -->
      <g transform="translate(314.766073 131.134228) scale(0.1 -0.1)">
       <use xlink:href="#DejaVuSans-30"/>
       <use xlink:href="#DejaVuSans-2e" transform="translate(63.623047 0)"/>
       <use xlink:href="#DejaVuSans-36" transform="translate(95.410156 0)"/>
      </g>
     </g>
    </g>
    <g id="ytick_11">
     <g id="line2d_25">
      <g>
       <use xlink:href="#m65c8499772" x="337.669198" y="85.325027" style="stroke: #000000; stroke-width: 0.8"/>
      </g>
     </g>
     <g id="text_28">
      <!-- 0.8 -->
      <g transform="translate(314.766073 89.124245) scale(0.1 -0.1)">
       <use xlink:href="#DejaVuSans-30"/>
       <use xlink:href="#DejaVuSans-2e" transform="translate(63.623047 0)"/>
       <use xlink:href="#DejaVuSans-38" transform="translate(95.410156 0)"/>
      </g>
     </g>
    </g>
    <g id="ytick_12">
     <g id="line2d_26">
      <g>
       <use xlink:href="#m65c8499772" x="337.669198" y="43.315045" style="stroke: #000000; stroke-width: 0.8"/>
      </g>
     </g>
     <g id="text_29">
      <!-- 1.0 -->
      <g transform="translate(314.766073 47.114263) scale(0.1 -0.1)">
       <use xlink:href="#DejaVuSans-31"/>
       <use xlink:href="#DejaVuSans-2e" transform="translate(63.623047 0)"/>
       <use xlink:href="#DejaVuSans-30" transform="translate(95.410156 0)"/>
      </g>
     </g>
    </g>
    <g id="text_30">
     <!-- Precision (Positive label: 1) -->
     <g transform="translate(308.686385 215.54625) rotate(-90) scale(0.1 -0.1)">
      <defs>
       <path id="DejaVuSans-6e" d="M 3513 2113 
L 3513 0 
L 2938 0 
L 2938 2094 
Q 2938 2591 2744 2837 
Q 2550 3084 2163 3084 
Q 1697 3084 1428 2787 
Q 1159 2491 1159 1978 
L 1159 0 
L 581 0 
L 581 3500 
L 1159 3500 
L 1159 2956 
Q 1366 3272 1645 3428 
Q 1925 3584 2291 3584 
Q 2894 3584 3203 3211 
Q 3513 2838 3513 2113 
z
" transform="scale(0.015625)"/>
      </defs>
      <use xlink:href="#DejaVuSans-50"/>
      <use xlink:href="#DejaVuSans-72" transform="translate(58.552734 0)"/>
      <use xlink:href="#DejaVuSans-65" transform="translate(97.416016 0)"/>
      <use xlink:href="#DejaVuSans-63" transform="translate(158.939453 0)"/>
      <use xlink:href="#DejaVuSans-69" transform="translate(213.919922 0)"/>
      <use xlink:href="#DejaVuSans-73" transform="translate(241.703125 0)"/>
      <use xlink:href="#DejaVuSans-69" transform="translate(293.802734 0)"/>
      <use xlink:href="#DejaVuSans-6f" transform="translate(321.585938 0)"/>
      <use xlink:href="#DejaVuSans-6e" transform="translate(382.767578 0)"/>
      <use xlink:href="#DejaVuSans-20" transform="translate(446.146484 0)"/>
      <use xlink:href="#DejaVuSans-28" transform="translate(477.933594 0)"/>
      <use xlink:href="#DejaVuSans-50" transform="translate(516.947266 0)"/>
      <use xlink:href="#DejaVuSans-6f" transform="translate(573.625 0)"/>
      <use xlink:href="#DejaVuSans-73" transform="translate(634.806641 0)"/>
      <use xlink:href="#DejaVuSans-69" transform="translate(686.90625 0)"/>
      <use xlink:href="#DejaVuSans-74" transform="translate(714.689453 0)"/>
      <use xlink:href="#DejaVuSans-69" transform="translate(753.898438 0)"/>
      <use xlink:href="#DejaVuSans-76" transform="translate(781.681641 0)"/>
      <use xlink:href="#DejaVuSans-65" transform="translate(840.861328 0)"/>
      <use xlink:href="#DejaVuSans-20" transform="translate(902.384766 0)"/>
      <use xlink:href="#DejaVuSans-6c" transform="translate(934.171875 0)"/>
      <use xlink:href="#DejaVuSans-61" transform="translate(961.955078 0)"/>
      <use xlink:href="#DejaVuSans-62" transform="translate(1023.234375 0)"/>
      <use xlink:href="#DejaVuSans-65" transform="translate(1086.710938 0)"/>
      <use xlink:href="#DejaVuSans-6c" transform="translate(1148.234375 0)"/>
      <use xlink:href="#DejaVuSans-3a" transform="translate(1176.017578 0)"/>
      <use xlink:href="#DejaVuSans-20" transform="translate(1209.708984 0)"/>
      <use xlink:href="#DejaVuSans-31" transform="translate(1241.496094 0)"/>
      <use xlink:href="#DejaVuSans-29" transform="translate(1305.119141 0)"/>
     </g>
    </g>
   </g>
   <g id="line2d_27">
    <path d="M 549.819608 211.354973 
L 548.895388 211.459317 
L 548.811368 211.486265 
L 548.811368 211.479552 
L 547.971169 211.57748 
L 547.887149 211.604491 
L 547.887149 211.601139 
L 547.046949 211.706069 
L 546.962929 211.733137 
L 546.038709 211.838546 
L 545.954689 211.865682 
L 545.954689 211.86234 
L 545.03047 211.968134 
L 544.94645 211.992002 
L 544.19027 212.094251 
L 544.10625 212.111513 
L 543.266051 212.21433 
L 543.182031 212.241647 
L 542.341831 212.348085 
L 542.257811 212.372139 
L 541.249571 212.476467 
L 541.165552 212.503923 
L 540.241332 212.611551 
L 540.157312 212.632454 
L 540.157312 212.629142 
L 539.317112 212.739918 
L 539.233092 212.757587 
L 538.392893 212.86536 
L 538.308873 212.89301 
L 537.552693 212.990523 
L 537.468673 213.018226 
L 536.712493 213.12255 
L 536.628473 213.150301 
L 536.628473 213.14044 
L 535.704254 213.24654 
L 535.620234 213.274368 
L 534.611994 213.375148 
L 534.527974 213.403063 
L 534.527974 213.396503 
L 533.603755 213.493651 
L 533.519735 213.521648 
L 532.595515 213.629057 
L 532.511495 213.647308 
L 532.511495 213.64076 
L 531.587276 213.738789 
L 531.503256 213.766947 
L 530.579036 213.871957 
L 530.495016 213.90019 
L 530.495016 213.893656 
L 529.738836 213.996913 
L 529.654816 214.021942 
L 528.898637 214.125437 
L 528.814617 214.15378 
L 528.058437 214.254259 
L 527.974417 214.282656 
L 527.218237 214.383381 
L 527.134217 214.408593 
L 526.378038 214.509569 
L 526.294018 214.534845 
L 526.294018 214.531611 
L 525.453818 214.630981 
L 525.369798 214.659562 
L 525.369798 214.653104 
L 524.613619 214.754645 
L 524.529599 214.783285 
L 523.689399 214.892989 
L 523.605379 214.921693 
L 522.765179 215.022092 
L 522.681159 215.050866 
L 521.84096 215.151629 
L 521.75694 215.180473 
L 521.75694 215.174063 
L 521.00076 215.276752 
L 520.91674 215.296058 
L 519.99252 215.402423 
L 519.908501 215.428218 
L 518.900261 215.530429 
L 518.816241 215.553132 
L 518.816241 215.549938 
L 518.060061 215.65048 
L 517.976041 215.673258 
L 517.976041 215.670069 
L 517.219862 215.770896 
L 517.219862 215.785505 
L 517.219862 215.760021 
L 517.135842 215.768265 
L 516.295642 215.874515 
L 516.211622 215.903825 
L 516.211622 215.900643 
L 515.455442 215.998934 
L 515.371422 216.021955 
L 515.371422 216.018778 
L 514.363183 216.126637 
L 514.279163 216.15294 
L 514.279163 216.143416 
L 513.522983 216.248783 
L 513.438963 216.275158 
L 513.438963 216.259309 
L 512.598764 216.357617 
L 512.514744 216.380917 
L 512.514744 216.374581 
L 511.506504 216.484036 
L 511.422484 216.510613 
L 511.422484 216.507447 
L 510.582284 216.616158 
L 510.498265 216.636497 
L 510.498265 216.630175 
L 509.658065 216.726658 
L 509.574045 216.756567 
L 508.649825 216.855848 
L 508.565805 216.882698 
L 508.565805 216.866921 
L 507.809626 216.968188 
L 507.725606 216.985665 
L 506.969426 217.090398 
L 506.885406 217.120549 
L 506.885406 217.117404 
L 506.045206 217.224981 
L 505.961186 217.255211 
L 505.205007 217.360577 
L 505.120987 217.387738 
L 505.120987 217.381475 
L 504.364807 217.484022 
L 504.280787 217.508135 
L 503.104508 217.615299 
L 503.020488 217.642682 
L 502.180288 217.745795 
L 502.096268 217.776389 
L 502.096268 217.770146 
L 501.340088 217.873954 
L 501.256068 217.904619 
L 501.256068 217.895273 
L 500.499889 218.00252 
L 500.415869 218.023929 
L 499.659689 218.134597 
L 499.575669 218.162301 
L 498.73547 218.260825 
L 498.65145 218.285526 
L 498.65145 218.270029 
L 497.89527 218.36593 
L 497.81125 218.396916 
L 497.81125 218.393821 
L 497.13909 218.493097 
L 497.05507 218.521054 
L 496.382911 218.620558 
L 496.298891 218.6455 
L 495.458691 218.745653 
L 495.374671 218.773773 
L 495.374671 218.770697 
L 494.366431 218.878031 
L 494.282411 218.903203 
L 493.442212 219.010559 
L 493.358192 219.035833 
L 493.358192 219.029693 
L 492.433972 219.137947 
L 492.349952 219.163338 
L 492.349952 219.157204 
L 491.509753 219.265576 
L 491.425733 219.294135 
L 491.425733 219.291073 
L 490.753573 219.392684 
L 490.669553 219.418259 
L 490.669553 219.415204 
L 489.997393 219.520113 
L 489.913373 219.548812 
L 489.913373 219.545765 
L 489.157194 219.651604 
L 489.073174 219.677348 
L 489.073174 219.674307 
L 488.232974 219.775208 
L 488.148954 219.801063 
L 488.148954 219.798026 
L 487.476794 219.897764 
L 487.392774 219.92673 
L 487.392774 219.914607 
L 486.720615 220.011599 
L 486.636595 220.040646 
L 486.636595 220.037621 
L 485.796395 220.133806 
L 485.712375 220.162963 
L 485.712375 220.159941 
L 484.872175 220.259679 
L 484.788155 220.288945 
L 484.788155 220.282909 
L 484.115996 220.383973 
L 484.031976 220.416326 
L 484.031976 220.413316 
L 483.359816 220.50863 
L 483.275796 220.541054 
L 482.603636 220.636651 
L 482.519616 220.669142 
L 482.519616 220.660154 
L 481.763437 220.769342 
L 481.679417 220.798928 
L 481.679417 220.786967 
L 480.839217 220.891978 
L 480.755197 220.912718 
L 479.999017 221.022769 
L 479.914998 221.052565 
L 479.158818 221.160019 
L 479.074798 221.192877 
L 479.074798 221.186932 
L 478.066558 221.290766 
L 477.982538 221.320802 
L 477.982538 221.31783 
L 477.226359 221.420353 
L 477.142339 221.453452 
L 476.134099 221.555831 
L 476.050079 221.574253 
L 476.050079 221.571287 
L 475.377919 221.673008 
L 475.293899 221.694502 
L 474.62174 221.799487 
L 474.53772 221.832896 
L 474.53772 221.82404 
L 473.78154 221.931326 
L 473.69752 221.964828 
L 472.773301 222.073781 
L 472.689281 222.107411 
L 472.017121 222.207618 
L 471.933101 222.24132 
L 471.933101 222.235456 
L 471.008881 222.339817 
L 470.924861 222.37073 
L 470.924861 222.353141 
L 470.252702 222.448346 
L 470.168682 222.476433 
L 470.168682 222.473506 
L 469.496522 222.571985 
L 469.412502 222.60601 
L 469.412502 222.60309 
L 468.740342 222.704814 
L 468.656322 222.733093 
L 467.984163 222.832236 
L 467.900143 222.863516 
L 467.900143 222.857706 
L 467.227983 222.957196 
L 467.143963 222.979873 
L 467.143963 222.974073 
L 466.471803 223.076822 
L 466.387783 223.111184 
L 466.387783 223.108292 
L 465.715624 223.208479 
L 465.631604 223.242922 
L 465.043464 223.340577 
L 464.959444 223.372203 
L 464.287284 223.475873 
L 464.203264 223.510453 
L 464.203264 223.507587 
L 463.363065 223.61479 
L 463.279045 223.646633 
L 463.279045 223.63805 
L 462.606885 223.742532 
L 462.522865 223.777323 
L 461.850705 223.882132 
L 461.766685 223.917 
L 461.766685 223.911313 
L 461.094525 224.010785 
L 461.010506 224.045743 
L 460.422366 224.139382 
L 460.338346 224.171578 
L 459.750206 224.268278 
L 459.666186 224.300549 
L 459.666186 224.289272 
L 458.994026 224.395368 
L 458.910006 224.43055 
L 458.153827 224.537783 
L 458.069807 224.573067 
L 458.069807 224.570264 
L 457.397647 224.671515 
L 457.313627 224.692907 
L 457.313627 224.681712 
L 456.389407 224.777916 
L 456.305388 224.813483 
L 455.381168 224.913379 
L 455.297148 224.949113 
L 455.297148 224.946317 
L 454.624988 225.04641 
L 454.540968 225.07666 
L 453.784789 225.181201 
L 453.700769 225.217146 
L 453.700769 225.214364 
L 453.028609 225.315329 
L 452.944589 225.351368 
L 452.272429 225.444424 
L 452.188409 225.47503 
L 452.188409 225.472262 
L 451.43223 225.567306 
L 451.34821 225.603582 
L 450.59203 225.704752 
L 450.50801 225.724602 
L 450.50801 225.713559 
L 449.75183 225.815358 
L 449.66781 225.851909 
L 449.66781 225.843641 
L 448.911631 225.94605 
L 448.827611 225.979983 
L 448.827611 225.977232 
L 448.239471 226.079164 
L 448.155451 226.115922 
L 447.567311 226.21536 
L 447.567311 226.233773 
L 447.567311 226.21464 
L 447.483291 226.216656 
L 446.895152 226.319175 
L 446.811132 226.353389 
L 446.811132 226.345207 
L 446.138972 226.444741 
L 446.054952 226.473635 
L 446.054952 226.468191 
L 445.382792 226.565484 
L 445.298772 226.597231 
L 445.298772 226.589081 
L 444.542593 226.691951 
L 444.458573 226.729276 
L 444.458573 226.715715 
L 443.450333 226.823965 
L 443.366313 226.85067 
L 442.610133 226.952397 
L 442.526113 226.990105 
L 442.526113 226.984688 
L 441.853954 227.078994 
L 441.769934 227.116825 
L 441.769934 227.11142 
L 441.181794 227.206162 
L 441.097774 227.233308 
L 441.097774 227.225218 
L 440.509634 227.3284 
L 440.425614 227.355674 
L 439.837475 227.459162 
L 439.753455 227.494598 
L 439.753455 227.489242 
L 438.913255 227.596913 
L 438.829235 227.629858 
L 438.829235 227.605766 
L 438.157075 227.713346 
L 438.073055 227.751782 
L 438.073055 227.749113 
L 437.400896 227.857172 
L 437.316876 227.895718 
L 437.316876 227.893058 
L 436.728736 228.000852 
L 436.644716 228.03153 
L 436.644716 228.01562 
L 436.056576 228.11582 
L 435.972556 228.154563 
L 435.972556 228.146632 
L 435.216376 228.254373 
L 435.132357 228.274801 
L 435.132357 228.269519 
L 434.460197 228.369038 
L 434.376177 228.402824 
L 433.872057 228.495294 
L 433.788037 228.53442 
L 433.788037 228.526548 
L 433.115877 228.621788 
L 433.031857 228.658438 
L 433.031857 228.65582 
L 432.443718 228.760701 
L 432.359698 228.784409 
L 432.359698 228.781799 
L 431.855578 228.880336 
L 431.771558 228.917182 
L 431.771558 228.914583 
L 430.931358 229.014592 
L 430.847338 229.054246 
L 430.847338 229.043859 
L 430.259199 229.142255 
L 430.175179 229.182021 
L 430.175179 229.179433 
L 429.503019 229.285239 
L 429.418999 229.322555 
L 429.418999 229.319976 
L 428.662819 229.423199 
L 428.578799 229.458123 
L 428.578799 229.447821 
L 427.99066 229.542526 
L 427.99066 229.562624 
L 427.99066 229.542056 
L 427.90664 229.562173 
L 427.3185 229.657342 
L 427.23448 229.69768 
L 427.23448 229.689993 
L 426.64634 229.788157 
L 426.56232 229.818395 
L 426.56232 229.805611 
L 425.97418 229.914444 
L 425.89016 229.94993 
L 425.89016 229.924437 
L 425.133981 230.020976 
L 425.049961 230.06179 
L 425.049961 230.059243 
L 424.293781 230.164313 
L 424.209761 230.1926 
L 423.621621 230.290416 
L 423.537601 230.329012 
L 423.537601 230.326478 
L 422.949462 230.427274 
L 422.865442 230.463471 
L 422.865442 230.458421 
L 422.277302 230.559669 
L 422.193282 230.60104 
L 422.193282 230.596009 
L 421.689162 230.694524 
L 421.605142 230.735975 
L 421.017002 230.830509 
L 420.932983 230.872082 
L 420.260823 230.970529 
L 420.176803 230.99485 
L 420.176803 230.992361 
L 419.420623 231.090135 
L 419.336603 231.127139 
L 418.748463 231.225958 
L 418.664443 231.260633 
L 418.664443 231.25072 
L 418.076304 231.350064 
L 417.992284 231.38985 
L 417.404144 231.484756 
L 417.320124 231.514841 
L 416.816004 231.606231 
L 416.731984 231.643831 
L 416.731984 231.641379 
L 416.143845 231.747061 
L 416.059825 231.782369 
L 415.555705 231.8769 
L 415.471685 231.914772 
L 414.967565 232.00718 
L 414.883545 232.047596 
L 414.379425 232.145141 
L 414.295405 232.180843 
L 414.295405 232.171204 
L 413.791286 232.266673 
L 413.707266 232.309719 
L 413.119126 232.417486 
L 413.035106 232.46065 
L 413.035106 232.455878 
L 412.446966 232.544872 
L 412.446966 232.588149 
L 412.362946 232.581272 
L 411.774806 232.68297 
L 411.690786 232.726443 
L 411.690786 232.721704 
L 411.102647 232.823949 
L 411.018627 232.860486 
L 411.018627 232.858126 
L 410.430487 232.958584 
L 410.346467 233.002356 
L 409.758327 233.110403 
L 409.674307 233.137927 
L 409.674307 233.130901 
L 409.170188 233.238519 
L 409.086168 233.282538 
L 409.086168 233.275554 
L 408.582048 233.374133 
L 408.498028 233.411312 
L 408.498028 233.408994 
L 407.993908 233.512528 
L 407.909888 233.554457 
L 407.909888 233.549848 
L 407.405768 233.644486 
L 407.321748 233.688837 
L 407.321748 233.684251 
L 406.649589 233.789443 
L 406.565569 233.824857 
L 406.061449 233.922726 
L 405.977429 233.965128 
L 405.977429 233.958304 
L 405.305269 234.053716 
L 405.221249 234.094094 
L 405.221249 234.091825 
L 404.717129 234.183899 
L 404.633109 234.228948 
L 404.633109 234.22443 
L 403.96095 234.33509 
L 403.87693 234.380345 
L 403.37281 234.482385 
L 403.28879 234.527739 
L 402.78467 234.621196 
L 402.70065 234.657776 
L 402.70065 234.6511 
L 402.028491 234.744043 
L 401.944471 234.780913 
L 401.356331 234.880765 
L 401.272311 234.915647 
L 401.272311 234.911219 
L 400.768191 235.01745 
L 400.684171 235.059127 
L 400.684171 235.056926 
L 400.096031 235.155902 
L 400.012011 235.191215 
L 399.423872 235.288765 
L 399.339852 235.335248 
L 399.339852 235.322141 
L 398.835732 235.410228 
L 398.751712 235.456887 
L 398.247592 235.55632 
L 398.163572 235.596615 
L 398.163572 235.594452 
L 397.575432 235.698404 
L 397.491412 235.738928 
L 397.491412 235.730312 
L 397.071313 235.817978 
L 396.987293 235.865079 
L 396.987293 235.852224 
L 396.399153 235.959641 
L 396.315133 235.992018 
L 396.315133 235.987747 
L 395.811013 236.091369 
L 395.726993 236.138845 
L 395.726993 236.136724 
L 395.138853 236.239206 
L 395.054834 236.284772 
L 395.054834 236.282661 
L 394.382674 236.371978 
L 394.298654 236.413651 
L 394.298654 236.409434 
L 393.794534 236.514913 
L 393.710514 236.563056 
L 393.710514 236.556774 
L 393.206394 236.654353 
L 393.122374 236.694328 
L 392.534235 236.791775 
L 392.450215 236.840326 
L 392.450215 236.829953 
L 391.946095 236.924658 
L 391.862075 236.963073 
L 391.862075 236.961007 
L 391.357955 237.056321 
L 391.273935 237.097034 
L 391.273935 237.092923 
L 390.685795 237.186768 
L 390.601775 237.227788 
L 390.097656 237.316318 
L 390.013636 237.363701 
L 390.013636 237.343291 
L 389.509516 237.440691 
L 389.425496 237.486278 
L 389.425496 237.47815 
L 388.837356 237.588964 
L 388.753336 237.638861 
L 388.753336 237.6328 
L 388.249216 237.743642 
L 388.165196 237.789679 
L 388.165196 237.781654 
L 387.661077 237.873028 
L 387.577057 237.921306 
L 387.072937 238.017352 
L 386.988917 238.067813 
L 386.400777 238.168111 
L 386.316757 238.216862 
L 386.316757 238.205022 
L 385.812637 238.306533 
L 385.728617 238.351588 
L 385.728617 238.339808 
L 385.224498 238.428318 
L 385.140478 238.469755 
L 384.636358 238.570761 
L 384.552338 238.618301 
L 384.552338 238.614415 
L 383.964198 238.709017 
L 383.880178 238.75303 
L 383.376058 238.851807 
L 383.292039 238.901862 
L 383.292039 238.892243 
L 382.787919 238.978359 
L 382.703899 239.028705 
L 382.703899 239.017207 
L 382.283799 239.114279 
L 382.199779 239.157186 
L 382.199779 239.153379 
L 381.779679 239.247031 
L 381.695659 239.299617 
L 381.191539 239.404959 
L 381.107519 239.446497 
L 381.107519 239.438994 
L 380.6034 239.528312 
L 380.51938 239.577676 
L 380.51938 239.573943 
L 380.01526 239.660462 
L 380.01526 239.687154 
L 380.01526 239.659206 
L 379.93124 239.682228 
L 379.51114 239.776357 
L 379.42712 239.826302 
L 379.42712 239.818903 
L 378.923 239.905391 
L 378.83898 239.957514 
L 378.83898 239.955674 
L 378.334861 240.050506 
L 378.250841 240.097426 
L 378.250841 240.08827 
L 377.830741 240.18057 
L 377.746721 240.231388 
L 377.746721 240.20043 
L 377.158581 240.299089 
L 377.074561 240.348604 
L 377.074561 240.344969 
L 376.654461 240.446034 
L 376.570441 240.501161 
L 376.570441 240.493962 
L 376.066322 240.590853 
L 375.982302 240.64092 
L 375.982302 240.621218 
L 375.562202 240.707418 
L 375.478182 240.756027 
L 375.478182 240.743548 
L 375.058082 240.837542 
L 374.974062 240.893521 
L 374.974062 240.891754 
L 374.553962 240.975713 
L 374.469942 241.021385 
L 374.469942 241.012597 
L 374.049842 241.099048 
L 373.965822 241.146817 
L 373.965822 241.145071 
L 373.545723 241.239169 
L 373.461703 241.294159 
L 373.461703 241.283772 
L 373.041603 241.368147 
L 372.957583 241.419992 
L 372.957583 241.388957 
L 372.537483 241.491381 
L 372.453463 241.531586 
L 372.453463 241.524727 
L 372.033363 241.624361 
L 371.949343 241.676867 
L 371.949343 241.67007 
L 371.529243 241.763539 
L 371.445224 241.812976 
L 371.445224 241.79779 
L 371.025124 241.898745 
L 370.941104 241.951874 
L 370.268944 242.056249 
L 370.184924 242.110061 
L 370.184924 242.103393 
L 369.764824 242.196402 
L 369.680804 242.248891 
L 369.680804 242.235655 
L 369.260704 242.324554 
L 369.176684 242.380723 
L 369.176684 242.375797 
L 368.756585 242.478606 
L 368.672565 242.520416 
L 368.672565 242.517159 
L 368.252465 242.619098 
L 368.168445 242.679093 
L 368.168445 242.666211 
L 367.580305 242.760246 
L 367.496285 242.816109 
L 367.496285 242.812897 
L 366.992165 242.921905 
L 366.908145 242.981405 
L 366.908145 242.979815 
L 366.572066 243.062078 
L 366.488046 243.110753 
L 366.488046 243.096566 
L 366.067946 243.197594 
L 365.983926 243.259239 
L 365.983926 243.240504 
L 365.563826 243.339328 
L 365.479806 243.399797 
L 365.479806 243.398252 
L 365.143726 243.480638 
L 365.059706 243.536722 
L 365.059706 243.522953 
L 364.723626 243.616494 
L 364.639606 243.675884 
L 364.639606 243.656215 
L 364.303527 243.744098 
L 364.219507 243.794809 
L 364.219507 243.793311 
L 363.883427 243.87713 
L 363.883427 243.908591 
L 363.883427 243.87435 
L 363.799407 243.895492 
L 363.463327 243.977065 
L 363.379307 244.033094 
L 363.379307 244.025711 
L 363.043227 244.112242 
L 362.959207 244.174439 
L 362.959207 244.170066 
L 362.539107 244.251289 
L 362.455087 244.31108 
L 362.455087 244.309634 
L 362.119007 244.395928 
L 362.034988 244.455988 
L 362.034988 244.451709 
L 361.698908 244.537064 
L 361.614888 244.588967 
L 361.614888 244.587556 
L 361.194788 244.683525 
L 361.110768 244.726245 
L 361.110768 244.723446 
L 360.690668 244.823563 
L 360.606648 244.882236 
L 360.606648 244.860077 
L 360.102528 244.968488 
L 360.018508 245.014241 
L 359.598409 245.096922 
L 359.514389 245.162608 
L 359.094289 245.271289 
L 359.010269 245.330643 
L 359.010269 245.315854 
L 358.590169 245.415211 
L 358.506149 245.4726 
L 358.506149 245.47127 
L 358.170069 245.553769 
L 358.086049 245.599841 
L 358.086049 245.591932 
L 357.749969 245.680638 
L 357.665949 245.749529 
L 357.665949 245.737845 
L 357.32987 245.815669 
L 357.24585 245.877315 
L 357.24585 245.854145 
L 356.90977 245.933089 
L 356.82575 245.986493 
L 356.82575 245.976265 
L 356.48967 246.072822 
L 356.40565 246.134447 
L 356.06957 246.220401 
L 355.98555 246.28627 
L 355.98555 246.253987 
L 355.56545 246.33975 
L 355.56545 246.375684 
L 355.56545 246.338375 
L 355.48143 246.370772 
L 355.06133 246.474987 
L 354.977311 246.541726 
L 354.977311 246.53805 
L 354.641231 246.633071 
L 354.557211 246.696704 
L 354.557211 246.695501 
L 354.221131 246.785445 
L 354.137111 246.850894 
L 354.137111 246.833125 
L 353.801031 246.931339 
L 353.717011 246.995155 
L 353.717011 246.985833 
L 353.380931 247.079269 
L 353.296911 247.151831 
L 353.296911 247.140395 
L 352.876811 247.244347 
L 352.792791 247.312207 
L 352.792791 247.269143 
L 352.372692 247.369202 
L 352.288672 247.416003 
L 352.288672 247.408077 
L 351.868572 247.49877 
L 351.784552 247.55394 
L 351.784552 247.532502 
L 351.448472 247.605655 
L 351.364452 247.671204 
L 351.364452 247.646493 
L 351.028372 247.721824 
L 350.944352 247.800996 
L 350.944352 247.791005 
L 350.692292 247.864948 
L 350.608272 247.939157 
L 350.608272 247.936983 
L 350.356212 248.016852 
L 350.272193 248.09685 
L 350.272193 248.08838 
L 349.936113 248.159575 
L 349.852093 248.235531 
L 349.852093 248.224023 
L 349.600033 248.300409 
L 349.516013 248.36787 
L 349.516013 248.361713 
L 349.095913 248.466852 
L 349.011893 248.543276 
L 349.011893 248.535213 
L 348.675813 248.617313 
L 348.591793 248.691245 
L 348.591793 248.669354 
L 348.339733 248.754868 
L 348.255713 248.8153 
L 348.255713 248.788803 
L 347.919634 248.87436 
L 347.835614 248.950597 
L 347.583554 249.031178 
L 347.499534 249.120591 
L 347.499534 249.078223 
L 347.163454 249.161123 
L 347.079434 249.239822 
L 347.079434 249.211696 
L 346.827374 249.287714 
L 346.743354 249.377274 
L 346.743354 249.361708 
L 346.491294 249.443766 
L 346.407274 249.533521 
L 346.407274 249.505001 
L 346.155214 249.596586 
L 346.071194 249.675554 
L 346.071194 249.67296 
L 345.819134 249.75619 
L 345.735114 249.84512 
L 345.735114 249.835958 
L 345.483055 249.898454 
L 345.399035 249.995709 
L 345.399035 249.989243 
L 345.062955 250.090121 
L 344.978935 250.188591 
L 344.978935 250.165964 
L 344.726875 250.225978 
L 344.642855 250.323034 
L 344.642855 250.301618 
L 344.390795 250.384769 
L 344.306775 250.485368 
L 344.306775 250.480975 
L 344.054715 250.565008 
L 344.054715 250.618149 
L 343.970695 250.551536 
L 343.634615 250.634016 
L 343.550595 250.706096 
L 343.550595 250.694075 
L 343.298535 250.779171 
L 343.214516 250.893071 
L 343.214516 250.84534 
L 342.962456 250.943452 
L 342.878436 251.064912 
L 342.878436 251.060821 
L 342.710396 251.117097 
L 342.626376 251.238818 
L 342.626376 251.233742 
L 342.458336 251.290854 
L 342.374316 251.404237 
L 342.374316 251.347747 
L 342.122256 251.398704 
L 342.122256 251.465893 
L 342.122256 251.388679 
L 342.038236 251.422048 
L 341.786176 251.507422 
L 341.702156 251.625255 
L 341.702156 251.601763 
L 341.534116 251.652804 
L 341.450096 251.806722 
L 341.450096 251.790368 
L 341.282056 251.845173 
L 341.198036 251.964073 
L 341.198036 251.945699 
L 341.029996 252.011977 
L 340.945976 252.172458 
L 340.945976 252.148282 
L 340.777937 252.231436 
L 340.693917 252.381325 
L 340.693917 252.379647 
L 340.525877 252.451298 
L 340.441857 252.616781 
L 340.441857 252.560167 
L 340.273817 252.657036 
L 340.189797 252.836661 
L 340.189797 252.81795 
L 340.021757 252.92017 
L 339.937737 253.126939 
L 339.937737 253.110195 
L 339.853717 253.110195 
L 339.769697 253.364955 
L 339.769697 43.315045 
L 339.769697 43.315045 
" clip-path="url(#p8e68f65e87)" style="fill: none; stroke: #1f77b4; stroke-width: 1.5; stroke-linecap: square"/>
   </g>
   <g id="patch_9">
    <path d="M 337.669198 255.465455 
L 337.669198 41.214545 
" style="fill: none; stroke: #000000; stroke-width: 0.8; stroke-linejoin: miter; stroke-linecap: square"/>
   </g>
   <g id="patch_10">
    <path d="M 551.920107 255.465455 
L 551.920107 41.214545 
" style="fill: none; stroke: #000000; stroke-width: 0.8; stroke-linejoin: miter; stroke-linecap: square"/>
   </g>
   <g id="patch_11">
    <path d="M 337.669198 255.465455 
L 551.920107 255.465455 
" style="fill: none; stroke: #000000; stroke-width: 0.8; stroke-linejoin: miter; stroke-linecap: square"/>
   </g>
   <g id="patch_12">
    <path d="M 337.669198 41.214545 
L 551.920107 41.214545 
" style="fill: none; stroke: #000000; stroke-width: 0.8; stroke-linejoin: miter; stroke-linecap: square"/>
   </g>
   <g id="text_31">
    <!-- Precision-Recall Curve -->
    <g transform="translate(378.352152 35.214545) scale(0.12 -0.12)">
     <defs>
      <path id="DejaVuSans-2d" d="M 313 2009 
L 1997 2009 
L 1997 1497 
L 313 1497 
L 313 2009 
z
" transform="scale(0.015625)"/>
     </defs>
     <use xlink:href="#DejaVuSans-50"/>
     <use xlink:href="#DejaVuSans-72" transform="translate(58.552734 0)"/>
     <use xlink:href="#DejaVuSans-65" transform="translate(97.416016 0)"/>
     <use xlink:href="#DejaVuSans-63" transform="translate(158.939453 0)"/>
     <use xlink:href="#DejaVuSans-69" transform="translate(213.919922 0)"/>
     <use xlink:href="#DejaVuSans-73" transform="translate(241.703125 0)"/>
     <use xlink:href="#DejaVuSans-69" transform="translate(293.802734 0)"/>
     <use xlink:href="#DejaVuSans-6f" transform="translate(321.585938 0)"/>
     <use xlink:href="#DejaVuSans-6e" transform="translate(382.767578 0)"/>
     <use xlink:href="#DejaVuSans-2d" transform="translate(446.146484 0)"/>
     <use xlink:href="#DejaVuSans-52" transform="translate(482.230469 0)"/>
     <use xlink:href="#DejaVuSans-65" transform="translate(547.212891 0)"/>
     <use xlink:href="#DejaVuSans-63" transform="translate(608.736328 0)"/>
     <use xlink:href="#DejaVuSans-61" transform="translate(663.716797 0)"/>
     <use xlink:href="#DejaVuSans-6c" transform="translate(724.996094 0)"/>
     <use xlink:href="#DejaVuSans-6c" transform="translate(752.779297 0)"/>
     <use xlink:href="#DejaVuSans-20" transform="translate(780.5625 0)"/>
     <use xlink:href="#DejaVuSans-43" transform="translate(812.349609 0)"/>
     <use xlink:href="#DejaVuSans-75" transform="translate(882.173828 0)"/>
     <use xlink:href="#DejaVuSans-72" transform="translate(945.552734 0)"/>
     <use xlink:href="#DejaVuSans-76" transform="translate(986.666016 0)"/>
     <use xlink:href="#DejaVuSans-65" transform="translate(1045.845703 0)"/>
    </g>
   </g>
   <g id="legend_2">
    <g id="patch_13">
     <path d="M 344.669198 250.465455 
L 483.17076 250.465455 
Q 485.17076 250.465455 485.17076 248.465455 
L 485.17076 234.78733 
Q 485.17076 232.78733 483.17076 232.78733 
L 344.669198 232.78733 
Q 342.669198 232.78733 342.669198 234.78733 
L 342.669198 248.465455 
Q 342.669198 250.465455 344.669198 250.465455 
z
" style="fill: #ffffff; opacity: 0.8; stroke: #cccccc; stroke-linejoin: miter"/>
    </g>
    <g id="line2d_28">
     <path d="M 346.669198 240.885767 
L 356.669198 240.885767 
L 356.669198 240.885767 
L 366.669198 240.885767 
L 366.669198 240.885767 
" style="fill: none; stroke: #1f77b4; stroke-width: 1.5; stroke-linecap: square"/>
    </g>
    <g id="text_32">
     <!-- Classifier (AP = 0.12) -->
     <g transform="translate(374.669198 244.385767) scale(0.1 -0.1)">
      <use xlink:href="#DejaVuSans-43"/>
      <use xlink:href="#DejaVuSans-6c" transform="translate(69.824219 0)"/>
      <use xlink:href="#DejaVuSans-61" transform="translate(97.607422 0)"/>
      <use xlink:href="#DejaVuSans-73" transform="translate(158.886719 0)"/>
      <use xlink:href="#DejaVuSans-73" transform="translate(210.986328 0)"/>
      <use xlink:href="#DejaVuSans-69" transform="translate(263.085938 0)"/>
      <use xlink:href="#DejaVuSans-66" transform="translate(290.869141 0)"/>
      <use xlink:href="#DejaVuSans-69" transform="translate(326.074219 0)"/>
      <use xlink:href="#DejaVuSans-65" transform="translate(353.857422 0)"/>
      <use xlink:href="#DejaVuSans-72" transform="translate(415.380859 0)"/>
      <use xlink:href="#DejaVuSans-20" transform="translate(456.494141 0)"/>
      <use xlink:href="#DejaVuSans-28" transform="translate(488.28125 0)"/>
      <use xlink:href="#DejaVuSans-41" transform="translate(527.294922 0)"/>
      <use xlink:href="#DejaVuSans-50" transform="translate(595.703125 0)"/>
      <use xlink:href="#DejaVuSans-20" transform="translate(656.005859 0)"/>
      <use xlink:href="#DejaVuSans-3d" transform="translate(687.792969 0)"/>
      <use xlink:href="#DejaVuSans-20" transform="translate(771.582031 0)"/>
      <use xlink:href="#DejaVuSans-30" transform="translate(803.369141 0)"/>
      <use xlink:href="#DejaVuSans-2e" transform="translate(866.992188 0)"/>
      <use xlink:href="#DejaVuSans-31" transform="translate(898.779297 0)"/>
      <use xlink:href="#DejaVuSans-32" transform="translate(962.402344 0)"/>
      <use xlink:href="#DejaVuSans-29" transform="translate(1026.025391 0)"/>
     </g>
    </g>
   </g>
  </g>
  <g id="text_33">
   <!-- OOD detection performance -->
   <g transform="translate(203.355938 14.878125) scale(0.12 -0.12)">
    <defs>
     <path id="DejaVuSans-44" d="M 1259 4147 
L 1259 519 
L 2022 519 
Q 2988 519 3436 956 
Q 3884 1394 3884 2338 
Q 3884 3275 3436 3711 
Q 2988 4147 2022 4147 
L 1259 4147 
z
M 628 4666 
L 1925 4666 
Q 3281 4666 3915 4102 
Q 4550 3538 4550 2338 
Q 4550 1131 3912 565 
Q 3275 0 1925 0 
L 628 0 
L 628 4666 
z
" transform="scale(0.015625)"/>
     <path id="DejaVuSans-64" d="M 2906 2969 
L 2906 4863 
L 3481 4863 
L 3481 0 
L 2906 0 
L 2906 525 
Q 2725 213 2448 61 
Q 2172 -91 1784 -91 
Q 1150 -91 751 415 
Q 353 922 353 1747 
Q 353 2572 751 3078 
Q 1150 3584 1784 3584 
Q 2172 3584 2448 3432 
Q 2725 3281 2906 2969 
z
M 947 1747 
Q 947 1113 1208 752 
Q 1469 391 1925 391 
Q 2381 391 2643 752 
Q 2906 1113 2906 1747 
Q 2906 2381 2643 2742 
Q 2381 3103 1925 3103 
Q 1469 3103 1208 2742 
Q 947 2381 947 1747 
z
" transform="scale(0.015625)"/>
     <path id="DejaVuSans-70" d="M 1159 525 
L 1159 -1331 
L 581 -1331 
L 581 3500 
L 1159 3500 
L 1159 2969 
Q 1341 3281 1617 3432 
Q 1894 3584 2278 3584 
Q 2916 3584 3314 3078 
Q 3713 2572 3713 1747 
Q 3713 922 3314 415 
Q 2916 -91 2278 -91 
Q 1894 -91 1617 61 
Q 1341 213 1159 525 
z
M 3116 1747 
Q 3116 2381 2855 2742 
Q 2594 3103 2138 3103 
Q 1681 3103 1420 2742 
Q 1159 2381 1159 1747 
Q 1159 1113 1420 752 
Q 1681 391 2138 391 
Q 2594 391 2855 752 
Q 3116 1113 3116 1747 
z
" transform="scale(0.015625)"/>
     <path id="DejaVuSans-6d" d="M 3328 2828 
Q 3544 3216 3844 3400 
Q 4144 3584 4550 3584 
Q 5097 3584 5394 3201 
Q 5691 2819 5691 2113 
L 5691 0 
L 5113 0 
L 5113 2094 
Q 5113 2597 4934 2840 
Q 4756 3084 4391 3084 
Q 3944 3084 3684 2787 
Q 3425 2491 3425 1978 
L 3425 0 
L 2847 0 
L 2847 2094 
Q 2847 2600 2669 2842 
Q 2491 3084 2119 3084 
Q 1678 3084 1418 2786 
Q 1159 2488 1159 1978 
L 1159 0 
L 581 0 
L 581 3500 
L 1159 3500 
L 1159 2956 
Q 1356 3278 1631 3431 
Q 1906 3584 2284 3584 
Q 2666 3584 2933 3390 
Q 3200 3197 3328 2828 
z
" transform="scale(0.015625)"/>
    </defs>
    <use xlink:href="#DejaVuSans-4f"/>
    <use xlink:href="#DejaVuSans-4f" transform="translate(78.710938 0)"/>
    <use xlink:href="#DejaVuSans-44" transform="translate(157.421875 0)"/>
    <use xlink:href="#DejaVuSans-20" transform="translate(234.423828 0)"/>
    <use xlink:href="#DejaVuSans-64" transform="translate(266.210938 0)"/>
    <use xlink:href="#DejaVuSans-65" transform="translate(329.6875 0)"/>
    <use xlink:href="#DejaVuSans-74" transform="translate(391.210938 0)"/>
    <use xlink:href="#DejaVuSans-65" transform="translate(430.419922 0)"/>
    <use xlink:href="#DejaVuSans-63" transform="translate(491.943359 0)"/>
    <use xlink:href="#DejaVuSans-74" transform="translate(546.923828 0)"/>
    <use xlink:href="#DejaVuSans-69" transform="translate(586.132812 0)"/>
    <use xlink:href="#DejaVuSans-6f" transform="translate(613.916016 0)"/>
    <use xlink:href="#DejaVuSans-6e" transform="translate(675.097656 0)"/>
    <use xlink:href="#DejaVuSans-20" transform="translate(738.476562 0)"/>
    <use xlink:href="#DejaVuSans-70" transform="translate(770.263672 0)"/>
    <use xlink:href="#DejaVuSans-65" transform="translate(833.740234 0)"/>
    <use xlink:href="#DejaVuSans-72" transform="translate(895.263672 0)"/>
    <use xlink:href="#DejaVuSans-66" transform="translate(936.376953 0)"/>
    <use xlink:href="#DejaVuSans-6f" transform="translate(971.582031 0)"/>
    <use xlink:href="#DejaVuSans-72" transform="translate(1032.763672 0)"/>
    <use xlink:href="#DejaVuSans-6d" transform="translate(1072.126953 0)"/>
    <use xlink:href="#DejaVuSans-61" transform="translate(1169.539062 0)"/>
    <use xlink:href="#DejaVuSans-6e" transform="translate(1230.818359 0)"/>
    <use xlink:href="#DejaVuSans-63" transform="translate(1294.197266 0)"/>
    <use xlink:href="#DejaVuSans-65" transform="translate(1349.177734 0)"/>
   </g>
  </g>
 </g>
 <defs>
  <clipPath id="p6f1835f72e">
   <rect x="55.069198" y="41.214545" width="214.250909" height="214.250909"/>
  </clipPath>
  <clipPath id="p8e68f65e87">
   <rect x="337.669198" y="41.214545" width="214.250909" height="214.250909"/>
  </clipPath>
 </defs>
</svg>
