<?xml version="1.0" encoding="utf-8" standalone="no"?>
<!DOCTYPE svg PUBLIC "-//W3C//DTD SVG 1.1//EN"
  "http://www.w3.org/Graphics/SVG/1.1/DTD/svg11.dtd">
<svg xmlns:xlink="http://www.w3.org/1999/xlink" width="576pt" height="288pt" viewBox="0 0 576 288" xmlns="http://www.w3.org/2000/svg" version="1.1">
 <metadata>
  <rdf:RDF xmlns:dc="http://purl.org/dc/elements/1.1/" xmlns:cc="http://creativecommons.org/ns#" xmlns:rdf="http://www.w3.org/1999/02/22-rdf-syntax-ns#">
   <cc:Work>
    <dc:type rdf:resource="http://purl.org/dc/dcmitype/StillImage"/>
    <dc:date>2025-05-31T20:07:54.600513</dc:date>
    <dc:format>image/svg+xml</dc:format>
    <dc:creator>
     <cc:Agent>
      <dc:title>Matplotlib v3.10.1, https://matplotlib.org/</dc:title>
     </cc:Agent>
    </dc:creator>
   </cc:Work>
  </rdf:RDF>
 </metadata>
 <defs>
  <style type="text/css">*{stroke-linejoin: round; stroke-linecap: butt}</style>
 </defs>
 <g id="figure_1">
  <g id="patch_1">
   <path d="M 0 288 
L 576 288 
L 576 0 
L 0 0 
z
" style="fill: #ffffff"/>
  </g>
  <g id="axes_1">
   <g id="patch_2">
    <path d="M 44.57 246.04 
L 274.579846 246.04 
L 274.579846 37.026128 
L 44.57 37.026128 
z
" style="fill: #ffffff"/>
   </g>
   <g id="matplotlib.axis_1">
    <g id="xtick_1">
     <g id="line2d_1">
      <defs>
       <path id="m359e70b35a" d="M 0 0 
L 0 3.5 
" style="stroke: #000000; stroke-width: 0.8"/>
      </defs>
      <g>
       <use xlink:href="#m359e70b35a" x="55.024993" y="246.04" style="stroke: #000000; stroke-width: 0.8"/>
      </g>
     </g>
     <g id="text_1">
      <!-- 0 -->
      <g transform="translate(51.843743 260.638438) scale(0.1 -0.1)">
       <defs>
        <path id="DejaVuSans-30" d="M 2034 4250 
Q 1547 4250 1301 3770 
Q 1056 3291 1056 2328 
Q 1056 1369 1301 889 
Q 1547 409 2034 409 
Q 2525 409 2770 889 
Q 3016 1369 3016 2328 
Q 3016 3291 2770 3770 
Q 2525 4250 2034 4250 
z
M 2034 4750 
Q 2819 4750 3233 4129 
Q 3647 3509 3647 2328 
Q 3647 1150 3233 529 
Q 2819 -91 2034 -91 
Q 1250 -91 836 529 
Q 422 1150 422 2328 
Q 422 3509 836 4129 
Q 1250 4750 2034 4750 
z
" transform="scale(0.015625)"/>
       </defs>
       <use xlink:href="#DejaVuSans-30"/>
      </g>
     </g>
    </g>
    <g id="xtick_2">
     <g id="line2d_2">
      <g>
       <use xlink:href="#m359e70b35a" x="96.849147" y="246.04" style="stroke: #000000; stroke-width: 0.8"/>
      </g>
     </g>
     <g id="text_2">
      <!-- 2000 -->
      <g transform="translate(84.124147 260.638438) scale(0.1 -0.1)">
       <defs>
        <path id="DejaVuSans-32" d="M 1228 531 
L 3431 531 
L 3431 0 
L 469 0 
L 469 531 
Q 828 903 1448 1529 
Q 2069 2156 2228 2338 
Q 2531 2678 2651 2914 
Q 2772 3150 2772 3378 
Q 2772 3750 2511 3984 
Q 2250 4219 1831 4219 
Q 1534 4219 1204 4116 
Q 875 4013 500 3803 
L 500 4441 
Q 881 4594 1212 4672 
Q 1544 4750 1819 4750 
Q 2544 4750 2975 4387 
Q 3406 4025 3406 3419 
Q 3406 3131 3298 2873 
Q 3191 2616 2906 2266 
Q 2828 2175 2409 1742 
Q 1991 1309 1228 531 
z
" transform="scale(0.015625)"/>
       </defs>
       <use xlink:href="#DejaVuSans-32"/>
       <use xlink:href="#DejaVuSans-30" transform="translate(63.623047 0)"/>
       <use xlink:href="#DejaVuSans-30" transform="translate(127.246094 0)"/>
       <use xlink:href="#DejaVuSans-30" transform="translate(190.869141 0)"/>
      </g>
     </g>
    </g>
    <g id="xtick_3">
     <g id="line2d_3">
      <g>
       <use xlink:href="#m359e70b35a" x="138.673302" y="246.04" style="stroke: #000000; stroke-width: 0.8"/>
      </g>
     </g>
     <g id="text_3">
      <!-- 4000 -->
      <g transform="translate(125.948302 260.638438) scale(0.1 -0.1)">
       <defs>
        <path id="DejaVuSans-34" d="M 2419 4116 
L 825 1625 
L 2419 1625 
L 2419 4116 
z
M 2253 4666 
L 3047 4666 
L 3047 1625 
L 3713 1625 
L 3713 1100 
L 3047 1100 
L 3047 0 
L 2419 0 
L 2419 1100 
L 313 1100 
L 313 1709 
L 2253 4666 
z
" transform="scale(0.015625)"/>
       </defs>
       <use xlink:href="#DejaVuSans-34"/>
       <use xlink:href="#DejaVuSans-30" transform="translate(63.623047 0)"/>
       <use xlink:href="#DejaVuSans-30" transform="translate(127.246094 0)"/>
       <use xlink:href="#DejaVuSans-30" transform="translate(190.869141 0)"/>
      </g>
     </g>
    </g>
    <g id="xtick_4">
     <g id="line2d_4">
      <g>
       <use xlink:href="#m359e70b35a" x="180.497456" y="246.04" style="stroke: #000000; stroke-width: 0.8"/>
      </g>
     </g>
     <g id="text_4">
      <!-- 6000 -->
      <g transform="translate(167.772456 260.638438) scale(0.1 -0.1)">
       <defs>
        <path id="DejaVuSans-36" d="M 2113 2584 
Q 1688 2584 1439 2293 
Q 1191 2003 1191 1497 
Q 1191 994 1439 701 
Q 1688 409 2113 409 
Q 2538 409 2786 701 
Q 3034 994 3034 1497 
Q 3034 2003 2786 2293 
Q 2538 2584 2113 2584 
z
M 3366 4563 
L 3366 3988 
Q 3128 4100 2886 4159 
Q 2644 4219 2406 4219 
Q 1781 4219 1451 3797 
Q 1122 3375 1075 2522 
Q 1259 2794 1537 2939 
Q 1816 3084 2150 3084 
Q 2853 3084 3261 2657 
Q 3669 2231 3669 1497 
Q 3669 778 3244 343 
Q 2819 -91 2113 -91 
Q 1303 -91 875 529 
Q 447 1150 447 2328 
Q 447 3434 972 4092 
Q 1497 4750 2381 4750 
Q 2619 4750 2861 4703 
Q 3103 4656 3366 4563 
z
" transform="scale(0.015625)"/>
       </defs>
       <use xlink:href="#DejaVuSans-36"/>
       <use xlink:href="#DejaVuSans-30" transform="translate(63.623047 0)"/>
       <use xlink:href="#DejaVuSans-30" transform="translate(127.246094 0)"/>
       <use xlink:href="#DejaVuSans-30" transform="translate(190.869141 0)"/>
      </g>
     </g>
    </g>
    <g id="xtick_5">
     <g id="line2d_5">
      <g>
       <use xlink:href="#m359e70b35a" x="222.321611" y="246.04" style="stroke: #000000; stroke-width: 0.8"/>
      </g>
     </g>
     <g id="text_5">
      <!-- 8000 -->
      <g transform="translate(209.596611 260.638438) scale(0.1 -0.1)">
       <defs>
        <path id="DejaVuSans-38" d="M 2034 2216 
Q 1584 2216 1326 1975 
Q 1069 1734 1069 1313 
Q 1069 891 1326 650 
Q 1584 409 2034 409 
Q 2484 409 2743 651 
Q 3003 894 3003 1313 
Q 3003 1734 2745 1975 
Q 2488 2216 2034 2216 
z
M 1403 2484 
Q 997 2584 770 2862 
Q 544 3141 544 3541 
Q 544 4100 942 4425 
Q 1341 4750 2034 4750 
Q 2731 4750 3128 4425 
Q 3525 4100 3525 3541 
Q 3525 3141 3298 2862 
Q 3072 2584 2669 2484 
Q 3125 2378 3379 2068 
Q 3634 1759 3634 1313 
Q 3634 634 3220 271 
Q 2806 -91 2034 -91 
Q 1263 -91 848 271 
Q 434 634 434 1313 
Q 434 1759 690 2068 
Q 947 2378 1403 2484 
z
M 1172 3481 
Q 1172 3119 1398 2916 
Q 1625 2713 2034 2713 
Q 2441 2713 2670 2916 
Q 2900 3119 2900 3481 
Q 2900 3844 2670 4047 
Q 2441 4250 2034 4250 
Q 1625 4250 1398 4047 
Q 1172 3844 1172 3481 
z
" transform="scale(0.015625)"/>
       </defs>
       <use xlink:href="#DejaVuSans-38"/>
       <use xlink:href="#DejaVuSans-30" transform="translate(63.623047 0)"/>
       <use xlink:href="#DejaVuSans-30" transform="translate(127.246094 0)"/>
       <use xlink:href="#DejaVuSans-30" transform="translate(190.869141 0)"/>
      </g>
     </g>
    </g>
    <g id="xtick_6">
     <g id="line2d_6">
      <g>
       <use xlink:href="#m359e70b35a" x="264.145765" y="246.04" style="stroke: #000000; stroke-width: 0.8"/>
      </g>
     </g>
     <g id="text_6">
      <!-- 10000 -->
      <g transform="translate(248.239515 260.638438) scale(0.1 -0.1)">
       <defs>
        <path id="DejaVuSans-31" d="M 794 531 
L 1825 531 
L 1825 4091 
L 703 3866 
L 703 4441 
L 1819 4666 
L 2450 4666 
L 2450 531 
L 3481 531 
L 3481 0 
L 794 0 
L 794 531 
z
" transform="scale(0.015625)"/>
       </defs>
       <use xlink:href="#DejaVuSans-31"/>
       <use xlink:href="#DejaVuSans-30" transform="translate(63.623047 0)"/>
       <use xlink:href="#DejaVuSans-30" transform="translate(127.246094 0)"/>
       <use xlink:href="#DejaVuSans-30" transform="translate(190.869141 0)"/>
       <use xlink:href="#DejaVuSans-30" transform="translate(254.492188 0)"/>
      </g>
     </g>
    </g>
    <g id="text_7">
     <!-- Ordered samples -->
     <g transform="translate(116.853829 274.316562) scale(0.1 -0.1)">
      <defs>
       <path id="DejaVuSans-4f" d="M 2522 4238 
Q 1834 4238 1429 3725 
Q 1025 3213 1025 2328 
Q 1025 1447 1429 934 
Q 1834 422 2522 422 
Q 3209 422 3611 934 
Q 4013 1447 4013 2328 
Q 4013 3213 3611 3725 
Q 3209 4238 2522 4238 
z
M 2522 4750 
Q 3503 4750 4090 4092 
Q 4678 3434 4678 2328 
Q 4678 1225 4090 567 
Q 3503 -91 2522 -91 
Q 1538 -91 948 565 
Q 359 1222 359 2328 
Q 359 3434 948 4092 
Q 1538 4750 2522 4750 
z
" transform="scale(0.015625)"/>
       <path id="DejaVuSans-72" d="M 2631 2963 
Q 2534 3019 2420 3045 
Q 2306 3072 2169 3072 
Q 1681 3072 1420 2755 
Q 1159 2438 1159 1844 
L 1159 0 
L 581 0 
L 581 3500 
L 1159 3500 
L 1159 2956 
Q 1341 3275 1631 3429 
Q 1922 3584 2338 3584 
Q 2397 3584 2469 3576 
Q 2541 3569 2628 3553 
L 2631 2963 
z
" transform="scale(0.015625)"/>
       <path id="DejaVuSans-64" d="M 2906 2969 
L 2906 4863 
L 3481 4863 
L 3481 0 
L 2906 0 
L 2906 525 
Q 2725 213 2448 61 
Q 2172 -91 1784 -91 
Q 1150 -91 751 415 
Q 353 922 353 1747 
Q 353 2572 751 3078 
Q 1150 3584 1784 3584 
Q 2172 3584 2448 3432 
Q 2725 3281 2906 2969 
z
M 947 1747 
Q 947 1113 1208 752 
Q 1469 391 1925 391 
Q 2381 391 2643 752 
Q 2906 1113 2906 1747 
Q 2906 2381 2643 2742 
Q 2381 3103 1925 3103 
Q 1469 3103 1208 2742 
Q 947 2381 947 1747 
z
" transform="scale(0.015625)"/>
       <path id="DejaVuSans-65" d="M 3597 1894 
L 3597 1613 
L 953 1613 
Q 991 1019 1311 708 
Q 1631 397 2203 397 
Q 2534 397 2845 478 
Q 3156 559 3463 722 
L 3463 178 
Q 3153 47 2828 -22 
Q 2503 -91 2169 -91 
Q 1331 -91 842 396 
Q 353 884 353 1716 
Q 353 2575 817 3079 
Q 1281 3584 2069 3584 
Q 2775 3584 3186 3129 
Q 3597 2675 3597 1894 
z
M 3022 2063 
Q 3016 2534 2758 2815 
Q 2500 3097 2075 3097 
Q 1594 3097 1305 2825 
Q 1016 2553 972 2059 
L 3022 2063 
z
" transform="scale(0.015625)"/>
       <path id="DejaVuSans-20" transform="scale(0.015625)"/>
       <path id="DejaVuSans-73" d="M 2834 3397 
L 2834 2853 
Q 2591 2978 2328 3040 
Q 2066 3103 1784 3103 
Q 1356 3103 1142 2972 
Q 928 2841 928 2578 
Q 928 2378 1081 2264 
Q 1234 2150 1697 2047 
L 1894 2003 
Q 2506 1872 2764 1633 
Q 3022 1394 3022 966 
Q 3022 478 2636 193 
Q 2250 -91 1575 -91 
Q 1294 -91 989 -36 
Q 684 19 347 128 
L 347 722 
Q 666 556 975 473 
Q 1284 391 1588 391 
Q 1994 391 2212 530 
Q 2431 669 2431 922 
Q 2431 1156 2273 1281 
Q 2116 1406 1581 1522 
L 1381 1569 
Q 847 1681 609 1914 
Q 372 2147 372 2553 
Q 372 3047 722 3315 
Q 1072 3584 1716 3584 
Q 2034 3584 2315 3537 
Q 2597 3491 2834 3397 
z
" transform="scale(0.015625)"/>
       <path id="DejaVuSans-61" d="M 2194 1759 
Q 1497 1759 1228 1600 
Q 959 1441 959 1056 
Q 959 750 1161 570 
Q 1363 391 1709 391 
Q 2188 391 2477 730 
Q 2766 1069 2766 1631 
L 2766 1759 
L 2194 1759 
z
M 3341 1997 
L 3341 0 
L 2766 0 
L 2766 531 
Q 2569 213 2275 61 
Q 1981 -91 1556 -91 
Q 1019 -91 701 211 
Q 384 513 384 1019 
Q 384 1609 779 1909 
Q 1175 2209 1959 2209 
L 2766 2209 
L 2766 2266 
Q 2766 2663 2505 2880 
Q 2244 3097 1772 3097 
Q 1472 3097 1187 3025 
Q 903 2953 641 2809 
L 641 3341 
Q 956 3463 1253 3523 
Q 1550 3584 1831 3584 
Q 2591 3584 2966 3190 
Q 3341 2797 3341 1997 
z
" transform="scale(0.015625)"/>
       <path id="DejaVuSans-6d" d="M 3328 2828 
Q 3544 3216 3844 3400 
Q 4144 3584 4550 3584 
Q 5097 3584 5394 3201 
Q 5691 2819 5691 2113 
L 5691 0 
L 5113 0 
L 5113 2094 
Q 5113 2597 4934 2840 
Q 4756 3084 4391 3084 
Q 3944 3084 3684 2787 
Q 3425 2491 3425 1978 
L 3425 0 
L 2847 0 
L 2847 2094 
Q 2847 2600 2669 2842 
Q 2491 3084 2119 3084 
Q 1678 3084 1418 2786 
Q 1159 2488 1159 1978 
L 1159 0 
L 581 0 
L 581 3500 
L 1159 3500 
L 1159 2956 
Q 1356 3278 1631 3431 
Q 1906 3584 2284 3584 
Q 2666 3584 2933 3390 
Q 3200 3197 3328 2828 
z
" transform="scale(0.015625)"/>
       <path id="DejaVuSans-70" d="M 1159 525 
L 1159 -1331 
L 581 -1331 
L 581 3500 
L 1159 3500 
L 1159 2969 
Q 1341 3281 1617 3432 
Q 1894 3584 2278 3584 
Q 2916 3584 3314 3078 
Q 3713 2572 3713 1747 
Q 3713 922 3314 415 
Q 2916 -91 2278 -91 
Q 1894 -91 1617 61 
Q 1341 213 1159 525 
z
M 3116 1747 
Q 3116 2381 2855 2742 
Q 2594 3103 2138 3103 
Q 1681 3103 1420 2742 
Q 1159 2381 1159 1747 
Q 1159 1113 1420 752 
Q 1681 391 2138 391 
Q 2594 391 2855 752 
Q 3116 1113 3116 1747 
z
" transform="scale(0.015625)"/>
       <path id="DejaVuSans-6c" d="M 603 4863 
L 1178 4863 
L 1178 0 
L 603 0 
L 603 4863 
z
" transform="scale(0.015625)"/>
      </defs>
      <use xlink:href="#DejaVuSans-4f"/>
      <use xlink:href="#DejaVuSans-72" transform="translate(78.710938 0)"/>
      <use xlink:href="#DejaVuSans-64" transform="translate(118.074219 0)"/>
      <use xlink:href="#DejaVuSans-65" transform="translate(181.550781 0)"/>
      <use xlink:href="#DejaVuSans-72" transform="translate(243.074219 0)"/>
      <use xlink:href="#DejaVuSans-65" transform="translate(281.9375 0)"/>
      <use xlink:href="#DejaVuSans-64" transform="translate(343.460938 0)"/>
      <use xlink:href="#DejaVuSans-20" transform="translate(406.9375 0)"/>
      <use xlink:href="#DejaVuSans-73" transform="translate(438.724609 0)"/>
      <use xlink:href="#DejaVuSans-61" transform="translate(490.824219 0)"/>
      <use xlink:href="#DejaVuSans-6d" transform="translate(552.103516 0)"/>
      <use xlink:href="#DejaVuSans-70" transform="translate(649.515625 0)"/>
      <use xlink:href="#DejaVuSans-6c" transform="translate(712.992188 0)"/>
      <use xlink:href="#DejaVuSans-65" transform="translate(740.775391 0)"/>
      <use xlink:href="#DejaVuSans-73" transform="translate(802.298828 0)"/>
     </g>
    </g>
   </g>
   <g id="matplotlib.axis_2">
    <g id="ytick_1">
     <g id="line2d_7">
      <defs>
       <path id="me3aa640b64" d="M 0 0 
L -3.5 0 
" style="stroke: #000000; stroke-width: 0.8"/>
      </defs>
      <g>
       <use xlink:href="#me3aa640b64" x="44.57" y="203.846893" style="stroke: #000000; stroke-width: 0.8"/>
      </g>
     </g>
     <g id="text_8">
      <!-- 5 -->
      <g transform="translate(31.2075 207.646111) scale(0.1 -0.1)">
       <defs>
        <path id="DejaVuSans-35" d="M 691 4666 
L 3169 4666 
L 3169 4134 
L 1269 4134 
L 1269 2991 
Q 1406 3038 1543 3061 
Q 1681 3084 1819 3084 
Q 2600 3084 3056 2656 
Q 3513 2228 3513 1497 
Q 3513 744 3044 326 
Q 2575 -91 1722 -91 
Q 1428 -91 1123 -41 
Q 819 9 494 109 
L 494 744 
Q 775 591 1075 516 
Q 1375 441 1709 441 
Q 2250 441 2565 725 
Q 2881 1009 2881 1497 
Q 2881 1984 2565 2268 
Q 2250 2553 1709 2553 
Q 1456 2553 1204 2497 
Q 953 2441 691 2322 
L 691 4666 
z
" transform="scale(0.015625)"/>
       </defs>
       <use xlink:href="#DejaVuSans-35"/>
      </g>
     </g>
    </g>
    <g id="ytick_2">
     <g id="line2d_8">
      <g>
       <use xlink:href="#me3aa640b64" x="44.57" y="160.882843" style="stroke: #000000; stroke-width: 0.8"/>
      </g>
     </g>
     <g id="text_9">
      <!-- 10 -->
      <g transform="translate(24.845 164.682062) scale(0.1 -0.1)">
       <use xlink:href="#DejaVuSans-31"/>
       <use xlink:href="#DejaVuSans-30" transform="translate(63.623047 0)"/>
      </g>
     </g>
    </g>
    <g id="ytick_3">
     <g id="line2d_9">
      <g>
       <use xlink:href="#me3aa640b64" x="44.57" y="117.918794" style="stroke: #000000; stroke-width: 0.8"/>
      </g>
     </g>
     <g id="text_10">
      <!-- 15 -->
      <g transform="translate(24.845 121.718013) scale(0.1 -0.1)">
       <use xlink:href="#DejaVuSans-31"/>
       <use xlink:href="#DejaVuSans-35" transform="translate(63.623047 0)"/>
      </g>
     </g>
    </g>
    <g id="ytick_4">
     <g id="line2d_10">
      <g>
       <use xlink:href="#me3aa640b64" x="44.57" y="74.954745" style="stroke: #000000; stroke-width: 0.8"/>
      </g>
     </g>
     <g id="text_11">
      <!-- 20 -->
      <g transform="translate(24.845 78.753963) scale(0.1 -0.1)">
       <use xlink:href="#DejaVuSans-32"/>
       <use xlink:href="#DejaVuSans-30" transform="translate(63.623047 0)"/>
      </g>
     </g>
    </g>
    <g id="text_12">
     <!-- Scores -->
     <g transform="translate(18.765313 158.140095) rotate(-90) scale(0.1 -0.1)">
      <defs>
       <path id="DejaVuSans-53" d="M 3425 4513 
L 3425 3897 
Q 3066 4069 2747 4153 
Q 2428 4238 2131 4238 
Q 1616 4238 1336 4038 
Q 1056 3838 1056 3469 
Q 1056 3159 1242 3001 
Q 1428 2844 1947 2747 
L 2328 2669 
Q 3034 2534 3370 2195 
Q 3706 1856 3706 1288 
Q 3706 609 3251 259 
Q 2797 -91 1919 -91 
Q 1588 -91 1214 -16 
Q 841 59 441 206 
L 441 856 
Q 825 641 1194 531 
Q 1563 422 1919 422 
Q 2459 422 2753 634 
Q 3047 847 3047 1241 
Q 3047 1584 2836 1778 
Q 2625 1972 2144 2069 
L 1759 2144 
Q 1053 2284 737 2584 
Q 422 2884 422 3419 
Q 422 4038 858 4394 
Q 1294 4750 2059 4750 
Q 2388 4750 2728 4690 
Q 3069 4631 3425 4513 
z
" transform="scale(0.015625)"/>
       <path id="DejaVuSans-63" d="M 3122 3366 
L 3122 2828 
Q 2878 2963 2633 3030 
Q 2388 3097 2138 3097 
Q 1578 3097 1268 2742 
Q 959 2388 959 1747 
Q 959 1106 1268 751 
Q 1578 397 2138 397 
Q 2388 397 2633 464 
Q 2878 531 3122 666 
L 3122 134 
Q 2881 22 2623 -34 
Q 2366 -91 2075 -91 
Q 1284 -91 818 406 
Q 353 903 353 1747 
Q 353 2603 823 3093 
Q 1294 3584 2113 3584 
Q 2378 3584 2631 3529 
Q 2884 3475 3122 3366 
z
" transform="scale(0.015625)"/>
       <path id="DejaVuSans-6f" d="M 1959 3097 
Q 1497 3097 1228 2736 
Q 959 2375 959 1747 
Q 959 1119 1226 758 
Q 1494 397 1959 397 
Q 2419 397 2687 759 
Q 2956 1122 2956 1747 
Q 2956 2369 2687 2733 
Q 2419 3097 1959 3097 
z
M 1959 3584 
Q 2709 3584 3137 3096 
Q 3566 2609 3566 1747 
Q 3566 888 3137 398 
Q 2709 -91 1959 -91 
Q 1206 -91 779 398 
Q 353 888 353 1747 
Q 353 2609 779 3096 
Q 1206 3584 1959 3584 
z
" transform="scale(0.015625)"/>
      </defs>
      <use xlink:href="#DejaVuSans-53"/>
      <use xlink:href="#DejaVuSans-63" transform="translate(63.476562 0)"/>
      <use xlink:href="#DejaVuSans-6f" transform="translate(118.457031 0)"/>
      <use xlink:href="#DejaVuSans-72" transform="translate(179.638672 0)"/>
      <use xlink:href="#DejaVuSans-65" transform="translate(218.501953 0)"/>
      <use xlink:href="#DejaVuSans-73" transform="translate(280.025391 0)"/>
     </g>
    </g>
   </g>
   <g id="line2d_11">
    <path d="M 55.024993 235.177758 
L 55.213202 232.212586 
L 55.882388 227.917892 
L 55.924212 227.880315 
L 56.133333 226.84602 
L 57.639003 223.579409 
L 57.722651 223.501301 
L 57.931772 223.127912 
L 58.329101 222.773368 
L 58.538222 222.525646 
L 58.580046 222.497931 
L 58.747343 222.21174 
L 60.62943 219.578927 
L 61.068583 219.262411 
L 62.84611 217.819045 
L 63.180703 217.670746 
L 63.975362 217.067056 
L 64.121747 216.913903 
L 64.393604 216.723688 
L 64.5609 216.618279 
L 64.728197 216.477543 
L 65.209175 215.981099 
L 65.397383 215.756948 
L 65.773801 215.579934 
L 66.150218 215.365078 
L 66.463899 215.142304 
L 66.986701 214.817667 
L 67.216734 214.650171 
L 67.404943 214.44377 
L 67.78136 214.162049 
L 68.262338 213.947363 
L 68.576019 213.725201 
L 68.826964 213.611288 
L 69.015173 213.498107 
L 69.349766 213.248536 
L 69.537975 213.094671 
L 70.207161 212.777992 
L 70.374458 212.679229 
L 70.625403 212.559805 
L 71.085468 212.324275 
L 71.294589 212.098645 
L 71.921951 211.782775 
L 72.21472 211.59927 
L 72.277457 211.498663 
L 72.549314 211.380237 
L 73.323061 211.016968 
L 73.699478 210.839048 
L 73.929511 210.740941 
L 74.22228 210.462737 
L 74.556873 210.335723 
L 75.016939 210.146183 
L 75.184235 210.051759 
L 75.477005 209.936778 
L 75.727949 209.771089 
L 76.564433 209.275926 
L 76.710817 209.211117 
L 76.878114 209.051017 
L 77.066322 208.898586 
L 77.254531 208.772223 
L 77.505476 208.67598 
L 77.651861 208.565933 
L 78.04919 208.351403 
L 79.345739 207.684433 
L 80.579551 207.187815 
L 80.746848 207.122413 
L 81.081441 206.942129 
L 81.290562 206.844775 
L 81.604243 206.697876 
L 81.834276 206.632195 
L 82.398902 206.414231 
L 82.587111 206.334398 
L 82.87988 206.189581 
L 83.48633 205.885941 
L 83.632715 205.75501 
L 86.10034 204.911103 
L 86.288548 204.846639 
L 86.832262 204.621185 
L 87.145944 204.449698 
L 87.940603 204.206056 
L 88.588877 203.858304 
L 89.069855 203.697666 
L 89.278976 203.581616 
L 89.969074 203.239871 
L 90.282755 203.042247 
L 92.980413 202.065192 
L 93.315006 201.9546 
L 93.775072 201.805246 
L 94.172402 201.65157 
L 94.632467 201.475424 
L 94.925236 201.302659 
L 95.385302 201.084859 
L 95.531687 200.954816 
L 96.263609 200.672676 
L 96.514554 200.591089 
L 96.911884 200.456711 
L 97.162829 200.35408 
L 97.643806 200.180147 
L 98.250257 199.963494 
L 99.400421 199.330877 
L 99.839575 199.175521 
L 109.480042 195.223783 
L 109.835547 195.107286 
L 114.185259 193.408487 
L 114.436204 193.296723 
L 115.690929 192.857653 
L 116.171907 192.745828 
L 116.318291 192.647573 
L 117.928521 192.05259 
L 118.325851 191.906182 
L 120.082465 191.141773 
L 120.312498 191.024981 
L 120.521619 190.942128 
L 120.772564 190.81152 
L 122.215497 190.23391 
L 122.403706 190.151209 
L 125.185012 189.097557 
L 125.477781 188.943758 
L 125.812374 188.828356 
L 126.418825 188.592347 
L 127.297132 188.220114 
L 127.652637 188.106817 
L 128.154527 187.851321 
L 129.38834 187.469061 
L 130.09935 187.273002 
L 130.956745 186.949187 
L 131.374987 186.837792 
L 132.859744 186.183048 
L 133.424371 186.00598 
L 133.905348 185.800927 
L 134.219029 185.664333 
L 135.348282 185.159742 
L 135.661963 185.03315 
L 136.749391 184.571798 
L 137.167632 184.442718 
L 140.639037 183.015006 
L 140.889982 182.88464 
L 141.182751 182.733263 
L 141.768289 182.461713 
L 141.97741 182.305169 
L 142.270179 182.165441 
L 143.106662 181.906724 
L 143.357607 181.799054 
L 144.926013 181.096674 
L 145.156046 181.007081 
L 145.867056 180.709641 
L 146.180738 180.593226 
L 147.038133 180.359287 
L 147.393638 180.256008 
L 147.728231 180.141339 
L 148.000088 180.06882 
L 148.230121 179.971655 
L 148.543802 179.860637 
L 148.962044 179.717958 
L 151.534229 178.643353 
L 151.847911 178.453427 
L 152.998075 177.83806 
L 153.186284 177.756063 
L 154.210975 177.193912 
L 154.650129 177.070942 
L 154.984722 176.813995 
L 155.444788 176.664376 
L 155.632997 176.566785 
L 156.051238 176.406692 
L 156.511304 176.112706 
L 156.741337 175.923809 
L 157.640556 175.525602 
L 157.975149 175.372835 
L 158.18427 175.283922 
L 158.560687 175.148545 
L 159.020753 174.960476 
L 159.18805 174.851428 
L 159.501731 174.751354 
L 159.982709 174.521016 
L 160.442774 174.404217 
L 161.300169 174.0884 
L 162.471246 173.568435 
L 162.61763 173.503828 
L 162.952224 173.315439 
L 163.286817 173.103933 
L 163.997827 172.877881 
L 164.353333 172.710339 
L 164.520629 172.64206 
L 165.273464 172.232299 
L 165.649882 172.039632 
L 166.005387 171.915146 
L 166.256332 171.812933 
L 166.44454 171.68775 
L 166.653661 171.607933 
L 167.741089 171.144734 
L 167.971122 171.043225 
L 168.138419 170.971833 
L 168.305715 170.844396 
L 168.870341 170.698317 
L 169.267671 170.561317 
L 169.769561 170.391579 
L 170.208714 170.173935 
L 170.501483 170.064724 
L 170.752428 169.924078 
L 170.919725 169.847219 
L 171.379791 169.684545 
L 172.090801 169.379258 
L 172.759988 169.173169 
L 172.948196 169.094008 
L 176.189568 167.674129 
L 176.461425 167.56509 
L 176.649634 167.464057 
L 177.339733 167.2053 
L 177.61159 167.064981 
L 177.799798 166.969537 
L 178.155304 166.766234 
L 178.448073 166.645492 
L 178.845402 166.49947 
L 179.807358 165.944277 
L 180.664753 165.520764 
L 180.83205 165.360401 
L 181.480324 164.973683 
L 181.668533 164.883008 
L 181.877653 164.728742 
L 182.379543 164.510844 
L 182.755961 164.367362 
L 182.923257 164.239967 
L 188.360397 161.438348 
L 188.799551 161.197734 
L 189.426913 160.733961 
L 189.59421 160.613933 
L 189.949715 160.47858 
L 190.179748 160.374868 
L 191.915451 159.595752 
L 192.124571 159.467021 
L 192.333692 159.300897 
L 192.668285 159.14355 
L 193.044703 158.842713 
L 193.211999 158.738042 
L 195.470504 157.169994 
L 196.327899 156.798354 
L 196.495195 156.667615 
L 196.892525 156.474211 
L 197.038909 156.392747 
L 197.206206 156.28656 
L 197.436239 156.137653 
L 197.64536 155.986739 
L 197.812656 155.910397 
L 200.133897 154.547324 
L 200.740347 154.094565 
L 201.095852 153.863285 
L 202.162368 153.181375 
L 202.329665 153.085112 
L 202.68517 152.917619 
L 203.040676 152.719528 
L 204.546345 151.742198 
L 204.839114 151.444885 
L 205.048235 151.345335 
L 205.278268 151.210327 
L 205.445564 151.101353 
L 205.947454 150.780324 
L 206.198399 150.64566 
L 206.637553 150.414503 
L 207.01397 150.191417 
L 207.704069 149.885163 
L 207.850453 149.780205 
L 208.01775 149.65948 
L 208.247783 149.548638 
L 208.435992 149.436321 
L 209.377035 148.840653 
L 209.586156 148.736982 
L 209.962573 148.559361 
L 210.464463 148.161096 
L 210.652672 147.961595 
L 210.945441 147.7105 
L 211.991045 147.148423 
L 212.179253 146.990641 
L 212.555671 146.830688 
L 213.245769 146.327367 
L 213.392154 146.183959 
L 213.768571 145.94582 
L 213.95678 145.651374 
L 214.165901 145.517415 
L 214.270461 145.331878 
L 214.772351 144.958943 
L 215.002384 144.827639 
L 218.682909 142.366348 
L 218.871118 142.160218 
L 219.665777 141.442465 
L 219.812162 141.252658 
L 220.334963 140.78759 
L 220.627733 140.616558 
L 220.89959 140.322957 
L 221.338743 140.02053 
L 221.777897 139.764501 
L 222.133402 139.535147 
L 222.405259 139.385216 
L 222.572556 139.27693 
L 223.053534 138.93548 
L 223.806368 138.350736 
L 223.973665 138.169427 
L 224.391906 137.987111 
L 224.684676 137.725969 
L 225.458422 137.04306 
L 225.751191 136.725727 
L 225.981224 136.563782 
L 226.399466 136.081596 
L 226.671323 135.917463 
L 228.595234 134.193462 
L 229.034388 133.844275 
L 229.180772 133.647782 
L 229.724486 133.11732 
L 229.870871 132.9692 
L 231.251068 131.915766 
L 231.857518 131.701186 
L 232.38032 131.432153 
L 232.443056 131.391171 
L 232.610353 130.906337 
L 232.756737 130.733699 
L 232.903122 130.508942 
L 233.216803 130.223248 
L 233.3841 129.8659 
L 233.551396 129.747052 
L 234.576088 129.012664 
L 234.743385 128.883539 
L 236.249054 127.601636 
L 236.520911 127.219334 
L 236.646384 127.103354 
L 236.855504 126.929659 
L 236.897329 126.86973 
L 237.085537 126.596133 
L 237.127361 126.565697 
L 237.252834 126.388191 
L 237.545603 126.180348 
L 237.691988 126.035809 
L 237.942932 125.791589 
L 238.089317 125.53847 
L 238.42391 125.058397 
L 238.612119 124.785971 
L 238.737591 124.674048 
L 239.176745 124.070595 
L 239.448602 123.835217 
L 240.075964 123.067763 
L 240.180525 122.980653 
L 240.870623 122.142929 
L 240.975184 121.974232 
L 242.208996 120.613577 
L 242.397205 120.235726 
L 242.731798 120.001029 
L 243.35916 119.22488 
L 243.735578 118.914299 
L 243.902875 118.671137 
L 245.680401 116.712643 
L 246.224115 116.107453 
L 246.307763 116.010132 
L 246.454148 115.924964 
L 246.663269 115.75262 
L 246.830565 115.431468 
L 247.039686 115.293387 
L 247.311543 115.003342 
L 247.47884 114.882773 
L 247.771609 114.502807 
L 247.897081 114.364308 
L 248.921773 112.716247 
L 249.528223 111.891479 
L 249.737344 111.489404 
L 249.883729 111.277308 
L 250.030113 111.056312 
L 250.657475 110.075533 
L 250.762036 110.007065 
L 251.012981 109.46318 
L 251.138453 109.38079 
L 251.284838 109.253444 
L 251.870376 108.556104 
L 252.037673 108.333011 
L 252.079497 108.236952 
L 252.288617 107.799205 
L 252.476826 107.539465 
L 252.665035 107.313618 
L 253.041452 106.636306 
L 253.355133 105.80354 
L 253.459694 105.688797 
L 253.62699 105.4097 
L 253.752463 105.039675 
L 254.045232 104.396224 
L 254.317089 104.010432 
L 254.568034 103.607841 
L 254.756243 103.244486 
L 254.860803 103.107584 
L 255.404517 101.854838 
L 255.571814 101.471357 
L 255.906407 100.837329 
L 255.969143 100.777917 
L 256.366473 99.697047 
L 256.450121 99.602529 
L 256.575593 99.318418 
L 256.617417 99.280361 
L 256.784714 98.667411 
L 256.931099 98.538901 
L 257.202956 98.044152 
L 257.328428 97.857033 
L 258.060351 96.370507 
L 258.102175 96.250339 
L 258.415856 94.813358 
L 258.45768 94.748685 
L 258.666801 93.508345 
L 258.729537 93.343352 
L 258.980482 92.57208 
L 259.043218 92.519617 
L 259.210515 91.955622 
L 259.273251 91.871347 
L 259.503284 91.164174 
L 259.691493 90.147337 
L 259.733317 90.109445 
L 259.96335 89.075547 
L 260.109734 88.819625 
L 260.653448 87.156716 
L 260.737097 87.098992 
L 261.008954 86.149483 
L 261.949997 81.567344 
L 262.07547 80.689228 
L 262.159118 80.222948 
L 262.326415 78.657522 
L 262.472799 77.727124 
L 262.807392 75.785986 
L 263.037425 73.85029 
L 263.058337 73.812086 
L 263.267458 71.266996 
L 263.372018 69.008246 
L 263.957557 57.546605 
L 264.124853 46.526758 
L 264.124853 46.526758 
" clip-path="url(#p7fe9bb191c)" style="fill: none; stroke: #1f77b4; stroke-width: 1.5; stroke-linecap: square"/>
   </g>
   <g id="line2d_12">
    <path d="M 55.024993 236.539369 
L 55.171378 232.658353 
L 55.255026 232.398309 
L 55.380498 231.396301 
L 55.547795 230.57308 
L 55.736004 230.012528 
L 55.861476 229.459233 
L 56.007861 228.831932 
L 56.070597 228.692263 
L 56.112421 228.29645 
L 56.258806 227.726408 
L 56.321542 227.593411 
L 56.426102 227.40686 
L 56.656135 226.732433 
L 57.304409 225.580285 
L 57.492618 225.053381 
L 57.639003 224.846905 
L 58.705519 223.467244 
L 58.872815 223.192681 
L 58.998288 223.04722 
L 59.542002 222.266591 
L 59.751122 222.008262 
L 60.12754 221.679805 
L 60.190276 221.591949 
L 60.441221 221.391274 
L 60.73399 221.128081 
L 61.089495 220.90837 
L 61.925978 220.06282 
L 62.260572 219.667201 
L 62.427868 219.531274 
L 62.720637 219.219219 
L 64.226307 217.824498 
L 64.372692 217.742995 
L 64.644549 217.453764 
L 64.895493 217.259477 
L 65.083702 217.073081 
L 65.271911 216.8345 
L 65.439207 216.641403 
L 65.606504 216.545137 
L 66.024746 216.21459 
L 67.237646 215.181936 
L 67.509503 215.03651 
L 67.823184 214.794687 
L 68.095041 214.593283 
L 68.596931 214.204248 
L 68.722404 214.117785 
L 68.8897 213.974186 
L 69.684359 213.293433 
L 70.269897 213.017419 
L 70.416282 212.907854 
L 70.688139 212.762749 
L 70.959996 212.553083 
L 71.671006 212.062236 
L 71.859215 211.957622 
L 72.319281 211.595992 
L 72.528402 211.473477 
L 72.883907 211.148957 
L 73.343973 210.783344 
L 73.490357 210.609948 
L 73.636742 210.511898 
L 74.201368 210.210802 
L 74.410489 210.091364 
L 74.703258 209.823248 
L 75.665213 209.149362 
L 75.957982 208.946034 
L 76.250751 208.808756 
L 79.722156 206.488042 
L 79.994013 206.239761 
L 80.370431 206.007166 
L 80.725936 205.712516 
L 81.37421 205.295297 
L 81.666979 204.956498 
L 82.043397 204.721108 
L 82.27343 204.570222 
L 82.524375 204.44265 
L 85.786659 201.993975 
L 85.912131 201.805304 
L 86.2049 201.516955 
L 86.372197 201.386528 
L 86.685878 201.157136 
L 86.915911 201.005185 
L 87.187768 200.839787 
L 87.459625 200.493137 
L 89.195327 199.346762 
L 89.341712 199.199388 
L 89.801777 198.791921 
L 89.948162 198.670217 
L 90.993766 197.84367 
L 91.307447 197.569073 
L 91.64204 197.373309 
L 91.809337 197.106139 
L 92.14393 196.798906 
L 92.311227 196.617663 
L 94.778852 194.051455 
L 94.967061 193.842079 
L 96.36817 192.26755 
L 96.556378 191.948992 
L 96.702763 191.815921 
L 97.267389 191.007461 
L 97.455598 190.645769 
L 97.622894 190.459007 
L 97.790191 190.156851 
L 97.832015 190.144837 
L 97.999312 189.772927 
L 98.18752 189.626782 
L 99.525893 187.573413 
L 99.58863 187.44208 
L 99.79775 187.032536 
L 99.881399 186.918649 
L 100.048695 186.642138 
L 100.236904 186.330193 
L 100.571497 185.58005 
L 100.759706 185.246356 
L 100.947915 184.992053 
L 101.010651 184.87713 
L 101.261596 184.58881 
L 101.700749 183.674777 
L 101.826222 183.56339 
L 102.620881 181.196654 
L 102.662705 181.150391 
L 102.91365 180.550302 
L 103.352803 179.333125 
L 103.499188 178.731659 
L 103.833781 177.672919 
L 104.252023 175.212841 
L 104.398407 174.348148 
L 104.586616 173.622397 
L 104.691176 173.454528 
L 104.837561 172.747863 
L 105.611308 168.118604 
L 105.63222 168.082809 
L 105.778604 167.414487 
L 105.820429 167.242766 
L 105.987725 165.980768 
L 106.698736 154.665189 
L 106.866032 149.590644 
L 107.033329 145.635493 
L 107.284274 129.809053 
L 107.284274 129.809053 
" clip-path="url(#p7fe9bb191c)" style="fill: none; stroke: #ff7f0e; stroke-width: 1.5; stroke-linecap: square"/>
   </g>
   <g id="patch_3">
    <path d="M 44.57 246.04 
L 44.57 37.026128 
" style="fill: none; stroke: #000000; stroke-width: 0.8; stroke-linejoin: miter; stroke-linecap: square"/>
   </g>
   <g id="patch_4">
    <path d="M 274.579846 246.04 
L 274.579846 37.026128 
" style="fill: none; stroke: #000000; stroke-width: 0.8; stroke-linejoin: miter; stroke-linecap: square"/>
   </g>
   <g id="patch_5">
    <path d="M 44.57 246.04 
L 274.579846 246.04 
" style="fill: none; stroke: #000000; stroke-width: 0.8; stroke-linejoin: miter; stroke-linecap: square"/>
   </g>
   <g id="patch_6">
    <path d="M 44.57 37.026128 
L 274.579846 37.026128 
" style="fill: none; stroke: #000000; stroke-width: 0.8; stroke-linejoin: miter; stroke-linecap: square"/>
   </g>
   <g id="legend_1">
    <g id="patch_7">
     <path d="M 51.57 74.382378 
L 151.759063 74.382378 
Q 153.759063 74.382378 153.759063 72.382378 
L 153.759063 44.026128 
Q 153.759063 42.026128 151.759063 42.026128 
L 51.57 42.026128 
Q 49.57 42.026128 49.57 44.026128 
L 49.57 72.382378 
Q 49.57 74.382378 51.57 74.382378 
z
" style="fill: #ffffff; opacity: 0.8; stroke: #cccccc; stroke-linejoin: miter"/>
    </g>
    <g id="line2d_13">
     <path d="M 53.57 50.124565 
L 63.57 50.124565 
L 73.57 50.124565 
" style="fill: none; stroke: #1f77b4; stroke-width: 1.5; stroke-linecap: square"/>
    </g>
    <g id="text_13">
     <!-- ID samples -->
     <g transform="translate(81.57 53.624565) scale(0.1 -0.1)">
      <defs>
       <path id="DejaVuSans-49" d="M 628 4666 
L 1259 4666 
L 1259 0 
L 628 0 
L 628 4666 
z
" transform="scale(0.015625)"/>
       <path id="DejaVuSans-44" d="M 1259 4147 
L 1259 519 
L 2022 519 
Q 2988 519 3436 956 
Q 3884 1394 3884 2338 
Q 3884 3275 3436 3711 
Q 2988 4147 2022 4147 
L 1259 4147 
z
M 628 4666 
L 1925 4666 
Q 3281 4666 3915 4102 
Q 4550 3538 4550 2338 
Q 4550 1131 3912 565 
Q 3275 0 1925 0 
L 628 0 
L 628 4666 
z
" transform="scale(0.015625)"/>
      </defs>
      <use xlink:href="#DejaVuSans-49"/>
      <use xlink:href="#DejaVuSans-44" transform="translate(29.492188 0)"/>
      <use xlink:href="#DejaVuSans-20" transform="translate(106.494141 0)"/>
      <use xlink:href="#DejaVuSans-73" transform="translate(138.28125 0)"/>
      <use xlink:href="#DejaVuSans-61" transform="translate(190.380859 0)"/>
      <use xlink:href="#DejaVuSans-6d" transform="translate(251.660156 0)"/>
      <use xlink:href="#DejaVuSans-70" transform="translate(349.072266 0)"/>
      <use xlink:href="#DejaVuSans-6c" transform="translate(412.548828 0)"/>
      <use xlink:href="#DejaVuSans-65" transform="translate(440.332031 0)"/>
      <use xlink:href="#DejaVuSans-73" transform="translate(501.855469 0)"/>
     </g>
    </g>
    <g id="line2d_14">
     <path d="M 53.57 64.80269 
L 63.57 64.80269 
L 73.57 64.80269 
" style="fill: none; stroke: #ff7f0e; stroke-width: 1.5; stroke-linecap: square"/>
    </g>
    <g id="text_14">
     <!-- OOD samples -->
     <g transform="translate(81.57 68.30269) scale(0.1 -0.1)">
      <use xlink:href="#DejaVuSans-4f"/>
      <use xlink:href="#DejaVuSans-4f" transform="translate(78.710938 0)"/>
      <use xlink:href="#DejaVuSans-44" transform="translate(157.421875 0)"/>
      <use xlink:href="#DejaVuSans-20" transform="translate(234.423828 0)"/>
      <use xlink:href="#DejaVuSans-73" transform="translate(266.210938 0)"/>
      <use xlink:href="#DejaVuSans-61" transform="translate(318.310547 0)"/>
      <use xlink:href="#DejaVuSans-6d" transform="translate(379.589844 0)"/>
      <use xlink:href="#DejaVuSans-70" transform="translate(477.001953 0)"/>
      <use xlink:href="#DejaVuSans-6c" transform="translate(540.478516 0)"/>
      <use xlink:href="#DejaVuSans-65" transform="translate(568.261719 0)"/>
      <use xlink:href="#DejaVuSans-73" transform="translate(629.785156 0)"/>
     </g>
    </g>
   </g>
  </g>
  <g id="axes_2">
   <g id="patch_8">
    <path d="M 335.190154 246.04 
L 565.2 246.04 
L 565.2 37.026128 
L 335.190154 37.026128 
z
" style="fill: #ffffff"/>
   </g>
   <g id="patch_9">
    <path d="M 347.143536 246.04 
L 355.447595 246.04 
L 355.447595 241.788414 
L 347.143536 241.788414 
z
" clip-path="url(#pc8e1dc9591)" style="fill: #1f77b4; opacity: 0.5"/>
   </g>
   <g id="patch_10">
    <path d="M 355.447595 246.04 
L 363.751652 246.04 
L 363.751652 226.955098 
L 355.447595 226.955098 
z
" clip-path="url(#pc8e1dc9591)" style="fill: #1f77b4; opacity: 0.5"/>
   </g>
   <g id="patch_11">
    <path d="M 363.751652 246.04 
L 372.055711 246.04 
L 372.055711 198.611197 
L 363.751652 198.611197 
z
" clip-path="url(#pc8e1dc9591)" style="fill: #1f77b4; opacity: 0.5"/>
   </g>
   <g id="patch_12">
    <path d="M 372.055711 246.04 
L 380.35977 246.04 
L 380.35977 177.353267 
L 372.055711 177.353267 
z
" clip-path="url(#pc8e1dc9591)" style="fill: #1f77b4; opacity: 0.5"/>
   </g>
   <g id="patch_13">
    <path d="M 380.35977 246.04 
L 388.663826 246.04 
L 388.663826 164.881926 
L 380.35977 164.881926 
z
" clip-path="url(#pc8e1dc9591)" style="fill: #1f77b4; opacity: 0.5"/>
   </g>
   <g id="patch_14">
    <path d="M 388.663826 246.04 
L 396.967883 246.04 
L 396.967883 158.740745 
L 388.663826 158.740745 
z
" clip-path="url(#pc8e1dc9591)" style="fill: #1f77b4; opacity: 0.5"/>
   </g>
   <g id="patch_15">
    <path d="M 396.967883 246.04 
L 405.271949 246.04 
L 405.271949 161.669707 
L 396.967883 161.669707 
z
" clip-path="url(#pc8e1dc9591)" style="fill: #1f77b4; opacity: 0.5"/>
   </g>
   <g id="patch_16">
    <path d="M 405.271949 246.04 
L 413.576006 246.04 
L 413.576006 166.96048 
L 405.271949 166.96048 
z
" clip-path="url(#pc8e1dc9591)" style="fill: #1f77b4; opacity: 0.5"/>
   </g>
   <g id="patch_17">
    <path d="M 413.576006 246.04 
L 421.880063 246.04 
L 421.880063 165.637764 
L 413.576006 165.637764 
z
" clip-path="url(#pc8e1dc9591)" style="fill: #1f77b4; opacity: 0.5"/>
   </g>
   <g id="patch_18">
    <path d="M 421.880063 246.04 
L 430.184119 246.04 
L 430.184119 180.754518 
L 421.880063 180.754518 
z
" clip-path="url(#pc8e1dc9591)" style="fill: #1f77b4; opacity: 0.5"/>
   </g>
   <g id="patch_19">
    <path d="M 430.184119 246.04 
L 438.488176 246.04 
L 438.488176 190.391449 
L 430.184119 190.391449 
z
" clip-path="url(#pc8e1dc9591)" style="fill: #1f77b4; opacity: 0.5"/>
   </g>
   <g id="patch_20">
    <path d="M 438.488176 246.04 
L 446.792233 246.04 
L 446.792233 194.548556 
L 438.488176 194.548556 
z
" clip-path="url(#pc8e1dc9591)" style="fill: #1f77b4; opacity: 0.5"/>
   </g>
   <g id="patch_21">
    <path d="M 446.792233 246.04 
L 455.09629 246.04 
L 455.09629 200.217339 
L 446.792233 200.217339 
z
" clip-path="url(#pc8e1dc9591)" style="fill: #1f77b4; opacity: 0.5"/>
   </g>
   <g id="patch_22">
    <path d="M 455.09629 246.04 
L 463.400355 246.04 
L 463.400355 208.153676 
L 455.09629 208.153676 
z
" clip-path="url(#pc8e1dc9591)" style="fill: #1f77b4; opacity: 0.5"/>
   </g>
   <g id="patch_23">
    <path d="M 463.400355 246.04 
L 471.704412 246.04 
L 471.704412 213.822418 
L 463.400355 213.822418 
z
" clip-path="url(#pc8e1dc9591)" style="fill: #1f77b4; opacity: 0.5"/>
   </g>
   <g id="patch_24">
    <path d="M 471.704412 246.04 
L 480.008469 246.04 
L 480.008469 215.050654 
L 471.704412 215.050654 
z
" clip-path="url(#pc8e1dc9591)" style="fill: #1f77b4; opacity: 0.5"/>
   </g>
   <g id="patch_25">
    <path d="M 480.008469 246.04 
L 488.312535 246.04 
L 488.312535 223.081455 
L 480.008469 223.081455 
z
" clip-path="url(#pc8e1dc9591)" style="fill: #1f77b4; opacity: 0.5"/>
   </g>
   <g id="patch_26">
    <path d="M 488.312535 246.04 
L 496.616583 246.04 
L 496.616583 229.600512 
L 488.312535 229.600512 
z
" clip-path="url(#pc8e1dc9591)" style="fill: #1f77b4; opacity: 0.5"/>
   </g>
   <g id="patch_27">
    <path d="M 496.616583 246.04 
L 504.920648 246.04 
L 504.920648 233.474212 
L 496.616583 233.474212 
z
" clip-path="url(#pc8e1dc9591)" style="fill: #1f77b4; opacity: 0.5"/>
   </g>
   <g id="patch_28">
    <path d="M 504.920648 246.04 
L 513.224714 246.04 
L 513.224714 236.592039 
L 504.920648 236.592039 
z
" clip-path="url(#pc8e1dc9591)" style="fill: #1f77b4; opacity: 0.5"/>
   </g>
   <g id="patch_29">
    <path d="M 513.224714 246.04 
L 521.528762 246.04 
L 521.528762 240.65465 
L 513.224714 240.65465 
z
" clip-path="url(#pc8e1dc9591)" style="fill: #1f77b4; opacity: 0.5"/>
   </g>
   <g id="patch_30">
    <path d="M 521.528762 246.04 
L 529.832828 246.04 
L 529.832828 242.638734 
L 521.528762 242.638734 
z
" clip-path="url(#pc8e1dc9591)" style="fill: #1f77b4; opacity: 0.5"/>
   </g>
   <g id="patch_31">
    <path d="M 529.832828 246.04 
L 538.136893 246.04 
L 538.136893 243.772489 
L 529.832828 243.772489 
z
" clip-path="url(#pc8e1dc9591)" style="fill: #1f77b4; opacity: 0.5"/>
   </g>
   <g id="patch_32">
    <path d="M 538.136893 246.04 
L 546.440941 246.04 
L 546.440941 245.284161 
L 538.136893 245.284161 
z
" clip-path="url(#pc8e1dc9591)" style="fill: #1f77b4; opacity: 0.5"/>
   </g>
   <g id="patch_33">
    <path d="M 546.440941 246.04 
L 554.745007 246.04 
L 554.745007 245.567602 
L 546.440941 245.567602 
z
" clip-path="url(#pc8e1dc9591)" style="fill: #1f77b4; opacity: 0.5"/>
   </g>
   <g id="patch_34">
    <path d="M 345.645147 246.04 
L 350.343213 246.04 
L 350.343213 238.024124 
L 345.645147 238.024124 
z
" clip-path="url(#pc8e1dc9591)" style="fill: #ff7f0e; opacity: 0.5"/>
   </g>
   <g id="patch_35">
    <path d="M 350.343213 246.04 
L 355.041279 246.04 
L 355.041279 217.984433 
L 350.343213 217.984433 
z
" clip-path="url(#pc8e1dc9591)" style="fill: #ff7f0e; opacity: 0.5"/>
   </g>
   <g id="patch_36">
    <path d="M 355.041279 246.04 
L 359.739345 246.04 
L 359.739345 168.553196 
L 355.041279 168.553196 
z
" clip-path="url(#pc8e1dc9591)" style="fill: #ff7f0e; opacity: 0.5"/>
   </g>
   <g id="patch_37">
    <path d="M 359.739345 246.04 
L 364.437411 246.04 
L 364.437411 120.457939 
L 359.739345 120.457939 
z
" clip-path="url(#pc8e1dc9591)" style="fill: #ff7f0e; opacity: 0.5"/>
   </g>
   <g id="patch_38">
    <path d="M 364.437411 246.04 
L 369.135477 246.04 
L 369.135477 95.742321 
L 364.437411 95.742321 
z
" clip-path="url(#pc8e1dc9591)" style="fill: #ff7f0e; opacity: 0.5"/>
   </g>
   <g id="patch_39">
    <path d="M 369.135477 246.04 
L 373.833543 246.04 
L 373.833543 52.990981 
L 369.135477 52.990981 
z
" clip-path="url(#pc8e1dc9591)" style="fill: #ff7f0e; opacity: 0.5"/>
   </g>
   <g id="patch_40">
    <path d="M 373.833543 246.04 
L 378.531611 246.04 
L 378.531611 46.979169 
L 373.833543 46.979169 
z
" clip-path="url(#pc8e1dc9591)" style="fill: #ff7f0e; opacity: 0.5"/>
   </g>
   <g id="patch_41">
    <path d="M 378.531611 246.04 
L 383.229675 246.04 
L 383.229675 63.678728 
L 378.531611 63.678728 
z
" clip-path="url(#pc8e1dc9591)" style="fill: #ff7f0e; opacity: 0.5"/>
   </g>
   <g id="patch_42">
    <path d="M 383.229675 246.04 
L 387.927743 246.04 
L 387.927743 66.350861 
L 383.229675 66.350861 
z
" clip-path="url(#pc8e1dc9591)" style="fill: #ff7f0e; opacity: 0.5"/>
   </g>
   <g id="patch_43">
    <path d="M 387.927743 246.04 
L 392.625807 246.04 
L 392.625807 113.777979 
L 387.927743 113.777979 
z
" clip-path="url(#pc8e1dc9591)" style="fill: #ff7f0e; opacity: 0.5"/>
   </g>
   <g id="patch_44">
    <path d="M 392.625807 246.04 
L 397.32387 246.04 
L 397.32387 141.833559 
L 392.625807 141.833559 
z
" clip-path="url(#pc8e1dc9591)" style="fill: #ff7f0e; opacity: 0.5"/>
   </g>
   <g id="patch_45">
    <path d="M 397.32387 246.04 
L 402.021939 246.04 
L 402.021939 165.881276 
L 397.32387 165.881276 
z
" clip-path="url(#pc8e1dc9591)" style="fill: #ff7f0e; opacity: 0.5"/>
   </g>
   <g id="patch_46">
    <path d="M 402.021939 246.04 
L 406.720007 246.04 
L 406.720007 182.58101 
L 402.021939 182.58101 
z
" clip-path="url(#pc8e1dc9591)" style="fill: #ff7f0e; opacity: 0.5"/>
   </g>
   <g id="patch_47">
    <path d="M 406.720007 246.04 
L 411.418071 246.04 
L 411.418071 203.28864 
L 406.720007 203.28864 
z
" clip-path="url(#pc8e1dc9591)" style="fill: #ff7f0e; opacity: 0.5"/>
   </g>
   <g id="patch_48">
    <path d="M 411.418071 246.04 
L 416.11613 246.04 
L 416.11613 219.320374 
L 411.418071 219.320374 
z
" clip-path="url(#pc8e1dc9591)" style="fill: #ff7f0e; opacity: 0.5"/>
   </g>
   <g id="patch_49">
    <path d="M 416.11613 246.04 
L 420.814198 246.04 
L 420.814198 223.996351 
L 416.11613 223.996351 
z
" clip-path="url(#pc8e1dc9591)" style="fill: #ff7f0e; opacity: 0.5"/>
   </g>
   <g id="patch_50">
    <path d="M 420.814198 246.04 
L 425.512266 246.04 
L 425.512266 226.000319 
L 420.814198 226.000319 
z
" clip-path="url(#pc8e1dc9591)" style="fill: #ff7f0e; opacity: 0.5"/>
   </g>
   <g id="patch_51">
    <path d="M 425.512266 246.04 
L 430.210334 246.04 
L 430.210334 240.028096 
L 425.512266 240.028096 
z
" clip-path="url(#pc8e1dc9591)" style="fill: #ff7f0e; opacity: 0.5"/>
   </g>
   <g id="patch_52">
    <path d="M 430.210334 246.04 
L 434.908403 246.04 
L 434.908403 237.356138 
L 430.210334 237.356138 
z
" clip-path="url(#pc8e1dc9591)" style="fill: #ff7f0e; opacity: 0.5"/>
   </g>
   <g id="patch_53">
    <path d="M 434.908403 246.04 
L 439.606471 246.04 
L 439.606471 242.700053 
L 434.908403 242.700053 
z
" clip-path="url(#pc8e1dc9591)" style="fill: #ff7f0e; opacity: 0.5"/>
   </g>
   <g id="patch_54">
    <path d="M 439.606471 246.04 
L 444.304539 246.04 
L 444.304539 240.028096 
L 439.606471 240.028096 
z
" clip-path="url(#pc8e1dc9591)" style="fill: #ff7f0e; opacity: 0.5"/>
   </g>
   <g id="patch_55">
    <path d="M 444.304539 246.04 
L 449.002589 246.04 
L 449.002589 240.696065 
L 444.304539 240.696065 
z
" clip-path="url(#pc8e1dc9591)" style="fill: #ff7f0e; opacity: 0.5"/>
   </g>
   <g id="patch_56">
    <path d="M 449.002589 246.04 
L 453.700658 246.04 
L 453.700658 244.036032 
L 449.002589 244.036032 
z
" clip-path="url(#pc8e1dc9591)" style="fill: #ff7f0e; opacity: 0.5"/>
   </g>
   <g id="patch_57">
    <path d="M 453.700658 246.04 
L 458.398726 246.04 
L 458.398726 244.036032 
L 453.700658 244.036032 
z
" clip-path="url(#pc8e1dc9591)" style="fill: #ff7f0e; opacity: 0.5"/>
   </g>
   <g id="patch_58">
    <path d="M 458.398726 246.04 
L 463.096794 246.04 
L 463.096794 244.704021 
L 458.398726 244.704021 
z
" clip-path="url(#pc8e1dc9591)" style="fill: #ff7f0e; opacity: 0.5"/>
   </g>
   <g id="matplotlib.axis_3">
    <g id="xtick_7">
     <g id="line2d_15">
      <g>
       <use xlink:href="#m359e70b35a" x="381.621666" y="246.04" style="stroke: #000000; stroke-width: 0.8"/>
      </g>
     </g>
     <g id="text_15">
      <!-- 5 -->
      <g transform="translate(378.440416 260.638438) scale(0.1 -0.1)">
       <use xlink:href="#DejaVuSans-35"/>
      </g>
     </g>
    </g>
    <g id="xtick_8">
     <g id="line2d_16">
      <g>
       <use xlink:href="#m359e70b35a" x="428.901563" y="246.04" style="stroke: #000000; stroke-width: 0.8"/>
      </g>
     </g>
     <g id="text_16">
      <!-- 10 -->
      <g transform="translate(422.539063 260.638438) scale(0.1 -0.1)">
       <use xlink:href="#DejaVuSans-31"/>
       <use xlink:href="#DejaVuSans-30" transform="translate(63.623047 0)"/>
      </g>
     </g>
    </g>
    <g id="xtick_9">
     <g id="line2d_17">
      <g>
       <use xlink:href="#m359e70b35a" x="476.18146" y="246.04" style="stroke: #000000; stroke-width: 0.8"/>
      </g>
     </g>
     <g id="text_17">
      <!-- 15 -->
      <g transform="translate(469.81896 260.638438) scale(0.1 -0.1)">
       <use xlink:href="#DejaVuSans-31"/>
       <use xlink:href="#DejaVuSans-35" transform="translate(63.623047 0)"/>
      </g>
     </g>
    </g>
    <g id="xtick_10">
     <g id="line2d_18">
      <g>
       <use xlink:href="#m359e70b35a" x="523.461357" y="246.04" style="stroke: #000000; stroke-width: 0.8"/>
      </g>
     </g>
     <g id="text_18">
      <!-- 20 -->
      <g transform="translate(517.098857 260.638438) scale(0.1 -0.1)">
       <use xlink:href="#DejaVuSans-32"/>
       <use xlink:href="#DejaVuSans-30" transform="translate(63.623047 0)"/>
      </g>
     </g>
    </g>
    <g id="text_19">
     <!-- Scores -->
     <g transform="translate(433.588046 274.316562) scale(0.1 -0.1)">
      <use xlink:href="#DejaVuSans-53"/>
      <use xlink:href="#DejaVuSans-63" transform="translate(63.476562 0)"/>
      <use xlink:href="#DejaVuSans-6f" transform="translate(118.457031 0)"/>
      <use xlink:href="#DejaVuSans-72" transform="translate(179.638672 0)"/>
      <use xlink:href="#DejaVuSans-65" transform="translate(218.501953 0)"/>
      <use xlink:href="#DejaVuSans-73" transform="translate(280.025391 0)"/>
     </g>
    </g>
   </g>
   <g id="matplotlib.axis_4">
    <g id="ytick_5">
     <g id="line2d_19">
      <g>
       <use xlink:href="#me3aa640b64" x="335.190154" y="246.04" style="stroke: #000000; stroke-width: 0.8"/>
      </g>
     </g>
     <g id="text_20">
      <!-- 0.00 -->
      <g transform="translate(305.924529 249.839219) scale(0.1 -0.1)">
       <defs>
        <path id="DejaVuSans-2e" d="M 684 794 
L 1344 794 
L 1344 0 
L 684 0 
L 684 794 
z
" transform="scale(0.015625)"/>
       </defs>
       <use xlink:href="#DejaVuSans-30"/>
       <use xlink:href="#DejaVuSans-2e" transform="translate(63.623047 0)"/>
       <use xlink:href="#DejaVuSans-30" transform="translate(95.410156 0)"/>
       <use xlink:href="#DejaVuSans-30" transform="translate(159.033203 0)"/>
      </g>
     </g>
    </g>
    <g id="ytick_6">
     <g id="line2d_20">
      <g>
       <use xlink:href="#me3aa640b64" x="335.190154" y="204.554879" style="stroke: #000000; stroke-width: 0.8"/>
      </g>
     </g>
     <g id="text_21">
      <!-- 0.05 -->
      <g transform="translate(305.924529 208.354098) scale(0.1 -0.1)">
       <use xlink:href="#DejaVuSans-30"/>
       <use xlink:href="#DejaVuSans-2e" transform="translate(63.623047 0)"/>
       <use xlink:href="#DejaVuSans-30" transform="translate(95.410156 0)"/>
       <use xlink:href="#DejaVuSans-35" transform="translate(159.033203 0)"/>
      </g>
     </g>
    </g>
    <g id="ytick_7">
     <g id="line2d_21">
      <g>
       <use xlink:href="#me3aa640b64" x="335.190154" y="163.069758" style="stroke: #000000; stroke-width: 0.8"/>
      </g>
     </g>
     <g id="text_22">
      <!-- 0.10 -->
      <g transform="translate(305.924529 166.868976) scale(0.1 -0.1)">
       <use xlink:href="#DejaVuSans-30"/>
       <use xlink:href="#DejaVuSans-2e" transform="translate(63.623047 0)"/>
       <use xlink:href="#DejaVuSans-31" transform="translate(95.410156 0)"/>
       <use xlink:href="#DejaVuSans-30" transform="translate(159.033203 0)"/>
      </g>
     </g>
    </g>
    <g id="ytick_8">
     <g id="line2d_22">
      <g>
       <use xlink:href="#me3aa640b64" x="335.190154" y="121.584636" style="stroke: #000000; stroke-width: 0.8"/>
      </g>
     </g>
     <g id="text_23">
      <!-- 0.15 -->
      <g transform="translate(305.924529 125.383855) scale(0.1 -0.1)">
       <use xlink:href="#DejaVuSans-30"/>
       <use xlink:href="#DejaVuSans-2e" transform="translate(63.623047 0)"/>
       <use xlink:href="#DejaVuSans-31" transform="translate(95.410156 0)"/>
       <use xlink:href="#DejaVuSans-35" transform="translate(159.033203 0)"/>
      </g>
     </g>
    </g>
    <g id="ytick_9">
     <g id="line2d_23">
      <g>
       <use xlink:href="#me3aa640b64" x="335.190154" y="80.099515" style="stroke: #000000; stroke-width: 0.8"/>
      </g>
     </g>
     <g id="text_24">
      <!-- 0.20 -->
      <g transform="translate(305.924529 83.898734) scale(0.1 -0.1)">
       <use xlink:href="#DejaVuSans-30"/>
       <use xlink:href="#DejaVuSans-2e" transform="translate(63.623047 0)"/>
       <use xlink:href="#DejaVuSans-32" transform="translate(95.410156 0)"/>
       <use xlink:href="#DejaVuSans-30" transform="translate(159.033203 0)"/>
      </g>
     </g>
    </g>
    <g id="ytick_10">
     <g id="line2d_24">
      <g>
       <use xlink:href="#me3aa640b64" x="335.190154" y="38.614394" style="stroke: #000000; stroke-width: 0.8"/>
      </g>
     </g>
     <g id="text_25">
      <!-- 0.25 -->
      <g transform="translate(305.924529 42.413613) scale(0.1 -0.1)">
       <use xlink:href="#DejaVuSans-30"/>
       <use xlink:href="#DejaVuSans-2e" transform="translate(63.623047 0)"/>
       <use xlink:href="#DejaVuSans-32" transform="translate(95.410156 0)"/>
       <use xlink:href="#DejaVuSans-35" transform="translate(159.033203 0)"/>
      </g>
     </g>
    </g>
    <g id="text_26">
     <!-- Density -->
     <g transform="translate(299.844841 160.541658) rotate(-90) scale(0.1 -0.1)">
      <defs>
       <path id="DejaVuSans-6e" d="M 3513 2113 
L 3513 0 
L 2938 0 
L 2938 2094 
Q 2938 2591 2744 2837 
Q 2550 3084 2163 3084 
Q 1697 3084 1428 2787 
Q 1159 2491 1159 1978 
L 1159 0 
L 581 0 
L 581 3500 
L 1159 3500 
L 1159 2956 
Q 1366 3272 1645 3428 
Q 1925 3584 2291 3584 
Q 2894 3584 3203 3211 
Q 3513 2838 3513 2113 
z
" transform="scale(0.015625)"/>
       <path id="DejaVuSans-69" d="M 603 3500 
L 1178 3500 
L 1178 0 
L 603 0 
L 603 3500 
z
M 603 4863 
L 1178 4863 
L 1178 4134 
L 603 4134 
L 603 4863 
z
" transform="scale(0.015625)"/>
       <path id="DejaVuSans-74" d="M 1172 4494 
L 1172 3500 
L 2356 3500 
L 2356 3053 
L 1172 3053 
L 1172 1153 
Q 1172 725 1289 603 
Q 1406 481 1766 481 
L 2356 481 
L 2356 0 
L 1766 0 
Q 1100 0 847 248 
Q 594 497 594 1153 
L 594 3053 
L 172 3053 
L 172 3500 
L 594 3500 
L 594 4494 
L 1172 4494 
z
" transform="scale(0.015625)"/>
       <path id="DejaVuSans-79" d="M 2059 -325 
Q 1816 -950 1584 -1140 
Q 1353 -1331 966 -1331 
L 506 -1331 
L 506 -850 
L 844 -850 
Q 1081 -850 1212 -737 
Q 1344 -625 1503 -206 
L 1606 56 
L 191 3500 
L 800 3500 
L 1894 763 
L 2988 3500 
L 3597 3500 
L 2059 -325 
z
" transform="scale(0.015625)"/>
      </defs>
      <use xlink:href="#DejaVuSans-44"/>
      <use xlink:href="#DejaVuSans-65" transform="translate(77.001953 0)"/>
      <use xlink:href="#DejaVuSans-6e" transform="translate(138.525391 0)"/>
      <use xlink:href="#DejaVuSans-73" transform="translate(201.904297 0)"/>
      <use xlink:href="#DejaVuSans-69" transform="translate(254.003906 0)"/>
      <use xlink:href="#DejaVuSans-74" transform="translate(281.787109 0)"/>
      <use xlink:href="#DejaVuSans-79" transform="translate(320.996094 0)"/>
     </g>
    </g>
   </g>
   <g id="patch_59">
    <path d="M 335.190154 246.04 
L 335.190154 37.026128 
" style="fill: none; stroke: #000000; stroke-width: 0.8; stroke-linejoin: miter; stroke-linecap: square"/>
   </g>
   <g id="patch_60">
    <path d="M 565.2 246.04 
L 565.2 37.026128 
" style="fill: none; stroke: #000000; stroke-width: 0.8; stroke-linejoin: miter; stroke-linecap: square"/>
   </g>
   <g id="patch_61">
    <path d="M 335.190154 246.04 
L 565.2 246.04 
" style="fill: none; stroke: #000000; stroke-width: 0.8; stroke-linejoin: miter; stroke-linecap: square"/>
   </g>
   <g id="patch_62">
    <path d="M 335.190154 37.026128 
L 565.2 37.026128 
" style="fill: none; stroke: #000000; stroke-width: 0.8; stroke-linejoin: miter; stroke-linecap: square"/>
   </g>
   <g id="legend_2">
    <g id="patch_63">
     <path d="M 458.010937 74.382378 
L 558.2 74.382378 
Q 560.2 74.382378 560.2 72.382378 
L 560.2 44.026128 
Q 560.2 42.026128 558.2 42.026128 
L 458.010937 42.026128 
Q 456.010937 42.026128 456.010937 44.026128 
L 456.010937 72.382378 
Q 456.010937 74.382378 458.010937 74.382378 
z
" style="fill: #ffffff; opacity: 0.8; stroke: #cccccc; stroke-linejoin: miter"/>
    </g>
    <g id="patch_64">
     <path d="M 460.010937 53.624565 
L 480.010937 53.624565 
L 480.010937 46.624565 
L 460.010937 46.624565 
z
" style="fill: #1f77b4; opacity: 0.5"/>
    </g>
    <g id="text_27">
     <!-- ID samples -->
     <g transform="translate(488.010937 53.624565) scale(0.1 -0.1)">
      <use xlink:href="#DejaVuSans-49"/>
      <use xlink:href="#DejaVuSans-44" transform="translate(29.492188 0)"/>
      <use xlink:href="#DejaVuSans-20" transform="translate(106.494141 0)"/>
      <use xlink:href="#DejaVuSans-73" transform="translate(138.28125 0)"/>
      <use xlink:href="#DejaVuSans-61" transform="translate(190.380859 0)"/>
      <use xlink:href="#DejaVuSans-6d" transform="translate(251.660156 0)"/>
      <use xlink:href="#DejaVuSans-70" transform="translate(349.072266 0)"/>
      <use xlink:href="#DejaVuSans-6c" transform="translate(412.548828 0)"/>
      <use xlink:href="#DejaVuSans-65" transform="translate(440.332031 0)"/>
      <use xlink:href="#DejaVuSans-73" transform="translate(501.855469 0)"/>
     </g>
    </g>
    <g id="patch_65">
     <path d="M 460.010937 68.30269 
L 480.010937 68.30269 
L 480.010937 61.30269 
L 460.010937 61.30269 
z
" style="fill: #ff7f0e; opacity: 0.5"/>
    </g>
    <g id="text_28">
     <!-- OOD samples -->
     <g transform="translate(488.010937 68.30269) scale(0.1 -0.1)">
      <use xlink:href="#DejaVuSans-4f"/>
      <use xlink:href="#DejaVuSans-4f" transform="translate(78.710938 0)"/>
      <use xlink:href="#DejaVuSans-44" transform="translate(157.421875 0)"/>
      <use xlink:href="#DejaVuSans-20" transform="translate(234.423828 0)"/>
      <use xlink:href="#DejaVuSans-73" transform="translate(266.210938 0)"/>
      <use xlink:href="#DejaVuSans-61" transform="translate(318.310547 0)"/>
      <use xlink:href="#DejaVuSans-6d" transform="translate(379.589844 0)"/>
      <use xlink:href="#DejaVuSans-70" transform="translate(477.001953 0)"/>
      <use xlink:href="#DejaVuSans-6c" transform="translate(540.478516 0)"/>
      <use xlink:href="#DejaVuSans-65" transform="translate(568.261719 0)"/>
      <use xlink:href="#DejaVuSans-73" transform="translate(629.785156 0)"/>
     </g>
    </g>
   </g>
  </g>
  <g id="text_29">
   <!-- Scores using max_logit -->
   <g transform="translate(218.8125 14.878125) scale(0.12 -0.12)">
    <defs>
     <path id="DejaVuSans-75" d="M 544 1381 
L 544 3500 
L 1119 3500 
L 1119 1403 
Q 1119 906 1312 657 
Q 1506 409 1894 409 
Q 2359 409 2629 706 
Q 2900 1003 2900 1516 
L 2900 3500 
L 3475 3500 
L 3475 0 
L 2900 0 
L 2900 538 
Q 2691 219 2414 64 
Q 2138 -91 1772 -91 
Q 1169 -91 856 284 
Q 544 659 544 1381 
z
M 1991 3584 
L 1991 3584 
z
" transform="scale(0.015625)"/>
     <path id="DejaVuSans-67" d="M 2906 1791 
Q 2906 2416 2648 2759 
Q 2391 3103 1925 3103 
Q 1463 3103 1205 2759 
Q 947 2416 947 1791 
Q 947 1169 1205 825 
Q 1463 481 1925 481 
Q 2391 481 2648 825 
Q 2906 1169 2906 1791 
z
M 3481 434 
Q 3481 -459 3084 -895 
Q 2688 -1331 1869 -1331 
Q 1566 -1331 1297 -1286 
Q 1028 -1241 775 -1147 
L 775 -588 
Q 1028 -725 1275 -790 
Q 1522 -856 1778 -856 
Q 2344 -856 2625 -561 
Q 2906 -266 2906 331 
L 2906 616 
Q 2728 306 2450 153 
Q 2172 0 1784 0 
Q 1141 0 747 490 
Q 353 981 353 1791 
Q 353 2603 747 3093 
Q 1141 3584 1784 3584 
Q 2172 3584 2450 3431 
Q 2728 3278 2906 2969 
L 2906 3500 
L 3481 3500 
L 3481 434 
z
" transform="scale(0.015625)"/>
     <path id="DejaVuSans-78" d="M 3513 3500 
L 2247 1797 
L 3578 0 
L 2900 0 
L 1881 1375 
L 863 0 
L 184 0 
L 1544 1831 
L 300 3500 
L 978 3500 
L 1906 2253 
L 2834 3500 
L 3513 3500 
z
" transform="scale(0.015625)"/>
     <path id="DejaVuSans-5f" d="M 3263 -1063 
L 3263 -1509 
L -63 -1509 
L -63 -1063 
L 3263 -1063 
z
" transform="scale(0.015625)"/>
    </defs>
    <use xlink:href="#DejaVuSans-53"/>
    <use xlink:href="#DejaVuSans-63" transform="translate(63.476562 0)"/>
    <use xlink:href="#DejaVuSans-6f" transform="translate(118.457031 0)"/>
    <use xlink:href="#DejaVuSans-72" transform="translate(179.638672 0)"/>
    <use xlink:href="#DejaVuSans-65" transform="translate(218.501953 0)"/>
    <use xlink:href="#DejaVuSans-73" transform="translate(280.025391 0)"/>
    <use xlink:href="#DejaVuSans-20" transform="translate(332.125 0)"/>
    <use xlink:href="#DejaVuSans-75" transform="translate(363.912109 0)"/>
    <use xlink:href="#DejaVuSans-73" transform="translate(427.291016 0)"/>
    <use xlink:href="#DejaVuSans-69" transform="translate(479.390625 0)"/>
    <use xlink:href="#DejaVuSans-6e" transform="translate(507.173828 0)"/>
    <use xlink:href="#DejaVuSans-67" transform="translate(570.552734 0)"/>
    <use xlink:href="#DejaVuSans-20" transform="translate(634.029297 0)"/>
    <use xlink:href="#DejaVuSans-6d" transform="translate(665.816406 0)"/>
    <use xlink:href="#DejaVuSans-61" transform="translate(763.228516 0)"/>
    <use xlink:href="#DejaVuSans-78" transform="translate(824.507812 0)"/>
    <use xlink:href="#DejaVuSans-5f" transform="translate(883.6875 0)"/>
    <use xlink:href="#DejaVuSans-6c" transform="translate(933.6875 0)"/>
    <use xlink:href="#DejaVuSans-6f" transform="translate(961.470703 0)"/>
    <use xlink:href="#DejaVuSans-67" transform="translate(1022.652344 0)"/>
    <use xlink:href="#DejaVuSans-69" transform="translate(1086.128906 0)"/>
    <use xlink:href="#DejaVuSans-74" transform="translate(1113.912109 0)"/>
   </g>
  </g>
 </g>
 <defs>
  <clipPath id="p7fe9bb191c">
   <rect x="44.57" y="37.026128" width="230.009846" height="209.013872"/>
  </clipPath>
  <clipPath id="pc8e1dc9591">
   <rect x="335.190154" y="37.026128" width="230.009846" height="209.013872"/>
  </clipPath>
 </defs>
</svg>
