<?xml version="1.0" encoding="utf-8" standalone="no"?>
<!DOCTYPE svg PUBLIC "-//W3C//DTD SVG 1.1//EN"
  "http://www.w3.org/Graphics/SVG/1.1/DTD/svg11.dtd">
<svg xmlns:xlink="http://www.w3.org/1999/xlink" width="576pt" height="288pt" viewBox="0 0 576 288" xmlns="http://www.w3.org/2000/svg" version="1.1">
 <metadata>
  <rdf:RDF xmlns:dc="http://purl.org/dc/elements/1.1/" xmlns:cc="http://creativecommons.org/ns#" xmlns:rdf="http://www.w3.org/1999/02/22-rdf-syntax-ns#">
   <cc:Work>
    <dc:type rdf:resource="http://purl.org/dc/dcmitype/StillImage"/>
    <dc:date>2025-05-24T13:07:59.784566</dc:date>
    <dc:format>image/svg+xml</dc:format>
    <dc:creator>
     <cc:Agent>
      <dc:title>Matplotlib v3.10.1, https://matplotlib.org/</dc:title>
     </cc:Agent>
    </dc:creator>
   </cc:Work>
  </rdf:RDF>
 </metadata>
 <defs>
  <style type="text/css">*{stroke-linejoin: round; stroke-linecap: butt}</style>
 </defs>
 <g id="figure_1">
  <g id="patch_1">
   <path d="M 0 288 
L 576 288 
L 576 0 
L 0 0 
z
" style="fill: #ffffff"/>
  </g>
  <g id="axes_1">
   <g id="patch_2">
    <path d="M 44.57 246.04 
L 274.579846 246.04 
L 274.579846 34.75125 
L 44.57 34.75125 
z
" style="fill: #ffffff"/>
   </g>
   <g id="matplotlib.axis_1">
    <g id="xtick_1">
     <g id="line2d_1">
      <defs>
       <path id="m73472a43bd" d="M 0 0 
L 0 3.5 
" style="stroke: #000000; stroke-width: 0.8"/>
      </defs>
      <g>
       <use xlink:href="#m73472a43bd" x="55.024993" y="246.04" style="stroke: #000000; stroke-width: 0.8"/>
      </g>
     </g>
     <g id="text_1">
      <!-- 0 -->
      <g transform="translate(51.843743 260.638438) scale(0.1 -0.1)">
       <defs>
        <path id="DejaVuSans-30" d="M 2034 4250 
Q 1547 4250 1301 3770 
Q 1056 3291 1056 2328 
Q 1056 1369 1301 889 
Q 1547 409 2034 409 
Q 2525 409 2770 889 
Q 3016 1369 3016 2328 
Q 3016 3291 2770 3770 
Q 2525 4250 2034 4250 
z
M 2034 4750 
Q 2819 4750 3233 4129 
Q 3647 3509 3647 2328 
Q 3647 1150 3233 529 
Q 2819 -91 2034 -91 
Q 1250 -91 836 529 
Q 422 1150 422 2328 
Q 422 3509 836 4129 
Q 1250 4750 2034 4750 
z
" transform="scale(0.015625)"/>
       </defs>
       <use xlink:href="#DejaVuSans-30"/>
      </g>
     </g>
    </g>
    <g id="xtick_2">
     <g id="line2d_2">
      <g>
       <use xlink:href="#m73472a43bd" x="96.849147" y="246.04" style="stroke: #000000; stroke-width: 0.8"/>
      </g>
     </g>
     <g id="text_2">
      <!-- 2000 -->
      <g transform="translate(84.124147 260.638438) scale(0.1 -0.1)">
       <defs>
        <path id="DejaVuSans-32" d="M 1228 531 
L 3431 531 
L 3431 0 
L 469 0 
L 469 531 
Q 828 903 1448 1529 
Q 2069 2156 2228 2338 
Q 2531 2678 2651 2914 
Q 2772 3150 2772 3378 
Q 2772 3750 2511 3984 
Q 2250 4219 1831 4219 
Q 1534 4219 1204 4116 
Q 875 4013 500 3803 
L 500 4441 
Q 881 4594 1212 4672 
Q 1544 4750 1819 4750 
Q 2544 4750 2975 4387 
Q 3406 4025 3406 3419 
Q 3406 3131 3298 2873 
Q 3191 2616 2906 2266 
Q 2828 2175 2409 1742 
Q 1991 1309 1228 531 
z
" transform="scale(0.015625)"/>
       </defs>
       <use xlink:href="#DejaVuSans-32"/>
       <use xlink:href="#DejaVuSans-30" transform="translate(63.623047 0)"/>
       <use xlink:href="#DejaVuSans-30" transform="translate(127.246094 0)"/>
       <use xlink:href="#DejaVuSans-30" transform="translate(190.869141 0)"/>
      </g>
     </g>
    </g>
    <g id="xtick_3">
     <g id="line2d_3">
      <g>
       <use xlink:href="#m73472a43bd" x="138.673302" y="246.04" style="stroke: #000000; stroke-width: 0.8"/>
      </g>
     </g>
     <g id="text_3">
      <!-- 4000 -->
      <g transform="translate(125.948302 260.638438) scale(0.1 -0.1)">
       <defs>
        <path id="DejaVuSans-34" d="M 2419 4116 
L 825 1625 
L 2419 1625 
L 2419 4116 
z
M 2253 4666 
L 3047 4666 
L 3047 1625 
L 3713 1625 
L 3713 1100 
L 3047 1100 
L 3047 0 
L 2419 0 
L 2419 1100 
L 313 1100 
L 313 1709 
L 2253 4666 
z
" transform="scale(0.015625)"/>
       </defs>
       <use xlink:href="#DejaVuSans-34"/>
       <use xlink:href="#DejaVuSans-30" transform="translate(63.623047 0)"/>
       <use xlink:href="#DejaVuSans-30" transform="translate(127.246094 0)"/>
       <use xlink:href="#DejaVuSans-30" transform="translate(190.869141 0)"/>
      </g>
     </g>
    </g>
    <g id="xtick_4">
     <g id="line2d_4">
      <g>
       <use xlink:href="#m73472a43bd" x="180.497456" y="246.04" style="stroke: #000000; stroke-width: 0.8"/>
      </g>
     </g>
     <g id="text_4">
      <!-- 6000 -->
      <g transform="translate(167.772456 260.638438) scale(0.1 -0.1)">
       <defs>
        <path id="DejaVuSans-36" d="M 2113 2584 
Q 1688 2584 1439 2293 
Q 1191 2003 1191 1497 
Q 1191 994 1439 701 
Q 1688 409 2113 409 
Q 2538 409 2786 701 
Q 3034 994 3034 1497 
Q 3034 2003 2786 2293 
Q 2538 2584 2113 2584 
z
M 3366 4563 
L 3366 3988 
Q 3128 4100 2886 4159 
Q 2644 4219 2406 4219 
Q 1781 4219 1451 3797 
Q 1122 3375 1075 2522 
Q 1259 2794 1537 2939 
Q 1816 3084 2150 3084 
Q 2853 3084 3261 2657 
Q 3669 2231 3669 1497 
Q 3669 778 3244 343 
Q 2819 -91 2113 -91 
Q 1303 -91 875 529 
Q 447 1150 447 2328 
Q 447 3434 972 4092 
Q 1497 4750 2381 4750 
Q 2619 4750 2861 4703 
Q 3103 4656 3366 4563 
z
" transform="scale(0.015625)"/>
       </defs>
       <use xlink:href="#DejaVuSans-36"/>
       <use xlink:href="#DejaVuSans-30" transform="translate(63.623047 0)"/>
       <use xlink:href="#DejaVuSans-30" transform="translate(127.246094 0)"/>
       <use xlink:href="#DejaVuSans-30" transform="translate(190.869141 0)"/>
      </g>
     </g>
    </g>
    <g id="xtick_5">
     <g id="line2d_5">
      <g>
       <use xlink:href="#m73472a43bd" x="222.321611" y="246.04" style="stroke: #000000; stroke-width: 0.8"/>
      </g>
     </g>
     <g id="text_5">
      <!-- 8000 -->
      <g transform="translate(209.596611 260.638438) scale(0.1 -0.1)">
       <defs>
        <path id="DejaVuSans-38" d="M 2034 2216 
Q 1584 2216 1326 1975 
Q 1069 1734 1069 1313 
Q 1069 891 1326 650 
Q 1584 409 2034 409 
Q 2484 409 2743 651 
Q 3003 894 3003 1313 
Q 3003 1734 2745 1975 
Q 2488 2216 2034 2216 
z
M 1403 2484 
Q 997 2584 770 2862 
Q 544 3141 544 3541 
Q 544 4100 942 4425 
Q 1341 4750 2034 4750 
Q 2731 4750 3128 4425 
Q 3525 4100 3525 3541 
Q 3525 3141 3298 2862 
Q 3072 2584 2669 2484 
Q 3125 2378 3379 2068 
Q 3634 1759 3634 1313 
Q 3634 634 3220 271 
Q 2806 -91 2034 -91 
Q 1263 -91 848 271 
Q 434 634 434 1313 
Q 434 1759 690 2068 
Q 947 2378 1403 2484 
z
M 1172 3481 
Q 1172 3119 1398 2916 
Q 1625 2713 2034 2713 
Q 2441 2713 2670 2916 
Q 2900 3119 2900 3481 
Q 2900 3844 2670 4047 
Q 2441 4250 2034 4250 
Q 1625 4250 1398 4047 
Q 1172 3844 1172 3481 
z
" transform="scale(0.015625)"/>
       </defs>
       <use xlink:href="#DejaVuSans-38"/>
       <use xlink:href="#DejaVuSans-30" transform="translate(63.623047 0)"/>
       <use xlink:href="#DejaVuSans-30" transform="translate(127.246094 0)"/>
       <use xlink:href="#DejaVuSans-30" transform="translate(190.869141 0)"/>
      </g>
     </g>
    </g>
    <g id="xtick_6">
     <g id="line2d_6">
      <g>
       <use xlink:href="#m73472a43bd" x="264.145765" y="246.04" style="stroke: #000000; stroke-width: 0.8"/>
      </g>
     </g>
     <g id="text_6">
      <!-- 10000 -->
      <g transform="translate(248.239515 260.638438) scale(0.1 -0.1)">
       <defs>
        <path id="DejaVuSans-31" d="M 794 531 
L 1825 531 
L 1825 4091 
L 703 3866 
L 703 4441 
L 1819 4666 
L 2450 4666 
L 2450 531 
L 3481 531 
L 3481 0 
L 794 0 
L 794 531 
z
" transform="scale(0.015625)"/>
       </defs>
       <use xlink:href="#DejaVuSans-31"/>
       <use xlink:href="#DejaVuSans-30" transform="translate(63.623047 0)"/>
       <use xlink:href="#DejaVuSans-30" transform="translate(127.246094 0)"/>
       <use xlink:href="#DejaVuSans-30" transform="translate(190.869141 0)"/>
       <use xlink:href="#DejaVuSans-30" transform="translate(254.492188 0)"/>
      </g>
     </g>
    </g>
    <g id="text_7">
     <!-- Ordered samples -->
     <g transform="translate(116.853829 274.316562) scale(0.1 -0.1)">
      <defs>
       <path id="DejaVuSans-4f" d="M 2522 4238 
Q 1834 4238 1429 3725 
Q 1025 3213 1025 2328 
Q 1025 1447 1429 934 
Q 1834 422 2522 422 
Q 3209 422 3611 934 
Q 4013 1447 4013 2328 
Q 4013 3213 3611 3725 
Q 3209 4238 2522 4238 
z
M 2522 4750 
Q 3503 4750 4090 4092 
Q 4678 3434 4678 2328 
Q 4678 1225 4090 567 
Q 3503 -91 2522 -91 
Q 1538 -91 948 565 
Q 359 1222 359 2328 
Q 359 3434 948 4092 
Q 1538 4750 2522 4750 
z
" transform="scale(0.015625)"/>
       <path id="DejaVuSans-72" d="M 2631 2963 
Q 2534 3019 2420 3045 
Q 2306 3072 2169 3072 
Q 1681 3072 1420 2755 
Q 1159 2438 1159 1844 
L 1159 0 
L 581 0 
L 581 3500 
L 1159 3500 
L 1159 2956 
Q 1341 3275 1631 3429 
Q 1922 3584 2338 3584 
Q 2397 3584 2469 3576 
Q 2541 3569 2628 3553 
L 2631 2963 
z
" transform="scale(0.015625)"/>
       <path id="DejaVuSans-64" d="M 2906 2969 
L 2906 4863 
L 3481 4863 
L 3481 0 
L 2906 0 
L 2906 525 
Q 2725 213 2448 61 
Q 2172 -91 1784 -91 
Q 1150 -91 751 415 
Q 353 922 353 1747 
Q 353 2572 751 3078 
Q 1150 3584 1784 3584 
Q 2172 3584 2448 3432 
Q 2725 3281 2906 2969 
z
M 947 1747 
Q 947 1113 1208 752 
Q 1469 391 1925 391 
Q 2381 391 2643 752 
Q 2906 1113 2906 1747 
Q 2906 2381 2643 2742 
Q 2381 3103 1925 3103 
Q 1469 3103 1208 2742 
Q 947 2381 947 1747 
z
" transform="scale(0.015625)"/>
       <path id="DejaVuSans-65" d="M 3597 1894 
L 3597 1613 
L 953 1613 
Q 991 1019 1311 708 
Q 1631 397 2203 397 
Q 2534 397 2845 478 
Q 3156 559 3463 722 
L 3463 178 
Q 3153 47 2828 -22 
Q 2503 -91 2169 -91 
Q 1331 -91 842 396 
Q 353 884 353 1716 
Q 353 2575 817 3079 
Q 1281 3584 2069 3584 
Q 2775 3584 3186 3129 
Q 3597 2675 3597 1894 
z
M 3022 2063 
Q 3016 2534 2758 2815 
Q 2500 3097 2075 3097 
Q 1594 3097 1305 2825 
Q 1016 2553 972 2059 
L 3022 2063 
z
" transform="scale(0.015625)"/>
       <path id="DejaVuSans-20" transform="scale(0.015625)"/>
       <path id="DejaVuSans-73" d="M 2834 3397 
L 2834 2853 
Q 2591 2978 2328 3040 
Q 2066 3103 1784 3103 
Q 1356 3103 1142 2972 
Q 928 2841 928 2578 
Q 928 2378 1081 2264 
Q 1234 2150 1697 2047 
L 1894 2003 
Q 2506 1872 2764 1633 
Q 3022 1394 3022 966 
Q 3022 478 2636 193 
Q 2250 -91 1575 -91 
Q 1294 -91 989 -36 
Q 684 19 347 128 
L 347 722 
Q 666 556 975 473 
Q 1284 391 1588 391 
Q 1994 391 2212 530 
Q 2431 669 2431 922 
Q 2431 1156 2273 1281 
Q 2116 1406 1581 1522 
L 1381 1569 
Q 847 1681 609 1914 
Q 372 2147 372 2553 
Q 372 3047 722 3315 
Q 1072 3584 1716 3584 
Q 2034 3584 2315 3537 
Q 2597 3491 2834 3397 
z
" transform="scale(0.015625)"/>
       <path id="DejaVuSans-61" d="M 2194 1759 
Q 1497 1759 1228 1600 
Q 959 1441 959 1056 
Q 959 750 1161 570 
Q 1363 391 1709 391 
Q 2188 391 2477 730 
Q 2766 1069 2766 1631 
L 2766 1759 
L 2194 1759 
z
M 3341 1997 
L 3341 0 
L 2766 0 
L 2766 531 
Q 2569 213 2275 61 
Q 1981 -91 1556 -91 
Q 1019 -91 701 211 
Q 384 513 384 1019 
Q 384 1609 779 1909 
Q 1175 2209 1959 2209 
L 2766 2209 
L 2766 2266 
Q 2766 2663 2505 2880 
Q 2244 3097 1772 3097 
Q 1472 3097 1187 3025 
Q 903 2953 641 2809 
L 641 3341 
Q 956 3463 1253 3523 
Q 1550 3584 1831 3584 
Q 2591 3584 2966 3190 
Q 3341 2797 3341 1997 
z
" transform="scale(0.015625)"/>
       <path id="DejaVuSans-6d" d="M 3328 2828 
Q 3544 3216 3844 3400 
Q 4144 3584 4550 3584 
Q 5097 3584 5394 3201 
Q 5691 2819 5691 2113 
L 5691 0 
L 5113 0 
L 5113 2094 
Q 5113 2597 4934 2840 
Q 4756 3084 4391 3084 
Q 3944 3084 3684 2787 
Q 3425 2491 3425 1978 
L 3425 0 
L 2847 0 
L 2847 2094 
Q 2847 2600 2669 2842 
Q 2491 3084 2119 3084 
Q 1678 3084 1418 2786 
Q 1159 2488 1159 1978 
L 1159 0 
L 581 0 
L 581 3500 
L 1159 3500 
L 1159 2956 
Q 1356 3278 1631 3431 
Q 1906 3584 2284 3584 
Q 2666 3584 2933 3390 
Q 3200 3197 3328 2828 
z
" transform="scale(0.015625)"/>
       <path id="DejaVuSans-70" d="M 1159 525 
L 1159 -1331 
L 581 -1331 
L 581 3500 
L 1159 3500 
L 1159 2969 
Q 1341 3281 1617 3432 
Q 1894 3584 2278 3584 
Q 2916 3584 3314 3078 
Q 3713 2572 3713 1747 
Q 3713 922 3314 415 
Q 2916 -91 2278 -91 
Q 1894 -91 1617 61 
Q 1341 213 1159 525 
z
M 3116 1747 
Q 3116 2381 2855 2742 
Q 2594 3103 2138 3103 
Q 1681 3103 1420 2742 
Q 1159 2381 1159 1747 
Q 1159 1113 1420 752 
Q 1681 391 2138 391 
Q 2594 391 2855 752 
Q 3116 1113 3116 1747 
z
" transform="scale(0.015625)"/>
       <path id="DejaVuSans-6c" d="M 603 4863 
L 1178 4863 
L 1178 0 
L 603 0 
L 603 4863 
z
" transform="scale(0.015625)"/>
      </defs>
      <use xlink:href="#DejaVuSans-4f"/>
      <use xlink:href="#DejaVuSans-72" transform="translate(78.710938 0)"/>
      <use xlink:href="#DejaVuSans-64" transform="translate(118.074219 0)"/>
      <use xlink:href="#DejaVuSans-65" transform="translate(181.550781 0)"/>
      <use xlink:href="#DejaVuSans-72" transform="translate(243.074219 0)"/>
      <use xlink:href="#DejaVuSans-65" transform="translate(281.9375 0)"/>
      <use xlink:href="#DejaVuSans-64" transform="translate(343.460938 0)"/>
      <use xlink:href="#DejaVuSans-20" transform="translate(406.9375 0)"/>
      <use xlink:href="#DejaVuSans-73" transform="translate(438.724609 0)"/>
      <use xlink:href="#DejaVuSans-61" transform="translate(490.824219 0)"/>
      <use xlink:href="#DejaVuSans-6d" transform="translate(552.103516 0)"/>
      <use xlink:href="#DejaVuSans-70" transform="translate(649.515625 0)"/>
      <use xlink:href="#DejaVuSans-6c" transform="translate(712.992188 0)"/>
      <use xlink:href="#DejaVuSans-65" transform="translate(740.775391 0)"/>
      <use xlink:href="#DejaVuSans-73" transform="translate(802.298828 0)"/>
     </g>
    </g>
   </g>
   <g id="matplotlib.axis_2">
    <g id="ytick_1">
     <g id="line2d_7">
      <defs>
       <path id="m9b7f18906d" d="M 0 0 
L -3.5 0 
" style="stroke: #000000; stroke-width: 0.8"/>
      </defs>
      <g>
       <use xlink:href="#m9b7f18906d" x="44.57" y="243.886208" style="stroke: #000000; stroke-width: 0.8"/>
      </g>
     </g>
     <g id="text_8">
      <!-- 0 -->
      <g transform="translate(31.2075 247.685426) scale(0.1 -0.1)">
       <use xlink:href="#DejaVuSans-30"/>
      </g>
     </g>
    </g>
    <g id="ytick_2">
     <g id="line2d_8">
      <g>
       <use xlink:href="#m9b7f18906d" x="44.57" y="199.737936" style="stroke: #000000; stroke-width: 0.8"/>
      </g>
     </g>
     <g id="text_9">
      <!-- 5 -->
      <g transform="translate(31.2075 203.537155) scale(0.1 -0.1)">
       <defs>
        <path id="DejaVuSans-35" d="M 691 4666 
L 3169 4666 
L 3169 4134 
L 1269 4134 
L 1269 2991 
Q 1406 3038 1543 3061 
Q 1681 3084 1819 3084 
Q 2600 3084 3056 2656 
Q 3513 2228 3513 1497 
Q 3513 744 3044 326 
Q 2575 -91 1722 -91 
Q 1428 -91 1123 -41 
Q 819 9 494 109 
L 494 744 
Q 775 591 1075 516 
Q 1375 441 1709 441 
Q 2250 441 2565 725 
Q 2881 1009 2881 1497 
Q 2881 1984 2565 2268 
Q 2250 2553 1709 2553 
Q 1456 2553 1204 2497 
Q 953 2441 691 2322 
L 691 4666 
z
" transform="scale(0.015625)"/>
       </defs>
       <use xlink:href="#DejaVuSans-35"/>
      </g>
     </g>
    </g>
    <g id="ytick_3">
     <g id="line2d_9">
      <g>
       <use xlink:href="#m9b7f18906d" x="44.57" y="155.589665" style="stroke: #000000; stroke-width: 0.8"/>
      </g>
     </g>
     <g id="text_10">
      <!-- 10 -->
      <g transform="translate(24.845 159.388884) scale(0.1 -0.1)">
       <use xlink:href="#DejaVuSans-31"/>
       <use xlink:href="#DejaVuSans-30" transform="translate(63.623047 0)"/>
      </g>
     </g>
    </g>
    <g id="ytick_4">
     <g id="line2d_10">
      <g>
       <use xlink:href="#m9b7f18906d" x="44.57" y="111.441394" style="stroke: #000000; stroke-width: 0.8"/>
      </g>
     </g>
     <g id="text_11">
      <!-- 15 -->
      <g transform="translate(24.845 115.240612) scale(0.1 -0.1)">
       <use xlink:href="#DejaVuSans-31"/>
       <use xlink:href="#DejaVuSans-35" transform="translate(63.623047 0)"/>
      </g>
     </g>
    </g>
    <g id="ytick_5">
     <g id="line2d_11">
      <g>
       <use xlink:href="#m9b7f18906d" x="44.57" y="67.293122" style="stroke: #000000; stroke-width: 0.8"/>
      </g>
     </g>
     <g id="text_12">
      <!-- 20 -->
      <g transform="translate(24.845 71.092341) scale(0.1 -0.1)">
       <use xlink:href="#DejaVuSans-32"/>
       <use xlink:href="#DejaVuSans-30" transform="translate(63.623047 0)"/>
      </g>
     </g>
    </g>
    <g id="text_13">
     <!-- Scores -->
     <g transform="translate(18.765313 157.002656) rotate(-90) scale(0.1 -0.1)">
      <defs>
       <path id="DejaVuSans-53" d="M 3425 4513 
L 3425 3897 
Q 3066 4069 2747 4153 
Q 2428 4238 2131 4238 
Q 1616 4238 1336 4038 
Q 1056 3838 1056 3469 
Q 1056 3159 1242 3001 
Q 1428 2844 1947 2747 
L 2328 2669 
Q 3034 2534 3370 2195 
Q 3706 1856 3706 1288 
Q 3706 609 3251 259 
Q 2797 -91 1919 -91 
Q 1588 -91 1214 -16 
Q 841 59 441 206 
L 441 856 
Q 825 641 1194 531 
Q 1563 422 1919 422 
Q 2459 422 2753 634 
Q 3047 847 3047 1241 
Q 3047 1584 2836 1778 
Q 2625 1972 2144 2069 
L 1759 2144 
Q 1053 2284 737 2584 
Q 422 2884 422 3419 
Q 422 4038 858 4394 
Q 1294 4750 2059 4750 
Q 2388 4750 2728 4690 
Q 3069 4631 3425 4513 
z
" transform="scale(0.015625)"/>
       <path id="DejaVuSans-63" d="M 3122 3366 
L 3122 2828 
Q 2878 2963 2633 3030 
Q 2388 3097 2138 3097 
Q 1578 3097 1268 2742 
Q 959 2388 959 1747 
Q 959 1106 1268 751 
Q 1578 397 2138 397 
Q 2388 397 2633 464 
Q 2878 531 3122 666 
L 3122 134 
Q 2881 22 2623 -34 
Q 2366 -91 2075 -91 
Q 1284 -91 818 406 
Q 353 903 353 1747 
Q 353 2603 823 3093 
Q 1294 3584 2113 3584 
Q 2378 3584 2631 3529 
Q 2884 3475 3122 3366 
z
" transform="scale(0.015625)"/>
       <path id="DejaVuSans-6f" d="M 1959 3097 
Q 1497 3097 1228 2736 
Q 959 2375 959 1747 
Q 959 1119 1226 758 
Q 1494 397 1959 397 
Q 2419 397 2687 759 
Q 2956 1122 2956 1747 
Q 2956 2369 2687 2733 
Q 2419 3097 1959 3097 
z
M 1959 3584 
Q 2709 3584 3137 3096 
Q 3566 2609 3566 1747 
Q 3566 888 3137 398 
Q 2709 -91 1959 -91 
Q 1206 -91 779 398 
Q 353 888 353 1747 
Q 353 2609 779 3096 
Q 1206 3584 1959 3584 
z
" transform="scale(0.015625)"/>
      </defs>
      <use xlink:href="#DejaVuSans-53"/>
      <use xlink:href="#DejaVuSans-63" transform="translate(63.476562 0)"/>
      <use xlink:href="#DejaVuSans-6f" transform="translate(118.457031 0)"/>
      <use xlink:href="#DejaVuSans-72" transform="translate(179.638672 0)"/>
      <use xlink:href="#DejaVuSans-65" transform="translate(218.501953 0)"/>
      <use xlink:href="#DejaVuSans-73" transform="translate(280.025391 0)"/>
     </g>
    </g>
   </g>
   <g id="line2d_12">
    <path d="M 55.024993 236.435966 
L 55.171378 232.745831 
L 55.19229 232.662831 
L 55.359586 229.786968 
L 56.049685 227.192725 
L 56.070597 227.185817 
L 56.30063 226.318271 
L 56.447014 226.155793 
L 56.90708 224.911191 
L 57.032552 224.758693 
L 57.178937 224.571735 
L 57.283497 224.440992 
L 57.429882 224.116087 
L 57.492618 224.03203 
L 57.639003 223.689526 
L 57.701739 223.624923 
L 57.869036 223.281579 
L 58.078156 223.176694 
L 58.245453 222.87088 
L 58.391837 222.802225 
L 58.600958 222.438589 
L 58.705519 222.325256 
L 59.249233 221.753418 
L 59.416529 221.458095 
L 59.688386 221.249503 
L 60.190276 220.795418 
L 60.462133 220.57405 
L 60.671254 220.349011 
L 60.922199 220.173355 
L 61.068583 219.953344 
L 61.277704 219.769303 
L 61.779594 219.278819 
L 62.511517 218.655144 
L 62.971582 218.24671 
L 63.138879 218.083283 
L 63.410736 217.897432 
L 63.598945 217.752443 
L 63.808065 217.576467 
L 64.247219 217.312557 
L 64.539988 217.129933 
L 66.003834 216.094511 
L 66.212954 215.981986 
L 67.091262 215.468971 
L 67.27947 215.356305 
L 67.634976 215.213399 
L 68.074129 214.921492 
L 68.28325 214.80659 
L 68.450547 214.719313 
L 68.659667 214.604058 
L 68.868788 214.507273 
L 69.245206 214.283567 
L 69.726183 213.994999 
L 69.956216 213.855303 
L 70.416282 213.589357 
L 70.604491 213.481327 
L 70.918172 213.270121 
L 71.294589 213.020218 
L 71.461886 212.856058 
L 71.817391 212.725374 
L 71.984688 212.601602 
L 72.50749 212.373203 
L 72.695698 212.292007 
L 72.904819 212.171997 
L 73.657654 211.705368 
L 73.845863 211.595595 
L 74.096807 211.483563 
L 76.689905 210.220191 
L 76.857202 210.077809 
L 77.04541 209.976084 
L 77.400916 209.847217 
L 78.007366 209.569263 
L 78.258311 209.465066 
L 78.446519 209.331412 
L 78.613816 209.292237 
L 78.927497 209.148011 
L 79.094794 209.042831 
L 79.450299 208.910253 
L 79.701244 208.805625 
L 80.684112 208.35668 
L 81.081441 208.187817 
L 81.625155 207.977487 
L 82.398902 207.627248 
L 82.775319 207.493209 
L 85.284769 206.342064 
L 85.765747 206.1505 
L 86.079428 206.01569 
L 86.267636 205.916828 
L 86.518581 205.812635 
L 86.915911 205.646391 
L 87.166856 205.547158 
L 87.606009 205.358751 
L 87.81513 205.237309 
L 88.233372 205.047757 
L 88.547053 204.883344 
L 88.986206 204.750046 
L 89.278976 204.637711 
L 89.52992 204.481231 
L 90.199107 204.177566 
L 90.408228 204.10013 
L 90.554612 203.99537 
L 91.098326 203.847213 
L 91.662952 203.663421 
L 91.809337 203.593353 
L 92.185754 203.468306 
L 95.113445 202.259329 
L 95.657159 202.059845 
L 96.911884 201.622651 
L 97.267389 201.490948 
L 97.47651 201.423381 
L 99.170388 200.795544 
L 99.504981 200.674427 
L 99.714102 200.562167 
L 100.404201 200.29613 
L 102.788177 199.377513 
L 103.457364 199.170202 
L 110.525646 197.046447 
L 110.881151 196.932129 
L 111.194832 196.824071 
L 112.07314 196.472043 
L 112.428645 196.320413 
L 112.658678 196.267696 
L 112.930535 196.162232 
L 113.474249 196.000952 
L 113.808842 195.87623 
L 123.65843 192.730364 
L 123.930287 192.622892 
L 124.578562 192.405926 
L 124.892243 192.289225 
L 126.586121 191.754011 
L 126.77433 191.699862 
L 127.234396 191.577759 
L 127.715373 191.461946 
L 129.764757 190.649693 
L 129.973878 190.551539 
L 130.7058 190.333571 
L 131.814141 189.99553 
L 132.399679 189.756405 
L 132.671536 189.650802 
L 133.21525 189.441285 
L 133.633491 189.300778 
L 134.239942 189.119512 
L 134.637271 188.933694 
L 135.013688 188.817696 
L 135.390106 188.719735 
L 135.850171 188.565566 
L 136.184765 188.427687 
L 136.582094 188.288519 
L 136.895775 188.182946 
L 137.460401 188.011776 
L 140.785422 186.874159 
L 141.140927 186.768767 
L 141.433696 186.585598 
L 142.709333 186.198258 
L 143.294871 185.912883 
L 143.901321 185.741873 
L 144.08953 185.650522 
L 144.424123 185.518491 
L 145.532463 185.154501 
L 146.013441 185.036676 
L 146.494419 184.86274 
L 146.891748 184.744131 
L 147.059045 184.639366 
L 147.435462 184.493281 
L 147.937352 184.315379 
L 151.764262 182.970876 
L 151.973383 182.886657 
L 153.269932 182.430268 
L 153.479053 182.344193 
L 153.834558 182.20596 
L 154.712865 181.866348 
L 155.382052 181.6691 
L 155.695733 181.557379 
L 156.07215 181.390104 
L 156.302183 181.297822 
L 157.159578 181.04341 
L 157.556908 180.894875 
L 158.874369 180.50207 
L 159.020753 180.428958 
L 159.418083 180.274275 
L 159.68994 180.108558 
L 159.919972 180.015165 
L 160.317302 179.88001 
L 160.944664 179.654741 
L 161.341994 179.552822 
L 161.781147 179.435784 
L 166.026299 177.936629 
L 166.23542 177.826685 
L 166.590925 177.698485 
L 167.636529 177.367614 
L 168.138419 177.221899 
L 169.267671 176.691847 
L 169.539528 176.582139 
L 169.978682 176.452765 
L 171.191582 176.105259 
L 171.526175 175.972794 
L 171.923505 175.849339 
L 172.216274 175.759618 
L 172.425395 175.629544 
L 173.575559 175.1517 
L 173.847416 175.008019 
L 174.202921 174.851905 
L 174.432954 174.781269 
L 174.746635 174.646901 
L 175.373997 174.390236 
L 176.022272 174.089283 
L 176.231393 174.028714 
L 177.339733 173.706411 
L 177.569766 173.634419 
L 178.468985 173.367511 
L 178.929051 173.235905 
L 179.93283 172.858703 
L 180.602017 172.679984 
L 180.873874 172.550913 
L 181.271203 172.463297 
L 181.689445 172.339556 
L 182.191335 172.088049 
L 182.463192 171.974261 
L 182.923257 171.765211 
L 183.822477 171.47827 
L 184.240718 171.245448 
L 184.554399 171.134978 
L 184.993553 170.977033 
L 185.36997 170.828173 
L 198.398194 165.798094 
L 198.502755 165.682504 
L 198.85826 165.541922 
L 199.171941 165.420825 
L 199.443798 165.326076 
L 199.778392 165.207068 
L 200.008424 165.069012 
L 204.2954 163.209757 
L 204.525433 163.079338 
L 204.671818 162.962123 
L 206.156575 162.25299 
L 206.428432 162.037877 
L 206.700289 161.895863 
L 206.930322 161.716538 
L 207.223091 161.491244 
L 207.829541 161.274456 
L 208.101398 161.188237 
L 208.373255 161.028119 
L 208.749673 160.900951 
L 209.23065 160.704784 
L 209.481595 160.553474 
L 210.652672 159.927646 
L 210.903617 159.774643 
L 211.23821 159.681553 
L 211.489155 159.517124 
L 211.84466 159.370605 
L 214.249549 158.159729 
L 214.855999 157.884838 
L 215.06512 157.798384 
L 215.378801 157.660648 
L 215.650658 157.478687 
L 215.817955 157.361901 
L 216.006163 157.271076 
L 216.298933 157.096871 
L 216.466229 157.01162 
L 217.407273 156.657273 
L 217.762778 156.419272 
L 218.118283 156.209565 
L 218.452877 156.054112 
L 218.724734 155.848212 
L 219.582129 155.394315 
L 220.251315 154.853813 
L 220.439524 154.734821 
L 222.342523 153.281019 
L 222.467995 153.213511 
L 222.677116 152.990508 
L 223.095358 152.796833 
L 223.346303 152.686818 
L 223.471775 152.586663 
L 223.659984 152.469768 
L 225.813928 151.282116 
L 225.981224 151.1342 
L 227.04774 150.463927 
L 227.465982 150.110615 
L 227.863311 149.880463 
L 228.030608 149.715251 
L 228.239729 149.581514 
L 228.344289 149.467979 
L 228.971651 149.046435 
L 229.180772 148.866832 
L 229.285333 148.777068 
L 229.515365 148.676475 
L 229.640838 148.571807 
L 229.891783 148.213089 
L 230.310024 148.06284 
L 230.581881 147.814095 
L 231.752958 147.047398 
L 231.962078 146.858279 
L 232.463968 146.644951 
L 232.714913 146.507047 
L 233.174979 146.105358 
L 233.969638 145.534424 
L 234.116022 145.427255 
L 234.680648 144.924047 
L 235.161626 144.534072 
L 235.747164 144.096772 
L 235.893549 143.971389 
L 236.646384 143.252244 
L 236.980977 143.001015 
L 237.441043 142.723362 
L 237.650163 142.528433 
L 238.361174 142.012485 
L 238.549383 141.797642 
L 238.842152 141.616455 
L 240.055052 140.439135 
L 240.285085 140.318097 
L 240.43147 140.195611 
L 240.64059 139.948365 
L 241.184304 139.307489 
L 241.414337 139.152659 
L 241.602546 139.013273 
L 242.439029 138.237886 
L 242.606326 138.145747 
L 242.815446 137.95486 
L 243.902875 136.609204 
L 244.383852 136.154036 
L 244.613885 135.966981 
L 244.76027 135.849749 
L 244.948478 135.596794 
L 245.178511 135.248079 
L 245.534017 134.96923 
L 245.931346 134.299926 
L 246.558708 133.688657 
L 246.621445 133.612274 
L 246.872389 133.29981 
L 246.997862 133.173829 
L 247.520664 132.340491 
L 248.252587 131.582847 
L 248.398971 131.135384 
L 248.524444 131.013327 
L 248.879949 130.422419 
L 249.047245 130.336562 
L 249.632784 129.588677 
L 249.80008 129.376174 
L 250.092849 128.897033 
L 250.155586 128.89486 
L 250.343794 128.397951 
L 250.573827 128.164271 
L 250.762036 127.81207 
L 250.950245 127.653914 
L 251.347574 127.038249 
L 251.514871 126.855253 
L 251.723991 126.490295 
L 251.933112 126.347212 
L 252.079497 126.182412 
L 252.184057 125.940976 
L 252.435002 125.533545 
L 252.497738 125.405282 
L 252.644123 125.170102 
L 252.91598 124.570479 
L 253.083276 124.167502 
L 253.146013 124.031989 
L 253.459694 123.486535 
L 253.689727 122.96066 
L 253.794287 122.824667 
L 254.107968 122.303464 
L 254.275265 122.169888 
L 254.463473 122.001762 
L 254.505298 121.806008 
L 254.651682 121.438633 
L 255.0281 120.928033 
L 255.069924 120.848938 
L 255.23722 120.539379 
L 256.115528 118.987224 
L 256.157352 118.888812 
L 256.34556 118.370524 
L 256.450121 118.323739 
L 256.596505 117.816203 
L 256.721978 117.647639 
L 257.098395 116.949755 
L 257.161131 116.886912 
L 257.453901 115.843817 
L 257.558461 115.616317 
L 257.704845 115.065887 
L 257.74667 115.028937 
L 257.893054 114.636537 
L 257.976702 114.493572 
L 258.123087 114.115739 
L 258.185823 114.077189 
L 258.332208 113.716526 
L 258.45768 113.557427 
L 258.666801 113.128388 
L 258.771361 112.976909 
L 258.834098 112.371552 
L 259.189603 111.034552 
L 259.377812 110.644441 
L 259.524196 110.273227 
L 259.649669 109.801024 
L 259.816965 108.949624 
L 259.96335 108.634373 
L 260.925305 104.854191 
L 261.113514 103.754198 
L 261.155338 103.668729 
L 261.406283 101.817423 
L 261.908173 98.957698 
L 262.117294 97.714428 
L 262.138206 97.711868 
L 262.389151 96.014794 
L 262.430975 95.982088 
L 262.640096 94.802141 
L 262.661008 94.759685 
L 262.807392 93.081877 
L 263.18381 89.136718 
L 263.413843 85.408996 
L 263.476579 84.907583 
L 263.6857 79.928726 
L 263.873908 73.806602 
L 264.124853 44.355284 
L 264.124853 44.355284 
" clip-path="url(#p2fdcb4ea4f)" style="fill: none; stroke: #1f77b4; stroke-width: 1.5; stroke-linecap: square"/>
   </g>
   <g id="line2d_13">
    <path d="M 55.024993 235.397121 
L 55.380498 228.447096 
L 55.840564 226.309215 
L 55.986949 225.839745 
L 56.070597 225.782714 
L 56.216981 225.430248 
L 56.551575 224.582602 
L 56.614311 224.453859 
L 57.137113 223.400886 
L 57.283497 222.940864 
L 57.40897 222.834181 
L 57.806299 222.242199 
L 58.287277 221.523352 
L 58.538222 221.23346 
L 58.810079 220.991797 
L 58.893727 220.820023 
L 61.110407 217.888992 
L 61.23588 217.749768 
L 62.197835 216.74739 
L 62.44878 216.559798 
L 62.657901 216.392264 
L 63.201615 215.81102 
L 63.431648 215.452199 
L 64.205395 214.54773 
L 64.289043 214.462067 
L 64.435428 214.315812 
L 65.313735 213.512498 
L 65.439207 213.403632 
L 66.192042 212.896681 
L 66.401163 212.751468 
L 67.091262 212.036021 
L 67.363119 211.867463 
L 67.467679 211.828598 
L 67.614063 211.655108 
L 67.697712 211.551499 
L 67.906833 211.347505 
L 68.8897 210.52708 
L 69.182469 210.312759 
L 69.977128 209.579704 
L 70.186249 209.457593 
L 70.834523 209.087029 
L 70.980908 208.97562 
L 71.859215 208.38384 
L 72.068336 208.184436 
L 72.361105 208.044266 
L 72.737522 207.728375 
L 73.009379 207.473976 
L 73.2185 207.336379 
L 73.469445 207.133745 
L 73.636742 207.064427 
L 74.264104 206.412132 
L 75.33062 205.680659 
L 75.769774 205.321216 
L 75.916158 205.213727 
L 76.125279 205.065579 
L 77.965542 203.852135 
L 78.216487 203.647068 
L 78.404695 203.542766 
L 78.571992 203.407813 
L 78.634728 203.332402 
L 78.781113 203.175038 
L 80.830496 201.402313 
L 81.144177 201.131493 
L 81.499683 200.91185 
L 81.813364 200.610712 
L 81.959748 200.503901 
L 82.294342 200.194628 
L 83.256297 199.154674 
L 84.511022 198.227051 
L 84.845615 198.003075 
L 84.971088 197.928852 
L 85.159296 197.647814 
L 85.347505 197.480976 
L 86.079428 196.776916 
L 86.288548 196.555643 
L 86.644054 196.212806 
L 86.874087 195.995209 
L 87.396889 195.480137 
L 87.459625 195.368724 
L 87.480537 195.364833 
L 87.647833 195.025849 
L 87.731482 194.943984 
L 87.940603 194.64205 
L 88.066075 194.547036 
L 88.233372 194.342617 
L 88.42158 194.183615 
L 88.651613 193.935009 
L 88.965294 193.756707 
L 89.488096 193.225509 
L 90.03181 192.337193 
L 90.115459 192.234664 
L 90.324579 191.920592 
L 91.202887 191.122734 
L 91.370183 190.966717 
L 91.621128 190.715033 
L 91.788425 190.49819 
L 92.290315 190.009457 
L 92.603996 189.713207 
L 92.896765 189.396757 
L 93.398655 188.956914 
L 93.545039 188.6601 
L 93.586863 188.605728 
L 93.75416 188.420138 
L 93.984193 188.230106 
L 94.151489 188.095873 
L 94.297874 187.961833 
L 94.465171 187.743803 
L 94.841588 187.433966 
L 95.008885 187.194378 
L 95.573511 186.321354 
L 95.740807 185.953483 
L 95.908104 185.652438 
L 96.179961 185.121463 
L 96.451818 184.945885 
L 96.598203 184.538942 
L 96.849147 184.36789 
L 97.016444 184.085993 
L 97.601982 183.32527 
L 97.748367 182.975693 
L 97.790191 182.918887 
L 97.9784 182.390435 
L 98.18752 181.87026 
L 98.563938 181.250924 
L 98.626674 181.084258 
L 98.773059 180.587105 
L 98.835795 180.407351 
L 98.982179 180.028528 
L 99.860487 178.541077 
L 100.090519 178.218054 
L 100.466937 177.138481 
L 100.550585 177.017712 
L 101.993518 172.379452 
L 102.118991 172.199858 
L 102.286288 171.674142 
L 102.830002 169.81999 
L 103.331891 167.421167 
L 103.5201 166.988861 
L 103.603748 166.52054 
L 103.959254 165.124992 
L 104.921209 160.169039 
L 105.067594 159.212971 
L 105.172154 159.026017 
L 105.506747 157.311436 
L 106.092286 152.157911 
L 106.113198 152.036646 
L 106.301406 148.763477 
L 106.405967 147.902309 
L 106.594175 144.648946 
L 106.761472 141.265989 
L 106.949681 135.698574 
L 107.012417 135.405705 
L 107.284274 89.881993 
L 107.284274 89.881993 
" clip-path="url(#p2fdcb4ea4f)" style="fill: none; stroke: #ff7f0e; stroke-width: 1.5; stroke-linecap: square"/>
   </g>
   <g id="patch_3">
    <path d="M 44.57 246.04 
L 44.57 34.75125 
" style="fill: none; stroke: #000000; stroke-width: 0.8; stroke-linejoin: miter; stroke-linecap: square"/>
   </g>
   <g id="patch_4">
    <path d="M 274.579846 246.04 
L 274.579846 34.75125 
" style="fill: none; stroke: #000000; stroke-width: 0.8; stroke-linejoin: miter; stroke-linecap: square"/>
   </g>
   <g id="patch_5">
    <path d="M 44.57 246.04 
L 274.579846 246.04 
" style="fill: none; stroke: #000000; stroke-width: 0.8; stroke-linejoin: miter; stroke-linecap: square"/>
   </g>
   <g id="patch_6">
    <path d="M 44.57 34.75125 
L 274.579846 34.75125 
" style="fill: none; stroke: #000000; stroke-width: 0.8; stroke-linejoin: miter; stroke-linecap: square"/>
   </g>
   <g id="legend_1">
    <g id="patch_7">
     <path d="M 51.57 72.1075 
L 151.759063 72.1075 
Q 153.759063 72.1075 153.759063 70.1075 
L 153.759063 41.75125 
Q 153.759063 39.75125 151.759063 39.75125 
L 51.57 39.75125 
Q 49.57 39.75125 49.57 41.75125 
L 49.57 70.1075 
Q 49.57 72.1075 51.57 72.1075 
z
" style="fill: #ffffff; opacity: 0.8; stroke: #cccccc; stroke-linejoin: miter"/>
    </g>
    <g id="line2d_14">
     <path d="M 53.57 47.849687 
L 63.57 47.849687 
L 73.57 47.849687 
" style="fill: none; stroke: #1f77b4; stroke-width: 1.5; stroke-linecap: square"/>
    </g>
    <g id="text_14">
     <!-- ID samples -->
     <g transform="translate(81.57 51.349687) scale(0.1 -0.1)">
      <defs>
       <path id="DejaVuSans-49" d="M 628 4666 
L 1259 4666 
L 1259 0 
L 628 0 
L 628 4666 
z
" transform="scale(0.015625)"/>
       <path id="DejaVuSans-44" d="M 1259 4147 
L 1259 519 
L 2022 519 
Q 2988 519 3436 956 
Q 3884 1394 3884 2338 
Q 3884 3275 3436 3711 
Q 2988 4147 2022 4147 
L 1259 4147 
z
M 628 4666 
L 1925 4666 
Q 3281 4666 3915 4102 
Q 4550 3538 4550 2338 
Q 4550 1131 3912 565 
Q 3275 0 1925 0 
L 628 0 
L 628 4666 
z
" transform="scale(0.015625)"/>
      </defs>
      <use xlink:href="#DejaVuSans-49"/>
      <use xlink:href="#DejaVuSans-44" transform="translate(29.492188 0)"/>
      <use xlink:href="#DejaVuSans-20" transform="translate(106.494141 0)"/>
      <use xlink:href="#DejaVuSans-73" transform="translate(138.28125 0)"/>
      <use xlink:href="#DejaVuSans-61" transform="translate(190.380859 0)"/>
      <use xlink:href="#DejaVuSans-6d" transform="translate(251.660156 0)"/>
      <use xlink:href="#DejaVuSans-70" transform="translate(349.072266 0)"/>
      <use xlink:href="#DejaVuSans-6c" transform="translate(412.548828 0)"/>
      <use xlink:href="#DejaVuSans-65" transform="translate(440.332031 0)"/>
      <use xlink:href="#DejaVuSans-73" transform="translate(501.855469 0)"/>
     </g>
    </g>
    <g id="line2d_15">
     <path d="M 53.57 62.527812 
L 63.57 62.527812 
L 73.57 62.527812 
" style="fill: none; stroke: #ff7f0e; stroke-width: 1.5; stroke-linecap: square"/>
    </g>
    <g id="text_15">
     <!-- OOD samples -->
     <g transform="translate(81.57 66.027812) scale(0.1 -0.1)">
      <use xlink:href="#DejaVuSans-4f"/>
      <use xlink:href="#DejaVuSans-4f" transform="translate(78.710938 0)"/>
      <use xlink:href="#DejaVuSans-44" transform="translate(157.421875 0)"/>
      <use xlink:href="#DejaVuSans-20" transform="translate(234.423828 0)"/>
      <use xlink:href="#DejaVuSans-73" transform="translate(266.210938 0)"/>
      <use xlink:href="#DejaVuSans-61" transform="translate(318.310547 0)"/>
      <use xlink:href="#DejaVuSans-6d" transform="translate(379.589844 0)"/>
      <use xlink:href="#DejaVuSans-70" transform="translate(477.001953 0)"/>
      <use xlink:href="#DejaVuSans-6c" transform="translate(540.478516 0)"/>
      <use xlink:href="#DejaVuSans-65" transform="translate(568.261719 0)"/>
      <use xlink:href="#DejaVuSans-73" transform="translate(629.785156 0)"/>
     </g>
    </g>
   </g>
  </g>
  <g id="axes_2">
   <g id="patch_8">
    <path d="M 335.190154 246.04 
L 565.2 246.04 
L 565.2 34.75125 
L 335.190154 34.75125 
z
" style="fill: #ffffff"/>
   </g>
   <g id="patch_9">
    <path d="M 345.645147 246.04 
L 354.009142 246.04 
L 354.009142 243.400727 
L 345.645147 243.400727 
z
" clip-path="url(#p3932436593)" style="fill: #1f77b4; opacity: 0.5"/>
   </g>
   <g id="patch_10">
    <path d="M 354.009142 246.04 
L 362.373136 246.04 
L 362.373136 224.397963 
L 354.009142 224.397963 
z
" clip-path="url(#p3932436593)" style="fill: #1f77b4; opacity: 0.5"/>
   </g>
   <g id="patch_11">
    <path d="M 362.373136 246.04 
L 370.737131 246.04 
L 370.737131 190.826413 
L 362.373136 190.826413 
z
" clip-path="url(#p3932436593)" style="fill: #1f77b4; opacity: 0.5"/>
   </g>
   <g id="patch_12">
    <path d="M 370.737131 246.04 
L 379.101124 246.04 
L 379.101124 164.961517 
L 370.737131 164.961517 
z
" clip-path="url(#p3932436593)" style="fill: #1f77b4; opacity: 0.5"/>
   </g>
   <g id="patch_13">
    <path d="M 379.101124 246.04 
L 387.465121 246.04 
L 387.465121 144.586381 
L 379.101124 144.586381 
z
" clip-path="url(#p3932436593)" style="fill: #1f77b4; opacity: 0.5"/>
   </g>
   <g id="patch_14">
    <path d="M 387.465121 246.04 
L 395.829118 246.04 
L 395.829118 126.111476 
L 387.465121 126.111476 
z
" clip-path="url(#p3932436593)" style="fill: #1f77b4; opacity: 0.5"/>
   </g>
   <g id="patch_15">
    <path d="M 395.829118 246.04 
L 404.193106 246.04 
L 404.193106 134.979309 
L 395.829118 134.979309 
z
" clip-path="url(#p3932436593)" style="fill: #1f77b4; opacity: 0.5"/>
   </g>
   <g id="patch_16">
    <path d="M 404.193106 246.04 
L 412.557103 246.04 
L 412.557103 138.568841 
L 404.193106 138.568841 
z
" clip-path="url(#p3932436593)" style="fill: #1f77b4; opacity: 0.5"/>
   </g>
   <g id="patch_17">
    <path d="M 412.557103 246.04 
L 420.9211 246.04 
L 420.9211 143.002818 
L 412.557103 143.002818 
z
" clip-path="url(#p3932436593)" style="fill: #1f77b4; opacity: 0.5"/>
   </g>
   <g id="patch_18">
    <path d="M 420.9211 246.04 
L 429.285097 246.04 
L 429.285097 160.527584 
L 420.9211 160.527584 
z
" clip-path="url(#p3932436593)" style="fill: #1f77b4; opacity: 0.5"/>
   </g>
   <g id="patch_19">
    <path d="M 429.285097 246.04 
L 437.649085 246.04 
L 437.649085 178.36899 
L 429.285097 178.36899 
z
" clip-path="url(#p3932436593)" style="fill: #1f77b4; opacity: 0.5"/>
   </g>
   <g id="patch_20">
    <path d="M 437.649085 246.04 
L 446.013082 246.04 
L 446.013082 191.143141 
L 437.649085 191.143141 
z
" clip-path="url(#p3932436593)" style="fill: #1f77b4; opacity: 0.5"/>
   </g>
   <g id="patch_21">
    <path d="M 446.013082 246.04 
L 454.377079 246.04 
L 454.377079 203.706076 
L 446.013082 203.706076 
z
" clip-path="url(#p3932436593)" style="fill: #1f77b4; opacity: 0.5"/>
   </g>
   <g id="patch_22">
    <path d="M 454.377079 246.04 
L 462.741067 246.04 
L 462.741067 214.790984 
L 454.377079 214.790984 
z
" clip-path="url(#p3932436593)" style="fill: #1f77b4; opacity: 0.5"/>
   </g>
   <g id="patch_23">
    <path d="M 462.741067 246.04 
L 471.105064 246.04 
L 471.105064 222.392122 
L 462.741067 222.392122 
z
" clip-path="url(#p3932436593)" style="fill: #1f77b4; opacity: 0.5"/>
   </g>
   <g id="patch_24">
    <path d="M 471.105064 246.04 
L 479.469061 246.04 
L 479.469061 227.776237 
L 471.105064 227.776237 
z
" clip-path="url(#p3932436593)" style="fill: #1f77b4; opacity: 0.5"/>
   </g>
   <g id="patch_25">
    <path d="M 479.469061 246.04 
L 487.833058 246.04 
L 487.833058 234.638345 
L 479.469061 234.638345 
z
" clip-path="url(#p3932436593)" style="fill: #1f77b4; opacity: 0.5"/>
   </g>
   <g id="patch_26">
    <path d="M 487.833058 246.04 
L 496.197055 246.04 
L 496.197055 239.494605 
L 487.833058 239.494605 
z
" clip-path="url(#p3932436593)" style="fill: #1f77b4; opacity: 0.5"/>
   </g>
   <g id="patch_27">
    <path d="M 496.197055 246.04 
L 504.561043 246.04 
L 504.561043 240.76145 
L 496.197055 240.76145 
z
" clip-path="url(#p3932436593)" style="fill: #1f77b4; opacity: 0.5"/>
   </g>
   <g id="patch_28">
    <path d="M 504.561043 246.04 
L 512.925049 246.04 
L 512.925049 243.717443 
L 504.561043 243.717443 
z
" clip-path="url(#p3932436593)" style="fill: #1f77b4; opacity: 0.5"/>
   </g>
   <g id="patch_29">
    <path d="M 512.925049 246.04 
L 521.289037 246.04 
L 521.289037 244.456435 
L 512.925049 244.456435 
z
" clip-path="url(#p3932436593)" style="fill: #1f77b4; opacity: 0.5"/>
   </g>
   <g id="patch_30">
    <path d="M 521.289037 246.04 
L 529.653025 246.04 
L 529.653025 245.512145 
L 521.289037 245.512145 
z
" clip-path="url(#p3932436593)" style="fill: #1f77b4; opacity: 0.5"/>
   </g>
   <g id="patch_31">
    <path d="M 529.653025 246.04 
L 538.017031 246.04 
L 538.017031 245.617717 
L 529.653025 245.617717 
z
" clip-path="url(#p3932436593)" style="fill: #1f77b4; opacity: 0.5"/>
   </g>
   <g id="patch_32">
    <path d="M 538.017031 246.04 
L 546.381019 246.04 
L 546.381019 245.828858 
L 538.017031 245.828858 
z
" clip-path="url(#p3932436593)" style="fill: #1f77b4; opacity: 0.5"/>
   </g>
   <g id="patch_33">
    <path d="M 546.381019 246.04 
L 554.745007 246.04 
L 554.745007 245.723287 
L 546.381019 245.723287 
z
" clip-path="url(#p3932436593)" style="fill: #1f77b4; opacity: 0.5"/>
   </g>
   <g id="patch_34">
    <path d="M 346.776038 246.04 
L 353.112373 246.04 
L 353.112373 238.793585 
L 346.776038 238.793585 
z
" clip-path="url(#p3932436593)" style="fill: #ff7f0e; opacity: 0.5"/>
   </g>
   <g id="patch_35">
    <path d="M 353.112373 246.04 
L 359.448708 246.04 
L 359.448708 202.004091 
L 353.112373 202.004091 
z
" clip-path="url(#p3932436593)" style="fill: #ff7f0e; opacity: 0.5"/>
   </g>
   <g id="patch_36">
    <path d="M 359.448708 246.04 
L 365.785046 246.04 
L 365.785046 137.343809 
L 359.448708 137.343809 
z
" clip-path="url(#p3932436593)" style="fill: #ff7f0e; opacity: 0.5"/>
   </g>
   <g id="patch_37">
    <path d="M 365.785046 246.04 
L 372.121381 246.04 
L 372.121381 88.848528 
L 365.785046 88.848528 
z
" clip-path="url(#p3932436593)" style="fill: #ff7f0e; opacity: 0.5"/>
   </g>
   <g id="patch_38">
    <path d="M 372.121381 246.04 
L 378.457716 246.04 
L 378.457716 44.812619 
L 372.121381 44.812619 
z
" clip-path="url(#p3932436593)" style="fill: #ff7f0e; opacity: 0.5"/>
   </g>
   <g id="patch_39">
    <path d="M 378.457716 246.04 
L 384.794054 246.04 
L 384.794054 44.812692 
L 378.457716 44.812692 
z
" clip-path="url(#p3932436593)" style="fill: #ff7f0e; opacity: 0.5"/>
   </g>
   <g id="patch_40">
    <path d="M 384.794054 246.04 
L 391.130387 246.04 
L 391.130387 88.291054 
L 384.794054 88.291054 
z
" clip-path="url(#p3932436593)" style="fill: #ff7f0e; opacity: 0.5"/>
   </g>
   <g id="patch_41">
    <path d="M 391.130387 246.04 
L 397.466724 246.04 
L 397.466724 99.996912 
L 391.130387 99.996912 
z
" clip-path="url(#p3932436593)" style="fill: #ff7f0e; opacity: 0.5"/>
   </g>
   <g id="patch_42">
    <path d="M 397.466724 246.04 
L 403.803062 246.04 
L 403.803062 130.654812 
L 397.466724 130.654812 
z
" clip-path="url(#p3932436593)" style="fill: #ff7f0e; opacity: 0.5"/>
   </g>
   <g id="patch_43">
    <path d="M 403.803062 246.04 
L 410.139395 246.04 
L 410.139395 174.690654 
L 403.803062 174.690654 
z
" clip-path="url(#p3932436593)" style="fill: #ff7f0e; opacity: 0.5"/>
   </g>
   <g id="patch_44">
    <path d="M 410.139395 246.04 
L 416.475728 246.04 
L 416.475728 194.20024 
L 410.139395 194.20024 
z
" clip-path="url(#p3932436593)" style="fill: #ff7f0e; opacity: 0.5"/>
   </g>
   <g id="patch_45">
    <path d="M 416.475728 246.04 
L 422.812074 246.04 
L 422.812074 208.693157 
L 416.475728 208.693157 
z
" clip-path="url(#p3932436593)" style="fill: #ff7f0e; opacity: 0.5"/>
   </g>
   <g id="patch_46">
    <path d="M 422.812074 246.04 
L 429.148403 246.04 
L 429.148403 214.824638 
L 422.812074 214.824638 
z
" clip-path="url(#p3932436593)" style="fill: #ff7f0e; opacity: 0.5"/>
   </g>
   <g id="patch_47">
    <path d="M 429.148403 246.04 
L 435.484731 246.04 
L 435.484731 220.956227 
L 429.148403 220.956227 
z
" clip-path="url(#p3932436593)" style="fill: #ff7f0e; opacity: 0.5"/>
   </g>
   <g id="patch_48">
    <path d="M 435.484731 246.04 
L 441.821078 246.04 
L 441.821078 233.219442 
L 435.484731 233.219442 
z
" clip-path="url(#p3932436593)" style="fill: #ff7f0e; opacity: 0.5"/>
   </g>
   <g id="patch_49">
    <path d="M 441.821078 246.04 
L 448.157406 246.04 
L 448.157406 235.449074 
L 441.821078 235.449074 
z
" clip-path="url(#p3932436593)" style="fill: #ff7f0e; opacity: 0.5"/>
   </g>
   <g id="patch_50">
    <path d="M 448.157406 246.04 
L 454.493753 246.04 
L 454.493753 241.02326 
L 448.157406 241.02326 
z
" clip-path="url(#p3932436593)" style="fill: #ff7f0e; opacity: 0.5"/>
   </g>
   <g id="patch_51">
    <path d="M 454.493753 246.04 
L 460.830081 246.04 
L 460.830081 242.13808 
L 454.493753 242.13808 
z
" clip-path="url(#p3932436593)" style="fill: #ff7f0e; opacity: 0.5"/>
   </g>
   <g id="patch_52">
    <path d="M 460.830081 246.04 
L 467.16641 246.04 
L 467.16641 244.367748 
L 460.830081 244.367748 
z
" clip-path="url(#p3932436593)" style="fill: #ff7f0e; opacity: 0.5"/>
   </g>
   <g id="patch_53">
    <path d="M 467.16641 246.04 
L 473.502756 246.04 
L 473.502756 244.367753 
L 467.16641 244.367753 
z
" clip-path="url(#p3932436593)" style="fill: #ff7f0e; opacity: 0.5"/>
   </g>
   <g id="patch_54">
    <path d="M 473.502756 246.04 
L 479.839085 246.04 
L 479.839085 244.925166 
L 473.502756 244.925166 
z
" clip-path="url(#p3932436593)" style="fill: #ff7f0e; opacity: 0.5"/>
   </g>
   <g id="patch_55">
    <path d="M 479.839085 246.04 
L 486.175431 246.04 
L 486.175431 245.482584 
L 479.839085 245.482584 
z
" clip-path="url(#p3932436593)" style="fill: #ff7f0e; opacity: 0.5"/>
   </g>
   <g id="patch_56">
    <path d="M 486.175431 246.04 
L 492.51176 246.04 
L 492.51176 246.04 
L 486.175431 246.04 
z
" clip-path="url(#p3932436593)" style="fill: #ff7f0e; opacity: 0.5"/>
   </g>
   <g id="patch_57">
    <path d="M 492.51176 246.04 
L 498.848106 246.04 
L 498.848106 246.04 
L 492.51176 246.04 
z
" clip-path="url(#p3932436593)" style="fill: #ff7f0e; opacity: 0.5"/>
   </g>
   <g id="patch_58">
    <path d="M 498.848106 246.04 
L 505.184435 246.04 
L 505.184435 245.482583 
L 498.848106 245.482583 
z
" clip-path="url(#p3932436593)" style="fill: #ff7f0e; opacity: 0.5"/>
   </g>
   <g id="matplotlib.axis_3">
    <g id="xtick_7">
     <g id="line2d_16">
      <g>
       <use xlink:href="#m73472a43bd" x="337.534781" y="246.04" style="stroke: #000000; stroke-width: 0.8"/>
      </g>
     </g>
     <g id="text_16">
      <!-- 0 -->
      <g transform="translate(334.353531 260.638438) scale(0.1 -0.1)">
       <use xlink:href="#DejaVuSans-30"/>
      </g>
     </g>
    </g>
    <g id="xtick_8">
     <g id="line2d_17">
      <g>
       <use xlink:href="#m73472a43bd" x="385.59478" y="246.04" style="stroke: #000000; stroke-width: 0.8"/>
      </g>
     </g>
     <g id="text_17">
      <!-- 5 -->
      <g transform="translate(382.41353 260.638438) scale(0.1 -0.1)">
       <use xlink:href="#DejaVuSans-35"/>
      </g>
     </g>
    </g>
    <g id="xtick_9">
     <g id="line2d_18">
      <g>
       <use xlink:href="#m73472a43bd" x="433.654779" y="246.04" style="stroke: #000000; stroke-width: 0.8"/>
      </g>
     </g>
     <g id="text_18">
      <!-- 10 -->
      <g transform="translate(427.292279 260.638438) scale(0.1 -0.1)">
       <use xlink:href="#DejaVuSans-31"/>
       <use xlink:href="#DejaVuSans-30" transform="translate(63.623047 0)"/>
      </g>
     </g>
    </g>
    <g id="xtick_10">
     <g id="line2d_19">
      <g>
       <use xlink:href="#m73472a43bd" x="481.714778" y="246.04" style="stroke: #000000; stroke-width: 0.8"/>
      </g>
     </g>
     <g id="text_19">
      <!-- 15 -->
      <g transform="translate(475.352278 260.638438) scale(0.1 -0.1)">
       <use xlink:href="#DejaVuSans-31"/>
       <use xlink:href="#DejaVuSans-35" transform="translate(63.623047 0)"/>
      </g>
     </g>
    </g>
    <g id="xtick_11">
     <g id="line2d_20">
      <g>
       <use xlink:href="#m73472a43bd" x="529.774777" y="246.04" style="stroke: #000000; stroke-width: 0.8"/>
      </g>
     </g>
     <g id="text_20">
      <!-- 20 -->
      <g transform="translate(523.412277 260.638438) scale(0.1 -0.1)">
       <use xlink:href="#DejaVuSans-32"/>
       <use xlink:href="#DejaVuSans-30" transform="translate(63.623047 0)"/>
      </g>
     </g>
    </g>
    <g id="text_21">
     <!-- Scores -->
     <g transform="translate(433.588046 274.316562) scale(0.1 -0.1)">
      <use xlink:href="#DejaVuSans-53"/>
      <use xlink:href="#DejaVuSans-63" transform="translate(63.476562 0)"/>
      <use xlink:href="#DejaVuSans-6f" transform="translate(118.457031 0)"/>
      <use xlink:href="#DejaVuSans-72" transform="translate(179.638672 0)"/>
      <use xlink:href="#DejaVuSans-65" transform="translate(218.501953 0)"/>
      <use xlink:href="#DejaVuSans-73" transform="translate(280.025391 0)"/>
     </g>
    </g>
   </g>
   <g id="matplotlib.axis_4">
    <g id="ytick_6">
     <g id="line2d_21">
      <g>
       <use xlink:href="#m9b7f18906d" x="335.190154" y="246.04" style="stroke: #000000; stroke-width: 0.8"/>
      </g>
     </g>
     <g id="text_22">
      <!-- 0.00 -->
      <g transform="translate(305.924529 249.839219) scale(0.1 -0.1)">
       <defs>
        <path id="DejaVuSans-2e" d="M 684 794 
L 1344 794 
L 1344 0 
L 684 0 
L 684 794 
z
" transform="scale(0.015625)"/>
       </defs>
       <use xlink:href="#DejaVuSans-30"/>
       <use xlink:href="#DejaVuSans-2e" transform="translate(63.623047 0)"/>
       <use xlink:href="#DejaVuSans-30" transform="translate(95.410156 0)"/>
       <use xlink:href="#DejaVuSans-30" transform="translate(159.033203 0)"/>
      </g>
     </g>
    </g>
    <g id="ytick_7">
     <g id="line2d_22">
      <g>
       <use xlink:href="#m9b7f18906d" x="335.190154" y="200.108114" style="stroke: #000000; stroke-width: 0.8"/>
      </g>
     </g>
     <g id="text_23">
      <!-- 0.05 -->
      <g transform="translate(305.924529 203.907333) scale(0.1 -0.1)">
       <use xlink:href="#DejaVuSans-30"/>
       <use xlink:href="#DejaVuSans-2e" transform="translate(63.623047 0)"/>
       <use xlink:href="#DejaVuSans-30" transform="translate(95.410156 0)"/>
       <use xlink:href="#DejaVuSans-35" transform="translate(159.033203 0)"/>
      </g>
     </g>
    </g>
    <g id="ytick_8">
     <g id="line2d_23">
      <g>
       <use xlink:href="#m9b7f18906d" x="335.190154" y="154.176228" style="stroke: #000000; stroke-width: 0.8"/>
      </g>
     </g>
     <g id="text_24">
      <!-- 0.10 -->
      <g transform="translate(305.924529 157.975447) scale(0.1 -0.1)">
       <use xlink:href="#DejaVuSans-30"/>
       <use xlink:href="#DejaVuSans-2e" transform="translate(63.623047 0)"/>
       <use xlink:href="#DejaVuSans-31" transform="translate(95.410156 0)"/>
       <use xlink:href="#DejaVuSans-30" transform="translate(159.033203 0)"/>
      </g>
     </g>
    </g>
    <g id="ytick_9">
     <g id="line2d_24">
      <g>
       <use xlink:href="#m9b7f18906d" x="335.190154" y="108.244342" style="stroke: #000000; stroke-width: 0.8"/>
      </g>
     </g>
     <g id="text_25">
      <!-- 0.15 -->
      <g transform="translate(305.924529 112.043561) scale(0.1 -0.1)">
       <use xlink:href="#DejaVuSans-30"/>
       <use xlink:href="#DejaVuSans-2e" transform="translate(63.623047 0)"/>
       <use xlink:href="#DejaVuSans-31" transform="translate(95.410156 0)"/>
       <use xlink:href="#DejaVuSans-35" transform="translate(159.033203 0)"/>
      </g>
     </g>
    </g>
    <g id="ytick_10">
     <g id="line2d_25">
      <g>
       <use xlink:href="#m9b7f18906d" x="335.190154" y="62.312456" style="stroke: #000000; stroke-width: 0.8"/>
      </g>
     </g>
     <g id="text_26">
      <!-- 0.20 -->
      <g transform="translate(305.924529 66.111674) scale(0.1 -0.1)">
       <use xlink:href="#DejaVuSans-30"/>
       <use xlink:href="#DejaVuSans-2e" transform="translate(63.623047 0)"/>
       <use xlink:href="#DejaVuSans-32" transform="translate(95.410156 0)"/>
       <use xlink:href="#DejaVuSans-30" transform="translate(159.033203 0)"/>
      </g>
     </g>
    </g>
    <g id="text_27">
     <!-- Density -->
     <g transform="translate(299.844841 159.404219) rotate(-90) scale(0.1 -0.1)">
      <defs>
       <path id="DejaVuSans-6e" d="M 3513 2113 
L 3513 0 
L 2938 0 
L 2938 2094 
Q 2938 2591 2744 2837 
Q 2550 3084 2163 3084 
Q 1697 3084 1428 2787 
Q 1159 2491 1159 1978 
L 1159 0 
L 581 0 
L 581 3500 
L 1159 3500 
L 1159 2956 
Q 1366 3272 1645 3428 
Q 1925 3584 2291 3584 
Q 2894 3584 3203 3211 
Q 3513 2838 3513 2113 
z
" transform="scale(0.015625)"/>
       <path id="DejaVuSans-69" d="M 603 3500 
L 1178 3500 
L 1178 0 
L 603 0 
L 603 3500 
z
M 603 4863 
L 1178 4863 
L 1178 4134 
L 603 4134 
L 603 4863 
z
" transform="scale(0.015625)"/>
       <path id="DejaVuSans-74" d="M 1172 4494 
L 1172 3500 
L 2356 3500 
L 2356 3053 
L 1172 3053 
L 1172 1153 
Q 1172 725 1289 603 
Q 1406 481 1766 481 
L 2356 481 
L 2356 0 
L 1766 0 
Q 1100 0 847 248 
Q 594 497 594 1153 
L 594 3053 
L 172 3053 
L 172 3500 
L 594 3500 
L 594 4494 
L 1172 4494 
z
" transform="scale(0.015625)"/>
       <path id="DejaVuSans-79" d="M 2059 -325 
Q 1816 -950 1584 -1140 
Q 1353 -1331 966 -1331 
L 506 -1331 
L 506 -850 
L 844 -850 
Q 1081 -850 1212 -737 
Q 1344 -625 1503 -206 
L 1606 56 
L 191 3500 
L 800 3500 
L 1894 763 
L 2988 3500 
L 3597 3500 
L 2059 -325 
z
" transform="scale(0.015625)"/>
      </defs>
      <use xlink:href="#DejaVuSans-44"/>
      <use xlink:href="#DejaVuSans-65" transform="translate(77.001953 0)"/>
      <use xlink:href="#DejaVuSans-6e" transform="translate(138.525391 0)"/>
      <use xlink:href="#DejaVuSans-73" transform="translate(201.904297 0)"/>
      <use xlink:href="#DejaVuSans-69" transform="translate(254.003906 0)"/>
      <use xlink:href="#DejaVuSans-74" transform="translate(281.787109 0)"/>
      <use xlink:href="#DejaVuSans-79" transform="translate(320.996094 0)"/>
     </g>
    </g>
   </g>
   <g id="patch_59">
    <path d="M 335.190154 246.04 
L 335.190154 34.75125 
" style="fill: none; stroke: #000000; stroke-width: 0.8; stroke-linejoin: miter; stroke-linecap: square"/>
   </g>
   <g id="patch_60">
    <path d="M 565.2 246.04 
L 565.2 34.75125 
" style="fill: none; stroke: #000000; stroke-width: 0.8; stroke-linejoin: miter; stroke-linecap: square"/>
   </g>
   <g id="patch_61">
    <path d="M 335.190154 246.04 
L 565.2 246.04 
" style="fill: none; stroke: #000000; stroke-width: 0.8; stroke-linejoin: miter; stroke-linecap: square"/>
   </g>
   <g id="patch_62">
    <path d="M 335.190154 34.75125 
L 565.2 34.75125 
" style="fill: none; stroke: #000000; stroke-width: 0.8; stroke-linejoin: miter; stroke-linecap: square"/>
   </g>
   <g id="legend_2">
    <g id="patch_63">
     <path d="M 458.010938 72.1075 
L 558.2 72.1075 
Q 560.2 72.1075 560.2 70.1075 
L 560.2 41.75125 
Q 560.2 39.75125 558.2 39.75125 
L 458.010938 39.75125 
Q 456.010938 39.75125 456.010938 41.75125 
L 456.010938 70.1075 
Q 456.010938 72.1075 458.010938 72.1075 
z
" style="fill: #ffffff; opacity: 0.8; stroke: #cccccc; stroke-linejoin: miter"/>
    </g>
    <g id="patch_64">
     <path d="M 460.010938 51.349687 
L 480.010938 51.349687 
L 480.010938 44.349687 
L 460.010938 44.349687 
z
" style="fill: #1f77b4; opacity: 0.5"/>
    </g>
    <g id="text_28">
     <!-- ID samples -->
     <g transform="translate(488.010938 51.349687) scale(0.1 -0.1)">
      <use xlink:href="#DejaVuSans-49"/>
      <use xlink:href="#DejaVuSans-44" transform="translate(29.492188 0)"/>
      <use xlink:href="#DejaVuSans-20" transform="translate(106.494141 0)"/>
      <use xlink:href="#DejaVuSans-73" transform="translate(138.28125 0)"/>
      <use xlink:href="#DejaVuSans-61" transform="translate(190.380859 0)"/>
      <use xlink:href="#DejaVuSans-6d" transform="translate(251.660156 0)"/>
      <use xlink:href="#DejaVuSans-70" transform="translate(349.072266 0)"/>
      <use xlink:href="#DejaVuSans-6c" transform="translate(412.548828 0)"/>
      <use xlink:href="#DejaVuSans-65" transform="translate(440.332031 0)"/>
      <use xlink:href="#DejaVuSans-73" transform="translate(501.855469 0)"/>
     </g>
    </g>
    <g id="patch_65">
     <path d="M 460.010938 66.027812 
L 480.010938 66.027812 
L 480.010938 59.027812 
L 460.010938 59.027812 
z
" style="fill: #ff7f0e; opacity: 0.5"/>
    </g>
    <g id="text_29">
     <!-- OOD samples -->
     <g transform="translate(488.010938 66.027812) scale(0.1 -0.1)">
      <use xlink:href="#DejaVuSans-4f"/>
      <use xlink:href="#DejaVuSans-4f" transform="translate(78.710938 0)"/>
      <use xlink:href="#DejaVuSans-44" transform="translate(157.421875 0)"/>
      <use xlink:href="#DejaVuSans-20" transform="translate(234.423828 0)"/>
      <use xlink:href="#DejaVuSans-73" transform="translate(266.210938 0)"/>
      <use xlink:href="#DejaVuSans-61" transform="translate(318.310547 0)"/>
      <use xlink:href="#DejaVuSans-6d" transform="translate(379.589844 0)"/>
      <use xlink:href="#DejaVuSans-70" transform="translate(477.001953 0)"/>
      <use xlink:href="#DejaVuSans-6c" transform="translate(540.478516 0)"/>
      <use xlink:href="#DejaVuSans-65" transform="translate(568.261719 0)"/>
      <use xlink:href="#DejaVuSans-73" transform="translate(629.785156 0)"/>
     </g>
    </g>
   </g>
  </g>
  <g id="text_30">
   <!-- Scores using max_logit -->
   <g transform="translate(218.8125 14.878125) scale(0.12 -0.12)">
    <defs>
     <path id="DejaVuSans-75" d="M 544 1381 
L 544 3500 
L 1119 3500 
L 1119 1403 
Q 1119 906 1312 657 
Q 1506 409 1894 409 
Q 2359 409 2629 706 
Q 2900 1003 2900 1516 
L 2900 3500 
L 3475 3500 
L 3475 0 
L 2900 0 
L 2900 538 
Q 2691 219 2414 64 
Q 2138 -91 1772 -91 
Q 1169 -91 856 284 
Q 544 659 544 1381 
z
M 1991 3584 
L 1991 3584 
z
" transform="scale(0.015625)"/>
     <path id="DejaVuSans-67" d="M 2906 1791 
Q 2906 2416 2648 2759 
Q 2391 3103 1925 3103 
Q 1463 3103 1205 2759 
Q 947 2416 947 1791 
Q 947 1169 1205 825 
Q 1463 481 1925 481 
Q 2391 481 2648 825 
Q 2906 1169 2906 1791 
z
M 3481 434 
Q 3481 -459 3084 -895 
Q 2688 -1331 1869 -1331 
Q 1566 -1331 1297 -1286 
Q 1028 -1241 775 -1147 
L 775 -588 
Q 1028 -725 1275 -790 
Q 1522 -856 1778 -856 
Q 2344 -856 2625 -561 
Q 2906 -266 2906 331 
L 2906 616 
Q 2728 306 2450 153 
Q 2172 0 1784 0 
Q 1141 0 747 490 
Q 353 981 353 1791 
Q 353 2603 747 3093 
Q 1141 3584 1784 3584 
Q 2172 3584 2450 3431 
Q 2728 3278 2906 2969 
L 2906 3500 
L 3481 3500 
L 3481 434 
z
" transform="scale(0.015625)"/>
     <path id="DejaVuSans-78" d="M 3513 3500 
L 2247 1797 
L 3578 0 
L 2900 0 
L 1881 1375 
L 863 0 
L 184 0 
L 1544 1831 
L 300 3500 
L 978 3500 
L 1906 2253 
L 2834 3500 
L 3513 3500 
z
" transform="scale(0.015625)"/>
     <path id="DejaVuSans-5f" d="M 3263 -1063 
L 3263 -1509 
L -63 -1509 
L -63 -1063 
L 3263 -1063 
z
" transform="scale(0.015625)"/>
    </defs>
    <use xlink:href="#DejaVuSans-53"/>
    <use xlink:href="#DejaVuSans-63" transform="translate(63.476562 0)"/>
    <use xlink:href="#DejaVuSans-6f" transform="translate(118.457031 0)"/>
    <use xlink:href="#DejaVuSans-72" transform="translate(179.638672 0)"/>
    <use xlink:href="#DejaVuSans-65" transform="translate(218.501953 0)"/>
    <use xlink:href="#DejaVuSans-73" transform="translate(280.025391 0)"/>
    <use xlink:href="#DejaVuSans-20" transform="translate(332.125 0)"/>
    <use xlink:href="#DejaVuSans-75" transform="translate(363.912109 0)"/>
    <use xlink:href="#DejaVuSans-73" transform="translate(427.291016 0)"/>
    <use xlink:href="#DejaVuSans-69" transform="translate(479.390625 0)"/>
    <use xlink:href="#DejaVuSans-6e" transform="translate(507.173828 0)"/>
    <use xlink:href="#DejaVuSans-67" transform="translate(570.552734 0)"/>
    <use xlink:href="#DejaVuSans-20" transform="translate(634.029297 0)"/>
    <use xlink:href="#DejaVuSans-6d" transform="translate(665.816406 0)"/>
    <use xlink:href="#DejaVuSans-61" transform="translate(763.228516 0)"/>
    <use xlink:href="#DejaVuSans-78" transform="translate(824.507812 0)"/>
    <use xlink:href="#DejaVuSans-5f" transform="translate(883.6875 0)"/>
    <use xlink:href="#DejaVuSans-6c" transform="translate(933.6875 0)"/>
    <use xlink:href="#DejaVuSans-6f" transform="translate(961.470703 0)"/>
    <use xlink:href="#DejaVuSans-67" transform="translate(1022.652344 0)"/>
    <use xlink:href="#DejaVuSans-69" transform="translate(1086.128906 0)"/>
    <use xlink:href="#DejaVuSans-74" transform="translate(1113.912109 0)"/>
   </g>
  </g>
 </g>
 <defs>
  <clipPath id="p2fdcb4ea4f">
   <rect x="44.57" y="34.75125" width="230.009846" height="211.28875"/>
  </clipPath>
  <clipPath id="p3932436593">
   <rect x="335.190154" y="34.75125" width="230.009846" height="211.28875"/>
  </clipPath>
 </defs>
</svg>
