<?xml version="1.0" encoding="utf-8" standalone="no"?>
<!DOCTYPE svg PUBLIC "-//W3C//DTD SVG 1.1//EN"
  "http://www.w3.org/Graphics/SVG/1.1/DTD/svg11.dtd">
<svg xmlns:xlink="http://www.w3.org/1999/xlink" width="576pt" height="288pt" viewBox="0 0 576 288" xmlns="http://www.w3.org/2000/svg" version="1.1">
 <metadata>
  <rdf:RDF xmlns:dc="http://purl.org/dc/elements/1.1/" xmlns:cc="http://creativecommons.org/ns#" xmlns:rdf="http://www.w3.org/1999/02/22-rdf-syntax-ns#">
   <cc:Work>
    <dc:type rdf:resource="http://purl.org/dc/dcmitype/StillImage"/>
    <dc:date>2025-05-31T20:10:34.888323</dc:date>
    <dc:format>image/svg+xml</dc:format>
    <dc:creator>
     <cc:Agent>
      <dc:title>Matplotlib v3.10.1, https://matplotlib.org/</dc:title>
     </cc:Agent>
    </dc:creator>
   </cc:Work>
  </rdf:RDF>
 </metadata>
 <defs>
  <style type="text/css">*{stroke-linejoin: round; stroke-linecap: butt}</style>
 </defs>
 <g id="figure_1">
  <g id="patch_1">
   <path d="M 0 288 
L 576 288 
L 576 0 
L 0 0 
z
" style="fill: #ffffff"/>
  </g>
  <g id="axes_1">
   <g id="patch_2">
    <path d="M 44.57 246.04 
L 271.429846 246.04 
L 271.429846 34.75125 
L 44.57 34.75125 
z
" style="fill: #ffffff"/>
   </g>
   <g id="matplotlib.axis_1">
    <g id="xtick_1">
     <g id="line2d_1">
      <defs>
       <path id="m4b916cedc0" d="M 0 0 
L 0 3.5 
" style="stroke: #000000; stroke-width: 0.8"/>
      </defs>
      <g>
       <use xlink:href="#m4b916cedc0" x="54.881811" y="246.04" style="stroke: #000000; stroke-width: 0.8"/>
      </g>
     </g>
     <g id="text_1">
      <!-- 0 -->
      <g transform="translate(51.700561 260.638438) scale(0.1 -0.1)">
       <defs>
        <path id="DejaVuSans-30" d="M 2034 4250 
Q 1547 4250 1301 3770 
Q 1056 3291 1056 2328 
Q 1056 1369 1301 889 
Q 1547 409 2034 409 
Q 2525 409 2770 889 
Q 3016 1369 3016 2328 
Q 3016 3291 2770 3770 
Q 2525 4250 2034 4250 
z
M 2034 4750 
Q 2819 4750 3233 4129 
Q 3647 3509 3647 2328 
Q 3647 1150 3233 529 
Q 2819 -91 2034 -91 
Q 1250 -91 836 529 
Q 422 1150 422 2328 
Q 422 3509 836 4129 
Q 1250 4750 2034 4750 
z
" transform="scale(0.015625)"/>
       </defs>
       <use xlink:href="#DejaVuSans-30"/>
      </g>
     </g>
    </g>
    <g id="xtick_2">
     <g id="line2d_2">
      <g>
       <use xlink:href="#m4b916cedc0" x="96.133181" y="246.04" style="stroke: #000000; stroke-width: 0.8"/>
      </g>
     </g>
     <g id="text_2">
      <!-- 2000 -->
      <g transform="translate(83.408181 260.638438) scale(0.1 -0.1)">
       <defs>
        <path id="DejaVuSans-32" d="M 1228 531 
L 3431 531 
L 3431 0 
L 469 0 
L 469 531 
Q 828 903 1448 1529 
Q 2069 2156 2228 2338 
Q 2531 2678 2651 2914 
Q 2772 3150 2772 3378 
Q 2772 3750 2511 3984 
Q 2250 4219 1831 4219 
Q 1534 4219 1204 4116 
Q 875 4013 500 3803 
L 500 4441 
Q 881 4594 1212 4672 
Q 1544 4750 1819 4750 
Q 2544 4750 2975 4387 
Q 3406 4025 3406 3419 
Q 3406 3131 3298 2873 
Q 3191 2616 2906 2266 
Q 2828 2175 2409 1742 
Q 1991 1309 1228 531 
z
" transform="scale(0.015625)"/>
       </defs>
       <use xlink:href="#DejaVuSans-32"/>
       <use xlink:href="#DejaVuSans-30" transform="translate(63.623047 0)"/>
       <use xlink:href="#DejaVuSans-30" transform="translate(127.246094 0)"/>
       <use xlink:href="#DejaVuSans-30" transform="translate(190.869141 0)"/>
      </g>
     </g>
    </g>
    <g id="xtick_3">
     <g id="line2d_3">
      <g>
       <use xlink:href="#m4b916cedc0" x="137.384551" y="246.04" style="stroke: #000000; stroke-width: 0.8"/>
      </g>
     </g>
     <g id="text_3">
      <!-- 4000 -->
      <g transform="translate(124.659551 260.638438) scale(0.1 -0.1)">
       <defs>
        <path id="DejaVuSans-34" d="M 2419 4116 
L 825 1625 
L 2419 1625 
L 2419 4116 
z
M 2253 4666 
L 3047 4666 
L 3047 1625 
L 3713 1625 
L 3713 1100 
L 3047 1100 
L 3047 0 
L 2419 0 
L 2419 1100 
L 313 1100 
L 313 1709 
L 2253 4666 
z
" transform="scale(0.015625)"/>
       </defs>
       <use xlink:href="#DejaVuSans-34"/>
       <use xlink:href="#DejaVuSans-30" transform="translate(63.623047 0)"/>
       <use xlink:href="#DejaVuSans-30" transform="translate(127.246094 0)"/>
       <use xlink:href="#DejaVuSans-30" transform="translate(190.869141 0)"/>
      </g>
     </g>
    </g>
    <g id="xtick_4">
     <g id="line2d_4">
      <g>
       <use xlink:href="#m4b916cedc0" x="178.635921" y="246.04" style="stroke: #000000; stroke-width: 0.8"/>
      </g>
     </g>
     <g id="text_4">
      <!-- 6000 -->
      <g transform="translate(165.910921 260.638438) scale(0.1 -0.1)">
       <defs>
        <path id="DejaVuSans-36" d="M 2113 2584 
Q 1688 2584 1439 2293 
Q 1191 2003 1191 1497 
Q 1191 994 1439 701 
Q 1688 409 2113 409 
Q 2538 409 2786 701 
Q 3034 994 3034 1497 
Q 3034 2003 2786 2293 
Q 2538 2584 2113 2584 
z
M 3366 4563 
L 3366 3988 
Q 3128 4100 2886 4159 
Q 2644 4219 2406 4219 
Q 1781 4219 1451 3797 
Q 1122 3375 1075 2522 
Q 1259 2794 1537 2939 
Q 1816 3084 2150 3084 
Q 2853 3084 3261 2657 
Q 3669 2231 3669 1497 
Q 3669 778 3244 343 
Q 2819 -91 2113 -91 
Q 1303 -91 875 529 
Q 447 1150 447 2328 
Q 447 3434 972 4092 
Q 1497 4750 2381 4750 
Q 2619 4750 2861 4703 
Q 3103 4656 3366 4563 
z
" transform="scale(0.015625)"/>
       </defs>
       <use xlink:href="#DejaVuSans-36"/>
       <use xlink:href="#DejaVuSans-30" transform="translate(63.623047 0)"/>
       <use xlink:href="#DejaVuSans-30" transform="translate(127.246094 0)"/>
       <use xlink:href="#DejaVuSans-30" transform="translate(190.869141 0)"/>
      </g>
     </g>
    </g>
    <g id="xtick_5">
     <g id="line2d_5">
      <g>
       <use xlink:href="#m4b916cedc0" x="219.887291" y="246.04" style="stroke: #000000; stroke-width: 0.8"/>
      </g>
     </g>
     <g id="text_5">
      <!-- 8000 -->
      <g transform="translate(207.162291 260.638438) scale(0.1 -0.1)">
       <defs>
        <path id="DejaVuSans-38" d="M 2034 2216 
Q 1584 2216 1326 1975 
Q 1069 1734 1069 1313 
Q 1069 891 1326 650 
Q 1584 409 2034 409 
Q 2484 409 2743 651 
Q 3003 894 3003 1313 
Q 3003 1734 2745 1975 
Q 2488 2216 2034 2216 
z
M 1403 2484 
Q 997 2584 770 2862 
Q 544 3141 544 3541 
Q 544 4100 942 4425 
Q 1341 4750 2034 4750 
Q 2731 4750 3128 4425 
Q 3525 4100 3525 3541 
Q 3525 3141 3298 2862 
Q 3072 2584 2669 2484 
Q 3125 2378 3379 2068 
Q 3634 1759 3634 1313 
Q 3634 634 3220 271 
Q 2806 -91 2034 -91 
Q 1263 -91 848 271 
Q 434 634 434 1313 
Q 434 1759 690 2068 
Q 947 2378 1403 2484 
z
M 1172 3481 
Q 1172 3119 1398 2916 
Q 1625 2713 2034 2713 
Q 2441 2713 2670 2916 
Q 2900 3119 2900 3481 
Q 2900 3844 2670 4047 
Q 2441 4250 2034 4250 
Q 1625 4250 1398 4047 
Q 1172 3844 1172 3481 
z
" transform="scale(0.015625)"/>
       </defs>
       <use xlink:href="#DejaVuSans-38"/>
       <use xlink:href="#DejaVuSans-30" transform="translate(63.623047 0)"/>
       <use xlink:href="#DejaVuSans-30" transform="translate(127.246094 0)"/>
       <use xlink:href="#DejaVuSans-30" transform="translate(190.869141 0)"/>
      </g>
     </g>
    </g>
    <g id="xtick_6">
     <g id="line2d_6">
      <g>
       <use xlink:href="#m4b916cedc0" x="261.138661" y="246.04" style="stroke: #000000; stroke-width: 0.8"/>
      </g>
     </g>
     <g id="text_6">
      <!-- 10000 -->
      <g transform="translate(245.232411 260.638438) scale(0.1 -0.1)">
       <defs>
        <path id="DejaVuSans-31" d="M 794 531 
L 1825 531 
L 1825 4091 
L 703 3866 
L 703 4441 
L 1819 4666 
L 2450 4666 
L 2450 531 
L 3481 531 
L 3481 0 
L 794 0 
L 794 531 
z
" transform="scale(0.015625)"/>
       </defs>
       <use xlink:href="#DejaVuSans-31"/>
       <use xlink:href="#DejaVuSans-30" transform="translate(63.623047 0)"/>
       <use xlink:href="#DejaVuSans-30" transform="translate(127.246094 0)"/>
       <use xlink:href="#DejaVuSans-30" transform="translate(190.869141 0)"/>
       <use xlink:href="#DejaVuSans-30" transform="translate(254.492188 0)"/>
      </g>
     </g>
    </g>
    <g id="text_7">
     <!-- Ordered samples -->
     <g transform="translate(115.278829 274.316562) scale(0.1 -0.1)">
      <defs>
       <path id="DejaVuSans-4f" d="M 2522 4238 
Q 1834 4238 1429 3725 
Q 1025 3213 1025 2328 
Q 1025 1447 1429 934 
Q 1834 422 2522 422 
Q 3209 422 3611 934 
Q 4013 1447 4013 2328 
Q 4013 3213 3611 3725 
Q 3209 4238 2522 4238 
z
M 2522 4750 
Q 3503 4750 4090 4092 
Q 4678 3434 4678 2328 
Q 4678 1225 4090 567 
Q 3503 -91 2522 -91 
Q 1538 -91 948 565 
Q 359 1222 359 2328 
Q 359 3434 948 4092 
Q 1538 4750 2522 4750 
z
" transform="scale(0.015625)"/>
       <path id="DejaVuSans-72" d="M 2631 2963 
Q 2534 3019 2420 3045 
Q 2306 3072 2169 3072 
Q 1681 3072 1420 2755 
Q 1159 2438 1159 1844 
L 1159 0 
L 581 0 
L 581 3500 
L 1159 3500 
L 1159 2956 
Q 1341 3275 1631 3429 
Q 1922 3584 2338 3584 
Q 2397 3584 2469 3576 
Q 2541 3569 2628 3553 
L 2631 2963 
z
" transform="scale(0.015625)"/>
       <path id="DejaVuSans-64" d="M 2906 2969 
L 2906 4863 
L 3481 4863 
L 3481 0 
L 2906 0 
L 2906 525 
Q 2725 213 2448 61 
Q 2172 -91 1784 -91 
Q 1150 -91 751 415 
Q 353 922 353 1747 
Q 353 2572 751 3078 
Q 1150 3584 1784 3584 
Q 2172 3584 2448 3432 
Q 2725 3281 2906 2969 
z
M 947 1747 
Q 947 1113 1208 752 
Q 1469 391 1925 391 
Q 2381 391 2643 752 
Q 2906 1113 2906 1747 
Q 2906 2381 2643 2742 
Q 2381 3103 1925 3103 
Q 1469 3103 1208 2742 
Q 947 2381 947 1747 
z
" transform="scale(0.015625)"/>
       <path id="DejaVuSans-65" d="M 3597 1894 
L 3597 1613 
L 953 1613 
Q 991 1019 1311 708 
Q 1631 397 2203 397 
Q 2534 397 2845 478 
Q 3156 559 3463 722 
L 3463 178 
Q 3153 47 2828 -22 
Q 2503 -91 2169 -91 
Q 1331 -91 842 396 
Q 353 884 353 1716 
Q 353 2575 817 3079 
Q 1281 3584 2069 3584 
Q 2775 3584 3186 3129 
Q 3597 2675 3597 1894 
z
M 3022 2063 
Q 3016 2534 2758 2815 
Q 2500 3097 2075 3097 
Q 1594 3097 1305 2825 
Q 1016 2553 972 2059 
L 3022 2063 
z
" transform="scale(0.015625)"/>
       <path id="DejaVuSans-20" transform="scale(0.015625)"/>
       <path id="DejaVuSans-73" d="M 2834 3397 
L 2834 2853 
Q 2591 2978 2328 3040 
Q 2066 3103 1784 3103 
Q 1356 3103 1142 2972 
Q 928 2841 928 2578 
Q 928 2378 1081 2264 
Q 1234 2150 1697 2047 
L 1894 2003 
Q 2506 1872 2764 1633 
Q 3022 1394 3022 966 
Q 3022 478 2636 193 
Q 2250 -91 1575 -91 
Q 1294 -91 989 -36 
Q 684 19 347 128 
L 347 722 
Q 666 556 975 473 
Q 1284 391 1588 391 
Q 1994 391 2212 530 
Q 2431 669 2431 922 
Q 2431 1156 2273 1281 
Q 2116 1406 1581 1522 
L 1381 1569 
Q 847 1681 609 1914 
Q 372 2147 372 2553 
Q 372 3047 722 3315 
Q 1072 3584 1716 3584 
Q 2034 3584 2315 3537 
Q 2597 3491 2834 3397 
z
" transform="scale(0.015625)"/>
       <path id="DejaVuSans-61" d="M 2194 1759 
Q 1497 1759 1228 1600 
Q 959 1441 959 1056 
Q 959 750 1161 570 
Q 1363 391 1709 391 
Q 2188 391 2477 730 
Q 2766 1069 2766 1631 
L 2766 1759 
L 2194 1759 
z
M 3341 1997 
L 3341 0 
L 2766 0 
L 2766 531 
Q 2569 213 2275 61 
Q 1981 -91 1556 -91 
Q 1019 -91 701 211 
Q 384 513 384 1019 
Q 384 1609 779 1909 
Q 1175 2209 1959 2209 
L 2766 2209 
L 2766 2266 
Q 2766 2663 2505 2880 
Q 2244 3097 1772 3097 
Q 1472 3097 1187 3025 
Q 903 2953 641 2809 
L 641 3341 
Q 956 3463 1253 3523 
Q 1550 3584 1831 3584 
Q 2591 3584 2966 3190 
Q 3341 2797 3341 1997 
z
" transform="scale(0.015625)"/>
       <path id="DejaVuSans-6d" d="M 3328 2828 
Q 3544 3216 3844 3400 
Q 4144 3584 4550 3584 
Q 5097 3584 5394 3201 
Q 5691 2819 5691 2113 
L 5691 0 
L 5113 0 
L 5113 2094 
Q 5113 2597 4934 2840 
Q 4756 3084 4391 3084 
Q 3944 3084 3684 2787 
Q 3425 2491 3425 1978 
L 3425 0 
L 2847 0 
L 2847 2094 
Q 2847 2600 2669 2842 
Q 2491 3084 2119 3084 
Q 1678 3084 1418 2786 
Q 1159 2488 1159 1978 
L 1159 0 
L 581 0 
L 581 3500 
L 1159 3500 
L 1159 2956 
Q 1356 3278 1631 3431 
Q 1906 3584 2284 3584 
Q 2666 3584 2933 3390 
Q 3200 3197 3328 2828 
z
" transform="scale(0.015625)"/>
       <path id="DejaVuSans-70" d="M 1159 525 
L 1159 -1331 
L 581 -1331 
L 581 3500 
L 1159 3500 
L 1159 2969 
Q 1341 3281 1617 3432 
Q 1894 3584 2278 3584 
Q 2916 3584 3314 3078 
Q 3713 2572 3713 1747 
Q 3713 922 3314 415 
Q 2916 -91 2278 -91 
Q 1894 -91 1617 61 
Q 1341 213 1159 525 
z
M 3116 1747 
Q 3116 2381 2855 2742 
Q 2594 3103 2138 3103 
Q 1681 3103 1420 2742 
Q 1159 2381 1159 1747 
Q 1159 1113 1420 752 
Q 1681 391 2138 391 
Q 2594 391 2855 752 
Q 3116 1113 3116 1747 
z
" transform="scale(0.015625)"/>
       <path id="DejaVuSans-6c" d="M 603 4863 
L 1178 4863 
L 1178 0 
L 603 0 
L 603 4863 
z
" transform="scale(0.015625)"/>
      </defs>
      <use xlink:href="#DejaVuSans-4f"/>
      <use xlink:href="#DejaVuSans-72" transform="translate(78.710938 0)"/>
      <use xlink:href="#DejaVuSans-64" transform="translate(118.074219 0)"/>
      <use xlink:href="#DejaVuSans-65" transform="translate(181.550781 0)"/>
      <use xlink:href="#DejaVuSans-72" transform="translate(243.074219 0)"/>
      <use xlink:href="#DejaVuSans-65" transform="translate(281.9375 0)"/>
      <use xlink:href="#DejaVuSans-64" transform="translate(343.460938 0)"/>
      <use xlink:href="#DejaVuSans-20" transform="translate(406.9375 0)"/>
      <use xlink:href="#DejaVuSans-73" transform="translate(438.724609 0)"/>
      <use xlink:href="#DejaVuSans-61" transform="translate(490.824219 0)"/>
      <use xlink:href="#DejaVuSans-6d" transform="translate(552.103516 0)"/>
      <use xlink:href="#DejaVuSans-70" transform="translate(649.515625 0)"/>
      <use xlink:href="#DejaVuSans-6c" transform="translate(712.992188 0)"/>
      <use xlink:href="#DejaVuSans-65" transform="translate(740.775391 0)"/>
      <use xlink:href="#DejaVuSans-73" transform="translate(802.298828 0)"/>
     </g>
    </g>
   </g>
   <g id="matplotlib.axis_2">
    <g id="ytick_1">
     <g id="line2d_7">
      <defs>
       <path id="m19f1df53cb" d="M 0 0 
L -3.5 0 
" style="stroke: #000000; stroke-width: 0.8"/>
      </defs>
      <g>
       <use xlink:href="#m19f1df53cb" x="44.57" y="242.358175" style="stroke: #000000; stroke-width: 0.8"/>
      </g>
     </g>
     <g id="text_8">
      <!-- 0 -->
      <g transform="translate(31.2075 246.157394) scale(0.1 -0.1)">
       <use xlink:href="#DejaVuSans-30"/>
      </g>
     </g>
    </g>
    <g id="ytick_2">
     <g id="line2d_8">
      <g>
       <use xlink:href="#m19f1df53cb" x="44.57" y="210.887559" style="stroke: #000000; stroke-width: 0.8"/>
      </g>
     </g>
     <g id="text_9">
      <!-- 5 -->
      <g transform="translate(31.2075 214.686778) scale(0.1 -0.1)">
       <defs>
        <path id="DejaVuSans-35" d="M 691 4666 
L 3169 4666 
L 3169 4134 
L 1269 4134 
L 1269 2991 
Q 1406 3038 1543 3061 
Q 1681 3084 1819 3084 
Q 2600 3084 3056 2656 
Q 3513 2228 3513 1497 
Q 3513 744 3044 326 
Q 2575 -91 1722 -91 
Q 1428 -91 1123 -41 
Q 819 9 494 109 
L 494 744 
Q 775 591 1075 516 
Q 1375 441 1709 441 
Q 2250 441 2565 725 
Q 2881 1009 2881 1497 
Q 2881 1984 2565 2268 
Q 2250 2553 1709 2553 
Q 1456 2553 1204 2497 
Q 953 2441 691 2322 
L 691 4666 
z
" transform="scale(0.015625)"/>
       </defs>
       <use xlink:href="#DejaVuSans-35"/>
      </g>
     </g>
    </g>
    <g id="ytick_3">
     <g id="line2d_9">
      <g>
       <use xlink:href="#m19f1df53cb" x="44.57" y="179.416944" style="stroke: #000000; stroke-width: 0.8"/>
      </g>
     </g>
     <g id="text_10">
      <!-- 10 -->
      <g transform="translate(24.845 183.216163) scale(0.1 -0.1)">
       <use xlink:href="#DejaVuSans-31"/>
       <use xlink:href="#DejaVuSans-30" transform="translate(63.623047 0)"/>
      </g>
     </g>
    </g>
    <g id="ytick_4">
     <g id="line2d_10">
      <g>
       <use xlink:href="#m19f1df53cb" x="44.57" y="147.946328" style="stroke: #000000; stroke-width: 0.8"/>
      </g>
     </g>
     <g id="text_11">
      <!-- 15 -->
      <g transform="translate(24.845 151.745547) scale(0.1 -0.1)">
       <use xlink:href="#DejaVuSans-31"/>
       <use xlink:href="#DejaVuSans-35" transform="translate(63.623047 0)"/>
      </g>
     </g>
    </g>
    <g id="ytick_5">
     <g id="line2d_11">
      <g>
       <use xlink:href="#m19f1df53cb" x="44.57" y="116.475713" style="stroke: #000000; stroke-width: 0.8"/>
      </g>
     </g>
     <g id="text_12">
      <!-- 20 -->
      <g transform="translate(24.845 120.274931) scale(0.1 -0.1)">
       <use xlink:href="#DejaVuSans-32"/>
       <use xlink:href="#DejaVuSans-30" transform="translate(63.623047 0)"/>
      </g>
     </g>
    </g>
    <g id="ytick_6">
     <g id="line2d_12">
      <g>
       <use xlink:href="#m19f1df53cb" x="44.57" y="85.005097" style="stroke: #000000; stroke-width: 0.8"/>
      </g>
     </g>
     <g id="text_13">
      <!-- 25 -->
      <g transform="translate(24.845 88.804316) scale(0.1 -0.1)">
       <use xlink:href="#DejaVuSans-32"/>
       <use xlink:href="#DejaVuSans-35" transform="translate(63.623047 0)"/>
      </g>
     </g>
    </g>
    <g id="ytick_7">
     <g id="line2d_13">
      <g>
       <use xlink:href="#m19f1df53cb" x="44.57" y="53.534482" style="stroke: #000000; stroke-width: 0.8"/>
      </g>
     </g>
     <g id="text_14">
      <!-- 30 -->
      <g transform="translate(24.845 57.3337) scale(0.1 -0.1)">
       <defs>
        <path id="DejaVuSans-33" d="M 2597 2516 
Q 3050 2419 3304 2112 
Q 3559 1806 3559 1356 
Q 3559 666 3084 287 
Q 2609 -91 1734 -91 
Q 1441 -91 1130 -33 
Q 819 25 488 141 
L 488 750 
Q 750 597 1062 519 
Q 1375 441 1716 441 
Q 2309 441 2620 675 
Q 2931 909 2931 1356 
Q 2931 1769 2642 2001 
Q 2353 2234 1838 2234 
L 1294 2234 
L 1294 2753 
L 1863 2753 
Q 2328 2753 2575 2939 
Q 2822 3125 2822 3475 
Q 2822 3834 2567 4026 
Q 2313 4219 1838 4219 
Q 1578 4219 1281 4162 
Q 984 4106 628 3988 
L 628 4550 
Q 988 4650 1302 4700 
Q 1616 4750 1894 4750 
Q 2613 4750 3031 4423 
Q 3450 4097 3450 3541 
Q 3450 3153 3228 2886 
Q 3006 2619 2597 2516 
z
" transform="scale(0.015625)"/>
       </defs>
       <use xlink:href="#DejaVuSans-33"/>
       <use xlink:href="#DejaVuSans-30" transform="translate(63.623047 0)"/>
      </g>
     </g>
    </g>
    <g id="text_15">
     <!-- Scores -->
     <g transform="translate(18.765313 157.002656) rotate(-90) scale(0.1 -0.1)">
      <defs>
       <path id="DejaVuSans-53" d="M 3425 4513 
L 3425 3897 
Q 3066 4069 2747 4153 
Q 2428 4238 2131 4238 
Q 1616 4238 1336 4038 
Q 1056 3838 1056 3469 
Q 1056 3159 1242 3001 
Q 1428 2844 1947 2747 
L 2328 2669 
Q 3034 2534 3370 2195 
Q 3706 1856 3706 1288 
Q 3706 609 3251 259 
Q 2797 -91 1919 -91 
Q 1588 -91 1214 -16 
Q 841 59 441 206 
L 441 856 
Q 825 641 1194 531 
Q 1563 422 1919 422 
Q 2459 422 2753 634 
Q 3047 847 3047 1241 
Q 3047 1584 2836 1778 
Q 2625 1972 2144 2069 
L 1759 2144 
Q 1053 2284 737 2584 
Q 422 2884 422 3419 
Q 422 4038 858 4394 
Q 1294 4750 2059 4750 
Q 2388 4750 2728 4690 
Q 3069 4631 3425 4513 
z
" transform="scale(0.015625)"/>
       <path id="DejaVuSans-63" d="M 3122 3366 
L 3122 2828 
Q 2878 2963 2633 3030 
Q 2388 3097 2138 3097 
Q 1578 3097 1268 2742 
Q 959 2388 959 1747 
Q 959 1106 1268 751 
Q 1578 397 2138 397 
Q 2388 397 2633 464 
Q 2878 531 3122 666 
L 3122 134 
Q 2881 22 2623 -34 
Q 2366 -91 2075 -91 
Q 1284 -91 818 406 
Q 353 903 353 1747 
Q 353 2603 823 3093 
Q 1294 3584 2113 3584 
Q 2378 3584 2631 3529 
Q 2884 3475 3122 3366 
z
" transform="scale(0.015625)"/>
       <path id="DejaVuSans-6f" d="M 1959 3097 
Q 1497 3097 1228 2736 
Q 959 2375 959 1747 
Q 959 1119 1226 758 
Q 1494 397 1959 397 
Q 2419 397 2687 759 
Q 2956 1122 2956 1747 
Q 2956 2369 2687 2733 
Q 2419 3097 1959 3097 
z
M 1959 3584 
Q 2709 3584 3137 3096 
Q 3566 2609 3566 1747 
Q 3566 888 3137 398 
Q 2709 -91 1959 -91 
Q 1206 -91 779 398 
Q 353 888 353 1747 
Q 353 2609 779 3096 
Q 1206 3584 1959 3584 
z
" transform="scale(0.015625)"/>
      </defs>
      <use xlink:href="#DejaVuSans-53"/>
      <use xlink:href="#DejaVuSans-63" transform="translate(63.476562 0)"/>
      <use xlink:href="#DejaVuSans-6f" transform="translate(118.457031 0)"/>
      <use xlink:href="#DejaVuSans-72" transform="translate(179.638672 0)"/>
      <use xlink:href="#DejaVuSans-65" transform="translate(218.501953 0)"/>
      <use xlink:href="#DejaVuSans-73" transform="translate(280.025391 0)"/>
     </g>
    </g>
   </g>
   <g id="line2d_14">
    <path d="M 54.881811 232.950846 
L 55.356202 229.170798 
L 55.376828 229.159872 
L 55.521207 228.441876 
L 55.727464 227.507945 
L 55.913095 226.247165 
L 56.016224 226.080731 
L 56.243106 225.603529 
L 56.428738 225.331998 
L 56.65562 224.868315 
L 56.779374 224.772335 
L 57.191888 223.918523 
L 57.315642 223.802045 
L 57.439396 223.69223 
L 57.666279 223.320856 
L 58.367552 222.800967 
L 58.573809 222.584453 
L 58.945071 222.270456 
L 59.110077 222.117326 
L 59.213205 222.033723 
L 59.460713 221.761404 
L 59.625719 221.607967 
L 61.048891 220.544787 
L 61.378902 220.385905 
L 64.01899 218.532478 
L 64.452129 218.346558 
L 64.988397 218.112078 
L 65.174028 217.97689 
L 65.380285 217.821304 
L 65.669044 217.698012 
L 67.401602 216.755931 
L 68.123501 216.47503 
L 68.969154 216.134052 
L 69.75293 215.803402 
L 70.330449 215.617381 
L 70.557332 215.527072 
L 73.011788 214.558637 
L 73.238671 214.437767 
L 73.774939 214.227504 
L 73.981195 214.130202 
L 74.991854 213.814192 
L 75.177485 213.702314 
L 75.672502 213.528922 
L 79.220119 212.393615 
L 79.385125 212.322674 
L 85.180942 210.440391 
L 85.407825 210.354966 
L 86.810371 209.923782 
L 87.552896 209.707759 
L 87.759153 209.624477 
L 88.006661 209.516563 
L 91.368648 208.698723 
L 91.636782 208.619132 
L 92.441183 208.422561 
L 92.833071 208.340641 
L 93.348714 208.151837 
L 93.513719 208.091737 
L 94.978143 207.676961 
L 95.720667 207.468655 
L 96.298187 207.310406 
L 96.834454 207.199206 
L 97.288219 207.084495 
L 97.783236 206.965284 
L 98.175124 206.852187 
L 99.990184 206.406435 
L 100.258318 206.33897 
L 101.475233 206.055347 
L 101.867122 205.927583 
L 103.723433 205.423093 
L 104.280327 205.276646 
L 104.548461 205.210453 
L 108.921106 203.982134 
L 109.086111 203.916571 
L 109.581128 203.795389 
L 109.828636 203.743017 
L 110.179273 203.614169 
L 110.818669 203.480697 
L 111.458065 203.350793 
L 113.706265 202.84738 
L 114.407538 202.683535 
L 115.129437 202.485703 
L 119.357702 201.517097 
L 119.873344 201.360931 
L 120.223981 201.234494 
L 121.420271 200.919588 
L 121.729656 200.829556 
L 122.121544 200.72115 
L 122.451555 200.629942 
L 123.379711 200.425879 
L 129.505539 198.900213 
L 130.021181 198.775528 
L 130.371818 198.670618 
L 131.382477 198.465971 
L 131.980622 198.307672 
L 132.310632 198.227799 
L 132.908777 198.087543 
L 134.125693 197.726211 
L 134.579458 197.583936 
L 135.198228 197.459467 
L 135.982004 197.273715 
L 136.29139 197.215107 
L 136.930786 197.076916 
L 138.147701 196.772311 
L 138.333332 196.711748 
L 138.725221 196.586934 
L 138.993354 196.50497 
L 144.706669 195.070152 
L 144.995429 195.002137 
L 150.275604 193.600708 
L 150.44061 193.527354 
L 151.20376 193.345675 
L 152.791938 192.890574 
L 153.369457 192.74636 
L 154.297613 192.531586 
L 155.555779 192.164293 
L 155.927042 192.039888 
L 157.123331 191.725549 
L 157.865856 191.531223 
L 158.154616 191.403603 
L 160.774078 190.515059 
L 161.186591 190.382829 
L 162.259127 190.065864 
L 162.568512 189.943983 
L 163.207909 189.779105 
L 163.434791 189.688514 
L 164.878589 189.248828 
L 165.517985 188.972327 
L 165.847996 188.842 
L 166.095504 188.752772 
L 166.590521 188.633225 
L 166.796778 188.567713 
L 167.394923 188.363465 
L 168.096196 188.182332 
L 168.591212 188.053854 
L 169.292486 187.838332 
L 172.530718 186.827834 
L 172.881355 186.712651 
L 173.211366 186.566657 
L 175.0058 186.03512 
L 175.562694 185.870434 
L 175.707074 185.781219 
L 176.05771 185.68459 
L 176.20209 185.619618 
L 177.336503 185.270654 
L 177.54276 185.190988 
L 179.151563 184.684938 
L 179.522825 184.587193 
L 179.894088 184.480479 
L 181.956656 183.724729 
L 182.596052 183.556712 
L 187.463714 181.965648 
L 187.711222 181.84439 
L 188.206239 181.668096 
L 188.680629 181.470108 
L 189.381903 181.245937 
L 190.289433 180.915383 
L 191.691979 180.43797 
L 192.001365 180.270307 
L 192.393253 180.173877 
L 192.620135 180.083172 
L 192.991398 179.91381 
L 193.259532 179.772733 
L 193.50704 179.65902 
L 193.878302 179.510043 
L 194.208313 179.410047 
L 194.55895 179.301737 
L 194.765207 179.233104 
L 195.363351 179.074367 
L 195.734614 178.90686 
L 195.940871 178.766574 
L 197.694054 177.824589 
L 197.900311 177.684418 
L 198.498455 177.412694 
L 198.931595 177.258597 
L 200.189762 176.657653 
L 200.43727 176.574019 
L 200.808532 176.455349 
L 201.014789 176.370197 
L 201.303549 176.214059 
L 201.571683 176.027391 
L 201.839816 175.919274 
L 202.211079 175.673139 
L 202.644218 175.554619 
L 202.974229 175.397028 
L 208.13065 172.981335 
L 208.687544 172.748592 
L 209.18256 172.534968 
L 209.430069 172.416129 
L 209.698202 172.298137 
L 210.069465 172.163584 
L 210.605733 171.869316 
L 210.811989 171.795532 
L 211.657642 171.29995 
L 212.008279 171.138116 
L 212.255787 171.015376 
L 212.544547 170.904881 
L 212.771429 170.749829 
L 213.080815 170.598757 
L 213.410826 170.414281 
L 213.575831 170.293636 
L 213.761462 170.143968 
L 219.763537 166.802629 
L 219.928542 166.593548 
L 220.299804 166.399342 
L 220.588564 166.200795 
L 221.310463 165.760719 
L 222.259245 165.257982 
L 222.42425 165.130074 
L 222.692384 164.966733 
L 222.919266 164.863645 
L 223.125523 164.694625 
L 223.950551 164.046104 
L 224.280562 163.798572 
L 224.424941 163.688095 
L 224.734327 163.47908 
L 224.940584 163.350932 
L 225.105589 163.212285 
L 225.497477 162.992022 
L 225.806862 162.832516 
L 226.34313 162.561663 
L 227.580671 161.853982 
L 227.745677 161.695094 
L 228.343822 161.1745 
L 228.467576 161.105224 
L 228.632581 160.913305 
L 228.921341 160.735089 
L 229.230726 160.517569 
L 229.395732 160.27802 
L 229.581363 160.186337 
L 229.78762 160.034665 
L 229.931999 159.9333 
L 230.798278 159.376276 
L 231.190166 158.973679 
L 231.643931 158.558759 
L 231.870814 158.4136 
L 232.015194 158.319756 
L 232.180199 158.218337 
L 232.427707 158.099967 
L 232.633964 157.925713 
L 233.520869 157.168414 
L 233.665248 157.006495 
L 233.830254 156.827512 
L 234.139639 156.350399 
L 234.572778 156.019941 
L 234.820287 155.70964 
L 234.985292 155.591168 
L 235.315303 155.350232 
L 236.078453 154.678337 
L 236.367213 154.483374 
L 236.511593 154.296773 
L 236.759101 154.086462 
L 236.924107 153.980805 
L 237.439749 153.595034 
L 238.367904 152.627448 
L 238.471033 152.499972 
L 238.801044 152.224821 
L 238.883547 152.189406 
L 239.048552 151.941921 
L 239.131055 151.839986 
L 239.337312 151.592933 
L 239.399189 151.482697 
L 239.564194 151.280843 
L 239.708574 151.208591 
L 239.914831 150.815148 
L 240.100462 150.535219 
L 240.20359 150.313485 
L 240.677981 149.547483 
L 240.966741 149.330713 
L 241.193623 149.117112 
L 241.379254 148.983964 
L 242.183656 148.015087 
L 242.369287 147.62584 
L 242.389913 147.623752 
L 242.534293 147.370612 
L 242.616796 147.269505 
L 242.823052 146.827496 
L 242.926181 146.770418 
L 243.091186 146.460333 
L 243.379946 146.105102 
L 243.544951 145.835708 
L 243.64808 145.620469 
L 243.79246 145.418897 
L 244.019342 145.141778 
L 245.421889 142.87188 
L 245.525017 142.761613 
L 245.669397 142.445855 
L 245.710648 142.305768 
L 246.102536 141.731397 
L 246.494424 141.134042 
L 246.741933 140.788799 
L 246.865687 140.741367 
L 247.010066 140.491349 
L 247.154446 140.3288 
L 247.340077 140.094233 
L 247.401955 139.973714 
L 247.649463 139.422752 
L 247.793843 139.287383 
L 248.701373 137.386498 
L 248.76325 137.277695 
L 250.207048 134.746231 
L 250.475182 134.478085 
L 250.887695 133.682016 
L 251.032075 133.481267 
L 251.423963 132.287541 
L 251.568343 132.037763 
L 251.815851 131.308706 
L 252.022108 130.996946 
L 252.207739 130.641667 
L 252.269616 130.574115 
L 252.475873 129.780182 
L 252.929638 128.812524 
L 252.970889 128.677287 
L 253.44528 127.209233 
L 253.775291 126.115329 
L 253.857794 125.906105 
L 254.311559 124.233064 
L 254.373436 124.084093 
L 254.49719 123.713016 
L 254.765324 123.124406 
L 254.868452 123.028966 
L 255.115961 122.293654 
L 255.26034 121.718286 
L 256.126619 118.072161 
L 256.147245 118.070036 
L 256.580384 116.231037 
L 256.621636 115.988846 
L 256.869144 115.173029 
L 257.054775 114.244963 
L 257.859177 109.473314 
L 258.003557 107.852807 
L 258.663578 102.413806 
L 258.931712 99.595648 
L 258.993589 98.850948 
L 259.158595 97.342569 
L 259.344226 95.841117 
L 260.004248 88.996381 
L 260.189879 85.661223 
L 260.210505 85.649266 
L 260.354885 81.166603 
L 260.66427 77.217217 
L 261.118035 44.355284 
L 261.118035 44.355284 
" clip-path="url(#p23fb07b50e)" style="fill: none; stroke: #1f77b4; stroke-width: 1.5; stroke-linecap: square"/>
   </g>
   <g id="line2d_15">
    <path d="M 54.881811 236.435966 
L 55.026191 229.151204 
L 55.149945 228.391683 
L 55.397453 226.88715 
L 55.768716 225.350493 
L 56.51124 223.889562 
L 56.573117 223.791074 
L 56.779374 223.364604 
L 56.94438 223.282917 
L 57.130011 222.757268 
L 57.253765 222.644365 
L 57.460022 222.258812 
L 57.542525 222.108885 
L 57.686904 221.751485 
L 57.748781 221.711521 
L 57.913787 221.275719 
L 58.90382 220.192495 
L 59.0482 220.061268 
L 59.192579 219.919204 
L 59.419462 219.710144 
L 59.687596 219.532928 
L 60.161987 218.961051 
L 60.326992 218.771653 
L 60.945763 218.084711 
L 61.172645 217.853293 
L 61.255148 217.790708 
L 61.399528 217.540714 
L 61.564533 217.408304 
L 61.708913 217.305973 
L 63.462096 215.924011 
L 63.750856 215.686578 
L 64.349001 215.077386 
L 64.617134 214.939384 
L 70.887343 210.339812 
L 71.072974 210.225365 
L 71.732996 209.746041 
L 71.980504 209.624045 
L 72.248638 209.458369 
L 72.702403 209.19754 
L 72.90866 209.086805 
L 76.250021 207.004937 
L 76.724412 206.543308 
L 76.889417 206.438558 
L 77.095674 206.295379 
L 77.570065 205.940251 
L 77.817573 205.745807 
L 78.02383 205.622137 
L 78.188835 205.445827 
L 78.560098 205.183444 
L 78.93136 204.767438 
L 79.570756 204.323868 
L 79.83889 204.163624 
L 79.962644 204.073355 
L 80.107024 203.889806 
L 80.437035 203.781847 
L 80.684543 203.663795 
L 81.014554 203.471366 
L 81.17956 203.246886 
L 81.365191 203.128741 
L 81.633325 202.896748 
L 81.94271 202.750166 
L 82.582106 202.26956 
L 83.324631 201.661227 
L 83.510262 201.494602 
L 83.695893 201.404588 
L 83.922776 201.162935 
L 84.211535 200.969115 
L 85.696585 199.813176 
L 85.86159 199.707306 
L 86.00597 199.585322 
L 86.191601 199.474233 
L 86.439109 199.13511 
L 86.604115 199.013547 
L 86.9135 198.787509 
L 87.140382 198.653214 
L 87.449768 198.419988 
L 87.594148 198.242358 
L 87.697276 198.110968 
L 87.862281 197.907467 
L 88.027287 197.781975 
L 88.501678 197.497106 
L 88.646057 197.211301 
L 89.264828 196.576898 
L 89.553588 196.353027 
L 89.718593 196.120165 
L 89.966101 195.744426 
L 90.234235 195.616806 
L 90.357989 195.527353 
L 90.54362 195.237578 
L 90.688 195.085512 
L 90.914883 194.872476 
L 91.492402 194.536406 
L 91.73991 194.250727 
L 91.925541 194.154026 
L 92.234927 193.89546 
L 92.503061 193.657825 
L 92.729943 193.287723 
L 92.894949 193.174885 
L 93.493093 192.672994 
L 93.678725 192.441638 
L 94.049987 192.048693 
L 94.235618 191.974973 
L 94.379998 191.808307 
L 94.503752 191.718575 
L 94.668757 191.496787 
L 94.833763 191.29731 
L 94.998768 191.134767 
L 95.143148 191.005748 
L 95.308154 190.892871 
L 96.174432 189.798139 
L 96.298187 189.660873 
L 96.463192 189.286128 
L 96.7107 189.056813 
L 96.978834 188.679211 
L 97.061337 188.571771 
L 98.855772 186.381719 
L 99.062028 185.969416 
L 100.031436 184.505252 
L 100.258318 184.013626 
L 100.485201 183.617572 
L 100.856463 182.910154 
L 101.145223 182.610279 
L 101.351479 182.243782 
L 101.454608 182.131132 
L 101.619613 181.695287 
L 101.908373 180.880952 
L 102.217758 180.242077 
L 102.300261 180.143113 
L 102.527143 179.550014 
L 102.898406 178.702827 
L 103.352171 177.322878 
L 103.496551 177.073161 
L 103.661556 176.33498 
L 103.744059 176.197906 
L 103.950316 175.28301 
L 103.991567 175.047206 
L 104.404081 173.443567 
L 104.672215 172.080809 
L 104.713466 172.024721 
L 104.899097 171.188027 
L 105.146605 169.584507 
L 105.290985 167.981054 
L 105.435365 167.435273 
L 105.620996 165.872486 
L 105.641622 165.801993 
L 105.806627 164.179763 
L 105.88913 163.940874 
L 106.116013 161.195791 
L 106.198515 160.821106 
L 106.363521 149.184143 
L 106.425398 127.068233 
L 106.425398 127.068233 
" clip-path="url(#p23fb07b50e)" style="fill: none; stroke: #ff7f0e; stroke-width: 1.5; stroke-linecap: square"/>
   </g>
   <g id="patch_3">
    <path d="M 44.57 246.04 
L 44.57 34.75125 
" style="fill: none; stroke: #000000; stroke-width: 0.8; stroke-linejoin: miter; stroke-linecap: square"/>
   </g>
   <g id="patch_4">
    <path d="M 271.429846 246.04 
L 271.429846 34.75125 
" style="fill: none; stroke: #000000; stroke-width: 0.8; stroke-linejoin: miter; stroke-linecap: square"/>
   </g>
   <g id="patch_5">
    <path d="M 44.57 246.04 
L 271.429846 246.04 
" style="fill: none; stroke: #000000; stroke-width: 0.8; stroke-linejoin: miter; stroke-linecap: square"/>
   </g>
   <g id="patch_6">
    <path d="M 44.57 34.75125 
L 271.429846 34.75125 
" style="fill: none; stroke: #000000; stroke-width: 0.8; stroke-linejoin: miter; stroke-linecap: square"/>
   </g>
   <g id="legend_1">
    <g id="patch_7">
     <path d="M 51.57 72.1075 
L 151.759063 72.1075 
Q 153.759063 72.1075 153.759063 70.1075 
L 153.759063 41.75125 
Q 153.759063 39.75125 151.759063 39.75125 
L 51.57 39.75125 
Q 49.57 39.75125 49.57 41.75125 
L 49.57 70.1075 
Q 49.57 72.1075 51.57 72.1075 
z
" style="fill: #ffffff; opacity: 0.8; stroke: #cccccc; stroke-linejoin: miter"/>
    </g>
    <g id="line2d_16">
     <path d="M 53.57 47.849687 
L 63.57 47.849687 
L 73.57 47.849687 
" style="fill: none; stroke: #1f77b4; stroke-width: 1.5; stroke-linecap: square"/>
    </g>
    <g id="text_16">
     <!-- ID samples -->
     <g transform="translate(81.57 51.349687) scale(0.1 -0.1)">
      <defs>
       <path id="DejaVuSans-49" d="M 628 4666 
L 1259 4666 
L 1259 0 
L 628 0 
L 628 4666 
z
" transform="scale(0.015625)"/>
       <path id="DejaVuSans-44" d="M 1259 4147 
L 1259 519 
L 2022 519 
Q 2988 519 3436 956 
Q 3884 1394 3884 2338 
Q 3884 3275 3436 3711 
Q 2988 4147 2022 4147 
L 1259 4147 
z
M 628 4666 
L 1925 4666 
Q 3281 4666 3915 4102 
Q 4550 3538 4550 2338 
Q 4550 1131 3912 565 
Q 3275 0 1925 0 
L 628 0 
L 628 4666 
z
" transform="scale(0.015625)"/>
      </defs>
      <use xlink:href="#DejaVuSans-49"/>
      <use xlink:href="#DejaVuSans-44" transform="translate(29.492188 0)"/>
      <use xlink:href="#DejaVuSans-20" transform="translate(106.494141 0)"/>
      <use xlink:href="#DejaVuSans-73" transform="translate(138.28125 0)"/>
      <use xlink:href="#DejaVuSans-61" transform="translate(190.380859 0)"/>
      <use xlink:href="#DejaVuSans-6d" transform="translate(251.660156 0)"/>
      <use xlink:href="#DejaVuSans-70" transform="translate(349.072266 0)"/>
      <use xlink:href="#DejaVuSans-6c" transform="translate(412.548828 0)"/>
      <use xlink:href="#DejaVuSans-65" transform="translate(440.332031 0)"/>
      <use xlink:href="#DejaVuSans-73" transform="translate(501.855469 0)"/>
     </g>
    </g>
    <g id="line2d_17">
     <path d="M 53.57 62.527812 
L 63.57 62.527812 
L 73.57 62.527812 
" style="fill: none; stroke: #ff7f0e; stroke-width: 1.5; stroke-linecap: square"/>
    </g>
    <g id="text_17">
     <!-- OOD samples -->
     <g transform="translate(81.57 66.027812) scale(0.1 -0.1)">
      <use xlink:href="#DejaVuSans-4f"/>
      <use xlink:href="#DejaVuSans-4f" transform="translate(78.710938 0)"/>
      <use xlink:href="#DejaVuSans-44" transform="translate(157.421875 0)"/>
      <use xlink:href="#DejaVuSans-20" transform="translate(234.423828 0)"/>
      <use xlink:href="#DejaVuSans-73" transform="translate(266.210938 0)"/>
      <use xlink:href="#DejaVuSans-61" transform="translate(318.310547 0)"/>
      <use xlink:href="#DejaVuSans-6d" transform="translate(379.589844 0)"/>
      <use xlink:href="#DejaVuSans-70" transform="translate(477.001953 0)"/>
      <use xlink:href="#DejaVuSans-6c" transform="translate(540.478516 0)"/>
      <use xlink:href="#DejaVuSans-65" transform="translate(568.261719 0)"/>
      <use xlink:href="#DejaVuSans-73" transform="translate(629.785156 0)"/>
     </g>
    </g>
   </g>
  </g>
  <g id="axes_2">
   <g id="patch_8">
    <path d="M 338.340154 246.04 
L 565.2 246.04 
L 565.2 34.75125 
L 338.340154 34.75125 
z
" style="fill: #ffffff"/>
   </g>
   <g id="patch_9">
    <path d="M 352.393924 246.04 
L 360.493694 246.04 
L 360.493694 239.38485 
L 352.393924 239.38485 
z
" clip-path="url(#pfe9d2bea4b)" style="fill: #1f77b4; opacity: 0.5"/>
   </g>
   <g id="patch_10">
    <path d="M 360.493694 246.04 
L 368.593465 246.04 
L 368.593465 206.747266 
L 360.493694 206.747266 
z
" clip-path="url(#pfe9d2bea4b)" style="fill: #1f77b4; opacity: 0.5"/>
   </g>
   <g id="patch_11">
    <path d="M 368.593465 246.04 
L 376.693238 246.04 
L 376.693238 156.69691 
L 368.593465 156.69691 
z
" clip-path="url(#pfe9d2bea4b)" style="fill: #1f77b4; opacity: 0.5"/>
   </g>
   <g id="patch_12">
    <path d="M 376.693238 246.04 
L 384.793008 246.04 
L 384.793008 120.047985 
L 376.693238 120.047985 
z
" clip-path="url(#pfe9d2bea4b)" style="fill: #1f77b4; opacity: 0.5"/>
   </g>
   <g id="patch_13">
    <path d="M 384.793008 246.04 
L 392.892779 246.04 
L 392.892779 113.028169 
L 384.793008 113.028169 
z
" clip-path="url(#pfe9d2bea4b)" style="fill: #1f77b4; opacity: 0.5"/>
   </g>
   <g id="patch_14">
    <path d="M 392.892779 246.04 
L 400.99255 246.04 
L 400.99255 132.720119 
L 392.892779 132.720119 
z
" clip-path="url(#pfe9d2bea4b)" style="fill: #1f77b4; opacity: 0.5"/>
   </g>
   <g id="patch_15">
    <path d="M 400.99255 246.04 
L 409.092321 246.04 
L 409.092321 145.574587 
L 400.99255 145.574587 
z
" clip-path="url(#pfe9d2bea4b)" style="fill: #1f77b4; opacity: 0.5"/>
   </g>
   <g id="patch_16">
    <path d="M 409.092321 246.04 
L 417.192092 246.04 
L 417.192092 172.742185 
L 409.092321 172.742185 
z
" clip-path="url(#pfe9d2bea4b)" style="fill: #1f77b4; opacity: 0.5"/>
   </g>
   <g id="patch_17">
    <path d="M 417.192092 246.04 
L 425.291862 246.04 
L 425.291862 186.052485 
L 417.192092 186.052485 
z
" clip-path="url(#pfe9d2bea4b)" style="fill: #1f77b4; opacity: 0.5"/>
   </g>
   <g id="patch_18">
    <path d="M 425.291862 246.04 
L 433.391633 246.04 
L 433.391633 199.089285 
L 425.291862 199.089285 
z
" clip-path="url(#pfe9d2bea4b)" style="fill: #1f77b4; opacity: 0.5"/>
   </g>
   <g id="patch_19">
    <path d="M 433.391633 246.04 
L 441.491404 246.04 
L 441.491404 214.587579 
L 433.391633 214.587579 
z
" clip-path="url(#pfe9d2bea4b)" style="fill: #1f77b4; opacity: 0.5"/>
   </g>
   <g id="patch_20">
    <path d="M 441.491404 246.04 
L 449.591175 246.04 
L 449.591175 222.336727 
L 441.491404 222.336727 
z
" clip-path="url(#pfe9d2bea4b)" style="fill: #1f77b4; opacity: 0.5"/>
   </g>
   <g id="patch_21">
    <path d="M 449.591175 246.04 
L 457.690939 246.04 
L 457.690939 226.621534 
L 449.591175 226.621534 
z
" clip-path="url(#pfe9d2bea4b)" style="fill: #1f77b4; opacity: 0.5"/>
   </g>
   <g id="patch_22">
    <path d="M 457.690939 246.04 
L 465.790716 246.04 
L 465.790716 231.362215 
L 457.690939 231.362215 
z
" clip-path="url(#pfe9d2bea4b)" style="fill: #1f77b4; opacity: 0.5"/>
   </g>
   <g id="patch_23">
    <path d="M 465.790716 246.04 
L 473.890481 246.04 
L 473.890481 235.920518 
L 465.790716 235.920518 
z
" clip-path="url(#pfe9d2bea4b)" style="fill: #1f77b4; opacity: 0.5"/>
   </g>
   <g id="patch_24">
    <path d="M 473.890481 246.04 
L 481.990258 246.04 
L 481.990258 238.382025 
L 473.890481 238.382025 
z
" clip-path="url(#pfe9d2bea4b)" style="fill: #1f77b4; opacity: 0.5"/>
   </g>
   <g id="patch_25">
    <path d="M 481.990258 246.04 
L 490.090035 246.04 
L 490.090035 241.572848 
L 481.990258 241.572848 
z
" clip-path="url(#pfe9d2bea4b)" style="fill: #1f77b4; opacity: 0.5"/>
   </g>
   <g id="patch_26">
    <path d="M 490.090035 246.04 
L 498.1898 246.04 
L 498.1898 242.849172 
L 490.090035 242.849172 
z
" clip-path="url(#pfe9d2bea4b)" style="fill: #1f77b4; opacity: 0.5"/>
   </g>
   <g id="patch_27">
    <path d="M 498.1898 246.04 
L 506.289564 246.04 
L 506.289564 242.575673 
L 498.1898 242.575673 
z
" clip-path="url(#pfe9d2bea4b)" style="fill: #1f77b4; opacity: 0.5"/>
   </g>
   <g id="patch_28">
    <path d="M 506.289564 246.04 
L 514.389341 246.04 
L 514.389341 244.581338 
L 506.289564 244.581338 
z
" clip-path="url(#pfe9d2bea4b)" style="fill: #1f77b4; opacity: 0.5"/>
   </g>
   <g id="patch_29">
    <path d="M 514.389341 246.04 
L 522.489119 246.04 
L 522.489119 244.216673 
L 514.389341 244.216673 
z
" clip-path="url(#pfe9d2bea4b)" style="fill: #1f77b4; opacity: 0.5"/>
   </g>
   <g id="patch_30">
    <path d="M 522.489119 246.04 
L 530.588883 246.04 
L 530.588883 245.219501 
L 522.489119 245.219501 
z
" clip-path="url(#pfe9d2bea4b)" style="fill: #1f77b4; opacity: 0.5"/>
   </g>
   <g id="patch_31">
    <path d="M 530.588883 246.04 
L 538.688647 246.04 
L 538.688647 245.584167 
L 530.588883 245.584167 
z
" clip-path="url(#pfe9d2bea4b)" style="fill: #1f77b4; opacity: 0.5"/>
   </g>
   <g id="patch_32">
    <path d="M 538.688647 246.04 
L 546.788424 246.04 
L 546.788424 245.766501 
L 538.688647 245.766501 
z
" clip-path="url(#pfe9d2bea4b)" style="fill: #1f77b4; opacity: 0.5"/>
   </g>
   <g id="patch_33">
    <path d="M 546.788424 246.04 
L 554.888189 246.04 
L 554.888189 245.675334 
L 546.788424 245.675334 
z
" clip-path="url(#pfe9d2bea4b)" style="fill: #1f77b4; opacity: 0.5"/>
   </g>
   <g id="patch_34">
    <path d="M 348.651965 246.04 
L 353.349072 246.04 
L 353.349072 243.524657 
L 348.651965 243.524657 
z
" clip-path="url(#pfe9d2bea4b)" style="fill: #ff7f0e; opacity: 0.5"/>
   </g>
   <g id="patch_35">
    <path d="M 353.349072 246.04 
L 358.046179 246.04 
L 358.046179 236.607463 
L 353.349072 236.607463 
z
" clip-path="url(#pfe9d2bea4b)" style="fill: #ff7f0e; opacity: 0.5"/>
   </g>
   <g id="patch_36">
    <path d="M 358.046179 246.04 
L 362.743286 246.04 
L 362.743286 196.361973 
L 358.046179 196.361973 
z
" clip-path="url(#pfe9d2bea4b)" style="fill: #ff7f0e; opacity: 0.5"/>
   </g>
   <g id="patch_37">
    <path d="M 362.743286 246.04 
L 367.440393 246.04 
L 367.440393 146.055111 
L 362.743286 146.055111 
z
" clip-path="url(#pfe9d2bea4b)" style="fill: #ff7f0e; opacity: 0.5"/>
   </g>
   <g id="patch_38">
    <path d="M 367.440393 246.04 
L 372.137501 246.04 
L 372.137501 98.892478 
L 367.440393 98.892478 
z
" clip-path="url(#pfe9d2bea4b)" style="fill: #ff7f0e; opacity: 0.5"/>
   </g>
   <g id="patch_39">
    <path d="M 372.137501 246.04 
L 376.834607 246.04 
L 376.834607 58.646873 
L 372.137501 58.646873 
z
" clip-path="url(#pfe9d2bea4b)" style="fill: #ff7f0e; opacity: 0.5"/>
   </g>
   <g id="patch_40">
    <path d="M 376.834607 246.04 
L 381.531715 246.04 
L 381.531715 44.812619 
L 376.834607 44.812619 
z
" clip-path="url(#pfe9d2bea4b)" style="fill: #ff7f0e; opacity: 0.5"/>
   </g>
   <g id="patch_41">
    <path d="M 381.531715 246.04 
L 386.228821 246.04 
L 386.228821 65.564069 
L 381.531715 65.564069 
z
" clip-path="url(#pfe9d2bea4b)" style="fill: #ff7f0e; opacity: 0.5"/>
   </g>
   <g id="patch_42">
    <path d="M 386.228821 246.04 
L 390.925926 246.04 
L 390.925926 88.202165 
L 386.228821 88.202165 
z
" clip-path="url(#pfe9d2bea4b)" style="fill: #ff7f0e; opacity: 0.5"/>
   </g>
   <g id="patch_43">
    <path d="M 390.925926 246.04 
L 395.623035 246.04 
L 395.623035 104.551998 
L 390.925926 104.551998 
z
" clip-path="url(#pfe9d2bea4b)" style="fill: #ff7f0e; opacity: 0.5"/>
   </g>
   <g id="patch_44">
    <path d="M 395.623035 246.04 
L 400.320147 246.04 
L 400.320147 130.334335 
L 395.623035 130.334335 
z
" clip-path="url(#pfe9d2bea4b)" style="fill: #ff7f0e; opacity: 0.5"/>
   </g>
   <g id="patch_45">
    <path d="M 400.320147 246.04 
L 405.017252 246.04 
L 405.017252 154.229944 
L 400.320147 154.229944 
z
" clip-path="url(#pfe9d2bea4b)" style="fill: #ff7f0e; opacity: 0.5"/>
   </g>
   <g id="patch_46">
    <path d="M 405.017252 246.04 
L 409.714357 246.04 
L 409.714357 178.754548 
L 405.017252 178.754548 
z
" clip-path="url(#pfe9d2bea4b)" style="fill: #ff7f0e; opacity: 0.5"/>
   </g>
   <g id="patch_47">
    <path d="M 409.714357 246.04 
L 414.411469 246.04 
L 414.411469 200.76387 
L 409.714357 200.76387 
z
" clip-path="url(#pfe9d2bea4b)" style="fill: #ff7f0e; opacity: 0.5"/>
   </g>
   <g id="patch_48">
    <path d="M 414.411469 246.04 
L 419.108575 246.04 
L 419.108575 215.855872 
L 414.411469 215.855872 
z
" clip-path="url(#pfe9d2bea4b)" style="fill: #ff7f0e; opacity: 0.5"/>
   </g>
   <g id="patch_49">
    <path d="M 419.108575 246.04 
L 423.80568 246.04 
L 423.80568 228.432592 
L 419.108575 228.432592 
z
" clip-path="url(#pfe9d2bea4b)" style="fill: #ff7f0e; opacity: 0.5"/>
   </g>
   <g id="patch_50">
    <path d="M 423.80568 246.04 
L 428.502785 246.04 
L 428.502785 232.205608 
L 423.80568 232.205608 
z
" clip-path="url(#pfe9d2bea4b)" style="fill: #ff7f0e; opacity: 0.5"/>
   </g>
   <g id="patch_51">
    <path d="M 428.502785 246.04 
L 433.199891 246.04 
L 433.199891 237.236296 
L 428.502785 237.236296 
z
" clip-path="url(#pfe9d2bea4b)" style="fill: #ff7f0e; opacity: 0.5"/>
   </g>
   <g id="patch_52">
    <path d="M 433.199891 246.04 
L 437.897003 246.04 
L 437.897003 244.78233 
L 433.199891 244.78233 
z
" clip-path="url(#pfe9d2bea4b)" style="fill: #ff7f0e; opacity: 0.5"/>
   </g>
   <g id="patch_53">
    <path d="M 437.897003 246.04 
L 442.594108 246.04 
L 442.594108 244.782328 
L 437.897003 244.782328 
z
" clip-path="url(#pfe9d2bea4b)" style="fill: #ff7f0e; opacity: 0.5"/>
   </g>
   <g id="patch_54">
    <path d="M 442.594108 246.04 
L 447.291214 246.04 
L 447.291214 246.04 
L 442.594108 246.04 
z
" clip-path="url(#pfe9d2bea4b)" style="fill: #ff7f0e; opacity: 0.5"/>
   </g>
   <g id="patch_55">
    <path d="M 447.291214 246.04 
L 451.988319 246.04 
L 451.988319 245.411164 
L 447.291214 245.411164 
z
" clip-path="url(#pfe9d2bea4b)" style="fill: #ff7f0e; opacity: 0.5"/>
   </g>
   <g id="patch_56">
    <path d="M 451.988319 246.04 
L 456.685431 246.04 
L 456.685431 246.04 
L 451.988319 246.04 
z
" clip-path="url(#pfe9d2bea4b)" style="fill: #ff7f0e; opacity: 0.5"/>
   </g>
   <g id="patch_57">
    <path d="M 456.685431 246.04 
L 461.38253 246.04 
L 461.38253 246.04 
L 456.685431 246.04 
z
" clip-path="url(#pfe9d2bea4b)" style="fill: #ff7f0e; opacity: 0.5"/>
   </g>
   <g id="patch_58">
    <path d="M 461.38253 246.04 
L 466.079642 246.04 
L 466.079642 244.78233 
L 461.38253 244.78233 
z
" clip-path="url(#pfe9d2bea4b)" style="fill: #ff7f0e; opacity: 0.5"/>
   </g>
   <g id="matplotlib.axis_3">
    <g id="xtick_7">
     <g id="line2d_18">
      <g>
       <use xlink:href="#m4b916cedc0" x="342.293314" y="246.04" style="stroke: #000000; stroke-width: 0.8"/>
      </g>
     </g>
     <g id="text_18">
      <!-- 0 -->
      <g transform="translate(339.112064 260.638438) scale(0.1 -0.1)">
       <use xlink:href="#DejaVuSans-30"/>
      </g>
     </g>
    </g>
    <g id="xtick_8">
     <g id="line2d_19">
      <g>
       <use xlink:href="#m4b916cedc0" x="376.083182" y="246.04" style="stroke: #000000; stroke-width: 0.8"/>
      </g>
     </g>
     <g id="text_19">
      <!-- 5 -->
      <g transform="translate(372.901932 260.638438) scale(0.1 -0.1)">
       <use xlink:href="#DejaVuSans-35"/>
      </g>
     </g>
    </g>
    <g id="xtick_9">
     <g id="line2d_20">
      <g>
       <use xlink:href="#m4b916cedc0" x="409.87305" y="246.04" style="stroke: #000000; stroke-width: 0.8"/>
      </g>
     </g>
     <g id="text_20">
      <!-- 10 -->
      <g transform="translate(403.51055 260.638438) scale(0.1 -0.1)">
       <use xlink:href="#DejaVuSans-31"/>
       <use xlink:href="#DejaVuSans-30" transform="translate(63.623047 0)"/>
      </g>
     </g>
    </g>
    <g id="xtick_10">
     <g id="line2d_21">
      <g>
       <use xlink:href="#m4b916cedc0" x="443.662918" y="246.04" style="stroke: #000000; stroke-width: 0.8"/>
      </g>
     </g>
     <g id="text_21">
      <!-- 15 -->
      <g transform="translate(437.300418 260.638438) scale(0.1 -0.1)">
       <use xlink:href="#DejaVuSans-31"/>
       <use xlink:href="#DejaVuSans-35" transform="translate(63.623047 0)"/>
      </g>
     </g>
    </g>
    <g id="xtick_11">
     <g id="line2d_22">
      <g>
       <use xlink:href="#m4b916cedc0" x="477.452787" y="246.04" style="stroke: #000000; stroke-width: 0.8"/>
      </g>
     </g>
     <g id="text_22">
      <!-- 20 -->
      <g transform="translate(471.090287 260.638438) scale(0.1 -0.1)">
       <use xlink:href="#DejaVuSans-32"/>
       <use xlink:href="#DejaVuSans-30" transform="translate(63.623047 0)"/>
      </g>
     </g>
    </g>
    <g id="xtick_12">
     <g id="line2d_23">
      <g>
       <use xlink:href="#m4b916cedc0" x="511.242655" y="246.04" style="stroke: #000000; stroke-width: 0.8"/>
      </g>
     </g>
     <g id="text_23">
      <!-- 25 -->
      <g transform="translate(504.880155 260.638438) scale(0.1 -0.1)">
       <use xlink:href="#DejaVuSans-32"/>
       <use xlink:href="#DejaVuSans-35" transform="translate(63.623047 0)"/>
      </g>
     </g>
    </g>
    <g id="xtick_13">
     <g id="line2d_24">
      <g>
       <use xlink:href="#m4b916cedc0" x="545.032523" y="246.04" style="stroke: #000000; stroke-width: 0.8"/>
      </g>
     </g>
     <g id="text_24">
      <!-- 30 -->
      <g transform="translate(538.670023 260.638438) scale(0.1 -0.1)">
       <use xlink:href="#DejaVuSans-33"/>
       <use xlink:href="#DejaVuSans-30" transform="translate(63.623047 0)"/>
      </g>
     </g>
    </g>
    <g id="text_25">
     <!-- Scores -->
     <g transform="translate(435.163046 274.316562) scale(0.1 -0.1)">
      <use xlink:href="#DejaVuSans-53"/>
      <use xlink:href="#DejaVuSans-63" transform="translate(63.476562 0)"/>
      <use xlink:href="#DejaVuSans-6f" transform="translate(118.457031 0)"/>
      <use xlink:href="#DejaVuSans-72" transform="translate(179.638672 0)"/>
      <use xlink:href="#DejaVuSans-65" transform="translate(218.501953 0)"/>
      <use xlink:href="#DejaVuSans-73" transform="translate(280.025391 0)"/>
     </g>
    </g>
   </g>
   <g id="matplotlib.axis_4">
    <g id="ytick_8">
     <g id="line2d_25">
      <g>
       <use xlink:href="#m19f1df53cb" x="338.340154" y="246.04" style="stroke: #000000; stroke-width: 0.8"/>
      </g>
     </g>
     <g id="text_26">
      <!-- 0.000 -->
      <g transform="translate(302.712029 249.839219) scale(0.1 -0.1)">
       <defs>
        <path id="DejaVuSans-2e" d="M 684 794 
L 1344 794 
L 1344 0 
L 684 0 
L 684 794 
z
" transform="scale(0.015625)"/>
       </defs>
       <use xlink:href="#DejaVuSans-30"/>
       <use xlink:href="#DejaVuSans-2e" transform="translate(63.623047 0)"/>
       <use xlink:href="#DejaVuSans-30" transform="translate(95.410156 0)"/>
       <use xlink:href="#DejaVuSans-30" transform="translate(159.033203 0)"/>
       <use xlink:href="#DejaVuSans-30" transform="translate(222.65625 0)"/>
      </g>
     </g>
    </g>
    <g id="ytick_9">
     <g id="line2d_26">
      <g>
       <use xlink:href="#m19f1df53cb" x="338.340154" y="218.723112" style="stroke: #000000; stroke-width: 0.8"/>
      </g>
     </g>
     <g id="text_27">
      <!-- 0.025 -->
      <g transform="translate(302.712029 222.522331) scale(0.1 -0.1)">
       <use xlink:href="#DejaVuSans-30"/>
       <use xlink:href="#DejaVuSans-2e" transform="translate(63.623047 0)"/>
       <use xlink:href="#DejaVuSans-30" transform="translate(95.410156 0)"/>
       <use xlink:href="#DejaVuSans-32" transform="translate(159.033203 0)"/>
       <use xlink:href="#DejaVuSans-35" transform="translate(222.65625 0)"/>
      </g>
     </g>
    </g>
    <g id="ytick_10">
     <g id="line2d_27">
      <g>
       <use xlink:href="#m19f1df53cb" x="338.340154" y="191.406224" style="stroke: #000000; stroke-width: 0.8"/>
      </g>
     </g>
     <g id="text_28">
      <!-- 0.050 -->
      <g transform="translate(302.712029 195.205442) scale(0.1 -0.1)">
       <use xlink:href="#DejaVuSans-30"/>
       <use xlink:href="#DejaVuSans-2e" transform="translate(63.623047 0)"/>
       <use xlink:href="#DejaVuSans-30" transform="translate(95.410156 0)"/>
       <use xlink:href="#DejaVuSans-35" transform="translate(159.033203 0)"/>
       <use xlink:href="#DejaVuSans-30" transform="translate(222.65625 0)"/>
      </g>
     </g>
    </g>
    <g id="ytick_11">
     <g id="line2d_28">
      <g>
       <use xlink:href="#m19f1df53cb" x="338.340154" y="164.089335" style="stroke: #000000; stroke-width: 0.8"/>
      </g>
     </g>
     <g id="text_29">
      <!-- 0.075 -->
      <g transform="translate(302.712029 167.888554) scale(0.1 -0.1)">
       <defs>
        <path id="DejaVuSans-37" d="M 525 4666 
L 3525 4666 
L 3525 4397 
L 1831 0 
L 1172 0 
L 2766 4134 
L 525 4134 
L 525 4666 
z
" transform="scale(0.015625)"/>
       </defs>
       <use xlink:href="#DejaVuSans-30"/>
       <use xlink:href="#DejaVuSans-2e" transform="translate(63.623047 0)"/>
       <use xlink:href="#DejaVuSans-30" transform="translate(95.410156 0)"/>
       <use xlink:href="#DejaVuSans-37" transform="translate(159.033203 0)"/>
       <use xlink:href="#DejaVuSans-35" transform="translate(222.65625 0)"/>
      </g>
     </g>
    </g>
    <g id="ytick_12">
     <g id="line2d_29">
      <g>
       <use xlink:href="#m19f1df53cb" x="338.340154" y="136.772447" style="stroke: #000000; stroke-width: 0.8"/>
      </g>
     </g>
     <g id="text_30">
      <!-- 0.100 -->
      <g transform="translate(302.712029 140.571666) scale(0.1 -0.1)">
       <use xlink:href="#DejaVuSans-30"/>
       <use xlink:href="#DejaVuSans-2e" transform="translate(63.623047 0)"/>
       <use xlink:href="#DejaVuSans-31" transform="translate(95.410156 0)"/>
       <use xlink:href="#DejaVuSans-30" transform="translate(159.033203 0)"/>
       <use xlink:href="#DejaVuSans-30" transform="translate(222.65625 0)"/>
      </g>
     </g>
    </g>
    <g id="ytick_13">
     <g id="line2d_30">
      <g>
       <use xlink:href="#m19f1df53cb" x="338.340154" y="109.455559" style="stroke: #000000; stroke-width: 0.8"/>
      </g>
     </g>
     <g id="text_31">
      <!-- 0.125 -->
      <g transform="translate(302.712029 113.254778) scale(0.1 -0.1)">
       <use xlink:href="#DejaVuSans-30"/>
       <use xlink:href="#DejaVuSans-2e" transform="translate(63.623047 0)"/>
       <use xlink:href="#DejaVuSans-31" transform="translate(95.410156 0)"/>
       <use xlink:href="#DejaVuSans-32" transform="translate(159.033203 0)"/>
       <use xlink:href="#DejaVuSans-35" transform="translate(222.65625 0)"/>
      </g>
     </g>
    </g>
    <g id="ytick_14">
     <g id="line2d_31">
      <g>
       <use xlink:href="#m19f1df53cb" x="338.340154" y="82.138671" style="stroke: #000000; stroke-width: 0.8"/>
      </g>
     </g>
     <g id="text_32">
      <!-- 0.150 -->
      <g transform="translate(302.712029 85.937889) scale(0.1 -0.1)">
       <use xlink:href="#DejaVuSans-30"/>
       <use xlink:href="#DejaVuSans-2e" transform="translate(63.623047 0)"/>
       <use xlink:href="#DejaVuSans-31" transform="translate(95.410156 0)"/>
       <use xlink:href="#DejaVuSans-35" transform="translate(159.033203 0)"/>
       <use xlink:href="#DejaVuSans-30" transform="translate(222.65625 0)"/>
      </g>
     </g>
    </g>
    <g id="ytick_15">
     <g id="line2d_32">
      <g>
       <use xlink:href="#m19f1df53cb" x="338.340154" y="54.821782" style="stroke: #000000; stroke-width: 0.8"/>
      </g>
     </g>
     <g id="text_33">
      <!-- 0.175 -->
      <g transform="translate(302.712029 58.621001) scale(0.1 -0.1)">
       <use xlink:href="#DejaVuSans-30"/>
       <use xlink:href="#DejaVuSans-2e" transform="translate(63.623047 0)"/>
       <use xlink:href="#DejaVuSans-31" transform="translate(95.410156 0)"/>
       <use xlink:href="#DejaVuSans-37" transform="translate(159.033203 0)"/>
       <use xlink:href="#DejaVuSans-35" transform="translate(222.65625 0)"/>
      </g>
     </g>
    </g>
    <g id="text_34">
     <!-- Density -->
     <g transform="translate(296.632341 159.404219) rotate(-90) scale(0.1 -0.1)">
      <defs>
       <path id="DejaVuSans-6e" d="M 3513 2113 
L 3513 0 
L 2938 0 
L 2938 2094 
Q 2938 2591 2744 2837 
Q 2550 3084 2163 3084 
Q 1697 3084 1428 2787 
Q 1159 2491 1159 1978 
L 1159 0 
L 581 0 
L 581 3500 
L 1159 3500 
L 1159 2956 
Q 1366 3272 1645 3428 
Q 1925 3584 2291 3584 
Q 2894 3584 3203 3211 
Q 3513 2838 3513 2113 
z
" transform="scale(0.015625)"/>
       <path id="DejaVuSans-69" d="M 603 3500 
L 1178 3500 
L 1178 0 
L 603 0 
L 603 3500 
z
M 603 4863 
L 1178 4863 
L 1178 4134 
L 603 4134 
L 603 4863 
z
" transform="scale(0.015625)"/>
       <path id="DejaVuSans-74" d="M 1172 4494 
L 1172 3500 
L 2356 3500 
L 2356 3053 
L 1172 3053 
L 1172 1153 
Q 1172 725 1289 603 
Q 1406 481 1766 481 
L 2356 481 
L 2356 0 
L 1766 0 
Q 1100 0 847 248 
Q 594 497 594 1153 
L 594 3053 
L 172 3053 
L 172 3500 
L 594 3500 
L 594 4494 
L 1172 4494 
z
" transform="scale(0.015625)"/>
       <path id="DejaVuSans-79" d="M 2059 -325 
Q 1816 -950 1584 -1140 
Q 1353 -1331 966 -1331 
L 506 -1331 
L 506 -850 
L 844 -850 
Q 1081 -850 1212 -737 
Q 1344 -625 1503 -206 
L 1606 56 
L 191 3500 
L 800 3500 
L 1894 763 
L 2988 3500 
L 3597 3500 
L 2059 -325 
z
" transform="scale(0.015625)"/>
      </defs>
      <use xlink:href="#DejaVuSans-44"/>
      <use xlink:href="#DejaVuSans-65" transform="translate(77.001953 0)"/>
      <use xlink:href="#DejaVuSans-6e" transform="translate(138.525391 0)"/>
      <use xlink:href="#DejaVuSans-73" transform="translate(201.904297 0)"/>
      <use xlink:href="#DejaVuSans-69" transform="translate(254.003906 0)"/>
      <use xlink:href="#DejaVuSans-74" transform="translate(281.787109 0)"/>
      <use xlink:href="#DejaVuSans-79" transform="translate(320.996094 0)"/>
     </g>
    </g>
   </g>
   <g id="patch_59">
    <path d="M 338.340154 246.04 
L 338.340154 34.75125 
" style="fill: none; stroke: #000000; stroke-width: 0.8; stroke-linejoin: miter; stroke-linecap: square"/>
   </g>
   <g id="patch_60">
    <path d="M 565.2 246.04 
L 565.2 34.75125 
" style="fill: none; stroke: #000000; stroke-width: 0.8; stroke-linejoin: miter; stroke-linecap: square"/>
   </g>
   <g id="patch_61">
    <path d="M 338.340154 246.04 
L 565.2 246.04 
" style="fill: none; stroke: #000000; stroke-width: 0.8; stroke-linejoin: miter; stroke-linecap: square"/>
   </g>
   <g id="patch_62">
    <path d="M 338.340154 34.75125 
L 565.2 34.75125 
" style="fill: none; stroke: #000000; stroke-width: 0.8; stroke-linejoin: miter; stroke-linecap: square"/>
   </g>
   <g id="legend_2">
    <g id="patch_63">
     <path d="M 458.010937 72.1075 
L 558.2 72.1075 
Q 560.2 72.1075 560.2 70.1075 
L 560.2 41.75125 
Q 560.2 39.75125 558.2 39.75125 
L 458.010937 39.75125 
Q 456.010937 39.75125 456.010937 41.75125 
L 456.010937 70.1075 
Q 456.010937 72.1075 458.010937 72.1075 
z
" style="fill: #ffffff; opacity: 0.8; stroke: #cccccc; stroke-linejoin: miter"/>
    </g>
    <g id="patch_64">
     <path d="M 460.010937 51.349687 
L 480.010937 51.349687 
L 480.010937 44.349687 
L 460.010937 44.349687 
z
" style="fill: #1f77b4; opacity: 0.5"/>
    </g>
    <g id="text_35">
     <!-- ID samples -->
     <g transform="translate(488.010937 51.349687) scale(0.1 -0.1)">
      <use xlink:href="#DejaVuSans-49"/>
      <use xlink:href="#DejaVuSans-44" transform="translate(29.492188 0)"/>
      <use xlink:href="#DejaVuSans-20" transform="translate(106.494141 0)"/>
      <use xlink:href="#DejaVuSans-73" transform="translate(138.28125 0)"/>
      <use xlink:href="#DejaVuSans-61" transform="translate(190.380859 0)"/>
      <use xlink:href="#DejaVuSans-6d" transform="translate(251.660156 0)"/>
      <use xlink:href="#DejaVuSans-70" transform="translate(349.072266 0)"/>
      <use xlink:href="#DejaVuSans-6c" transform="translate(412.548828 0)"/>
      <use xlink:href="#DejaVuSans-65" transform="translate(440.332031 0)"/>
      <use xlink:href="#DejaVuSans-73" transform="translate(501.855469 0)"/>
     </g>
    </g>
    <g id="patch_65">
     <path d="M 460.010937 66.027812 
L 480.010937 66.027812 
L 480.010937 59.027812 
L 460.010937 59.027812 
z
" style="fill: #ff7f0e; opacity: 0.5"/>
    </g>
    <g id="text_36">
     <!-- OOD samples -->
     <g transform="translate(488.010937 66.027812) scale(0.1 -0.1)">
      <use xlink:href="#DejaVuSans-4f"/>
      <use xlink:href="#DejaVuSans-4f" transform="translate(78.710938 0)"/>
      <use xlink:href="#DejaVuSans-44" transform="translate(157.421875 0)"/>
      <use xlink:href="#DejaVuSans-20" transform="translate(234.423828 0)"/>
      <use xlink:href="#DejaVuSans-73" transform="translate(266.210938 0)"/>
      <use xlink:href="#DejaVuSans-61" transform="translate(318.310547 0)"/>
      <use xlink:href="#DejaVuSans-6d" transform="translate(379.589844 0)"/>
      <use xlink:href="#DejaVuSans-70" transform="translate(477.001953 0)"/>
      <use xlink:href="#DejaVuSans-6c" transform="translate(540.478516 0)"/>
      <use xlink:href="#DejaVuSans-65" transform="translate(568.261719 0)"/>
      <use xlink:href="#DejaVuSans-73" transform="translate(629.785156 0)"/>
     </g>
    </g>
   </g>
  </g>
  <g id="text_37">
   <!-- Scores using max_logit -->
   <g transform="translate(218.8125 14.878125) scale(0.12 -0.12)">
    <defs>
     <path id="DejaVuSans-75" d="M 544 1381 
L 544 3500 
L 1119 3500 
L 1119 1403 
Q 1119 906 1312 657 
Q 1506 409 1894 409 
Q 2359 409 2629 706 
Q 2900 1003 2900 1516 
L 2900 3500 
L 3475 3500 
L 3475 0 
L 2900 0 
L 2900 538 
Q 2691 219 2414 64 
Q 2138 -91 1772 -91 
Q 1169 -91 856 284 
Q 544 659 544 1381 
z
M 1991 3584 
L 1991 3584 
z
" transform="scale(0.015625)"/>
     <path id="DejaVuSans-67" d="M 2906 1791 
Q 2906 2416 2648 2759 
Q 2391 3103 1925 3103 
Q 1463 3103 1205 2759 
Q 947 2416 947 1791 
Q 947 1169 1205 825 
Q 1463 481 1925 481 
Q 2391 481 2648 825 
Q 2906 1169 2906 1791 
z
M 3481 434 
Q 3481 -459 3084 -895 
Q 2688 -1331 1869 -1331 
Q 1566 -1331 1297 -1286 
Q 1028 -1241 775 -1147 
L 775 -588 
Q 1028 -725 1275 -790 
Q 1522 -856 1778 -856 
Q 2344 -856 2625 -561 
Q 2906 -266 2906 331 
L 2906 616 
Q 2728 306 2450 153 
Q 2172 0 1784 0 
Q 1141 0 747 490 
Q 353 981 353 1791 
Q 353 2603 747 3093 
Q 1141 3584 1784 3584 
Q 2172 3584 2450 3431 
Q 2728 3278 2906 2969 
L 2906 3500 
L 3481 3500 
L 3481 434 
z
" transform="scale(0.015625)"/>
     <path id="DejaVuSans-78" d="M 3513 3500 
L 2247 1797 
L 3578 0 
L 2900 0 
L 1881 1375 
L 863 0 
L 184 0 
L 1544 1831 
L 300 3500 
L 978 3500 
L 1906 2253 
L 2834 3500 
L 3513 3500 
z
" transform="scale(0.015625)"/>
     <path id="DejaVuSans-5f" d="M 3263 -1063 
L 3263 -1509 
L -63 -1509 
L -63 -1063 
L 3263 -1063 
z
" transform="scale(0.015625)"/>
    </defs>
    <use xlink:href="#DejaVuSans-53"/>
    <use xlink:href="#DejaVuSans-63" transform="translate(63.476562 0)"/>
    <use xlink:href="#DejaVuSans-6f" transform="translate(118.457031 0)"/>
    <use xlink:href="#DejaVuSans-72" transform="translate(179.638672 0)"/>
    <use xlink:href="#DejaVuSans-65" transform="translate(218.501953 0)"/>
    <use xlink:href="#DejaVuSans-73" transform="translate(280.025391 0)"/>
    <use xlink:href="#DejaVuSans-20" transform="translate(332.125 0)"/>
    <use xlink:href="#DejaVuSans-75" transform="translate(363.912109 0)"/>
    <use xlink:href="#DejaVuSans-73" transform="translate(427.291016 0)"/>
    <use xlink:href="#DejaVuSans-69" transform="translate(479.390625 0)"/>
    <use xlink:href="#DejaVuSans-6e" transform="translate(507.173828 0)"/>
    <use xlink:href="#DejaVuSans-67" transform="translate(570.552734 0)"/>
    <use xlink:href="#DejaVuSans-20" transform="translate(634.029297 0)"/>
    <use xlink:href="#DejaVuSans-6d" transform="translate(665.816406 0)"/>
    <use xlink:href="#DejaVuSans-61" transform="translate(763.228516 0)"/>
    <use xlink:href="#DejaVuSans-78" transform="translate(824.507812 0)"/>
    <use xlink:href="#DejaVuSans-5f" transform="translate(883.6875 0)"/>
    <use xlink:href="#DejaVuSans-6c" transform="translate(933.6875 0)"/>
    <use xlink:href="#DejaVuSans-6f" transform="translate(961.470703 0)"/>
    <use xlink:href="#DejaVuSans-67" transform="translate(1022.652344 0)"/>
    <use xlink:href="#DejaVuSans-69" transform="translate(1086.128906 0)"/>
    <use xlink:href="#DejaVuSans-74" transform="translate(1113.912109 0)"/>
   </g>
  </g>
 </g>
 <defs>
  <clipPath id="p23fb07b50e">
   <rect x="44.57" y="34.75125" width="226.859846" height="211.28875"/>
  </clipPath>
  <clipPath id="pfe9d2bea4b">
   <rect x="338.340154" y="34.75125" width="226.859846" height="211.28875"/>
  </clipPath>
 </defs>
</svg>
