<?xml version="1.0" encoding="utf-8" standalone="no"?>
<!DOCTYPE svg PUBLIC "-//W3C//DTD SVG 1.1//EN"
  "http://www.w3.org/Graphics/SVG/1.1/DTD/svg11.dtd">
<svg xmlns:xlink="http://www.w3.org/1999/xlink" width="576pt" height="288pt" viewBox="0 0 576 288" xmlns="http://www.w3.org/2000/svg" version="1.1">
 <metadata>
  <rdf:RDF xmlns:dc="http://purl.org/dc/elements/1.1/" xmlns:cc="http://creativecommons.org/ns#" xmlns:rdf="http://www.w3.org/1999/02/22-rdf-syntax-ns#">
   <cc:Work>
    <dc:type rdf:resource="http://purl.org/dc/dcmitype/StillImage"/>
    <dc:date>2025-05-31T21:02:07.278718</dc:date>
    <dc:format>image/svg+xml</dc:format>
    <dc:creator>
     <cc:Agent>
      <dc:title>Matplotlib v3.10.1, https://matplotlib.org/</dc:title>
     </cc:Agent>
    </dc:creator>
   </cc:Work>
  </rdf:RDF>
 </metadata>
 <defs>
  <style type="text/css">*{stroke-linejoin: round; stroke-linecap: butt}</style>
 </defs>
 <g id="figure_1">
  <g id="patch_1">
   <path d="M 0 288 
L 576 288 
L 576 0 
L 0 0 
z
" style="fill: #ffffff"/>
  </g>
  <g id="axes_1">
   <g id="patch_2">
    <path d="M 47.72 246.04 
L 280.879846 246.04 
L 280.879846 34.75125 
L 47.72 34.75125 
z
" style="fill: #ffffff"/>
   </g>
   <g id="matplotlib.axis_1">
    <g id="xtick_1">
     <g id="line2d_1">
      <defs>
       <path id="mf21d382170" d="M 0 0 
L 0 3.5 
" style="stroke: #000000; stroke-width: 0.8"/>
      </defs>
      <g>
       <use xlink:href="#mf21d382170" x="58.318175" y="246.04" style="stroke: #000000; stroke-width: 0.8"/>
      </g>
     </g>
     <g id="text_1">
      <!-- 0 -->
      <g transform="translate(55.136925 260.638438) scale(0.1 -0.1)">
       <defs>
        <path id="DejaVuSans-30" d="M 2034 4250 
Q 1547 4250 1301 3770 
Q 1056 3291 1056 2328 
Q 1056 1369 1301 889 
Q 1547 409 2034 409 
Q 2525 409 2770 889 
Q 3016 1369 3016 2328 
Q 3016 3291 2770 3770 
Q 2525 4250 2034 4250 
z
M 2034 4750 
Q 2819 4750 3233 4129 
Q 3647 3509 3647 2328 
Q 3647 1150 3233 529 
Q 2819 -91 2034 -91 
Q 1250 -91 836 529 
Q 422 1150 422 2328 
Q 422 3509 836 4129 
Q 1250 4750 2034 4750 
z
" transform="scale(0.015625)"/>
       </defs>
       <use xlink:href="#DejaVuSans-30"/>
      </g>
     </g>
    </g>
    <g id="xtick_2">
     <g id="line2d_2">
      <g>
       <use xlink:href="#mf21d382170" x="100.715114" y="246.04" style="stroke: #000000; stroke-width: 0.8"/>
      </g>
     </g>
     <g id="text_2">
      <!-- 2000 -->
      <g transform="translate(87.990114 260.638438) scale(0.1 -0.1)">
       <defs>
        <path id="DejaVuSans-32" d="M 1228 531 
L 3431 531 
L 3431 0 
L 469 0 
L 469 531 
Q 828 903 1448 1529 
Q 2069 2156 2228 2338 
Q 2531 2678 2651 2914 
Q 2772 3150 2772 3378 
Q 2772 3750 2511 3984 
Q 2250 4219 1831 4219 
Q 1534 4219 1204 4116 
Q 875 4013 500 3803 
L 500 4441 
Q 881 4594 1212 4672 
Q 1544 4750 1819 4750 
Q 2544 4750 2975 4387 
Q 3406 4025 3406 3419 
Q 3406 3131 3298 2873 
Q 3191 2616 2906 2266 
Q 2828 2175 2409 1742 
Q 1991 1309 1228 531 
z
" transform="scale(0.015625)"/>
       </defs>
       <use xlink:href="#DejaVuSans-32"/>
       <use xlink:href="#DejaVuSans-30" transform="translate(63.623047 0)"/>
       <use xlink:href="#DejaVuSans-30" transform="translate(127.246094 0)"/>
       <use xlink:href="#DejaVuSans-30" transform="translate(190.869141 0)"/>
      </g>
     </g>
    </g>
    <g id="xtick_3">
     <g id="line2d_3">
      <g>
       <use xlink:href="#mf21d382170" x="143.112053" y="246.04" style="stroke: #000000; stroke-width: 0.8"/>
      </g>
     </g>
     <g id="text_3">
      <!-- 4000 -->
      <g transform="translate(130.387053 260.638438) scale(0.1 -0.1)">
       <defs>
        <path id="DejaVuSans-34" d="M 2419 4116 
L 825 1625 
L 2419 1625 
L 2419 4116 
z
M 2253 4666 
L 3047 4666 
L 3047 1625 
L 3713 1625 
L 3713 1100 
L 3047 1100 
L 3047 0 
L 2419 0 
L 2419 1100 
L 313 1100 
L 313 1709 
L 2253 4666 
z
" transform="scale(0.015625)"/>
       </defs>
       <use xlink:href="#DejaVuSans-34"/>
       <use xlink:href="#DejaVuSans-30" transform="translate(63.623047 0)"/>
       <use xlink:href="#DejaVuSans-30" transform="translate(127.246094 0)"/>
       <use xlink:href="#DejaVuSans-30" transform="translate(190.869141 0)"/>
      </g>
     </g>
    </g>
    <g id="xtick_4">
     <g id="line2d_4">
      <g>
       <use xlink:href="#mf21d382170" x="185.508992" y="246.04" style="stroke: #000000; stroke-width: 0.8"/>
      </g>
     </g>
     <g id="text_4">
      <!-- 6000 -->
      <g transform="translate(172.783992 260.638438) scale(0.1 -0.1)">
       <defs>
        <path id="DejaVuSans-36" d="M 2113 2584 
Q 1688 2584 1439 2293 
Q 1191 2003 1191 1497 
Q 1191 994 1439 701 
Q 1688 409 2113 409 
Q 2538 409 2786 701 
Q 3034 994 3034 1497 
Q 3034 2003 2786 2293 
Q 2538 2584 2113 2584 
z
M 3366 4563 
L 3366 3988 
Q 3128 4100 2886 4159 
Q 2644 4219 2406 4219 
Q 1781 4219 1451 3797 
Q 1122 3375 1075 2522 
Q 1259 2794 1537 2939 
Q 1816 3084 2150 3084 
Q 2853 3084 3261 2657 
Q 3669 2231 3669 1497 
Q 3669 778 3244 343 
Q 2819 -91 2113 -91 
Q 1303 -91 875 529 
Q 447 1150 447 2328 
Q 447 3434 972 4092 
Q 1497 4750 2381 4750 
Q 2619 4750 2861 4703 
Q 3103 4656 3366 4563 
z
" transform="scale(0.015625)"/>
       </defs>
       <use xlink:href="#DejaVuSans-36"/>
       <use xlink:href="#DejaVuSans-30" transform="translate(63.623047 0)"/>
       <use xlink:href="#DejaVuSans-30" transform="translate(127.246094 0)"/>
       <use xlink:href="#DejaVuSans-30" transform="translate(190.869141 0)"/>
      </g>
     </g>
    </g>
    <g id="xtick_5">
     <g id="line2d_5">
      <g>
       <use xlink:href="#mf21d382170" x="227.905931" y="246.04" style="stroke: #000000; stroke-width: 0.8"/>
      </g>
     </g>
     <g id="text_5">
      <!-- 8000 -->
      <g transform="translate(215.180931 260.638438) scale(0.1 -0.1)">
       <defs>
        <path id="DejaVuSans-38" d="M 2034 2216 
Q 1584 2216 1326 1975 
Q 1069 1734 1069 1313 
Q 1069 891 1326 650 
Q 1584 409 2034 409 
Q 2484 409 2743 651 
Q 3003 894 3003 1313 
Q 3003 1734 2745 1975 
Q 2488 2216 2034 2216 
z
M 1403 2484 
Q 997 2584 770 2862 
Q 544 3141 544 3541 
Q 544 4100 942 4425 
Q 1341 4750 2034 4750 
Q 2731 4750 3128 4425 
Q 3525 4100 3525 3541 
Q 3525 3141 3298 2862 
Q 3072 2584 2669 2484 
Q 3125 2378 3379 2068 
Q 3634 1759 3634 1313 
Q 3634 634 3220 271 
Q 2806 -91 2034 -91 
Q 1263 -91 848 271 
Q 434 634 434 1313 
Q 434 1759 690 2068 
Q 947 2378 1403 2484 
z
M 1172 3481 
Q 1172 3119 1398 2916 
Q 1625 2713 2034 2713 
Q 2441 2713 2670 2916 
Q 2900 3119 2900 3481 
Q 2900 3844 2670 4047 
Q 2441 4250 2034 4250 
Q 1625 4250 1398 4047 
Q 1172 3844 1172 3481 
z
" transform="scale(0.015625)"/>
       </defs>
       <use xlink:href="#DejaVuSans-38"/>
       <use xlink:href="#DejaVuSans-30" transform="translate(63.623047 0)"/>
       <use xlink:href="#DejaVuSans-30" transform="translate(127.246094 0)"/>
       <use xlink:href="#DejaVuSans-30" transform="translate(190.869141 0)"/>
      </g>
     </g>
    </g>
    <g id="xtick_6">
     <g id="line2d_6">
      <g>
       <use xlink:href="#mf21d382170" x="270.30287" y="246.04" style="stroke: #000000; stroke-width: 0.8"/>
      </g>
     </g>
     <g id="text_6">
      <!-- 10000 -->
      <g transform="translate(254.39662 260.638438) scale(0.1 -0.1)">
       <defs>
        <path id="DejaVuSans-31" d="M 794 531 
L 1825 531 
L 1825 4091 
L 703 3866 
L 703 4441 
L 1819 4666 
L 2450 4666 
L 2450 531 
L 3481 531 
L 3481 0 
L 794 0 
L 794 531 
z
" transform="scale(0.015625)"/>
       </defs>
       <use xlink:href="#DejaVuSans-31"/>
       <use xlink:href="#DejaVuSans-30" transform="translate(63.623047 0)"/>
       <use xlink:href="#DejaVuSans-30" transform="translate(127.246094 0)"/>
       <use xlink:href="#DejaVuSans-30" transform="translate(190.869141 0)"/>
       <use xlink:href="#DejaVuSans-30" transform="translate(254.492188 0)"/>
      </g>
     </g>
    </g>
    <g id="text_7">
     <!-- Ordered samples -->
     <g transform="translate(121.578829 274.316562) scale(0.1 -0.1)">
      <defs>
       <path id="DejaVuSans-4f" d="M 2522 4238 
Q 1834 4238 1429 3725 
Q 1025 3213 1025 2328 
Q 1025 1447 1429 934 
Q 1834 422 2522 422 
Q 3209 422 3611 934 
Q 4013 1447 4013 2328 
Q 4013 3213 3611 3725 
Q 3209 4238 2522 4238 
z
M 2522 4750 
Q 3503 4750 4090 4092 
Q 4678 3434 4678 2328 
Q 4678 1225 4090 567 
Q 3503 -91 2522 -91 
Q 1538 -91 948 565 
Q 359 1222 359 2328 
Q 359 3434 948 4092 
Q 1538 4750 2522 4750 
z
" transform="scale(0.015625)"/>
       <path id="DejaVuSans-72" d="M 2631 2963 
Q 2534 3019 2420 3045 
Q 2306 3072 2169 3072 
Q 1681 3072 1420 2755 
Q 1159 2438 1159 1844 
L 1159 0 
L 581 0 
L 581 3500 
L 1159 3500 
L 1159 2956 
Q 1341 3275 1631 3429 
Q 1922 3584 2338 3584 
Q 2397 3584 2469 3576 
Q 2541 3569 2628 3553 
L 2631 2963 
z
" transform="scale(0.015625)"/>
       <path id="DejaVuSans-64" d="M 2906 2969 
L 2906 4863 
L 3481 4863 
L 3481 0 
L 2906 0 
L 2906 525 
Q 2725 213 2448 61 
Q 2172 -91 1784 -91 
Q 1150 -91 751 415 
Q 353 922 353 1747 
Q 353 2572 751 3078 
Q 1150 3584 1784 3584 
Q 2172 3584 2448 3432 
Q 2725 3281 2906 2969 
z
M 947 1747 
Q 947 1113 1208 752 
Q 1469 391 1925 391 
Q 2381 391 2643 752 
Q 2906 1113 2906 1747 
Q 2906 2381 2643 2742 
Q 2381 3103 1925 3103 
Q 1469 3103 1208 2742 
Q 947 2381 947 1747 
z
" transform="scale(0.015625)"/>
       <path id="DejaVuSans-65" d="M 3597 1894 
L 3597 1613 
L 953 1613 
Q 991 1019 1311 708 
Q 1631 397 2203 397 
Q 2534 397 2845 478 
Q 3156 559 3463 722 
L 3463 178 
Q 3153 47 2828 -22 
Q 2503 -91 2169 -91 
Q 1331 -91 842 396 
Q 353 884 353 1716 
Q 353 2575 817 3079 
Q 1281 3584 2069 3584 
Q 2775 3584 3186 3129 
Q 3597 2675 3597 1894 
z
M 3022 2063 
Q 3016 2534 2758 2815 
Q 2500 3097 2075 3097 
Q 1594 3097 1305 2825 
Q 1016 2553 972 2059 
L 3022 2063 
z
" transform="scale(0.015625)"/>
       <path id="DejaVuSans-20" transform="scale(0.015625)"/>
       <path id="DejaVuSans-73" d="M 2834 3397 
L 2834 2853 
Q 2591 2978 2328 3040 
Q 2066 3103 1784 3103 
Q 1356 3103 1142 2972 
Q 928 2841 928 2578 
Q 928 2378 1081 2264 
Q 1234 2150 1697 2047 
L 1894 2003 
Q 2506 1872 2764 1633 
Q 3022 1394 3022 966 
Q 3022 478 2636 193 
Q 2250 -91 1575 -91 
Q 1294 -91 989 -36 
Q 684 19 347 128 
L 347 722 
Q 666 556 975 473 
Q 1284 391 1588 391 
Q 1994 391 2212 530 
Q 2431 669 2431 922 
Q 2431 1156 2273 1281 
Q 2116 1406 1581 1522 
L 1381 1569 
Q 847 1681 609 1914 
Q 372 2147 372 2553 
Q 372 3047 722 3315 
Q 1072 3584 1716 3584 
Q 2034 3584 2315 3537 
Q 2597 3491 2834 3397 
z
" transform="scale(0.015625)"/>
       <path id="DejaVuSans-61" d="M 2194 1759 
Q 1497 1759 1228 1600 
Q 959 1441 959 1056 
Q 959 750 1161 570 
Q 1363 391 1709 391 
Q 2188 391 2477 730 
Q 2766 1069 2766 1631 
L 2766 1759 
L 2194 1759 
z
M 3341 1997 
L 3341 0 
L 2766 0 
L 2766 531 
Q 2569 213 2275 61 
Q 1981 -91 1556 -91 
Q 1019 -91 701 211 
Q 384 513 384 1019 
Q 384 1609 779 1909 
Q 1175 2209 1959 2209 
L 2766 2209 
L 2766 2266 
Q 2766 2663 2505 2880 
Q 2244 3097 1772 3097 
Q 1472 3097 1187 3025 
Q 903 2953 641 2809 
L 641 3341 
Q 956 3463 1253 3523 
Q 1550 3584 1831 3584 
Q 2591 3584 2966 3190 
Q 3341 2797 3341 1997 
z
" transform="scale(0.015625)"/>
       <path id="DejaVuSans-6d" d="M 3328 2828 
Q 3544 3216 3844 3400 
Q 4144 3584 4550 3584 
Q 5097 3584 5394 3201 
Q 5691 2819 5691 2113 
L 5691 0 
L 5113 0 
L 5113 2094 
Q 5113 2597 4934 2840 
Q 4756 3084 4391 3084 
Q 3944 3084 3684 2787 
Q 3425 2491 3425 1978 
L 3425 0 
L 2847 0 
L 2847 2094 
Q 2847 2600 2669 2842 
Q 2491 3084 2119 3084 
Q 1678 3084 1418 2786 
Q 1159 2488 1159 1978 
L 1159 0 
L 581 0 
L 581 3500 
L 1159 3500 
L 1159 2956 
Q 1356 3278 1631 3431 
Q 1906 3584 2284 3584 
Q 2666 3584 2933 3390 
Q 3200 3197 3328 2828 
z
" transform="scale(0.015625)"/>
       <path id="DejaVuSans-70" d="M 1159 525 
L 1159 -1331 
L 581 -1331 
L 581 3500 
L 1159 3500 
L 1159 2969 
Q 1341 3281 1617 3432 
Q 1894 3584 2278 3584 
Q 2916 3584 3314 3078 
Q 3713 2572 3713 1747 
Q 3713 922 3314 415 
Q 2916 -91 2278 -91 
Q 1894 -91 1617 61 
Q 1341 213 1159 525 
z
M 3116 1747 
Q 3116 2381 2855 2742 
Q 2594 3103 2138 3103 
Q 1681 3103 1420 2742 
Q 1159 2381 1159 1747 
Q 1159 1113 1420 752 
Q 1681 391 2138 391 
Q 2594 391 2855 752 
Q 3116 1113 3116 1747 
z
" transform="scale(0.015625)"/>
       <path id="DejaVuSans-6c" d="M 603 4863 
L 1178 4863 
L 1178 0 
L 603 0 
L 603 4863 
z
" transform="scale(0.015625)"/>
      </defs>
      <use xlink:href="#DejaVuSans-4f"/>
      <use xlink:href="#DejaVuSans-72" transform="translate(78.710938 0)"/>
      <use xlink:href="#DejaVuSans-64" transform="translate(118.074219 0)"/>
      <use xlink:href="#DejaVuSans-65" transform="translate(181.550781 0)"/>
      <use xlink:href="#DejaVuSans-72" transform="translate(243.074219 0)"/>
      <use xlink:href="#DejaVuSans-65" transform="translate(281.9375 0)"/>
      <use xlink:href="#DejaVuSans-64" transform="translate(343.460938 0)"/>
      <use xlink:href="#DejaVuSans-20" transform="translate(406.9375 0)"/>
      <use xlink:href="#DejaVuSans-73" transform="translate(438.724609 0)"/>
      <use xlink:href="#DejaVuSans-61" transform="translate(490.824219 0)"/>
      <use xlink:href="#DejaVuSans-6d" transform="translate(552.103516 0)"/>
      <use xlink:href="#DejaVuSans-70" transform="translate(649.515625 0)"/>
      <use xlink:href="#DejaVuSans-6c" transform="translate(712.992188 0)"/>
      <use xlink:href="#DejaVuSans-65" transform="translate(740.775391 0)"/>
      <use xlink:href="#DejaVuSans-73" transform="translate(802.298828 0)"/>
     </g>
    </g>
   </g>
   <g id="matplotlib.axis_2">
    <g id="ytick_1">
     <g id="line2d_7">
      <defs>
       <path id="m312698afb9" d="M 0 0 
L -3.5 0 
" style="stroke: #000000; stroke-width: 0.8"/>
      </defs>
      <g>
       <use xlink:href="#m312698afb9" x="47.72" y="228.098075" style="stroke: #000000; stroke-width: 0.8"/>
      </g>
     </g>
     <g id="text_8">
      <!-- 0.2 -->
      <g transform="translate(24.816875 231.897294) scale(0.1 -0.1)">
       <defs>
        <path id="DejaVuSans-2e" d="M 684 794 
L 1344 794 
L 1344 0 
L 684 0 
L 684 794 
z
" transform="scale(0.015625)"/>
       </defs>
       <use xlink:href="#DejaVuSans-30"/>
       <use xlink:href="#DejaVuSans-2e" transform="translate(63.623047 0)"/>
       <use xlink:href="#DejaVuSans-32" transform="translate(95.410156 0)"/>
      </g>
     </g>
    </g>
    <g id="ytick_2">
     <g id="line2d_8">
      <g>
       <use xlink:href="#m312698afb9" x="47.72" y="182.162378" style="stroke: #000000; stroke-width: 0.8"/>
      </g>
     </g>
     <g id="text_9">
      <!-- 0.4 -->
      <g transform="translate(24.816875 185.961596) scale(0.1 -0.1)">
       <use xlink:href="#DejaVuSans-30"/>
       <use xlink:href="#DejaVuSans-2e" transform="translate(63.623047 0)"/>
       <use xlink:href="#DejaVuSans-34" transform="translate(95.410156 0)"/>
      </g>
     </g>
    </g>
    <g id="ytick_3">
     <g id="line2d_9">
      <g>
       <use xlink:href="#m312698afb9" x="47.72" y="136.22668" style="stroke: #000000; stroke-width: 0.8"/>
      </g>
     </g>
     <g id="text_10">
      <!-- 0.6 -->
      <g transform="translate(24.816875 140.025898) scale(0.1 -0.1)">
       <use xlink:href="#DejaVuSans-30"/>
       <use xlink:href="#DejaVuSans-2e" transform="translate(63.623047 0)"/>
       <use xlink:href="#DejaVuSans-36" transform="translate(95.410156 0)"/>
      </g>
     </g>
    </g>
    <g id="ytick_4">
     <g id="line2d_10">
      <g>
       <use xlink:href="#m312698afb9" x="47.72" y="90.290982" style="stroke: #000000; stroke-width: 0.8"/>
      </g>
     </g>
     <g id="text_11">
      <!-- 0.8 -->
      <g transform="translate(24.816875 94.090201) scale(0.1 -0.1)">
       <use xlink:href="#DejaVuSans-30"/>
       <use xlink:href="#DejaVuSans-2e" transform="translate(63.623047 0)"/>
       <use xlink:href="#DejaVuSans-38" transform="translate(95.410156 0)"/>
      </g>
     </g>
    </g>
    <g id="ytick_5">
     <g id="line2d_11">
      <g>
       <use xlink:href="#m312698afb9" x="47.72" y="44.355284" style="stroke: #000000; stroke-width: 0.8"/>
      </g>
     </g>
     <g id="text_12">
      <!-- 1.0 -->
      <g transform="translate(24.816875 48.154503) scale(0.1 -0.1)">
       <use xlink:href="#DejaVuSans-31"/>
       <use xlink:href="#DejaVuSans-2e" transform="translate(63.623047 0)"/>
       <use xlink:href="#DejaVuSans-30" transform="translate(95.410156 0)"/>
      </g>
     </g>
    </g>
    <g id="text_13">
     <!-- Scores -->
     <g transform="translate(18.737187 157.002656) rotate(-90) scale(0.1 -0.1)">
      <defs>
       <path id="DejaVuSans-53" d="M 3425 4513 
L 3425 3897 
Q 3066 4069 2747 4153 
Q 2428 4238 2131 4238 
Q 1616 4238 1336 4038 
Q 1056 3838 1056 3469 
Q 1056 3159 1242 3001 
Q 1428 2844 1947 2747 
L 2328 2669 
Q 3034 2534 3370 2195 
Q 3706 1856 3706 1288 
Q 3706 609 3251 259 
Q 2797 -91 1919 -91 
Q 1588 -91 1214 -16 
Q 841 59 441 206 
L 441 856 
Q 825 641 1194 531 
Q 1563 422 1919 422 
Q 2459 422 2753 634 
Q 3047 847 3047 1241 
Q 3047 1584 2836 1778 
Q 2625 1972 2144 2069 
L 1759 2144 
Q 1053 2284 737 2584 
Q 422 2884 422 3419 
Q 422 4038 858 4394 
Q 1294 4750 2059 4750 
Q 2388 4750 2728 4690 
Q 3069 4631 3425 4513 
z
" transform="scale(0.015625)"/>
       <path id="DejaVuSans-63" d="M 3122 3366 
L 3122 2828 
Q 2878 2963 2633 3030 
Q 2388 3097 2138 3097 
Q 1578 3097 1268 2742 
Q 959 2388 959 1747 
Q 959 1106 1268 751 
Q 1578 397 2138 397 
Q 2388 397 2633 464 
Q 2878 531 3122 666 
L 3122 134 
Q 2881 22 2623 -34 
Q 2366 -91 2075 -91 
Q 1284 -91 818 406 
Q 353 903 353 1747 
Q 353 2603 823 3093 
Q 1294 3584 2113 3584 
Q 2378 3584 2631 3529 
Q 2884 3475 3122 3366 
z
" transform="scale(0.015625)"/>
       <path id="DejaVuSans-6f" d="M 1959 3097 
Q 1497 3097 1228 2736 
Q 959 2375 959 1747 
Q 959 1119 1226 758 
Q 1494 397 1959 397 
Q 2419 397 2687 759 
Q 2956 1122 2956 1747 
Q 2956 2369 2687 2733 
Q 2419 3097 1959 3097 
z
M 1959 3584 
Q 2709 3584 3137 3096 
Q 3566 2609 3566 1747 
Q 3566 888 3137 398 
Q 2709 -91 1959 -91 
Q 1206 -91 779 398 
Q 353 888 353 1747 
Q 353 2609 779 3096 
Q 1206 3584 1959 3584 
z
" transform="scale(0.015625)"/>
      </defs>
      <use xlink:href="#DejaVuSans-53"/>
      <use xlink:href="#DejaVuSans-63" transform="translate(63.476562 0)"/>
      <use xlink:href="#DejaVuSans-6f" transform="translate(118.457031 0)"/>
      <use xlink:href="#DejaVuSans-72" transform="translate(179.638672 0)"/>
      <use xlink:href="#DejaVuSans-65" transform="translate(218.501953 0)"/>
      <use xlink:href="#DejaVuSans-73" transform="translate(280.025391 0)"/>
     </g>
    </g>
   </g>
   <g id="line2d_12">
    <path d="M 58.318175 225.276763 
L 58.487763 220.298193 
L 58.678549 213.996176 
L 59.123717 206.516306 
L 59.166114 206.447514 
L 59.568885 202.49209 
L 59.929259 200.313698 
L 60.056449 199.545899 
L 60.755999 196.463576 
L 60.925587 195.02307 
L 61.201167 194.483523 
L 61.391953 193.980501 
L 61.625136 193.003521 
L 61.837121 191.11248 
L 62.81225 188.354183 
L 62.875846 188.237381 
L 63.427006 185.976076 
L 63.469403 185.817909 
L 63.660189 185.249799 
L 64.190151 184.431587 
L 64.380937 183.94667 
L 64.508128 183.531914 
L 64.550525 183.461363 
L 64.720113 182.945076 
L 65.652845 180.711171 
L 65.843631 180.289707 
L 66.14041 179.468922 
L 66.161609 179.468504 
L 66.288799 179.243312 
L 66.352395 179.167244 
L 66.861158 178.11664 
L 66.988349 177.919943 
L 67.157937 177.481154 
L 67.24273 177.385339 
L 67.433517 177.084496 
L 67.772692 176.307512 
L 67.793891 176.296752 
L 67.94228 175.865307 
L 68.133066 175.626473 
L 68.408646 174.994089 
L 68.49344 174.868922 
L 68.641829 174.323359 
L 68.853814 173.82749 
L 68.938608 173.789254 
L 69.086997 173.389721 
L 69.235387 172.922149 
L 69.383776 172.501835 
L 69.659356 172.052245 
L 69.850142 171.696026 
L 69.934936 171.574145 
L 70.062127 171.334914 
L 70.146921 171.276657 
L 70.29531 170.925257 
L 70.782875 169.748528 
L 70.99486 169.41511 
L 71.185646 168.937093 
L 71.291638 168.820243 
L 71.630814 168.049837 
L 72.245569 166.825542 
L 72.393959 166.489626 
L 72.966317 165.405816 
L 73.07231 165.275085 
L 73.34789 164.851225 
L 73.475081 164.714517 
L 73.708264 164.348922 
L 73.835455 164.255604 
L 74.026241 163.869309 
L 74.238225 163.651339 
L 74.72579 163.066335 
L 74.87418 162.848104 
L 74.958973 162.739926 
L 75.404141 162.115947 
L 75.510134 162.047929 
L 75.743317 161.636431 
L 75.955301 161.457463 
L 76.103691 161.175766 
L 76.167286 161.085987 
L 77.100019 159.639759 
L 77.290805 159.503455 
L 77.439194 159.349101 
L 77.566385 159.195911 
L 77.884362 158.793579 
L 79.113873 157.440879 
L 79.241064 157.301379 
L 79.58024 157.024035 
L 79.792224 156.775673 
L 80.152598 156.381979 
L 80.512972 156.164104 
L 80.68256 155.96215 
L 80.830949 155.817298 
L 81.064133 155.514942 
L 81.466904 155.063422 
L 81.615293 154.828517 
L 82.76001 153.407806 
L 82.887201 153.309909 
L 83.03559 153.14511 
L 83.077987 153.059165 
L 83.289972 152.790638 
L 83.671544 152.41114 
L 83.841132 152.204094 
L 83.968323 152.068591 
L 84.222705 151.604777 
L 84.349895 151.395185 
L 84.498285 151.27047 
L 84.752666 151.043162 
L 85.346223 150.490186 
L 85.515811 150.281018 
L 85.558208 150.182766 
L 85.770193 149.955896 
L 86.406147 149.399183 
L 86.808918 148.909303 
L 87.656857 148.265412 
L 87.868841 148.040966 
L 88.208017 147.752643 
L 88.356406 147.644055 
L 88.462398 147.533002 
L 88.631986 147.341371 
L 88.801574 147.233714 
L 88.99236 146.970621 
L 89.585917 146.319296 
L 89.776704 145.987508 
L 89.861497 145.897113 
L 91.239398 143.766964 
L 91.387787 143.641127 
L 91.557375 143.299673 
L 91.811757 142.947487 
L 92.405314 142.324993 
L 92.702092 141.79288 
L 94.588756 139.380856 
L 94.821939 138.928363 
L 94.991527 138.79731 
L 95.351901 138.395799 
L 95.585084 138.053756 
L 95.818267 137.907329 
L 96.051451 137.621101 
L 96.369428 137.221834 
L 96.623809 136.92156 
L 96.751 136.760485 
L 96.878191 136.524252 
L 97.938114 134.742702 
L 98.362084 134.304666 
L 98.468076 134.211835 
L 98.595267 134.029527 
L 99.273618 133.483724 
L 99.591595 133.027056 
L 100.333541 131.969634 
L 100.566725 131.604894 
L 100.715114 131.467187 
L 100.863503 131.25973 
L 100.948297 131.196086 
L 101.117885 130.769577 
L 101.329869 130.465182 
L 104.149266 127.0494 
L 104.318854 126.855195 
L 104.530838 126.494411 
L 104.615632 126.390601 
L 104.954808 125.940326 
L 105.187991 125.48615 
L 105.484769 125.189134 
L 105.633159 124.878797 
L 106.459899 123.762865 
L 106.629487 123.525947 
L 106.820273 123.324788 
L 106.989861 123.13944 
L 107.159449 122.838687 
L 107.392632 122.603932 
L 107.604616 122.459435 
L 107.986189 122.168867 
L 108.134578 121.942135 
L 108.537349 121.50848 
L 108.66454 121.335508 
L 109.088509 120.666592 
L 109.258097 120.386715 
L 109.554876 119.98122 
L 109.851654 119.557449 
L 110.296822 119.082026 
L 110.487608 118.681405 
L 110.678394 118.532459 
L 110.953975 118.176754 
L 111.123562 117.998977 
L 111.29315 117.85129 
L 111.526333 117.576506 
L 111.611127 117.457144 
L 111.780715 117.230973 
L 111.929104 117.087804 
L 112.183486 116.89004 
L 112.26828 116.790172 
L 112.459066 116.37723 
L 112.692249 116.255485 
L 112.840638 115.990148 
L 112.967829 115.920466 
L 113.116218 115.599205 
L 113.243409 115.501377 
L 113.582585 114.987964 
L 115.914416 111.823146 
L 116.211195 111.458146 
L 116.847149 110.664487 
L 116.931943 110.592834 
L 117.080332 110.376903 
L 117.377111 110.032383 
L 117.631492 109.725894 
L 117.843477 109.477997 
L 118.161454 108.88547 
L 118.966996 108.003348 
L 119.05179 107.924562 
L 119.539355 107.206773 
L 119.666546 107.047902 
L 119.920927 106.72764 
L 120.005721 106.580912 
L 120.238904 106.283772 
L 120.790064 105.6378 
L 120.959652 105.528391 
L 121.256431 105.283355 
L 121.298828 105.273827 
L 121.426019 105.082825 
L 121.595606 105.010036 
L 121.807591 104.736361 
L 122.401148 103.958378 
L 122.634331 103.684552 
L 122.782721 103.479395 
L 123.863843 101.990947 
L 124.097026 101.729045 
L 124.30901 101.432152 
L 124.817774 100.955169 
L 126.068483 99.633436 
L 126.195674 99.354052 
L 126.322865 99.230679 
L 126.598445 98.796449 
L 126.704437 98.706369 
L 126.916422 98.25504 
L 127.149605 98.138758 
L 127.297995 97.950577 
L 127.467582 97.82619 
L 127.552376 97.68424 
L 127.721964 97.524095 
L 127.997544 97.305755 
L 128.124735 97.039048 
L 128.569903 96.512603 
L 128.697094 96.364218 
L 129.078666 95.91241 
L 129.248254 95.818306 
L 129.417842 95.731183 
L 129.545032 95.607796 
L 129.841811 95.249736 
L 130.922933 94.190152 
L 131.092521 94.027474 
L 131.219711 93.936437 
L 131.452895 93.630262 
L 131.537688 93.621322 
L 131.728475 93.178728 
L 131.855666 93.13811 
L 132.025253 92.854797 
L 132.131246 92.765553 
L 132.406826 92.410957 
L 132.661207 92.076909 
L 134.357085 89.953728 
L 134.505474 89.84221 
L 134.971841 89.406502 
L 135.141428 89.242894 
L 135.862176 88.663592 
L 136.031764 88.480051 
L 136.328543 88.106399 
L 136.392138 87.982628 
L 136.64652 87.761975 
L 136.816107 87.668897 
L 137.218878 87.138071 
L 137.791237 86.616308 
L 137.960825 86.419187 
L 138.151611 86.183268 
L 138.342397 86.060908 
L 138.405993 85.978522 
L 138.533183 85.873507 
L 138.681573 85.622941 
L 138.85116 85.497117 
L 139.041947 85.299708 
L 139.27513 85.043844 
L 139.444718 84.859852 
L 139.593107 84.642771 
L 140.038275 84.240972 
L 140.144267 84.14914 
L 140.292656 83.904515 
L 140.356252 83.879572 
L 140.504641 83.463783 
L 140.695427 83.272822 
L 142.073328 82.088207 
L 142.391305 81.73049 
L 142.476099 81.63399 
L 142.794076 81.354031 
L 143.302839 80.890669 
L 143.472427 80.717985 
L 143.769205 80.288943 
L 143.98119 80.114753 
L 145.571075 78.276377 
L 145.698266 78.147212 
L 145.910251 77.970558 
L 146.6098 77.296932 
L 146.715793 77.202226 
L 146.88538 77.051582 
L 147.945304 76.186722 
L 148.093693 76.001128 
L 148.475266 75.588432 
L 148.708449 75.462033 
L 149.619983 74.716467 
L 149.768372 74.410471 
L 150.383128 73.778736 
L 152.184998 72.179618 
L 152.333387 71.945453 
L 153.838478 70.691444 
L 154.09286 70.534106 
L 154.220051 70.292739 
L 154.453234 70.180605 
L 154.686417 69.883192 
L 154.856005 69.774617 
L 155.06799 69.473138 
L 155.301173 69.341386 
L 155.364768 69.248254 
L 155.576753 69.062591 
L 155.958325 68.932236 
L 156.17031 68.816406 
L 157.124241 67.972218 
L 157.336226 67.861768 
L 157.738997 67.544764 
L 158.565737 66.933387 
L 158.714126 66.828467 
L 159.032103 66.660971 
L 159.392477 66.37833 
L 159.77405 66.144191 
L 160.028431 65.92362 
L 160.410004 65.67319 
L 161.130752 65.184652 
L 161.215546 65.074531 
L 161.385134 64.930773 
L 161.660714 64.721783 
L 161.893897 64.615576 
L 162.084683 64.454515 
L 162.423859 64.336207 
L 162.996217 63.982213 
L 163.165805 63.901552 
L 163.335393 63.768815 
L 163.483782 63.658406 
L 164.098538 63.269873 
L 164.543705 62.990201 
L 164.628499 62.882681 
L 164.861683 62.70745 
L 165.434041 62.328911 
L 165.794415 62.1529 
L 168.741002 60.197694 
L 169.080178 60.004283 
L 169.652537 59.495456 
L 170.1613 59.215032 
L 170.373285 59.085649 
L 170.648865 58.964302 
L 171.13643 58.635073 
L 171.518002 58.46729 
L 171.68759 58.331609 
L 172.005567 58.201007 
L 172.196353 58.105986 
L 172.429536 57.922089 
L 172.641521 57.775183 
L 173.06549 57.572107 
L 173.277475 57.453059 
L 173.574253 57.312505 
L 176.245261 55.909796 
L 176.902413 55.579651 
L 182.498809 53.286811 
L 182.731992 53.169748 
L 183.049969 53.049346 
L 183.304351 52.94203 
L 184.131091 52.599345 
L 184.300679 52.473877 
L 184.597458 52.372708 
L 184.851839 52.265037 
L 187.289663 51.398165 
L 187.777228 51.231504 
L 188.349587 51.01482 
L 189.027938 50.776287 
L 189.303518 50.653968 
L 189.812281 50.496 
L 192.228907 49.764289 
L 192.419693 49.682752 
L 192.992052 49.547085 
L 201.238256 47.696004 
L 202.806943 47.388515 
L 203.082523 47.330059 
L 204.269637 47.106188 
L 214.042132 45.910854 
L 215.844002 45.725096 
L 216.585948 45.637481 
L 220.29568 45.319533 
L 221.058825 45.274917 
L 223.602642 45.107161 
L 226.061664 44.979735 
L 226.952 44.93564 
L 229.58061 44.818112 
L 247.556912 44.418244 
L 264.282504 44.356352 
L 270.281671 44.355284 
L 270.281671 44.355284 
" clip-path="url(#p852002ada1)" style="fill: none; stroke: #1f77b4; stroke-width: 1.5; stroke-linecap: square"/>
   </g>
   <g id="line2d_13">
    <path d="M 58.318175 236.435966 
L 58.445366 216.071524 
L 58.614953 211.087393 
L 58.65735 208.527339 
L 58.954129 202.963892 
L 59.017724 202.742725 
L 59.187312 199.64895 
L 59.229709 199.584724 
L 59.823266 195.741769 
L 59.886862 195.208287 
L 60.840793 187.857205 
L 60.989182 187.356388 
L 61.391953 185.79491 
L 61.413151 185.780652 
L 61.70993 183.963564 
L 61.815922 183.311822 
L 61.98551 181.896607 
L 62.027907 181.79114 
L 63.956968 172.635701 
L 65.419662 167.743977 
L 65.462059 167.564317 
L 65.631647 166.87195 
L 65.843631 166.004674 
L 65.992021 165.308851 
L 66.076815 165.170124 
L 66.373593 164.077375 
L 66.564379 163.465177 
L 66.712769 163.189818 
L 66.903555 162.795521 
L 66.988349 162.699254 
L 67.306326 161.766465 
L 67.581906 160.486048 
L 67.645501 160.408125 
L 67.878685 159.447101 
L 68.175463 158.739011 
L 68.21786 158.706689 
L 68.429845 157.755829 
L 68.514639 157.640916 
L 68.578234 157.502347 
L 68.790219 156.892051 
L 68.91741 156.718148 
L 69.298982 154.815594 
L 69.362577 154.706608 
L 69.553364 153.867458 
L 69.638158 153.798406 
L 69.913738 152.038637 
L 69.956135 151.935922 
L 73.475081 139.282083 
L 73.665867 138.277436 
L 73.835455 138.065886 
L 74.344218 136.053538 
L 74.704592 135.337392 
L 75.679721 132.358934 
L 76.188485 130.586653 
L 76.358072 129.816801 
L 76.379271 129.8086 
L 76.548859 129.132196 
L 77.07882 128.339208 
L 77.22721 127.912467 
L 77.439194 127.094591 
L 77.651179 126.650517 
L 77.841965 124.811511 
L 78.499118 122.903714 
L 78.732301 121.712172 
L 78.795896 121.604569 
L 79.007881 120.860016 
L 79.643835 118.671042 
L 79.707431 118.551885 
L 80.300988 116.548545 
L 80.534171 115.382357 
L 80.979339 113.487387 
L 81.148926 112.89497 
L 81.23372 112.654342 
L 81.445705 111.753204 
L 81.784881 110.605032 
L 81.827278 110.524795 
L 82.20885 108.909619 
L 82.272445 108.603143 
L 82.442033 107.593047 
L 82.590422 107.104496 
L 82.781209 106.75235 
L 83.014392 105.71968 
L 83.077987 105.596265 
L 83.565552 104.103545 
L 85.26143 97.552502 
L 85.325025 97.289628 
L 86.36375 92.183513 
L 86.596933 91.465354 
L 87.084498 89.71729 
L 87.232887 89.42167 
L 87.423673 88.682224 
L 87.762849 87.620928 
L 88.229215 86.884726 
L 88.271612 86.832389 
L 88.483597 85.836585 
L 88.547192 85.740961 
L 88.780375 85.227617 
L 88.865169 85.132993 
L 89.310337 83.577135 
L 89.458727 82.663348 
L 90.221871 80.342512 
L 90.412658 79.444372 
L 90.497452 79.32809 
L 90.688238 78.708977 
L 90.79423 78.625455 
L 90.985016 77.944643 
L 92.150932 74.03805 
L 92.299321 73.825857 
L 92.511306 73.009747 
L 92.574902 72.906306 
L 92.765688 72.278733 
L 92.808085 72.138494 
L 92.956474 71.735162 
L 92.977672 71.710548 
L 93.126062 71.231141 
L 93.168459 71.056909 
L 93.57123 69.917061 
L 93.592428 69.912187 
L 93.783214 69.231922 
L 93.995199 68.730748 
L 94.037596 68.711021 
L 94.291978 67.700843 
L 94.313176 67.699967 
L 94.546359 66.866183 
L 94.567558 66.862596 
L 94.737145 66.233929 
L 94.800741 66.109309 
L 95.118718 65.48019 
L 95.542687 63.63631 
L 95.585084 63.490787 
L 96.284634 62.07369 
L 96.433023 61.633559 
L 96.623809 61.117067 
L 97.683733 58.817833 
L 97.85332 58.13546 
L 98.022908 57.809695 
L 98.171297 57.498127 
L 98.404481 57.125912 
L 98.425679 57.118382 
L 98.574068 56.781898 
L 98.764855 56.481514 
L 98.892045 56.253194 
L 98.934442 56.236396 
L 99.10403 55.735784 
L 99.633992 54.878467 
L 99.888374 54.531538 
L 100.036763 54.066328 
L 100.333541 53.646499 
L 100.481931 53.482494 
L 100.545526 53.427187 
L 100.672717 53.099286 
L 100.778709 52.998255 
L 100.969495 52.679759 
L 101.011892 52.616731 
L 101.139083 52.405455 
L 101.223877 52.296592 
L 101.414663 52.056294 
L 101.73264 51.751803 
L 102.410991 50.705442 
L 104.700426 48.182995 
L 104.78522 48.099596 
L 105.039602 47.779389 
L 105.166792 47.632415 
L 105.484769 47.207206 
L 105.61196 47.044885 
L 106.417502 46.537866 
L 107.710609 45.687777 
L 108.028586 45.561077 
L 108.367761 45.302352 
L 108.622143 45.217625 
L 109.2157 44.993699 
L 109.682066 44.841727 
L 109.936448 44.692275 
L 110.212028 44.577718 
L 110.530005 44.51009 
L 111.250753 44.378502 
L 111.29315 44.360212 
L 111.29315 44.360212 
" clip-path="url(#p852002ada1)" style="fill: none; stroke: #ff7f0e; stroke-width: 1.5; stroke-linecap: square"/>
   </g>
   <g id="patch_3">
    <path d="M 47.72 246.04 
L 47.72 34.75125 
" style="fill: none; stroke: #000000; stroke-width: 0.8; stroke-linejoin: miter; stroke-linecap: square"/>
   </g>
   <g id="patch_4">
    <path d="M 280.879846 246.04 
L 280.879846 34.75125 
" style="fill: none; stroke: #000000; stroke-width: 0.8; stroke-linejoin: miter; stroke-linecap: square"/>
   </g>
   <g id="patch_5">
    <path d="M 47.72 246.04 
L 280.879846 246.04 
" style="fill: none; stroke: #000000; stroke-width: 0.8; stroke-linejoin: miter; stroke-linecap: square"/>
   </g>
   <g id="patch_6">
    <path d="M 47.72 34.75125 
L 280.879846 34.75125 
" style="fill: none; stroke: #000000; stroke-width: 0.8; stroke-linejoin: miter; stroke-linecap: square"/>
   </g>
   <g id="legend_1">
    <g id="patch_7">
     <path d="M 173.690784 241.04 
L 273.879846 241.04 
Q 275.879846 241.04 275.879846 239.04 
L 275.879846 210.68375 
Q 275.879846 208.68375 273.879846 208.68375 
L 173.690784 208.68375 
Q 171.690784 208.68375 171.690784 210.68375 
L 171.690784 239.04 
Q 171.690784 241.04 173.690784 241.04 
z
" style="fill: #ffffff; opacity: 0.8; stroke: #cccccc; stroke-linejoin: miter"/>
    </g>
    <g id="line2d_14">
     <path d="M 175.690784 216.782187 
L 185.690784 216.782187 
L 195.690784 216.782187 
" style="fill: none; stroke: #1f77b4; stroke-width: 1.5; stroke-linecap: square"/>
    </g>
    <g id="text_14">
     <!-- ID samples -->
     <g transform="translate(203.690784 220.282187) scale(0.1 -0.1)">
      <defs>
       <path id="DejaVuSans-49" d="M 628 4666 
L 1259 4666 
L 1259 0 
L 628 0 
L 628 4666 
z
" transform="scale(0.015625)"/>
       <path id="DejaVuSans-44" d="M 1259 4147 
L 1259 519 
L 2022 519 
Q 2988 519 3436 956 
Q 3884 1394 3884 2338 
Q 3884 3275 3436 3711 
Q 2988 4147 2022 4147 
L 1259 4147 
z
M 628 4666 
L 1925 4666 
Q 3281 4666 3915 4102 
Q 4550 3538 4550 2338 
Q 4550 1131 3912 565 
Q 3275 0 1925 0 
L 628 0 
L 628 4666 
z
" transform="scale(0.015625)"/>
      </defs>
      <use xlink:href="#DejaVuSans-49"/>
      <use xlink:href="#DejaVuSans-44" transform="translate(29.492188 0)"/>
      <use xlink:href="#DejaVuSans-20" transform="translate(106.494141 0)"/>
      <use xlink:href="#DejaVuSans-73" transform="translate(138.28125 0)"/>
      <use xlink:href="#DejaVuSans-61" transform="translate(190.380859 0)"/>
      <use xlink:href="#DejaVuSans-6d" transform="translate(251.660156 0)"/>
      <use xlink:href="#DejaVuSans-70" transform="translate(349.072266 0)"/>
      <use xlink:href="#DejaVuSans-6c" transform="translate(412.548828 0)"/>
      <use xlink:href="#DejaVuSans-65" transform="translate(440.332031 0)"/>
      <use xlink:href="#DejaVuSans-73" transform="translate(501.855469 0)"/>
     </g>
    </g>
    <g id="line2d_15">
     <path d="M 175.690784 231.460312 
L 185.690784 231.460312 
L 195.690784 231.460312 
" style="fill: none; stroke: #ff7f0e; stroke-width: 1.5; stroke-linecap: square"/>
    </g>
    <g id="text_15">
     <!-- OOD samples -->
     <g transform="translate(203.690784 234.960312) scale(0.1 -0.1)">
      <use xlink:href="#DejaVuSans-4f"/>
      <use xlink:href="#DejaVuSans-4f" transform="translate(78.710938 0)"/>
      <use xlink:href="#DejaVuSans-44" transform="translate(157.421875 0)"/>
      <use xlink:href="#DejaVuSans-20" transform="translate(234.423828 0)"/>
      <use xlink:href="#DejaVuSans-73" transform="translate(266.210938 0)"/>
      <use xlink:href="#DejaVuSans-61" transform="translate(318.310547 0)"/>
      <use xlink:href="#DejaVuSans-6d" transform="translate(379.589844 0)"/>
      <use xlink:href="#DejaVuSans-70" transform="translate(477.001953 0)"/>
      <use xlink:href="#DejaVuSans-6c" transform="translate(540.478516 0)"/>
      <use xlink:href="#DejaVuSans-65" transform="translate(568.261719 0)"/>
      <use xlink:href="#DejaVuSans-73" transform="translate(629.785156 0)"/>
     </g>
    </g>
   </g>
  </g>
  <g id="axes_2">
   <g id="patch_8">
    <path d="M 332.040154 246.04 
L 565.2 246.04 
L 565.2 34.75125 
L 332.040154 34.75125 
z
" style="fill: #ffffff"/>
   </g>
   <g id="patch_9">
    <path d="M 354.952652 246.04 
L 362.93862 246.04 
L 362.93862 245.529659 
L 354.952652 245.529659 
z
" clip-path="url(#p53b45a59aa)" style="fill: #1f77b4; opacity: 0.5"/>
   </g>
   <g id="patch_10">
    <path d="M 362.93862 246.04 
L 370.924584 246.04 
L 370.924584 245.42759 
L 362.93862 245.42759 
z
" clip-path="url(#p53b45a59aa)" style="fill: #1f77b4; opacity: 0.5"/>
   </g>
   <g id="patch_11">
    <path d="M 370.924584 246.04 
L 378.910552 246.04 
L 378.910552 244.508976 
L 370.924584 244.508976 
z
" clip-path="url(#p53b45a59aa)" style="fill: #1f77b4; opacity: 0.5"/>
   </g>
   <g id="patch_12">
    <path d="M 378.910552 246.04 
L 386.89652 246.04 
L 386.89652 242.773816 
L 378.910552 242.773816 
z
" clip-path="url(#p53b45a59aa)" style="fill: #1f77b4; opacity: 0.5"/>
   </g>
   <g id="patch_13">
    <path d="M 386.89652 246.04 
L 394.882488 246.04 
L 394.882488 241.804167 
L 386.89652 241.804167 
z
" clip-path="url(#p53b45a59aa)" style="fill: #1f77b4; opacity: 0.5"/>
   </g>
   <g id="patch_14">
    <path d="M 394.882488 246.04 
L 402.868456 246.04 
L 402.868456 239.86487 
L 394.882488 239.86487 
z
" clip-path="url(#p53b45a59aa)" style="fill: #1f77b4; opacity: 0.5"/>
   </g>
   <g id="patch_15">
    <path d="M 402.868456 246.04 
L 410.854417 246.04 
L 410.854417 237.823497 
L 402.868456 237.823497 
z
" clip-path="url(#p53b45a59aa)" style="fill: #1f77b4; opacity: 0.5"/>
   </g>
   <g id="patch_16">
    <path d="M 410.854417 246.04 
L 418.840392 246.04 
L 418.840392 237.568343 
L 410.854417 237.568343 
z
" clip-path="url(#p53b45a59aa)" style="fill: #1f77b4; opacity: 0.5"/>
   </g>
   <g id="patch_17">
    <path d="M 418.840392 246.04 
L 426.826352 246.04 
L 426.826352 234.761447 
L 418.840392 234.761447 
z
" clip-path="url(#p53b45a59aa)" style="fill: #1f77b4; opacity: 0.5"/>
   </g>
   <g id="patch_18">
    <path d="M 426.826352 246.04 
L 434.812328 246.04 
L 434.812328 230.372537 
L 426.826352 230.372537 
z
" clip-path="url(#p53b45a59aa)" style="fill: #1f77b4; opacity: 0.5"/>
   </g>
   <g id="patch_19">
    <path d="M 434.812328 246.04 
L 442.798288 246.04 
L 442.798288 229.709063 
L 434.812328 229.709063 
z
" clip-path="url(#p53b45a59aa)" style="fill: #1f77b4; opacity: 0.5"/>
   </g>
   <g id="patch_20">
    <path d="M 442.798288 246.04 
L 450.784249 246.04 
L 450.784249 233.281456 
L 442.798288 233.281456 
z
" clip-path="url(#p53b45a59aa)" style="fill: #1f77b4; opacity: 0.5"/>
   </g>
   <g id="patch_21">
    <path d="M 450.784249 246.04 
L 458.770224 246.04 
L 458.770224 232.464934 
L 450.784249 232.464934 
z
" clip-path="url(#p53b45a59aa)" style="fill: #1f77b4; opacity: 0.5"/>
   </g>
   <g id="patch_22">
    <path d="M 458.770224 246.04 
L 466.756185 246.04 
L 466.756185 233.128353 
L 458.770224 233.128353 
z
" clip-path="url(#p53b45a59aa)" style="fill: #1f77b4; opacity: 0.5"/>
   </g>
   <g id="patch_23">
    <path d="M 466.756185 246.04 
L 474.74216 246.04 
L 474.74216 231.648389 
L 466.756185 231.648389 
z
" clip-path="url(#p53b45a59aa)" style="fill: #1f77b4; opacity: 0.5"/>
   </g>
   <g id="patch_24">
    <path d="M 474.74216 246.04 
L 482.728121 246.04 
L 482.728121 232.72008 
L 474.74216 232.72008 
z
" clip-path="url(#p53b45a59aa)" style="fill: #1f77b4; opacity: 0.5"/>
   </g>
   <g id="patch_25">
    <path d="M 482.728121 246.04 
L 490.714081 246.04 
L 490.714081 232.10767 
L 482.728121 232.10767 
z
" clip-path="url(#p53b45a59aa)" style="fill: #1f77b4; opacity: 0.5"/>
   </g>
   <g id="patch_26">
    <path d="M 490.714081 246.04 
L 498.700057 246.04 
L 498.700057 230.321503 
L 490.714081 230.321503 
z
" clip-path="url(#p53b45a59aa)" style="fill: #1f77b4; opacity: 0.5"/>
   </g>
   <g id="patch_27">
    <path d="M 498.700057 246.04 
L 506.686017 246.04 
L 506.686017 230.423542 
L 498.700057 230.423542 
z
" clip-path="url(#p53b45a59aa)" style="fill: #1f77b4; opacity: 0.5"/>
   </g>
   <g id="patch_28">
    <path d="M 506.686017 246.04 
L 514.671993 246.04 
L 514.671993 229.351856 
L 506.686017 229.351856 
z
" clip-path="url(#p53b45a59aa)" style="fill: #1f77b4; opacity: 0.5"/>
   </g>
   <g id="patch_29">
    <path d="M 514.671993 246.04 
L 522.657953 246.04 
L 522.657953 228.484243 
L 514.671993 228.484243 
z
" clip-path="url(#p53b45a59aa)" style="fill: #1f77b4; opacity: 0.5"/>
   </g>
   <g id="patch_30">
    <path d="M 522.657953 246.04 
L 530.643929 246.04 
L 530.643929 224.350516 
L 522.657953 224.350516 
z
" clip-path="url(#p53b45a59aa)" style="fill: #1f77b4; opacity: 0.5"/>
   </g>
   <g id="patch_31">
    <path d="M 530.643929 246.04 
L 538.629889 246.04 
L 538.629889 219.553262 
L 530.643929 219.553262 
z
" clip-path="url(#p53b45a59aa)" style="fill: #1f77b4; opacity: 0.5"/>
   </g>
   <g id="patch_32">
    <path d="M 538.629889 246.04 
L 546.61585 246.04 
L 546.61585 207.866435 
L 538.629889 207.866435 
z
" clip-path="url(#p53b45a59aa)" style="fill: #1f77b4; opacity: 0.5"/>
   </g>
   <g id="patch_33">
    <path d="M 546.61585 246.04 
L 554.601825 246.04 
L 554.601825 44.812619 
L 546.61585 44.812619 
z
" clip-path="url(#p53b45a59aa)" style="fill: #1f77b4; opacity: 0.5"/>
   </g>
   <g id="patch_34">
    <path d="M 342.638329 246.04 
L 351.116652 246.04 
L 351.116652 245.847718 
L 342.638329 245.847718 
z
" clip-path="url(#p53b45a59aa)" style="fill: #ff7f0e; opacity: 0.5"/>
   </g>
   <g id="patch_35">
    <path d="M 351.116652 246.04 
L 359.594972 246.04 
L 359.594972 245.655436 
L 351.116652 245.655436 
z
" clip-path="url(#p53b45a59aa)" style="fill: #ff7f0e; opacity: 0.5"/>
   </g>
   <g id="patch_36">
    <path d="M 359.594972 246.04 
L 368.073292 246.04 
L 368.073292 244.694026 
L 359.594972 244.694026 
z
" clip-path="url(#p53b45a59aa)" style="fill: #ff7f0e; opacity: 0.5"/>
   </g>
   <g id="patch_37">
    <path d="M 368.073292 246.04 
L 376.551619 246.04 
L 376.551619 243.924901 
L 368.073292 243.924901 
z
" clip-path="url(#p53b45a59aa)" style="fill: #ff7f0e; opacity: 0.5"/>
   </g>
   <g id="patch_38">
    <path d="M 376.551619 246.04 
L 385.029946 246.04 
L 385.029946 239.117857 
L 376.551619 239.117857 
z
" clip-path="url(#p53b45a59aa)" style="fill: #ff7f0e; opacity: 0.5"/>
   </g>
   <g id="patch_39">
    <path d="M 385.029946 246.04 
L 393.508258 246.04 
L 393.508258 237.964152 
L 385.029946 237.964152 
z
" clip-path="url(#p53b45a59aa)" style="fill: #ff7f0e; opacity: 0.5"/>
   </g>
   <g id="patch_40">
    <path d="M 393.508258 246.04 
L 401.986586 246.04 
L 401.986586 232.772559 
L 393.508258 232.772559 
z
" clip-path="url(#p53b45a59aa)" style="fill: #ff7f0e; opacity: 0.5"/>
   </g>
   <g id="patch_41">
    <path d="M 401.986586 246.04 
L 410.464913 246.04 
L 410.464913 232.580277 
L 401.986586 232.580277 
z
" clip-path="url(#p53b45a59aa)" style="fill: #ff7f0e; opacity: 0.5"/>
   </g>
   <g id="patch_42">
    <path d="M 410.464913 246.04 
L 418.943225 246.04 
L 418.943225 226.619508 
L 410.464913 226.619508 
z
" clip-path="url(#p53b45a59aa)" style="fill: #ff7f0e; opacity: 0.5"/>
   </g>
   <g id="patch_43">
    <path d="M 418.943225 246.04 
L 427.421553 246.04 
L 427.421553 225.081288 
L 418.943225 225.081288 
z
" clip-path="url(#p53b45a59aa)" style="fill: #ff7f0e; opacity: 0.5"/>
   </g>
   <g id="patch_44">
    <path d="M 427.421553 246.04 
L 435.89988 246.04 
L 435.89988 226.427261 
L 427.421553 226.427261 
z
" clip-path="url(#p53b45a59aa)" style="fill: #ff7f0e; opacity: 0.5"/>
   </g>
   <g id="patch_45">
    <path d="M 435.89988 246.04 
L 444.378192 246.04 
L 444.378192 226.234944 
L 435.89988 226.234944 
z
" clip-path="url(#p53b45a59aa)" style="fill: #ff7f0e; opacity: 0.5"/>
   </g>
   <g id="patch_46">
    <path d="M 444.378192 246.04 
L 452.856519 246.04 
L 452.856519 227.773233 
L 444.378192 227.773233 
z
" clip-path="url(#p53b45a59aa)" style="fill: #ff7f0e; opacity: 0.5"/>
   </g>
   <g id="patch_47">
    <path d="M 452.856519 246.04 
L 461.334847 246.04 
L 461.334847 223.350752 
L 452.856519 223.350752 
z
" clip-path="url(#p53b45a59aa)" style="fill: #ff7f0e; opacity: 0.5"/>
   </g>
   <g id="patch_48">
    <path d="M 461.334847 246.04 
L 469.813159 246.04 
L 469.813159 226.234944 
L 461.334847 226.234944 
z
" clip-path="url(#p53b45a59aa)" style="fill: #ff7f0e; opacity: 0.5"/>
   </g>
   <g id="patch_49">
    <path d="M 469.813159 246.04 
L 478.291486 246.04 
L 478.291486 226.811824 
L 469.813159 226.811824 
z
" clip-path="url(#p53b45a59aa)" style="fill: #ff7f0e; opacity: 0.5"/>
   </g>
   <g id="patch_50">
    <path d="M 478.291486 246.04 
L 486.769814 246.04 
L 486.769814 227.773233 
L 478.291486 227.773233 
z
" clip-path="url(#p53b45a59aa)" style="fill: #ff7f0e; opacity: 0.5"/>
   </g>
   <g id="patch_51">
    <path d="M 486.769814 246.04 
L 495.248126 246.04 
L 495.248126 227.196354 
L 486.769814 227.196354 
z
" clip-path="url(#p53b45a59aa)" style="fill: #ff7f0e; opacity: 0.5"/>
   </g>
   <g id="patch_52">
    <path d="M 495.248126 246.04 
L 503.726453 246.04 
L 503.726453 229.311487 
L 495.248126 229.311487 
z
" clip-path="url(#p53b45a59aa)" style="fill: #ff7f0e; opacity: 0.5"/>
   </g>
   <g id="patch_53">
    <path d="M 503.726453 246.04 
L 512.20478 246.04 
L 512.20478 222.966189 
L 503.726453 222.966189 
z
" clip-path="url(#p53b45a59aa)" style="fill: #ff7f0e; opacity: 0.5"/>
   </g>
   <g id="patch_54">
    <path d="M 512.20478 246.04 
L 520.683093 246.04 
L 520.683093 224.504405 
L 512.20478 224.504405 
z
" clip-path="url(#p53b45a59aa)" style="fill: #ff7f0e; opacity: 0.5"/>
   </g>
   <g id="patch_55">
    <path d="M 520.683093 246.04 
L 529.16142 246.04 
L 529.16142 222.581625 
L 520.683093 222.581625 
z
" clip-path="url(#p53b45a59aa)" style="fill: #ff7f0e; opacity: 0.5"/>
   </g>
   <g id="patch_56">
    <path d="M 529.16142 246.04 
L 537.639747 246.04 
L 537.639747 219.697399 
L 529.16142 219.697399 
z
" clip-path="url(#p53b45a59aa)" style="fill: #ff7f0e; opacity: 0.5"/>
   </g>
   <g id="patch_57">
    <path d="M 537.639747 246.04 
L 546.118059 246.04 
L 546.118059 208.54499 
L 537.639747 208.54499 
z
" clip-path="url(#p53b45a59aa)" style="fill: #ff7f0e; opacity: 0.5"/>
   </g>
   <g id="patch_58">
    <path d="M 546.118059 246.04 
L 554.596387 246.04 
L 554.596387 156.628982 
L 546.118059 156.628982 
z
" clip-path="url(#p53b45a59aa)" style="fill: #ff7f0e; opacity: 0.5"/>
   </g>
   <g id="matplotlib.axis_3">
    <g id="xtick_7">
     <g id="line2d_16">
      <g>
       <use xlink:href="#mf21d382170" x="351.839298" y="246.04" style="stroke: #000000; stroke-width: 0.8"/>
      </g>
     </g>
     <g id="text_16">
      <!-- 0.2 -->
      <g transform="translate(343.887735 260.638438) scale(0.1 -0.1)">
       <use xlink:href="#DejaVuSans-30"/>
       <use xlink:href="#DejaVuSans-2e" transform="translate(63.623047 0)"/>
       <use xlink:href="#DejaVuSans-32" transform="translate(95.410156 0)"/>
      </g>
     </g>
    </g>
    <g id="xtick_8">
     <g id="line2d_17">
      <g>
       <use xlink:href="#mf21d382170" x="402.52993" y="246.04" style="stroke: #000000; stroke-width: 0.8"/>
      </g>
     </g>
     <g id="text_17">
      <!-- 0.4 -->
      <g transform="translate(394.578367 260.638438) scale(0.1 -0.1)">
       <use xlink:href="#DejaVuSans-30"/>
       <use xlink:href="#DejaVuSans-2e" transform="translate(63.623047 0)"/>
       <use xlink:href="#DejaVuSans-34" transform="translate(95.410156 0)"/>
      </g>
     </g>
    </g>
    <g id="xtick_9">
     <g id="line2d_18">
      <g>
       <use xlink:href="#mf21d382170" x="453.220562" y="246.04" style="stroke: #000000; stroke-width: 0.8"/>
      </g>
     </g>
     <g id="text_18">
      <!-- 0.6 -->
      <g transform="translate(445.268999 260.638438) scale(0.1 -0.1)">
       <use xlink:href="#DejaVuSans-30"/>
       <use xlink:href="#DejaVuSans-2e" transform="translate(63.623047 0)"/>
       <use xlink:href="#DejaVuSans-36" transform="translate(95.410156 0)"/>
      </g>
     </g>
    </g>
    <g id="xtick_10">
     <g id="line2d_19">
      <g>
       <use xlink:href="#mf21d382170" x="503.911193" y="246.04" style="stroke: #000000; stroke-width: 0.8"/>
      </g>
     </g>
     <g id="text_19">
      <!-- 0.8 -->
      <g transform="translate(495.959631 260.638438) scale(0.1 -0.1)">
       <use xlink:href="#DejaVuSans-30"/>
       <use xlink:href="#DejaVuSans-2e" transform="translate(63.623047 0)"/>
       <use xlink:href="#DejaVuSans-38" transform="translate(95.410156 0)"/>
      </g>
     </g>
    </g>
    <g id="xtick_11">
     <g id="line2d_20">
      <g>
       <use xlink:href="#mf21d382170" x="554.601825" y="246.04" style="stroke: #000000; stroke-width: 0.8"/>
      </g>
     </g>
     <g id="text_20">
      <!-- 1.0 -->
      <g transform="translate(546.650263 260.638438) scale(0.1 -0.1)">
       <use xlink:href="#DejaVuSans-31"/>
       <use xlink:href="#DejaVuSans-2e" transform="translate(63.623047 0)"/>
       <use xlink:href="#DejaVuSans-30" transform="translate(95.410156 0)"/>
      </g>
     </g>
    </g>
    <g id="text_21">
     <!-- Scores -->
     <g transform="translate(432.013046 274.316562) scale(0.1 -0.1)">
      <use xlink:href="#DejaVuSans-53"/>
      <use xlink:href="#DejaVuSans-63" transform="translate(63.476562 0)"/>
      <use xlink:href="#DejaVuSans-6f" transform="translate(118.457031 0)"/>
      <use xlink:href="#DejaVuSans-72" transform="translate(179.638672 0)"/>
      <use xlink:href="#DejaVuSans-65" transform="translate(218.501953 0)"/>
      <use xlink:href="#DejaVuSans-73" transform="translate(280.025391 0)"/>
     </g>
    </g>
   </g>
   <g id="matplotlib.axis_4">
    <g id="ytick_6">
     <g id="line2d_21">
      <g>
       <use xlink:href="#m312698afb9" x="332.040154" y="246.04" style="stroke: #000000; stroke-width: 0.8"/>
      </g>
     </g>
     <g id="text_22">
      <!-- 0 -->
      <g transform="translate(318.677654 249.839219) scale(0.1 -0.1)">
       <use xlink:href="#DejaVuSans-30"/>
      </g>
     </g>
    </g>
    <g id="ytick_7">
     <g id="line2d_22">
      <g>
       <use xlink:href="#m312698afb9" x="332.040154" y="213.879665" style="stroke: #000000; stroke-width: 0.8"/>
      </g>
     </g>
     <g id="text_23">
      <!-- 2 -->
      <g transform="translate(318.677654 217.678884) scale(0.1 -0.1)">
       <use xlink:href="#DejaVuSans-32"/>
      </g>
     </g>
    </g>
    <g id="ytick_8">
     <g id="line2d_23">
      <g>
       <use xlink:href="#m312698afb9" x="332.040154" y="181.719331" style="stroke: #000000; stroke-width: 0.8"/>
      </g>
     </g>
     <g id="text_24">
      <!-- 4 -->
      <g transform="translate(318.677654 185.518549) scale(0.1 -0.1)">
       <use xlink:href="#DejaVuSans-34"/>
      </g>
     </g>
    </g>
    <g id="ytick_9">
     <g id="line2d_24">
      <g>
       <use xlink:href="#m312698afb9" x="332.040154" y="149.558996" style="stroke: #000000; stroke-width: 0.8"/>
      </g>
     </g>
     <g id="text_25">
      <!-- 6 -->
      <g transform="translate(318.677654 153.358215) scale(0.1 -0.1)">
       <use xlink:href="#DejaVuSans-36"/>
      </g>
     </g>
    </g>
    <g id="ytick_10">
     <g id="line2d_25">
      <g>
       <use xlink:href="#m312698afb9" x="332.040154" y="117.398661" style="stroke: #000000; stroke-width: 0.8"/>
      </g>
     </g>
     <g id="text_26">
      <!-- 8 -->
      <g transform="translate(318.677654 121.19788) scale(0.1 -0.1)">
       <use xlink:href="#DejaVuSans-38"/>
      </g>
     </g>
    </g>
    <g id="ytick_11">
     <g id="line2d_26">
      <g>
       <use xlink:href="#m312698afb9" x="332.040154" y="85.238326" style="stroke: #000000; stroke-width: 0.8"/>
      </g>
     </g>
     <g id="text_27">
      <!-- 10 -->
      <g transform="translate(312.315154 89.037545) scale(0.1 -0.1)">
       <use xlink:href="#DejaVuSans-31"/>
       <use xlink:href="#DejaVuSans-30" transform="translate(63.623047 0)"/>
      </g>
     </g>
    </g>
    <g id="ytick_12">
     <g id="line2d_27">
      <g>
       <use xlink:href="#m312698afb9" x="332.040154" y="53.077992" style="stroke: #000000; stroke-width: 0.8"/>
      </g>
     </g>
     <g id="text_28">
      <!-- 12 -->
      <g transform="translate(312.315154 56.87721) scale(0.1 -0.1)">
       <use xlink:href="#DejaVuSans-31"/>
       <use xlink:href="#DejaVuSans-32" transform="translate(63.623047 0)"/>
      </g>
     </g>
    </g>
    <g id="text_29">
     <!-- Density -->
     <g transform="translate(306.235466 159.404219) rotate(-90) scale(0.1 -0.1)">
      <defs>
       <path id="DejaVuSans-6e" d="M 3513 2113 
L 3513 0 
L 2938 0 
L 2938 2094 
Q 2938 2591 2744 2837 
Q 2550 3084 2163 3084 
Q 1697 3084 1428 2787 
Q 1159 2491 1159 1978 
L 1159 0 
L 581 0 
L 581 3500 
L 1159 3500 
L 1159 2956 
Q 1366 3272 1645 3428 
Q 1925 3584 2291 3584 
Q 2894 3584 3203 3211 
Q 3513 2838 3513 2113 
z
" transform="scale(0.015625)"/>
       <path id="DejaVuSans-69" d="M 603 3500 
L 1178 3500 
L 1178 0 
L 603 0 
L 603 3500 
z
M 603 4863 
L 1178 4863 
L 1178 4134 
L 603 4134 
L 603 4863 
z
" transform="scale(0.015625)"/>
       <path id="DejaVuSans-74" d="M 1172 4494 
L 1172 3500 
L 2356 3500 
L 2356 3053 
L 1172 3053 
L 1172 1153 
Q 1172 725 1289 603 
Q 1406 481 1766 481 
L 2356 481 
L 2356 0 
L 1766 0 
Q 1100 0 847 248 
Q 594 497 594 1153 
L 594 3053 
L 172 3053 
L 172 3500 
L 594 3500 
L 594 4494 
L 1172 4494 
z
" transform="scale(0.015625)"/>
       <path id="DejaVuSans-79" d="M 2059 -325 
Q 1816 -950 1584 -1140 
Q 1353 -1331 966 -1331 
L 506 -1331 
L 506 -850 
L 844 -850 
Q 1081 -850 1212 -737 
Q 1344 -625 1503 -206 
L 1606 56 
L 191 3500 
L 800 3500 
L 1894 763 
L 2988 3500 
L 3597 3500 
L 2059 -325 
z
" transform="scale(0.015625)"/>
      </defs>
      <use xlink:href="#DejaVuSans-44"/>
      <use xlink:href="#DejaVuSans-65" transform="translate(77.001953 0)"/>
      <use xlink:href="#DejaVuSans-6e" transform="translate(138.525391 0)"/>
      <use xlink:href="#DejaVuSans-73" transform="translate(201.904297 0)"/>
      <use xlink:href="#DejaVuSans-69" transform="translate(254.003906 0)"/>
      <use xlink:href="#DejaVuSans-74" transform="translate(281.787109 0)"/>
      <use xlink:href="#DejaVuSans-79" transform="translate(320.996094 0)"/>
     </g>
    </g>
   </g>
   <g id="patch_59">
    <path d="M 332.040154 246.04 
L 332.040154 34.75125 
" style="fill: none; stroke: #000000; stroke-width: 0.8; stroke-linejoin: miter; stroke-linecap: square"/>
   </g>
   <g id="patch_60">
    <path d="M 565.2 246.04 
L 565.2 34.75125 
" style="fill: none; stroke: #000000; stroke-width: 0.8; stroke-linejoin: miter; stroke-linecap: square"/>
   </g>
   <g id="patch_61">
    <path d="M 332.040154 246.04 
L 565.2 246.04 
" style="fill: none; stroke: #000000; stroke-width: 0.8; stroke-linejoin: miter; stroke-linecap: square"/>
   </g>
   <g id="patch_62">
    <path d="M 332.040154 34.75125 
L 565.2 34.75125 
" style="fill: none; stroke: #000000; stroke-width: 0.8; stroke-linejoin: miter; stroke-linecap: square"/>
   </g>
   <g id="legend_2">
    <g id="patch_63">
     <path d="M 339.040154 72.1075 
L 439.229216 72.1075 
Q 441.229216 72.1075 441.229216 70.1075 
L 441.229216 41.75125 
Q 441.229216 39.75125 439.229216 39.75125 
L 339.040154 39.75125 
Q 337.040154 39.75125 337.040154 41.75125 
L 337.040154 70.1075 
Q 337.040154 72.1075 339.040154 72.1075 
z
" style="fill: #ffffff; opacity: 0.8; stroke: #cccccc; stroke-linejoin: miter"/>
    </g>
    <g id="patch_64">
     <path d="M 341.040154 51.349688 
L 361.040154 51.349688 
L 361.040154 44.349688 
L 341.040154 44.349688 
z
" style="fill: #1f77b4; opacity: 0.5"/>
    </g>
    <g id="text_30">
     <!-- ID samples -->
     <g transform="translate(369.040154 51.349688) scale(0.1 -0.1)">
      <use xlink:href="#DejaVuSans-49"/>
      <use xlink:href="#DejaVuSans-44" transform="translate(29.492188 0)"/>
      <use xlink:href="#DejaVuSans-20" transform="translate(106.494141 0)"/>
      <use xlink:href="#DejaVuSans-73" transform="translate(138.28125 0)"/>
      <use xlink:href="#DejaVuSans-61" transform="translate(190.380859 0)"/>
      <use xlink:href="#DejaVuSans-6d" transform="translate(251.660156 0)"/>
      <use xlink:href="#DejaVuSans-70" transform="translate(349.072266 0)"/>
      <use xlink:href="#DejaVuSans-6c" transform="translate(412.548828 0)"/>
      <use xlink:href="#DejaVuSans-65" transform="translate(440.332031 0)"/>
      <use xlink:href="#DejaVuSans-73" transform="translate(501.855469 0)"/>
     </g>
    </g>
    <g id="patch_65">
     <path d="M 341.040154 66.027813 
L 361.040154 66.027813 
L 361.040154 59.027813 
L 341.040154 59.027813 
z
" style="fill: #ff7f0e; opacity: 0.5"/>
    </g>
    <g id="text_31">
     <!-- OOD samples -->
     <g transform="translate(369.040154 66.027813) scale(0.1 -0.1)">
      <use xlink:href="#DejaVuSans-4f"/>
      <use xlink:href="#DejaVuSans-4f" transform="translate(78.710938 0)"/>
      <use xlink:href="#DejaVuSans-44" transform="translate(157.421875 0)"/>
      <use xlink:href="#DejaVuSans-20" transform="translate(234.423828 0)"/>
      <use xlink:href="#DejaVuSans-73" transform="translate(266.210938 0)"/>
      <use xlink:href="#DejaVuSans-61" transform="translate(318.310547 0)"/>
      <use xlink:href="#DejaVuSans-6d" transform="translate(379.589844 0)"/>
      <use xlink:href="#DejaVuSans-70" transform="translate(477.001953 0)"/>
      <use xlink:href="#DejaVuSans-6c" transform="translate(540.478516 0)"/>
      <use xlink:href="#DejaVuSans-65" transform="translate(568.261719 0)"/>
      <use xlink:href="#DejaVuSans-73" transform="translate(629.785156 0)"/>
     </g>
    </g>
   </g>
  </g>
  <g id="text_32">
   <!-- Scores using max_softmax - RLargeCNNskip -->
   <g transform="translate(155.476875 14.878125) scale(0.12 -0.12)">
    <defs>
     <path id="DejaVuSans-75" d="M 544 1381 
L 544 3500 
L 1119 3500 
L 1119 1403 
Q 1119 906 1312 657 
Q 1506 409 1894 409 
Q 2359 409 2629 706 
Q 2900 1003 2900 1516 
L 2900 3500 
L 3475 3500 
L 3475 0 
L 2900 0 
L 2900 538 
Q 2691 219 2414 64 
Q 2138 -91 1772 -91 
Q 1169 -91 856 284 
Q 544 659 544 1381 
z
M 1991 3584 
L 1991 3584 
z
" transform="scale(0.015625)"/>
     <path id="DejaVuSans-67" d="M 2906 1791 
Q 2906 2416 2648 2759 
Q 2391 3103 1925 3103 
Q 1463 3103 1205 2759 
Q 947 2416 947 1791 
Q 947 1169 1205 825 
Q 1463 481 1925 481 
Q 2391 481 2648 825 
Q 2906 1169 2906 1791 
z
M 3481 434 
Q 3481 -459 3084 -895 
Q 2688 -1331 1869 -1331 
Q 1566 -1331 1297 -1286 
Q 1028 -1241 775 -1147 
L 775 -588 
Q 1028 -725 1275 -790 
Q 1522 -856 1778 -856 
Q 2344 -856 2625 -561 
Q 2906 -266 2906 331 
L 2906 616 
Q 2728 306 2450 153 
Q 2172 0 1784 0 
Q 1141 0 747 490 
Q 353 981 353 1791 
Q 353 2603 747 3093 
Q 1141 3584 1784 3584 
Q 2172 3584 2450 3431 
Q 2728 3278 2906 2969 
L 2906 3500 
L 3481 3500 
L 3481 434 
z
" transform="scale(0.015625)"/>
     <path id="DejaVuSans-78" d="M 3513 3500 
L 2247 1797 
L 3578 0 
L 2900 0 
L 1881 1375 
L 863 0 
L 184 0 
L 1544 1831 
L 300 3500 
L 978 3500 
L 1906 2253 
L 2834 3500 
L 3513 3500 
z
" transform="scale(0.015625)"/>
     <path id="DejaVuSans-5f" d="M 3263 -1063 
L 3263 -1509 
L -63 -1509 
L -63 -1063 
L 3263 -1063 
z
" transform="scale(0.015625)"/>
     <path id="DejaVuSans-66" d="M 2375 4863 
L 2375 4384 
L 1825 4384 
Q 1516 4384 1395 4259 
Q 1275 4134 1275 3809 
L 1275 3500 
L 2222 3500 
L 2222 3053 
L 1275 3053 
L 1275 0 
L 697 0 
L 697 3053 
L 147 3053 
L 147 3500 
L 697 3500 
L 697 3744 
Q 697 4328 969 4595 
Q 1241 4863 1831 4863 
L 2375 4863 
z
" transform="scale(0.015625)"/>
     <path id="DejaVuSans-2d" d="M 313 2009 
L 1997 2009 
L 1997 1497 
L 313 1497 
L 313 2009 
z
" transform="scale(0.015625)"/>
     <path id="DejaVuSans-52" d="M 2841 2188 
Q 3044 2119 3236 1894 
Q 3428 1669 3622 1275 
L 4263 0 
L 3584 0 
L 2988 1197 
Q 2756 1666 2539 1819 
Q 2322 1972 1947 1972 
L 1259 1972 
L 1259 0 
L 628 0 
L 628 4666 
L 2053 4666 
Q 2853 4666 3247 4331 
Q 3641 3997 3641 3322 
Q 3641 2881 3436 2590 
Q 3231 2300 2841 2188 
z
M 1259 4147 
L 1259 2491 
L 2053 2491 
Q 2509 2491 2742 2702 
Q 2975 2913 2975 3322 
Q 2975 3731 2742 3939 
Q 2509 4147 2053 4147 
L 1259 4147 
z
" transform="scale(0.015625)"/>
     <path id="DejaVuSans-4c" d="M 628 4666 
L 1259 4666 
L 1259 531 
L 3531 531 
L 3531 0 
L 628 0 
L 628 4666 
z
" transform="scale(0.015625)"/>
     <path id="DejaVuSans-43" d="M 4122 4306 
L 4122 3641 
Q 3803 3938 3442 4084 
Q 3081 4231 2675 4231 
Q 1875 4231 1450 3742 
Q 1025 3253 1025 2328 
Q 1025 1406 1450 917 
Q 1875 428 2675 428 
Q 3081 428 3442 575 
Q 3803 722 4122 1019 
L 4122 359 
Q 3791 134 3420 21 
Q 3050 -91 2638 -91 
Q 1578 -91 968 557 
Q 359 1206 359 2328 
Q 359 3453 968 4101 
Q 1578 4750 2638 4750 
Q 3056 4750 3426 4639 
Q 3797 4528 4122 4306 
z
" transform="scale(0.015625)"/>
     <path id="DejaVuSans-4e" d="M 628 4666 
L 1478 4666 
L 3547 763 
L 3547 4666 
L 4159 4666 
L 4159 0 
L 3309 0 
L 1241 3903 
L 1241 0 
L 628 0 
L 628 4666 
z
" transform="scale(0.015625)"/>
     <path id="DejaVuSans-6b" d="M 581 4863 
L 1159 4863 
L 1159 1991 
L 2875 3500 
L 3609 3500 
L 1753 1863 
L 3688 0 
L 2938 0 
L 1159 1709 
L 1159 0 
L 581 0 
L 581 4863 
z
" transform="scale(0.015625)"/>
    </defs>
    <use xlink:href="#DejaVuSans-53"/>
    <use xlink:href="#DejaVuSans-63" transform="translate(63.476562 0)"/>
    <use xlink:href="#DejaVuSans-6f" transform="translate(118.457031 0)"/>
    <use xlink:href="#DejaVuSans-72" transform="translate(179.638672 0)"/>
    <use xlink:href="#DejaVuSans-65" transform="translate(218.501953 0)"/>
    <use xlink:href="#DejaVuSans-73" transform="translate(280.025391 0)"/>
    <use xlink:href="#DejaVuSans-20" transform="translate(332.125 0)"/>
    <use xlink:href="#DejaVuSans-75" transform="translate(363.912109 0)"/>
    <use xlink:href="#DejaVuSans-73" transform="translate(427.291016 0)"/>
    <use xlink:href="#DejaVuSans-69" transform="translate(479.390625 0)"/>
    <use xlink:href="#DejaVuSans-6e" transform="translate(507.173828 0)"/>
    <use xlink:href="#DejaVuSans-67" transform="translate(570.552734 0)"/>
    <use xlink:href="#DejaVuSans-20" transform="translate(634.029297 0)"/>
    <use xlink:href="#DejaVuSans-6d" transform="translate(665.816406 0)"/>
    <use xlink:href="#DejaVuSans-61" transform="translate(763.228516 0)"/>
    <use xlink:href="#DejaVuSans-78" transform="translate(824.507812 0)"/>
    <use xlink:href="#DejaVuSans-5f" transform="translate(883.6875 0)"/>
    <use xlink:href="#DejaVuSans-73" transform="translate(933.6875 0)"/>
    <use xlink:href="#DejaVuSans-6f" transform="translate(985.787109 0)"/>
    <use xlink:href="#DejaVuSans-66" transform="translate(1046.96875 0)"/>
    <use xlink:href="#DejaVuSans-74" transform="translate(1080.423828 0)"/>
    <use xlink:href="#DejaVuSans-6d" transform="translate(1119.632812 0)"/>
    <use xlink:href="#DejaVuSans-61" transform="translate(1217.044922 0)"/>
    <use xlink:href="#DejaVuSans-78" transform="translate(1278.324219 0)"/>
    <use xlink:href="#DejaVuSans-20" transform="translate(1337.503906 0)"/>
    <use xlink:href="#DejaVuSans-2d" transform="translate(1369.291016 0)"/>
    <use xlink:href="#DejaVuSans-20" transform="translate(1405.375 0)"/>
    <use xlink:href="#DejaVuSans-52" transform="translate(1437.162109 0)"/>
    <use xlink:href="#DejaVuSans-4c" transform="translate(1506.644531 0)"/>
    <use xlink:href="#DejaVuSans-61" transform="translate(1562.357422 0)"/>
    <use xlink:href="#DejaVuSans-72" transform="translate(1623.636719 0)"/>
    <use xlink:href="#DejaVuSans-67" transform="translate(1663 0)"/>
    <use xlink:href="#DejaVuSans-65" transform="translate(1726.476562 0)"/>
    <use xlink:href="#DejaVuSans-43" transform="translate(1788 0)"/>
    <use xlink:href="#DejaVuSans-4e" transform="translate(1857.824219 0)"/>
    <use xlink:href="#DejaVuSans-4e" transform="translate(1932.628906 0)"/>
    <use xlink:href="#DejaVuSans-73" transform="translate(2007.433594 0)"/>
    <use xlink:href="#DejaVuSans-6b" transform="translate(2059.533203 0)"/>
    <use xlink:href="#DejaVuSans-69" transform="translate(2117.443359 0)"/>
    <use xlink:href="#DejaVuSans-70" transform="translate(2145.226562 0)"/>
   </g>
  </g>
 </g>
 <defs>
  <clipPath id="p852002ada1">
   <rect x="47.72" y="34.75125" width="233.159846" height="211.28875"/>
  </clipPath>
  <clipPath id="p53b45a59aa">
   <rect x="332.040154" y="34.75125" width="233.159846" height="211.28875"/>
  </clipPath>
 </defs>
</svg>
