<?xml version="1.0" encoding="utf-8" standalone="no"?>
<!DOCTYPE svg PUBLIC "-//W3C//DTD SVG 1.1//EN"
  "http://www.w3.org/Graphics/SVG/1.1/DTD/svg11.dtd">
<svg xmlns:xlink="http://www.w3.org/1999/xlink" width="576pt" height="288pt" viewBox="0 0 576 288" xmlns="http://www.w3.org/2000/svg" version="1.1">
 <metadata>
  <rdf:RDF xmlns:dc="http://purl.org/dc/elements/1.1/" xmlns:cc="http://creativecommons.org/ns#" xmlns:rdf="http://www.w3.org/1999/02/22-rdf-syntax-ns#">
   <cc:Work>
    <dc:type rdf:resource="http://purl.org/dc/dcmitype/StillImage"/>
    <dc:date>2025-05-24T13:09:30.225218</dc:date>
    <dc:format>image/svg+xml</dc:format>
    <dc:creator>
     <cc:Agent>
      <dc:title>Matplotlib v3.10.1, https://matplotlib.org/</dc:title>
     </cc:Agent>
    </dc:creator>
   </cc:Work>
  </rdf:RDF>
 </metadata>
 <defs>
  <style type="text/css">*{stroke-linejoin: round; stroke-linecap: butt}</style>
 </defs>
 <g id="figure_1">
  <g id="patch_1">
   <path d="M 0 288 
L 576 288 
L 576 0 
L 0 0 
z
" style="fill: #ffffff"/>
  </g>
  <g id="axes_1">
   <g id="patch_2">
    <path d="M 47.72 246.04 
L 284.029846 246.04 
L 284.029846 34.75125 
L 47.72 34.75125 
z
" style="fill: #ffffff"/>
   </g>
   <g id="matplotlib.axis_1">
    <g id="xtick_1">
     <g id="line2d_1">
      <defs>
       <path id="m6d54edd0b3" d="M 0 0 
L 0 3.5 
" style="stroke: #000000; stroke-width: 0.8"/>
      </defs>
      <g>
       <use xlink:href="#m6d54edd0b3" x="58.461357" y="246.04" style="stroke: #000000; stroke-width: 0.8"/>
      </g>
     </g>
     <g id="text_1">
      <!-- 0 -->
      <g transform="translate(55.280107 260.638438) scale(0.1 -0.1)">
       <defs>
        <path id="DejaVuSans-30" d="M 2034 4250 
Q 1547 4250 1301 3770 
Q 1056 3291 1056 2328 
Q 1056 1369 1301 889 
Q 1547 409 2034 409 
Q 2525 409 2770 889 
Q 3016 1369 3016 2328 
Q 3016 3291 2770 3770 
Q 2525 4250 2034 4250 
z
M 2034 4750 
Q 2819 4750 3233 4129 
Q 3647 3509 3647 2328 
Q 3647 1150 3233 529 
Q 2819 -91 2034 -91 
Q 1250 -91 836 529 
Q 422 1150 422 2328 
Q 422 3509 836 4129 
Q 1250 4750 2034 4750 
z
" transform="scale(0.015625)"/>
       </defs>
       <use xlink:href="#DejaVuSans-30"/>
      </g>
     </g>
    </g>
    <g id="xtick_2">
     <g id="line2d_2">
      <g>
       <use xlink:href="#m6d54edd0b3" x="101.43108" y="246.04" style="stroke: #000000; stroke-width: 0.8"/>
      </g>
     </g>
     <g id="text_2">
      <!-- 2000 -->
      <g transform="translate(88.70608 260.638438) scale(0.1 -0.1)">
       <defs>
        <path id="DejaVuSans-32" d="M 1228 531 
L 3431 531 
L 3431 0 
L 469 0 
L 469 531 
Q 828 903 1448 1529 
Q 2069 2156 2228 2338 
Q 2531 2678 2651 2914 
Q 2772 3150 2772 3378 
Q 2772 3750 2511 3984 
Q 2250 4219 1831 4219 
Q 1534 4219 1204 4116 
Q 875 4013 500 3803 
L 500 4441 
Q 881 4594 1212 4672 
Q 1544 4750 1819 4750 
Q 2544 4750 2975 4387 
Q 3406 4025 3406 3419 
Q 3406 3131 3298 2873 
Q 3191 2616 2906 2266 
Q 2828 2175 2409 1742 
Q 1991 1309 1228 531 
z
" transform="scale(0.015625)"/>
       </defs>
       <use xlink:href="#DejaVuSans-32"/>
       <use xlink:href="#DejaVuSans-30" transform="translate(63.623047 0)"/>
       <use xlink:href="#DejaVuSans-30" transform="translate(127.246094 0)"/>
       <use xlink:href="#DejaVuSans-30" transform="translate(190.869141 0)"/>
      </g>
     </g>
    </g>
    <g id="xtick_3">
     <g id="line2d_3">
      <g>
       <use xlink:href="#m6d54edd0b3" x="144.400804" y="246.04" style="stroke: #000000; stroke-width: 0.8"/>
      </g>
     </g>
     <g id="text_3">
      <!-- 4000 -->
      <g transform="translate(131.675804 260.638438) scale(0.1 -0.1)">
       <defs>
        <path id="DejaVuSans-34" d="M 2419 4116 
L 825 1625 
L 2419 1625 
L 2419 4116 
z
M 2253 4666 
L 3047 4666 
L 3047 1625 
L 3713 1625 
L 3713 1100 
L 3047 1100 
L 3047 0 
L 2419 0 
L 2419 1100 
L 313 1100 
L 313 1709 
L 2253 4666 
z
" transform="scale(0.015625)"/>
       </defs>
       <use xlink:href="#DejaVuSans-34"/>
       <use xlink:href="#DejaVuSans-30" transform="translate(63.623047 0)"/>
       <use xlink:href="#DejaVuSans-30" transform="translate(127.246094 0)"/>
       <use xlink:href="#DejaVuSans-30" transform="translate(190.869141 0)"/>
      </g>
     </g>
    </g>
    <g id="xtick_4">
     <g id="line2d_4">
      <g>
       <use xlink:href="#m6d54edd0b3" x="187.370527" y="246.04" style="stroke: #000000; stroke-width: 0.8"/>
      </g>
     </g>
     <g id="text_4">
      <!-- 6000 -->
      <g transform="translate(174.645527 260.638438) scale(0.1 -0.1)">
       <defs>
        <path id="DejaVuSans-36" d="M 2113 2584 
Q 1688 2584 1439 2293 
Q 1191 2003 1191 1497 
Q 1191 994 1439 701 
Q 1688 409 2113 409 
Q 2538 409 2786 701 
Q 3034 994 3034 1497 
Q 3034 2003 2786 2293 
Q 2538 2584 2113 2584 
z
M 3366 4563 
L 3366 3988 
Q 3128 4100 2886 4159 
Q 2644 4219 2406 4219 
Q 1781 4219 1451 3797 
Q 1122 3375 1075 2522 
Q 1259 2794 1537 2939 
Q 1816 3084 2150 3084 
Q 2853 3084 3261 2657 
Q 3669 2231 3669 1497 
Q 3669 778 3244 343 
Q 2819 -91 2113 -91 
Q 1303 -91 875 529 
Q 447 1150 447 2328 
Q 447 3434 972 4092 
Q 1497 4750 2381 4750 
Q 2619 4750 2861 4703 
Q 3103 4656 3366 4563 
z
" transform="scale(0.015625)"/>
       </defs>
       <use xlink:href="#DejaVuSans-36"/>
       <use xlink:href="#DejaVuSans-30" transform="translate(63.623047 0)"/>
       <use xlink:href="#DejaVuSans-30" transform="translate(127.246094 0)"/>
       <use xlink:href="#DejaVuSans-30" transform="translate(190.869141 0)"/>
      </g>
     </g>
    </g>
    <g id="xtick_5">
     <g id="line2d_5">
      <g>
       <use xlink:href="#m6d54edd0b3" x="230.340251" y="246.04" style="stroke: #000000; stroke-width: 0.8"/>
      </g>
     </g>
     <g id="text_5">
      <!-- 8000 -->
      <g transform="translate(217.615251 260.638438) scale(0.1 -0.1)">
       <defs>
        <path id="DejaVuSans-38" d="M 2034 2216 
Q 1584 2216 1326 1975 
Q 1069 1734 1069 1313 
Q 1069 891 1326 650 
Q 1584 409 2034 409 
Q 2484 409 2743 651 
Q 3003 894 3003 1313 
Q 3003 1734 2745 1975 
Q 2488 2216 2034 2216 
z
M 1403 2484 
Q 997 2584 770 2862 
Q 544 3141 544 3541 
Q 544 4100 942 4425 
Q 1341 4750 2034 4750 
Q 2731 4750 3128 4425 
Q 3525 4100 3525 3541 
Q 3525 3141 3298 2862 
Q 3072 2584 2669 2484 
Q 3125 2378 3379 2068 
Q 3634 1759 3634 1313 
Q 3634 634 3220 271 
Q 2806 -91 2034 -91 
Q 1263 -91 848 271 
Q 434 634 434 1313 
Q 434 1759 690 2068 
Q 947 2378 1403 2484 
z
M 1172 3481 
Q 1172 3119 1398 2916 
Q 1625 2713 2034 2713 
Q 2441 2713 2670 2916 
Q 2900 3119 2900 3481 
Q 2900 3844 2670 4047 
Q 2441 4250 2034 4250 
Q 1625 4250 1398 4047 
Q 1172 3844 1172 3481 
z
" transform="scale(0.015625)"/>
       </defs>
       <use xlink:href="#DejaVuSans-38"/>
       <use xlink:href="#DejaVuSans-30" transform="translate(63.623047 0)"/>
       <use xlink:href="#DejaVuSans-30" transform="translate(127.246094 0)"/>
       <use xlink:href="#DejaVuSans-30" transform="translate(190.869141 0)"/>
      </g>
     </g>
    </g>
    <g id="xtick_6">
     <g id="line2d_6">
      <g>
       <use xlink:href="#m6d54edd0b3" x="273.309974" y="246.04" style="stroke: #000000; stroke-width: 0.8"/>
      </g>
     </g>
     <g id="text_6">
      <!-- 10000 -->
      <g transform="translate(257.403724 260.638438) scale(0.1 -0.1)">
       <defs>
        <path id="DejaVuSans-31" d="M 794 531 
L 1825 531 
L 1825 4091 
L 703 3866 
L 703 4441 
L 1819 4666 
L 2450 4666 
L 2450 531 
L 3481 531 
L 3481 0 
L 794 0 
L 794 531 
z
" transform="scale(0.015625)"/>
       </defs>
       <use xlink:href="#DejaVuSans-31"/>
       <use xlink:href="#DejaVuSans-30" transform="translate(63.623047 0)"/>
       <use xlink:href="#DejaVuSans-30" transform="translate(127.246094 0)"/>
       <use xlink:href="#DejaVuSans-30" transform="translate(190.869141 0)"/>
       <use xlink:href="#DejaVuSans-30" transform="translate(254.492188 0)"/>
      </g>
     </g>
    </g>
    <g id="text_7">
     <!-- Ordered samples -->
     <g transform="translate(123.153829 274.316562) scale(0.1 -0.1)">
      <defs>
       <path id="DejaVuSans-4f" d="M 2522 4238 
Q 1834 4238 1429 3725 
Q 1025 3213 1025 2328 
Q 1025 1447 1429 934 
Q 1834 422 2522 422 
Q 3209 422 3611 934 
Q 4013 1447 4013 2328 
Q 4013 3213 3611 3725 
Q 3209 4238 2522 4238 
z
M 2522 4750 
Q 3503 4750 4090 4092 
Q 4678 3434 4678 2328 
Q 4678 1225 4090 567 
Q 3503 -91 2522 -91 
Q 1538 -91 948 565 
Q 359 1222 359 2328 
Q 359 3434 948 4092 
Q 1538 4750 2522 4750 
z
" transform="scale(0.015625)"/>
       <path id="DejaVuSans-72" d="M 2631 2963 
Q 2534 3019 2420 3045 
Q 2306 3072 2169 3072 
Q 1681 3072 1420 2755 
Q 1159 2438 1159 1844 
L 1159 0 
L 581 0 
L 581 3500 
L 1159 3500 
L 1159 2956 
Q 1341 3275 1631 3429 
Q 1922 3584 2338 3584 
Q 2397 3584 2469 3576 
Q 2541 3569 2628 3553 
L 2631 2963 
z
" transform="scale(0.015625)"/>
       <path id="DejaVuSans-64" d="M 2906 2969 
L 2906 4863 
L 3481 4863 
L 3481 0 
L 2906 0 
L 2906 525 
Q 2725 213 2448 61 
Q 2172 -91 1784 -91 
Q 1150 -91 751 415 
Q 353 922 353 1747 
Q 353 2572 751 3078 
Q 1150 3584 1784 3584 
Q 2172 3584 2448 3432 
Q 2725 3281 2906 2969 
z
M 947 1747 
Q 947 1113 1208 752 
Q 1469 391 1925 391 
Q 2381 391 2643 752 
Q 2906 1113 2906 1747 
Q 2906 2381 2643 2742 
Q 2381 3103 1925 3103 
Q 1469 3103 1208 2742 
Q 947 2381 947 1747 
z
" transform="scale(0.015625)"/>
       <path id="DejaVuSans-65" d="M 3597 1894 
L 3597 1613 
L 953 1613 
Q 991 1019 1311 708 
Q 1631 397 2203 397 
Q 2534 397 2845 478 
Q 3156 559 3463 722 
L 3463 178 
Q 3153 47 2828 -22 
Q 2503 -91 2169 -91 
Q 1331 -91 842 396 
Q 353 884 353 1716 
Q 353 2575 817 3079 
Q 1281 3584 2069 3584 
Q 2775 3584 3186 3129 
Q 3597 2675 3597 1894 
z
M 3022 2063 
Q 3016 2534 2758 2815 
Q 2500 3097 2075 3097 
Q 1594 3097 1305 2825 
Q 1016 2553 972 2059 
L 3022 2063 
z
" transform="scale(0.015625)"/>
       <path id="DejaVuSans-20" transform="scale(0.015625)"/>
       <path id="DejaVuSans-73" d="M 2834 3397 
L 2834 2853 
Q 2591 2978 2328 3040 
Q 2066 3103 1784 3103 
Q 1356 3103 1142 2972 
Q 928 2841 928 2578 
Q 928 2378 1081 2264 
Q 1234 2150 1697 2047 
L 1894 2003 
Q 2506 1872 2764 1633 
Q 3022 1394 3022 966 
Q 3022 478 2636 193 
Q 2250 -91 1575 -91 
Q 1294 -91 989 -36 
Q 684 19 347 128 
L 347 722 
Q 666 556 975 473 
Q 1284 391 1588 391 
Q 1994 391 2212 530 
Q 2431 669 2431 922 
Q 2431 1156 2273 1281 
Q 2116 1406 1581 1522 
L 1381 1569 
Q 847 1681 609 1914 
Q 372 2147 372 2553 
Q 372 3047 722 3315 
Q 1072 3584 1716 3584 
Q 2034 3584 2315 3537 
Q 2597 3491 2834 3397 
z
" transform="scale(0.015625)"/>
       <path id="DejaVuSans-61" d="M 2194 1759 
Q 1497 1759 1228 1600 
Q 959 1441 959 1056 
Q 959 750 1161 570 
Q 1363 391 1709 391 
Q 2188 391 2477 730 
Q 2766 1069 2766 1631 
L 2766 1759 
L 2194 1759 
z
M 3341 1997 
L 3341 0 
L 2766 0 
L 2766 531 
Q 2569 213 2275 61 
Q 1981 -91 1556 -91 
Q 1019 -91 701 211 
Q 384 513 384 1019 
Q 384 1609 779 1909 
Q 1175 2209 1959 2209 
L 2766 2209 
L 2766 2266 
Q 2766 2663 2505 2880 
Q 2244 3097 1772 3097 
Q 1472 3097 1187 3025 
Q 903 2953 641 2809 
L 641 3341 
Q 956 3463 1253 3523 
Q 1550 3584 1831 3584 
Q 2591 3584 2966 3190 
Q 3341 2797 3341 1997 
z
" transform="scale(0.015625)"/>
       <path id="DejaVuSans-6d" d="M 3328 2828 
Q 3544 3216 3844 3400 
Q 4144 3584 4550 3584 
Q 5097 3584 5394 3201 
Q 5691 2819 5691 2113 
L 5691 0 
L 5113 0 
L 5113 2094 
Q 5113 2597 4934 2840 
Q 4756 3084 4391 3084 
Q 3944 3084 3684 2787 
Q 3425 2491 3425 1978 
L 3425 0 
L 2847 0 
L 2847 2094 
Q 2847 2600 2669 2842 
Q 2491 3084 2119 3084 
Q 1678 3084 1418 2786 
Q 1159 2488 1159 1978 
L 1159 0 
L 581 0 
L 581 3500 
L 1159 3500 
L 1159 2956 
Q 1356 3278 1631 3431 
Q 1906 3584 2284 3584 
Q 2666 3584 2933 3390 
Q 3200 3197 3328 2828 
z
" transform="scale(0.015625)"/>
       <path id="DejaVuSans-70" d="M 1159 525 
L 1159 -1331 
L 581 -1331 
L 581 3500 
L 1159 3500 
L 1159 2969 
Q 1341 3281 1617 3432 
Q 1894 3584 2278 3584 
Q 2916 3584 3314 3078 
Q 3713 2572 3713 1747 
Q 3713 922 3314 415 
Q 2916 -91 2278 -91 
Q 1894 -91 1617 61 
Q 1341 213 1159 525 
z
M 3116 1747 
Q 3116 2381 2855 2742 
Q 2594 3103 2138 3103 
Q 1681 3103 1420 2742 
Q 1159 2381 1159 1747 
Q 1159 1113 1420 752 
Q 1681 391 2138 391 
Q 2594 391 2855 752 
Q 3116 1113 3116 1747 
z
" transform="scale(0.015625)"/>
       <path id="DejaVuSans-6c" d="M 603 4863 
L 1178 4863 
L 1178 0 
L 603 0 
L 603 4863 
z
" transform="scale(0.015625)"/>
      </defs>
      <use xlink:href="#DejaVuSans-4f"/>
      <use xlink:href="#DejaVuSans-72" transform="translate(78.710938 0)"/>
      <use xlink:href="#DejaVuSans-64" transform="translate(118.074219 0)"/>
      <use xlink:href="#DejaVuSans-65" transform="translate(181.550781 0)"/>
      <use xlink:href="#DejaVuSans-72" transform="translate(243.074219 0)"/>
      <use xlink:href="#DejaVuSans-65" transform="translate(281.9375 0)"/>
      <use xlink:href="#DejaVuSans-64" transform="translate(343.460938 0)"/>
      <use xlink:href="#DejaVuSans-20" transform="translate(406.9375 0)"/>
      <use xlink:href="#DejaVuSans-73" transform="translate(438.724609 0)"/>
      <use xlink:href="#DejaVuSans-61" transform="translate(490.824219 0)"/>
      <use xlink:href="#DejaVuSans-6d" transform="translate(552.103516 0)"/>
      <use xlink:href="#DejaVuSans-70" transform="translate(649.515625 0)"/>
      <use xlink:href="#DejaVuSans-6c" transform="translate(712.992188 0)"/>
      <use xlink:href="#DejaVuSans-65" transform="translate(740.775391 0)"/>
      <use xlink:href="#DejaVuSans-73" transform="translate(802.298828 0)"/>
     </g>
    </g>
   </g>
   <g id="matplotlib.axis_2">
    <g id="ytick_1">
     <g id="line2d_7">
      <defs>
       <path id="m8df4a80de6" d="M 0 0 
L -3.5 0 
" style="stroke: #000000; stroke-width: 0.8"/>
      </defs>
      <g>
       <use xlink:href="#m8df4a80de6" x="47.72" y="239.720106" style="stroke: #000000; stroke-width: 0.8"/>
      </g>
     </g>
     <g id="text_8">
      <!-- 0.1 -->
      <g transform="translate(24.816875 243.519324) scale(0.1 -0.1)">
       <defs>
        <path id="DejaVuSans-2e" d="M 684 794 
L 1344 794 
L 1344 0 
L 684 0 
L 684 794 
z
" transform="scale(0.015625)"/>
       </defs>
       <use xlink:href="#DejaVuSans-30"/>
       <use xlink:href="#DejaVuSans-2e" transform="translate(63.623047 0)"/>
       <use xlink:href="#DejaVuSans-31" transform="translate(95.410156 0)"/>
      </g>
     </g>
    </g>
    <g id="ytick_2">
     <g id="line2d_8">
      <g>
       <use xlink:href="#m8df4a80de6" x="47.72" y="215.981965" style="stroke: #000000; stroke-width: 0.8"/>
      </g>
     </g>
     <g id="text_9">
      <!-- 0.2 -->
      <g transform="translate(24.816875 219.781184) scale(0.1 -0.1)">
       <use xlink:href="#DejaVuSans-30"/>
       <use xlink:href="#DejaVuSans-2e" transform="translate(63.623047 0)"/>
       <use xlink:href="#DejaVuSans-32" transform="translate(95.410156 0)"/>
      </g>
     </g>
    </g>
    <g id="ytick_3">
     <g id="line2d_9">
      <g>
       <use xlink:href="#m8df4a80de6" x="47.72" y="192.243824" style="stroke: #000000; stroke-width: 0.8"/>
      </g>
     </g>
     <g id="text_10">
      <!-- 0.3 -->
      <g transform="translate(24.816875 196.043043) scale(0.1 -0.1)">
       <defs>
        <path id="DejaVuSans-33" d="M 2597 2516 
Q 3050 2419 3304 2112 
Q 3559 1806 3559 1356 
Q 3559 666 3084 287 
Q 2609 -91 1734 -91 
Q 1441 -91 1130 -33 
Q 819 25 488 141 
L 488 750 
Q 750 597 1062 519 
Q 1375 441 1716 441 
Q 2309 441 2620 675 
Q 2931 909 2931 1356 
Q 2931 1769 2642 2001 
Q 2353 2234 1838 2234 
L 1294 2234 
L 1294 2753 
L 1863 2753 
Q 2328 2753 2575 2939 
Q 2822 3125 2822 3475 
Q 2822 3834 2567 4026 
Q 2313 4219 1838 4219 
Q 1578 4219 1281 4162 
Q 984 4106 628 3988 
L 628 4550 
Q 988 4650 1302 4700 
Q 1616 4750 1894 4750 
Q 2613 4750 3031 4423 
Q 3450 4097 3450 3541 
Q 3450 3153 3228 2886 
Q 3006 2619 2597 2516 
z
" transform="scale(0.015625)"/>
       </defs>
       <use xlink:href="#DejaVuSans-30"/>
       <use xlink:href="#DejaVuSans-2e" transform="translate(63.623047 0)"/>
       <use xlink:href="#DejaVuSans-33" transform="translate(95.410156 0)"/>
      </g>
     </g>
    </g>
    <g id="ytick_4">
     <g id="line2d_10">
      <g>
       <use xlink:href="#m8df4a80de6" x="47.72" y="168.505684" style="stroke: #000000; stroke-width: 0.8"/>
      </g>
     </g>
     <g id="text_11">
      <!-- 0.4 -->
      <g transform="translate(24.816875 172.304903) scale(0.1 -0.1)">
       <use xlink:href="#DejaVuSans-30"/>
       <use xlink:href="#DejaVuSans-2e" transform="translate(63.623047 0)"/>
       <use xlink:href="#DejaVuSans-34" transform="translate(95.410156 0)"/>
      </g>
     </g>
    </g>
    <g id="ytick_5">
     <g id="line2d_11">
      <g>
       <use xlink:href="#m8df4a80de6" x="47.72" y="144.767543" style="stroke: #000000; stroke-width: 0.8"/>
      </g>
     </g>
     <g id="text_12">
      <!-- 0.5 -->
      <g transform="translate(24.816875 148.566762) scale(0.1 -0.1)">
       <defs>
        <path id="DejaVuSans-35" d="M 691 4666 
L 3169 4666 
L 3169 4134 
L 1269 4134 
L 1269 2991 
Q 1406 3038 1543 3061 
Q 1681 3084 1819 3084 
Q 2600 3084 3056 2656 
Q 3513 2228 3513 1497 
Q 3513 744 3044 326 
Q 2575 -91 1722 -91 
Q 1428 -91 1123 -41 
Q 819 9 494 109 
L 494 744 
Q 775 591 1075 516 
Q 1375 441 1709 441 
Q 2250 441 2565 725 
Q 2881 1009 2881 1497 
Q 2881 1984 2565 2268 
Q 2250 2553 1709 2553 
Q 1456 2553 1204 2497 
Q 953 2441 691 2322 
L 691 4666 
z
" transform="scale(0.015625)"/>
       </defs>
       <use xlink:href="#DejaVuSans-30"/>
       <use xlink:href="#DejaVuSans-2e" transform="translate(63.623047 0)"/>
       <use xlink:href="#DejaVuSans-35" transform="translate(95.410156 0)"/>
      </g>
     </g>
    </g>
    <g id="ytick_6">
     <g id="line2d_12">
      <g>
       <use xlink:href="#m8df4a80de6" x="47.72" y="121.029402" style="stroke: #000000; stroke-width: 0.8"/>
      </g>
     </g>
     <g id="text_13">
      <!-- 0.6 -->
      <g transform="translate(24.816875 124.828621) scale(0.1 -0.1)">
       <use xlink:href="#DejaVuSans-30"/>
       <use xlink:href="#DejaVuSans-2e" transform="translate(63.623047 0)"/>
       <use xlink:href="#DejaVuSans-36" transform="translate(95.410156 0)"/>
      </g>
     </g>
    </g>
    <g id="ytick_7">
     <g id="line2d_13">
      <g>
       <use xlink:href="#m8df4a80de6" x="47.72" y="97.291262" style="stroke: #000000; stroke-width: 0.8"/>
      </g>
     </g>
     <g id="text_14">
      <!-- 0.7 -->
      <g transform="translate(24.816875 101.090481) scale(0.1 -0.1)">
       <defs>
        <path id="DejaVuSans-37" d="M 525 4666 
L 3525 4666 
L 3525 4397 
L 1831 0 
L 1172 0 
L 2766 4134 
L 525 4134 
L 525 4666 
z
" transform="scale(0.015625)"/>
       </defs>
       <use xlink:href="#DejaVuSans-30"/>
       <use xlink:href="#DejaVuSans-2e" transform="translate(63.623047 0)"/>
       <use xlink:href="#DejaVuSans-37" transform="translate(95.410156 0)"/>
      </g>
     </g>
    </g>
    <g id="ytick_8">
     <g id="line2d_14">
      <g>
       <use xlink:href="#m8df4a80de6" x="47.72" y="73.553121" style="stroke: #000000; stroke-width: 0.8"/>
      </g>
     </g>
     <g id="text_15">
      <!-- 0.8 -->
      <g transform="translate(24.816875 77.35234) scale(0.1 -0.1)">
       <use xlink:href="#DejaVuSans-30"/>
       <use xlink:href="#DejaVuSans-2e" transform="translate(63.623047 0)"/>
       <use xlink:href="#DejaVuSans-38" transform="translate(95.410156 0)"/>
      </g>
     </g>
    </g>
    <g id="ytick_9">
     <g id="line2d_15">
      <g>
       <use xlink:href="#m8df4a80de6" x="47.72" y="49.81498" style="stroke: #000000; stroke-width: 0.8"/>
      </g>
     </g>
     <g id="text_16">
      <!-- 0.9 -->
      <g transform="translate(24.816875 53.614199) scale(0.1 -0.1)">
       <defs>
        <path id="DejaVuSans-39" d="M 703 97 
L 703 672 
Q 941 559 1184 500 
Q 1428 441 1663 441 
Q 2288 441 2617 861 
Q 2947 1281 2994 2138 
Q 2813 1869 2534 1725 
Q 2256 1581 1919 1581 
Q 1219 1581 811 2004 
Q 403 2428 403 3163 
Q 403 3881 828 4315 
Q 1253 4750 1959 4750 
Q 2769 4750 3195 4129 
Q 3622 3509 3622 2328 
Q 3622 1225 3098 567 
Q 2575 -91 1691 -91 
Q 1453 -91 1209 -44 
Q 966 3 703 97 
z
M 1959 2075 
Q 2384 2075 2632 2365 
Q 2881 2656 2881 3163 
Q 2881 3666 2632 3958 
Q 2384 4250 1959 4250 
Q 1534 4250 1286 3958 
Q 1038 3666 1038 3163 
Q 1038 2656 1286 2365 
Q 1534 2075 1959 2075 
z
" transform="scale(0.015625)"/>
       </defs>
       <use xlink:href="#DejaVuSans-30"/>
       <use xlink:href="#DejaVuSans-2e" transform="translate(63.623047 0)"/>
       <use xlink:href="#DejaVuSans-39" transform="translate(95.410156 0)"/>
      </g>
     </g>
    </g>
    <g id="text_17">
     <!-- Scores -->
     <g transform="translate(18.737187 157.002656) rotate(-90) scale(0.1 -0.1)">
      <defs>
       <path id="DejaVuSans-53" d="M 3425 4513 
L 3425 3897 
Q 3066 4069 2747 4153 
Q 2428 4238 2131 4238 
Q 1616 4238 1336 4038 
Q 1056 3838 1056 3469 
Q 1056 3159 1242 3001 
Q 1428 2844 1947 2747 
L 2328 2669 
Q 3034 2534 3370 2195 
Q 3706 1856 3706 1288 
Q 3706 609 3251 259 
Q 2797 -91 1919 -91 
Q 1588 -91 1214 -16 
Q 841 59 441 206 
L 441 856 
Q 825 641 1194 531 
Q 1563 422 1919 422 
Q 2459 422 2753 634 
Q 3047 847 3047 1241 
Q 3047 1584 2836 1778 
Q 2625 1972 2144 2069 
L 1759 2144 
Q 1053 2284 737 2584 
Q 422 2884 422 3419 
Q 422 4038 858 4394 
Q 1294 4750 2059 4750 
Q 2388 4750 2728 4690 
Q 3069 4631 3425 4513 
z
" transform="scale(0.015625)"/>
       <path id="DejaVuSans-63" d="M 3122 3366 
L 3122 2828 
Q 2878 2963 2633 3030 
Q 2388 3097 2138 3097 
Q 1578 3097 1268 2742 
Q 959 2388 959 1747 
Q 959 1106 1268 751 
Q 1578 397 2138 397 
Q 2388 397 2633 464 
Q 2878 531 3122 666 
L 3122 134 
Q 2881 22 2623 -34 
Q 2366 -91 2075 -91 
Q 1284 -91 818 406 
Q 353 903 353 1747 
Q 353 2603 823 3093 
Q 1294 3584 2113 3584 
Q 2378 3584 2631 3529 
Q 2884 3475 3122 3366 
z
" transform="scale(0.015625)"/>
       <path id="DejaVuSans-6f" d="M 1959 3097 
Q 1497 3097 1228 2736 
Q 959 2375 959 1747 
Q 959 1119 1226 758 
Q 1494 397 1959 397 
Q 2419 397 2687 759 
Q 2956 1122 2956 1747 
Q 2956 2369 2687 2733 
Q 2419 3097 1959 3097 
z
M 1959 3584 
Q 2709 3584 3137 3096 
Q 3566 2609 3566 1747 
Q 3566 888 3137 398 
Q 2709 -91 1959 -91 
Q 1206 -91 779 398 
Q 353 888 353 1747 
Q 353 2609 779 3096 
Q 1206 3584 1959 3584 
z
" transform="scale(0.015625)"/>
      </defs>
      <use xlink:href="#DejaVuSans-53"/>
      <use xlink:href="#DejaVuSans-63" transform="translate(63.476562 0)"/>
      <use xlink:href="#DejaVuSans-6f" transform="translate(118.457031 0)"/>
      <use xlink:href="#DejaVuSans-72" transform="translate(179.638672 0)"/>
      <use xlink:href="#DejaVuSans-65" transform="translate(218.501953 0)"/>
      <use xlink:href="#DejaVuSans-73" transform="translate(280.025391 0)"/>
     </g>
    </g>
   </g>
   <g id="line2d_16">
    <path d="M 58.461357 236.435966 
L 58.611751 234.240119 
L 58.633236 234.204338 
L 58.762145 232.792149 
L 59.191842 231.183995 
L 59.49263 230.684636 
L 59.685994 230.204931 
L 59.900842 229.990301 
L 61.770025 227.905076 
L 62.328632 227.463287 
L 62.521996 227.362595 
L 62.693874 227.276452 
L 64.004451 226.389389 
L 64.391178 226.12574 
L 66.346301 225.169633 
L 66.625604 225.016997 
L 66.883422 224.907472 
L 67.141241 224.765957 
L 67.31312 224.609055 
L 67.506483 224.477547 
L 68.752605 223.862142 
L 68.967454 223.763275 
L 69.225272 223.675792 
L 71.030001 222.878855 
L 71.309304 222.763211 
L 71.567122 222.646747 
L 71.717516 222.539646 
L 71.889395 222.335192 
L 72.512456 222.119879 
L 72.770275 222.03108 
L 73.973427 221.604688 
L 74.746882 221.351466 
L 75.198064 221.211338 
L 75.993004 220.851146 
L 76.487156 220.65382 
L 77.260611 220.369385 
L 77.475459 220.304194 
L 78.055551 220.157871 
L 78.463763 220.021949 
L 79.000885 219.7797 
L 79.258703 219.660547 
L 79.795824 219.508052 
L 80.612249 219.236596 
L 81.041946 219.06957 
L 81.493128 218.950425 
L 81.793917 218.829182 
L 82.180644 218.655477 
L 82.997069 218.392769 
L 83.362311 218.257536 
L 87.014738 216.85895 
L 87.165132 216.783231 
L 87.42295 216.671111 
L 87.723738 216.591643 
L 88.153436 216.44011 
L 88.475709 216.258589 
L 88.840951 216.131035 
L 89.335103 215.974027 
L 89.506982 215.9273 
L 91.290225 215.259023 
L 91.505074 215.161274 
L 94.083257 214.214474 
L 94.255136 214.064151 
L 99.08923 212.419803 
L 99.583382 212.309986 
L 99.88417 212.205732 
L 100.507231 212.047475 
L 102.440869 211.355089 
L 102.720172 211.247984 
L 103.214324 211.108361 
L 103.493627 210.980737 
L 104.675294 210.659674 
L 104.933113 210.573086 
L 105.642113 210.371522 
L 105.921416 210.265631 
L 106.329629 210.142534 
L 107.296447 209.886429 
L 113.741906 207.932869 
L 113.999724 207.867217 
L 115.245846 207.526876 
L 119.349455 206.307951 
L 119.499849 206.235515 
L 120.617062 205.926468 
L 121.046759 205.809785 
L 121.218638 205.749386 
L 121.691305 205.588388 
L 121.927638 205.548442 
L 123.302669 205.126846 
L 124.162064 204.821988 
L 129.834067 202.915172 
L 130.027431 202.842778 
L 130.414159 202.752168 
L 130.564553 202.631859 
L 137.26783 200.506193 
L 137.461193 200.376368 
L 137.890891 200.16431 
L 138.191679 200.070876 
L 139.760074 199.579183 
L 139.910468 199.500097 
L 140.619468 199.319761 
L 141.285499 199.150892 
L 145.152774 197.819503 
L 145.646926 197.591095 
L 146.098108 197.395853 
L 146.291472 197.305971 
L 146.656714 197.189928 
L 147.30126 196.981208 
L 147.516109 196.878607 
L 148.762231 196.502936 
L 148.955594 196.386631 
L 149.772019 196.031638 
L 149.943898 195.953182 
L 150.523989 195.719956 
L 151.039626 195.581352 
L 151.576748 195.255104 
L 152.350203 195.016855 
L 152.608021 194.854078 
L 154.348295 194.197365 
L 154.541659 194.105955 
L 155.164719 193.835729 
L 155.422538 193.678831 
L 155.766296 193.534397 
L 156.174508 193.384418 
L 157.699933 192.667189 
L 158.108146 192.503081 
L 158.301509 192.419213 
L 158.451903 192.326119 
L 158.645267 192.24929 
L 159.71951 191.818933 
L 160.407026 191.543756 
L 160.879693 191.379139 
L 161.244935 191.171855 
L 161.996906 190.854662 
L 162.383633 190.701711 
L 162.770361 190.57009 
L 163.264512 190.342842 
L 164.145392 190.065189 
L 164.317271 189.961073 
L 164.703998 189.847371 
L 165.498938 189.515817 
L 166.272393 189.128657 
L 166.916939 188.811188 
L 169.495122 187.86582 
L 171.020547 187.145259 
L 171.192426 187.057373 
L 171.751033 186.866318 
L 172.760821 186.435374 
L 173.126064 186.295207 
L 173.448337 186.141173 
L 174.307731 185.672274 
L 174.780398 185.495779 
L 179.571522 183.524698 
L 179.872311 183.388196 
L 180.151614 183.29426 
L 180.323493 183.227003 
L 180.559826 183.119513 
L 180.989523 182.961659 
L 181.247342 182.792705 
L 181.934857 182.504687 
L 182.149706 182.402602 
L 182.34307 182.294829 
L 182.600888 182.188103 
L 183.546222 181.785004 
L 184.319677 181.338581 
L 184.448586 181.223549 
L 184.706404 181.051546 
L 185.522829 180.652133 
L 185.737678 180.566149 
L 188.294376 179.346439 
L 188.702589 179.207057 
L 188.874468 179.104009 
L 189.561983 178.787 
L 189.884256 178.602462 
L 190.335438 178.426624 
L 190.82959 178.216533 
L 194.331623 176.519476 
L 194.460532 176.389277 
L 194.67538 176.226428 
L 198.349292 174.36242 
L 199.273141 174.008836 
L 199.874717 173.656327 
L 200.132535 173.524352 
L 200.282929 173.344496 
L 200.562232 173.074342 
L 200.99193 172.838867 
L 201.400142 172.67292 
L 201.65796 172.420409 
L 202.044688 172.229715 
L 202.238052 172.071557 
L 202.732203 171.853492 
L 202.925567 171.718553 
L 203.183386 171.598442 
L 203.419719 171.454702 
L 203.570113 171.325168 
L 204.04278 171.075961 
L 204.236144 170.950855 
L 204.450992 170.877612 
L 205.503751 170.214872 
L 205.654145 170.096048 
L 205.933448 169.904895 
L 206.363145 169.676204 
L 207.415903 169.296387 
L 207.738176 169.178462 
L 208.103419 169.021761 
L 208.468662 168.860243 
L 208.662025 168.704611 
L 209.027268 168.546488 
L 210.23042 167.871551 
L 210.488239 167.696506 
L 210.767542 167.529894 
L 211.06833 167.307556 
L 211.712876 166.845371 
L 211.949209 166.788393 
L 212.121088 166.609485 
L 212.636725 166.359514 
L 212.765634 166.24362 
L 213.453149 165.743763 
L 213.796907 165.540406 
L 213.990271 165.437471 
L 214.462938 165.140992 
L 214.634817 165.002707 
L 215.472727 164.486034 
L 215.623121 164.40704 
L 215.773515 164.221206 
L 216.654394 163.738307 
L 216.804788 163.612034 
L 217.836061 162.946916 
L 218.136849 162.834565 
L 219.189608 161.960155 
L 219.275547 161.853535 
L 219.59782 161.660556 
L 219.726729 161.557721 
L 221.058791 160.446562 
L 221.1877 160.376362 
L 221.338094 160.22878 
L 221.424033 160.12228 
L 221.85373 159.876236 
L 222.090064 159.757688 
L 222.218973 159.597372 
L 222.562731 159.36126 
L 223.013913 159.092966 
L 223.228762 158.965936 
L 223.701429 158.72674 
L 223.851823 158.648574 
L 225.291308 157.597866 
L 225.849915 157.189157 
L 227.310885 155.890368 
L 227.504249 155.750321 
L 227.762067 155.55742 
L 228.793341 154.86706 
L 228.986705 154.659522 
L 229.910554 153.726889 
L 230.017978 153.662235 
L 230.254311 153.323712 
L 230.51213 153.041269 
L 230.748463 152.874063 
L 230.898857 152.743375 
L 231.070736 152.620689 
L 232.05904 151.661384 
L 232.252404 151.506756 
L 232.531707 151.284362 
L 232.682101 151.063672 
L 233.047343 150.779029 
L 233.262192 150.473672 
L 233.498526 150.285426 
L 233.691889 150.004695 
L 234.035647 149.745138 
L 234.186041 149.624376 
L 234.379405 149.383977 
L 234.529799 149.222628 
L 234.787617 148.95432 
L 236.377497 147.637102 
L 236.527891 147.489202 
L 236.61383 147.400028 
L 236.785709 147.111508 
L 237.000558 146.912586 
L 237.150952 146.787926 
L 237.279861 146.671932 
L 237.752528 146.121556 
L 237.924407 145.956012 
L 238.010347 145.84091 
L 238.096286 145.691454 
L 238.891226 144.834801 
L 239.063105 144.61571 
L 241.211591 142.713047 
L 241.705743 142.011778 
L 242.694046 140.834253 
L 242.865925 140.657333 
L 243.080774 140.298486 
L 243.166713 140.248893 
L 243.317107 140.073714 
L 243.403047 139.941774 
L 243.574926 139.810853 
L 244.584714 138.675577 
L 244.971442 138.382282 
L 245.379654 137.88002 
L 245.551533 137.7149 
L 245.787866 137.527567 
L 245.916776 137.350775 
L 246.303503 136.943396 
L 246.711716 136.540912 
L 246.86211 136.417533 
L 247.270322 135.909724 
L 247.420716 135.595715 
L 248.065262 134.890895 
L 248.172686 134.785795 
L 248.451989 134.378671 
L 248.559414 134.270856 
L 248.752777 133.973853 
L 248.924656 133.810941 
L 249.096535 133.508166 
L 249.139505 133.490069 
L 249.289899 133.224747 
L 249.569202 132.877345 
L 249.762566 132.685159 
L 249.977415 132.308639 
L 250.063354 132.253897 
L 250.235233 131.924875 
L 250.407112 131.725416 
L 250.643445 131.328026 
L 250.75087 131.259474 
L 250.922748 131.08271 
L 251.008688 130.94146 
L 251.266506 130.498369 
L 252.426689 128.960836 
L 252.577083 128.831599 
L 252.813416 128.342155 
L 253.114204 127.815726 
L 253.414992 127.442447 
L 255.133781 125.037139 
L 255.176751 124.952825 
L 255.756842 123.751048 
L 255.993176 123.506879 
L 256.680691 122.220901 
L 257.239298 121.644512 
L 257.411177 121.340973 
L 257.73345 120.894684 
L 258.055723 120.163532 
L 258.743238 119.42184 
L 259.301845 118.14131 
L 259.409269 117.925566 
L 259.903421 116.964492 
L 260.719845 115.45687 
L 261.149543 114.481974 
L 261.192512 114.476059 
L 261.342906 114.13269 
L 261.643694 113.430347 
L 261.901513 112.876667 
L 261.987452 112.767549 
L 262.137846 112.363849 
L 262.202301 112.323765 
L 262.352695 111.981669 
L 262.438634 111.905236 
L 262.610513 111.674932 
L 262.782392 111.508059 
L 262.932786 111.246188 
L 263.061695 111.074971 
L 263.212089 110.449895 
L 263.405453 110.147672 
L 263.641787 109.618738 
L 264.049999 108.984975 
L 264.092969 108.912984 
L 264.436726 107.856504 
L 264.544151 107.704091 
L 264.930878 106.827657 
L 265.038303 106.69276 
L 265.317606 106.210476 
L 265.42503 106.110202 
L 266.671152 102.421181 
L 267.272728 100.891727 
L 267.337183 100.842036 
L 267.509062 100.295812 
L 267.595001 100.133707 
L 267.960244 98.45283 
L 268.046183 98.27533 
L 268.261032 97.345753 
L 268.647759 96.718738 
L 269.829427 92.021839 
L 269.915366 91.89645 
L 269.979821 91.507196 
L 270.1517 90.952044 
L 270.388033 90.042813 
L 270.559912 88.616223 
L 270.90367 86.637226 
L 271.075549 85.623957 
L 271.311882 84.779896 
L 271.354852 84.653432 
L 271.591185 83.145272 
L 271.65564 82.99092 
L 272.901762 68.441044 
L 273.073641 62.749085 
L 273.095126 62.430548 
L 273.28849 44.355284 
L 273.28849 44.355284 
" clip-path="url(#p773daa6348)" style="fill: none; stroke: #1f77b4; stroke-width: 1.5; stroke-linecap: square"/>
   </g>
   <g id="line2d_17">
    <path d="M 58.461357 235.600685 
L 58.976993 231.190698 
L 59.148872 230.619052 
L 59.277781 230.408684 
L 59.5356 229.909729 
L 61.168449 227.973993 
L 61.340328 227.801413 
L 61.533692 227.666715 
L 61.705571 227.589482 
L 61.898935 227.334962 
L 62.006359 227.228317 
L 64.025936 225.432051 
L 64.820876 224.778748 
L 65.164634 224.448028 
L 65.508391 224.243101 
L 65.809179 224.085283 
L 66.174422 223.843826 
L 66.324816 223.649248 
L 66.496695 223.566289 
L 66.711544 223.384789 
L 66.883422 223.293209 
L 67.119756 223.155829 
L 68.172514 222.338369 
L 68.344393 222.222166 
L 68.988939 221.847599 
L 69.268242 221.673781 
L 69.805364 221.274322 
L 72.813244 219.416986 
L 72.963638 219.223038 
L 73.608184 218.913623 
L 73.758578 218.763021 
L 73.930457 218.702282 
L 74.467579 218.295926 
L 75.133609 217.960972 
L 75.284003 217.848661 
L 75.627761 217.686622 
L 76.121913 217.48635 
L 76.358247 217.309604 
L 77.067247 216.882925 
L 77.453974 216.598565 
L 82.416978 213.721575 
L 82.631826 213.47761 
L 82.82519 213.33843 
L 83.598645 212.887546 
L 83.963888 212.649969 
L 84.049827 212.594003 
L 84.200221 212.463107 
L 84.393585 212.355252 
L 84.909221 212.004519 
L 85.059616 211.875462 
L 85.360404 211.685352 
L 85.618222 211.501574 
L 85.768616 211.38593 
L 86.219798 211.147681 
L 86.391677 210.99363 
L 86.649495 210.678323 
L 87.014738 210.454563 
L 87.788193 209.791175 
L 88.110466 209.445036 
L 88.21789 209.347868 
L 88.712042 208.848814 
L 88.883921 208.738455 
L 89.120254 208.534984 
L 89.464012 208.144577 
L 90.258952 207.498936 
L 90.452316 207.387186 
L 90.817558 207.105087 
L 91.010922 206.860301 
L 91.225771 206.732083 
L 91.505074 206.473488 
L 91.698438 206.352347 
L 92.06368 206.058819 
L 92.364469 205.665235 
L 92.600802 205.524226 
L 93.030499 205.107568 
L 94.298106 203.756233 
L 96.145804 201.867634 
L 96.446592 201.611593 
L 96.596986 201.423637 
L 97.091138 200.699377 
L 97.177078 200.534003 
L 97.348956 200.315938 
L 97.886078 199.736683 
L 98.057957 199.480777 
L 98.229836 199.296578 
L 98.38023 199.102276 
L 98.530624 198.899393 
L 98.745472 198.60943 
L 98.981806 198.306074 
L 99.325564 197.821902 
L 99.475958 197.591308 
L 99.583382 197.489498 
L 100.163473 196.769815 
L 100.335352 196.4194 
L 100.657625 196.068942 
L 101.044353 195.560143 
L 101.151777 195.42248 
L 101.47405 194.594061 
L 101.710383 194.266221 
L 102.26899 193.48322 
L 102.462354 192.940336 
L 102.569778 192.83586 
L 102.763142 192.385078 
L 102.935021 192.149992 
L 103.278778 191.282727 
L 103.708476 190.149467 
L 103.85887 189.800121 
L 104.374506 188.624053 
L 104.546385 187.889364 
L 104.696779 187.364838 
L 104.954598 186.892961 
L 105.169446 186.303364 
L 105.556174 184.951508 
L 105.749537 184.417524 
L 105.856962 184.144582 
L 106.007356 183.126438 
L 106.136265 182.699406 
L 106.415568 181.577416 
L 108.177327 175.772832 
L 108.327721 174.013031 
L 109.187115 168.878566 
L 109.337509 167.679888 
L 109.573843 166.125263 
L 109.788691 164.003941 
L 109.831661 163.799452 
L 110.04651 161.631848 
L 110.067995 161.611346 
L 110.261358 160.108733 
L 110.304328 160.079954 
L 110.927389 153.317684 
L 111.400056 144.892132 
L 111.958662 120.703771 
L 112.152026 84.65612 
L 112.152026 84.65612 
" clip-path="url(#p773daa6348)" style="fill: none; stroke: #ff7f0e; stroke-width: 1.5; stroke-linecap: square"/>
   </g>
   <g id="patch_3">
    <path d="M 47.72 246.04 
L 47.72 34.75125 
" style="fill: none; stroke: #000000; stroke-width: 0.8; stroke-linejoin: miter; stroke-linecap: square"/>
   </g>
   <g id="patch_4">
    <path d="M 284.029846 246.04 
L 284.029846 34.75125 
" style="fill: none; stroke: #000000; stroke-width: 0.8; stroke-linejoin: miter; stroke-linecap: square"/>
   </g>
   <g id="patch_5">
    <path d="M 47.72 246.04 
L 284.029846 246.04 
" style="fill: none; stroke: #000000; stroke-width: 0.8; stroke-linejoin: miter; stroke-linecap: square"/>
   </g>
   <g id="patch_6">
    <path d="M 47.72 34.75125 
L 284.029846 34.75125 
" style="fill: none; stroke: #000000; stroke-width: 0.8; stroke-linejoin: miter; stroke-linecap: square"/>
   </g>
   <g id="legend_1">
    <g id="patch_7">
     <path d="M 54.72 72.1075 
L 154.909063 72.1075 
Q 156.909063 72.1075 156.909063 70.1075 
L 156.909063 41.75125 
Q 156.909063 39.75125 154.909063 39.75125 
L 54.72 39.75125 
Q 52.72 39.75125 52.72 41.75125 
L 52.72 70.1075 
Q 52.72 72.1075 54.72 72.1075 
z
" style="fill: #ffffff; opacity: 0.8; stroke: #cccccc; stroke-linejoin: miter"/>
    </g>
    <g id="line2d_18">
     <path d="M 56.72 47.849687 
L 66.72 47.849687 
L 76.72 47.849687 
" style="fill: none; stroke: #1f77b4; stroke-width: 1.5; stroke-linecap: square"/>
    </g>
    <g id="text_18">
     <!-- ID samples -->
     <g transform="translate(84.72 51.349687) scale(0.1 -0.1)">
      <defs>
       <path id="DejaVuSans-49" d="M 628 4666 
L 1259 4666 
L 1259 0 
L 628 0 
L 628 4666 
z
" transform="scale(0.015625)"/>
       <path id="DejaVuSans-44" d="M 1259 4147 
L 1259 519 
L 2022 519 
Q 2988 519 3436 956 
Q 3884 1394 3884 2338 
Q 3884 3275 3436 3711 
Q 2988 4147 2022 4147 
L 1259 4147 
z
M 628 4666 
L 1925 4666 
Q 3281 4666 3915 4102 
Q 4550 3538 4550 2338 
Q 4550 1131 3912 565 
Q 3275 0 1925 0 
L 628 0 
L 628 4666 
z
" transform="scale(0.015625)"/>
      </defs>
      <use xlink:href="#DejaVuSans-49"/>
      <use xlink:href="#DejaVuSans-44" transform="translate(29.492188 0)"/>
      <use xlink:href="#DejaVuSans-20" transform="translate(106.494141 0)"/>
      <use xlink:href="#DejaVuSans-73" transform="translate(138.28125 0)"/>
      <use xlink:href="#DejaVuSans-61" transform="translate(190.380859 0)"/>
      <use xlink:href="#DejaVuSans-6d" transform="translate(251.660156 0)"/>
      <use xlink:href="#DejaVuSans-70" transform="translate(349.072266 0)"/>
      <use xlink:href="#DejaVuSans-6c" transform="translate(412.548828 0)"/>
      <use xlink:href="#DejaVuSans-65" transform="translate(440.332031 0)"/>
      <use xlink:href="#DejaVuSans-73" transform="translate(501.855469 0)"/>
     </g>
    </g>
    <g id="line2d_19">
     <path d="M 56.72 62.527812 
L 66.72 62.527812 
L 76.72 62.527812 
" style="fill: none; stroke: #ff7f0e; stroke-width: 1.5; stroke-linecap: square"/>
    </g>
    <g id="text_19">
     <!-- OOD samples -->
     <g transform="translate(84.72 66.027812) scale(0.1 -0.1)">
      <use xlink:href="#DejaVuSans-4f"/>
      <use xlink:href="#DejaVuSans-4f" transform="translate(78.710938 0)"/>
      <use xlink:href="#DejaVuSans-44" transform="translate(157.421875 0)"/>
      <use xlink:href="#DejaVuSans-20" transform="translate(234.423828 0)"/>
      <use xlink:href="#DejaVuSans-73" transform="translate(266.210938 0)"/>
      <use xlink:href="#DejaVuSans-61" transform="translate(318.310547 0)"/>
      <use xlink:href="#DejaVuSans-6d" transform="translate(379.589844 0)"/>
      <use xlink:href="#DejaVuSans-70" transform="translate(477.001953 0)"/>
      <use xlink:href="#DejaVuSans-6c" transform="translate(540.478516 0)"/>
      <use xlink:href="#DejaVuSans-65" transform="translate(568.261719 0)"/>
      <use xlink:href="#DejaVuSans-73" transform="translate(629.785156 0)"/>
     </g>
    </g>
   </g>
  </g>
  <g id="axes_2">
   <g id="patch_8">
    <path d="M 328.890154 246.04 
L 565.2 246.04 
L 565.2 34.75125 
L 328.890154 34.75125 
z
" style="fill: #ffffff"/>
   </g>
   <g id="patch_9">
    <path d="M 339.63151 246.04 
L 348.224597 246.04 
L 348.224597 236.023768 
L 339.63151 236.023768 
z
" clip-path="url(#pfbd3befa7a)" style="fill: #1f77b4; opacity: 0.5"/>
   </g>
   <g id="patch_10">
    <path d="M 348.224597 246.04 
L 356.817681 246.04 
L 356.817681 185.588037 
L 348.224597 185.588037 
z
" clip-path="url(#pfbd3befa7a)" style="fill: #1f77b4; opacity: 0.5"/>
   </g>
   <g id="patch_11">
    <path d="M 356.817681 246.04 
L 365.410765 246.04 
L 365.410765 160.68041 
L 356.817681 160.68041 
z
" clip-path="url(#pfbd3befa7a)" style="fill: #1f77b4; opacity: 0.5"/>
   </g>
   <g id="patch_12">
    <path d="M 365.410765 246.04 
L 374.003854 246.04 
L 374.003854 142.154857 
L 365.410765 142.154857 
z
" clip-path="url(#pfbd3befa7a)" style="fill: #1f77b4; opacity: 0.5"/>
   </g>
   <g id="patch_13">
    <path d="M 374.003854 246.04 
L 382.596934 246.04 
L 382.596934 150.398214 
L 374.003854 150.398214 
z
" clip-path="url(#pfbd3befa7a)" style="fill: #1f77b4; opacity: 0.5"/>
   </g>
   <g id="patch_14">
    <path d="M 382.596934 246.04 
L 391.190022 246.04 
L 391.190022 168.835256 
L 382.596934 168.835256 
z
" clip-path="url(#pfbd3befa7a)" style="fill: #1f77b4; opacity: 0.5"/>
   </g>
   <g id="patch_15">
    <path d="M 391.190022 246.04 
L 399.78311 246.04 
L 399.78311 170.696679 
L 391.190022 170.696679 
z
" clip-path="url(#pfbd3befa7a)" style="fill: #1f77b4; opacity: 0.5"/>
   </g>
   <g id="patch_16">
    <path d="M 399.78311 246.04 
L 408.376191 246.04 
L 408.376191 182.485635 
L 399.78311 182.485635 
z
" clip-path="url(#pfbd3befa7a)" style="fill: #1f77b4; opacity: 0.5"/>
   </g>
   <g id="patch_17">
    <path d="M 408.376191 246.04 
L 416.969279 246.04 
L 416.969279 187.715406 
L 408.376191 187.715406 
z
" clip-path="url(#pfbd3befa7a)" style="fill: #1f77b4; opacity: 0.5"/>
   </g>
   <g id="patch_18">
    <path d="M 416.969279 246.04 
L 425.562359 246.04 
L 425.562359 200.30213 
L 416.969279 200.30213 
z
" clip-path="url(#pfbd3befa7a)" style="fill: #1f77b4; opacity: 0.5"/>
   </g>
   <g id="patch_19">
    <path d="M 425.562359 246.04 
L 434.155448 246.04 
L 434.155448 206.418277 
L 425.562359 206.418277 
z
" clip-path="url(#pfbd3befa7a)" style="fill: #1f77b4; opacity: 0.5"/>
   </g>
   <g id="patch_20">
    <path d="M 434.155448 246.04 
L 442.748536 246.04 
L 442.748536 214.573084 
L 434.155448 214.573084 
z
" clip-path="url(#pfbd3befa7a)" style="fill: #1f77b4; opacity: 0.5"/>
   </g>
   <g id="patch_21">
    <path d="M 442.748536 246.04 
L 451.341616 246.04 
L 451.341616 215.991283 
L 442.748536 215.991283 
z
" clip-path="url(#pfbd3befa7a)" style="fill: #1f77b4; opacity: 0.5"/>
   </g>
   <g id="patch_22">
    <path d="M 451.341616 246.04 
L 459.934712 246.04 
L 459.934712 221.93016 
L 451.341616 221.93016 
z
" clip-path="url(#pfbd3befa7a)" style="fill: #1f77b4; opacity: 0.5"/>
   </g>
   <g id="patch_23">
    <path d="M 459.934712 246.04 
L 468.527793 246.04 
L 468.527793 225.209769 
L 459.934712 225.209769 
z
" clip-path="url(#pfbd3befa7a)" style="fill: #1f77b4; opacity: 0.5"/>
   </g>
   <g id="patch_24">
    <path d="M 468.527793 246.04 
L 477.120873 246.04 
L 477.120873 229.375815 
L 468.527793 229.375815 
z
" clip-path="url(#pfbd3befa7a)" style="fill: #1f77b4; opacity: 0.5"/>
   </g>
   <g id="patch_25">
    <path d="M 477.120873 246.04 
L 485.713953 246.04 
L 485.713953 230.084929 
L 477.120873 230.084929 
z
" clip-path="url(#pfbd3befa7a)" style="fill: #1f77b4; opacity: 0.5"/>
   </g>
   <g id="patch_26">
    <path d="M 485.713953 246.04 
L 494.307049 246.04 
L 494.307049 235.491945 
L 485.713953 235.491945 
z
" clip-path="url(#pfbd3befa7a)" style="fill: #1f77b4; opacity: 0.5"/>
   </g>
   <g id="patch_27">
    <path d="M 494.307049 246.04 
L 502.90013 246.04 
L 502.90013 236.644236 
L 494.307049 236.644236 
z
" clip-path="url(#pfbd3befa7a)" style="fill: #1f77b4; opacity: 0.5"/>
   </g>
   <g id="patch_28">
    <path d="M 502.90013 246.04 
L 511.49321 246.04 
L 511.49321 240.544364 
L 502.90013 240.544364 
z
" clip-path="url(#pfbd3befa7a)" style="fill: #1f77b4; opacity: 0.5"/>
   </g>
   <g id="patch_29">
    <path d="M 511.49321 246.04 
L 520.086306 246.04 
L 520.086306 243.02627 
L 511.49321 243.02627 
z
" clip-path="url(#pfbd3befa7a)" style="fill: #1f77b4; opacity: 0.5"/>
   </g>
   <g id="patch_30">
    <path d="M 520.086306 246.04 
L 528.679387 246.04 
L 528.679387 243.912657 
L 520.086306 243.912657 
z
" clip-path="url(#pfbd3befa7a)" style="fill: #1f77b4; opacity: 0.5"/>
   </g>
   <g id="patch_31">
    <path d="M 528.679387 246.04 
L 537.272467 246.04 
L 537.272467 245.153607 
L 528.679387 245.153607 
z
" clip-path="url(#pfbd3befa7a)" style="fill: #1f77b4; opacity: 0.5"/>
   </g>
   <g id="patch_32">
    <path d="M 537.272467 246.04 
L 545.865563 246.04 
L 545.865563 245.596804 
L 537.272467 245.596804 
z
" clip-path="url(#pfbd3befa7a)" style="fill: #1f77b4; opacity: 0.5"/>
   </g>
   <g id="patch_33">
    <path d="M 545.865563 246.04 
L 554.458643 246.04 
L 554.458643 245.774082 
L 545.865563 245.774082 
z
" clip-path="url(#pfbd3befa7a)" style="fill: #1f77b4; opacity: 0.5"/>
   </g>
   <g id="patch_34">
    <path d="M 340.565707 246.04 
L 347.318493 246.04 
L 347.318493 218.96906 
L 340.565707 218.96906 
z
" clip-path="url(#pfbd3befa7a)" style="fill: #ff7f0e; opacity: 0.5"/>
   </g>
   <g id="patch_35">
    <path d="M 347.318493 246.04 
L 354.071277 246.04 
L 354.071277 103.46634 
L 347.318493 103.46634 
z
" clip-path="url(#pfbd3befa7a)" style="fill: #ff7f0e; opacity: 0.5"/>
   </g>
   <g id="patch_36">
    <path d="M 354.071277 246.04 
L 360.824062 246.04 
L 360.824062 44.812619 
L 354.071277 44.812619 
z
" clip-path="url(#pfbd3befa7a)" style="fill: #ff7f0e; opacity: 0.5"/>
   </g>
   <g id="patch_37">
    <path d="M 360.824062 246.04 
L 367.576846 246.04 
L 367.576846 46.166166 
L 360.824062 46.166166 
z
" clip-path="url(#pfbd3befa7a)" style="fill: #ff7f0e; opacity: 0.5"/>
   </g>
   <g id="patch_38">
    <path d="M 367.576846 246.04 
L 374.329634 246.04 
L 374.329634 96.247508 
L 367.576846 96.247508 
z
" clip-path="url(#pfbd3befa7a)" style="fill: #ff7f0e; opacity: 0.5"/>
   </g>
   <g id="patch_39">
    <path d="M 374.329634 246.04 
L 381.082419 246.04 
L 381.082419 133.695565 
L 374.329634 133.695565 
z
" clip-path="url(#pfbd3befa7a)" style="fill: #ff7f0e; opacity: 0.5"/>
   </g>
   <g id="patch_40">
    <path d="M 381.082419 246.04 
L 387.835203 246.04 
L 387.835203 158.059419 
L 381.082419 158.059419 
z
" clip-path="url(#pfbd3befa7a)" style="fill: #ff7f0e; opacity: 0.5"/>
   </g>
   <g id="patch_41">
    <path d="M 387.835203 246.04 
L 394.587987 246.04 
L 394.587987 195.507564 
L 387.835203 195.507564 
z
" clip-path="url(#pfbd3befa7a)" style="fill: #ff7f0e; opacity: 0.5"/>
   </g>
   <g id="patch_42">
    <path d="M 394.587987 246.04 
L 401.340771 246.04 
L 401.340771 208.140673 
L 394.587987 208.140673 
z
" clip-path="url(#pfbd3befa7a)" style="fill: #ff7f0e; opacity: 0.5"/>
   </g>
   <g id="patch_43">
    <path d="M 401.340771 246.04 
L 408.093556 246.04 
L 408.093556 210.847767 
L 401.340771 210.847767 
z
" clip-path="url(#pfbd3befa7a)" style="fill: #ff7f0e; opacity: 0.5"/>
   </g>
   <g id="patch_44">
    <path d="M 408.093556 246.04 
L 414.84634 246.04 
L 414.84634 225.736789 
L 408.093556 225.736789 
z
" clip-path="url(#pfbd3befa7a)" style="fill: #ff7f0e; opacity: 0.5"/>
   </g>
   <g id="patch_45">
    <path d="M 414.84634 246.04 
L 421.599124 246.04 
L 421.599124 231.150979 
L 414.84634 231.150979 
z
" clip-path="url(#pfbd3befa7a)" style="fill: #ff7f0e; opacity: 0.5"/>
   </g>
   <g id="patch_46">
    <path d="M 421.599124 246.04 
L 428.351909 246.04 
L 428.351909 227.992701 
L 421.599124 227.992701 
z
" clip-path="url(#pfbd3befa7a)" style="fill: #ff7f0e; opacity: 0.5"/>
   </g>
   <g id="patch_47">
    <path d="M 428.351909 246.04 
L 435.104693 246.04 
L 435.104693 238.369898 
L 428.351909 238.369898 
z
" clip-path="url(#pfbd3befa7a)" style="fill: #ff7f0e; opacity: 0.5"/>
   </g>
   <g id="patch_48">
    <path d="M 435.104693 246.04 
L 441.857477 246.04 
L 441.857477 239.723445 
L 435.104693 239.723445 
z
" clip-path="url(#pfbd3befa7a)" style="fill: #ff7f0e; opacity: 0.5"/>
   </g>
   <g id="patch_49">
    <path d="M 441.857477 246.04 
L 448.610262 246.04 
L 448.610262 241.076993 
L 441.857477 241.076993 
z
" clip-path="url(#pfbd3befa7a)" style="fill: #ff7f0e; opacity: 0.5"/>
   </g>
   <g id="patch_50">
    <path d="M 448.610262 246.04 
L 455.363054 246.04 
L 455.363054 241.979363 
L 448.610262 241.979363 
z
" clip-path="url(#pfbd3befa7a)" style="fill: #ff7f0e; opacity: 0.5"/>
   </g>
   <g id="patch_51">
    <path d="M 455.363054 246.04 
L 462.11583 246.04 
L 462.11583 244.235268 
L 455.363054 244.235268 
z
" clip-path="url(#pfbd3befa7a)" style="fill: #ff7f0e; opacity: 0.5"/>
   </g>
   <g id="patch_52">
    <path d="M 462.11583 246.04 
L 468.868622 246.04 
L 468.868622 245.137636 
L 462.11583 245.137636 
z
" clip-path="url(#pfbd3befa7a)" style="fill: #ff7f0e; opacity: 0.5"/>
   </g>
   <g id="patch_53">
    <path d="M 468.868622 246.04 
L 475.621415 246.04 
L 475.621415 245.588818 
L 468.868622 245.588818 
z
" clip-path="url(#pfbd3befa7a)" style="fill: #ff7f0e; opacity: 0.5"/>
   </g>
   <g id="patch_54">
    <path d="M 475.621415 246.04 
L 482.374191 246.04 
L 482.374191 244.686451 
L 475.621415 244.686451 
z
" clip-path="url(#pfbd3befa7a)" style="fill: #ff7f0e; opacity: 0.5"/>
   </g>
   <g id="patch_55">
    <path d="M 482.374191 246.04 
L 489.126983 246.04 
L 489.126983 246.04 
L 482.374191 246.04 
z
" clip-path="url(#pfbd3befa7a)" style="fill: #ff7f0e; opacity: 0.5"/>
   </g>
   <g id="patch_56">
    <path d="M 489.126983 246.04 
L 495.87976 246.04 
L 495.87976 244.686451 
L 489.126983 244.686451 
z
" clip-path="url(#pfbd3befa7a)" style="fill: #ff7f0e; opacity: 0.5"/>
   </g>
   <g id="patch_57">
    <path d="M 495.87976 246.04 
L 502.632552 246.04 
L 502.632552 245.588818 
L 495.87976 245.588818 
z
" clip-path="url(#pfbd3befa7a)" style="fill: #ff7f0e; opacity: 0.5"/>
   </g>
   <g id="patch_58">
    <path d="M 502.632552 246.04 
L 509.385328 246.04 
L 509.385328 245.137634 
L 502.632552 245.137634 
z
" clip-path="url(#pfbd3befa7a)" style="fill: #ff7f0e; opacity: 0.5"/>
   </g>
   <g id="matplotlib.axis_3">
    <g id="xtick_7">
     <g id="line2d_20">
      <g>
       <use xlink:href="#m6d54edd0b3" x="362.507701" y="246.04" style="stroke: #000000; stroke-width: 0.8"/>
      </g>
     </g>
     <g id="text_20">
      <!-- 0.2 -->
      <g transform="translate(354.556139 260.638438) scale(0.1 -0.1)">
       <use xlink:href="#DejaVuSans-30"/>
       <use xlink:href="#DejaVuSans-2e" transform="translate(63.623047 0)"/>
       <use xlink:href="#DejaVuSans-32" transform="translate(95.410156 0)"/>
      </g>
     </g>
    </g>
    <g id="xtick_8">
     <g id="line2d_21">
      <g>
       <use xlink:href="#m6d54edd0b3" x="415.606187" y="246.04" style="stroke: #000000; stroke-width: 0.8"/>
      </g>
     </g>
     <g id="text_21">
      <!-- 0.4 -->
      <g transform="translate(407.654625 260.638438) scale(0.1 -0.1)">
       <use xlink:href="#DejaVuSans-30"/>
       <use xlink:href="#DejaVuSans-2e" transform="translate(63.623047 0)"/>
       <use xlink:href="#DejaVuSans-34" transform="translate(95.410156 0)"/>
      </g>
     </g>
    </g>
    <g id="xtick_9">
     <g id="line2d_22">
      <g>
       <use xlink:href="#m6d54edd0b3" x="468.704673" y="246.04" style="stroke: #000000; stroke-width: 0.8"/>
      </g>
     </g>
     <g id="text_22">
      <!-- 0.6 -->
      <g transform="translate(460.753111 260.638438) scale(0.1 -0.1)">
       <use xlink:href="#DejaVuSans-30"/>
       <use xlink:href="#DejaVuSans-2e" transform="translate(63.623047 0)"/>
       <use xlink:href="#DejaVuSans-36" transform="translate(95.410156 0)"/>
      </g>
     </g>
    </g>
    <g id="xtick_10">
     <g id="line2d_23">
      <g>
       <use xlink:href="#m6d54edd0b3" x="521.803159" y="246.04" style="stroke: #000000; stroke-width: 0.8"/>
      </g>
     </g>
     <g id="text_23">
      <!-- 0.8 -->
      <g transform="translate(513.851597 260.638438) scale(0.1 -0.1)">
       <use xlink:href="#DejaVuSans-30"/>
       <use xlink:href="#DejaVuSans-2e" transform="translate(63.623047 0)"/>
       <use xlink:href="#DejaVuSans-38" transform="translate(95.410156 0)"/>
      </g>
     </g>
    </g>
    <g id="text_24">
     <!-- Scores -->
     <g transform="translate(430.438046 274.316562) scale(0.1 -0.1)">
      <use xlink:href="#DejaVuSans-53"/>
      <use xlink:href="#DejaVuSans-63" transform="translate(63.476562 0)"/>
      <use xlink:href="#DejaVuSans-6f" transform="translate(118.457031 0)"/>
      <use xlink:href="#DejaVuSans-72" transform="translate(179.638672 0)"/>
      <use xlink:href="#DejaVuSans-65" transform="translate(218.501953 0)"/>
      <use xlink:href="#DejaVuSans-73" transform="translate(280.025391 0)"/>
     </g>
    </g>
   </g>
   <g id="matplotlib.axis_4">
    <g id="ytick_10">
     <g id="line2d_24">
      <g>
       <use xlink:href="#m8df4a80de6" x="328.890154" y="246.04" style="stroke: #000000; stroke-width: 0.8"/>
      </g>
     </g>
     <g id="text_25">
      <!-- 0 -->
      <g transform="translate(315.527654 249.839219) scale(0.1 -0.1)">
       <use xlink:href="#DejaVuSans-30"/>
      </g>
     </g>
    </g>
    <g id="ytick_11">
     <g id="line2d_25">
      <g>
       <use xlink:href="#m8df4a80de6" x="328.890154" y="217.350501" style="stroke: #000000; stroke-width: 0.8"/>
      </g>
     </g>
     <g id="text_26">
      <!-- 1 -->
      <g transform="translate(315.527654 221.14972) scale(0.1 -0.1)">
       <use xlink:href="#DejaVuSans-31"/>
      </g>
     </g>
    </g>
    <g id="ytick_12">
     <g id="line2d_26">
      <g>
       <use xlink:href="#m8df4a80de6" x="328.890154" y="188.661003" style="stroke: #000000; stroke-width: 0.8"/>
      </g>
     </g>
     <g id="text_27">
      <!-- 2 -->
      <g transform="translate(315.527654 192.460221) scale(0.1 -0.1)">
       <use xlink:href="#DejaVuSans-32"/>
      </g>
     </g>
    </g>
    <g id="ytick_13">
     <g id="line2d_27">
      <g>
       <use xlink:href="#m8df4a80de6" x="328.890154" y="159.971504" style="stroke: #000000; stroke-width: 0.8"/>
      </g>
     </g>
     <g id="text_28">
      <!-- 3 -->
      <g transform="translate(315.527654 163.770723) scale(0.1 -0.1)">
       <use xlink:href="#DejaVuSans-33"/>
      </g>
     </g>
    </g>
    <g id="ytick_14">
     <g id="line2d_28">
      <g>
       <use xlink:href="#m8df4a80de6" x="328.890154" y="131.282005" style="stroke: #000000; stroke-width: 0.8"/>
      </g>
     </g>
     <g id="text_29">
      <!-- 4 -->
      <g transform="translate(315.527654 135.081224) scale(0.1 -0.1)">
       <use xlink:href="#DejaVuSans-34"/>
      </g>
     </g>
    </g>
    <g id="ytick_15">
     <g id="line2d_29">
      <g>
       <use xlink:href="#m8df4a80de6" x="328.890154" y="102.592506" style="stroke: #000000; stroke-width: 0.8"/>
      </g>
     </g>
     <g id="text_30">
      <!-- 5 -->
      <g transform="translate(315.527654 106.391725) scale(0.1 -0.1)">
       <use xlink:href="#DejaVuSans-35"/>
      </g>
     </g>
    </g>
    <g id="ytick_16">
     <g id="line2d_30">
      <g>
       <use xlink:href="#m8df4a80de6" x="328.890154" y="73.903008" style="stroke: #000000; stroke-width: 0.8"/>
      </g>
     </g>
     <g id="text_31">
      <!-- 6 -->
      <g transform="translate(315.527654 77.702226) scale(0.1 -0.1)">
       <use xlink:href="#DejaVuSans-36"/>
      </g>
     </g>
    </g>
    <g id="ytick_17">
     <g id="line2d_31">
      <g>
       <use xlink:href="#m8df4a80de6" x="328.890154" y="45.213509" style="stroke: #000000; stroke-width: 0.8"/>
      </g>
     </g>
     <g id="text_32">
      <!-- 7 -->
      <g transform="translate(315.527654 49.012728) scale(0.1 -0.1)">
       <use xlink:href="#DejaVuSans-37"/>
      </g>
     </g>
    </g>
    <g id="text_33">
     <!-- Density -->
     <g transform="translate(309.447966 159.404219) rotate(-90) scale(0.1 -0.1)">
      <defs>
       <path id="DejaVuSans-6e" d="M 3513 2113 
L 3513 0 
L 2938 0 
L 2938 2094 
Q 2938 2591 2744 2837 
Q 2550 3084 2163 3084 
Q 1697 3084 1428 2787 
Q 1159 2491 1159 1978 
L 1159 0 
L 581 0 
L 581 3500 
L 1159 3500 
L 1159 2956 
Q 1366 3272 1645 3428 
Q 1925 3584 2291 3584 
Q 2894 3584 3203 3211 
Q 3513 2838 3513 2113 
z
" transform="scale(0.015625)"/>
       <path id="DejaVuSans-69" d="M 603 3500 
L 1178 3500 
L 1178 0 
L 603 0 
L 603 3500 
z
M 603 4863 
L 1178 4863 
L 1178 4134 
L 603 4134 
L 603 4863 
z
" transform="scale(0.015625)"/>
       <path id="DejaVuSans-74" d="M 1172 4494 
L 1172 3500 
L 2356 3500 
L 2356 3053 
L 1172 3053 
L 1172 1153 
Q 1172 725 1289 603 
Q 1406 481 1766 481 
L 2356 481 
L 2356 0 
L 1766 0 
Q 1100 0 847 248 
Q 594 497 594 1153 
L 594 3053 
L 172 3053 
L 172 3500 
L 594 3500 
L 594 4494 
L 1172 4494 
z
" transform="scale(0.015625)"/>
       <path id="DejaVuSans-79" d="M 2059 -325 
Q 1816 -950 1584 -1140 
Q 1353 -1331 966 -1331 
L 506 -1331 
L 506 -850 
L 844 -850 
Q 1081 -850 1212 -737 
Q 1344 -625 1503 -206 
L 1606 56 
L 191 3500 
L 800 3500 
L 1894 763 
L 2988 3500 
L 3597 3500 
L 2059 -325 
z
" transform="scale(0.015625)"/>
      </defs>
      <use xlink:href="#DejaVuSans-44"/>
      <use xlink:href="#DejaVuSans-65" transform="translate(77.001953 0)"/>
      <use xlink:href="#DejaVuSans-6e" transform="translate(138.525391 0)"/>
      <use xlink:href="#DejaVuSans-73" transform="translate(201.904297 0)"/>
      <use xlink:href="#DejaVuSans-69" transform="translate(254.003906 0)"/>
      <use xlink:href="#DejaVuSans-74" transform="translate(281.787109 0)"/>
      <use xlink:href="#DejaVuSans-79" transform="translate(320.996094 0)"/>
     </g>
    </g>
   </g>
   <g id="patch_59">
    <path d="M 328.890154 246.04 
L 328.890154 34.75125 
" style="fill: none; stroke: #000000; stroke-width: 0.8; stroke-linejoin: miter; stroke-linecap: square"/>
   </g>
   <g id="patch_60">
    <path d="M 565.2 246.04 
L 565.2 34.75125 
" style="fill: none; stroke: #000000; stroke-width: 0.8; stroke-linejoin: miter; stroke-linecap: square"/>
   </g>
   <g id="patch_61">
    <path d="M 328.890154 246.04 
L 565.2 246.04 
" style="fill: none; stroke: #000000; stroke-width: 0.8; stroke-linejoin: miter; stroke-linecap: square"/>
   </g>
   <g id="patch_62">
    <path d="M 328.890154 34.75125 
L 565.2 34.75125 
" style="fill: none; stroke: #000000; stroke-width: 0.8; stroke-linejoin: miter; stroke-linecap: square"/>
   </g>
   <g id="legend_2">
    <g id="patch_63">
     <path d="M 458.010937 72.1075 
L 558.2 72.1075 
Q 560.2 72.1075 560.2 70.1075 
L 560.2 41.75125 
Q 560.2 39.75125 558.2 39.75125 
L 458.010937 39.75125 
Q 456.010937 39.75125 456.010937 41.75125 
L 456.010937 70.1075 
Q 456.010937 72.1075 458.010937 72.1075 
z
" style="fill: #ffffff; opacity: 0.8; stroke: #cccccc; stroke-linejoin: miter"/>
    </g>
    <g id="patch_64">
     <path d="M 460.010937 51.349687 
L 480.010937 51.349687 
L 480.010937 44.349687 
L 460.010937 44.349687 
z
" style="fill: #1f77b4; opacity: 0.5"/>
    </g>
    <g id="text_34">
     <!-- ID samples -->
     <g transform="translate(488.010937 51.349687) scale(0.1 -0.1)">
      <use xlink:href="#DejaVuSans-49"/>
      <use xlink:href="#DejaVuSans-44" transform="translate(29.492188 0)"/>
      <use xlink:href="#DejaVuSans-20" transform="translate(106.494141 0)"/>
      <use xlink:href="#DejaVuSans-73" transform="translate(138.28125 0)"/>
      <use xlink:href="#DejaVuSans-61" transform="translate(190.380859 0)"/>
      <use xlink:href="#DejaVuSans-6d" transform="translate(251.660156 0)"/>
      <use xlink:href="#DejaVuSans-70" transform="translate(349.072266 0)"/>
      <use xlink:href="#DejaVuSans-6c" transform="translate(412.548828 0)"/>
      <use xlink:href="#DejaVuSans-65" transform="translate(440.332031 0)"/>
      <use xlink:href="#DejaVuSans-73" transform="translate(501.855469 0)"/>
     </g>
    </g>
    <g id="patch_65">
     <path d="M 460.010937 66.027812 
L 480.010937 66.027812 
L 480.010937 59.027812 
L 460.010937 59.027812 
z
" style="fill: #ff7f0e; opacity: 0.5"/>
    </g>
    <g id="text_35">
     <!-- OOD samples -->
     <g transform="translate(488.010937 66.027812) scale(0.1 -0.1)">
      <use xlink:href="#DejaVuSans-4f"/>
      <use xlink:href="#DejaVuSans-4f" transform="translate(78.710938 0)"/>
      <use xlink:href="#DejaVuSans-44" transform="translate(157.421875 0)"/>
      <use xlink:href="#DejaVuSans-20" transform="translate(234.423828 0)"/>
      <use xlink:href="#DejaVuSans-73" transform="translate(266.210938 0)"/>
      <use xlink:href="#DejaVuSans-61" transform="translate(318.310547 0)"/>
      <use xlink:href="#DejaVuSans-6d" transform="translate(379.589844 0)"/>
      <use xlink:href="#DejaVuSans-70" transform="translate(477.001953 0)"/>
      <use xlink:href="#DejaVuSans-6c" transform="translate(540.478516 0)"/>
      <use xlink:href="#DejaVuSans-65" transform="translate(568.261719 0)"/>
      <use xlink:href="#DejaVuSans-73" transform="translate(629.785156 0)"/>
     </g>
    </g>
   </g>
  </g>
  <g id="text_36">
   <!-- Scores using max_softmax -->
   <g transform="translate(207.75 14.878125) scale(0.12 -0.12)">
    <defs>
     <path id="DejaVuSans-75" d="M 544 1381 
L 544 3500 
L 1119 3500 
L 1119 1403 
Q 1119 906 1312 657 
Q 1506 409 1894 409 
Q 2359 409 2629 706 
Q 2900 1003 2900 1516 
L 2900 3500 
L 3475 3500 
L 3475 0 
L 2900 0 
L 2900 538 
Q 2691 219 2414 64 
Q 2138 -91 1772 -91 
Q 1169 -91 856 284 
Q 544 659 544 1381 
z
M 1991 3584 
L 1991 3584 
z
" transform="scale(0.015625)"/>
     <path id="DejaVuSans-67" d="M 2906 1791 
Q 2906 2416 2648 2759 
Q 2391 3103 1925 3103 
Q 1463 3103 1205 2759 
Q 947 2416 947 1791 
Q 947 1169 1205 825 
Q 1463 481 1925 481 
Q 2391 481 2648 825 
Q 2906 1169 2906 1791 
z
M 3481 434 
Q 3481 -459 3084 -895 
Q 2688 -1331 1869 -1331 
Q 1566 -1331 1297 -1286 
Q 1028 -1241 775 -1147 
L 775 -588 
Q 1028 -725 1275 -790 
Q 1522 -856 1778 -856 
Q 2344 -856 2625 -561 
Q 2906 -266 2906 331 
L 2906 616 
Q 2728 306 2450 153 
Q 2172 0 1784 0 
Q 1141 0 747 490 
Q 353 981 353 1791 
Q 353 2603 747 3093 
Q 1141 3584 1784 3584 
Q 2172 3584 2450 3431 
Q 2728 3278 2906 2969 
L 2906 3500 
L 3481 3500 
L 3481 434 
z
" transform="scale(0.015625)"/>
     <path id="DejaVuSans-78" d="M 3513 3500 
L 2247 1797 
L 3578 0 
L 2900 0 
L 1881 1375 
L 863 0 
L 184 0 
L 1544 1831 
L 300 3500 
L 978 3500 
L 1906 2253 
L 2834 3500 
L 3513 3500 
z
" transform="scale(0.015625)"/>
     <path id="DejaVuSans-5f" d="M 3263 -1063 
L 3263 -1509 
L -63 -1509 
L -63 -1063 
L 3263 -1063 
z
" transform="scale(0.015625)"/>
     <path id="DejaVuSans-66" d="M 2375 4863 
L 2375 4384 
L 1825 4384 
Q 1516 4384 1395 4259 
Q 1275 4134 1275 3809 
L 1275 3500 
L 2222 3500 
L 2222 3053 
L 1275 3053 
L 1275 0 
L 697 0 
L 697 3053 
L 147 3053 
L 147 3500 
L 697 3500 
L 697 3744 
Q 697 4328 969 4595 
Q 1241 4863 1831 4863 
L 2375 4863 
z
" transform="scale(0.015625)"/>
    </defs>
    <use xlink:href="#DejaVuSans-53"/>
    <use xlink:href="#DejaVuSans-63" transform="translate(63.476562 0)"/>
    <use xlink:href="#DejaVuSans-6f" transform="translate(118.457031 0)"/>
    <use xlink:href="#DejaVuSans-72" transform="translate(179.638672 0)"/>
    <use xlink:href="#DejaVuSans-65" transform="translate(218.501953 0)"/>
    <use xlink:href="#DejaVuSans-73" transform="translate(280.025391 0)"/>
    <use xlink:href="#DejaVuSans-20" transform="translate(332.125 0)"/>
    <use xlink:href="#DejaVuSans-75" transform="translate(363.912109 0)"/>
    <use xlink:href="#DejaVuSans-73" transform="translate(427.291016 0)"/>
    <use xlink:href="#DejaVuSans-69" transform="translate(479.390625 0)"/>
    <use xlink:href="#DejaVuSans-6e" transform="translate(507.173828 0)"/>
    <use xlink:href="#DejaVuSans-67" transform="translate(570.552734 0)"/>
    <use xlink:href="#DejaVuSans-20" transform="translate(634.029297 0)"/>
    <use xlink:href="#DejaVuSans-6d" transform="translate(665.816406 0)"/>
    <use xlink:href="#DejaVuSans-61" transform="translate(763.228516 0)"/>
    <use xlink:href="#DejaVuSans-78" transform="translate(824.507812 0)"/>
    <use xlink:href="#DejaVuSans-5f" transform="translate(883.6875 0)"/>
    <use xlink:href="#DejaVuSans-73" transform="translate(933.6875 0)"/>
    <use xlink:href="#DejaVuSans-6f" transform="translate(985.787109 0)"/>
    <use xlink:href="#DejaVuSans-66" transform="translate(1046.96875 0)"/>
    <use xlink:href="#DejaVuSans-74" transform="translate(1080.423828 0)"/>
    <use xlink:href="#DejaVuSans-6d" transform="translate(1119.632812 0)"/>
    <use xlink:href="#DejaVuSans-61" transform="translate(1217.044922 0)"/>
    <use xlink:href="#DejaVuSans-78" transform="translate(1278.324219 0)"/>
   </g>
  </g>
 </g>
 <defs>
  <clipPath id="p773daa6348">
   <rect x="47.72" y="34.75125" width="236.309846" height="211.28875"/>
  </clipPath>
  <clipPath id="pfbd3befa7a">
   <rect x="328.890154" y="34.75125" width="236.309846" height="211.28875"/>
  </clipPath>
 </defs>
</svg>
