<?xml version="1.0" encoding="utf-8" standalone="no"?>
<!DOCTYPE svg PUBLIC "-//W3C//DTD SVG 1.1//EN"
  "http://www.w3.org/Graphics/SVG/1.1/DTD/svg11.dtd">
<svg xmlns:xlink="http://www.w3.org/1999/xlink" width="576pt" height="288pt" viewBox="0 0 576 288" xmlns="http://www.w3.org/2000/svg" version="1.1">
 <metadata>
  <rdf:RDF xmlns:dc="http://purl.org/dc/elements/1.1/" xmlns:cc="http://creativecommons.org/ns#" xmlns:rdf="http://www.w3.org/1999/02/22-rdf-syntax-ns#">
   <cc:Work>
    <dc:type rdf:resource="http://purl.org/dc/dcmitype/StillImage"/>
    <dc:date>2025-05-24T16:43:36.311567</dc:date>
    <dc:format>image/svg+xml</dc:format>
    <dc:creator>
     <cc:Agent>
      <dc:title>Matplotlib v3.10.1, https://matplotlib.org/</dc:title>
     </cc:Agent>
    </dc:creator>
   </cc:Work>
  </rdf:RDF>
 </metadata>
 <defs>
  <style type="text/css">*{stroke-linejoin: round; stroke-linecap: butt}</style>
 </defs>
 <g id="figure_1">
  <g id="patch_1">
   <path d="M 0 288 
L 576 288 
L 576 0 
L 0 0 
z
" style="fill: #ffffff"/>
  </g>
  <g id="axes_1">
   <g id="patch_2">
    <path d="M 47.72 246.04 
L 279.304846 246.04 
L 279.304846 34.56 
L 47.72 34.56 
z
" style="fill: #ffffff"/>
   </g>
   <g id="matplotlib.axis_1">
    <g id="xtick_1">
     <g id="line2d_1">
      <defs>
       <path id="mfc668a8485" d="M 0 0 
L 0 3.5 
" style="stroke: #000000; stroke-width: 0.8"/>
      </defs>
      <g>
       <use xlink:href="#mfc668a8485" x="58.246584" y="246.04" style="stroke: #000000; stroke-width: 0.8"/>
      </g>
     </g>
     <g id="text_1">
      <!-- 0 -->
      <g transform="translate(55.065334 260.638438) scale(0.1 -0.1)">
       <defs>
        <path id="DejaVuSans-30" d="M 2034 4250 
Q 1547 4250 1301 3770 
Q 1056 3291 1056 2328 
Q 1056 1369 1301 889 
Q 1547 409 2034 409 
Q 2525 409 2770 889 
Q 3016 1369 3016 2328 
Q 3016 3291 2770 3770 
Q 2525 4250 2034 4250 
z
M 2034 4750 
Q 2819 4750 3233 4129 
Q 3647 3509 3647 2328 
Q 3647 1150 3233 529 
Q 2819 -91 2034 -91 
Q 1250 -91 836 529 
Q 422 1150 422 2328 
Q 422 3509 836 4129 
Q 1250 4750 2034 4750 
z
" transform="scale(0.015625)"/>
       </defs>
       <use xlink:href="#DejaVuSans-30"/>
      </g>
     </g>
    </g>
    <g id="xtick_2">
     <g id="line2d_2">
      <g>
       <use xlink:href="#mfc668a8485" x="100.357131" y="246.04" style="stroke: #000000; stroke-width: 0.8"/>
      </g>
     </g>
     <g id="text_2">
      <!-- 2000 -->
      <g transform="translate(87.632131 260.638438) scale(0.1 -0.1)">
       <defs>
        <path id="DejaVuSans-32" d="M 1228 531 
L 3431 531 
L 3431 0 
L 469 0 
L 469 531 
Q 828 903 1448 1529 
Q 2069 2156 2228 2338 
Q 2531 2678 2651 2914 
Q 2772 3150 2772 3378 
Q 2772 3750 2511 3984 
Q 2250 4219 1831 4219 
Q 1534 4219 1204 4116 
Q 875 4013 500 3803 
L 500 4441 
Q 881 4594 1212 4672 
Q 1544 4750 1819 4750 
Q 2544 4750 2975 4387 
Q 3406 4025 3406 3419 
Q 3406 3131 3298 2873 
Q 3191 2616 2906 2266 
Q 2828 2175 2409 1742 
Q 1991 1309 1228 531 
z
" transform="scale(0.015625)"/>
       </defs>
       <use xlink:href="#DejaVuSans-32"/>
       <use xlink:href="#DejaVuSans-30" transform="translate(63.623047 0)"/>
       <use xlink:href="#DejaVuSans-30" transform="translate(127.246094 0)"/>
       <use xlink:href="#DejaVuSans-30" transform="translate(190.869141 0)"/>
      </g>
     </g>
    </g>
    <g id="xtick_3">
     <g id="line2d_3">
      <g>
       <use xlink:href="#mfc668a8485" x="142.467677" y="246.04" style="stroke: #000000; stroke-width: 0.8"/>
      </g>
     </g>
     <g id="text_3">
      <!-- 4000 -->
      <g transform="translate(129.742677 260.638438) scale(0.1 -0.1)">
       <defs>
        <path id="DejaVuSans-34" d="M 2419 4116 
L 825 1625 
L 2419 1625 
L 2419 4116 
z
M 2253 4666 
L 3047 4666 
L 3047 1625 
L 3713 1625 
L 3713 1100 
L 3047 1100 
L 3047 0 
L 2419 0 
L 2419 1100 
L 313 1100 
L 313 1709 
L 2253 4666 
z
" transform="scale(0.015625)"/>
       </defs>
       <use xlink:href="#DejaVuSans-34"/>
       <use xlink:href="#DejaVuSans-30" transform="translate(63.623047 0)"/>
       <use xlink:href="#DejaVuSans-30" transform="translate(127.246094 0)"/>
       <use xlink:href="#DejaVuSans-30" transform="translate(190.869141 0)"/>
      </g>
     </g>
    </g>
    <g id="xtick_4">
     <g id="line2d_4">
      <g>
       <use xlink:href="#mfc668a8485" x="184.578224" y="246.04" style="stroke: #000000; stroke-width: 0.8"/>
      </g>
     </g>
     <g id="text_4">
      <!-- 6000 -->
      <g transform="translate(171.853224 260.638438) scale(0.1 -0.1)">
       <defs>
        <path id="DejaVuSans-36" d="M 2113 2584 
Q 1688 2584 1439 2293 
Q 1191 2003 1191 1497 
Q 1191 994 1439 701 
Q 1688 409 2113 409 
Q 2538 409 2786 701 
Q 3034 994 3034 1497 
Q 3034 2003 2786 2293 
Q 2538 2584 2113 2584 
z
M 3366 4563 
L 3366 3988 
Q 3128 4100 2886 4159 
Q 2644 4219 2406 4219 
Q 1781 4219 1451 3797 
Q 1122 3375 1075 2522 
Q 1259 2794 1537 2939 
Q 1816 3084 2150 3084 
Q 2853 3084 3261 2657 
Q 3669 2231 3669 1497 
Q 3669 778 3244 343 
Q 2819 -91 2113 -91 
Q 1303 -91 875 529 
Q 447 1150 447 2328 
Q 447 3434 972 4092 
Q 1497 4750 2381 4750 
Q 2619 4750 2861 4703 
Q 3103 4656 3366 4563 
z
" transform="scale(0.015625)"/>
       </defs>
       <use xlink:href="#DejaVuSans-36"/>
       <use xlink:href="#DejaVuSans-30" transform="translate(63.623047 0)"/>
       <use xlink:href="#DejaVuSans-30" transform="translate(127.246094 0)"/>
       <use xlink:href="#DejaVuSans-30" transform="translate(190.869141 0)"/>
      </g>
     </g>
    </g>
    <g id="xtick_5">
     <g id="line2d_5">
      <g>
       <use xlink:href="#mfc668a8485" x="226.688771" y="246.04" style="stroke: #000000; stroke-width: 0.8"/>
      </g>
     </g>
     <g id="text_5">
      <!-- 8000 -->
      <g transform="translate(213.963771 260.638438) scale(0.1 -0.1)">
       <defs>
        <path id="DejaVuSans-38" d="M 2034 2216 
Q 1584 2216 1326 1975 
Q 1069 1734 1069 1313 
Q 1069 891 1326 650 
Q 1584 409 2034 409 
Q 2484 409 2743 651 
Q 3003 894 3003 1313 
Q 3003 1734 2745 1975 
Q 2488 2216 2034 2216 
z
M 1403 2484 
Q 997 2584 770 2862 
Q 544 3141 544 3541 
Q 544 4100 942 4425 
Q 1341 4750 2034 4750 
Q 2731 4750 3128 4425 
Q 3525 4100 3525 3541 
Q 3525 3141 3298 2862 
Q 3072 2584 2669 2484 
Q 3125 2378 3379 2068 
Q 3634 1759 3634 1313 
Q 3634 634 3220 271 
Q 2806 -91 2034 -91 
Q 1263 -91 848 271 
Q 434 634 434 1313 
Q 434 1759 690 2068 
Q 947 2378 1403 2484 
z
M 1172 3481 
Q 1172 3119 1398 2916 
Q 1625 2713 2034 2713 
Q 2441 2713 2670 2916 
Q 2900 3119 2900 3481 
Q 2900 3844 2670 4047 
Q 2441 4250 2034 4250 
Q 1625 4250 1398 4047 
Q 1172 3844 1172 3481 
z
" transform="scale(0.015625)"/>
       </defs>
       <use xlink:href="#DejaVuSans-38"/>
       <use xlink:href="#DejaVuSans-30" transform="translate(63.623047 0)"/>
       <use xlink:href="#DejaVuSans-30" transform="translate(127.246094 0)"/>
       <use xlink:href="#DejaVuSans-30" transform="translate(190.869141 0)"/>
      </g>
     </g>
    </g>
    <g id="xtick_6">
     <g id="line2d_6">
      <g>
       <use xlink:href="#mfc668a8485" x="268.799318" y="246.04" style="stroke: #000000; stroke-width: 0.8"/>
      </g>
     </g>
     <g id="text_6">
      <!-- 10000 -->
      <g transform="translate(252.893068 260.638438) scale(0.1 -0.1)">
       <defs>
        <path id="DejaVuSans-31" d="M 794 531 
L 1825 531 
L 1825 4091 
L 703 3866 
L 703 4441 
L 1819 4666 
L 2450 4666 
L 2450 531 
L 3481 531 
L 3481 0 
L 794 0 
L 794 531 
z
" transform="scale(0.015625)"/>
       </defs>
       <use xlink:href="#DejaVuSans-31"/>
       <use xlink:href="#DejaVuSans-30" transform="translate(63.623047 0)"/>
       <use xlink:href="#DejaVuSans-30" transform="translate(127.246094 0)"/>
       <use xlink:href="#DejaVuSans-30" transform="translate(190.869141 0)"/>
       <use xlink:href="#DejaVuSans-30" transform="translate(254.492188 0)"/>
      </g>
     </g>
    </g>
    <g id="text_7">
     <!-- Ordered samples -->
     <g transform="translate(120.791329 274.316562) scale(0.1 -0.1)">
      <defs>
       <path id="DejaVuSans-4f" d="M 2522 4238 
Q 1834 4238 1429 3725 
Q 1025 3213 1025 2328 
Q 1025 1447 1429 934 
Q 1834 422 2522 422 
Q 3209 422 3611 934 
Q 4013 1447 4013 2328 
Q 4013 3213 3611 3725 
Q 3209 4238 2522 4238 
z
M 2522 4750 
Q 3503 4750 4090 4092 
Q 4678 3434 4678 2328 
Q 4678 1225 4090 567 
Q 3503 -91 2522 -91 
Q 1538 -91 948 565 
Q 359 1222 359 2328 
Q 359 3434 948 4092 
Q 1538 4750 2522 4750 
z
" transform="scale(0.015625)"/>
       <path id="DejaVuSans-72" d="M 2631 2963 
Q 2534 3019 2420 3045 
Q 2306 3072 2169 3072 
Q 1681 3072 1420 2755 
Q 1159 2438 1159 1844 
L 1159 0 
L 581 0 
L 581 3500 
L 1159 3500 
L 1159 2956 
Q 1341 3275 1631 3429 
Q 1922 3584 2338 3584 
Q 2397 3584 2469 3576 
Q 2541 3569 2628 3553 
L 2631 2963 
z
" transform="scale(0.015625)"/>
       <path id="DejaVuSans-64" d="M 2906 2969 
L 2906 4863 
L 3481 4863 
L 3481 0 
L 2906 0 
L 2906 525 
Q 2725 213 2448 61 
Q 2172 -91 1784 -91 
Q 1150 -91 751 415 
Q 353 922 353 1747 
Q 353 2572 751 3078 
Q 1150 3584 1784 3584 
Q 2172 3584 2448 3432 
Q 2725 3281 2906 2969 
z
M 947 1747 
Q 947 1113 1208 752 
Q 1469 391 1925 391 
Q 2381 391 2643 752 
Q 2906 1113 2906 1747 
Q 2906 2381 2643 2742 
Q 2381 3103 1925 3103 
Q 1469 3103 1208 2742 
Q 947 2381 947 1747 
z
" transform="scale(0.015625)"/>
       <path id="DejaVuSans-65" d="M 3597 1894 
L 3597 1613 
L 953 1613 
Q 991 1019 1311 708 
Q 1631 397 2203 397 
Q 2534 397 2845 478 
Q 3156 559 3463 722 
L 3463 178 
Q 3153 47 2828 -22 
Q 2503 -91 2169 -91 
Q 1331 -91 842 396 
Q 353 884 353 1716 
Q 353 2575 817 3079 
Q 1281 3584 2069 3584 
Q 2775 3584 3186 3129 
Q 3597 2675 3597 1894 
z
M 3022 2063 
Q 3016 2534 2758 2815 
Q 2500 3097 2075 3097 
Q 1594 3097 1305 2825 
Q 1016 2553 972 2059 
L 3022 2063 
z
" transform="scale(0.015625)"/>
       <path id="DejaVuSans-20" transform="scale(0.015625)"/>
       <path id="DejaVuSans-73" d="M 2834 3397 
L 2834 2853 
Q 2591 2978 2328 3040 
Q 2066 3103 1784 3103 
Q 1356 3103 1142 2972 
Q 928 2841 928 2578 
Q 928 2378 1081 2264 
Q 1234 2150 1697 2047 
L 1894 2003 
Q 2506 1872 2764 1633 
Q 3022 1394 3022 966 
Q 3022 478 2636 193 
Q 2250 -91 1575 -91 
Q 1294 -91 989 -36 
Q 684 19 347 128 
L 347 722 
Q 666 556 975 473 
Q 1284 391 1588 391 
Q 1994 391 2212 530 
Q 2431 669 2431 922 
Q 2431 1156 2273 1281 
Q 2116 1406 1581 1522 
L 1381 1569 
Q 847 1681 609 1914 
Q 372 2147 372 2553 
Q 372 3047 722 3315 
Q 1072 3584 1716 3584 
Q 2034 3584 2315 3537 
Q 2597 3491 2834 3397 
z
" transform="scale(0.015625)"/>
       <path id="DejaVuSans-61" d="M 2194 1759 
Q 1497 1759 1228 1600 
Q 959 1441 959 1056 
Q 959 750 1161 570 
Q 1363 391 1709 391 
Q 2188 391 2477 730 
Q 2766 1069 2766 1631 
L 2766 1759 
L 2194 1759 
z
M 3341 1997 
L 3341 0 
L 2766 0 
L 2766 531 
Q 2569 213 2275 61 
Q 1981 -91 1556 -91 
Q 1019 -91 701 211 
Q 384 513 384 1019 
Q 384 1609 779 1909 
Q 1175 2209 1959 2209 
L 2766 2209 
L 2766 2266 
Q 2766 2663 2505 2880 
Q 2244 3097 1772 3097 
Q 1472 3097 1187 3025 
Q 903 2953 641 2809 
L 641 3341 
Q 956 3463 1253 3523 
Q 1550 3584 1831 3584 
Q 2591 3584 2966 3190 
Q 3341 2797 3341 1997 
z
" transform="scale(0.015625)"/>
       <path id="DejaVuSans-6d" d="M 3328 2828 
Q 3544 3216 3844 3400 
Q 4144 3584 4550 3584 
Q 5097 3584 5394 3201 
Q 5691 2819 5691 2113 
L 5691 0 
L 5113 0 
L 5113 2094 
Q 5113 2597 4934 2840 
Q 4756 3084 4391 3084 
Q 3944 3084 3684 2787 
Q 3425 2491 3425 1978 
L 3425 0 
L 2847 0 
L 2847 2094 
Q 2847 2600 2669 2842 
Q 2491 3084 2119 3084 
Q 1678 3084 1418 2786 
Q 1159 2488 1159 1978 
L 1159 0 
L 581 0 
L 581 3500 
L 1159 3500 
L 1159 2956 
Q 1356 3278 1631 3431 
Q 1906 3584 2284 3584 
Q 2666 3584 2933 3390 
Q 3200 3197 3328 2828 
z
" transform="scale(0.015625)"/>
       <path id="DejaVuSans-70" d="M 1159 525 
L 1159 -1331 
L 581 -1331 
L 581 3500 
L 1159 3500 
L 1159 2969 
Q 1341 3281 1617 3432 
Q 1894 3584 2278 3584 
Q 2916 3584 3314 3078 
Q 3713 2572 3713 1747 
Q 3713 922 3314 415 
Q 2916 -91 2278 -91 
Q 1894 -91 1617 61 
Q 1341 213 1159 525 
z
M 3116 1747 
Q 3116 2381 2855 2742 
Q 2594 3103 2138 3103 
Q 1681 3103 1420 2742 
Q 1159 2381 1159 1747 
Q 1159 1113 1420 752 
Q 1681 391 2138 391 
Q 2594 391 2855 752 
Q 3116 1113 3116 1747 
z
" transform="scale(0.015625)"/>
       <path id="DejaVuSans-6c" d="M 603 4863 
L 1178 4863 
L 1178 0 
L 603 0 
L 603 4863 
z
" transform="scale(0.015625)"/>
      </defs>
      <use xlink:href="#DejaVuSans-4f"/>
      <use xlink:href="#DejaVuSans-72" transform="translate(78.710938 0)"/>
      <use xlink:href="#DejaVuSans-64" transform="translate(118.074219 0)"/>
      <use xlink:href="#DejaVuSans-65" transform="translate(181.550781 0)"/>
      <use xlink:href="#DejaVuSans-72" transform="translate(243.074219 0)"/>
      <use xlink:href="#DejaVuSans-65" transform="translate(281.9375 0)"/>
      <use xlink:href="#DejaVuSans-64" transform="translate(343.460938 0)"/>
      <use xlink:href="#DejaVuSans-20" transform="translate(406.9375 0)"/>
      <use xlink:href="#DejaVuSans-73" transform="translate(438.724609 0)"/>
      <use xlink:href="#DejaVuSans-61" transform="translate(490.824219 0)"/>
      <use xlink:href="#DejaVuSans-6d" transform="translate(552.103516 0)"/>
      <use xlink:href="#DejaVuSans-70" transform="translate(649.515625 0)"/>
      <use xlink:href="#DejaVuSans-6c" transform="translate(712.992188 0)"/>
      <use xlink:href="#DejaVuSans-65" transform="translate(740.775391 0)"/>
      <use xlink:href="#DejaVuSans-73" transform="translate(802.298828 0)"/>
     </g>
    </g>
   </g>
   <g id="matplotlib.axis_2">
    <g id="ytick_1">
     <g id="line2d_7">
      <defs>
       <path id="m651f5aef99" d="M 0 0 
L -3.5 0 
" style="stroke: #000000; stroke-width: 0.8"/>
      </defs>
      <g>
       <use xlink:href="#m651f5aef99" x="47.72" y="236.722148" style="stroke: #000000; stroke-width: 0.8"/>
      </g>
     </g>
     <g id="text_8">
      <!-- 0.0 -->
      <g transform="translate(24.816875 240.521367) scale(0.1 -0.1)">
       <defs>
        <path id="DejaVuSans-2e" d="M 684 794 
L 1344 794 
L 1344 0 
L 684 0 
L 684 794 
z
" transform="scale(0.015625)"/>
       </defs>
       <use xlink:href="#DejaVuSans-30"/>
       <use xlink:href="#DejaVuSans-2e" transform="translate(63.623047 0)"/>
       <use xlink:href="#DejaVuSans-30" transform="translate(95.410156 0)"/>
      </g>
     </g>
    </g>
    <g id="ytick_2">
     <g id="line2d_8">
      <g>
       <use xlink:href="#m651f5aef99" x="47.72" y="203.971994" style="stroke: #000000; stroke-width: 0.8"/>
      </g>
     </g>
     <g id="text_9">
      <!-- 0.5 -->
      <g transform="translate(24.816875 207.771213) scale(0.1 -0.1)">
       <defs>
        <path id="DejaVuSans-35" d="M 691 4666 
L 3169 4666 
L 3169 4134 
L 1269 4134 
L 1269 2991 
Q 1406 3038 1543 3061 
Q 1681 3084 1819 3084 
Q 2600 3084 3056 2656 
Q 3513 2228 3513 1497 
Q 3513 744 3044 326 
Q 2575 -91 1722 -91 
Q 1428 -91 1123 -41 
Q 819 9 494 109 
L 494 744 
Q 775 591 1075 516 
Q 1375 441 1709 441 
Q 2250 441 2565 725 
Q 2881 1009 2881 1497 
Q 2881 1984 2565 2268 
Q 2250 2553 1709 2553 
Q 1456 2553 1204 2497 
Q 953 2441 691 2322 
L 691 4666 
z
" transform="scale(0.015625)"/>
       </defs>
       <use xlink:href="#DejaVuSans-30"/>
       <use xlink:href="#DejaVuSans-2e" transform="translate(63.623047 0)"/>
       <use xlink:href="#DejaVuSans-35" transform="translate(95.410156 0)"/>
      </g>
     </g>
    </g>
    <g id="ytick_3">
     <g id="line2d_9">
      <g>
       <use xlink:href="#m651f5aef99" x="47.72" y="171.22184" style="stroke: #000000; stroke-width: 0.8"/>
      </g>
     </g>
     <g id="text_10">
      <!-- 1.0 -->
      <g transform="translate(24.816875 175.021059) scale(0.1 -0.1)">
       <use xlink:href="#DejaVuSans-31"/>
       <use xlink:href="#DejaVuSans-2e" transform="translate(63.623047 0)"/>
       <use xlink:href="#DejaVuSans-30" transform="translate(95.410156 0)"/>
      </g>
     </g>
    </g>
    <g id="ytick_4">
     <g id="line2d_10">
      <g>
       <use xlink:href="#m651f5aef99" x="47.72" y="138.471686" style="stroke: #000000; stroke-width: 0.8"/>
      </g>
     </g>
     <g id="text_11">
      <!-- 1.5 -->
      <g transform="translate(24.816875 142.270905) scale(0.1 -0.1)">
       <use xlink:href="#DejaVuSans-31"/>
       <use xlink:href="#DejaVuSans-2e" transform="translate(63.623047 0)"/>
       <use xlink:href="#DejaVuSans-35" transform="translate(95.410156 0)"/>
      </g>
     </g>
    </g>
    <g id="ytick_5">
     <g id="line2d_11">
      <g>
       <use xlink:href="#m651f5aef99" x="47.72" y="105.721532" style="stroke: #000000; stroke-width: 0.8"/>
      </g>
     </g>
     <g id="text_12">
      <!-- 2.0 -->
      <g transform="translate(24.816875 109.520751) scale(0.1 -0.1)">
       <use xlink:href="#DejaVuSans-32"/>
       <use xlink:href="#DejaVuSans-2e" transform="translate(63.623047 0)"/>
       <use xlink:href="#DejaVuSans-30" transform="translate(95.410156 0)"/>
      </g>
     </g>
    </g>
    <g id="ytick_6">
     <g id="line2d_12">
      <g>
       <use xlink:href="#m651f5aef99" x="47.72" y="72.971378" style="stroke: #000000; stroke-width: 0.8"/>
      </g>
     </g>
     <g id="text_13">
      <!-- 2.5 -->
      <g transform="translate(24.816875 76.770597) scale(0.1 -0.1)">
       <use xlink:href="#DejaVuSans-32"/>
       <use xlink:href="#DejaVuSans-2e" transform="translate(63.623047 0)"/>
       <use xlink:href="#DejaVuSans-35" transform="translate(95.410156 0)"/>
      </g>
     </g>
    </g>
    <g id="ytick_7">
     <g id="line2d_13">
      <g>
       <use xlink:href="#m651f5aef99" x="47.72" y="40.221224" style="stroke: #000000; stroke-width: 0.8"/>
      </g>
     </g>
     <g id="text_14">
      <!-- 3.0 -->
      <g transform="translate(24.816875 44.020443) scale(0.1 -0.1)">
       <defs>
        <path id="DejaVuSans-33" d="M 2597 2516 
Q 3050 2419 3304 2112 
Q 3559 1806 3559 1356 
Q 3559 666 3084 287 
Q 2609 -91 1734 -91 
Q 1441 -91 1130 -33 
Q 819 25 488 141 
L 488 750 
Q 750 597 1062 519 
Q 1375 441 1716 441 
Q 2309 441 2620 675 
Q 2931 909 2931 1356 
Q 2931 1769 2642 2001 
Q 2353 2234 1838 2234 
L 1294 2234 
L 1294 2753 
L 1863 2753 
Q 2328 2753 2575 2939 
Q 2822 3125 2822 3475 
Q 2822 3834 2567 4026 
Q 2313 4219 1838 4219 
Q 1578 4219 1281 4162 
Q 984 4106 628 3988 
L 628 4550 
Q 988 4650 1302 4700 
Q 1616 4750 1894 4750 
Q 2613 4750 3031 4423 
Q 3450 4097 3450 3541 
Q 3450 3153 3228 2886 
Q 3006 2619 2597 2516 
z
" transform="scale(0.015625)"/>
       </defs>
       <use xlink:href="#DejaVuSans-33"/>
       <use xlink:href="#DejaVuSans-2e" transform="translate(63.623047 0)"/>
       <use xlink:href="#DejaVuSans-30" transform="translate(95.410156 0)"/>
      </g>
     </g>
    </g>
    <g id="text_15">
     <!-- Scores -->
     <g transform="translate(18.737187 156.907031) rotate(-90) scale(0.1 -0.1)">
      <defs>
       <path id="DejaVuSans-53" d="M 3425 4513 
L 3425 3897 
Q 3066 4069 2747 4153 
Q 2428 4238 2131 4238 
Q 1616 4238 1336 4038 
Q 1056 3838 1056 3469 
Q 1056 3159 1242 3001 
Q 1428 2844 1947 2747 
L 2328 2669 
Q 3034 2534 3370 2195 
Q 3706 1856 3706 1288 
Q 3706 609 3251 259 
Q 2797 -91 1919 -91 
Q 1588 -91 1214 -16 
Q 841 59 441 206 
L 441 856 
Q 825 641 1194 531 
Q 1563 422 1919 422 
Q 2459 422 2753 634 
Q 3047 847 3047 1241 
Q 3047 1584 2836 1778 
Q 2625 1972 2144 2069 
L 1759 2144 
Q 1053 2284 737 2584 
Q 422 2884 422 3419 
Q 422 4038 858 4394 
Q 1294 4750 2059 4750 
Q 2388 4750 2728 4690 
Q 3069 4631 3425 4513 
z
" transform="scale(0.015625)"/>
       <path id="DejaVuSans-63" d="M 3122 3366 
L 3122 2828 
Q 2878 2963 2633 3030 
Q 2388 3097 2138 3097 
Q 1578 3097 1268 2742 
Q 959 2388 959 1747 
Q 959 1106 1268 751 
Q 1578 397 2138 397 
Q 2388 397 2633 464 
Q 2878 531 3122 666 
L 3122 134 
Q 2881 22 2623 -34 
Q 2366 -91 2075 -91 
Q 1284 -91 818 406 
Q 353 903 353 1747 
Q 353 2603 823 3093 
Q 1294 3584 2113 3584 
Q 2378 3584 2631 3529 
Q 2884 3475 3122 3366 
z
" transform="scale(0.015625)"/>
       <path id="DejaVuSans-6f" d="M 1959 3097 
Q 1497 3097 1228 2736 
Q 959 2375 959 1747 
Q 959 1119 1226 758 
Q 1494 397 1959 397 
Q 2419 397 2687 759 
Q 2956 1122 2956 1747 
Q 2956 2369 2687 2733 
Q 2419 3097 1959 3097 
z
M 1959 3584 
Q 2709 3584 3137 3096 
Q 3566 2609 3566 1747 
Q 3566 888 3137 398 
Q 2709 -91 1959 -91 
Q 1206 -91 779 398 
Q 353 888 353 1747 
Q 353 2609 779 3096 
Q 1206 3584 1959 3584 
z
" transform="scale(0.015625)"/>
      </defs>
      <use xlink:href="#DejaVuSans-53"/>
      <use xlink:href="#DejaVuSans-63" transform="translate(63.476562 0)"/>
      <use xlink:href="#DejaVuSans-6f" transform="translate(118.457031 0)"/>
      <use xlink:href="#DejaVuSans-72" transform="translate(179.638672 0)"/>
      <use xlink:href="#DejaVuSans-65" transform="translate(218.501953 0)"/>
      <use xlink:href="#DejaVuSans-73" transform="translate(280.025391 0)"/>
     </g>
    </g>
   </g>
   <g id="line2d_14">
    <path d="M 58.246584 235.865696 
L 58.288694 235.832801 
L 58.457137 235.273486 
L 58.604524 234.929686 
L 58.688745 234.827591 
L 59.341458 233.880987 
L 59.530956 233.714796 
L 59.720453 233.579955 
L 59.909951 233.410252 
L 60.604775 232.924119 
L 61.173267 232.463963 
L 61.362764 232.329287 
L 61.78387 232.032614 
L 62.162865 231.816651 
L 62.562915 231.562408 
L 62.773468 231.453455 
L 63.131407 231.303788 
L 63.720955 230.910995 
L 63.889397 230.788707 
L 64.09995 230.655869 
L 64.605276 230.371921 
L 64.815829 230.31115 
L 65.573819 229.993433 
L 65.742261 229.879081 
L 67.005578 229.333271 
L 67.195075 229.22618 
L 68.163618 228.901644 
L 68.437336 228.766029 
L 68.753165 228.637008 
L 69.13216 228.506528 
L 69.595376 228.320194 
L 69.805929 228.216375 
L 73.258994 227.005286 
L 74.143315 226.743209 
L 75.596129 226.323287 
L 75.743516 226.220592 
L 76.017235 226.141528 
L 77.827988 225.674982 
L 78.017486 225.604547 
L 78.438591 225.470769 
L 78.75442 225.320482 
L 79.933515 225.010728 
L 80.333566 224.868477 
L 80.62834 224.729891 
L 81.0705 224.592722 
L 81.386329 224.500734 
L 81.912711 224.415088 
L 82.396982 224.276168 
L 83.239193 224.018018 
L 83.849796 223.872781 
L 84.734118 223.624309 
L 85.113113 223.496609 
L 85.70266 223.331041 
L 101.831 219.266421 
L 102.567934 219.13993 
L 104.610296 218.609566 
L 105.368286 218.41601 
L 106.842155 218.106427 
L 107.115873 218.036293 
L 109.431953 217.470615 
L 109.93728 217.356357 
L 110.379441 217.202489 
L 111.158486 216.925761 
L 111.326928 216.86899 
L 112.105973 216.6858 
L 112.674466 216.573584 
L 113.01135 216.469723 
L 114.253611 216.144072 
L 114.590495 216.055525 
L 119.243711 214.895477 
L 119.496374 214.830196 
L 120.928133 214.567775 
L 121.138685 214.479928 
L 122.423057 214.225522 
L 123.012605 214.112045 
L 123.749539 213.902399 
L 127.686875 213.087269 
L 128.297478 212.984349 
L 128.592252 212.889215 
L 128.908081 212.775296 
L 129.202855 212.66193 
L 130.108232 212.500811 
L 130.424061 212.413261 
L 130.866222 212.301394 
L 131.961096 212.037218 
L 133.119136 211.788922 
L 133.624463 211.665868 
L 134.508784 211.505012 
L 135.182553 211.398252 
L 135.877377 211.256956 
L 136.466924 211.089266 
L 136.782754 211.019396 
L 137.730241 210.839703 
L 138.172402 210.736583 
L 139.667326 210.461237 
L 140.067376 210.327398 
L 141.562301 210.086361 
L 142.004461 209.983415 
L 142.657175 209.900053 
L 146.657677 208.988016 
L 147.31039 208.828273 
L 147.815717 208.698733 
L 147.984159 208.636546 
L 148.742149 208.413739 
L 149.879134 208.231388 
L 170.176417 203.280843 
L 170.492246 203.191892 
L 170.808075 203.084571 
L 171.14496 202.994608 
L 171.608176 202.850761 
L 171.987171 202.767798 
L 172.70305 202.628168 
L 172.892547 202.579409 
L 174.240085 202.221784 
L 174.598025 202.120311 
L 175.187572 202.006342 
L 177.2931 201.505174 
L 177.882647 201.384029 
L 187.210133 198.782252 
L 187.483852 198.698243 
L 188.662947 198.386495 
L 188.978776 198.298457 
L 191.147469 197.729809 
L 191.421188 197.656088 
L 192.010736 197.545016 
L 192.495007 197.468772 
L 192.852947 197.345694 
L 194.516313 196.927005 
L 194.790032 196.862922 
L 196.600785 196.354059 
L 196.97978 196.234659 
L 197.611438 196.059392 
L 198.664202 195.774195 
L 198.832644 195.71212 
L 199.232694 195.606939 
L 200.348624 195.300055 
L 201.359277 194.993914 
L 201.927769 194.846064 
L 203.822744 194.110637 
L 210.181437 192.199222 
L 210.370934 192.073763 
L 210.83415 191.947148 
L 212.623848 191.371013 
L 213.234451 191.190408 
L 213.466059 191.067994 
L 213.802944 190.936132 
L 215.4242 190.337287 
L 215.992692 190.1053 
L 216.961235 189.776264 
L 217.108621 189.669865 
L 220.330078 188.41968 
L 229.489122 184.581833 
L 229.72073 184.446661 
L 229.973393 184.34059 
L 230.541886 184.115338 
L 230.731383 183.966805 
L 231.173544 183.723789 
L 231.489373 183.589409 
L 231.805202 183.343083 
L 232.03681 183.208656 
L 233.447514 182.372369 
L 233.931785 182.034471 
L 234.100227 181.95576 
L 234.458167 181.795996 
L 235.047714 181.545101 
L 235.279322 181.355049 
L 236.605805 180.738326 
L 236.879523 180.532001 
L 237.995453 179.970963 
L 238.795553 179.466172 
L 239.279824 179.223222 
L 240.964246 178.097909 
L 241.301131 177.833842 
L 241.385352 177.711694 
L 241.785402 177.458442 
L 241.890678 177.346014 
L 246.122788 173.938332 
L 246.480728 173.595765 
L 248.502034 171.978822 
L 248.817863 171.765138 
L 249.281079 171.478095 
L 249.512687 171.221824 
L 249.975903 170.649433 
L 250.88128 169.596757 
L 251.702436 168.730424 
L 251.849822 168.543713 
L 252.228817 168.287111 
L 252.502536 168.092186 
L 252.670978 168.006834 
L 253.028918 167.584416 
L 253.071028 167.547967 
L 253.260526 167.137956 
L 253.976405 166.288981 
L 254.081681 166.179837 
L 254.313289 165.865602 
L 254.397511 165.792057 
L 254.776505 164.738326 
L 255.071279 164.442417 
L 257.387359 160.671784 
L 257.576857 160.345563 
L 257.724244 159.965013 
L 257.808465 159.90015 
L 257.976907 159.47428 
L 259.029671 157.468108 
L 259.240223 156.994897 
L 259.38761 156.866553 
L 260.566706 153.651086 
L 260.735148 153.219642 
L 261.408917 151.341712 
L 261.514193 151.220989 
L 261.830022 150.126156 
L 262.482736 148.402821 
L 262.503791 148.391523 
L 262.651178 147.772118 
L 262.714344 147.558883 
L 262.86173 146.92629 
L 263.198615 145.643762 
L 263.367057 145.452687 
L 263.640776 144.881365 
L 263.788162 144.529112 
L 264.146102 143.417577 
L 264.314544 142.73708 
L 264.546152 141.107898 
L 264.630373 141.026731 
L 265.114645 138.074816 
L 265.409419 136.416587 
L 265.683137 134.503715 
L 265.746303 134.183538 
L 265.89369 132.423911 
L 265.956856 132.337138 
L 266.146353 131.430679 
L 266.525348 129.093398 
L 266.714845 127.918405 
L 266.799067 127.77977 
L 267.304393 120.85901 
L 267.388614 120.052504 
L 267.514946 118.062292 
L 267.578112 117.703932 
L 267.830775 109.396787 
L 267.893941 109.000675 
L 268.020272 103.579512 
L 268.167659 101.609507 
L 268.357157 90.369023 
L 268.588765 72.375469 
L 268.60982 71.914923 
L 268.778262 44.172727 
L 268.778262 44.172727 
" clip-path="url(#pca236debee)" style="fill: none; stroke: #1f77b4; stroke-width: 1.5; stroke-linecap: square"/>
   </g>
   <g id="line2d_15">
    <path d="M 58.246584 236.427273 
L 58.393971 235.10826 
L 59.004574 232.32686 
L 59.320403 231.860386 
L 59.530956 231.401207 
L 59.573066 231.32084 
L 59.888895 230.869803 
L 60.246835 230.465935 
L 60.562664 229.944804 
L 60.688996 229.811364 
L 60.920604 229.532535 
L 61.004825 229.464791 
L 61.152212 229.19561 
L 61.257488 229.124946 
L 61.468041 228.762985 
L 61.78387 228.458201 
L 61.994423 228.155947 
L 62.141809 227.99102 
L 62.562915 227.496526 
L 62.626081 227.406415 
L 62.773468 227.261433 
L 63.068242 226.939822 
L 63.215628 226.817957 
L 63.615679 226.389322 
L 63.784121 226.236925 
L 63.889397 226.134544 
L 66.710804 223.261522 
L 66.858191 223.063222 
L 67.595125 222.366931 
L 67.805678 222.202363 
L 68.395226 221.689336 
L 68.500502 221.600211 
L 68.795276 221.272805 
L 68.942663 221.158855 
L 69.13216 220.926592 
L 69.300602 220.788715 
L 69.447989 220.57872 
L 72.079899 218.433957 
L 72.20623 218.29465 
L 73.406381 217.353628 
L 73.637989 217.053735 
L 73.827486 216.921592 
L 74.985526 215.734969 
L 75.406632 215.463693 
L 75.996179 215.09106 
L 76.143566 214.82923 
L 76.269898 214.744329 
L 76.43834 214.628521 
L 76.880501 214.377492 
L 77.512159 213.668733 
L 77.912209 213.453642 
L 78.333315 212.928603 
L 79.070249 212.396431 
L 79.386078 212.127302 
L 79.849294 211.723163 
L 80.080902 211.440182 
L 80.502008 211.207625 
L 80.62834 211.078697 
L 80.796782 210.975951 
L 80.902058 210.867168 
L 81.133666 210.651167 
L 81.344219 210.416906 
L 81.512661 210.305029 
L 81.78638 210.072166 
L 82.039043 209.802522 
L 82.354872 209.506857 
L 82.565425 209.396505 
L 83.660299 208.359749 
L 83.807686 208.165675 
L 84.797284 207.133142 
L 85.028892 206.869991 
L 85.365776 206.630127 
L 85.555273 206.489755 
L 85.765826 206.320878 
L 86.039545 205.945811 
L 86.123766 205.862794 
L 86.292208 205.685738 
L 87.513414 204.613148 
L 87.723967 204.347362 
L 87.892409 204.154603 
L 88.060851 203.68693 
L 89.639997 202.089176 
L 89.829494 201.977015 
L 90.840147 201.003416 
L 91.029645 200.782658 
L 91.240197 200.394599 
L 92.819343 198.747692 
L 93.303614 198.028639 
L 93.387835 197.910395 
L 93.577333 197.548076 
L 93.703664 197.418374 
L 93.914217 197.156544 
L 94.082659 196.823729 
L 94.187936 196.666811 
L 94.461654 196.168703 
L 94.798538 195.873216 
L 96.672458 193.566067 
L 96.861955 193.255661 
L 97.809443 191.635396 
L 97.956829 191.453964 
L 98.019995 191.354576 
L 98.546377 190.475473 
L 98.735875 190.054097 
L 99.430699 188.982236 
L 99.493864 188.872398 
L 99.641251 188.532864 
L 99.746528 188.408443 
L 99.893915 188.195036 
L 100.083412 188.026288 
L 100.967734 186.67848 
L 101.11512 186.466345 
L 101.262507 185.985767 
L 101.494115 185.210342 
L 101.515171 185.193926 
L 101.704668 184.563382 
L 101.852055 184.259755 
L 101.978387 183.9069 
L 102.041553 183.774707 
L 102.252105 183.020953 
L 102.294216 182.993609 
L 102.546879 181.991182 
L 102.58899 181.926148 
L 102.820598 181.313962 
L 102.98904 181.048321 
L 103.178537 180.46861 
L 103.957582 177.486251 
L 104.041803 177.328383 
L 104.231301 176.661149 
L 104.610296 175.183736 
L 104.652406 175.080214 
L 104.989291 173.789878 
L 105.431452 172.309154 
L 105.515673 172.134866 
L 105.70517 171.479539 
L 106.231552 169.384404 
L 106.378939 168.882786 
L 106.421049 168.854528 
L 106.652657 167.676311 
L 106.694768 167.592833 
L 106.905321 166.932201 
L 106.968486 166.657179 
L 107.200094 165.863557 
L 107.326426 165.507071 
L 107.958084 162.544561 
L 108.042305 162.429772 
L 108.463411 159.438862 
L 108.610798 158.435745 
L 108.800295 157.036609 
L 108.905572 156.362086 
L 109.052959 155.495566 
L 109.116124 155.268112 
L 109.326677 153.324561 
L 109.389843 153.121047 
L 109.558285 150.798086 
L 109.663561 150.219206 
L 109.916225 145.481312 
L 110.189943 142.11531 
L 110.632104 127.957923 
L 110.779491 120.989267 
L 110.863712 101.799888 
L 110.863712 101.799888 
" clip-path="url(#pca236debee)" style="fill: none; stroke: #ff7f0e; stroke-width: 1.5; stroke-linecap: square"/>
   </g>
   <g id="patch_3">
    <path d="M 47.72 246.04 
L 47.72 34.56 
" style="fill: none; stroke: #000000; stroke-width: 0.8; stroke-linejoin: miter; stroke-linecap: square"/>
   </g>
   <g id="patch_4">
    <path d="M 279.304846 246.04 
L 279.304846 34.56 
" style="fill: none; stroke: #000000; stroke-width: 0.8; stroke-linejoin: miter; stroke-linecap: square"/>
   </g>
   <g id="patch_5">
    <path d="M 47.72 246.04 
L 279.304846 246.04 
" style="fill: none; stroke: #000000; stroke-width: 0.8; stroke-linejoin: miter; stroke-linecap: square"/>
   </g>
   <g id="patch_6">
    <path d="M 47.72 34.56 
L 279.304846 34.56 
" style="fill: none; stroke: #000000; stroke-width: 0.8; stroke-linejoin: miter; stroke-linecap: square"/>
   </g>
   <g id="legend_1">
    <g id="patch_7">
     <path d="M 54.72 71.91625 
L 154.909063 71.91625 
Q 156.909063 71.91625 156.909063 69.91625 
L 156.909063 41.56 
Q 156.909063 39.56 154.909063 39.56 
L 54.72 39.56 
Q 52.72 39.56 52.72 41.56 
L 52.72 69.91625 
Q 52.72 71.91625 54.72 71.91625 
z
" style="fill: #ffffff; opacity: 0.8; stroke: #cccccc; stroke-linejoin: miter"/>
    </g>
    <g id="line2d_16">
     <path d="M 56.72 47.658437 
L 66.72 47.658437 
L 76.72 47.658437 
" style="fill: none; stroke: #1f77b4; stroke-width: 1.5; stroke-linecap: square"/>
    </g>
    <g id="text_16">
     <!-- ID samples -->
     <g transform="translate(84.72 51.158437) scale(0.1 -0.1)">
      <defs>
       <path id="DejaVuSans-49" d="M 628 4666 
L 1259 4666 
L 1259 0 
L 628 0 
L 628 4666 
z
" transform="scale(0.015625)"/>
       <path id="DejaVuSans-44" d="M 1259 4147 
L 1259 519 
L 2022 519 
Q 2988 519 3436 956 
Q 3884 1394 3884 2338 
Q 3884 3275 3436 3711 
Q 2988 4147 2022 4147 
L 1259 4147 
z
M 628 4666 
L 1925 4666 
Q 3281 4666 3915 4102 
Q 4550 3538 4550 2338 
Q 4550 1131 3912 565 
Q 3275 0 1925 0 
L 628 0 
L 628 4666 
z
" transform="scale(0.015625)"/>
      </defs>
      <use xlink:href="#DejaVuSans-49"/>
      <use xlink:href="#DejaVuSans-44" transform="translate(29.492188 0)"/>
      <use xlink:href="#DejaVuSans-20" transform="translate(106.494141 0)"/>
      <use xlink:href="#DejaVuSans-73" transform="translate(138.28125 0)"/>
      <use xlink:href="#DejaVuSans-61" transform="translate(190.380859 0)"/>
      <use xlink:href="#DejaVuSans-6d" transform="translate(251.660156 0)"/>
      <use xlink:href="#DejaVuSans-70" transform="translate(349.072266 0)"/>
      <use xlink:href="#DejaVuSans-6c" transform="translate(412.548828 0)"/>
      <use xlink:href="#DejaVuSans-65" transform="translate(440.332031 0)"/>
      <use xlink:href="#DejaVuSans-73" transform="translate(501.855469 0)"/>
     </g>
    </g>
    <g id="line2d_17">
     <path d="M 56.72 62.336562 
L 66.72 62.336562 
L 76.72 62.336562 
" style="fill: none; stroke: #ff7f0e; stroke-width: 1.5; stroke-linecap: square"/>
    </g>
    <g id="text_17">
     <!-- OOD samples -->
     <g transform="translate(84.72 65.836562) scale(0.1 -0.1)">
      <use xlink:href="#DejaVuSans-4f"/>
      <use xlink:href="#DejaVuSans-4f" transform="translate(78.710938 0)"/>
      <use xlink:href="#DejaVuSans-44" transform="translate(157.421875 0)"/>
      <use xlink:href="#DejaVuSans-20" transform="translate(234.423828 0)"/>
      <use xlink:href="#DejaVuSans-73" transform="translate(266.210938 0)"/>
      <use xlink:href="#DejaVuSans-61" transform="translate(318.310547 0)"/>
      <use xlink:href="#DejaVuSans-6d" transform="translate(379.589844 0)"/>
      <use xlink:href="#DejaVuSans-70" transform="translate(477.001953 0)"/>
      <use xlink:href="#DejaVuSans-6c" transform="translate(540.478516 0)"/>
      <use xlink:href="#DejaVuSans-65" transform="translate(568.261719 0)"/>
      <use xlink:href="#DejaVuSans-73" transform="translate(629.785156 0)"/>
     </g>
    </g>
   </g>
  </g>
  <g id="axes_2">
   <g id="patch_8">
    <path d="M 333.615154 246.04 
L 565.2 246.04 
L 565.2 34.56 
L 333.615154 34.56 
z
" style="fill: #ffffff"/>
   </g>
   <g id="patch_9">
    <path d="M 344.756702 246.04 
L 353.153371 246.04 
L 353.153371 180.972361 
L 344.756702 180.972361 
z
" clip-path="url(#p795f7e1363)" style="fill: #1f77b4; opacity: 0.5"/>
   </g>
   <g id="patch_10">
    <path d="M 353.153371 246.04 
L 361.55004 246.04 
L 361.55004 96.92668 
L 353.153371 96.92668 
z
" clip-path="url(#p795f7e1363)" style="fill: #1f77b4; opacity: 0.5"/>
   </g>
   <g id="patch_11">
    <path d="M 361.55004 246.04 
L 369.946708 246.04 
L 369.946708 65.925231 
L 361.55004 65.925231 
z
" clip-path="url(#p795f7e1363)" style="fill: #1f77b4; opacity: 0.5"/>
   </g>
   <g id="patch_12">
    <path d="M 369.946708 246.04 
L 378.343376 246.04 
L 378.343376 56.14151 
L 369.946708 56.14151 
z
" clip-path="url(#p795f7e1363)" style="fill: #1f77b4; opacity: 0.5"/>
   </g>
   <g id="patch_13">
    <path d="M 378.343376 246.04 
L 386.740044 246.04 
L 386.740044 80.777627 
L 378.343376 80.777627 
z
" clip-path="url(#p795f7e1363)" style="fill: #1f77b4; opacity: 0.5"/>
   </g>
   <g id="patch_14">
    <path d="M 386.740044 246.04 
L 395.136714 246.04 
L 395.136714 107.653426 
L 386.740044 107.653426 
z
" clip-path="url(#p795f7e1363)" style="fill: #1f77b4; opacity: 0.5"/>
   </g>
   <g id="patch_15">
    <path d="M 395.136714 246.04 
L 403.53338 246.04 
L 403.53338 151.149669 
L 395.136714 151.149669 
z
" clip-path="url(#p795f7e1363)" style="fill: #1f77b4; opacity: 0.5"/>
   </g>
   <g id="patch_16">
    <path d="M 403.53338 246.04 
L 411.93005 246.04 
L 411.93005 180.382997 
L 403.53338 180.382997 
z
" clip-path="url(#p795f7e1363)" style="fill: #1f77b4; opacity: 0.5"/>
   </g>
   <g id="patch_17">
    <path d="M 411.93005 246.04 
L 420.32672 246.04 
L 420.32672 201.718576 
L 411.93005 201.718576 
z
" clip-path="url(#p795f7e1363)" style="fill: #1f77b4; opacity: 0.5"/>
   </g>
   <g id="patch_18">
    <path d="M 420.32672 246.04 
L 428.72339 246.04 
L 428.72339 219.517871 
L 420.32672 219.517871 
z
" clip-path="url(#p795f7e1363)" style="fill: #1f77b4; opacity: 0.5"/>
   </g>
   <g id="patch_19">
    <path d="M 428.72339 246.04 
L 437.12006 246.04 
L 437.12006 228.358581 
L 428.72339 228.358581 
z
" clip-path="url(#p795f7e1363)" style="fill: #1f77b4; opacity: 0.5"/>
   </g>
   <g id="patch_20">
    <path d="M 437.12006 246.04 
L 445.51673 246.04 
L 445.51673 231.069732 
L 437.12006 231.069732 
z
" clip-path="url(#p795f7e1363)" style="fill: #1f77b4; opacity: 0.5"/>
   </g>
   <g id="patch_21">
    <path d="M 445.51673 246.04 
L 453.9134 246.04 
L 453.9134 238.024423 
L 445.51673 238.024423 
z
" clip-path="url(#p795f7e1363)" style="fill: #1f77b4; opacity: 0.5"/>
   </g>
   <g id="patch_22">
    <path d="M 453.9134 246.04 
L 462.310062 246.04 
L 462.310062 239.321054 
L 453.9134 239.321054 
z
" clip-path="url(#p795f7e1363)" style="fill: #1f77b4; opacity: 0.5"/>
   </g>
   <g id="patch_23">
    <path d="M 462.310062 246.04 
L 470.706732 246.04 
L 470.706732 242.150088 
L 462.310062 242.150088 
z
" clip-path="url(#p795f7e1363)" style="fill: #1f77b4; opacity: 0.5"/>
   </g>
   <g id="patch_24">
    <path d="M 470.706732 246.04 
L 479.103402 246.04 
L 479.103402 243.800354 
L 470.706732 243.800354 
z
" clip-path="url(#p795f7e1363)" style="fill: #1f77b4; opacity: 0.5"/>
   </g>
   <g id="patch_25">
    <path d="M 479.103402 246.04 
L 487.500072 246.04 
L 487.500072 244.743363 
L 479.103402 244.743363 
z
" clip-path="url(#p795f7e1363)" style="fill: #1f77b4; opacity: 0.5"/>
   </g>
   <g id="patch_26">
    <path d="M 487.500072 246.04 
L 495.896734 246.04 
L 495.896734 244.507609 
L 487.500072 244.507609 
z
" clip-path="url(#p795f7e1363)" style="fill: #1f77b4; opacity: 0.5"/>
   </g>
   <g id="patch_27">
    <path d="M 495.896734 246.04 
L 504.293412 246.04 
L 504.293412 245.214868 
L 495.896734 245.214868 
z
" clip-path="url(#p795f7e1363)" style="fill: #1f77b4; opacity: 0.5"/>
   </g>
   <g id="patch_28">
    <path d="M 504.293412 246.04 
L 512.690074 246.04 
L 512.690074 245.450619 
L 504.293412 245.450619 
z
" clip-path="url(#p795f7e1363)" style="fill: #1f77b4; opacity: 0.5"/>
   </g>
   <g id="patch_29">
    <path d="M 512.690074 246.04 
L 521.086753 246.04 
L 521.086753 245.568496 
L 512.690074 245.568496 
z
" clip-path="url(#p795f7e1363)" style="fill: #1f77b4; opacity: 0.5"/>
   </g>
   <g id="patch_30">
    <path d="M 521.086753 246.04 
L 529.483414 246.04 
L 529.483414 245.686371 
L 521.086753 245.686371 
z
" clip-path="url(#p795f7e1363)" style="fill: #1f77b4; opacity: 0.5"/>
   </g>
   <g id="patch_31">
    <path d="M 529.483414 246.04 
L 537.880076 246.04 
L 537.880076 245.450619 
L 529.483414 245.450619 
z
" clip-path="url(#p795f7e1363)" style="fill: #1f77b4; opacity: 0.5"/>
   </g>
   <g id="patch_32">
    <path d="M 537.880076 246.04 
L 546.276755 246.04 
L 546.276755 245.804248 
L 537.880076 245.804248 
z
" clip-path="url(#p795f7e1363)" style="fill: #1f77b4; opacity: 0.5"/>
   </g>
   <g id="patch_33">
    <path d="M 546.276755 246.04 
L 554.673416 246.04 
L 554.673416 245.922124 
L 546.276755 245.922124 
z
" clip-path="url(#p795f7e1363)" style="fill: #1f77b4; opacity: 0.5"/>
   </g>
   <g id="patch_34">
    <path d="M 344.141738 246.04 
L 350.03878 246.04 
L 350.03878 196.358989 
L 344.141738 196.358989 
z
" clip-path="url(#p795f7e1363)" style="fill: #ff7f0e; opacity: 0.5"/>
   </g>
   <g id="patch_35">
    <path d="M 350.03878 246.04 
L 355.935823 246.04 
L 355.935823 104.381994 
L 350.03878 104.381994 
z
" clip-path="url(#p795f7e1363)" style="fill: #ff7f0e; opacity: 0.5"/>
   </g>
   <g id="patch_36">
    <path d="M 355.935823 246.04 
L 361.832864 246.04 
L 361.832864 69.470984 
L 355.935823 69.470984 
z
" clip-path="url(#p795f7e1363)" style="fill: #ff7f0e; opacity: 0.5"/>
   </g>
   <g id="patch_37">
    <path d="M 361.832864 246.04 
L 367.729906 246.04 
L 367.729906 45.301841 
L 361.832864 45.301841 
z
" clip-path="url(#p795f7e1363)" style="fill: #ff7f0e; opacity: 0.5"/>
   </g>
   <g id="patch_38">
    <path d="M 367.729906 246.04 
L 373.626947 246.04 
L 373.626947 44.630476 
L 367.729906 44.630476 
z
" clip-path="url(#p795f7e1363)" style="fill: #ff7f0e; opacity: 0.5"/>
   </g>
   <g id="patch_39">
    <path d="M 373.626947 246.04 
L 379.523991 246.04 
L 379.523991 70.142413 
L 373.626947 70.142413 
z
" clip-path="url(#p795f7e1363)" style="fill: #ff7f0e; opacity: 0.5"/>
   </g>
   <g id="patch_40">
    <path d="M 379.523991 246.04 
L 385.421031 246.04 
L 385.421031 88.940514 
L 379.523991 88.940514 
z
" clip-path="url(#p795f7e1363)" style="fill: #ff7f0e; opacity: 0.5"/>
   </g>
   <g id="patch_41">
    <path d="M 385.421031 246.04 
L 391.318075 246.04 
L 391.318075 118.480681 
L 385.421031 118.480681 
z
" clip-path="url(#p795f7e1363)" style="fill: #ff7f0e; opacity: 0.5"/>
   </g>
   <g id="patch_42">
    <path d="M 391.318075 246.04 
L 397.215118 246.04 
L 397.215118 139.964356 
L 391.318075 139.964356 
z
" clip-path="url(#p795f7e1363)" style="fill: #ff7f0e; opacity: 0.5"/>
   </g>
   <g id="patch_43">
    <path d="M 397.215118 246.04 
L 403.112158 246.04 
L 403.112158 174.875276 
L 397.215118 174.875276 
z
" clip-path="url(#p795f7e1363)" style="fill: #ff7f0e; opacity: 0.5"/>
   </g>
   <g id="patch_44">
    <path d="M 403.112158 246.04 
L 409.009202 246.04 
L 409.009202 191.659448 
L 403.112158 191.659448 
z
" clip-path="url(#p795f7e1363)" style="fill: #ff7f0e; opacity: 0.5"/>
   </g>
   <g id="patch_45">
    <path d="M 409.009202 246.04 
L 414.906245 246.04 
L 414.906245 197.030367 
L 409.009202 197.030367 
z
" clip-path="url(#p795f7e1363)" style="fill: #ff7f0e; opacity: 0.5"/>
   </g>
   <g id="patch_46">
    <path d="M 414.906245 246.04 
L 420.803293 246.04 
L 420.803293 200.387224 
L 414.906245 200.387224 
z
" clip-path="url(#p795f7e1363)" style="fill: #ff7f0e; opacity: 0.5"/>
   </g>
   <g id="patch_47">
    <path d="M 420.803293 246.04 
L 426.700329 246.04 
L 426.700329 207.772149 
L 420.803293 207.772149 
z
" clip-path="url(#p795f7e1363)" style="fill: #ff7f0e; opacity: 0.5"/>
   </g>
   <g id="patch_48">
    <path d="M 426.700329 246.04 
L 432.597373 246.04 
L 432.597373 221.870866 
L 426.700329 221.870866 
z
" clip-path="url(#p795f7e1363)" style="fill: #ff7f0e; opacity: 0.5"/>
   </g>
   <g id="patch_49">
    <path d="M 432.597373 246.04 
L 438.494416 246.04 
L 438.494416 225.899055 
L 432.597373 225.899055 
z
" clip-path="url(#p795f7e1363)" style="fill: #ff7f0e; opacity: 0.5"/>
   </g>
   <g id="patch_50">
    <path d="M 438.494416 246.04 
L 444.39146 246.04 
L 444.39146 235.969527 
L 438.494416 235.969527 
z
" clip-path="url(#p795f7e1363)" style="fill: #ff7f0e; opacity: 0.5"/>
   </g>
   <g id="patch_51">
    <path d="M 444.39146 246.04 
L 450.288504 246.04 
L 450.288504 233.955433 
L 444.39146 233.955433 
z
" clip-path="url(#p795f7e1363)" style="fill: #ff7f0e; opacity: 0.5"/>
   </g>
   <g id="patch_52">
    <path d="M 450.288504 246.04 
L 456.185539 246.04 
L 456.185539 239.997708 
L 450.288504 239.997708 
z
" clip-path="url(#p795f7e1363)" style="fill: #ff7f0e; opacity: 0.5"/>
   </g>
   <g id="patch_53">
    <path d="M 456.185539 246.04 
L 462.082583 246.04 
L 462.082583 243.354541 
L 456.185539 243.354541 
z
" clip-path="url(#p795f7e1363)" style="fill: #ff7f0e; opacity: 0.5"/>
   </g>
   <g id="patch_54">
    <path d="M 462.082583 246.04 
L 467.979627 246.04 
L 467.979627 244.025905 
L 462.082583 244.025905 
z
" clip-path="url(#p795f7e1363)" style="fill: #ff7f0e; opacity: 0.5"/>
   </g>
   <g id="patch_55">
    <path d="M 467.979627 246.04 
L 473.87667 246.04 
L 473.87667 242.011811 
L 467.979627 242.011811 
z
" clip-path="url(#p795f7e1363)" style="fill: #ff7f0e; opacity: 0.5"/>
   </g>
   <g id="patch_56">
    <path d="M 473.87667 246.04 
L 479.773714 246.04 
L 479.773714 245.368635 
L 473.87667 245.368635 
z
" clip-path="url(#p795f7e1363)" style="fill: #ff7f0e; opacity: 0.5"/>
   </g>
   <g id="patch_57">
    <path d="M 479.773714 246.04 
L 485.670758 246.04 
L 485.670758 245.368635 
L 479.773714 245.368635 
z
" clip-path="url(#p795f7e1363)" style="fill: #ff7f0e; opacity: 0.5"/>
   </g>
   <g id="patch_58">
    <path d="M 485.670758 246.04 
L 491.567793 246.04 
L 491.567793 245.368634 
L 485.670758 245.368634 
z
" clip-path="url(#p795f7e1363)" style="fill: #ff7f0e; opacity: 0.5"/>
   </g>
   <g id="matplotlib.axis_3">
    <g id="xtick_7">
     <g id="line2d_18">
      <g>
       <use xlink:href="#mfc668a8485" x="343.81883" y="246.04" style="stroke: #000000; stroke-width: 0.8"/>
      </g>
     </g>
     <g id="text_18">
      <!-- 0.0 -->
      <g transform="translate(335.867267 260.638438) scale(0.1 -0.1)">
       <use xlink:href="#DejaVuSans-30"/>
       <use xlink:href="#DejaVuSans-2e" transform="translate(63.623047 0)"/>
       <use xlink:href="#DejaVuSans-30" transform="translate(95.410156 0)"/>
      </g>
     </g>
    </g>
    <g id="xtick_8">
     <g id="line2d_19">
      <g>
       <use xlink:href="#mfc668a8485" x="379.682454" y="246.04" style="stroke: #000000; stroke-width: 0.8"/>
      </g>
     </g>
     <g id="text_19">
      <!-- 0.5 -->
      <g transform="translate(371.730892 260.638438) scale(0.1 -0.1)">
       <use xlink:href="#DejaVuSans-30"/>
       <use xlink:href="#DejaVuSans-2e" transform="translate(63.623047 0)"/>
       <use xlink:href="#DejaVuSans-35" transform="translate(95.410156 0)"/>
      </g>
     </g>
    </g>
    <g id="xtick_9">
     <g id="line2d_20">
      <g>
       <use xlink:href="#mfc668a8485" x="415.546079" y="246.04" style="stroke: #000000; stroke-width: 0.8"/>
      </g>
     </g>
     <g id="text_20">
      <!-- 1.0 -->
      <g transform="translate(407.594517 260.638438) scale(0.1 -0.1)">
       <use xlink:href="#DejaVuSans-31"/>
       <use xlink:href="#DejaVuSans-2e" transform="translate(63.623047 0)"/>
       <use xlink:href="#DejaVuSans-30" transform="translate(95.410156 0)"/>
      </g>
     </g>
    </g>
    <g id="xtick_10">
     <g id="line2d_21">
      <g>
       <use xlink:href="#mfc668a8485" x="451.409704" y="246.04" style="stroke: #000000; stroke-width: 0.8"/>
      </g>
     </g>
     <g id="text_21">
      <!-- 1.5 -->
      <g transform="translate(443.458141 260.638438) scale(0.1 -0.1)">
       <use xlink:href="#DejaVuSans-31"/>
       <use xlink:href="#DejaVuSans-2e" transform="translate(63.623047 0)"/>
       <use xlink:href="#DejaVuSans-35" transform="translate(95.410156 0)"/>
      </g>
     </g>
    </g>
    <g id="xtick_11">
     <g id="line2d_22">
      <g>
       <use xlink:href="#mfc668a8485" x="487.273329" y="246.04" style="stroke: #000000; stroke-width: 0.8"/>
      </g>
     </g>
     <g id="text_22">
      <!-- 2.0 -->
      <g transform="translate(479.321766 260.638438) scale(0.1 -0.1)">
       <use xlink:href="#DejaVuSans-32"/>
       <use xlink:href="#DejaVuSans-2e" transform="translate(63.623047 0)"/>
       <use xlink:href="#DejaVuSans-30" transform="translate(95.410156 0)"/>
      </g>
     </g>
    </g>
    <g id="xtick_12">
     <g id="line2d_23">
      <g>
       <use xlink:href="#mfc668a8485" x="523.136953" y="246.04" style="stroke: #000000; stroke-width: 0.8"/>
      </g>
     </g>
     <g id="text_23">
      <!-- 2.5 -->
      <g transform="translate(515.185391 260.638438) scale(0.1 -0.1)">
       <use xlink:href="#DejaVuSans-32"/>
       <use xlink:href="#DejaVuSans-2e" transform="translate(63.623047 0)"/>
       <use xlink:href="#DejaVuSans-35" transform="translate(95.410156 0)"/>
      </g>
     </g>
    </g>
    <g id="xtick_13">
     <g id="line2d_24">
      <g>
       <use xlink:href="#mfc668a8485" x="559.000578" y="246.04" style="stroke: #000000; stroke-width: 0.8"/>
      </g>
     </g>
     <g id="text_24">
      <!-- 3.0 -->
      <g transform="translate(551.049016 260.638438) scale(0.1 -0.1)">
       <use xlink:href="#DejaVuSans-33"/>
       <use xlink:href="#DejaVuSans-2e" transform="translate(63.623047 0)"/>
       <use xlink:href="#DejaVuSans-30" transform="translate(95.410156 0)"/>
      </g>
     </g>
    </g>
    <g id="text_25">
     <!-- Scores -->
     <g transform="translate(432.800546 274.316562) scale(0.1 -0.1)">
      <use xlink:href="#DejaVuSans-53"/>
      <use xlink:href="#DejaVuSans-63" transform="translate(63.476562 0)"/>
      <use xlink:href="#DejaVuSans-6f" transform="translate(118.457031 0)"/>
      <use xlink:href="#DejaVuSans-72" transform="translate(179.638672 0)"/>
      <use xlink:href="#DejaVuSans-65" transform="translate(218.501953 0)"/>
      <use xlink:href="#DejaVuSans-73" transform="translate(280.025391 0)"/>
     </g>
    </g>
   </g>
   <g id="matplotlib.axis_4">
    <g id="ytick_8">
     <g id="line2d_25">
      <g>
       <use xlink:href="#m651f5aef99" x="333.615154" y="246.04" style="stroke: #000000; stroke-width: 0.8"/>
      </g>
     </g>
     <g id="text_26">
      <!-- 0.0 -->
      <g transform="translate(310.712029 249.839219) scale(0.1 -0.1)">
       <use xlink:href="#DejaVuSans-30"/>
       <use xlink:href="#DejaVuSans-2e" transform="translate(63.623047 0)"/>
       <use xlink:href="#DejaVuSans-30" transform="translate(95.410156 0)"/>
      </g>
     </g>
    </g>
    <g id="ytick_9">
     <g id="line2d_26">
      <g>
       <use xlink:href="#m651f5aef99" x="333.615154" y="218.441926" style="stroke: #000000; stroke-width: 0.8"/>
      </g>
     </g>
     <g id="text_27">
      <!-- 0.2 -->
      <g transform="translate(310.712029 222.241145) scale(0.1 -0.1)">
       <use xlink:href="#DejaVuSans-30"/>
       <use xlink:href="#DejaVuSans-2e" transform="translate(63.623047 0)"/>
       <use xlink:href="#DejaVuSans-32" transform="translate(95.410156 0)"/>
      </g>
     </g>
    </g>
    <g id="ytick_10">
     <g id="line2d_27">
      <g>
       <use xlink:href="#m651f5aef99" x="333.615154" y="190.843853" style="stroke: #000000; stroke-width: 0.8"/>
      </g>
     </g>
     <g id="text_28">
      <!-- 0.4 -->
      <g transform="translate(310.712029 194.643071) scale(0.1 -0.1)">
       <use xlink:href="#DejaVuSans-30"/>
       <use xlink:href="#DejaVuSans-2e" transform="translate(63.623047 0)"/>
       <use xlink:href="#DejaVuSans-34" transform="translate(95.410156 0)"/>
      </g>
     </g>
    </g>
    <g id="ytick_11">
     <g id="line2d_28">
      <g>
       <use xlink:href="#m651f5aef99" x="333.615154" y="163.245779" style="stroke: #000000; stroke-width: 0.8"/>
      </g>
     </g>
     <g id="text_29">
      <!-- 0.6 -->
      <g transform="translate(310.712029 167.044998) scale(0.1 -0.1)">
       <use xlink:href="#DejaVuSans-30"/>
       <use xlink:href="#DejaVuSans-2e" transform="translate(63.623047 0)"/>
       <use xlink:href="#DejaVuSans-36" transform="translate(95.410156 0)"/>
      </g>
     </g>
    </g>
    <g id="ytick_12">
     <g id="line2d_29">
      <g>
       <use xlink:href="#m651f5aef99" x="333.615154" y="135.647705" style="stroke: #000000; stroke-width: 0.8"/>
      </g>
     </g>
     <g id="text_30">
      <!-- 0.8 -->
      <g transform="translate(310.712029 139.446924) scale(0.1 -0.1)">
       <use xlink:href="#DejaVuSans-30"/>
       <use xlink:href="#DejaVuSans-2e" transform="translate(63.623047 0)"/>
       <use xlink:href="#DejaVuSans-38" transform="translate(95.410156 0)"/>
      </g>
     </g>
    </g>
    <g id="ytick_13">
     <g id="line2d_30">
      <g>
       <use xlink:href="#m651f5aef99" x="333.615154" y="108.049631" style="stroke: #000000; stroke-width: 0.8"/>
      </g>
     </g>
     <g id="text_31">
      <!-- 1.0 -->
      <g transform="translate(310.712029 111.84885) scale(0.1 -0.1)">
       <use xlink:href="#DejaVuSans-31"/>
       <use xlink:href="#DejaVuSans-2e" transform="translate(63.623047 0)"/>
       <use xlink:href="#DejaVuSans-30" transform="translate(95.410156 0)"/>
      </g>
     </g>
    </g>
    <g id="ytick_14">
     <g id="line2d_31">
      <g>
       <use xlink:href="#m651f5aef99" x="333.615154" y="80.451558" style="stroke: #000000; stroke-width: 0.8"/>
      </g>
     </g>
     <g id="text_32">
      <!-- 1.2 -->
      <g transform="translate(310.712029 84.250777) scale(0.1 -0.1)">
       <use xlink:href="#DejaVuSans-31"/>
       <use xlink:href="#DejaVuSans-2e" transform="translate(63.623047 0)"/>
       <use xlink:href="#DejaVuSans-32" transform="translate(95.410156 0)"/>
      </g>
     </g>
    </g>
    <g id="ytick_15">
     <g id="line2d_32">
      <g>
       <use xlink:href="#m651f5aef99" x="333.615154" y="52.853484" style="stroke: #000000; stroke-width: 0.8"/>
      </g>
     </g>
     <g id="text_33">
      <!-- 1.4 -->
      <g transform="translate(310.712029 56.652703) scale(0.1 -0.1)">
       <use xlink:href="#DejaVuSans-31"/>
       <use xlink:href="#DejaVuSans-2e" transform="translate(63.623047 0)"/>
       <use xlink:href="#DejaVuSans-34" transform="translate(95.410156 0)"/>
      </g>
     </g>
    </g>
    <g id="text_34">
     <!-- Density -->
     <g transform="translate(304.632341 159.308594) rotate(-90) scale(0.1 -0.1)">
      <defs>
       <path id="DejaVuSans-6e" d="M 3513 2113 
L 3513 0 
L 2938 0 
L 2938 2094 
Q 2938 2591 2744 2837 
Q 2550 3084 2163 3084 
Q 1697 3084 1428 2787 
Q 1159 2491 1159 1978 
L 1159 0 
L 581 0 
L 581 3500 
L 1159 3500 
L 1159 2956 
Q 1366 3272 1645 3428 
Q 1925 3584 2291 3584 
Q 2894 3584 3203 3211 
Q 3513 2838 3513 2113 
z
" transform="scale(0.015625)"/>
       <path id="DejaVuSans-69" d="M 603 3500 
L 1178 3500 
L 1178 0 
L 603 0 
L 603 3500 
z
M 603 4863 
L 1178 4863 
L 1178 4134 
L 603 4134 
L 603 4863 
z
" transform="scale(0.015625)"/>
       <path id="DejaVuSans-74" d="M 1172 4494 
L 1172 3500 
L 2356 3500 
L 2356 3053 
L 1172 3053 
L 1172 1153 
Q 1172 725 1289 603 
Q 1406 481 1766 481 
L 2356 481 
L 2356 0 
L 1766 0 
Q 1100 0 847 248 
Q 594 497 594 1153 
L 594 3053 
L 172 3053 
L 172 3500 
L 594 3500 
L 594 4494 
L 1172 4494 
z
" transform="scale(0.015625)"/>
       <path id="DejaVuSans-79" d="M 2059 -325 
Q 1816 -950 1584 -1140 
Q 1353 -1331 966 -1331 
L 506 -1331 
L 506 -850 
L 844 -850 
Q 1081 -850 1212 -737 
Q 1344 -625 1503 -206 
L 1606 56 
L 191 3500 
L 800 3500 
L 1894 763 
L 2988 3500 
L 3597 3500 
L 2059 -325 
z
" transform="scale(0.015625)"/>
      </defs>
      <use xlink:href="#DejaVuSans-44"/>
      <use xlink:href="#DejaVuSans-65" transform="translate(77.001953 0)"/>
      <use xlink:href="#DejaVuSans-6e" transform="translate(138.525391 0)"/>
      <use xlink:href="#DejaVuSans-73" transform="translate(201.904297 0)"/>
      <use xlink:href="#DejaVuSans-69" transform="translate(254.003906 0)"/>
      <use xlink:href="#DejaVuSans-74" transform="translate(281.787109 0)"/>
      <use xlink:href="#DejaVuSans-79" transform="translate(320.996094 0)"/>
     </g>
    </g>
   </g>
   <g id="patch_59">
    <path d="M 333.615154 246.04 
L 333.615154 34.56 
" style="fill: none; stroke: #000000; stroke-width: 0.8; stroke-linejoin: miter; stroke-linecap: square"/>
   </g>
   <g id="patch_60">
    <path d="M 565.2 246.04 
L 565.2 34.56 
" style="fill: none; stroke: #000000; stroke-width: 0.8; stroke-linejoin: miter; stroke-linecap: square"/>
   </g>
   <g id="patch_61">
    <path d="M 333.615154 246.04 
L 565.2 246.04 
" style="fill: none; stroke: #000000; stroke-width: 0.8; stroke-linejoin: miter; stroke-linecap: square"/>
   </g>
   <g id="patch_62">
    <path d="M 333.615154 34.56 
L 565.2 34.56 
" style="fill: none; stroke: #000000; stroke-width: 0.8; stroke-linejoin: miter; stroke-linecap: square"/>
   </g>
   <g id="legend_2">
    <g id="patch_63">
     <path d="M 458.010937 71.91625 
L 558.2 71.91625 
Q 560.2 71.91625 560.2 69.91625 
L 560.2 41.56 
Q 560.2 39.56 558.2 39.56 
L 458.010937 39.56 
Q 456.010937 39.56 456.010937 41.56 
L 456.010937 69.91625 
Q 456.010937 71.91625 458.010937 71.91625 
z
" style="fill: #ffffff; opacity: 0.8; stroke: #cccccc; stroke-linejoin: miter"/>
    </g>
    <g id="patch_64">
     <path d="M 460.010937 51.158437 
L 480.010937 51.158437 
L 480.010937 44.158437 
L 460.010937 44.158437 
z
" style="fill: #1f77b4; opacity: 0.5"/>
    </g>
    <g id="text_35">
     <!-- ID samples -->
     <g transform="translate(488.010937 51.158437) scale(0.1 -0.1)">
      <use xlink:href="#DejaVuSans-49"/>
      <use xlink:href="#DejaVuSans-44" transform="translate(29.492188 0)"/>
      <use xlink:href="#DejaVuSans-20" transform="translate(106.494141 0)"/>
      <use xlink:href="#DejaVuSans-73" transform="translate(138.28125 0)"/>
      <use xlink:href="#DejaVuSans-61" transform="translate(190.380859 0)"/>
      <use xlink:href="#DejaVuSans-6d" transform="translate(251.660156 0)"/>
      <use xlink:href="#DejaVuSans-70" transform="translate(349.072266 0)"/>
      <use xlink:href="#DejaVuSans-6c" transform="translate(412.548828 0)"/>
      <use xlink:href="#DejaVuSans-65" transform="translate(440.332031 0)"/>
      <use xlink:href="#DejaVuSans-73" transform="translate(501.855469 0)"/>
     </g>
    </g>
    <g id="patch_65">
     <path d="M 460.010937 65.836562 
L 480.010937 65.836562 
L 480.010937 58.836562 
L 460.010937 58.836562 
z
" style="fill: #ff7f0e; opacity: 0.5"/>
    </g>
    <g id="text_36">
     <!-- OOD samples -->
     <g transform="translate(488.010937 65.836562) scale(0.1 -0.1)">
      <use xlink:href="#DejaVuSans-4f"/>
      <use xlink:href="#DejaVuSans-4f" transform="translate(78.710938 0)"/>
      <use xlink:href="#DejaVuSans-44" transform="translate(157.421875 0)"/>
      <use xlink:href="#DejaVuSans-20" transform="translate(234.423828 0)"/>
      <use xlink:href="#DejaVuSans-73" transform="translate(266.210938 0)"/>
      <use xlink:href="#DejaVuSans-61" transform="translate(318.310547 0)"/>
      <use xlink:href="#DejaVuSans-6d" transform="translate(379.589844 0)"/>
      <use xlink:href="#DejaVuSans-70" transform="translate(477.001953 0)"/>
      <use xlink:href="#DejaVuSans-6c" transform="translate(540.478516 0)"/>
      <use xlink:href="#DejaVuSans-65" transform="translate(568.261719 0)"/>
      <use xlink:href="#DejaVuSans-73" transform="translate(629.785156 0)"/>
     </g>
    </g>
   </g>
  </g>
  <g id="text_37">
   <!-- Scores using mse -->
   <g transform="translate(235.389375 14.878125) scale(0.12 -0.12)">
    <defs>
     <path id="DejaVuSans-75" d="M 544 1381 
L 544 3500 
L 1119 3500 
L 1119 1403 
Q 1119 906 1312 657 
Q 1506 409 1894 409 
Q 2359 409 2629 706 
Q 2900 1003 2900 1516 
L 2900 3500 
L 3475 3500 
L 3475 0 
L 2900 0 
L 2900 538 
Q 2691 219 2414 64 
Q 2138 -91 1772 -91 
Q 1169 -91 856 284 
Q 544 659 544 1381 
z
M 1991 3584 
L 1991 3584 
z
" transform="scale(0.015625)"/>
     <path id="DejaVuSans-67" d="M 2906 1791 
Q 2906 2416 2648 2759 
Q 2391 3103 1925 3103 
Q 1463 3103 1205 2759 
Q 947 2416 947 1791 
Q 947 1169 1205 825 
Q 1463 481 1925 481 
Q 2391 481 2648 825 
Q 2906 1169 2906 1791 
z
M 3481 434 
Q 3481 -459 3084 -895 
Q 2688 -1331 1869 -1331 
Q 1566 -1331 1297 -1286 
Q 1028 -1241 775 -1147 
L 775 -588 
Q 1028 -725 1275 -790 
Q 1522 -856 1778 -856 
Q 2344 -856 2625 -561 
Q 2906 -266 2906 331 
L 2906 616 
Q 2728 306 2450 153 
Q 2172 0 1784 0 
Q 1141 0 747 490 
Q 353 981 353 1791 
Q 353 2603 747 3093 
Q 1141 3584 1784 3584 
Q 2172 3584 2450 3431 
Q 2728 3278 2906 2969 
L 2906 3500 
L 3481 3500 
L 3481 434 
z
" transform="scale(0.015625)"/>
    </defs>
    <use xlink:href="#DejaVuSans-53"/>
    <use xlink:href="#DejaVuSans-63" transform="translate(63.476562 0)"/>
    <use xlink:href="#DejaVuSans-6f" transform="translate(118.457031 0)"/>
    <use xlink:href="#DejaVuSans-72" transform="translate(179.638672 0)"/>
    <use xlink:href="#DejaVuSans-65" transform="translate(218.501953 0)"/>
    <use xlink:href="#DejaVuSans-73" transform="translate(280.025391 0)"/>
    <use xlink:href="#DejaVuSans-20" transform="translate(332.125 0)"/>
    <use xlink:href="#DejaVuSans-75" transform="translate(363.912109 0)"/>
    <use xlink:href="#DejaVuSans-73" transform="translate(427.291016 0)"/>
    <use xlink:href="#DejaVuSans-69" transform="translate(479.390625 0)"/>
    <use xlink:href="#DejaVuSans-6e" transform="translate(507.173828 0)"/>
    <use xlink:href="#DejaVuSans-67" transform="translate(570.552734 0)"/>
    <use xlink:href="#DejaVuSans-20" transform="translate(634.029297 0)"/>
    <use xlink:href="#DejaVuSans-6d" transform="translate(665.816406 0)"/>
    <use xlink:href="#DejaVuSans-73" transform="translate(763.228516 0)"/>
    <use xlink:href="#DejaVuSans-65" transform="translate(815.328125 0)"/>
   </g>
  </g>
 </g>
 <defs>
  <clipPath id="pca236debee">
   <rect x="47.72" y="34.56" width="231.584846" height="211.48"/>
  </clipPath>
  <clipPath id="p795f7e1363">
   <rect x="333.615154" y="34.56" width="231.584846" height="211.48"/>
  </clipPath>
 </defs>
</svg>
