<svg class="main-svg" xmlns="http://www.w3.org/2000/svg" xmlns:xlink="http://www.w3.org/1999/xlink" width="1200" height="600" style="" viewBox="0 0 1200 600"><rect x="0" y="0" width="1200" height="600" style="fill: rgb(255, 255, 255); fill-opacity: 1;"/><defs id="defs-a82ede"><g class="clips"><clipPath id="clipa82edexyplot" class="plotclip"><rect width="830" height="519"/></clipPath><clipPath class="axesclip" id="clipa82edex"><rect x="68" y="0" width="830" height="600"/></clipPath><clipPath class="axesclip" id="clipa82edey"><rect x="0" y="16" width="1200" height="519"/></clipPath><clipPath class="axesclip" id="clipa82edexy"><rect x="68" y="16" width="830" height="519"/></clipPath></g><g class="gradients"/><g class="patterns"/></defs><g class="bglayer"/><g class="layer-below"><g class="imagelayer"/><g class="shapelayer"/></g><g class="cartesianlayer"><g class="subplot xy"><g class="layer-subplot"><g class="shapelayer"/><g class="imagelayer"/></g><g class="minor-gridlayer"><g class="x"/><g class="y"/></g><g class="gridlayer"><g class="x"><path class="xgrid crisp" transform="translate(155.76999999999998,0)" d="M0,16v519" style="stroke: rgb(238, 238, 238); stroke-opacity: 1; stroke-width: 1px;"/><path class="xgrid crisp" transform="translate(243.53,0)" d="M0,16v519" style="stroke: rgb(238, 238, 238); stroke-opacity: 1; stroke-width: 1px;"/><path class="xgrid crisp" transform="translate(331.3,0)" d="M0,16v519" style="stroke: rgb(238, 238, 238); stroke-opacity: 1; stroke-width: 1px;"/><path class="xgrid crisp" transform="translate(419.06,0)" d="M0,16v519" style="stroke: rgb(238, 238, 238); stroke-opacity: 1; stroke-width: 1px;"/><path class="xgrid crisp" transform="translate(506.83,0)" d="M0,16v519" style="stroke: rgb(238, 238, 238); stroke-opacity: 1; stroke-width: 1px;"/><path class="xgrid crisp" transform="translate(594.59,0)" d="M0,16v519" style="stroke: rgb(238, 238, 238); stroke-opacity: 1; stroke-width: 1px;"/><path class="xgrid crisp" transform="translate(682.36,0)" d="M0,16v519" style="stroke: rgb(238, 238, 238); stroke-opacity: 1; stroke-width: 1px;"/><path class="xgrid crisp" transform="translate(770.12,0)" d="M0,16v519" style="stroke: rgb(238, 238, 238); stroke-opacity: 1; stroke-width: 1px;"/><path class="xgrid crisp" transform="translate(857.89,0)" d="M0,16v519" style="stroke: rgb(238, 238, 238); stroke-opacity: 1; stroke-width: 1px;"/></g><g class="y"><path class="ygrid crisp" transform="translate(0,438.79)" d="M68,0h830" style="stroke: rgb(238, 238, 238); stroke-opacity: 1; stroke-width: 1px;"/><path class="ygrid crisp" transform="translate(0,336.58)" d="M68,0h830" style="stroke: rgb(238, 238, 238); stroke-opacity: 1; stroke-width: 1px;"/><path class="ygrid crisp" transform="translate(0,234.38)" d="M68,0h830" style="stroke: rgb(238, 238, 238); stroke-opacity: 1; stroke-width: 1px;"/><path class="ygrid crisp" transform="translate(0,132.18)" d="M68,0h830" style="stroke: rgb(238, 238, 238); stroke-opacity: 1; stroke-width: 1px;"/><path class="ygrid crisp" transform="translate(0,29.97)" d="M68,0h830" style="stroke: rgb(238, 238, 238); stroke-opacity: 1; stroke-width: 1px;"/></g></g><g class="zerolinelayer"><path class="xzl zl crisp" transform="translate(68,0)" d="M0,16v519" style="stroke: rgb(238, 238, 238); stroke-opacity: 1; stroke-width: 1px;"/></g><g class="layer-between"><g class="shapelayer"/><g class="imagelayer"/></g><path class="xlines-below"/><path class="ylines-below"/><g class="overlines-below"/><g class="xaxislayer-below"/><g class="yaxislayer-below"/><g class="overaxes-below"/><g class="plot" transform="translate(68,16)"><g class="scatterlayer mlayer"><g class="trace scatter trace0f1e080" style="stroke-miterlimit: 2; opacity: 1;"><g class="fills" clip-path="url(#clipa82edexyplot)"/><g class="errorbars"/><g class="lines"><path class="js-line" style="vector-effect: none; fill: none; stroke: rgb(88, 153, 218); stroke-opacity: 1; stroke-width: 1.5px; opacity: 1;" d="M0,485.07L4.39,451.04L13.16,435.98L30.72,402.87L39.49,392.62L52.66,377.8L57.05,374.67L74.6,360.85L78.99,313.4L83.38,298.38L92.15,295.79L96.54,292.3L105.32,289.9L122.87,281.04L157.98,197.62L162.37,236.97L175.53,233.6L210.64,223.89L215.03,223.23L232.58,220.64L250.13,201.28L254.52,198.65L263.3,196.73L294.01,194.36L307.18,193.94L311.57,193.57L320.34,174.43L329.12,179.56L337.9,179.91L355.45,178.5L377.39,177.94L390.56,178.22L399.33,167.96L403.72,167.63L408.11,168.82L430.05,165.01L443.22,164.78L447.6,165.02L460.77,163.78L465.16,163.59L473.93,137.73L478.32,155.99L482.71,155.55L491.49,154.25L495.87,154.69L517.82,153.39L522.2,153.14L544.15,152.82L566.09,144.15L570.47,143.45L574.86,144.34L588.03,142.4L592.42,143.25L627.52,144.23L631.91,121.77L636.3,142.49L640.69,141.24L649.46,138.57L658.24,137.31L680.18,138.75L688.96,138.25L706.51,138.53L710.9,113.78L719.68,136.76L728.45,135.91L767.95,131.48L781.11,131.38L785.5,131.54" clip-path="url(#clipa82edexyplot)"/></g><g class="points" clip-path="url(#clipa82edexyplot)"/><g class="text" clip-path="url(#clipa82edexyplot)"/></g><g class="trace scatter trace9e20c80" style="stroke-miterlimit: 2; opacity: 1;"><g class="fills" clip-path="url(#clipa82edexyplot)"/><g class="errorbars"/><g class="lines"><path class="js-line" style="vector-effect: none; fill: none; stroke: rgb(237, 74, 123); stroke-opacity: 1; stroke-width: 1.5px; opacity: 1;" d="M0,493.05L4.39,445.62L8.78,412.45L13.16,392.55L17.55,357.31L39.49,279.84L43.88,274.74L52.66,221.57L57.05,241.85L65.82,234.36L70.21,237.54L74.6,212.72L78.99,210.21L83.38,206.72L92.15,189.83L96.54,188.92L105.32,153.7L109.71,170.82L114.09,171.68L118.48,169.45L122.87,117.77L127.26,155.32L140.42,109.79L144.81,141.73L157.98,161.69L162.37,130.11L175.53,109.79L179.92,123.98L193.08,117.77L201.86,115.37L206.25,115.45L210.64,85.83L215.03,107.46L223.8,108.33L228.19,81.84L232.58,104.97L236.97,105.04L245.74,109.79L250.13,99.12L254.52,100.35L258.91,100.31L267.68,94.81L280.85,77.85L285.24,93.31L289.63,92.27L294.01,91.45L298.4,85.83L302.79,89L307.18,89.11L311.57,89.28L315.96,81.84L320.34,84.69L324.73,85.5L329.12,85.79L337.9,80.42L346.67,80.34L351.06,69.87L355.45,77.38L364.23,78.62L368.61,97.81L377.39,75.84L381.78,75.49L386.17,53.9L390.56,70.93L399.33,72.77L403.72,89.83L408.11,70.34L412.5,69.01L421.27,37.93L425.66,63.7L430.05,66.11L434.44,67.58L443.22,55.91L469.54,53.22L473.93,37.93L478.32,51.09L482.71,52.31L487.1,51.59L491.49,53.9L495.87,44.17L500.26,42.02L504.65,41.1L509.04,53.9L513.43,39.63L517.82,38.32L522.2,38.1L526.59,25.95L530.98,37.93L535.37,37.87L539.76,36.91L544.15,69.87L552.92,50.32L557.31,51.18" clip-path="url(#clipa82edexyplot)"/></g><g class="points" clip-path="url(#clipa82edexyplot)"/><g class="text" clip-path="url(#clipa82edexyplot)"/></g><g class="trace scatter tracea13e020" style="stroke-miterlimit: 2; opacity: 1;"><g class="fills" clip-path="url(#clipa82edexyplot)"/><g class="errorbars"/><g class="lines"><path class="js-line" style="vector-effect: none; fill: none; stroke: rgb(239, 104, 104); stroke-opacity: 1; stroke-width: 1.5px; opacity: 1;" d="M0,465.1L4.39,436.97L13.16,409.47L30.72,385.91L39.49,378.53L61.44,361.84L65.82,358.97L74.6,353.47L78.99,305.41L83.38,312.26L92.15,307.24L96.54,302.6L105.32,297L109.71,295.47L118.48,290.83L122.87,288.87L157.98,241.53L162.37,258.45L175.53,249.32L193.08,247.96L201.86,245.27L210.64,244.73L215.03,244.27L223.8,241.89L228.19,241.52L232.58,240.55L250.13,222.95L263.3,218.34L280.85,217.78L285.24,216.88L289.63,217.15L294.01,216.05L307.18,215.72L311.57,214.88L320.34,199.52L329.12,201.55L337.9,202.13L351.06,199.83L355.45,200.51L390.56,199.01L399.33,194.01L403.72,191L408.11,192.71L430.05,187.6L443.22,187.34L465.16,187L473.93,161.69L478.32,178.23L482.71,178.92L487.1,177.46L491.49,174.95L495.87,175.13L500.26,174.42L522.2,175.72L526.59,175.31L530.98,175.12L535.37,176.02L544.15,175.46L552.92,133.74L566.09,168.04L570.47,166.32L574.86,166.35L583.64,165.14L588.03,164.71L592.42,165.06L596.8,165.03L601.19,165.86L627.52,164.56L631.91,141.73L636.3,156.94L640.69,163.73L658.24,160.27L675.79,159.62L680.18,159.9L688.96,158.98L702.12,159.39L706.51,159.25L719.68,158.28L728.45,154.59L741.62,153.79L754.78,152.17L767.95,152.33L781.11,152.02L785.5,152.24" clip-path="url(#clipa82edexyplot)"/></g><g class="points" clip-path="url(#clipa82edexyplot)"/><g class="text" clip-path="url(#clipa82edexyplot)"/></g><g class="trace scatter tracef7d88c" style="stroke-miterlimit: 2; opacity: 1;"><g class="fills" clip-path="url(#clipa82edexyplot)"/><g class="errorbars"/><g class="lines"/><g class="points"><path class="point" transform="translate(785.5,131.54)" style="opacity: 1; stroke-width: 0px; fill: rgb(88, 153, 218); fill-opacity: 1;" d="M2,0A2,2 0 1,1 0,-2A2,2 0 0,1 2,0Z"/></g><g class="text"/></g><g class="trace scatter trace2f41ce" style="stroke-miterlimit: 2; opacity: 1;"><g class="fills" clip-path="url(#clipa82edexyplot)"/><g class="errorbars"/><g class="lines"/><g class="points"><path class="point" transform="translate(557.31,51.18)" style="opacity: 1; stroke-width: 0px; fill: rgb(237, 74, 123); fill-opacity: 1;" d="M2,0A2,2 0 1,1 0,-2A2,2 0 0,1 2,0Z"/></g><g class="text"/></g><g class="trace scatter traceafb88e" style="stroke-miterlimit: 2; opacity: 1;"><g class="fills" clip-path="url(#clipa82edexyplot)"/><g class="errorbars"/><g class="lines"/><g class="points"><path class="point" transform="translate(785.5,152.24)" style="opacity: 1; stroke-width: 0px; fill: rgb(239, 104, 104); fill-opacity: 1;" d="M2,0A2,2 0 1,1 0,-2A2,2 0 0,1 2,0Z"/></g><g class="text"/></g></g></g><g class="overplot"/><path class="xlines-above crisp" style="fill: none;" d="M0,0"/><path class="ylines-above crisp" style="fill: none;" d="M0,0"/><g class="overlines-above"/><g class="xaxislayer-above"><g class="xtick"><text text-anchor="middle" x="0" y="560" style="font-family: Roboto, sans-serif; font-size: 12px; fill: rgb(95, 103, 126); fill-opacity: 1; white-space: pre; opacity: 1;" transform="translate(68,0)">0</text></g><g class="xtick"><text text-anchor="middle" x="0" y="560" style="font-family: Roboto, sans-serif; font-size: 12px; fill: rgb(95, 103, 126); fill-opacity: 1; white-space: pre; opacity: 1;" transform="translate(155.76999999999998,0)">20</text></g><g class="xtick"><text text-anchor="middle" x="0" y="560" style="font-family: Roboto, sans-serif; font-size: 12px; fill: rgb(95, 103, 126); fill-opacity: 1; white-space: pre; opacity: 1;" transform="translate(243.53,0)">40</text></g><g class="xtick"><text text-anchor="middle" x="0" y="560" style="font-family: Roboto, sans-serif; font-size: 12px; fill: rgb(95, 103, 126); fill-opacity: 1; white-space: pre; opacity: 1;" transform="translate(331.3,0)">60</text></g><g class="xtick"><text text-anchor="middle" x="0" y="560" style="font-family: Roboto, sans-serif; font-size: 12px; fill: rgb(95, 103, 126); fill-opacity: 1; white-space: pre; opacity: 1;" transform="translate(419.06,0)">80</text></g><g class="xtick"><text text-anchor="middle" x="0" y="560" style="font-family: Roboto, sans-serif; font-size: 12px; fill: rgb(95, 103, 126); fill-opacity: 1; white-space: pre; opacity: 1;" transform="translate(506.83,0)">100</text></g><g class="xtick"><text text-anchor="middle" x="0" y="560" style="font-family: Roboto, sans-serif; font-size: 12px; fill: rgb(95, 103, 126); fill-opacity: 1; white-space: pre; opacity: 1;" transform="translate(594.59,0)">120</text></g><g class="xtick"><text text-anchor="middle" x="0" y="560" style="font-family: Roboto, sans-serif; font-size: 12px; fill: rgb(95, 103, 126); fill-opacity: 1; white-space: pre; opacity: 1;" transform="translate(682.36,0)">140</text></g><g class="xtick"><text text-anchor="middle" x="0" y="560" style="font-family: Roboto, sans-serif; font-size: 12px; fill: rgb(95, 103, 126); fill-opacity: 1; white-space: pre; opacity: 1;" transform="translate(770.12,0)">160</text></g><g class="xtick"><text text-anchor="middle" x="0" y="560" style="font-family: Roboto, sans-serif; font-size: 12px; fill: rgb(95, 103, 126); fill-opacity: 1; white-space: pre; opacity: 1;" transform="translate(857.89,0)">180</text></g></g><g class="yaxislayer-above"><g class="ytick"><text text-anchor="end" x="55" y="4.199999999999999" style="font-family: Roboto, sans-serif; font-size: 12px; fill: rgb(95, 103, 126); fill-opacity: 1; white-space: pre; opacity: 1;" transform="translate(0,438.79)">0.2</text></g><g class="ytick"><text text-anchor="end" x="55" y="4.199999999999999" style="font-family: Roboto, sans-serif; font-size: 12px; fill: rgb(95, 103, 126); fill-opacity: 1; white-space: pre; opacity: 1;" transform="translate(0,336.58)">0.4</text></g><g class="ytick"><text text-anchor="end" x="55" y="4.199999999999999" style="font-family: Roboto, sans-serif; font-size: 12px; fill: rgb(95, 103, 126); fill-opacity: 1; white-space: pre; opacity: 1;" transform="translate(0,234.38)">0.6</text></g><g class="ytick"><text text-anchor="end" x="55" y="4.199999999999999" style="font-family: Roboto, sans-serif; font-size: 12px; fill: rgb(95, 103, 126); fill-opacity: 1; white-space: pre; opacity: 1;" transform="translate(0,132.18)">0.8</text></g><g class="ytick"><text text-anchor="end" x="55" y="4.199999999999999" style="font-family: Roboto, sans-serif; font-size: 12px; fill: rgb(95, 103, 126); fill-opacity: 1; white-space: pre; opacity: 1;" transform="translate(0,29.97)">1</text></g></g><g class="overaxes-above"/></g></g><g class="polarlayer"/><g class="smithlayer"/><g class="ternarylayer"/><g class="geolayer"/><g class="funnelarealayer"/><g class="pielayer"/><g class="iciclelayer"/><g class="treemaplayer"/><g class="sunburstlayer"/><g class="glimages"/><defs id="topdefs-a82ede"><g class="clips"/><clipPath id="legenda82ede"><rect width="273" height="67" x="0" y="0"/></clipPath></defs><g class="layer-above"><g class="imagelayer"/><g class="shapelayer"/></g><g class="infolayer"><g class="legend" pointer-events="all" transform="translate(914.6,16)"><rect class="bg" shape-rendering="crispEdges" style="stroke: rgb(68, 68, 68); stroke-opacity: 1; fill: rgb(255, 255, 255); fill-opacity: 1; stroke-width: 0px;" width="273" height="67" x="0" y="0"/><g class="scrollbox" transform="" clip-path="url(#legenda82ede)"><g class="groups" transform=""><g class="traces" style="opacity: 1;" transform="translate(0,14.5)"><text class="legendtext" text-anchor="start" style="font-family: TOBESTRIPPEDOpen SansTOBESTRIPPED, verdana, arial, sans-serif; font-size: 12px; fill: rgb(68, 68, 68); fill-opacity: 1; white-space: pre;" x="40" y="4.680000000000001">Distill_ResNet1.86M_CNN0.07M_cifar10</text><g class="layers" style="opacity: 1;"><g class="legendfill"/><g class="legendlines"><path class="js-line" d="M5,0h30" style="fill: none; stroke: rgb(88, 153, 218); stroke-opacity: 1; stroke-width: 1.5px;"/></g><g class="legendsymbols"><g class="legendpoints"/></g></g><rect class="legendtoggle" style="fill: rgb(0, 0, 0); fill-opacity: 0;" x="0" y="-9.5" width="267.75" height="19"/></g><g class="traces" style="opacity: 1;" transform="translate(0,33.5)"><text class="legendtext" text-anchor="start" style="font-family: TOBESTRIPPEDOpen SansTOBESTRIPPED, verdana, arial, sans-serif; font-size: 12px; fill: rgb(68, 68, 68); fill-opacity: 1; white-space: pre;" x="40" y="4.680000000000001">ResNet1.86M_cifar10</text><g class="layers" style="opacity: 1;"><g class="legendfill"/><g class="legendlines"><path class="js-line" d="M5,0h30" style="fill: none; stroke: rgb(237, 74, 123); stroke-opacity: 1; stroke-width: 1.5px;"/></g><g class="legendsymbols"><g class="legendpoints"/></g></g><rect class="legendtoggle" style="fill: rgb(0, 0, 0); fill-opacity: 0;" x="0" y="-9.5" width="267.75" height="19"/></g><g class="traces" style="opacity: 1;" transform="translate(0,52.5)"><text class="legendtext" text-anchor="start" style="font-family: TOBESTRIPPEDOpen SansTOBESTRIPPED, verdana, arial, sans-serif; font-size: 12px; fill: rgb(68, 68, 68); fill-opacity: 1; white-space: pre;" x="40" y="4.680000000000001">CNN0.07M_cifar10</text><g class="layers" style="opacity: 1;"><g class="legendfill"/><g class="legendlines"><path class="js-line" d="M5,0h30" style="fill: none; stroke: rgb(239, 104, 104); stroke-opacity: 1; stroke-width: 1.5px;"/></g><g class="legendsymbols"><g class="legendpoints"/></g></g><rect class="legendtoggle" style="fill: rgb(0, 0, 0); fill-opacity: 0;" x="0" y="-9.5" width="267.75" height="19"/></g></g></g><rect class="scrollbar" rx="20" ry="3" width="0" height="0" style="fill: rgb(128, 139, 164); fill-opacity: 1;" x="0" y="0"/></g><g class="g-gtitle"/><g class="g-xtitle" transform="translate(0,1.1000000000000227)"><text class="xtitle" style="font-family: Roboto, sans-serif; font-size: 12px; fill: rgb(95, 103, 126); opacity: 1; font-weight: normal; white-space: pre;" x="483" y="575.9" text-anchor="middle">Step</text></g><g class="g-ytitle"><text class="ytitle" transform="rotate(-90,24.7337890625,275.5)" style="font-family: Roboto, sans-serif; font-size: 12px; fill: rgb(95, 103, 126); opacity: 1; font-weight: normal; white-space: pre;" x="24.7337890625" y="275.5" text-anchor="middle">Training loss</text></g></g></svg>