<?xml version="1.0" encoding="utf-8" standalone="no"?>
<!DOCTYPE svg PUBLIC "-//W3C//DTD SVG 1.1//EN"
  "http://www.w3.org/Graphics/SVG/1.1/DTD/svg11.dtd">
<svg xmlns:xlink="http://www.w3.org/1999/xlink" width="576pt" height="288pt" viewBox="0 0 576 288" xmlns="http://www.w3.org/2000/svg" version="1.1">
 <metadata>
  <rdf:RDF xmlns:dc="http://purl.org/dc/elements/1.1/" xmlns:cc="http://creativecommons.org/ns#" xmlns:rdf="http://www.w3.org/1999/02/22-rdf-syntax-ns#">
   <cc:Work>
    <dc:type rdf:resource="http://purl.org/dc/dcmitype/StillImage"/>
    <dc:date>2025-05-31T20:07:07.824963</dc:date>
    <dc:format>image/svg+xml</dc:format>
    <dc:creator>
     <cc:Agent>
      <dc:title>Matplotlib v3.10.1, https://matplotlib.org/</dc:title>
     </cc:Agent>
    </dc:creator>
   </cc:Work>
  </rdf:RDF>
 </metadata>
 <defs>
  <style type="text/css">*{stroke-linejoin: round; stroke-linecap: butt}</style>
 </defs>
 <g id="figure_1">
  <g id="patch_1">
   <path d="M 0 288 
L 576 288 
L 576 0 
L 0 0 
z
" style="fill: #ffffff"/>
  </g>
  <g id="axes_1">
   <g id="patch_2">
    <path d="M 55.069198 255.465455 
L 269.320107 255.465455 
L 269.320107 41.214545 
L 55.069198 41.214545 
z
" style="fill: #ffffff"/>
   </g>
   <g id="matplotlib.axis_1">
    <g id="xtick_1">
     <g id="line2d_1">
      <defs>
       <path id="mc9ae3be2e3" d="M 0 0 
L 0 3.5 
" style="stroke: #000000; stroke-width: 0.8"/>
      </defs>
      <g>
       <use xlink:href="#mc9ae3be2e3" x="57.169697" y="255.465455" style="stroke: #000000; stroke-width: 0.8"/>
      </g>
     </g>
     <g id="text_1">
      <!-- 0.0 -->
      <g transform="translate(49.218134 270.063892) scale(0.1 -0.1)">
       <defs>
        <path id="DejaVuSans-30" d="M 2034 4250 
Q 1547 4250 1301 3770 
Q 1056 3291 1056 2328 
Q 1056 1369 1301 889 
Q 1547 409 2034 409 
Q 2525 409 2770 889 
Q 3016 1369 3016 2328 
Q 3016 3291 2770 3770 
Q 2525 4250 2034 4250 
z
M 2034 4750 
Q 2819 4750 3233 4129 
Q 3647 3509 3647 2328 
Q 3647 1150 3233 529 
Q 2819 -91 2034 -91 
Q 1250 -91 836 529 
Q 422 1150 422 2328 
Q 422 3509 836 4129 
Q 1250 4750 2034 4750 
z
" transform="scale(0.015625)"/>
        <path id="DejaVuSans-2e" d="M 684 794 
L 1344 794 
L 1344 0 
L 684 0 
L 684 794 
z
" transform="scale(0.015625)"/>
       </defs>
       <use xlink:href="#DejaVuSans-30"/>
       <use xlink:href="#DejaVuSans-2e" transform="translate(63.623047 0)"/>
       <use xlink:href="#DejaVuSans-30" transform="translate(95.410156 0)"/>
      </g>
     </g>
    </g>
    <g id="xtick_2">
     <g id="line2d_2">
      <g>
       <use xlink:href="#mc9ae3be2e3" x="99.179679" y="255.465455" style="stroke: #000000; stroke-width: 0.8"/>
      </g>
     </g>
     <g id="text_2">
      <!-- 0.2 -->
      <g transform="translate(91.228117 270.063892) scale(0.1 -0.1)">
       <defs>
        <path id="DejaVuSans-32" d="M 1228 531 
L 3431 531 
L 3431 0 
L 469 0 
L 469 531 
Q 828 903 1448 1529 
Q 2069 2156 2228 2338 
Q 2531 2678 2651 2914 
Q 2772 3150 2772 3378 
Q 2772 3750 2511 3984 
Q 2250 4219 1831 4219 
Q 1534 4219 1204 4116 
Q 875 4013 500 3803 
L 500 4441 
Q 881 4594 1212 4672 
Q 1544 4750 1819 4750 
Q 2544 4750 2975 4387 
Q 3406 4025 3406 3419 
Q 3406 3131 3298 2873 
Q 3191 2616 2906 2266 
Q 2828 2175 2409 1742 
Q 1991 1309 1228 531 
z
" transform="scale(0.015625)"/>
       </defs>
       <use xlink:href="#DejaVuSans-30"/>
       <use xlink:href="#DejaVuSans-2e" transform="translate(63.623047 0)"/>
       <use xlink:href="#DejaVuSans-32" transform="translate(95.410156 0)"/>
      </g>
     </g>
    </g>
    <g id="xtick_3">
     <g id="line2d_3">
      <g>
       <use xlink:href="#mc9ae3be2e3" x="141.189661" y="255.465455" style="stroke: #000000; stroke-width: 0.8"/>
      </g>
     </g>
     <g id="text_3">
      <!-- 0.4 -->
      <g transform="translate(133.238099 270.063892) scale(0.1 -0.1)">
       <defs>
        <path id="DejaVuSans-34" d="M 2419 4116 
L 825 1625 
L 2419 1625 
L 2419 4116 
z
M 2253 4666 
L 3047 4666 
L 3047 1625 
L 3713 1625 
L 3713 1100 
L 3047 1100 
L 3047 0 
L 2419 0 
L 2419 1100 
L 313 1100 
L 313 1709 
L 2253 4666 
z
" transform="scale(0.015625)"/>
       </defs>
       <use xlink:href="#DejaVuSans-30"/>
       <use xlink:href="#DejaVuSans-2e" transform="translate(63.623047 0)"/>
       <use xlink:href="#DejaVuSans-34" transform="translate(95.410156 0)"/>
      </g>
     </g>
    </g>
    <g id="xtick_4">
     <g id="line2d_4">
      <g>
       <use xlink:href="#mc9ae3be2e3" x="183.199643" y="255.465455" style="stroke: #000000; stroke-width: 0.8"/>
      </g>
     </g>
     <g id="text_4">
      <!-- 0.6 -->
      <g transform="translate(175.248081 270.063892) scale(0.1 -0.1)">
       <defs>
        <path id="DejaVuSans-36" d="M 2113 2584 
Q 1688 2584 1439 2293 
Q 1191 2003 1191 1497 
Q 1191 994 1439 701 
Q 1688 409 2113 409 
Q 2538 409 2786 701 
Q 3034 994 3034 1497 
Q 3034 2003 2786 2293 
Q 2538 2584 2113 2584 
z
M 3366 4563 
L 3366 3988 
Q 3128 4100 2886 4159 
Q 2644 4219 2406 4219 
Q 1781 4219 1451 3797 
Q 1122 3375 1075 2522 
Q 1259 2794 1537 2939 
Q 1816 3084 2150 3084 
Q 2853 3084 3261 2657 
Q 3669 2231 3669 1497 
Q 3669 778 3244 343 
Q 2819 -91 2113 -91 
Q 1303 -91 875 529 
Q 447 1150 447 2328 
Q 447 3434 972 4092 
Q 1497 4750 2381 4750 
Q 2619 4750 2861 4703 
Q 3103 4656 3366 4563 
z
" transform="scale(0.015625)"/>
       </defs>
       <use xlink:href="#DejaVuSans-30"/>
       <use xlink:href="#DejaVuSans-2e" transform="translate(63.623047 0)"/>
       <use xlink:href="#DejaVuSans-36" transform="translate(95.410156 0)"/>
      </g>
     </g>
    </g>
    <g id="xtick_5">
     <g id="line2d_5">
      <g>
       <use xlink:href="#mc9ae3be2e3" x="225.209626" y="255.465455" style="stroke: #000000; stroke-width: 0.8"/>
      </g>
     </g>
     <g id="text_5">
      <!-- 0.8 -->
      <g transform="translate(217.258063 270.063892) scale(0.1 -0.1)">
       <defs>
        <path id="DejaVuSans-38" d="M 2034 2216 
Q 1584 2216 1326 1975 
Q 1069 1734 1069 1313 
Q 1069 891 1326 650 
Q 1584 409 2034 409 
Q 2484 409 2743 651 
Q 3003 894 3003 1313 
Q 3003 1734 2745 1975 
Q 2488 2216 2034 2216 
z
M 1403 2484 
Q 997 2584 770 2862 
Q 544 3141 544 3541 
Q 544 4100 942 4425 
Q 1341 4750 2034 4750 
Q 2731 4750 3128 4425 
Q 3525 4100 3525 3541 
Q 3525 3141 3298 2862 
Q 3072 2584 2669 2484 
Q 3125 2378 3379 2068 
Q 3634 1759 3634 1313 
Q 3634 634 3220 271 
Q 2806 -91 2034 -91 
Q 1263 -91 848 271 
Q 434 634 434 1313 
Q 434 1759 690 2068 
Q 947 2378 1403 2484 
z
M 1172 3481 
Q 1172 3119 1398 2916 
Q 1625 2713 2034 2713 
Q 2441 2713 2670 2916 
Q 2900 3119 2900 3481 
Q 2900 3844 2670 4047 
Q 2441 4250 2034 4250 
Q 1625 4250 1398 4047 
Q 1172 3844 1172 3481 
z
" transform="scale(0.015625)"/>
       </defs>
       <use xlink:href="#DejaVuSans-30"/>
       <use xlink:href="#DejaVuSans-2e" transform="translate(63.623047 0)"/>
       <use xlink:href="#DejaVuSans-38" transform="translate(95.410156 0)"/>
      </g>
     </g>
    </g>
    <g id="xtick_6">
     <g id="line2d_6">
      <g>
       <use xlink:href="#mc9ae3be2e3" x="267.219608" y="255.465455" style="stroke: #000000; stroke-width: 0.8"/>
      </g>
     </g>
     <g id="text_6">
      <!-- 1.0 -->
      <g transform="translate(259.268045 270.063892) scale(0.1 -0.1)">
       <defs>
        <path id="DejaVuSans-31" d="M 794 531 
L 1825 531 
L 1825 4091 
L 703 3866 
L 703 4441 
L 1819 4666 
L 2450 4666 
L 2450 531 
L 3481 531 
L 3481 0 
L 794 0 
L 794 531 
z
" transform="scale(0.015625)"/>
       </defs>
       <use xlink:href="#DejaVuSans-31"/>
       <use xlink:href="#DejaVuSans-2e" transform="translate(63.623047 0)"/>
       <use xlink:href="#DejaVuSans-30" transform="translate(95.410156 0)"/>
      </g>
     </g>
    </g>
    <g id="text_7">
     <!-- False Positive Rate (Positive label: 1) -->
     <g transform="translate(70.829027 283.742017) scale(0.1 -0.1)">
      <defs>
       <path id="DejaVuSans-46" d="M 628 4666 
L 3309 4666 
L 3309 4134 
L 1259 4134 
L 1259 2759 
L 3109 2759 
L 3109 2228 
L 1259 2228 
L 1259 0 
L 628 0 
L 628 4666 
z
" transform="scale(0.015625)"/>
       <path id="DejaVuSans-61" d="M 2194 1759 
Q 1497 1759 1228 1600 
Q 959 1441 959 1056 
Q 959 750 1161 570 
Q 1363 391 1709 391 
Q 2188 391 2477 730 
Q 2766 1069 2766 1631 
L 2766 1759 
L 2194 1759 
z
M 3341 1997 
L 3341 0 
L 2766 0 
L 2766 531 
Q 2569 213 2275 61 
Q 1981 -91 1556 -91 
Q 1019 -91 701 211 
Q 384 513 384 1019 
Q 384 1609 779 1909 
Q 1175 2209 1959 2209 
L 2766 2209 
L 2766 2266 
Q 2766 2663 2505 2880 
Q 2244 3097 1772 3097 
Q 1472 3097 1187 3025 
Q 903 2953 641 2809 
L 641 3341 
Q 956 3463 1253 3523 
Q 1550 3584 1831 3584 
Q 2591 3584 2966 3190 
Q 3341 2797 3341 1997 
z
" transform="scale(0.015625)"/>
       <path id="DejaVuSans-6c" d="M 603 4863 
L 1178 4863 
L 1178 0 
L 603 0 
L 603 4863 
z
" transform="scale(0.015625)"/>
       <path id="DejaVuSans-73" d="M 2834 3397 
L 2834 2853 
Q 2591 2978 2328 3040 
Q 2066 3103 1784 3103 
Q 1356 3103 1142 2972 
Q 928 2841 928 2578 
Q 928 2378 1081 2264 
Q 1234 2150 1697 2047 
L 1894 2003 
Q 2506 1872 2764 1633 
Q 3022 1394 3022 966 
Q 3022 478 2636 193 
Q 2250 -91 1575 -91 
Q 1294 -91 989 -36 
Q 684 19 347 128 
L 347 722 
Q 666 556 975 473 
Q 1284 391 1588 391 
Q 1994 391 2212 530 
Q 2431 669 2431 922 
Q 2431 1156 2273 1281 
Q 2116 1406 1581 1522 
L 1381 1569 
Q 847 1681 609 1914 
Q 372 2147 372 2553 
Q 372 3047 722 3315 
Q 1072 3584 1716 3584 
Q 2034 3584 2315 3537 
Q 2597 3491 2834 3397 
z
" transform="scale(0.015625)"/>
       <path id="DejaVuSans-65" d="M 3597 1894 
L 3597 1613 
L 953 1613 
Q 991 1019 1311 708 
Q 1631 397 2203 397 
Q 2534 397 2845 478 
Q 3156 559 3463 722 
L 3463 178 
Q 3153 47 2828 -22 
Q 2503 -91 2169 -91 
Q 1331 -91 842 396 
Q 353 884 353 1716 
Q 353 2575 817 3079 
Q 1281 3584 2069 3584 
Q 2775 3584 3186 3129 
Q 3597 2675 3597 1894 
z
M 3022 2063 
Q 3016 2534 2758 2815 
Q 2500 3097 2075 3097 
Q 1594 3097 1305 2825 
Q 1016 2553 972 2059 
L 3022 2063 
z
" transform="scale(0.015625)"/>
       <path id="DejaVuSans-20" transform="scale(0.015625)"/>
       <path id="DejaVuSans-50" d="M 1259 4147 
L 1259 2394 
L 2053 2394 
Q 2494 2394 2734 2622 
Q 2975 2850 2975 3272 
Q 2975 3691 2734 3919 
Q 2494 4147 2053 4147 
L 1259 4147 
z
M 628 4666 
L 2053 4666 
Q 2838 4666 3239 4311 
Q 3641 3956 3641 3272 
Q 3641 2581 3239 2228 
Q 2838 1875 2053 1875 
L 1259 1875 
L 1259 0 
L 628 0 
L 628 4666 
z
" transform="scale(0.015625)"/>
       <path id="DejaVuSans-6f" d="M 1959 3097 
Q 1497 3097 1228 2736 
Q 959 2375 959 1747 
Q 959 1119 1226 758 
Q 1494 397 1959 397 
Q 2419 397 2687 759 
Q 2956 1122 2956 1747 
Q 2956 2369 2687 2733 
Q 2419 3097 1959 3097 
z
M 1959 3584 
Q 2709 3584 3137 3096 
Q 3566 2609 3566 1747 
Q 3566 888 3137 398 
Q 2709 -91 1959 -91 
Q 1206 -91 779 398 
Q 353 888 353 1747 
Q 353 2609 779 3096 
Q 1206 3584 1959 3584 
z
" transform="scale(0.015625)"/>
       <path id="DejaVuSans-69" d="M 603 3500 
L 1178 3500 
L 1178 0 
L 603 0 
L 603 3500 
z
M 603 4863 
L 1178 4863 
L 1178 4134 
L 603 4134 
L 603 4863 
z
" transform="scale(0.015625)"/>
       <path id="DejaVuSans-74" d="M 1172 4494 
L 1172 3500 
L 2356 3500 
L 2356 3053 
L 1172 3053 
L 1172 1153 
Q 1172 725 1289 603 
Q 1406 481 1766 481 
L 2356 481 
L 2356 0 
L 1766 0 
Q 1100 0 847 248 
Q 594 497 594 1153 
L 594 3053 
L 172 3053 
L 172 3500 
L 594 3500 
L 594 4494 
L 1172 4494 
z
" transform="scale(0.015625)"/>
       <path id="DejaVuSans-76" d="M 191 3500 
L 800 3500 
L 1894 563 
L 2988 3500 
L 3597 3500 
L 2284 0 
L 1503 0 
L 191 3500 
z
" transform="scale(0.015625)"/>
       <path id="DejaVuSans-52" d="M 2841 2188 
Q 3044 2119 3236 1894 
Q 3428 1669 3622 1275 
L 4263 0 
L 3584 0 
L 2988 1197 
Q 2756 1666 2539 1819 
Q 2322 1972 1947 1972 
L 1259 1972 
L 1259 0 
L 628 0 
L 628 4666 
L 2053 4666 
Q 2853 4666 3247 4331 
Q 3641 3997 3641 3322 
Q 3641 2881 3436 2590 
Q 3231 2300 2841 2188 
z
M 1259 4147 
L 1259 2491 
L 2053 2491 
Q 2509 2491 2742 2702 
Q 2975 2913 2975 3322 
Q 2975 3731 2742 3939 
Q 2509 4147 2053 4147 
L 1259 4147 
z
" transform="scale(0.015625)"/>
       <path id="DejaVuSans-28" d="M 1984 4856 
Q 1566 4138 1362 3434 
Q 1159 2731 1159 2009 
Q 1159 1288 1364 580 
Q 1569 -128 1984 -844 
L 1484 -844 
Q 1016 -109 783 600 
Q 550 1309 550 2009 
Q 550 2706 781 3412 
Q 1013 4119 1484 4856 
L 1984 4856 
z
" transform="scale(0.015625)"/>
       <path id="DejaVuSans-62" d="M 3116 1747 
Q 3116 2381 2855 2742 
Q 2594 3103 2138 3103 
Q 1681 3103 1420 2742 
Q 1159 2381 1159 1747 
Q 1159 1113 1420 752 
Q 1681 391 2138 391 
Q 2594 391 2855 752 
Q 3116 1113 3116 1747 
z
M 1159 2969 
Q 1341 3281 1617 3432 
Q 1894 3584 2278 3584 
Q 2916 3584 3314 3078 
Q 3713 2572 3713 1747 
Q 3713 922 3314 415 
Q 2916 -91 2278 -91 
Q 1894 -91 1617 61 
Q 1341 213 1159 525 
L 1159 0 
L 581 0 
L 581 4863 
L 1159 4863 
L 1159 2969 
z
" transform="scale(0.015625)"/>
       <path id="DejaVuSans-3a" d="M 750 794 
L 1409 794 
L 1409 0 
L 750 0 
L 750 794 
z
M 750 3309 
L 1409 3309 
L 1409 2516 
L 750 2516 
L 750 3309 
z
" transform="scale(0.015625)"/>
       <path id="DejaVuSans-29" d="M 513 4856 
L 1013 4856 
Q 1481 4119 1714 3412 
Q 1947 2706 1947 2009 
Q 1947 1309 1714 600 
Q 1481 -109 1013 -844 
L 513 -844 
Q 928 -128 1133 580 
Q 1338 1288 1338 2009 
Q 1338 2731 1133 3434 
Q 928 4138 513 4856 
z
" transform="scale(0.015625)"/>
      </defs>
      <use xlink:href="#DejaVuSans-46"/>
      <use xlink:href="#DejaVuSans-61" transform="translate(48.394531 0)"/>
      <use xlink:href="#DejaVuSans-6c" transform="translate(109.673828 0)"/>
      <use xlink:href="#DejaVuSans-73" transform="translate(137.457031 0)"/>
      <use xlink:href="#DejaVuSans-65" transform="translate(189.556641 0)"/>
      <use xlink:href="#DejaVuSans-20" transform="translate(251.080078 0)"/>
      <use xlink:href="#DejaVuSans-50" transform="translate(282.867188 0)"/>
      <use xlink:href="#DejaVuSans-6f" transform="translate(339.544922 0)"/>
      <use xlink:href="#DejaVuSans-73" transform="translate(400.726562 0)"/>
      <use xlink:href="#DejaVuSans-69" transform="translate(452.826172 0)"/>
      <use xlink:href="#DejaVuSans-74" transform="translate(480.609375 0)"/>
      <use xlink:href="#DejaVuSans-69" transform="translate(519.818359 0)"/>
      <use xlink:href="#DejaVuSans-76" transform="translate(547.601562 0)"/>
      <use xlink:href="#DejaVuSans-65" transform="translate(606.78125 0)"/>
      <use xlink:href="#DejaVuSans-20" transform="translate(668.304688 0)"/>
      <use xlink:href="#DejaVuSans-52" transform="translate(700.091797 0)"/>
      <use xlink:href="#DejaVuSans-61" transform="translate(767.324219 0)"/>
      <use xlink:href="#DejaVuSans-74" transform="translate(828.603516 0)"/>
      <use xlink:href="#DejaVuSans-65" transform="translate(867.8125 0)"/>
      <use xlink:href="#DejaVuSans-20" transform="translate(929.335938 0)"/>
      <use xlink:href="#DejaVuSans-28" transform="translate(961.123047 0)"/>
      <use xlink:href="#DejaVuSans-50" transform="translate(1000.136719 0)"/>
      <use xlink:href="#DejaVuSans-6f" transform="translate(1056.814453 0)"/>
      <use xlink:href="#DejaVuSans-73" transform="translate(1117.996094 0)"/>
      <use xlink:href="#DejaVuSans-69" transform="translate(1170.095703 0)"/>
      <use xlink:href="#DejaVuSans-74" transform="translate(1197.878906 0)"/>
      <use xlink:href="#DejaVuSans-69" transform="translate(1237.087891 0)"/>
      <use xlink:href="#DejaVuSans-76" transform="translate(1264.871094 0)"/>
      <use xlink:href="#DejaVuSans-65" transform="translate(1324.050781 0)"/>
      <use xlink:href="#DejaVuSans-20" transform="translate(1385.574219 0)"/>
      <use xlink:href="#DejaVuSans-6c" transform="translate(1417.361328 0)"/>
      <use xlink:href="#DejaVuSans-61" transform="translate(1445.144531 0)"/>
      <use xlink:href="#DejaVuSans-62" transform="translate(1506.423828 0)"/>
      <use xlink:href="#DejaVuSans-65" transform="translate(1569.900391 0)"/>
      <use xlink:href="#DejaVuSans-6c" transform="translate(1631.423828 0)"/>
      <use xlink:href="#DejaVuSans-3a" transform="translate(1659.207031 0)"/>
      <use xlink:href="#DejaVuSans-20" transform="translate(1692.898438 0)"/>
      <use xlink:href="#DejaVuSans-31" transform="translate(1724.685547 0)"/>
      <use xlink:href="#DejaVuSans-29" transform="translate(1788.308594 0)"/>
     </g>
    </g>
   </g>
   <g id="matplotlib.axis_2">
    <g id="ytick_1">
     <g id="line2d_7">
      <defs>
       <path id="m202f35be44" d="M 0 0 
L -3.5 0 
" style="stroke: #000000; stroke-width: 0.8"/>
      </defs>
      <g>
       <use xlink:href="#m202f35be44" x="55.069198" y="253.364955" style="stroke: #000000; stroke-width: 0.8"/>
      </g>
     </g>
     <g id="text_8">
      <!-- 0.0 -->
      <g transform="translate(32.166073 257.164174) scale(0.1 -0.1)">
       <use xlink:href="#DejaVuSans-30"/>
       <use xlink:href="#DejaVuSans-2e" transform="translate(63.623047 0)"/>
       <use xlink:href="#DejaVuSans-30" transform="translate(95.410156 0)"/>
      </g>
     </g>
    </g>
    <g id="ytick_2">
     <g id="line2d_8">
      <g>
       <use xlink:href="#m202f35be44" x="55.069198" y="211.354973" style="stroke: #000000; stroke-width: 0.8"/>
      </g>
     </g>
     <g id="text_9">
      <!-- 0.2 -->
      <g transform="translate(32.166073 215.154192) scale(0.1 -0.1)">
       <use xlink:href="#DejaVuSans-30"/>
       <use xlink:href="#DejaVuSans-2e" transform="translate(63.623047 0)"/>
       <use xlink:href="#DejaVuSans-32" transform="translate(95.410156 0)"/>
      </g>
     </g>
    </g>
    <g id="ytick_3">
     <g id="line2d_9">
      <g>
       <use xlink:href="#m202f35be44" x="55.069198" y="169.344991" style="stroke: #000000; stroke-width: 0.8"/>
      </g>
     </g>
     <g id="text_10">
      <!-- 0.4 -->
      <g transform="translate(32.166073 173.14421) scale(0.1 -0.1)">
       <use xlink:href="#DejaVuSans-30"/>
       <use xlink:href="#DejaVuSans-2e" transform="translate(63.623047 0)"/>
       <use xlink:href="#DejaVuSans-34" transform="translate(95.410156 0)"/>
      </g>
     </g>
    </g>
    <g id="ytick_4">
     <g id="line2d_10">
      <g>
       <use xlink:href="#m202f35be44" x="55.069198" y="127.335009" style="stroke: #000000; stroke-width: 0.8"/>
      </g>
     </g>
     <g id="text_11">
      <!-- 0.6 -->
      <g transform="translate(32.166073 131.134228) scale(0.1 -0.1)">
       <use xlink:href="#DejaVuSans-30"/>
       <use xlink:href="#DejaVuSans-2e" transform="translate(63.623047 0)"/>
       <use xlink:href="#DejaVuSans-36" transform="translate(95.410156 0)"/>
      </g>
     </g>
    </g>
    <g id="ytick_5">
     <g id="line2d_11">
      <g>
       <use xlink:href="#m202f35be44" x="55.069198" y="85.325027" style="stroke: #000000; stroke-width: 0.8"/>
      </g>
     </g>
     <g id="text_12">
      <!-- 0.8 -->
      <g transform="translate(32.166073 89.124245) scale(0.1 -0.1)">
       <use xlink:href="#DejaVuSans-30"/>
       <use xlink:href="#DejaVuSans-2e" transform="translate(63.623047 0)"/>
       <use xlink:href="#DejaVuSans-38" transform="translate(95.410156 0)"/>
      </g>
     </g>
    </g>
    <g id="ytick_6">
     <g id="line2d_12">
      <g>
       <use xlink:href="#m202f35be44" x="55.069198" y="43.315045" style="stroke: #000000; stroke-width: 0.8"/>
      </g>
     </g>
     <g id="text_13">
      <!-- 1.0 -->
      <g transform="translate(32.166073 47.114263) scale(0.1 -0.1)">
       <use xlink:href="#DejaVuSans-31"/>
       <use xlink:href="#DejaVuSans-2e" transform="translate(63.623047 0)"/>
       <use xlink:href="#DejaVuSans-30" transform="translate(95.410156 0)"/>
      </g>
     </g>
    </g>
    <g id="text_14">
     <!-- True Positive Rate (Positive label: 1) -->
     <g transform="translate(26.086385 237.768906) rotate(-90) scale(0.1 -0.1)">
      <defs>
       <path id="DejaVuSans-54" d="M -19 4666 
L 3928 4666 
L 3928 4134 
L 2272 4134 
L 2272 0 
L 1638 0 
L 1638 4134 
L -19 4134 
L -19 4666 
z
" transform="scale(0.015625)"/>
       <path id="DejaVuSans-72" d="M 2631 2963 
Q 2534 3019 2420 3045 
Q 2306 3072 2169 3072 
Q 1681 3072 1420 2755 
Q 1159 2438 1159 1844 
L 1159 0 
L 581 0 
L 581 3500 
L 1159 3500 
L 1159 2956 
Q 1341 3275 1631 3429 
Q 1922 3584 2338 3584 
Q 2397 3584 2469 3576 
Q 2541 3569 2628 3553 
L 2631 2963 
z
" transform="scale(0.015625)"/>
       <path id="DejaVuSans-75" d="M 544 1381 
L 544 3500 
L 1119 3500 
L 1119 1403 
Q 1119 906 1312 657 
Q 1506 409 1894 409 
Q 2359 409 2629 706 
Q 2900 1003 2900 1516 
L 2900 3500 
L 3475 3500 
L 3475 0 
L 2900 0 
L 2900 538 
Q 2691 219 2414 64 
Q 2138 -91 1772 -91 
Q 1169 -91 856 284 
Q 544 659 544 1381 
z
M 1991 3584 
L 1991 3584 
z
" transform="scale(0.015625)"/>
      </defs>
      <use xlink:href="#DejaVuSans-54"/>
      <use xlink:href="#DejaVuSans-72" transform="translate(46.333984 0)"/>
      <use xlink:href="#DejaVuSans-75" transform="translate(87.447266 0)"/>
      <use xlink:href="#DejaVuSans-65" transform="translate(150.826172 0)"/>
      <use xlink:href="#DejaVuSans-20" transform="translate(212.349609 0)"/>
      <use xlink:href="#DejaVuSans-50" transform="translate(244.136719 0)"/>
      <use xlink:href="#DejaVuSans-6f" transform="translate(300.814453 0)"/>
      <use xlink:href="#DejaVuSans-73" transform="translate(361.996094 0)"/>
      <use xlink:href="#DejaVuSans-69" transform="translate(414.095703 0)"/>
      <use xlink:href="#DejaVuSans-74" transform="translate(441.878906 0)"/>
      <use xlink:href="#DejaVuSans-69" transform="translate(481.087891 0)"/>
      <use xlink:href="#DejaVuSans-76" transform="translate(508.871094 0)"/>
      <use xlink:href="#DejaVuSans-65" transform="translate(568.050781 0)"/>
      <use xlink:href="#DejaVuSans-20" transform="translate(629.574219 0)"/>
      <use xlink:href="#DejaVuSans-52" transform="translate(661.361328 0)"/>
      <use xlink:href="#DejaVuSans-61" transform="translate(728.59375 0)"/>
      <use xlink:href="#DejaVuSans-74" transform="translate(789.873047 0)"/>
      <use xlink:href="#DejaVuSans-65" transform="translate(829.082031 0)"/>
      <use xlink:href="#DejaVuSans-20" transform="translate(890.605469 0)"/>
      <use xlink:href="#DejaVuSans-28" transform="translate(922.392578 0)"/>
      <use xlink:href="#DejaVuSans-50" transform="translate(961.40625 0)"/>
      <use xlink:href="#DejaVuSans-6f" transform="translate(1018.083984 0)"/>
      <use xlink:href="#DejaVuSans-73" transform="translate(1079.265625 0)"/>
      <use xlink:href="#DejaVuSans-69" transform="translate(1131.365234 0)"/>
      <use xlink:href="#DejaVuSans-74" transform="translate(1159.148438 0)"/>
      <use xlink:href="#DejaVuSans-69" transform="translate(1198.357422 0)"/>
      <use xlink:href="#DejaVuSans-76" transform="translate(1226.140625 0)"/>
      <use xlink:href="#DejaVuSans-65" transform="translate(1285.320312 0)"/>
      <use xlink:href="#DejaVuSans-20" transform="translate(1346.84375 0)"/>
      <use xlink:href="#DejaVuSans-6c" transform="translate(1378.630859 0)"/>
      <use xlink:href="#DejaVuSans-61" transform="translate(1406.414062 0)"/>
      <use xlink:href="#DejaVuSans-62" transform="translate(1467.693359 0)"/>
      <use xlink:href="#DejaVuSans-65" transform="translate(1531.169922 0)"/>
      <use xlink:href="#DejaVuSans-6c" transform="translate(1592.693359 0)"/>
      <use xlink:href="#DejaVuSans-3a" transform="translate(1620.476562 0)"/>
      <use xlink:href="#DejaVuSans-20" transform="translate(1654.167969 0)"/>
      <use xlink:href="#DejaVuSans-31" transform="translate(1685.955078 0)"/>
      <use xlink:href="#DejaVuSans-29" transform="translate(1749.578125 0)"/>
     </g>
    </g>
   </g>
   <g id="line2d_13">
    <path d="M 57.169697 253.364955 
L 82.249656 253.280935 
L 82.249656 253.196916 
L 85.50543 253.112896 
L 85.54744 252.944856 
L 90.924718 252.860836 
L 91.029743 252.692796 
L 92.647127 252.608776 
L 92.647127 252.524756 
L 94.327526 252.440736 
L 94.327526 252.356716 
L 95.965916 252.272696 
L 96.07094 252.104656 
L 98.234455 252.020636 
L 98.29747 251.852596 
L 100.040884 251.768576 
L 100.040884 251.684556 
L 101.070128 251.600536 
L 101.070128 251.516516 
L 102.981583 251.432496 
L 102.981583 251.348476 
L 105.061077 251.264456 
L 105.061077 251.180436 
L 106.384391 251.096416 
L 106.384391 251.012396 
L 107.350621 250.928376 
L 107.350621 250.844357 
L 108.19082 250.760337 
L 108.295845 250.592297 
L 110.459359 250.508277 
L 110.459359 250.424257 
L 111.719659 250.340237 
L 111.824684 250.172197 
L 112.517848 250.088177 
L 112.517848 249.920137 
L 113.147998 249.836117 
L 113.253023 249.668077 
L 113.862168 249.584057 
L 113.862168 249.500037 
L 114.681363 249.416017 
L 114.681363 249.331997 
L 115.542567 249.331997 
L 115.626587 249.079937 
L 116.571812 248.995917 
L 116.571812 248.911897 
L 117.643066 248.827877 
L 117.643066 248.743857 
L 117.979146 248.743857 
L 118.084171 248.491798 
L 118.189196 248.407778 
L 118.189196 248.323758 
L 119.84859 248.239738 
L 119.84859 248.155718 
L 120.3107 248.071698 
L 120.3107 247.987678 
L 121.19291 247.903658 
L 121.19291 247.819638 
L 121.760045 247.735618 
L 121.760045 247.651598 
L 122.348184 247.567578 
L 122.348184 247.483558 
L 122.726274 247.399538 
L 122.726274 247.315518 
L 122.978334 247.231498 
L 122.978334 247.063458 
L 123.314414 246.979438 
L 123.335419 246.811398 
L 123.755519 246.811398 
L 123.755519 246.559338 
L 125.183858 246.475318 
L 125.288883 246.307278 
L 126.444158 246.223258 
L 126.507173 246.055219 
L 126.696217 245.971199 
L 126.696217 245.887179 
L 127.830487 245.803159 
L 127.893502 245.635119 
L 128.292597 245.551099 
L 128.292597 245.467079 
L 129.741941 245.383059 
L 129.741941 245.299039 
L 130.099026 245.215019 
L 130.099026 245.130999 
L 130.225056 245.130999 
L 130.225056 244.962959 
L 130.372091 244.962959 
L 130.372091 244.794919 
L 130.582141 244.710899 
L 130.645156 244.458839 
L 131.38033 244.374819 
L 131.38033 244.290799 
L 131.779425 244.206779 
L 131.779425 244.122759 
L 133.039725 244.038739 
L 133.039725 243.954719 
L 134.426054 243.870699 
L 134.426054 243.78668 
L 134.657109 243.70266 
L 134.657109 243.61864 
L 135.665349 243.53462 
L 135.665349 243.4506 
L 135.896404 243.36658 
L 135.938414 243.19854 
L 136.400523 243.11452 
L 136.400523 243.0305 
L 137.261728 242.94648 
L 137.261728 242.86246 
L 138.564037 242.77844 
L 138.606047 242.52638 
L 138.879112 242.44236 
L 138.879112 242.35834 
L 139.215192 242.27432 
L 139.215192 242.1903 
L 139.362227 242.10628 
L 139.362227 242.02226 
L 139.971372 241.93824 
L 139.971372 241.85422 
L 141.021621 241.7702 
L 141.063631 241.60216 
L 141.252676 241.60216 
L 141.252676 241.43412 
L 141.756796 241.350101 
L 141.756796 241.266081 
L 142.386946 241.182061 
L 142.449961 241.014021 
L 142.828051 240.930001 
L 142.828051 240.845981 
L 144.235385 240.761961 
L 144.235385 240.593921 
L 144.59247 240.509901 
L 144.59247 240.425881 
L 144.92855 240.341861 
L 144.92855 240.257841 
L 145.852769 240.173821 
L 145.957794 240.005781 
L 146.377894 239.921761 
L 146.377894 239.837741 
L 146.882014 239.753721 
L 146.882014 239.669701 
L 147.428144 239.585681 
L 147.428144 239.501661 
L 148.205328 239.417641 
L 148.268343 239.249601 
L 148.667438 239.165581 
L 148.667438 239.081561 
L 148.877488 238.997542 
L 148.877488 238.913522 
L 149.045528 238.829502 
L 149.045528 238.745482 
L 149.234573 238.661462 
L 149.276583 238.493422 
L 149.633668 238.493422 
L 149.717688 238.241362 
L 149.927738 238.157342 
L 150.032763 237.989302 
L 150.368842 237.905282 
L 150.452862 237.653222 
L 150.830952 237.569202 
L 150.830952 237.485182 
L 151.293062 237.401162 
L 151.293062 237.233122 
L 151.629142 237.149102 
L 151.671152 236.981062 
L 152.574366 236.897042 
L 152.595371 236.729002 
L 152.952456 236.644983 
L 153.015471 236.476943 
L 153.624616 236.392923 
L 153.708636 236.224883 
L 154.233761 236.140863 
L 154.233761 236.056843 
L 154.422806 236.056843 
L 154.443811 235.804783 
L 154.779891 235.720763 
L 154.863911 235.552723 
L 155.431045 235.468703 
L 155.431045 235.384683 
L 155.83014 235.300663 
L 155.83014 235.216643 
L 156.103205 235.132623 
L 156.16622 234.964583 
L 156.397275 234.880563 
L 156.5023 234.712523 
L 156.859385 234.628503 
L 156.859385 234.544483 
L 157.510539 234.460463 
L 157.510539 234.376443 
L 157.825614 234.292424 
L 157.867624 234.124384 
L 157.993654 234.040364 
L 157.993654 233.956344 
L 158.161694 233.872324 
L 158.245714 233.620264 
L 158.518779 233.536244 
L 158.518779 233.452224 
L 159.758073 233.368204 
L 159.863098 233.032124 
L 160.157168 232.948104 
L 160.220183 232.696044 
L 160.367218 232.612024 
L 160.451238 232.191924 
L 160.892343 232.107904 
L 160.955358 231.939865 
L 161.312443 231.855845 
L 161.417468 231.687805 
L 161.585508 231.603785 
L 161.585508 231.519765 
L 162.173647 231.435745 
L 162.236662 231.183685 
L 162.320682 231.183685 
L 162.425707 230.931625 
L 162.635757 230.847605 
L 162.635757 230.595545 
L 163.034852 230.511525 
L 163.034852 230.427505 
L 163.454952 230.343485 
L 163.454952 230.259465 
L 164.358166 230.175445 
L 164.442186 229.923385 
L 164.715251 229.839365 
L 164.715251 229.755345 
L 165.450426 229.671325 
L 165.471431 229.419266 
L 165.681481 229.335246 
L 165.681481 229.251226 
L 165.975551 229.167206 
L 165.975551 229.083186 
L 166.353641 228.999166 
L 166.353641 228.915146 
L 166.647711 228.831126 
L 166.668716 228.495046 
L 167.172835 228.411026 
L 167.27786 228.242986 
L 167.550925 228.158966 
L 167.550925 228.074946 
L 167.718965 227.990926 
L 167.73997 227.822886 
L 168.07605 227.738866 
L 168.139065 227.486806 
L 168.307105 227.402786 
L 168.307105 227.318766 
L 168.517155 227.234747 
L 168.62218 226.982687 
L 169.189314 226.898667 
L 169.189314 226.814647 
L 169.567404 226.814647 
L 169.567404 226.646607 
L 169.798459 226.562587 
L 169.840469 226.394547 
L 170.176549 226.394547 
L 170.281574 225.974447 
L 170.785694 225.890427 
L 170.785694 225.806407 
L 170.974739 225.722387 
L 171.058759 225.386307 
L 171.247804 225.302287 
L 171.331824 225.050227 
L 171.751923 224.966207 
L 171.751923 224.882188 
L 171.877953 224.882188 
L 171.877953 224.714148 
L 172.172023 224.714148 
L 172.172023 224.546108 
L 172.592123 224.462088 
L 172.697148 224.126008 
L 172.949208 224.041988 
L 172.949208 223.957968 
L 173.348303 223.957968 
L 173.390313 223.705908 
L 173.516343 223.705908 
L 173.516343 223.537868 
L 173.726393 223.453848 
L 173.726393 223.369828 
L 174.104482 223.285808 
L 174.188502 223.033748 
L 174.503577 223.033748 
L 174.524582 222.697668 
L 175.049707 222.613648 
L 175.133727 222.445609 
L 175.448802 222.361589 
L 175.448802 222.277569 
L 175.889907 222.193549 
L 175.931917 222.025509 
L 176.183976 221.941489 
L 176.246991 221.773449 
L 176.457041 221.689429 
L 176.457041 221.605409 
L 177.045181 221.521389 
L 177.045181 221.437369 
L 177.402266 221.353349 
L 177.465281 221.101289 
L 177.843371 221.017269 
L 177.864376 220.849229 
L 178.158446 220.849229 
L 178.158446 220.681189 
L 178.64156 220.597169 
L 178.72558 220.429129 
L 179.06166 220.345109 
L 179.166685 220.00903 
L 179.250705 219.92501 
L 179.35573 219.67295 
L 179.60779 219.58893 
L 179.60779 219.42089 
L 179.838845 219.33687 
L 179.838845 219.16883 
L 180.006885 219.08481 
L 180.006885 219.00079 
L 180.174925 218.91677 
L 180.23794 218.74873 
L 180.637035 218.66471 
L 180.70005 218.49667 
L 180.889094 218.41265 
L 180.889094 218.32863 
L 181.246179 218.24461 
L 181.330199 217.90853 
L 181.456229 217.824511 
L 181.477234 217.656471 
L 181.813314 217.572451 
L 181.813314 217.488431 
L 182.002359 217.404411 
L 182.107384 217.152351 
L 182.233414 217.068331 
L 182.338439 216.648231 
L 182.863564 216.648231 
L 182.863564 216.480191 
L 183.430698 216.396171 
L 183.493713 216.228131 
L 183.787783 216.144111 
L 183.787783 216.060091 
L 183.913813 216.060091 
L 183.955823 215.724011 
L 184.249893 215.639991 
L 184.333913 215.471952 
L 184.690998 215.387932 
L 184.754013 215.219892 
L 184.964063 215.219892 
L 184.964063 215.051852 
L 185.447178 214.967832 
L 185.447178 214.883812 
L 185.888282 214.799792 
L 185.888282 214.715772 
L 186.119337 214.631752 
L 186.203357 214.379692 
L 186.497427 214.295672 
L 186.560442 214.127632 
L 186.707477 214.043612 
L 186.812502 213.791552 
L 186.896522 213.707532 
L 186.896522 213.623512 
L 187.043557 213.623512 
L 187.127577 213.287432 
L 187.253607 213.203412 
L 187.253607 212.783313 
L 187.526672 212.699293 
L 187.526672 212.531253 
L 187.694712 212.531253 
L 187.799737 212.027133 
L 188.366871 211.943113 
L 188.366871 211.859093 
L 188.870991 211.775073 
L 188.976016 211.438993 
L 189.123051 211.354973 
L 189.228076 211.186933 
L 189.312096 211.102913 
L 189.375111 210.934873 
L 189.690186 210.850853 
L 189.690186 210.766834 
L 189.942246 210.682814 
L 189.942246 210.514774 
L 190.089281 210.430754 
L 190.173301 210.178694 
L 190.572395 210.094674 
L 190.614405 209.926634 
L 191.034505 209.842614 
L 191.034505 209.758594 
L 191.4336 209.674574 
L 191.4336 209.590554 
L 192.02174 209.506534 
L 192.042745 209.338494 
L 192.18978 209.254474 
L 192.18978 209.170454 
L 192.48385 209.086434 
L 192.588875 208.834374 
L 192.903949 208.750354 
L 192.903949 208.666334 
L 193.303044 208.582314 
L 193.387064 208.330255 
L 193.618119 208.246235 
L 193.723144 207.826135 
L 193.891184 207.742115 
L 193.933194 207.574075 
L 194.059224 207.574075 
L 194.122239 207.322015 
L 194.542339 207.237995 
L 194.626359 207.069955 
L 194.941434 206.985935 
L 195.025453 206.733875 
L 195.424548 206.649855 
L 195.424548 206.397795 
L 195.760628 206.313775 
L 195.760628 206.145735 
L 195.991683 206.061716 
L 196.096708 205.641616 
L 196.159723 205.557596 
L 196.222738 205.137496 
L 196.327763 205.053476 
L 196.327763 204.969456 
L 196.642838 204.885436 
L 196.642838 204.801416 
L 196.852888 204.801416 
L 196.957913 204.381316 
L 197.104948 204.297296 
L 197.209973 204.045236 
L 197.230978 204.045236 
L 197.293993 203.709157 
L 197.420022 203.709157 
L 197.504042 203.457097 
L 197.777107 203.373077 
L 197.819117 203.121017 
L 198.155197 203.036997 
L 198.155197 202.952977 
L 198.428262 202.868957 
L 198.491277 202.616897 
L 198.659317 202.532877 
L 198.659317 202.280817 
L 198.827357 202.196797 
L 198.932382 202.028757 
L 199.058412 202.028757 
L 199.100422 201.608657 
L 199.226452 201.524637 
L 199.226452 201.440617 
L 199.394492 201.440617 
L 199.478512 201.104538 
L 199.814591 201.020518 
L 199.856601 200.768458 
L 200.150671 200.684438 
L 200.213686 200.516398 
L 200.423736 200.432378 
L 200.507756 200.264338 
L 200.717806 200.180318 
L 200.738811 200.012278 
L 200.906851 199.928258 
L 201.011876 199.340118 
L 201.305946 199.256098 
L 201.410971 198.920019 
L 202.020116 198.835999 
L 202.020116 198.751979 
L 202.230165 198.667959 
L 202.33519 198.415899 
L 202.440215 198.331879 
L 202.54524 198.079819 
L 202.776295 197.995799 
L 202.88132 197.491679 
L 203.30142 197.407659 
L 203.38544 196.987559 
L 203.80554 196.903539 
L 203.84755 196.65148 
L 204.162625 196.56746 
L 204.246645 196.3154 
L 204.372675 196.23138 
L 204.372675 196.14736 
L 204.750764 196.06334 
L 204.792774 195.81128 
L 205.254884 195.72726 
L 205.254884 195.64324 
L 205.527949 195.55922 
L 205.590964 195.39118 
L 205.885034 195.30716 
L 205.906039 195.13912 
L 206.137094 195.0551 
L 206.221114 194.88706 
L 206.326139 194.80304 
L 206.410159 194.635 
L 206.599204 194.55098 
L 206.704229 194.29892 
L 207.166338 194.214901 
L 207.166338 193.962841 
L 207.292368 193.962841 
L 207.292368 193.794801 
L 207.670458 193.794801 
L 207.775483 193.542741 
L 207.964528 193.458721 
L 207.985533 193.290681 
L 208.090558 193.290681 
L 208.195583 192.702541 
L 208.594678 192.618521 
L 208.699703 192.114401 
L 208.972768 192.030381 
L 208.972768 191.946361 
L 209.413872 191.862342 
L 209.434877 191.694302 
L 209.960002 191.610282 
L 209.960002 191.526262 
L 210.296082 191.442242 
L 210.296082 191.358222 
L 210.611157 191.274202 
L 210.695177 190.854102 
L 210.884222 190.770082 
L 210.905227 190.518022 
L 211.094272 190.434002 
L 211.178292 190.097922 
L 211.493366 190.013902 
L 211.493366 189.929882 
L 211.619396 189.929882 
L 211.724421 189.509783 
L 211.892461 189.425763 
L 211.976481 189.257723 
L 212.081506 189.257723 
L 212.165526 188.921643 
L 212.249546 188.837623 
L 212.312561 188.501543 
L 212.543616 188.417523 
L 212.627636 187.745363 
L 212.795676 187.661343 
L 212.879696 187.409283 
L 213.005726 187.325263 
L 213.110751 186.569084 
L 213.194771 186.569084 
L 213.299796 186.317024 
L 213.320801 186.317024 
L 213.362811 185.896924 
L 213.509846 185.812904 
L 213.572861 185.644864 
L 214.03497 185.560844 
L 214.139995 185.140744 
L 214.518085 185.056724 
L 214.62311 184.552605 
L 214.770145 184.468585 
L 214.87517 184.300545 
L 214.91718 184.300545 
L 215.022205 183.880445 
L 215.106225 183.796425 
L 215.148235 183.628385 
L 215.4213 183.544365 
L 215.50532 183.376325 
L 215.58934 183.292305 
L 215.58934 183.208285 
L 215.904415 183.124265 
L 215.988435 182.704165 
L 216.114465 182.704165 
L 216.17748 182.368086 
L 216.429539 182.284066 
L 216.492554 182.116026 
L 216.723609 182.032006 
L 216.723609 181.863966 
L 216.954664 181.779946 
L 217.059689 181.527886 
L 217.101699 181.443866 
L 217.185719 181.107786 
L 217.248734 181.023766 
L 217.353759 180.855726 
L 217.437779 180.771706 
L 217.542804 180.435626 
L 217.647829 180.351606 
L 217.731849 180.099547 
L 218.025919 180.015527 
L 218.109939 179.679447 
L 218.782098 179.595427 
L 218.866118 179.175327 
L 219.013153 179.091307 
L 219.013153 179.007287 
L 219.160188 178.923267 
L 219.265213 178.587187 
L 219.286218 178.587187 
L 219.370238 178.335127 
L 219.475263 178.251107 
L 219.517273 177.746988 
L 219.643303 177.746988 
L 219.727323 177.326888 
L 219.895363 177.242868 
L 219.979383 176.906788 
L 220.126418 176.822768 
L 220.126418 176.738748 
L 220.315463 176.738748 
L 220.315463 176.570708 
L 220.630538 176.570708 
L 220.693553 176.318648 
L 220.882598 176.234628 
L 220.987622 175.898548 
L 221.155662 175.814528 
L 221.260687 175.562468 
L 221.281692 175.562468 
L 221.281692 175.310409 
L 221.407722 175.310409 
L 221.470737 175.058349 
L 221.785812 174.974329 
L 221.785812 174.806289 
L 221.953852 174.806289 
L 222.037872 174.554229 
L 222.226917 174.470209 
L 222.331942 174.218149 
L 222.436967 174.218149 
L 222.520987 173.966089 
L 222.647017 173.882069 
L 222.731037 173.630009 
L 222.815057 173.630009 
L 222.878072 173.209909 
L 222.983097 173.125889 
L 223.025107 172.95785 
L 223.130132 172.87383 
L 223.172142 172.70579 
L 223.277166 172.62177 
L 223.382191 172.20167 
L 223.466211 172.11765 
L 223.550231 171.69755 
L 223.613246 171.61353 
L 223.613246 171.52951 
L 223.802291 171.52951 
L 223.865306 171.02539 
L 224.054351 170.94137 
L 224.075356 170.77333 
L 224.180381 170.77333 
L 224.285406 170.353231 
L 224.432441 170.353231 
L 224.516461 169.765091 
L 224.579476 169.681071 
L 224.684501 169.429011 
L 224.957566 169.344991 
L 225.062591 169.176951 
L 225.083596 169.176951 
L 225.083596 169.008911 
L 225.356661 168.924891 
L 225.356661 168.840871 
L 225.587716 168.756851 
L 225.629725 168.504791 
L 225.839775 168.420771 
L 225.923795 168.168712 
L 226.091835 168.084692 
L 226.133845 167.580572 
L 226.32289 167.496552 
L 226.40691 167.244492 
L 226.469925 167.244492 
L 226.469925 167.076452 
L 226.595955 167.076452 
L 226.70098 166.740372 
L 226.74299 166.740372 
L 226.82701 166.404292 
L 226.974045 166.404292 
L 227.03706 165.648113 
L 227.100075 165.648113 
L 227.12108 165.396053 
L 227.310125 165.312033 
L 227.394145 164.975953 
L 227.478165 164.891933 
L 227.54118 164.555853 
L 227.730225 164.555853 
L 227.772235 163.967713 
L 227.96128 163.883693 
L 228.066304 163.295554 
L 228.129319 163.211534 
L 228.234344 162.791434 
L 228.276354 162.707414 
L 228.297359 162.371334 
L 228.486404 162.287314 
L 228.591429 162.035254 
L 228.633439 161.951234 
L 228.738464 161.699174 
L 228.864494 161.615154 
L 228.906504 161.279075 
L 229.074544 161.195055 
L 229.179569 160.942995 
L 229.221579 160.858975 
L 229.242584 160.606915 
L 229.515649 160.522895 
L 229.620674 160.270835 
L 229.746704 160.186815 
L 229.851729 159.598675 
L 229.872734 159.598675 
L 229.872734 159.430635 
L 229.998764 159.430635 
L 230.040774 158.926516 
L 230.124794 158.926516 
L 230.187809 158.506416 
L 230.292834 158.422396 
L 230.334843 158.254356 
L 230.439868 158.170336 
L 230.460873 158.002296 
L 230.754943 157.918276 
L 230.817958 157.666216 
L 230.964993 157.666216 
L 231.028008 156.994056 
L 231.154038 156.994056 
L 231.217053 156.741996 
L 231.364088 156.657976 
L 231.427103 156.405917 
L 231.511123 156.405917 
L 231.553133 155.733757 
L 231.742178 155.649737 
L 231.763183 155.481697 
L 232.015243 155.397677 
L 232.120268 155.061597 
L 232.141273 155.061597 
L 232.183283 154.809537 
L 232.393333 154.725517 
L 232.393333 154.473457 
L 232.771422 154.389437 
L 232.834437 154.053358 
L 232.918457 153.969338 
L 232.939462 153.549238 
L 233.317552 153.465218 
L 233.422577 153.045118 
L 233.485592 152.961098 
L 233.485592 152.877078 
L 233.695642 152.877078 
L 233.800667 152.288938 
L 233.821672 152.288938 
L 233.926697 151.616779 
L 234.073732 151.616779 
L 234.094737 151.364719 
L 234.283782 151.280699 
L 234.388807 150.608539 
L 234.493832 150.524519 
L 234.556847 150.356479 
L 234.682877 150.272459 
L 234.682877 150.188439 
L 235.018957 150.104419 
L 235.102976 149.768339 
L 235.144986 149.768339 
L 235.229006 149.34824 
L 235.292021 149.26422 
L 235.397046 148.59206 
L 235.544081 148.50804 
L 235.544081 148.42402 
L 235.733126 148.42402 
L 235.796141 148.17196 
L 236.090211 148.08794 
L 236.132221 147.75186 
L 236.258251 147.66784 
L 236.363276 147.16372 
L 236.426291 147.079701 
L 236.510311 146.575581 
L 236.594331 146.491561 
L 236.615336 146.323521 
L 236.720361 146.323521 
L 236.825386 145.735381 
L 236.930411 145.651361 
L 237.035436 145.147241 
L 237.098451 145.147241 
L 237.119456 144.643122 
L 237.266491 144.559102 
L 237.371516 144.139002 
L 237.413525 144.139002 
L 237.51855 143.634882 
L 237.64458 143.550862 
L 237.68659 142.794682 
L 237.89664 142.710662 
L 237.959655 142.374583 
L 238.085685 142.374583 
L 238.19071 142.122523 
L 238.23272 142.122523 
L 238.337745 141.534383 
L 238.44277 141.450363 
L 238.48478 140.946243 
L 238.673825 140.862223 
L 238.73684 140.526143 
L 238.86287 140.442123 
L 238.925885 140.274083 
L 239.009905 140.274083 
L 239.07292 140.022024 
L 239.135935 140.022024 
L 239.24096 139.517904 
L 239.387995 139.433884 
L 239.45101 139.097804 
L 239.598045 139.097804 
L 239.66106 138.677704 
L 239.808094 138.677704 
L 239.913119 137.753484 
L 239.997139 137.669465 
L 240.018144 137.417405 
L 240.123169 137.417405 
L 240.165179 137.165345 
L 240.270204 137.081325 
L 240.333219 136.829265 
L 240.522264 136.745245 
L 240.564274 136.577205 
L 240.669299 136.577205 
L 240.774324 135.989065 
L 240.879349 135.989065 
L 240.921359 135.737005 
L 241.068394 135.652985 
L 241.089399 135.484945 
L 241.299449 135.400925 
L 241.404474 134.896806 
L 241.551509 134.812786 
L 241.635529 134.392686 
L 241.761559 134.308666 
L 241.803569 134.056606 
L 241.950604 133.972586 
L 242.055629 133.300426 
L 242.139648 133.300426 
L 242.244673 132.712287 
L 242.412713 132.628267 
L 242.517738 132.040127 
L 242.685778 131.956107 
L 242.685778 131.788067 
L 242.958843 131.788067 
L 243.063868 131.367967 
L 243.126883 131.283947 
L 243.231908 130.695807 
L 243.252913 130.695807 
L 243.357938 130.275708 
L 243.567988 130.191688 
L 243.631003 130.023648 
L 243.820048 129.939628 
L 243.862058 129.771588 
L 243.967083 129.687568 
L 243.988088 129.435508 
L 244.156128 129.435508 
L 244.261153 129.183448 
L 244.324168 129.099428 
L 244.429193 128.511288 
L 244.492207 128.511288 
L 244.492207 128.259229 
L 244.639242 128.259229 
L 244.702257 127.755109 
L 244.849292 127.755109 
L 244.912307 127.250989 
L 244.996327 127.166969 
L 245.059342 126.746869 
L 245.164367 126.746869 
L 245.248387 126.494809 
L 245.521452 126.494809 
L 245.605472 125.31853 
L 245.941552 125.23451 
L 246.046577 124.89843 
L 246.088587 124.89843 
L 246.151602 124.47833 
L 246.235622 124.47833 
L 246.298637 124.14225 
L 246.382657 124.05823 
L 246.382657 123.97421 
L 246.571702 123.97421 
L 246.592707 123.386071 
L 246.718737 123.386071 
L 246.802757 122.629891 
L 246.886776 122.545871 
L 246.970796 121.957731 
L 247.054816 121.957731 
L 247.159841 121.537631 
L 247.264866 121.453611 
L 247.348886 120.781452 
L 247.390896 120.781452 
L 247.453911 120.529392 
L 247.642956 120.529392 
L 247.747981 120.193312 
L 247.789991 120.193312 
L 247.874011 119.857232 
L 247.958031 119.857232 
L 248.000041 119.437132 
L 248.189086 119.353112 
L 248.252101 118.848993 
L 248.378131 118.764973 
L 248.483156 118.344873 
L 248.588181 118.260853 
L 248.693206 117.504673 
L 248.756221 117.420653 
L 248.777226 117.168593 
L 248.945266 117.168593 
L 248.987276 116.664473 
L 249.113306 116.580453 
L 249.155316 116.244374 
L 249.30235 116.244374 
L 249.407375 115.656234 
L 249.47039 115.656234 
L 249.575415 114.732014 
L 249.617425 114.647994 
L 249.701445 114.227894 
L 249.80647 114.143875 
L 249.89049 113.471715 
L 250.037525 113.471715 
L 250.14255 112.967595 
L 250.18456 112.967595 
L 250.289585 112.547495 
L 250.373605 112.547495 
L 250.47863 111.959355 
L 250.541645 111.875335 
L 250.64667 111.203176 
L 250.68868 111.203176 
L 250.793705 109.438757 
L 250.81471 109.438757 
L 250.919735 109.102677 
L 251.171795 109.018657 
L 251.27682 108.346497 
L 251.31883 108.262477 
L 251.423855 108.094437 
L 251.507875 108.010417 
L 251.570889 107.758357 
L 251.738929 107.674337 
L 251.843954 106.918158 
L 251.906969 106.918158 
L 252.011994 106.245998 
L 252.075009 106.161978 
L 252.180034 105.405798 
L 252.201039 105.405798 
L 252.306064 104.649619 
L 252.348074 104.565599 
L 252.432094 104.145499 
L 252.474104 104.145499 
L 252.537119 103.557359 
L 252.747169 103.473339 
L 252.810184 103.305299 
L 252.873199 103.305299 
L 252.978224 102.465099 
L 253.020234 102.38108 
L 253.125259 102.12902 
L 253.209279 102.045 
L 253.251289 101.54088 
L 253.461339 101.54088 
L 253.566364 100.70068 
L 253.713399 100.70068 
L 253.755409 100.3646 
L 253.839429 100.3646 
L 253.944453 99.272341 
L 254.007468 99.272341 
L 254.112493 98.768221 
L 254.154503 98.684201 
L 254.217518 98.180081 
L 254.385558 98.180081 
L 254.490583 97.759981 
L 254.553598 97.759981 
L 254.637618 97.339882 
L 254.679628 97.339882 
L 254.763648 96.751742 
L 254.826663 96.751742 
L 254.910683 96.247622 
L 254.952693 96.247622 
L 255.057718 95.239383 
L 255.120733 95.239383 
L 255.225758 94.315163 
L 255.267768 94.231143 
L 255.351788 93.811043 
L 255.435808 93.811043 
L 255.519828 93.558983 
L 255.645858 93.558983 
L 255.666863 93.222903 
L 255.876913 93.222903 
L 255.918923 92.634764 
L 256.002943 92.634764 
L 256.107968 91.290444 
L 256.233998 91.290444 
L 256.339022 90.198185 
L 256.402037 90.198185 
L 256.444047 89.946125 
L 256.549072 89.946125 
L 256.654097 89.442005 
L 256.675102 89.442005 
L 256.738117 88.601805 
L 256.822137 88.601805 
L 256.906157 88.013666 
L 257.137212 87.929646 
L 257.221232 87.341506 
L 257.326257 87.341506 
L 257.410277 86.165226 
L 257.473292 86.081206 
L 257.473292 85.913166 
L 257.620327 85.829147 
L 257.662337 85.493067 
L 257.767362 85.409047 
L 257.872387 84.484827 
L 257.956407 84.400807 
L 258.061432 83.728647 
L 258.082437 83.728647 
L 258.145452 83.140508 
L 258.208467 83.140508 
L 258.271482 82.300308 
L 258.334497 82.300308 
L 258.439522 81.796188 
L 258.481532 81.796188 
L 258.523542 80.955989 
L 258.628566 80.871969 
L 258.733591 80.031769 
L 258.796606 79.947749 
L 258.901631 79.611669 
L 258.943641 79.611669 
L 259.048666 78.26735 
L 259.111681 78.18333 
L 259.216706 77.67921 
L 259.237711 77.67921 
L 259.342736 77.17509 
L 259.426756 77.17509 
L 259.531781 76.67097 
L 259.552786 76.67097 
L 259.657811 75.662731 
L 259.720826 75.662731 
L 259.825851 75.242631 
L 259.846856 75.242631 
L 259.888866 74.906551 
L 259.993891 74.906551 
L 260.077911 73.814292 
L 260.161931 73.814292 
L 260.266956 73.226152 
L 260.329971 73.142132 
L 260.434996 71.881832 
L 260.477006 71.881832 
L 260.540021 71.377713 
L 260.645046 71.293693 
L 260.750071 70.201433 
L 260.771076 70.201433 
L 260.876101 69.697313 
L 260.96012 69.613293 
L 260.96012 69.445253 
L 261.233185 69.361234 
L 261.33821 68.773094 
L 261.38022 68.689074 
L 261.42223 68.437014 
L 261.50625 68.437014 
L 261.611275 67.932894 
L 261.7163 67.848874 
L 261.821325 67.176714 
L 261.947355 67.176714 
L 262.05238 66.588575 
L 262.115395 66.504555 
L 262.22042 66.000435 
L 262.283435 66.000435 
L 262.38846 65.328275 
L 262.409465 65.328275 
L 262.51449 64.404056 
L 262.5565 64.404056 
L 262.619515 63.899936 
L 262.68253 63.899936 
L 262.787555 62.807676 
L 262.829565 62.807676 
L 262.93459 61.547377 
L 262.9766 61.547377 
L 263.081625 60.959237 
L 263.123635 60.959237 
L 263.14464 60.623157 
L 263.291675 60.623157 
L 263.354689 59.698938 
L 263.438709 59.614918 
L 263.459714 59.362858 
L 263.564739 59.362858 
L 263.648759 58.102558 
L 263.774789 58.018538 
L 263.837804 57.598439 
L 263.921824 57.514419 
L 263.963834 57.262359 
L 264.131874 57.262359 
L 264.236899 56.338139 
L 264.341924 56.338139 
L 264.383934 55.665979 
L 264.509964 55.581959 
L 264.593984 54.57372 
L 264.635994 54.57372 
L 264.741019 53.81754 
L 264.825039 53.73352 
L 264.930064 53.2294 
L 264.951069 53.2294 
L 265.056094 51.801061 
L 265.077099 51.801061 
L 265.161119 51.128901 
L 265.245139 51.128901 
L 265.329159 50.624781 
L 265.476194 50.540761 
L 265.581219 49.784582 
L 265.602224 49.784582 
L 265.686243 48.944382 
L 265.770263 48.860362 
L 265.854283 48.608302 
L 265.959308 48.524282 
L 266.022323 47.768103 
L 266.106343 47.768103 
L 266.211368 46.759863 
L 266.253378 46.759863 
L 266.358403 45.247504 
L 266.421418 45.163484 
L 266.526443 44.323284 
L 266.568453 44.323284 
L 266.610463 43.987204 
L 266.694483 43.987204 
L 266.778503 43.651124 
L 266.841518 43.567104 
L 266.841518 43.483084 
L 266.988553 43.399065 
L 266.988553 43.315045 
L 267.219608 43.315045 
L 267.219608 43.315045 
" clip-path="url(#p70daa1a5eb)" style="fill: none; stroke: #1f77b4; stroke-width: 1.5; stroke-linecap: square"/>
   </g>
   <g id="patch_3">
    <path d="M 55.069198 255.465455 
L 55.069198 41.214545 
" style="fill: none; stroke: #000000; stroke-width: 0.8; stroke-linejoin: miter; stroke-linecap: square"/>
   </g>
   <g id="patch_4">
    <path d="M 269.320107 255.465455 
L 269.320107 41.214545 
" style="fill: none; stroke: #000000; stroke-width: 0.8; stroke-linejoin: miter; stroke-linecap: square"/>
   </g>
   <g id="patch_5">
    <path d="M 55.069198 255.465455 
L 269.320107 255.465455 
" style="fill: none; stroke: #000000; stroke-width: 0.8; stroke-linejoin: miter; stroke-linecap: square"/>
   </g>
   <g id="patch_6">
    <path d="M 55.069198 41.214545 
L 269.320107 41.214545 
" style="fill: none; stroke: #000000; stroke-width: 0.8; stroke-linejoin: miter; stroke-linecap: square"/>
   </g>
   <g id="text_15">
    <!-- ROC Curve -->
    <g transform="translate(129.504027 35.214545) scale(0.12 -0.12)">
     <defs>
      <path id="DejaVuSans-4f" d="M 2522 4238 
Q 1834 4238 1429 3725 
Q 1025 3213 1025 2328 
Q 1025 1447 1429 934 
Q 1834 422 2522 422 
Q 3209 422 3611 934 
Q 4013 1447 4013 2328 
Q 4013 3213 3611 3725 
Q 3209 4238 2522 4238 
z
M 2522 4750 
Q 3503 4750 4090 4092 
Q 4678 3434 4678 2328 
Q 4678 1225 4090 567 
Q 3503 -91 2522 -91 
Q 1538 -91 948 565 
Q 359 1222 359 2328 
Q 359 3434 948 4092 
Q 1538 4750 2522 4750 
z
" transform="scale(0.015625)"/>
      <path id="DejaVuSans-43" d="M 4122 4306 
L 4122 3641 
Q 3803 3938 3442 4084 
Q 3081 4231 2675 4231 
Q 1875 4231 1450 3742 
Q 1025 3253 1025 2328 
Q 1025 1406 1450 917 
Q 1875 428 2675 428 
Q 3081 428 3442 575 
Q 3803 722 4122 1019 
L 4122 359 
Q 3791 134 3420 21 
Q 3050 -91 2638 -91 
Q 1578 -91 968 557 
Q 359 1206 359 2328 
Q 359 3453 968 4101 
Q 1578 4750 2638 4750 
Q 3056 4750 3426 4639 
Q 3797 4528 4122 4306 
z
" transform="scale(0.015625)"/>
     </defs>
     <use xlink:href="#DejaVuSans-52"/>
     <use xlink:href="#DejaVuSans-4f" transform="translate(69.482422 0)"/>
     <use xlink:href="#DejaVuSans-43" transform="translate(148.193359 0)"/>
     <use xlink:href="#DejaVuSans-20" transform="translate(218.017578 0)"/>
     <use xlink:href="#DejaVuSans-43" transform="translate(249.804688 0)"/>
     <use xlink:href="#DejaVuSans-75" transform="translate(319.628906 0)"/>
     <use xlink:href="#DejaVuSans-72" transform="translate(383.007812 0)"/>
     <use xlink:href="#DejaVuSans-76" transform="translate(424.121094 0)"/>
     <use xlink:href="#DejaVuSans-65" transform="translate(483.300781 0)"/>
    </g>
   </g>
   <g id="legend_1">
    <g id="patch_7">
     <path d="M 115.546669 250.465455 
L 262.320107 250.465455 
Q 264.320107 250.465455 264.320107 248.465455 
L 264.320107 234.78733 
Q 264.320107 232.78733 262.320107 232.78733 
L 115.546669 232.78733 
Q 113.546669 232.78733 113.546669 234.78733 
L 113.546669 248.465455 
Q 113.546669 250.465455 115.546669 250.465455 
z
" style="fill: #ffffff; opacity: 0.8; stroke: #cccccc; stroke-linejoin: miter"/>
    </g>
    <g id="line2d_14">
     <path d="M 117.546669 240.885767 
L 127.546669 240.885767 
L 137.546669 240.885767 
" style="fill: none; stroke: #1f77b4; stroke-width: 1.5; stroke-linecap: square"/>
    </g>
    <g id="text_16">
     <!-- Classifier (AUC = 0.21) -->
     <g transform="translate(145.546669 244.385767) scale(0.1 -0.1)">
      <defs>
       <path id="DejaVuSans-66" d="M 2375 4863 
L 2375 4384 
L 1825 4384 
Q 1516 4384 1395 4259 
Q 1275 4134 1275 3809 
L 1275 3500 
L 2222 3500 
L 2222 3053 
L 1275 3053 
L 1275 0 
L 697 0 
L 697 3053 
L 147 3053 
L 147 3500 
L 697 3500 
L 697 3744 
Q 697 4328 969 4595 
Q 1241 4863 1831 4863 
L 2375 4863 
z
" transform="scale(0.015625)"/>
       <path id="DejaVuSans-41" d="M 2188 4044 
L 1331 1722 
L 3047 1722 
L 2188 4044 
z
M 1831 4666 
L 2547 4666 
L 4325 0 
L 3669 0 
L 3244 1197 
L 1141 1197 
L 716 0 
L 50 0 
L 1831 4666 
z
" transform="scale(0.015625)"/>
       <path id="DejaVuSans-55" d="M 556 4666 
L 1191 4666 
L 1191 1831 
Q 1191 1081 1462 751 
Q 1734 422 2344 422 
Q 2950 422 3222 751 
Q 3494 1081 3494 1831 
L 3494 4666 
L 4128 4666 
L 4128 1753 
Q 4128 841 3676 375 
Q 3225 -91 2344 -91 
Q 1459 -91 1007 375 
Q 556 841 556 1753 
L 556 4666 
z
" transform="scale(0.015625)"/>
       <path id="DejaVuSans-3d" d="M 678 2906 
L 4684 2906 
L 4684 2381 
L 678 2381 
L 678 2906 
z
M 678 1631 
L 4684 1631 
L 4684 1100 
L 678 1100 
L 678 1631 
z
" transform="scale(0.015625)"/>
      </defs>
      <use xlink:href="#DejaVuSans-43"/>
      <use xlink:href="#DejaVuSans-6c" transform="translate(69.824219 0)"/>
      <use xlink:href="#DejaVuSans-61" transform="translate(97.607422 0)"/>
      <use xlink:href="#DejaVuSans-73" transform="translate(158.886719 0)"/>
      <use xlink:href="#DejaVuSans-73" transform="translate(210.986328 0)"/>
      <use xlink:href="#DejaVuSans-69" transform="translate(263.085938 0)"/>
      <use xlink:href="#DejaVuSans-66" transform="translate(290.869141 0)"/>
      <use xlink:href="#DejaVuSans-69" transform="translate(326.074219 0)"/>
      <use xlink:href="#DejaVuSans-65" transform="translate(353.857422 0)"/>
      <use xlink:href="#DejaVuSans-72" transform="translate(415.380859 0)"/>
      <use xlink:href="#DejaVuSans-20" transform="translate(456.494141 0)"/>
      <use xlink:href="#DejaVuSans-28" transform="translate(488.28125 0)"/>
      <use xlink:href="#DejaVuSans-41" transform="translate(527.294922 0)"/>
      <use xlink:href="#DejaVuSans-55" transform="translate(595.703125 0)"/>
      <use xlink:href="#DejaVuSans-43" transform="translate(668.896484 0)"/>
      <use xlink:href="#DejaVuSans-20" transform="translate(738.720703 0)"/>
      <use xlink:href="#DejaVuSans-3d" transform="translate(770.507812 0)"/>
      <use xlink:href="#DejaVuSans-20" transform="translate(854.296875 0)"/>
      <use xlink:href="#DejaVuSans-30" transform="translate(886.083984 0)"/>
      <use xlink:href="#DejaVuSans-2e" transform="translate(949.707031 0)"/>
      <use xlink:href="#DejaVuSans-32" transform="translate(981.494141 0)"/>
      <use xlink:href="#DejaVuSans-31" transform="translate(1045.117188 0)"/>
      <use xlink:href="#DejaVuSans-29" transform="translate(1108.740234 0)"/>
     </g>
    </g>
   </g>
  </g>
  <g id="axes_2">
   <g id="patch_8">
    <path d="M 337.669198 255.465455 
L 551.920107 255.465455 
L 551.920107 41.214545 
L 337.669198 41.214545 
z
" style="fill: #ffffff"/>
   </g>
   <g id="matplotlib.axis_3">
    <g id="xtick_7">
     <g id="line2d_15">
      <g>
       <use xlink:href="#mc9ae3be2e3" x="339.769697" y="255.465455" style="stroke: #000000; stroke-width: 0.8"/>
      </g>
     </g>
     <g id="text_17">
      <!-- 0.0 -->
      <g transform="translate(331.818134 270.063892) scale(0.1 -0.1)">
       <use xlink:href="#DejaVuSans-30"/>
       <use xlink:href="#DejaVuSans-2e" transform="translate(63.623047 0)"/>
       <use xlink:href="#DejaVuSans-30" transform="translate(95.410156 0)"/>
      </g>
     </g>
    </g>
    <g id="xtick_8">
     <g id="line2d_16">
      <g>
       <use xlink:href="#mc9ae3be2e3" x="381.779679" y="255.465455" style="stroke: #000000; stroke-width: 0.8"/>
      </g>
     </g>
     <g id="text_18">
      <!-- 0.2 -->
      <g transform="translate(373.828117 270.063892) scale(0.1 -0.1)">
       <use xlink:href="#DejaVuSans-30"/>
       <use xlink:href="#DejaVuSans-2e" transform="translate(63.623047 0)"/>
       <use xlink:href="#DejaVuSans-32" transform="translate(95.410156 0)"/>
      </g>
     </g>
    </g>
    <g id="xtick_9">
     <g id="line2d_17">
      <g>
       <use xlink:href="#mc9ae3be2e3" x="423.789661" y="255.465455" style="stroke: #000000; stroke-width: 0.8"/>
      </g>
     </g>
     <g id="text_19">
      <!-- 0.4 -->
      <g transform="translate(415.838099 270.063892) scale(0.1 -0.1)">
       <use xlink:href="#DejaVuSans-30"/>
       <use xlink:href="#DejaVuSans-2e" transform="translate(63.623047 0)"/>
       <use xlink:href="#DejaVuSans-34" transform="translate(95.410156 0)"/>
      </g>
     </g>
    </g>
    <g id="xtick_10">
     <g id="line2d_18">
      <g>
       <use xlink:href="#mc9ae3be2e3" x="465.799643" y="255.465455" style="stroke: #000000; stroke-width: 0.8"/>
      </g>
     </g>
     <g id="text_20">
      <!-- 0.6 -->
      <g transform="translate(457.848081 270.063892) scale(0.1 -0.1)">
       <use xlink:href="#DejaVuSans-30"/>
       <use xlink:href="#DejaVuSans-2e" transform="translate(63.623047 0)"/>
       <use xlink:href="#DejaVuSans-36" transform="translate(95.410156 0)"/>
      </g>
     </g>
    </g>
    <g id="xtick_11">
     <g id="line2d_19">
      <g>
       <use xlink:href="#mc9ae3be2e3" x="507.809626" y="255.465455" style="stroke: #000000; stroke-width: 0.8"/>
      </g>
     </g>
     <g id="text_21">
      <!-- 0.8 -->
      <g transform="translate(499.858063 270.063892) scale(0.1 -0.1)">
       <use xlink:href="#DejaVuSans-30"/>
       <use xlink:href="#DejaVuSans-2e" transform="translate(63.623047 0)"/>
       <use xlink:href="#DejaVuSans-38" transform="translate(95.410156 0)"/>
      </g>
     </g>
    </g>
    <g id="xtick_12">
     <g id="line2d_20">
      <g>
       <use xlink:href="#mc9ae3be2e3" x="549.819608" y="255.465455" style="stroke: #000000; stroke-width: 0.8"/>
      </g>
     </g>
     <g id="text_22">
      <!-- 1.0 -->
      <g transform="translate(541.868045 270.063892) scale(0.1 -0.1)">
       <use xlink:href="#DejaVuSans-31"/>
       <use xlink:href="#DejaVuSans-2e" transform="translate(63.623047 0)"/>
       <use xlink:href="#DejaVuSans-30" transform="translate(95.410156 0)"/>
      </g>
     </g>
    </g>
    <g id="text_23">
     <!-- Recall (Positive label: 1) -->
     <g transform="translate(384.978246 283.742017) scale(0.1 -0.1)">
      <defs>
       <path id="DejaVuSans-63" d="M 3122 3366 
L 3122 2828 
Q 2878 2963 2633 3030 
Q 2388 3097 2138 3097 
Q 1578 3097 1268 2742 
Q 959 2388 959 1747 
Q 959 1106 1268 751 
Q 1578 397 2138 397 
Q 2388 397 2633 464 
Q 2878 531 3122 666 
L 3122 134 
Q 2881 22 2623 -34 
Q 2366 -91 2075 -91 
Q 1284 -91 818 406 
Q 353 903 353 1747 
Q 353 2603 823 3093 
Q 1294 3584 2113 3584 
Q 2378 3584 2631 3529 
Q 2884 3475 3122 3366 
z
" transform="scale(0.015625)"/>
      </defs>
      <use xlink:href="#DejaVuSans-52"/>
      <use xlink:href="#DejaVuSans-65" transform="translate(64.982422 0)"/>
      <use xlink:href="#DejaVuSans-63" transform="translate(126.505859 0)"/>
      <use xlink:href="#DejaVuSans-61" transform="translate(181.486328 0)"/>
      <use xlink:href="#DejaVuSans-6c" transform="translate(242.765625 0)"/>
      <use xlink:href="#DejaVuSans-6c" transform="translate(270.548828 0)"/>
      <use xlink:href="#DejaVuSans-20" transform="translate(298.332031 0)"/>
      <use xlink:href="#DejaVuSans-28" transform="translate(330.119141 0)"/>
      <use xlink:href="#DejaVuSans-50" transform="translate(369.132812 0)"/>
      <use xlink:href="#DejaVuSans-6f" transform="translate(425.810547 0)"/>
      <use xlink:href="#DejaVuSans-73" transform="translate(486.992188 0)"/>
      <use xlink:href="#DejaVuSans-69" transform="translate(539.091797 0)"/>
      <use xlink:href="#DejaVuSans-74" transform="translate(566.875 0)"/>
      <use xlink:href="#DejaVuSans-69" transform="translate(606.083984 0)"/>
      <use xlink:href="#DejaVuSans-76" transform="translate(633.867188 0)"/>
      <use xlink:href="#DejaVuSans-65" transform="translate(693.046875 0)"/>
      <use xlink:href="#DejaVuSans-20" transform="translate(754.570312 0)"/>
      <use xlink:href="#DejaVuSans-6c" transform="translate(786.357422 0)"/>
      <use xlink:href="#DejaVuSans-61" transform="translate(814.140625 0)"/>
      <use xlink:href="#DejaVuSans-62" transform="translate(875.419922 0)"/>
      <use xlink:href="#DejaVuSans-65" transform="translate(938.896484 0)"/>
      <use xlink:href="#DejaVuSans-6c" transform="translate(1000.419922 0)"/>
      <use xlink:href="#DejaVuSans-3a" transform="translate(1028.203125 0)"/>
      <use xlink:href="#DejaVuSans-20" transform="translate(1061.894531 0)"/>
      <use xlink:href="#DejaVuSans-31" transform="translate(1093.681641 0)"/>
      <use xlink:href="#DejaVuSans-29" transform="translate(1157.304688 0)"/>
     </g>
    </g>
   </g>
   <g id="matplotlib.axis_4">
    <g id="ytick_7">
     <g id="line2d_21">
      <g>
       <use xlink:href="#m202f35be44" x="337.669198" y="253.364955" style="stroke: #000000; stroke-width: 0.8"/>
      </g>
     </g>
     <g id="text_24">
      <!-- 0.0 -->
      <g transform="translate(314.766073 257.164174) scale(0.1 -0.1)">
       <use xlink:href="#DejaVuSans-30"/>
       <use xlink:href="#DejaVuSans-2e" transform="translate(63.623047 0)"/>
       <use xlink:href="#DejaVuSans-30" transform="translate(95.410156 0)"/>
      </g>
     </g>
    </g>
    <g id="ytick_8">
     <g id="line2d_22">
      <g>
       <use xlink:href="#m202f35be44" x="337.669198" y="211.354973" style="stroke: #000000; stroke-width: 0.8"/>
      </g>
     </g>
     <g id="text_25">
      <!-- 0.2 -->
      <g transform="translate(314.766073 215.154192) scale(0.1 -0.1)">
       <use xlink:href="#DejaVuSans-30"/>
       <use xlink:href="#DejaVuSans-2e" transform="translate(63.623047 0)"/>
       <use xlink:href="#DejaVuSans-32" transform="translate(95.410156 0)"/>
      </g>
     </g>
    </g>
    <g id="ytick_9">
     <g id="line2d_23">
      <g>
       <use xlink:href="#m202f35be44" x="337.669198" y="169.344991" style="stroke: #000000; stroke-width: 0.8"/>
      </g>
     </g>
     <g id="text_26">
      <!-- 0.4 -->
      <g transform="translate(314.766073 173.14421) scale(0.1 -0.1)">
       <use xlink:href="#DejaVuSans-30"/>
       <use xlink:href="#DejaVuSans-2e" transform="translate(63.623047 0)"/>
       <use xlink:href="#DejaVuSans-34" transform="translate(95.410156 0)"/>
      </g>
     </g>
    </g>
    <g id="ytick_10">
     <g id="line2d_24">
      <g>
       <use xlink:href="#m202f35be44" x="337.669198" y="127.335009" style="stroke: #000000; stroke-width: 0.8"/>
      </g>
     </g>
     <g id="text_27">
      <!-- 0.6 -->
      <g transform="translate(314.766073 131.134228) scale(0.1 -0.1)">
       <use xlink:href="#DejaVuSans-30"/>
       <use xlink:href="#DejaVuSans-2e" transform="translate(63.623047 0)"/>
       <use xlink:href="#DejaVuSans-36" transform="translate(95.410156 0)"/>
      </g>
     </g>
    </g>
    <g id="ytick_11">
     <g id="line2d_25">
      <g>
       <use xlink:href="#m202f35be44" x="337.669198" y="85.325027" style="stroke: #000000; stroke-width: 0.8"/>
      </g>
     </g>
     <g id="text_28">
      <!-- 0.8 -->
      <g transform="translate(314.766073 89.124245) scale(0.1 -0.1)">
       <use xlink:href="#DejaVuSans-30"/>
       <use xlink:href="#DejaVuSans-2e" transform="translate(63.623047 0)"/>
       <use xlink:href="#DejaVuSans-38" transform="translate(95.410156 0)"/>
      </g>
     </g>
    </g>
    <g id="ytick_12">
     <g id="line2d_26">
      <g>
       <use xlink:href="#m202f35be44" x="337.669198" y="43.315045" style="stroke: #000000; stroke-width: 0.8"/>
      </g>
     </g>
     <g id="text_29">
      <!-- 1.0 -->
      <g transform="translate(314.766073 47.114263) scale(0.1 -0.1)">
       <use xlink:href="#DejaVuSans-31"/>
       <use xlink:href="#DejaVuSans-2e" transform="translate(63.623047 0)"/>
       <use xlink:href="#DejaVuSans-30" transform="translate(95.410156 0)"/>
      </g>
     </g>
    </g>
    <g id="text_30">
     <!-- Precision (Positive label: 1) -->
     <g transform="translate(308.686385 215.54625) rotate(-90) scale(0.1 -0.1)">
      <defs>
       <path id="DejaVuSans-6e" d="M 3513 2113 
L 3513 0 
L 2938 0 
L 2938 2094 
Q 2938 2591 2744 2837 
Q 2550 3084 2163 3084 
Q 1697 3084 1428 2787 
Q 1159 2491 1159 1978 
L 1159 0 
L 581 0 
L 581 3500 
L 1159 3500 
L 1159 2956 
Q 1366 3272 1645 3428 
Q 1925 3584 2291 3584 
Q 2894 3584 3203 3211 
Q 3513 2838 3513 2113 
z
" transform="scale(0.015625)"/>
      </defs>
      <use xlink:href="#DejaVuSans-50"/>
      <use xlink:href="#DejaVuSans-72" transform="translate(58.552734 0)"/>
      <use xlink:href="#DejaVuSans-65" transform="translate(97.416016 0)"/>
      <use xlink:href="#DejaVuSans-63" transform="translate(158.939453 0)"/>
      <use xlink:href="#DejaVuSans-69" transform="translate(213.919922 0)"/>
      <use xlink:href="#DejaVuSans-73" transform="translate(241.703125 0)"/>
      <use xlink:href="#DejaVuSans-69" transform="translate(293.802734 0)"/>
      <use xlink:href="#DejaVuSans-6f" transform="translate(321.585938 0)"/>
      <use xlink:href="#DejaVuSans-6e" transform="translate(382.767578 0)"/>
      <use xlink:href="#DejaVuSans-20" transform="translate(446.146484 0)"/>
      <use xlink:href="#DejaVuSans-28" transform="translate(477.933594 0)"/>
      <use xlink:href="#DejaVuSans-50" transform="translate(516.947266 0)"/>
      <use xlink:href="#DejaVuSans-6f" transform="translate(573.625 0)"/>
      <use xlink:href="#DejaVuSans-73" transform="translate(634.806641 0)"/>
      <use xlink:href="#DejaVuSans-69" transform="translate(686.90625 0)"/>
      <use xlink:href="#DejaVuSans-74" transform="translate(714.689453 0)"/>
      <use xlink:href="#DejaVuSans-69" transform="translate(753.898438 0)"/>
      <use xlink:href="#DejaVuSans-76" transform="translate(781.681641 0)"/>
      <use xlink:href="#DejaVuSans-65" transform="translate(840.861328 0)"/>
      <use xlink:href="#DejaVuSans-20" transform="translate(902.384766 0)"/>
      <use xlink:href="#DejaVuSans-6c" transform="translate(934.171875 0)"/>
      <use xlink:href="#DejaVuSans-61" transform="translate(961.955078 0)"/>
      <use xlink:href="#DejaVuSans-62" transform="translate(1023.234375 0)"/>
      <use xlink:href="#DejaVuSans-65" transform="translate(1086.710938 0)"/>
      <use xlink:href="#DejaVuSans-6c" transform="translate(1148.234375 0)"/>
      <use xlink:href="#DejaVuSans-3a" transform="translate(1176.017578 0)"/>
      <use xlink:href="#DejaVuSans-20" transform="translate(1209.708984 0)"/>
      <use xlink:href="#DejaVuSans-31" transform="translate(1241.496094 0)"/>
      <use xlink:href="#DejaVuSans-29" transform="translate(1305.119141 0)"/>
     </g>
    </g>
   </g>
   <g id="line2d_27">
    <path d="M 549.819608 211.354973 
L 549.819608 211.317972 
L 549.735588 211.328059 
L 548.559308 211.429196 
L 548.475288 211.456202 
L 548.475288 211.452836 
L 547.635089 211.55095 
L 547.551069 211.578017 
L 546.794889 211.679662 
L 546.710869 211.706776 
L 546.710869 211.703421 
L 545.87067 211.808806 
L 545.78665 211.835978 
L 544.86243 211.938539 
L 544.77841 211.965781 
L 543.68615 212.072657 
L 543.60213 212.099988 
L 542.761931 212.206412 
L 542.677911 212.2338 
L 542.677911 212.230465 
L 541.585651 212.331711 
L 541.501631 212.359196 
L 540.661432 212.466348 
L 540.577412 212.493891 
L 539.821232 212.597508 
L 539.737212 212.621778 
L 539.737212 212.615136 
L 538.897012 212.712899 
L 538.812993 212.740558 
L 538.812993 212.733924 
L 537.972793 212.838648 
L 537.888773 212.866371 
L 537.048573 212.964788 
L 536.964553 212.989268 
L 536.040334 213.095338 
L 535.956314 213.123198 
L 534.780034 213.22869 
L 534.696014 213.25666 
L 533.939835 213.355449 
L 533.855815 213.383471 
L 532.931595 213.484256 
L 532.847575 213.509064 
L 531.923355 213.613574 
L 531.839335 213.641751 
L 531.839335 213.628602 
L 530.999136 213.735852 
L 530.915116 213.764098 
L 530.158936 213.867349 
L 530.074916 213.895647 
L 530.074916 213.892372 
L 529.318737 213.99259 
L 529.234717 214.020944 
L 529.234717 214.011138 
L 528.394517 214.109497 
L 528.310497 214.137925 
L 527.470297 214.246419 
L 527.386277 214.271652 
L 526.462058 214.378485 
L 526.378038 214.400548 
L 525.453818 214.501328 
L 525.369798 214.526732 
L 524.361559 214.629348 
L 524.277539 214.654851 
L 524.277539 214.651602 
L 523.185279 214.752969 
L 523.101259 214.781833 
L 523.101259 214.768837 
L 522.26106 214.879419 
L 522.17704 214.908356 
L 521.33684 215.012797 
L 521.25282 215.041803 
L 521.25282 215.035327 
L 520.49664 215.141769 
L 520.41262 215.167602 
L 519.656441 215.271068 
L 519.572421 215.293743 
L 519.572421 215.287293 
L 518.732221 215.395971 
L 518.648201 215.425169 
L 517.808001 215.524557 
L 517.723981 215.553829 
L 517.723981 215.544186 
L 516.883782 215.653603 
L 516.799762 215.682949 
L 516.799762 215.673322 
L 516.043582 215.771609 
L 515.959562 215.801024 
L 515.959562 215.788205 
L 515.203383 215.886798 
L 515.119363 215.903482 
L 514.363183 216.002381 
L 514.279163 216.031936 
L 513.522983 216.140693 
L 513.438963 216.16393 
L 512.598764 216.262328 
L 512.514744 216.288838 
L 511.758564 216.385482 
L 511.674544 216.412065 
L 510.918364 216.509018 
L 510.834344 216.538845 
L 510.834344 216.529329 
L 510.078165 216.639271 
L 509.994145 216.669162 
L 509.994145 216.659667 
L 509.237965 216.766724 
L 509.153945 216.790364 
L 508.313745 216.900102 
L 508.229725 216.930137 
L 508.229725 216.923831 
L 507.389526 217.030817 
L 507.305506 217.060932 
L 507.305506 217.057785 
L 506.465306 217.162032 
L 506.381286 217.192227 
L 506.381286 217.189085 
L 505.541087 217.296886 
L 505.457067 217.32716 
L 504.532847 217.425483 
L 504.448827 217.443323 
L 503.776667 217.540357 
L 503.692647 217.570792 
L 503.692647 217.567665 
L 502.768428 217.673204 
L 502.684408 217.703737 
L 502.012248 217.804455 
L 501.928228 217.825696 
L 501.088029 217.932405 
L 501.004009 217.963078 
L 500.247829 218.064157 
L 500.163809 218.094898 
L 499.071549 218.195963 
L 498.987529 218.223737 
L 498.987529 218.220634 
L 498.23135 218.325689 
L 498.14733 218.356637 
L 497.47517 218.452686 
L 497.39115 218.477516 
L 497.39115 218.474427 
L 496.71899 218.570727 
L 496.63497 218.601798 
L 496.63497 218.589467 
L 495.962811 218.686025 
L 495.878791 218.707933 
L 495.038591 218.805222 
L 494.954571 218.836459 
L 494.954571 218.811857 
L 494.198391 218.918568 
L 494.114371 218.940682 
L 494.114371 218.93761 
L 493.358192 219.047735 
L 493.274172 219.076072 
L 492.517992 219.17734 
L 492.433972 219.208817 
L 492.433972 219.187407 
L 491.677793 219.298227 
L 491.593773 219.329788 
L 491.593773 219.299241 
L 490.837593 219.404338 
L 490.753573 219.423791 
L 490.753573 219.420739 
L 490.081413 219.522531 
L 489.997393 219.548168 
L 489.997393 219.545123 
L 489.073174 219.646217 
L 488.989154 219.678063 
L 488.989154 219.671978 
L 488.148954 219.782057 
L 488.064934 219.813997 
L 487.392774 219.91679 
L 487.308754 219.948789 
L 486.468555 220.05971 
L 486.384535 220.091799 
L 485.712375 220.189133 
L 485.628355 220.221287 
L 485.628355 220.218274 
L 484.620116 220.320168 
L 484.536096 220.346436 
L 483.611876 220.447976 
L 483.527856 220.480392 
L 482.855696 220.581932 
L 482.771676 220.614411 
L 482.099517 220.725187 
L 482.015497 220.757721 
L 481.343337 220.853788 
L 481.259317 220.883408 
L 481.259317 220.877442 
L 480.587157 220.973811 
L 480.503137 220.994581 
L 480.503137 220.991602 
L 479.746958 221.089796 
L 479.662938 221.122575 
L 479.662938 221.101754 
L 478.990778 221.20476 
L 478.906758 221.228716 
L 478.906758 221.222777 
L 478.150578 221.333656 
L 478.066558 221.363645 
L 477.394399 221.46135 
L 477.310379 221.485509 
L 477.310379 221.482554 
L 476.554199 221.585323 
L 476.470179 221.612544 
L 476.470179 221.600739 
L 475.713999 221.701007 
L 475.629979 221.731286 
L 475.629979 221.725393 
L 474.95782 221.827106 
L 474.8738 221.860408 
L 474.8738 221.854529 
L 474.0336 221.960579 
L 473.94958 221.993992 
L 473.10938 222.088888 
L 473.02536 222.116559 
L 472.101141 222.220101 
L 472.017121 222.247915 
L 471.260941 222.350609 
L 471.176921 222.384376 
L 471.176921 222.372686 
L 470.504761 222.47643 
L 470.420742 222.501532 
L 470.420742 222.498615 
L 469.748582 222.608499 
L 469.748582 222.625459 
L 469.748582 222.608002 
L 469.664562 222.622064 
L 468.908382 222.720224 
L 468.824362 222.745551 
L 468.068183 222.850004 
L 467.984163 222.878351 
L 467.984163 222.875451 
L 467.143963 222.971431 
L 467.059943 223.00571 
L 466.135723 223.110853 
L 466.051703 223.139487 
L 465.379544 223.23988 
L 465.379544 223.25713 
L 465.379544 223.23691 
L 465.295524 223.248394 
L 464.623364 223.34629 
L 464.539344 223.372252 
L 463.867184 223.470515 
L 463.783164 223.490831 
L 462.690905 223.587375 
L 462.606885 223.622295 
L 462.606885 223.610768 
L 461.934725 223.718761 
L 461.850705 223.750894 
L 461.850705 223.74802 
L 460.842466 223.846198 
L 460.758446 223.881393 
L 460.002266 223.98505 
L 459.918246 224.020351 
L 459.246086 224.124002 
L 459.162066 224.153669 
L 459.162066 224.15081 
L 458.405887 224.246882 
L 458.321867 224.276681 
L 458.321867 224.270971 
L 457.481667 224.371161 
L 457.397647 224.403967 
L 457.397647 224.386844 
L 456.641467 224.495536 
L 456.557447 224.531322 
L 456.557447 224.517077 
L 455.717248 224.618654 
L 455.633228 224.640359 
L 454.961068 224.746437 
L 454.877048 224.776799 
L 454.204888 224.877589 
L 454.120868 224.908064 
L 453.280669 225.008742 
L 453.196649 225.045033 
L 452.356449 225.152122 
L 452.272429 225.182908 
L 452.272429 225.180084 
L 451.60027 225.273943 
L 451.51625 225.302034 
L 451.51625 225.287932 
L 450.92811 225.392105 
L 450.84409 225.41468 
L 450.08791 225.508114 
L 450.00389 225.54209 
L 449.33173 225.642956 
L 449.247711 225.677041 
L 448.659571 225.771039 
L 448.575551 225.802423 
L 448.575551 225.79963 
L 447.903391 225.901319 
L 447.819371 225.938396 
L 447.819371 225.932825 
L 447.147211 226.0294 
L 447.063191 226.063812 
L 446.391032 226.163631 
L 446.307012 226.200928 
L 446.307012 226.198157 
L 445.718872 226.293572 
L 445.634852 226.330953 
L 445.634852 226.328191 
L 444.710632 226.438241 
L 444.710632 226.457023 
L 444.710632 226.432162 
L 444.626612 226.44267 
L 443.954453 226.549613 
L 443.870433 226.58732 
L 443.870433 226.584564 
L 443.198273 226.689201 
L 443.114253 226.724268 
L 443.114253 226.72152 
L 442.190034 226.823175 
L 442.106014 226.855703 
L 441.349834 226.958681 
L 441.265814 226.994108 
L 441.265814 226.991367 
L 440.677674 227.089589 
L 440.593654 227.125116 
L 439.921494 227.2183 
L 439.837475 227.25396 
L 439.837475 227.245782 
L 439.081295 227.342435 
L 438.997275 227.37282 
L 438.997275 227.367372 
L 438.073055 227.476265 
L 437.989035 227.512318 
L 437.989035 227.509596 
L 437.148836 227.613751 
L 437.064816 227.652715 
L 436.476676 227.745316 
L 436.392656 227.776248 
L 436.392656 227.765401 
L 435.804516 227.858417 
L 435.720496 227.892194 
L 435.720496 227.889488 
L 434.880297 227.99596 
L 434.796277 228.024534 
L 434.796277 228.019127 
L 434.208137 228.115874 
L 434.124117 228.144593 
L 434.124117 228.139199 
L 433.535977 228.241736 
L 433.451957 228.27866 
L 433.451957 228.273285 
L 432.863817 228.376181 
L 432.779798 228.407861 
L 432.779798 228.399822 
L 432.023618 228.497472 
L 431.939598 228.537377 
L 431.939598 228.534702 
L 431.267438 228.634517 
L 431.183418 228.661215 
L 431.183418 228.658544 
L 430.511258 228.756312 
L 430.427239 228.796516 
L 430.427239 228.793852 
L 429.839099 228.895999 
L 429.755079 228.930997 
L 429.755079 228.928343 
L 429.166939 229.03088 
L 429.082919 229.055423 
L 429.082919 229.052776 
L 428.578799 229.151313 
L 428.578799 229.171564 
L 428.578799 229.147814 
L 428.494779 229.162805 
L 427.90664 229.260867 
L 427.82262 229.30152 
L 427.82262 229.293626 
L 427.23448 229.389492 
L 427.15046 229.427644 
L 427.15046 229.42502 
L 426.56232 229.521327 
L 426.4783 229.556992 
L 425.80614 229.658596 
L 425.72212 229.699641 
L 425.72212 229.689211 
L 425.133981 229.786505 
L 425.049961 229.825079 
L 425.049961 229.809474 
L 424.377801 229.907132 
L 424.293781 229.9407 
L 424.293781 229.919908 
L 423.453581 230.01046 
L 423.369561 230.049509 
L 423.369561 230.044306 
L 422.865442 230.13817 
L 422.781422 230.179913 
L 422.781422 230.161768 
L 422.193282 230.258759 
L 422.109262 230.298067 
L 422.109262 230.27737 
L 421.605142 230.374535 
L 421.605142 230.395537 
L 421.605142 230.372304 
L 421.521122 230.390746 
L 420.932983 230.499002 
L 420.848963 230.533443 
L 420.260823 230.629305 
L 420.176803 230.669035 
L 420.176803 230.658781 
L 419.588663 230.760286 
L 419.504643 230.802718 
L 419.504643 230.792499 
L 418.916503 230.884299 
L 418.832483 230.914141 
L 418.076304 231.005963 
L 418.076304 231.027379 
L 418.076304 231.001862 
L 417.992284 231.015645 
L 417.404144 231.126639 
L 417.320124 231.156929 
L 417.320124 231.141656 
L 416.647964 231.24427 
L 416.563944 231.287492 
L 416.563944 231.249345 
L 415.891785 231.350249 
L 415.807765 231.378468 
L 415.807765 231.373381 
L 415.219625 231.476133 
L 415.135605 231.519765 
L 415.135605 231.517232 
L 414.547465 231.625558 
L 414.463445 231.666795 
L 414.463445 231.659228 
L 413.875306 231.75045 
L 413.791286 231.794379 
L 413.791286 231.791865 
L 412.783046 231.890993 
L 412.699026 231.927763 
L 412.699026 231.922721 
L 412.110886 232.020735 
L 412.026866 232.062724 
L 412.026866 232.057699 
L 411.522747 232.154057 
L 411.438727 232.186164 
L 410.598527 232.290048 
L 410.514507 232.332487 
L 409.926367 232.422591 
L 409.842347 232.450244 
L 409.842347 232.447746 
L 409.170188 232.541259 
L 409.086168 232.584145 
L 409.086168 232.57916 
L 408.498028 232.675734 
L 408.414008 232.718808 
L 408.414008 232.716324 
L 407.741848 232.819076 
L 407.657828 232.857424 
L 406.901648 232.9569 
L 406.817629 233.002974 
L 406.817629 233.0005 
L 406.313509 233.088683 
L 406.229489 233.134896 
L 405.725369 233.24072 
L 405.641349 233.274785 
L 405.641349 233.269882 
L 405.053209 233.379774 
L 404.969189 233.423833 
L 404.38105 233.534348 
L 404.29703 233.573723 
L 404.29703 233.568866 
L 403.79291 233.659056 
L 403.70889 233.696199 
L 403.70889 233.691358 
L 403.20477 233.782056 
L 403.12075 233.814575 
L 403.12075 233.790412 
L 402.61663 233.881688 
L 402.53261 233.912032 
L 402.53261 233.90962 
L 401.944471 234.020314 
L 401.860451 234.06773 
L 401.860451 234.050922 
L 400.684171 234.15888 
L 400.600151 234.206964 
L 400.600151 234.194889 
L 400.012011 234.288831 
L 399.927991 234.32993 
L 399.339852 234.427122 
L 399.339852 234.451393 
L 399.339852 234.408058 
L 399.255832 234.432385 
L 398.583672 234.523626 
L 398.499652 234.555721 
L 398.499652 234.5509 
L 397.995532 234.637484 
L 397.911512 234.665028 
L 397.911512 234.662622 
L 397.071313 234.755007 
L 397.071313 234.779844 
L 397.071313 234.753283 
L 396.987293 234.761237 
L 396.399153 234.850501 
L 396.315133 234.898125 
L 396.315133 234.895712 
L 395.726993 234.988343 
L 395.726993 235.013487 
L 395.726993 234.967633 
L 395.642973 234.990424 
L 395.222873 235.079299 
L 395.138853 235.129823 
L 395.138853 235.110585 
L 394.634734 235.205981 
L 394.550714 235.254331 
L 394.550714 235.244746 
L 393.794534 235.331074 
L 393.710514 235.360677 
L 393.710514 235.358273 
L 393.290414 235.456116 
L 393.206394 235.502709 
L 393.206394 235.50032 
L 392.618255 235.592803 
L 392.534235 235.630169 
L 392.534235 235.623013 
L 391.862075 235.72349 
L 391.778055 235.770788 
L 391.273935 235.863172 
L 391.189915 235.915445 
L 390.685795 236.00144 
L 390.601775 236.053936 
L 390.601775 236.044498 
L 390.013636 236.150576 
L 390.013636 236.176963 
L 390.013636 236.143973 
L 389.929616 236.168055 
L 389.425496 236.258125 
L 389.341476 236.297135 
L 389.341476 236.292432 
L 388.921376 236.387128 
L 388.837356 236.435733 
L 388.837356 236.426382 
L 388.417256 236.514478 
L 388.333236 236.567937 
L 388.333236 236.544666 
L 387.829117 236.632215 
L 387.745097 236.685982 
L 387.745097 236.683662 
L 387.324997 236.779758 
L 387.240977 236.833656 
L 387.240977 236.822134 
L 386.736857 236.922692 
L 386.736857 236.949759 
L 386.736857 236.922174 
L 386.652837 236.94929 
L 386.064697 237.034314 
L 385.980677 237.079721 
L 385.980677 237.070534 
L 385.392538 237.163743 
L 385.308518 237.214147 
L 385.308518 237.200388 
L 384.888418 237.299153 
L 384.804398 237.342933 
L 384.804398 237.329241 
L 384.132238 237.427434 
L 384.048218 237.480854 
L 384.048218 237.478574 
L 383.208019 237.570812 
L 383.208019 237.599014 
L 383.208019 237.557706 
L 383.123999 237.581389 
L 382.619879 237.66804 
L 382.535859 237.711163 
L 381.947719 237.811429 
L 381.863699 237.861861 
L 381.863699 237.850433 
L 381.443599 237.947025 
L 381.359579 237.99545 
L 381.359579 237.959013 
L 380.77144 238.043594 
L 380.68742 238.099427 
L 380.1833 238.197306 
L 380.09928 238.255716 
L 379.67918 238.354633 
L 379.59516 238.40872 
L 379.17506 238.492485 
L 379.09104 238.549076 
L 379.09104 238.540139 
L 378.58692 238.6341 
L 378.502901 238.693287 
L 378.502901 238.68439 
L 377.746721 238.779945 
L 377.662701 238.830971 
L 377.662701 238.801925 
L 377.158581 238.907817 
L 377.074561 238.968203 
L 377.074561 238.954856 
L 376.486421 239.03891 
L 376.486421 239.069392 
L 376.486421 239.013515 
L 376.402401 239.041877 
L 376.066322 239.124841 
L 375.982302 239.183954 
L 375.982302 239.172839 
L 375.562202 239.264765 
L 375.478182 239.306497 
L 375.478182 239.290982 
L 375.058082 239.390396 
L 374.974062 239.452386 
L 374.469942 239.544125 
L 374.385922 239.575828 
L 374.385922 239.564834 
L 373.965822 239.661667 
L 373.881802 239.711375 
L 373.461703 239.804643 
L 373.377683 239.850404 
L 373.377683 239.841703 
L 373.041603 239.925823 
L 372.957583 239.989216 
L 372.957583 239.982743 
L 372.537483 240.062475 
L 372.453463 240.098286 
L 372.453463 240.076711 
L 372.033363 240.163973 
L 371.949343 240.198161 
L 371.949343 240.193849 
L 371.361204 240.282382 
L 371.277184 240.332408 
L 371.277184 240.325936 
L 370.857084 240.409259 
L 370.773064 240.446886 
L 370.773064 240.436112 
L 370.268944 240.514843 
L 370.184924 240.581151 
L 369.680804 240.668068 
L 369.596784 240.730642 
L 369.596784 240.713493 
L 369.260704 240.796951 
L 369.176684 240.864111 
L 369.176684 240.823593 
L 368.756585 240.926607 
L 368.672565 240.990033 
L 368.672565 240.97518 
L 368.252465 241.053807 
L 368.168445 241.109325 
L 368.168445 241.107209 
L 367.748345 241.191318 
L 367.664325 241.245287 
L 367.664325 241.236856 
L 367.328245 241.338081 
L 367.244225 241.390353 
L 367.244225 241.358956 
L 366.908145 241.444099 
L 366.824125 241.50314 
L 366.404026 241.5823 
L 366.320006 241.652273 
L 366.320006 241.614952 
L 365.815886 241.718401 
L 365.731866 241.774701 
L 365.731866 241.772631 
L 365.395786 241.858462 
L 365.311766 241.925476 
L 365.311766 241.896713 
L 364.975686 241.985362 
L 364.891666 242.036506 
L 364.891666 242.030373 
L 364.471566 242.115006 
L 364.387547 242.185187 
L 363.967447 242.265225 
L 363.883427 242.327913 
L 363.883427 242.309697 
L 363.547347 242.397098 
L 363.463327 242.470331 
L 363.463327 242.458295 
L 362.959207 242.550118 
L 362.959207 242.587157 
L 362.959207 242.520628 
L 362.875187 242.53764 
L 362.371067 242.646098 
L 362.287047 242.721473 
L 362.287047 242.711402 
L 361.950968 242.804677 
L 361.866948 242.872434 
L 361.866948 242.868446 
L 361.446848 242.950919 
L 361.362828 243.023418 
L 361.362828 243.013502 
L 361.026748 243.089016 
L 360.942728 243.158134 
L 360.942728 243.124565 
L 360.690668 243.201906 
L 360.606648 243.273445 
L 360.606648 243.271489 
L 360.270568 243.37423 
L 360.186548 243.446159 
L 360.186548 243.424911 
L 359.850468 243.534226 
L 359.766448 243.604729 
L 359.766448 243.556857 
L 359.262329 243.656241 
L 359.178309 243.731934 
L 359.178309 243.720446 
L 358.842229 243.82484 
L 358.758209 243.891541 
L 358.758209 243.876393 
L 358.254089 243.977487 
L 358.170069 244.053026 
L 358.170069 244.037922 
L 357.833989 244.130113 
L 357.749969 244.193219 
L 357.749969 244.176345 
L 357.32987 244.270011 
L 357.24585 244.336152 
L 357.24585 244.334285 
L 356.90977 244.423877 
L 356.82575 244.479744 
L 356.82575 244.472331 
L 356.40565 244.572374 
L 356.32163 244.635033 
L 356.32163 244.633191 
L 355.90153 244.717423 
L 355.81751 244.777727 
L 355.39741 244.877632 
L 355.31339 244.962959 
L 355.31339 244.957506 
L 354.977311 245.05067 
L 354.893291 245.133084 
L 354.893291 245.120519 
L 354.641231 245.201444 
L 354.557211 245.259543 
L 354.557211 245.255988 
L 354.305151 245.328745 
L 354.221131 245.415872 
L 354.221131 245.40361 
L 353.969071 245.475321 
L 353.885051 245.559517 
L 353.885051 245.531796 
L 353.464951 245.635948 
L 353.380931 245.68887 
L 353.380931 245.687138 
L 352.960831 245.787813 
L 352.876811 245.835593 
L 352.876811 245.804322 
L 352.624752 245.870125 
L 352.540732 245.958881 
L 352.540732 245.934751 
L 352.036612 246.025441 
L 351.952592 246.116684 
L 351.952592 246.104589 
L 351.616512 246.169036 
L 351.532492 246.266962 
L 351.532492 246.251509 
L 351.112392 246.323598 
L 351.028372 246.410004 
L 351.028372 246.408285 
L 350.776312 246.495137 
L 350.692292 246.572297 
L 350.692292 246.562143 
L 350.440232 246.650073 
L 350.356212 246.750037 
L 350.356212 246.698384 
L 349.936113 246.778965 
L 349.852093 246.85178 
L 349.852093 246.848412 
L 349.600033 246.935412 
L 349.600033 246.988246 
L 349.600033 246.926433 
L 349.516013 246.961331 
L 349.263953 247.050164 
L 349.179933 247.119776 
L 349.179933 247.047665 
L 348.759833 247.134417 
L 348.675813 247.232956 
L 348.675813 247.187017 
L 348.507773 247.243601 
L 348.423753 247.351853 
L 348.423753 247.348509 
L 348.171693 247.448882 
L 348.087673 247.551441 
L 347.835614 247.649712 
L 347.751594 247.743901 
L 347.751594 247.707246 
L 347.415514 247.778199 
L 347.331494 247.891738 
L 347.331494 247.879032 
L 346.995414 247.971112 
L 346.911394 248.087319 
L 346.911394 248.059088 
L 346.659334 248.115289 
L 346.659334 248.176976 
L 346.659334 248.112106 
L 346.575314 248.131476 
L 346.407274 248.194496 
L 346.323254 248.320653 
L 346.323254 248.2894 
L 346.155214 248.351365 
L 346.071194 248.46488 
L 346.071194 248.454188 
L 345.903154 248.518154 
L 345.819134 248.644733 
L 345.819134 248.628471 
L 345.651094 248.68693 
L 345.567075 248.795774 
L 345.567075 248.772609 
L 345.399035 248.820446 
L 345.315015 248.924438 
L 345.315015 248.913031 
L 345.146975 248.964941 
L 345.062955 249.05308 
L 345.062955 249.033321 
L 344.894915 249.089481 
L 344.810895 249.211035 
L 344.810895 249.114367 
L 344.642855 249.17815 
L 344.558835 249.315972 
L 344.558835 249.309114 
L 344.390795 249.378918 
L 344.306775 249.497688 
L 344.306775 249.468461 
L 344.054715 249.518971 
L 343.970695 249.657756 
L 343.970695 249.652514 
L 343.802655 249.725477 
L 343.718635 249.820127 
L 343.718635 249.816305 
L 343.466575 249.908924 
L 343.382555 250.035746 
L 343.382555 250.029599 
L 343.214516 250.099931 
L 343.130496 250.224022 
L 342.962456 250.26664 
L 342.878436 250.419959 
L 342.878436 250.414368 
L 342.626376 250.506578 
L 342.626376 250.587166 
L 342.626376 250.479421 
L 342.542356 250.555208 
L 342.374316 250.633709 
L 342.290296 250.791865 
L 342.290296 250.759954 
L 342.122256 250.843661 
L 342.038236 250.971982 
L 342.038236 250.950589 
L 341.870196 250.996656 
L 341.786176 251.155842 
L 341.786176 251.078698 
L 341.618136 251.148833 
L 341.534116 251.275402 
L 341.534116 251.254406 
L 341.366076 251.326625 
L 341.282056 251.464051 
L 341.282056 251.451545 
L 341.114016 251.55418 
L 341.029996 251.720515 
L 341.029996 251.677356 
L 340.945976 251.677356 
L 340.861957 251.896865 
L 340.861957 251.893701 
L 340.777937 251.893701 
L 340.693917 252.066894 
L 340.693917 252.05512 
L 340.609897 252.05512 
L 340.525877 252.251617 
L 340.525877 252.208717 
L 340.441857 252.208717 
L 340.357837 252.456772 
L 340.357837 252.453958 
L 340.273817 252.453958 
L 340.189797 252.662447 
L 340.189797 252.590435 
L 340.105777 252.590435 
L 340.021757 252.898868 
L 340.021757 252.884658 
L 339.937737 252.884658 
L 339.853717 253.189181 
L 339.853717 253.166608 
L 339.769697 253.166608 
L 339.769697 253.364955 
L 339.769697 43.315045 
L 339.769697 43.315045 
" clip-path="url(#p2e86c20929)" style="fill: none; stroke: #1f77b4; stroke-width: 1.5; stroke-linecap: square"/>
   </g>
   <g id="patch_9">
    <path d="M 337.669198 255.465455 
L 337.669198 41.214545 
" style="fill: none; stroke: #000000; stroke-width: 0.8; stroke-linejoin: miter; stroke-linecap: square"/>
   </g>
   <g id="patch_10">
    <path d="M 551.920107 255.465455 
L 551.920107 41.214545 
" style="fill: none; stroke: #000000; stroke-width: 0.8; stroke-linejoin: miter; stroke-linecap: square"/>
   </g>
   <g id="patch_11">
    <path d="M 337.669198 255.465455 
L 551.920107 255.465455 
" style="fill: none; stroke: #000000; stroke-width: 0.8; stroke-linejoin: miter; stroke-linecap: square"/>
   </g>
   <g id="patch_12">
    <path d="M 337.669198 41.214545 
L 551.920107 41.214545 
" style="fill: none; stroke: #000000; stroke-width: 0.8; stroke-linejoin: miter; stroke-linecap: square"/>
   </g>
   <g id="text_31">
    <!-- Precision-Recall Curve -->
    <g transform="translate(378.352152 35.214545) scale(0.12 -0.12)">
     <defs>
      <path id="DejaVuSans-2d" d="M 313 2009 
L 1997 2009 
L 1997 1497 
L 313 1497 
L 313 2009 
z
" transform="scale(0.015625)"/>
     </defs>
     <use xlink:href="#DejaVuSans-50"/>
     <use xlink:href="#DejaVuSans-72" transform="translate(58.552734 0)"/>
     <use xlink:href="#DejaVuSans-65" transform="translate(97.416016 0)"/>
     <use xlink:href="#DejaVuSans-63" transform="translate(158.939453 0)"/>
     <use xlink:href="#DejaVuSans-69" transform="translate(213.919922 0)"/>
     <use xlink:href="#DejaVuSans-73" transform="translate(241.703125 0)"/>
     <use xlink:href="#DejaVuSans-69" transform="translate(293.802734 0)"/>
     <use xlink:href="#DejaVuSans-6f" transform="translate(321.585938 0)"/>
     <use xlink:href="#DejaVuSans-6e" transform="translate(382.767578 0)"/>
     <use xlink:href="#DejaVuSans-2d" transform="translate(446.146484 0)"/>
     <use xlink:href="#DejaVuSans-52" transform="translate(482.230469 0)"/>
     <use xlink:href="#DejaVuSans-65" transform="translate(547.212891 0)"/>
     <use xlink:href="#DejaVuSans-63" transform="translate(608.736328 0)"/>
     <use xlink:href="#DejaVuSans-61" transform="translate(663.716797 0)"/>
     <use xlink:href="#DejaVuSans-6c" transform="translate(724.996094 0)"/>
     <use xlink:href="#DejaVuSans-6c" transform="translate(752.779297 0)"/>
     <use xlink:href="#DejaVuSans-20" transform="translate(780.5625 0)"/>
     <use xlink:href="#DejaVuSans-43" transform="translate(812.349609 0)"/>
     <use xlink:href="#DejaVuSans-75" transform="translate(882.173828 0)"/>
     <use xlink:href="#DejaVuSans-72" transform="translate(945.552734 0)"/>
     <use xlink:href="#DejaVuSans-76" transform="translate(986.666016 0)"/>
     <use xlink:href="#DejaVuSans-65" transform="translate(1045.845703 0)"/>
    </g>
   </g>
   <g id="legend_2">
    <g id="patch_13">
     <path d="M 344.669198 250.465455 
L 483.17076 250.465455 
Q 485.17076 250.465455 485.17076 248.465455 
L 485.17076 234.78733 
Q 485.17076 232.78733 483.17076 232.78733 
L 344.669198 232.78733 
Q 342.669198 232.78733 342.669198 234.78733 
L 342.669198 248.465455 
Q 342.669198 250.465455 344.669198 250.465455 
z
" style="fill: #ffffff; opacity: 0.8; stroke: #cccccc; stroke-linejoin: miter"/>
    </g>
    <g id="line2d_28">
     <path d="M 346.669198 240.885767 
L 356.669198 240.885767 
L 356.669198 240.885767 
L 366.669198 240.885767 
L 366.669198 240.885767 
" style="fill: none; stroke: #1f77b4; stroke-width: 1.5; stroke-linecap: square"/>
    </g>
    <g id="text_32">
     <!-- Classifier (AP = 0.12) -->
     <g transform="translate(374.669198 244.385767) scale(0.1 -0.1)">
      <use xlink:href="#DejaVuSans-43"/>
      <use xlink:href="#DejaVuSans-6c" transform="translate(69.824219 0)"/>
      <use xlink:href="#DejaVuSans-61" transform="translate(97.607422 0)"/>
      <use xlink:href="#DejaVuSans-73" transform="translate(158.886719 0)"/>
      <use xlink:href="#DejaVuSans-73" transform="translate(210.986328 0)"/>
      <use xlink:href="#DejaVuSans-69" transform="translate(263.085938 0)"/>
      <use xlink:href="#DejaVuSans-66" transform="translate(290.869141 0)"/>
      <use xlink:href="#DejaVuSans-69" transform="translate(326.074219 0)"/>
      <use xlink:href="#DejaVuSans-65" transform="translate(353.857422 0)"/>
      <use xlink:href="#DejaVuSans-72" transform="translate(415.380859 0)"/>
      <use xlink:href="#DejaVuSans-20" transform="translate(456.494141 0)"/>
      <use xlink:href="#DejaVuSans-28" transform="translate(488.28125 0)"/>
      <use xlink:href="#DejaVuSans-41" transform="translate(527.294922 0)"/>
      <use xlink:href="#DejaVuSans-50" transform="translate(595.703125 0)"/>
      <use xlink:href="#DejaVuSans-20" transform="translate(656.005859 0)"/>
      <use xlink:href="#DejaVuSans-3d" transform="translate(687.792969 0)"/>
      <use xlink:href="#DejaVuSans-20" transform="translate(771.582031 0)"/>
      <use xlink:href="#DejaVuSans-30" transform="translate(803.369141 0)"/>
      <use xlink:href="#DejaVuSans-2e" transform="translate(866.992188 0)"/>
      <use xlink:href="#DejaVuSans-31" transform="translate(898.779297 0)"/>
      <use xlink:href="#DejaVuSans-32" transform="translate(962.402344 0)"/>
      <use xlink:href="#DejaVuSans-29" transform="translate(1026.025391 0)"/>
     </g>
    </g>
   </g>
  </g>
  <g id="text_33">
   <!-- OOD detection performance -->
   <g transform="translate(203.355938 14.878125) scale(0.12 -0.12)">
    <defs>
     <path id="DejaVuSans-44" d="M 1259 4147 
L 1259 519 
L 2022 519 
Q 2988 519 3436 956 
Q 3884 1394 3884 2338 
Q 3884 3275 3436 3711 
Q 2988 4147 2022 4147 
L 1259 4147 
z
M 628 4666 
L 1925 4666 
Q 3281 4666 3915 4102 
Q 4550 3538 4550 2338 
Q 4550 1131 3912 565 
Q 3275 0 1925 0 
L 628 0 
L 628 4666 
z
" transform="scale(0.015625)"/>
     <path id="DejaVuSans-64" d="M 2906 2969 
L 2906 4863 
L 3481 4863 
L 3481 0 
L 2906 0 
L 2906 525 
Q 2725 213 2448 61 
Q 2172 -91 1784 -91 
Q 1150 -91 751 415 
Q 353 922 353 1747 
Q 353 2572 751 3078 
Q 1150 3584 1784 3584 
Q 2172 3584 2448 3432 
Q 2725 3281 2906 2969 
z
M 947 1747 
Q 947 1113 1208 752 
Q 1469 391 1925 391 
Q 2381 391 2643 752 
Q 2906 1113 2906 1747 
Q 2906 2381 2643 2742 
Q 2381 3103 1925 3103 
Q 1469 3103 1208 2742 
Q 947 2381 947 1747 
z
" transform="scale(0.015625)"/>
     <path id="DejaVuSans-70" d="M 1159 525 
L 1159 -1331 
L 581 -1331 
L 581 3500 
L 1159 3500 
L 1159 2969 
Q 1341 3281 1617 3432 
Q 1894 3584 2278 3584 
Q 2916 3584 3314 3078 
Q 3713 2572 3713 1747 
Q 3713 922 3314 415 
Q 2916 -91 2278 -91 
Q 1894 -91 1617 61 
Q 1341 213 1159 525 
z
M 3116 1747 
Q 3116 2381 2855 2742 
Q 2594 3103 2138 3103 
Q 1681 3103 1420 2742 
Q 1159 2381 1159 1747 
Q 1159 1113 1420 752 
Q 1681 391 2138 391 
Q 2594 391 2855 752 
Q 3116 1113 3116 1747 
z
" transform="scale(0.015625)"/>
     <path id="DejaVuSans-6d" d="M 3328 2828 
Q 3544 3216 3844 3400 
Q 4144 3584 4550 3584 
Q 5097 3584 5394 3201 
Q 5691 2819 5691 2113 
L 5691 0 
L 5113 0 
L 5113 2094 
Q 5113 2597 4934 2840 
Q 4756 3084 4391 3084 
Q 3944 3084 3684 2787 
Q 3425 2491 3425 1978 
L 3425 0 
L 2847 0 
L 2847 2094 
Q 2847 2600 2669 2842 
Q 2491 3084 2119 3084 
Q 1678 3084 1418 2786 
Q 1159 2488 1159 1978 
L 1159 0 
L 581 0 
L 581 3500 
L 1159 3500 
L 1159 2956 
Q 1356 3278 1631 3431 
Q 1906 3584 2284 3584 
Q 2666 3584 2933 3390 
Q 3200 3197 3328 2828 
z
" transform="scale(0.015625)"/>
    </defs>
    <use xlink:href="#DejaVuSans-4f"/>
    <use xlink:href="#DejaVuSans-4f" transform="translate(78.710938 0)"/>
    <use xlink:href="#DejaVuSans-44" transform="translate(157.421875 0)"/>
    <use xlink:href="#DejaVuSans-20" transform="translate(234.423828 0)"/>
    <use xlink:href="#DejaVuSans-64" transform="translate(266.210938 0)"/>
    <use xlink:href="#DejaVuSans-65" transform="translate(329.6875 0)"/>
    <use xlink:href="#DejaVuSans-74" transform="translate(391.210938 0)"/>
    <use xlink:href="#DejaVuSans-65" transform="translate(430.419922 0)"/>
    <use xlink:href="#DejaVuSans-63" transform="translate(491.943359 0)"/>
    <use xlink:href="#DejaVuSans-74" transform="translate(546.923828 0)"/>
    <use xlink:href="#DejaVuSans-69" transform="translate(586.132812 0)"/>
    <use xlink:href="#DejaVuSans-6f" transform="translate(613.916016 0)"/>
    <use xlink:href="#DejaVuSans-6e" transform="translate(675.097656 0)"/>
    <use xlink:href="#DejaVuSans-20" transform="translate(738.476562 0)"/>
    <use xlink:href="#DejaVuSans-70" transform="translate(770.263672 0)"/>
    <use xlink:href="#DejaVuSans-65" transform="translate(833.740234 0)"/>
    <use xlink:href="#DejaVuSans-72" transform="translate(895.263672 0)"/>
    <use xlink:href="#DejaVuSans-66" transform="translate(936.376953 0)"/>
    <use xlink:href="#DejaVuSans-6f" transform="translate(971.582031 0)"/>
    <use xlink:href="#DejaVuSans-72" transform="translate(1032.763672 0)"/>
    <use xlink:href="#DejaVuSans-6d" transform="translate(1072.126953 0)"/>
    <use xlink:href="#DejaVuSans-61" transform="translate(1169.539062 0)"/>
    <use xlink:href="#DejaVuSans-6e" transform="translate(1230.818359 0)"/>
    <use xlink:href="#DejaVuSans-63" transform="translate(1294.197266 0)"/>
    <use xlink:href="#DejaVuSans-65" transform="translate(1349.177734 0)"/>
   </g>
  </g>
 </g>
 <defs>
  <clipPath id="p70daa1a5eb">
   <rect x="55.069198" y="41.214545" width="214.250909" height="214.250909"/>
  </clipPath>
  <clipPath id="p2e86c20929">
   <rect x="337.669198" y="41.214545" width="214.250909" height="214.250909"/>
  </clipPath>
 </defs>
</svg>
