<?xml version="1.0" encoding="utf-8" standalone="no"?>
<!DOCTYPE svg PUBLIC "-//W3C//DTD SVG 1.1//EN"
  "http://www.w3.org/Graphics/SVG/1.1/DTD/svg11.dtd">
<svg xmlns:xlink="http://www.w3.org/1999/xlink" width="576pt" height="288pt" viewBox="0 0 576 288" xmlns="http://www.w3.org/2000/svg" version="1.1">
 <metadata>
  <rdf:RDF xmlns:dc="http://purl.org/dc/elements/1.1/" xmlns:cc="http://creativecommons.org/ns#" xmlns:rdf="http://www.w3.org/1999/02/22-rdf-syntax-ns#">
   <cc:Work>
    <dc:type rdf:resource="http://purl.org/dc/dcmitype/StillImage"/>
    <dc:date>2025-05-30T23:34:13.172358</dc:date>
    <dc:format>image/svg+xml</dc:format>
    <dc:creator>
     <cc:Agent>
      <dc:title>Matplotlib v3.10.1, https://matplotlib.org/</dc:title>
     </cc:Agent>
    </dc:creator>
   </cc:Work>
  </rdf:RDF>
 </metadata>
 <defs>
  <style type="text/css">*{stroke-linejoin: round; stroke-linecap: butt}</style>
 </defs>
 <g id="figure_1">
  <g id="patch_1">
   <path d="M 0 288 
L 576 288 
L 576 0 
L 0 0 
z
" style="fill: #ffffff"/>
  </g>
  <g id="axes_1">
   <g id="patch_2">
    <path d="M 55.069198 255.465455 
L 269.320107 255.465455 
L 269.320107 41.214545 
L 55.069198 41.214545 
z
" style="fill: #ffffff"/>
   </g>
   <g id="matplotlib.axis_1">
    <g id="xtick_1">
     <g id="line2d_1">
      <defs>
       <path id="m276ab8c5ab" d="M 0 0 
L 0 3.5 
" style="stroke: #000000; stroke-width: 0.8"/>
      </defs>
      <g>
       <use xlink:href="#m276ab8c5ab" x="57.169697" y="255.465455" style="stroke: #000000; stroke-width: 0.8"/>
      </g>
     </g>
     <g id="text_1">
      <!-- 0.0 -->
      <g transform="translate(49.218134 270.063892) scale(0.1 -0.1)">
       <defs>
        <path id="DejaVuSans-30" d="M 2034 4250 
Q 1547 4250 1301 3770 
Q 1056 3291 1056 2328 
Q 1056 1369 1301 889 
Q 1547 409 2034 409 
Q 2525 409 2770 889 
Q 3016 1369 3016 2328 
Q 3016 3291 2770 3770 
Q 2525 4250 2034 4250 
z
M 2034 4750 
Q 2819 4750 3233 4129 
Q 3647 3509 3647 2328 
Q 3647 1150 3233 529 
Q 2819 -91 2034 -91 
Q 1250 -91 836 529 
Q 422 1150 422 2328 
Q 422 3509 836 4129 
Q 1250 4750 2034 4750 
z
" transform="scale(0.015625)"/>
        <path id="DejaVuSans-2e" d="M 684 794 
L 1344 794 
L 1344 0 
L 684 0 
L 684 794 
z
" transform="scale(0.015625)"/>
       </defs>
       <use xlink:href="#DejaVuSans-30"/>
       <use xlink:href="#DejaVuSans-2e" transform="translate(63.623047 0)"/>
       <use xlink:href="#DejaVuSans-30" transform="translate(95.410156 0)"/>
      </g>
     </g>
    </g>
    <g id="xtick_2">
     <g id="line2d_2">
      <g>
       <use xlink:href="#m276ab8c5ab" x="99.179679" y="255.465455" style="stroke: #000000; stroke-width: 0.8"/>
      </g>
     </g>
     <g id="text_2">
      <!-- 0.2 -->
      <g transform="translate(91.228117 270.063892) scale(0.1 -0.1)">
       <defs>
        <path id="DejaVuSans-32" d="M 1228 531 
L 3431 531 
L 3431 0 
L 469 0 
L 469 531 
Q 828 903 1448 1529 
Q 2069 2156 2228 2338 
Q 2531 2678 2651 2914 
Q 2772 3150 2772 3378 
Q 2772 3750 2511 3984 
Q 2250 4219 1831 4219 
Q 1534 4219 1204 4116 
Q 875 4013 500 3803 
L 500 4441 
Q 881 4594 1212 4672 
Q 1544 4750 1819 4750 
Q 2544 4750 2975 4387 
Q 3406 4025 3406 3419 
Q 3406 3131 3298 2873 
Q 3191 2616 2906 2266 
Q 2828 2175 2409 1742 
Q 1991 1309 1228 531 
z
" transform="scale(0.015625)"/>
       </defs>
       <use xlink:href="#DejaVuSans-30"/>
       <use xlink:href="#DejaVuSans-2e" transform="translate(63.623047 0)"/>
       <use xlink:href="#DejaVuSans-32" transform="translate(95.410156 0)"/>
      </g>
     </g>
    </g>
    <g id="xtick_3">
     <g id="line2d_3">
      <g>
       <use xlink:href="#m276ab8c5ab" x="141.189661" y="255.465455" style="stroke: #000000; stroke-width: 0.8"/>
      </g>
     </g>
     <g id="text_3">
      <!-- 0.4 -->
      <g transform="translate(133.238099 270.063892) scale(0.1 -0.1)">
       <defs>
        <path id="DejaVuSans-34" d="M 2419 4116 
L 825 1625 
L 2419 1625 
L 2419 4116 
z
M 2253 4666 
L 3047 4666 
L 3047 1625 
L 3713 1625 
L 3713 1100 
L 3047 1100 
L 3047 0 
L 2419 0 
L 2419 1100 
L 313 1100 
L 313 1709 
L 2253 4666 
z
" transform="scale(0.015625)"/>
       </defs>
       <use xlink:href="#DejaVuSans-30"/>
       <use xlink:href="#DejaVuSans-2e" transform="translate(63.623047 0)"/>
       <use xlink:href="#DejaVuSans-34" transform="translate(95.410156 0)"/>
      </g>
     </g>
    </g>
    <g id="xtick_4">
     <g id="line2d_4">
      <g>
       <use xlink:href="#m276ab8c5ab" x="183.199643" y="255.465455" style="stroke: #000000; stroke-width: 0.8"/>
      </g>
     </g>
     <g id="text_4">
      <!-- 0.6 -->
      <g transform="translate(175.248081 270.063892) scale(0.1 -0.1)">
       <defs>
        <path id="DejaVuSans-36" d="M 2113 2584 
Q 1688 2584 1439 2293 
Q 1191 2003 1191 1497 
Q 1191 994 1439 701 
Q 1688 409 2113 409 
Q 2538 409 2786 701 
Q 3034 994 3034 1497 
Q 3034 2003 2786 2293 
Q 2538 2584 2113 2584 
z
M 3366 4563 
L 3366 3988 
Q 3128 4100 2886 4159 
Q 2644 4219 2406 4219 
Q 1781 4219 1451 3797 
Q 1122 3375 1075 2522 
Q 1259 2794 1537 2939 
Q 1816 3084 2150 3084 
Q 2853 3084 3261 2657 
Q 3669 2231 3669 1497 
Q 3669 778 3244 343 
Q 2819 -91 2113 -91 
Q 1303 -91 875 529 
Q 447 1150 447 2328 
Q 447 3434 972 4092 
Q 1497 4750 2381 4750 
Q 2619 4750 2861 4703 
Q 3103 4656 3366 4563 
z
" transform="scale(0.015625)"/>
       </defs>
       <use xlink:href="#DejaVuSans-30"/>
       <use xlink:href="#DejaVuSans-2e" transform="translate(63.623047 0)"/>
       <use xlink:href="#DejaVuSans-36" transform="translate(95.410156 0)"/>
      </g>
     </g>
    </g>
    <g id="xtick_5">
     <g id="line2d_5">
      <g>
       <use xlink:href="#m276ab8c5ab" x="225.209626" y="255.465455" style="stroke: #000000; stroke-width: 0.8"/>
      </g>
     </g>
     <g id="text_5">
      <!-- 0.8 -->
      <g transform="translate(217.258063 270.063892) scale(0.1 -0.1)">
       <defs>
        <path id="DejaVuSans-38" d="M 2034 2216 
Q 1584 2216 1326 1975 
Q 1069 1734 1069 1313 
Q 1069 891 1326 650 
Q 1584 409 2034 409 
Q 2484 409 2743 651 
Q 3003 894 3003 1313 
Q 3003 1734 2745 1975 
Q 2488 2216 2034 2216 
z
M 1403 2484 
Q 997 2584 770 2862 
Q 544 3141 544 3541 
Q 544 4100 942 4425 
Q 1341 4750 2034 4750 
Q 2731 4750 3128 4425 
Q 3525 4100 3525 3541 
Q 3525 3141 3298 2862 
Q 3072 2584 2669 2484 
Q 3125 2378 3379 2068 
Q 3634 1759 3634 1313 
Q 3634 634 3220 271 
Q 2806 -91 2034 -91 
Q 1263 -91 848 271 
Q 434 634 434 1313 
Q 434 1759 690 2068 
Q 947 2378 1403 2484 
z
M 1172 3481 
Q 1172 3119 1398 2916 
Q 1625 2713 2034 2713 
Q 2441 2713 2670 2916 
Q 2900 3119 2900 3481 
Q 2900 3844 2670 4047 
Q 2441 4250 2034 4250 
Q 1625 4250 1398 4047 
Q 1172 3844 1172 3481 
z
" transform="scale(0.015625)"/>
       </defs>
       <use xlink:href="#DejaVuSans-30"/>
       <use xlink:href="#DejaVuSans-2e" transform="translate(63.623047 0)"/>
       <use xlink:href="#DejaVuSans-38" transform="translate(95.410156 0)"/>
      </g>
     </g>
    </g>
    <g id="xtick_6">
     <g id="line2d_6">
      <g>
       <use xlink:href="#m276ab8c5ab" x="267.219608" y="255.465455" style="stroke: #000000; stroke-width: 0.8"/>
      </g>
     </g>
     <g id="text_6">
      <!-- 1.0 -->
      <g transform="translate(259.268045 270.063892) scale(0.1 -0.1)">
       <defs>
        <path id="DejaVuSans-31" d="M 794 531 
L 1825 531 
L 1825 4091 
L 703 3866 
L 703 4441 
L 1819 4666 
L 2450 4666 
L 2450 531 
L 3481 531 
L 3481 0 
L 794 0 
L 794 531 
z
" transform="scale(0.015625)"/>
       </defs>
       <use xlink:href="#DejaVuSans-31"/>
       <use xlink:href="#DejaVuSans-2e" transform="translate(63.623047 0)"/>
       <use xlink:href="#DejaVuSans-30" transform="translate(95.410156 0)"/>
      </g>
     </g>
    </g>
    <g id="text_7">
     <!-- False Positive Rate (Positive label: 1) -->
     <g transform="translate(70.829027 283.742017) scale(0.1 -0.1)">
      <defs>
       <path id="DejaVuSans-46" d="M 628 4666 
L 3309 4666 
L 3309 4134 
L 1259 4134 
L 1259 2759 
L 3109 2759 
L 3109 2228 
L 1259 2228 
L 1259 0 
L 628 0 
L 628 4666 
z
" transform="scale(0.015625)"/>
       <path id="DejaVuSans-61" d="M 2194 1759 
Q 1497 1759 1228 1600 
Q 959 1441 959 1056 
Q 959 750 1161 570 
Q 1363 391 1709 391 
Q 2188 391 2477 730 
Q 2766 1069 2766 1631 
L 2766 1759 
L 2194 1759 
z
M 3341 1997 
L 3341 0 
L 2766 0 
L 2766 531 
Q 2569 213 2275 61 
Q 1981 -91 1556 -91 
Q 1019 -91 701 211 
Q 384 513 384 1019 
Q 384 1609 779 1909 
Q 1175 2209 1959 2209 
L 2766 2209 
L 2766 2266 
Q 2766 2663 2505 2880 
Q 2244 3097 1772 3097 
Q 1472 3097 1187 3025 
Q 903 2953 641 2809 
L 641 3341 
Q 956 3463 1253 3523 
Q 1550 3584 1831 3584 
Q 2591 3584 2966 3190 
Q 3341 2797 3341 1997 
z
" transform="scale(0.015625)"/>
       <path id="DejaVuSans-6c" d="M 603 4863 
L 1178 4863 
L 1178 0 
L 603 0 
L 603 4863 
z
" transform="scale(0.015625)"/>
       <path id="DejaVuSans-73" d="M 2834 3397 
L 2834 2853 
Q 2591 2978 2328 3040 
Q 2066 3103 1784 3103 
Q 1356 3103 1142 2972 
Q 928 2841 928 2578 
Q 928 2378 1081 2264 
Q 1234 2150 1697 2047 
L 1894 2003 
Q 2506 1872 2764 1633 
Q 3022 1394 3022 966 
Q 3022 478 2636 193 
Q 2250 -91 1575 -91 
Q 1294 -91 989 -36 
Q 684 19 347 128 
L 347 722 
Q 666 556 975 473 
Q 1284 391 1588 391 
Q 1994 391 2212 530 
Q 2431 669 2431 922 
Q 2431 1156 2273 1281 
Q 2116 1406 1581 1522 
L 1381 1569 
Q 847 1681 609 1914 
Q 372 2147 372 2553 
Q 372 3047 722 3315 
Q 1072 3584 1716 3584 
Q 2034 3584 2315 3537 
Q 2597 3491 2834 3397 
z
" transform="scale(0.015625)"/>
       <path id="DejaVuSans-65" d="M 3597 1894 
L 3597 1613 
L 953 1613 
Q 991 1019 1311 708 
Q 1631 397 2203 397 
Q 2534 397 2845 478 
Q 3156 559 3463 722 
L 3463 178 
Q 3153 47 2828 -22 
Q 2503 -91 2169 -91 
Q 1331 -91 842 396 
Q 353 884 353 1716 
Q 353 2575 817 3079 
Q 1281 3584 2069 3584 
Q 2775 3584 3186 3129 
Q 3597 2675 3597 1894 
z
M 3022 2063 
Q 3016 2534 2758 2815 
Q 2500 3097 2075 3097 
Q 1594 3097 1305 2825 
Q 1016 2553 972 2059 
L 3022 2063 
z
" transform="scale(0.015625)"/>
       <path id="DejaVuSans-20" transform="scale(0.015625)"/>
       <path id="DejaVuSans-50" d="M 1259 4147 
L 1259 2394 
L 2053 2394 
Q 2494 2394 2734 2622 
Q 2975 2850 2975 3272 
Q 2975 3691 2734 3919 
Q 2494 4147 2053 4147 
L 1259 4147 
z
M 628 4666 
L 2053 4666 
Q 2838 4666 3239 4311 
Q 3641 3956 3641 3272 
Q 3641 2581 3239 2228 
Q 2838 1875 2053 1875 
L 1259 1875 
L 1259 0 
L 628 0 
L 628 4666 
z
" transform="scale(0.015625)"/>
       <path id="DejaVuSans-6f" d="M 1959 3097 
Q 1497 3097 1228 2736 
Q 959 2375 959 1747 
Q 959 1119 1226 758 
Q 1494 397 1959 397 
Q 2419 397 2687 759 
Q 2956 1122 2956 1747 
Q 2956 2369 2687 2733 
Q 2419 3097 1959 3097 
z
M 1959 3584 
Q 2709 3584 3137 3096 
Q 3566 2609 3566 1747 
Q 3566 888 3137 398 
Q 2709 -91 1959 -91 
Q 1206 -91 779 398 
Q 353 888 353 1747 
Q 353 2609 779 3096 
Q 1206 3584 1959 3584 
z
" transform="scale(0.015625)"/>
       <path id="DejaVuSans-69" d="M 603 3500 
L 1178 3500 
L 1178 0 
L 603 0 
L 603 3500 
z
M 603 4863 
L 1178 4863 
L 1178 4134 
L 603 4134 
L 603 4863 
z
" transform="scale(0.015625)"/>
       <path id="DejaVuSans-74" d="M 1172 4494 
L 1172 3500 
L 2356 3500 
L 2356 3053 
L 1172 3053 
L 1172 1153 
Q 1172 725 1289 603 
Q 1406 481 1766 481 
L 2356 481 
L 2356 0 
L 1766 0 
Q 1100 0 847 248 
Q 594 497 594 1153 
L 594 3053 
L 172 3053 
L 172 3500 
L 594 3500 
L 594 4494 
L 1172 4494 
z
" transform="scale(0.015625)"/>
       <path id="DejaVuSans-76" d="M 191 3500 
L 800 3500 
L 1894 563 
L 2988 3500 
L 3597 3500 
L 2284 0 
L 1503 0 
L 191 3500 
z
" transform="scale(0.015625)"/>
       <path id="DejaVuSans-52" d="M 2841 2188 
Q 3044 2119 3236 1894 
Q 3428 1669 3622 1275 
L 4263 0 
L 3584 0 
L 2988 1197 
Q 2756 1666 2539 1819 
Q 2322 1972 1947 1972 
L 1259 1972 
L 1259 0 
L 628 0 
L 628 4666 
L 2053 4666 
Q 2853 4666 3247 4331 
Q 3641 3997 3641 3322 
Q 3641 2881 3436 2590 
Q 3231 2300 2841 2188 
z
M 1259 4147 
L 1259 2491 
L 2053 2491 
Q 2509 2491 2742 2702 
Q 2975 2913 2975 3322 
Q 2975 3731 2742 3939 
Q 2509 4147 2053 4147 
L 1259 4147 
z
" transform="scale(0.015625)"/>
       <path id="DejaVuSans-28" d="M 1984 4856 
Q 1566 4138 1362 3434 
Q 1159 2731 1159 2009 
Q 1159 1288 1364 580 
Q 1569 -128 1984 -844 
L 1484 -844 
Q 1016 -109 783 600 
Q 550 1309 550 2009 
Q 550 2706 781 3412 
Q 1013 4119 1484 4856 
L 1984 4856 
z
" transform="scale(0.015625)"/>
       <path id="DejaVuSans-62" d="M 3116 1747 
Q 3116 2381 2855 2742 
Q 2594 3103 2138 3103 
Q 1681 3103 1420 2742 
Q 1159 2381 1159 1747 
Q 1159 1113 1420 752 
Q 1681 391 2138 391 
Q 2594 391 2855 752 
Q 3116 1113 3116 1747 
z
M 1159 2969 
Q 1341 3281 1617 3432 
Q 1894 3584 2278 3584 
Q 2916 3584 3314 3078 
Q 3713 2572 3713 1747 
Q 3713 922 3314 415 
Q 2916 -91 2278 -91 
Q 1894 -91 1617 61 
Q 1341 213 1159 525 
L 1159 0 
L 581 0 
L 581 4863 
L 1159 4863 
L 1159 2969 
z
" transform="scale(0.015625)"/>
       <path id="DejaVuSans-3a" d="M 750 794 
L 1409 794 
L 1409 0 
L 750 0 
L 750 794 
z
M 750 3309 
L 1409 3309 
L 1409 2516 
L 750 2516 
L 750 3309 
z
" transform="scale(0.015625)"/>
       <path id="DejaVuSans-29" d="M 513 4856 
L 1013 4856 
Q 1481 4119 1714 3412 
Q 1947 2706 1947 2009 
Q 1947 1309 1714 600 
Q 1481 -109 1013 -844 
L 513 -844 
Q 928 -128 1133 580 
Q 1338 1288 1338 2009 
Q 1338 2731 1133 3434 
Q 928 4138 513 4856 
z
" transform="scale(0.015625)"/>
      </defs>
      <use xlink:href="#DejaVuSans-46"/>
      <use xlink:href="#DejaVuSans-61" transform="translate(48.394531 0)"/>
      <use xlink:href="#DejaVuSans-6c" transform="translate(109.673828 0)"/>
      <use xlink:href="#DejaVuSans-73" transform="translate(137.457031 0)"/>
      <use xlink:href="#DejaVuSans-65" transform="translate(189.556641 0)"/>
      <use xlink:href="#DejaVuSans-20" transform="translate(251.080078 0)"/>
      <use xlink:href="#DejaVuSans-50" transform="translate(282.867188 0)"/>
      <use xlink:href="#DejaVuSans-6f" transform="translate(339.544922 0)"/>
      <use xlink:href="#DejaVuSans-73" transform="translate(400.726562 0)"/>
      <use xlink:href="#DejaVuSans-69" transform="translate(452.826172 0)"/>
      <use xlink:href="#DejaVuSans-74" transform="translate(480.609375 0)"/>
      <use xlink:href="#DejaVuSans-69" transform="translate(519.818359 0)"/>
      <use xlink:href="#DejaVuSans-76" transform="translate(547.601562 0)"/>
      <use xlink:href="#DejaVuSans-65" transform="translate(606.78125 0)"/>
      <use xlink:href="#DejaVuSans-20" transform="translate(668.304688 0)"/>
      <use xlink:href="#DejaVuSans-52" transform="translate(700.091797 0)"/>
      <use xlink:href="#DejaVuSans-61" transform="translate(767.324219 0)"/>
      <use xlink:href="#DejaVuSans-74" transform="translate(828.603516 0)"/>
      <use xlink:href="#DejaVuSans-65" transform="translate(867.8125 0)"/>
      <use xlink:href="#DejaVuSans-20" transform="translate(929.335938 0)"/>
      <use xlink:href="#DejaVuSans-28" transform="translate(961.123047 0)"/>
      <use xlink:href="#DejaVuSans-50" transform="translate(1000.136719 0)"/>
      <use xlink:href="#DejaVuSans-6f" transform="translate(1056.814453 0)"/>
      <use xlink:href="#DejaVuSans-73" transform="translate(1117.996094 0)"/>
      <use xlink:href="#DejaVuSans-69" transform="translate(1170.095703 0)"/>
      <use xlink:href="#DejaVuSans-74" transform="translate(1197.878906 0)"/>
      <use xlink:href="#DejaVuSans-69" transform="translate(1237.087891 0)"/>
      <use xlink:href="#DejaVuSans-76" transform="translate(1264.871094 0)"/>
      <use xlink:href="#DejaVuSans-65" transform="translate(1324.050781 0)"/>
      <use xlink:href="#DejaVuSans-20" transform="translate(1385.574219 0)"/>
      <use xlink:href="#DejaVuSans-6c" transform="translate(1417.361328 0)"/>
      <use xlink:href="#DejaVuSans-61" transform="translate(1445.144531 0)"/>
      <use xlink:href="#DejaVuSans-62" transform="translate(1506.423828 0)"/>
      <use xlink:href="#DejaVuSans-65" transform="translate(1569.900391 0)"/>
      <use xlink:href="#DejaVuSans-6c" transform="translate(1631.423828 0)"/>
      <use xlink:href="#DejaVuSans-3a" transform="translate(1659.207031 0)"/>
      <use xlink:href="#DejaVuSans-20" transform="translate(1692.898438 0)"/>
      <use xlink:href="#DejaVuSans-31" transform="translate(1724.685547 0)"/>
      <use xlink:href="#DejaVuSans-29" transform="translate(1788.308594 0)"/>
     </g>
    </g>
   </g>
   <g id="matplotlib.axis_2">
    <g id="ytick_1">
     <g id="line2d_7">
      <defs>
       <path id="m1948d39214" d="M 0 0 
L -3.5 0 
" style="stroke: #000000; stroke-width: 0.8"/>
      </defs>
      <g>
       <use xlink:href="#m1948d39214" x="55.069198" y="253.364955" style="stroke: #000000; stroke-width: 0.8"/>
      </g>
     </g>
     <g id="text_8">
      <!-- 0.0 -->
      <g transform="translate(32.166073 257.164174) scale(0.1 -0.1)">
       <use xlink:href="#DejaVuSans-30"/>
       <use xlink:href="#DejaVuSans-2e" transform="translate(63.623047 0)"/>
       <use xlink:href="#DejaVuSans-30" transform="translate(95.410156 0)"/>
      </g>
     </g>
    </g>
    <g id="ytick_2">
     <g id="line2d_8">
      <g>
       <use xlink:href="#m1948d39214" x="55.069198" y="211.354973" style="stroke: #000000; stroke-width: 0.8"/>
      </g>
     </g>
     <g id="text_9">
      <!-- 0.2 -->
      <g transform="translate(32.166073 215.154192) scale(0.1 -0.1)">
       <use xlink:href="#DejaVuSans-30"/>
       <use xlink:href="#DejaVuSans-2e" transform="translate(63.623047 0)"/>
       <use xlink:href="#DejaVuSans-32" transform="translate(95.410156 0)"/>
      </g>
     </g>
    </g>
    <g id="ytick_3">
     <g id="line2d_9">
      <g>
       <use xlink:href="#m1948d39214" x="55.069198" y="169.344991" style="stroke: #000000; stroke-width: 0.8"/>
      </g>
     </g>
     <g id="text_10">
      <!-- 0.4 -->
      <g transform="translate(32.166073 173.14421) scale(0.1 -0.1)">
       <use xlink:href="#DejaVuSans-30"/>
       <use xlink:href="#DejaVuSans-2e" transform="translate(63.623047 0)"/>
       <use xlink:href="#DejaVuSans-34" transform="translate(95.410156 0)"/>
      </g>
     </g>
    </g>
    <g id="ytick_4">
     <g id="line2d_10">
      <g>
       <use xlink:href="#m1948d39214" x="55.069198" y="127.335009" style="stroke: #000000; stroke-width: 0.8"/>
      </g>
     </g>
     <g id="text_11">
      <!-- 0.6 -->
      <g transform="translate(32.166073 131.134228) scale(0.1 -0.1)">
       <use xlink:href="#DejaVuSans-30"/>
       <use xlink:href="#DejaVuSans-2e" transform="translate(63.623047 0)"/>
       <use xlink:href="#DejaVuSans-36" transform="translate(95.410156 0)"/>
      </g>
     </g>
    </g>
    <g id="ytick_5">
     <g id="line2d_11">
      <g>
       <use xlink:href="#m1948d39214" x="55.069198" y="85.325027" style="stroke: #000000; stroke-width: 0.8"/>
      </g>
     </g>
     <g id="text_12">
      <!-- 0.8 -->
      <g transform="translate(32.166073 89.124245) scale(0.1 -0.1)">
       <use xlink:href="#DejaVuSans-30"/>
       <use xlink:href="#DejaVuSans-2e" transform="translate(63.623047 0)"/>
       <use xlink:href="#DejaVuSans-38" transform="translate(95.410156 0)"/>
      </g>
     </g>
    </g>
    <g id="ytick_6">
     <g id="line2d_12">
      <g>
       <use xlink:href="#m1948d39214" x="55.069198" y="43.315045" style="stroke: #000000; stroke-width: 0.8"/>
      </g>
     </g>
     <g id="text_13">
      <!-- 1.0 -->
      <g transform="translate(32.166073 47.114263) scale(0.1 -0.1)">
       <use xlink:href="#DejaVuSans-31"/>
       <use xlink:href="#DejaVuSans-2e" transform="translate(63.623047 0)"/>
       <use xlink:href="#DejaVuSans-30" transform="translate(95.410156 0)"/>
      </g>
     </g>
    </g>
    <g id="text_14">
     <!-- True Positive Rate (Positive label: 1) -->
     <g transform="translate(26.086385 237.768906) rotate(-90) scale(0.1 -0.1)">
      <defs>
       <path id="DejaVuSans-54" d="M -19 4666 
L 3928 4666 
L 3928 4134 
L 2272 4134 
L 2272 0 
L 1638 0 
L 1638 4134 
L -19 4134 
L -19 4666 
z
" transform="scale(0.015625)"/>
       <path id="DejaVuSans-72" d="M 2631 2963 
Q 2534 3019 2420 3045 
Q 2306 3072 2169 3072 
Q 1681 3072 1420 2755 
Q 1159 2438 1159 1844 
L 1159 0 
L 581 0 
L 581 3500 
L 1159 3500 
L 1159 2956 
Q 1341 3275 1631 3429 
Q 1922 3584 2338 3584 
Q 2397 3584 2469 3576 
Q 2541 3569 2628 3553 
L 2631 2963 
z
" transform="scale(0.015625)"/>
       <path id="DejaVuSans-75" d="M 544 1381 
L 544 3500 
L 1119 3500 
L 1119 1403 
Q 1119 906 1312 657 
Q 1506 409 1894 409 
Q 2359 409 2629 706 
Q 2900 1003 2900 1516 
L 2900 3500 
L 3475 3500 
L 3475 0 
L 2900 0 
L 2900 538 
Q 2691 219 2414 64 
Q 2138 -91 1772 -91 
Q 1169 -91 856 284 
Q 544 659 544 1381 
z
M 1991 3584 
L 1991 3584 
z
" transform="scale(0.015625)"/>
      </defs>
      <use xlink:href="#DejaVuSans-54"/>
      <use xlink:href="#DejaVuSans-72" transform="translate(46.333984 0)"/>
      <use xlink:href="#DejaVuSans-75" transform="translate(87.447266 0)"/>
      <use xlink:href="#DejaVuSans-65" transform="translate(150.826172 0)"/>
      <use xlink:href="#DejaVuSans-20" transform="translate(212.349609 0)"/>
      <use xlink:href="#DejaVuSans-50" transform="translate(244.136719 0)"/>
      <use xlink:href="#DejaVuSans-6f" transform="translate(300.814453 0)"/>
      <use xlink:href="#DejaVuSans-73" transform="translate(361.996094 0)"/>
      <use xlink:href="#DejaVuSans-69" transform="translate(414.095703 0)"/>
      <use xlink:href="#DejaVuSans-74" transform="translate(441.878906 0)"/>
      <use xlink:href="#DejaVuSans-69" transform="translate(481.087891 0)"/>
      <use xlink:href="#DejaVuSans-76" transform="translate(508.871094 0)"/>
      <use xlink:href="#DejaVuSans-65" transform="translate(568.050781 0)"/>
      <use xlink:href="#DejaVuSans-20" transform="translate(629.574219 0)"/>
      <use xlink:href="#DejaVuSans-52" transform="translate(661.361328 0)"/>
      <use xlink:href="#DejaVuSans-61" transform="translate(728.59375 0)"/>
      <use xlink:href="#DejaVuSans-74" transform="translate(789.873047 0)"/>
      <use xlink:href="#DejaVuSans-65" transform="translate(829.082031 0)"/>
      <use xlink:href="#DejaVuSans-20" transform="translate(890.605469 0)"/>
      <use xlink:href="#DejaVuSans-28" transform="translate(922.392578 0)"/>
      <use xlink:href="#DejaVuSans-50" transform="translate(961.40625 0)"/>
      <use xlink:href="#DejaVuSans-6f" transform="translate(1018.083984 0)"/>
      <use xlink:href="#DejaVuSans-73" transform="translate(1079.265625 0)"/>
      <use xlink:href="#DejaVuSans-69" transform="translate(1131.365234 0)"/>
      <use xlink:href="#DejaVuSans-74" transform="translate(1159.148438 0)"/>
      <use xlink:href="#DejaVuSans-69" transform="translate(1198.357422 0)"/>
      <use xlink:href="#DejaVuSans-76" transform="translate(1226.140625 0)"/>
      <use xlink:href="#DejaVuSans-65" transform="translate(1285.320312 0)"/>
      <use xlink:href="#DejaVuSans-20" transform="translate(1346.84375 0)"/>
      <use xlink:href="#DejaVuSans-6c" transform="translate(1378.630859 0)"/>
      <use xlink:href="#DejaVuSans-61" transform="translate(1406.414062 0)"/>
      <use xlink:href="#DejaVuSans-62" transform="translate(1467.693359 0)"/>
      <use xlink:href="#DejaVuSans-65" transform="translate(1531.169922 0)"/>
      <use xlink:href="#DejaVuSans-6c" transform="translate(1592.693359 0)"/>
      <use xlink:href="#DejaVuSans-3a" transform="translate(1620.476562 0)"/>
      <use xlink:href="#DejaVuSans-20" transform="translate(1654.167969 0)"/>
      <use xlink:href="#DejaVuSans-31" transform="translate(1685.955078 0)"/>
      <use xlink:href="#DejaVuSans-29" transform="translate(1749.578125 0)"/>
     </g>
    </g>
   </g>
   <g id="line2d_13">
    <path d="M 57.169697 253.364955 
L 114.324278 253.280935 
L 114.324278 253.196916 
L 119.84859 253.112896 
L 119.84859 253.028876 
L 124.301648 252.944856 
L 124.301648 252.860836 
L 127.641442 252.776816 
L 127.641442 252.692796 
L 133.06073 252.608776 
L 133.06073 252.524756 
L 133.669875 252.440736 
L 133.669875 252.356716 
L 139.656297 252.272696 
L 139.656297 252.104656 
L 140.181422 252.020636 
L 140.181422 251.936616 
L 141.147651 251.852596 
L 141.210666 251.684556 
L 141.588756 251.600536 
L 141.588756 251.516516 
L 141.756796 251.432496 
L 141.756796 251.348476 
L 142.344936 251.264456 
L 142.344936 251.180436 
L 142.660011 251.180436 
L 142.660011 251.012396 
L 143.143125 250.928376 
L 143.24815 250.676317 
L 143.605235 250.592297 
L 143.605235 250.508277 
L 143.941315 250.424257 
L 143.941315 250.340237 
L 145.47468 250.256217 
L 145.47468 250.172197 
L 147.428144 250.088177 
L 147.428144 250.004157 
L 149.801708 249.920137 
L 149.801708 249.836117 
L 150.242812 249.752097 
L 150.242812 249.668077 
L 151.293062 249.584057 
L 151.293062 249.500037 
L 151.881202 249.416017 
L 151.881202 249.331997 
L 152.343312 249.247977 
L 152.427332 248.995917 
L 152.952456 248.995917 
L 152.952456 248.827877 
L 153.162506 248.827877 
L 153.162506 248.659837 
L 153.351551 248.575817 
L 153.414566 248.407778 
L 154.359791 248.323758 
L 154.359791 248.239738 
L 154.94793 248.155718 
L 154.94793 248.071698 
L 155.15798 247.987678 
L 155.15798 247.903658 
L 155.41004 247.819638 
L 155.41004 247.735618 
L 156.355265 247.651598 
L 156.355265 247.567578 
L 156.523305 247.567578 
L 156.523305 247.399538 
L 157.069435 247.315518 
L 157.09044 247.147478 
L 157.384509 247.063458 
L 157.405514 246.895418 
L 157.657574 246.811398 
L 157.657574 246.727378 
L 158.161694 246.643358 
L 158.161694 246.559338 
L 158.665814 246.475318 
L 158.770839 246.139239 
L 158.854859 246.055219 
L 158.938879 245.887179 
L 159.169934 245.803159 
L 159.253954 245.635119 
L 159.358979 245.551099 
L 159.442999 245.383059 
L 159.653048 245.299039 
L 159.674053 245.130999 
L 159.905108 245.046979 
L 159.905108 244.962959 
L 160.913348 244.962959 
L 161.018373 244.626879 
L 161.522493 244.542859 
L 161.522493 244.458839 
L 162.761787 244.374819 
L 162.761787 244.290799 
L 163.223897 244.290799 
L 163.223897 244.122759 
L 163.559977 244.122759 
L 163.601987 243.870699 
L 163.791032 243.78668 
L 163.854047 243.61864 
L 164.043092 243.53462 
L 164.085102 243.36658 
L 164.148117 243.36658 
L 164.190127 243.36658 
L 164.274147 243.11452 
L 164.463191 243.0305 
L 164.547211 242.86246 
L 164.673241 242.77844 
L 164.715251 242.52638 
L 165.030326 242.52638 
L 165.072336 242.27432 
L 165.156356 242.27432 
L 165.198366 242.02226 
L 165.387411 241.93824 
L 165.429421 241.68618 
L 165.660476 241.60216 
L 165.765501 241.182061 
L 166.080576 241.182061 
L 166.080576 241.014021 
L 166.563691 240.930001 
L 166.647711 240.761961 
L 166.962785 240.677941 
L 167.046805 240.173821 
L 167.15183 240.089801 
L 167.256855 239.585681 
L 167.73997 239.501661 
L 167.802985 239.249601 
L 167.866 239.249601 
L 167.90801 238.997542 
L 168.391125 238.913522 
L 168.49615 238.577442 
L 168.727205 238.493422 
L 168.79022 238.241362 
L 168.979265 238.157342 
L 168.979265 238.073322 
L 169.504389 237.989302 
L 169.609414 237.737242 
L 169.798459 237.737242 
L 169.798459 237.569202 
L 170.344589 237.485182 
L 170.386599 237.317142 
L 170.575644 237.233122 
L 170.575644 237.065082 
L 170.743684 236.981062 
L 170.848709 236.729002 
L 170.932729 236.644983 
L 171.016749 236.392923 
L 171.184789 236.308903 
L 171.289814 236.140863 
L 171.373834 236.140863 
L 171.415843 235.804783 
L 171.625893 235.804783 
L 171.730918 235.468703 
L 172.024988 235.384683 
L 172.045993 235.216643 
L 172.529108 235.132623 
L 172.550113 234.964583 
L 172.781168 234.880563 
L 172.865188 234.628503 
L 172.949208 234.544483 
L 173.012223 234.208404 
L 173.138253 234.208404 
L 173.222273 233.872324 
L 173.411318 233.788304 
L 173.411318 233.704284 
L 173.579358 233.704284 
L 173.642373 233.452224 
L 173.768402 233.368204 
L 173.768402 233.284184 
L 174.041467 233.200164 
L 174.125487 232.864084 
L 174.251517 232.780064 
L 174.251517 232.696044 
L 174.713627 232.612024 
L 174.713627 232.443984 
L 174.986692 232.443984 
L 174.986692 232.275944 
L 175.616842 232.191924 
L 175.679857 231.939865 
L 175.763877 231.939865 
L 175.826892 231.519765 
L 175.973927 231.435745 
L 176.036942 231.099665 
L 176.267996 231.099665 
L 176.331011 230.763585 
L 176.478046 230.679565 
L 176.478046 230.511525 
L 176.814126 230.511525 
L 176.814126 230.343485 
L 176.982166 230.259465 
L 176.982166 230.175445 
L 177.192216 230.091425 
L 177.297241 229.923385 
L 177.360256 229.839365 
L 177.381261 229.587306 
L 177.612316 229.503286 
L 177.612316 229.419266 
L 177.843371 229.419266 
L 177.885381 229.083186 
L 178.116436 228.999166 
L 178.200456 228.411026 
L 178.347491 228.327006 
L 178.431511 228.074946 
L 178.59955 227.990926 
L 178.704575 227.654846 
L 178.8096 227.570826 
L 178.8096 227.486806 
L 179.14568 227.402786 
L 179.2297 226.898667 
L 179.502765 226.814647 
L 179.586785 226.562587 
L 179.754825 226.478567 
L 179.754825 226.310527 
L 180.006885 226.226507 
L 180.048895 225.974447 
L 180.258945 225.890427 
L 180.36397 225.134247 
L 180.637035 225.050227 
L 180.721055 224.882188 
L 180.82608 224.798168 
L 180.847084 224.462088 
L 181.036129 224.462088 
L 181.099144 224.041988 
L 181.204169 223.957968 
L 181.309194 223.789928 
L 181.393214 223.789928 
L 181.393214 223.621888 
L 181.519244 223.621888 
L 181.561254 223.201788 
L 182.086379 223.117768 
L 182.191404 222.613648 
L 182.212409 222.613648 
L 182.212409 222.361589 
L 182.401454 222.277569 
L 182.506479 221.773449 
L 182.716529 221.689429 
L 182.821554 221.353349 
L 182.842559 221.353349 
L 182.947584 221.017269 
L 183.199643 220.933249 
L 183.220648 220.681189 
L 183.514718 220.597169 
L 183.514718 220.513149 
L 183.913813 220.429129 
L 184.018838 219.75697 
L 184.102858 219.67295 
L 184.186878 219.50491 
L 184.291903 219.50491 
L 184.354918 219.08481 
L 184.564968 219.00079 
L 184.669993 218.58069 
L 184.754013 218.49667 
L 184.796023 218.16059 
L 185.027078 218.07657 
L 185.132103 217.572451 
L 185.153108 217.572451 
L 185.258133 217.068331 
L 185.363158 216.984311 
L 185.384163 216.732251 
L 185.615217 216.732251 
L 185.615217 216.564211 
L 185.783257 216.480191 
L 185.783257 215.976071 
L 186.245367 215.892051 
L 186.287377 215.303912 
L 186.518432 215.219892 
L 186.623457 214.799792 
L 186.707477 214.715772 
L 186.707477 214.631752 
L 186.854512 214.547732 
L 186.959537 213.791552 
L 187.001547 213.791552 
L 187.106572 213.539492 
L 187.295617 213.455472 
L 187.379637 212.951353 
L 187.484662 212.867333 
L 187.589687 212.531253 
L 187.631697 212.531253 
L 187.673707 212.195173 
L 187.820742 212.195173 
L 187.925766 211.775073 
L 188.072801 211.691053 
L 188.156821 211.438993 
L 188.240841 211.354973 
L 188.324861 211.102913 
L 188.450891 211.018893 
L 188.534911 210.766834 
L 188.723956 210.682814 
L 188.723956 210.598794 
L 188.955011 210.514774 
L 188.955011 210.262714 
L 189.186066 210.262714 
L 189.291091 209.926634 
L 189.333101 209.926634 
L 189.396116 209.674574 
L 189.480136 209.590554 
L 189.522146 209.338494 
L 189.711191 209.254474 
L 189.816216 209.086434 
L 189.837221 209.086434 
L 189.942246 208.414275 
L 190.005261 208.330255 
L 190.005261 208.078195 
L 190.131291 208.078195 
L 190.215311 207.658095 
L 190.362345 207.574075 
L 190.446365 207.153975 
L 190.488375 207.153975 
L 190.572395 206.565835 
L 190.992495 206.481815 
L 191.076515 205.473576 
L 191.160535 205.389556 
L 191.244555 205.053476 
L 191.328575 205.053476 
L 191.412595 204.381316 
L 191.47561 204.297296 
L 191.538625 204.045236 
L 191.64365 203.961216 
L 191.68566 203.793176 
L 192.02174 203.709157 
L 192.06375 203.457097 
L 192.210785 203.373077 
L 192.31581 203.121017 
L 192.39983 203.036997 
L 192.462845 202.868957 
L 192.651889 202.784937 
L 192.756914 202.364837 
L 192.861939 202.280817 
L 192.861939 202.028757 
L 192.966964 202.028757 
L 192.987969 201.944737 
L 193.135004 201.944737 
L 193.177014 201.692677 
L 193.303044 201.608657 
L 193.408069 201.020518 
L 193.576109 200.936498 
L 193.681134 200.684438 
L 193.870179 200.600418 
L 193.891184 200.180318 
L 194.038219 200.180318 
L 194.143244 199.508158 
L 194.206259 199.424138 
L 194.269274 199.004039 
L 194.353294 198.920019 
L 194.395304 198.751979 
L 194.815404 198.667959 
L 194.920429 197.659719 
L 194.941434 197.659719 
L 194.983443 197.323639 
L 195.130478 197.239619 
L 195.214498 196.735499 
L 195.340528 196.735499 
L 195.403543 196.39942 
L 195.676608 196.3154 
L 195.760628 195.81128 
L 195.949673 195.72726 
L 196.012688 195.4752 
L 196.159723 195.39118 
L 196.264748 195.13912 
L 196.369773 195.0551 
L 196.453793 194.635 
L 196.537813 194.55098 
L 196.621833 194.214901 
L 196.705853 194.214901 
L 196.810878 193.206661 
L 196.915903 193.122641 
L 196.936908 192.870581 
L 197.188968 192.786561 
L 197.188968 192.702541 
L 197.336002 192.702541 
L 197.441027 192.030381 
L 197.504042 191.946361 
L 197.609067 191.442242 
L 197.630072 191.442242 
L 197.735097 190.434002 
L 197.819117 190.349982 
L 197.903137 189.929882 
L 197.966152 189.929882 
L 198.071177 189.341743 
L 198.197207 189.257723 
L 198.281227 189.005663 
L 198.449267 188.921643 
L 198.554292 188.417523 
L 198.659317 188.417523 
L 198.764342 187.913403 
L 198.827357 187.829383 
L 198.932382 187.409283 
L 198.974392 187.325263 
L 199.079417 186.989184 
L 199.163437 186.989184 
L 199.247457 186.317024 
L 199.646552 186.233004 
L 199.751576 185.728884 
L 199.793586 185.644864 
L 199.856601 185.308784 
L 199.940621 185.308784 
L 200.024641 184.636625 
L 200.339716 184.552605 
L 200.360721 184.300545 
L 200.507756 184.300545 
L 200.591776 183.712405 
L 200.885846 183.628385 
L 200.990871 183.376325 
L 201.053886 183.292305 
L 201.116901 182.788185 
L 201.221926 182.704165 
L 201.326951 181.863966 
L 201.347956 181.863966 
L 201.452981 181.443866 
L 201.684036 181.359846 
L 201.789061 180.687686 
L 201.831071 180.687686 
L 201.915091 180.435626 
L 201.999111 180.435626 
L 201.999111 180.183566 
L 202.146145 180.183566 
L 202.25117 179.679447 
L 202.440215 179.595427 
L 202.54524 178.923267 
L 202.650265 178.839247 
L 202.71328 178.671207 
L 203.00735 178.671207 
L 203.09137 178.251107 
L 203.13338 178.251107 
L 203.2174 177.831007 
L 203.322425 177.746988 
L 203.38544 177.410908 
L 203.490465 177.326888 
L 203.574485 176.654728 
L 203.6375 176.570708 
L 203.72152 175.898548 
L 203.84755 175.814528 
L 203.952575 175.142369 
L 204.14162 175.058349 
L 204.246645 174.302169 
L 204.330665 174.218149 
L 204.435689 173.630009 
L 204.582724 173.545989 
L 204.666744 173.209909 
L 204.708754 173.209909 
L 204.771769 172.87383 
L 204.834784 172.87383 
L 204.918804 172.53775 
L 204.960814 172.53775 
L 205.065839 172.03363 
L 205.149859 171.94961 
L 205.212874 171.52951 
L 205.485939 171.44549 
L 205.548954 170.94137 
L 205.611969 170.94137 
L 205.716994 170.521271 
L 205.780009 170.521271 
L 205.885034 169.429011 
L 205.969054 169.344991 
L 206.074079 168.924891 
L 206.158099 168.924891 
L 206.179104 168.504791 
L 206.326139 168.420771 
L 206.410159 168.084692 
L 206.515184 168.000672 
L 206.515184 167.832632 
L 206.725234 167.748612 
L 206.725234 167.664592 
L 206.851263 167.664592 
L 206.914278 167.244492 
L 206.977293 167.244492 
L 207.082318 166.824392 
L 207.187343 166.824392 
L 207.250358 166.152232 
L 207.439403 166.152232 
L 207.523423 165.312033 
L 207.565433 165.312033 
L 207.565433 165.143993 
L 207.712468 165.059973 
L 207.817493 164.219773 
L 207.880508 164.135753 
L 207.964528 163.631634 
L 208.027543 163.547614 
L 208.069553 163.127514 
L 208.174578 163.043494 
L 208.279603 162.455354 
L 208.321613 162.371334 
L 208.405633 161.867214 
L 208.489653 161.783194 
L 208.594678 161.195055 
L 208.657693 161.195055 
L 208.720708 160.522895 
L 208.783723 160.522895 
L 208.867743 159.934755 
L 208.972768 159.850735 
L 209.056788 159.178575 
L 209.119802 159.094555 
L 209.224827 158.674456 
L 209.266837 158.590436 
L 209.287842 158.338376 
L 209.434877 158.254356 
L 209.539902 158.086316 
L 209.686937 158.002296 
L 209.728947 157.330136 
L 209.833972 157.246116 
L 209.896987 156.489937 
L 209.981007 156.405917 
L 210.086032 156.069837 
L 210.128042 156.069837 
L 210.212062 155.481697 
L 210.401107 155.397677 
L 210.443117 155.145617 
L 210.632162 155.061597 
L 210.737187 154.473457 
L 210.758192 154.473457 
L 210.821207 154.053358 
L 210.905227 153.969338 
L 211.010252 153.297178 
L 211.115277 153.213158 
L 211.220302 152.288938 
L 211.241307 152.288938 
L 211.346332 151.784819 
L 211.388342 151.700799 
L 211.430352 151.112659 
L 211.535376 151.112659 
L 211.577386 150.776579 
L 211.703416 150.692559 
L 211.724421 150.440499 
L 211.850451 150.356479 
L 211.871456 149.936379 
L 211.976481 149.936379 
L 212.081506 149.1802 
L 212.144521 149.1802 
L 212.228541 148.84412 
L 212.270551 148.84412 
L 212.333566 148.50804 
L 212.417586 148.42402 
L 212.480601 147.9199 
L 212.669646 147.83588 
L 212.732661 147.66784 
L 212.900701 147.58382 
L 213.005726 146.995681 
L 213.110751 146.911661 
L 213.152761 146.407541 
L 213.236781 146.407541 
L 213.341806 145.819401 
L 213.362811 145.819401 
L 213.467836 145.399301 
L 213.509846 145.399301 
L 213.509846 145.231261 
L 213.740901 145.147241 
L 213.82492 144.727142 
L 213.90894 144.727142 
L 213.929945 144.307042 
L 214.03497 144.307042 
L 214.11899 143.046742 
L 214.266025 142.962722 
L 214.37105 142.794682 
L 214.392055 142.794682 
L 214.49708 142.458602 
L 214.560095 142.374583 
L 214.62311 141.702423 
L 214.70713 141.618403 
L 214.812155 140.778203 
L 214.87517 140.694183 
L 214.87517 140.274083 
L 215.106225 140.190063 
L 215.21125 139.769964 
L 215.316275 139.685944 
L 215.37929 139.013784 
L 215.484315 139.013784 
L 215.484315 138.845744 
L 215.652355 138.761724 
L 215.67336 138.509664 
L 215.820395 138.509664 
L 215.92542 138.005544 
L 215.988435 138.005544 
L 216.09346 137.501425 
L 216.13547 137.501425 
L 216.198484 136.829265 
L 216.282504 136.745245 
L 216.345519 136.241125 
L 216.534564 136.157105 
L 216.639589 135.484945 
L 216.660594 135.484945 
L 216.744614 134.140626 
L 216.807629 134.056606 
L 216.891649 133.720526 
L 217.059689 133.636506 
L 217.164714 132.712287 
L 217.311749 132.628267 
L 217.416774 132.124147 
L 217.458784 132.040127 
L 217.563809 131.536007 
L 217.584814 131.536007 
L 217.668834 130.527768 
L 217.857879 130.443748 
L 217.899889 129.855608 
L 218.046924 129.771588 
L 218.130944 129.435508 
L 218.172954 129.435508 
L 218.235969 128.679328 
L 218.361999 128.679328 
L 218.467024 127.335009 
L 218.551043 127.250989 
L 218.635063 126.830889 
L 218.698078 126.746869 
L 218.782098 126.074709 
L 218.887123 125.990689 
L 218.992148 125.40255 
L 219.055163 125.31853 
L 219.160188 124.56235 
L 219.181193 124.56235 
L 219.286218 123.63813 
L 219.307223 123.63813 
L 219.370238 122.965971 
L 219.559283 122.965971 
L 219.559283 122.797931 
L 219.769333 122.713911 
L 219.874358 121.621651 
L 219.916368 121.621651 
L 220.000388 121.117532 
L 220.126418 121.033512 
L 220.231443 120.445372 
L 220.273453 120.361352 
L 220.273453 120.277332 
L 220.420488 120.193312 
L 220.483503 119.773212 
L 220.567523 119.689192 
L 220.672548 119.269092 
L 220.798578 119.185072 
L 220.840588 118.848993 
L 220.966617 118.764973 
L 221.008627 118.428893 
L 221.113652 118.428893 
L 221.218677 117.588693 
L 221.260687 117.504673 
L 221.323702 117.336633 
L 221.491742 117.252613 
L 221.575762 116.076334 
L 221.638777 115.992314 
L 221.743802 115.488194 
L 221.764807 115.488194 
L 221.806817 115.152114 
L 221.932847 115.068094 
L 222.037872 114.479954 
L 222.121892 114.395934 
L 222.226917 113.975835 
L 222.352947 113.891815 
L 222.436967 113.639755 
L 222.478977 113.639755 
L 222.584002 112.883575 
L 222.710032 112.799555 
L 222.794052 112.211415 
L 222.962092 112.127395 
L 223.067117 111.707296 
L 223.109127 111.623276 
L 223.193147 110.951116 
L 223.256161 110.951116 
L 223.361186 109.690816 
L 223.403196 109.606796 
L 223.466211 108.934637 
L 223.529226 108.934637 
L 223.613246 108.346497 
L 223.655256 108.346497 
L 223.760281 107.338257 
L 223.781286 107.338257 
L 223.844301 107.002178 
L 223.991336 106.918158 
L 224.075356 106.582078 
L 224.138371 106.582078 
L 224.243396 105.573838 
L 224.264401 105.573838 
L 224.369426 104.817658 
L 224.390431 104.817658 
L 224.495456 104.481579 
L 224.537466 104.481579 
L 224.642491 103.557359 
L 224.684501 103.473339 
L 224.747516 103.137259 
L 224.915556 103.053239 
L 224.978571 102.885199 
L 225.083596 102.885199 
L 225.188621 101.79294 
L 225.293646 101.70892 
L 225.398671 100.70068 
L 225.545706 100.61666 
L 225.629725 100.28058 
L 225.69274 100.28058 
L 225.797765 99.860481 
L 225.86078 99.776461 
L 225.965805 99.020281 
L 226.02882 99.020281 
L 226.133845 98.516161 
L 226.175855 98.516161 
L 226.175855 98.096061 
L 226.469925 98.012041 
L 226.57495 96.919782 
L 226.65897 96.919782 
L 226.763995 95.743502 
L 226.95304 95.659482 
L 227.058065 95.071343 
L 227.16309 94.987323 
L 227.24711 94.147123 
L 227.41515 94.063103 
L 227.520175 93.390943 
L 227.604195 93.306923 
L 227.688215 92.802804 
L 227.772235 92.718784 
L 227.814245 92.214664 
L 227.96128 92.130644 
L 228.066304 91.290444 
L 228.192334 91.206424 
L 228.276354 90.870344 
L 228.402384 90.786324 
L 228.444394 90.366225 
L 228.570424 90.282205 
L 228.612434 90.030145 
L 228.738464 89.946125 
L 228.843489 89.526025 
L 229.116554 89.526025 
L 229.200574 89.273965 
L 229.263589 89.189945 
L 229.368614 88.685825 
L 229.389619 88.685825 
L 229.494644 87.677586 
L 229.515649 87.677586 
L 229.578664 87.425526 
L 229.725699 87.341506 
L 229.830724 87.089446 
L 229.956754 87.089446 
L 230.040774 86.753366 
L 230.082784 86.753366 
L 230.187809 86.165226 
L 230.250824 86.165226 
L 230.334843 85.493067 
L 230.418863 85.409047 
L 230.502883 84.820907 
L 230.544893 84.820907 
L 230.607908 84.316787 
L 230.733938 84.232767 
L 230.838963 83.812667 
L 230.922983 83.728647 
L 231.028008 83.140508 
L 231.133033 83.056488 
L 231.133033 82.804428 
L 231.406098 82.720408 
L 231.511123 82.384328 
L 231.721173 82.300308 
L 231.826198 81.796188 
L 231.952228 81.712168 
L 232.057253 80.955989 
L 232.099263 80.955989 
L 232.120268 80.619909 
L 232.267303 80.535889 
L 232.330318 80.283829 
L 232.435343 80.283829 
L 232.540368 79.107549 
L 232.687402 79.023529 
L 232.792427 78.51941 
L 232.834437 78.43539 
L 232.897452 78.18333 
L 233.086497 78.18333 
L 233.086497 78.01529 
L 233.275542 77.93127 
L 233.317552 77.76323 
L 233.485592 77.67921 
L 233.590617 77.17509 
L 233.632627 77.09107 
L 233.737652 76.83901 
L 233.779662 76.75499 
L 233.884687 75.998811 
L 233.926697 75.998811 
L 234.031722 75.494691 
L 234.073732 75.410671 
L 234.178757 74.990571 
L 234.199762 74.990571 
L 234.199762 74.822531 
L 234.388807 74.738511 
L 234.493832 74.402431 
L 234.535842 74.402431 
L 234.598857 73.982332 
L 234.682877 73.898312 
L 234.682877 73.814292 
L 234.976947 73.814292 
L 234.976947 73.646252 
L 235.123981 73.646252 
L 235.229006 72.722032 
L 235.334031 72.638012 
L 235.376041 72.301932 
L 235.523076 72.301932 
L 235.607096 71.965852 
L 235.691116 71.965852 
L 235.775136 71.545753 
L 235.985186 71.461733 
L 236.090211 70.957613 
L 236.216241 70.957613 
L 236.300261 70.453493 
L 236.363276 70.453493 
L 236.447296 70.033393 
L 236.636341 69.949373 
L 236.720361 69.529273 
L 236.909406 69.445253 
L 236.993426 68.857114 
L 237.140461 68.773094 
L 237.245486 68.521034 
L 237.39252 68.437014 
L 237.497545 68.184954 
L 237.581565 68.100934 
L 237.581565 68.016914 
L 237.81262 68.016914 
L 237.917645 67.344754 
L 238.127695 67.260734 
L 238.19071 66.924655 
L 238.379755 66.840635 
L 238.44277 66.588575 
L 238.52679 66.588575 
L 238.589805 66.084455 
L 238.673825 66.084455 
L 238.673825 65.832395 
L 238.86287 65.748375 
L 238.967895 65.412295 
L 239.051915 65.412295 
L 239.051915 65.244255 
L 239.177945 65.244255 
L 239.28297 64.656116 
L 239.45101 64.656116 
L 239.556035 64.320036 
L 239.66106 64.236016 
L 239.766084 63.899936 
L 239.829099 63.899936 
L 239.871109 63.647876 
L 240.039149 63.563856 
L 240.123169 63.395816 
L 240.186184 63.395816 
L 240.186184 63.227776 
L 240.354224 63.143756 
L 240.354224 62.975716 
L 240.501259 62.891696 
L 240.606284 62.723656 
L 240.627289 62.723656 
L 240.627289 62.555616 
L 241.026384 62.555616 
L 241.110404 61.967477 
L 241.152414 61.967477 
L 241.236434 61.379337 
L 241.362464 61.295317 
L 241.425479 61.043257 
L 241.551509 60.959237 
L 241.656534 60.623157 
L 241.761559 60.539137 
L 241.866584 60.035017 
L 242.097639 59.950998 
L 242.139648 59.698938 
L 242.328693 59.614918 
L 242.412713 59.278838 
L 242.538743 59.194818 
L 242.538743 59.110798 
L 242.832813 59.026778 
L 242.895828 58.858738 
L 242.979848 58.858738 
L 242.979848 58.606678 
L 243.273918 58.522658 
L 243.378943 58.186578 
L 243.546983 58.102558 
L 243.652008 57.682458 
L 243.946078 57.598439 
L 244.051103 57.178339 
L 244.135123 57.094319 
L 244.219143 56.674219 
L 244.324168 56.590199 
L 244.408188 56.338139 
L 244.576227 56.254119 
L 244.639242 55.834019 
L 244.828287 55.749999 
L 244.933312 55.497939 
L 244.954317 55.497939 
L 244.954317 55.329899 
L 245.101352 55.24588 
L 245.164367 54.32166 
L 245.290397 54.23764 
L 245.395422 53.90156 
L 245.416427 53.90156 
L 245.437432 53.48146 
L 245.542457 53.48146 
L 245.626477 52.97734 
L 245.836527 52.89332 
L 245.878537 52.725281 
L 246.193612 52.641261 
L 246.277632 52.473221 
L 246.403662 52.473221 
L 246.487682 51.969101 
L 246.613712 51.885081 
L 246.655722 51.717041 
L 247.012806 51.633021 
L 247.117831 51.380961 
L 247.243861 51.380961 
L 247.243861 51.212921 
L 247.432906 51.212921 
L 247.432906 50.876841 
L 247.642956 50.792821 
L 247.663961 50.624781 
L 247.768986 50.624781 
L 247.768986 50.456742 
L 247.916021 50.456742 
L 248.000041 50.120662 
L 248.126071 50.036642 
L 248.189086 49.616542 
L 248.399136 49.532522 
L 248.399136 49.448502 
L 248.756221 49.364482 
L 248.861246 49.112422 
L 248.882251 49.112422 
L 248.987276 48.860362 
L 249.155316 48.776342 
L 249.26034 48.608302 
L 249.281345 48.608302 
L 249.281345 48.440262 
L 249.449385 48.440262 
L 249.449385 48.272222 
L 250.05853 48.188202 
L 250.163555 48.020163 
L 250.415615 47.936143 
L 250.52064 47.684083 
L 250.751695 47.600063 
L 250.751695 47.516043 
L 250.98275 47.516043 
L 251.06677 47.179963 
L 251.10878 47.179963 
L 251.171795 46.843883 
L 251.255815 46.843883 
L 251.31883 46.591823 
L 251.990989 46.507803 
L 252.011994 46.339763 
L 252.663149 46.255743 
L 252.663149 46.171723 
L 252.936214 46.087703 
L 252.936214 45.919663 
L 253.377319 45.835643 
L 253.377319 45.751624 
L 254.238523 45.667604 
L 254.238523 45.583584 
L 254.826663 45.499564 
L 254.889678 45.163484 
L 255.582843 45.079464 
L 255.582843 44.995444 
L 256.065958 44.911424 
L 256.065958 44.827404 
L 256.549072 44.743384 
L 256.549072 44.659364 
L 256.927162 44.575344 
L 256.927162 44.491324 
L 257.368267 44.407304 
L 257.368267 44.323284 
L 257.809372 44.239264 
L 257.809372 44.155244 
L 258.922636 44.071224 
L 258.964646 43.903184 
L 260.182936 43.819164 
L 260.182936 43.735144 
L 261.12816 43.651124 
L 261.12816 43.567104 
L 261.695295 43.483084 
L 261.695295 43.399065 
L 267.219608 43.315045 
L 267.219608 43.315045 
" clip-path="url(#p33bce12c4e)" style="fill: none; stroke: #1f77b4; stroke-width: 1.5; stroke-linecap: square"/>
   </g>
   <g id="patch_3">
    <path d="M 55.069198 255.465455 
L 55.069198 41.214545 
" style="fill: none; stroke: #000000; stroke-width: 0.8; stroke-linejoin: miter; stroke-linecap: square"/>
   </g>
   <g id="patch_4">
    <path d="M 269.320107 255.465455 
L 269.320107 41.214545 
" style="fill: none; stroke: #000000; stroke-width: 0.8; stroke-linejoin: miter; stroke-linecap: square"/>
   </g>
   <g id="patch_5">
    <path d="M 55.069198 255.465455 
L 269.320107 255.465455 
" style="fill: none; stroke: #000000; stroke-width: 0.8; stroke-linejoin: miter; stroke-linecap: square"/>
   </g>
   <g id="patch_6">
    <path d="M 55.069198 41.214545 
L 269.320107 41.214545 
" style="fill: none; stroke: #000000; stroke-width: 0.8; stroke-linejoin: miter; stroke-linecap: square"/>
   </g>
   <g id="text_15">
    <!-- ROC Curve -->
    <g transform="translate(129.504027 35.214545) scale(0.12 -0.12)">
     <defs>
      <path id="DejaVuSans-4f" d="M 2522 4238 
Q 1834 4238 1429 3725 
Q 1025 3213 1025 2328 
Q 1025 1447 1429 934 
Q 1834 422 2522 422 
Q 3209 422 3611 934 
Q 4013 1447 4013 2328 
Q 4013 3213 3611 3725 
Q 3209 4238 2522 4238 
z
M 2522 4750 
Q 3503 4750 4090 4092 
Q 4678 3434 4678 2328 
Q 4678 1225 4090 567 
Q 3503 -91 2522 -91 
Q 1538 -91 948 565 
Q 359 1222 359 2328 
Q 359 3434 948 4092 
Q 1538 4750 2522 4750 
z
" transform="scale(0.015625)"/>
      <path id="DejaVuSans-43" d="M 4122 4306 
L 4122 3641 
Q 3803 3938 3442 4084 
Q 3081 4231 2675 4231 
Q 1875 4231 1450 3742 
Q 1025 3253 1025 2328 
Q 1025 1406 1450 917 
Q 1875 428 2675 428 
Q 3081 428 3442 575 
Q 3803 722 4122 1019 
L 4122 359 
Q 3791 134 3420 21 
Q 3050 -91 2638 -91 
Q 1578 -91 968 557 
Q 359 1206 359 2328 
Q 359 3453 968 4101 
Q 1578 4750 2638 4750 
Q 3056 4750 3426 4639 
Q 3797 4528 4122 4306 
z
" transform="scale(0.015625)"/>
     </defs>
     <use xlink:href="#DejaVuSans-52"/>
     <use xlink:href="#DejaVuSans-4f" transform="translate(69.482422 0)"/>
     <use xlink:href="#DejaVuSans-43" transform="translate(148.193359 0)"/>
     <use xlink:href="#DejaVuSans-20" transform="translate(218.017578 0)"/>
     <use xlink:href="#DejaVuSans-43" transform="translate(249.804688 0)"/>
     <use xlink:href="#DejaVuSans-75" transform="translate(319.628906 0)"/>
     <use xlink:href="#DejaVuSans-72" transform="translate(383.007812 0)"/>
     <use xlink:href="#DejaVuSans-76" transform="translate(424.121094 0)"/>
     <use xlink:href="#DejaVuSans-65" transform="translate(483.300781 0)"/>
    </g>
   </g>
   <g id="legend_1">
    <g id="patch_7">
     <path d="M 115.546669 250.465455 
L 262.320107 250.465455 
Q 264.320107 250.465455 264.320107 248.465455 
L 264.320107 234.78733 
Q 264.320107 232.78733 262.320107 232.78733 
L 115.546669 232.78733 
Q 113.546669 232.78733 113.546669 234.78733 
L 113.546669 248.465455 
Q 113.546669 250.465455 115.546669 250.465455 
z
" style="fill: #ffffff; opacity: 0.8; stroke: #cccccc; stroke-linejoin: miter"/>
    </g>
    <g id="line2d_14">
     <path d="M 117.546669 240.885767 
L 127.546669 240.885767 
L 137.546669 240.885767 
" style="fill: none; stroke: #1f77b4; stroke-width: 1.5; stroke-linecap: square"/>
    </g>
    <g id="text_16">
     <!-- Classifier (AUC = 0.28) -->
     <g transform="translate(145.546669 244.385767) scale(0.1 -0.1)">
      <defs>
       <path id="DejaVuSans-66" d="M 2375 4863 
L 2375 4384 
L 1825 4384 
Q 1516 4384 1395 4259 
Q 1275 4134 1275 3809 
L 1275 3500 
L 2222 3500 
L 2222 3053 
L 1275 3053 
L 1275 0 
L 697 0 
L 697 3053 
L 147 3053 
L 147 3500 
L 697 3500 
L 697 3744 
Q 697 4328 969 4595 
Q 1241 4863 1831 4863 
L 2375 4863 
z
" transform="scale(0.015625)"/>
       <path id="DejaVuSans-41" d="M 2188 4044 
L 1331 1722 
L 3047 1722 
L 2188 4044 
z
M 1831 4666 
L 2547 4666 
L 4325 0 
L 3669 0 
L 3244 1197 
L 1141 1197 
L 716 0 
L 50 0 
L 1831 4666 
z
" transform="scale(0.015625)"/>
       <path id="DejaVuSans-55" d="M 556 4666 
L 1191 4666 
L 1191 1831 
Q 1191 1081 1462 751 
Q 1734 422 2344 422 
Q 2950 422 3222 751 
Q 3494 1081 3494 1831 
L 3494 4666 
L 4128 4666 
L 4128 1753 
Q 4128 841 3676 375 
Q 3225 -91 2344 -91 
Q 1459 -91 1007 375 
Q 556 841 556 1753 
L 556 4666 
z
" transform="scale(0.015625)"/>
       <path id="DejaVuSans-3d" d="M 678 2906 
L 4684 2906 
L 4684 2381 
L 678 2381 
L 678 2906 
z
M 678 1631 
L 4684 1631 
L 4684 1100 
L 678 1100 
L 678 1631 
z
" transform="scale(0.015625)"/>
      </defs>
      <use xlink:href="#DejaVuSans-43"/>
      <use xlink:href="#DejaVuSans-6c" transform="translate(69.824219 0)"/>
      <use xlink:href="#DejaVuSans-61" transform="translate(97.607422 0)"/>
      <use xlink:href="#DejaVuSans-73" transform="translate(158.886719 0)"/>
      <use xlink:href="#DejaVuSans-73" transform="translate(210.986328 0)"/>
      <use xlink:href="#DejaVuSans-69" transform="translate(263.085938 0)"/>
      <use xlink:href="#DejaVuSans-66" transform="translate(290.869141 0)"/>
      <use xlink:href="#DejaVuSans-69" transform="translate(326.074219 0)"/>
      <use xlink:href="#DejaVuSans-65" transform="translate(353.857422 0)"/>
      <use xlink:href="#DejaVuSans-72" transform="translate(415.380859 0)"/>
      <use xlink:href="#DejaVuSans-20" transform="translate(456.494141 0)"/>
      <use xlink:href="#DejaVuSans-28" transform="translate(488.28125 0)"/>
      <use xlink:href="#DejaVuSans-41" transform="translate(527.294922 0)"/>
      <use xlink:href="#DejaVuSans-55" transform="translate(595.703125 0)"/>
      <use xlink:href="#DejaVuSans-43" transform="translate(668.896484 0)"/>
      <use xlink:href="#DejaVuSans-20" transform="translate(738.720703 0)"/>
      <use xlink:href="#DejaVuSans-3d" transform="translate(770.507812 0)"/>
      <use xlink:href="#DejaVuSans-20" transform="translate(854.296875 0)"/>
      <use xlink:href="#DejaVuSans-30" transform="translate(886.083984 0)"/>
      <use xlink:href="#DejaVuSans-2e" transform="translate(949.707031 0)"/>
      <use xlink:href="#DejaVuSans-32" transform="translate(981.494141 0)"/>
      <use xlink:href="#DejaVuSans-38" transform="translate(1045.117188 0)"/>
      <use xlink:href="#DejaVuSans-29" transform="translate(1108.740234 0)"/>
     </g>
    </g>
   </g>
  </g>
  <g id="axes_2">
   <g id="patch_8">
    <path d="M 337.669198 255.465455 
L 551.920107 255.465455 
L 551.920107 41.214545 
L 337.669198 41.214545 
z
" style="fill: #ffffff"/>
   </g>
   <g id="matplotlib.axis_3">
    <g id="xtick_7">
     <g id="line2d_15">
      <g>
       <use xlink:href="#m276ab8c5ab" x="339.769697" y="255.465455" style="stroke: #000000; stroke-width: 0.8"/>
      </g>
     </g>
     <g id="text_17">
      <!-- 0.0 -->
      <g transform="translate(331.818134 270.063892) scale(0.1 -0.1)">
       <use xlink:href="#DejaVuSans-30"/>
       <use xlink:href="#DejaVuSans-2e" transform="translate(63.623047 0)"/>
       <use xlink:href="#DejaVuSans-30" transform="translate(95.410156 0)"/>
      </g>
     </g>
    </g>
    <g id="xtick_8">
     <g id="line2d_16">
      <g>
       <use xlink:href="#m276ab8c5ab" x="381.779679" y="255.465455" style="stroke: #000000; stroke-width: 0.8"/>
      </g>
     </g>
     <g id="text_18">
      <!-- 0.2 -->
      <g transform="translate(373.828117 270.063892) scale(0.1 -0.1)">
       <use xlink:href="#DejaVuSans-30"/>
       <use xlink:href="#DejaVuSans-2e" transform="translate(63.623047 0)"/>
       <use xlink:href="#DejaVuSans-32" transform="translate(95.410156 0)"/>
      </g>
     </g>
    </g>
    <g id="xtick_9">
     <g id="line2d_17">
      <g>
       <use xlink:href="#m276ab8c5ab" x="423.789661" y="255.465455" style="stroke: #000000; stroke-width: 0.8"/>
      </g>
     </g>
     <g id="text_19">
      <!-- 0.4 -->
      <g transform="translate(415.838099 270.063892) scale(0.1 -0.1)">
       <use xlink:href="#DejaVuSans-30"/>
       <use xlink:href="#DejaVuSans-2e" transform="translate(63.623047 0)"/>
       <use xlink:href="#DejaVuSans-34" transform="translate(95.410156 0)"/>
      </g>
     </g>
    </g>
    <g id="xtick_10">
     <g id="line2d_18">
      <g>
       <use xlink:href="#m276ab8c5ab" x="465.799643" y="255.465455" style="stroke: #000000; stroke-width: 0.8"/>
      </g>
     </g>
     <g id="text_20">
      <!-- 0.6 -->
      <g transform="translate(457.848081 270.063892) scale(0.1 -0.1)">
       <use xlink:href="#DejaVuSans-30"/>
       <use xlink:href="#DejaVuSans-2e" transform="translate(63.623047 0)"/>
       <use xlink:href="#DejaVuSans-36" transform="translate(95.410156 0)"/>
      </g>
     </g>
    </g>
    <g id="xtick_11">
     <g id="line2d_19">
      <g>
       <use xlink:href="#m276ab8c5ab" x="507.809626" y="255.465455" style="stroke: #000000; stroke-width: 0.8"/>
      </g>
     </g>
     <g id="text_21">
      <!-- 0.8 -->
      <g transform="translate(499.858063 270.063892) scale(0.1 -0.1)">
       <use xlink:href="#DejaVuSans-30"/>
       <use xlink:href="#DejaVuSans-2e" transform="translate(63.623047 0)"/>
       <use xlink:href="#DejaVuSans-38" transform="translate(95.410156 0)"/>
      </g>
     </g>
    </g>
    <g id="xtick_12">
     <g id="line2d_20">
      <g>
       <use xlink:href="#m276ab8c5ab" x="549.819608" y="255.465455" style="stroke: #000000; stroke-width: 0.8"/>
      </g>
     </g>
     <g id="text_22">
      <!-- 1.0 -->
      <g transform="translate(541.868045 270.063892) scale(0.1 -0.1)">
       <use xlink:href="#DejaVuSans-31"/>
       <use xlink:href="#DejaVuSans-2e" transform="translate(63.623047 0)"/>
       <use xlink:href="#DejaVuSans-30" transform="translate(95.410156 0)"/>
      </g>
     </g>
    </g>
    <g id="text_23">
     <!-- Recall (Positive label: 1) -->
     <g transform="translate(384.978246 283.742017) scale(0.1 -0.1)">
      <defs>
       <path id="DejaVuSans-63" d="M 3122 3366 
L 3122 2828 
Q 2878 2963 2633 3030 
Q 2388 3097 2138 3097 
Q 1578 3097 1268 2742 
Q 959 2388 959 1747 
Q 959 1106 1268 751 
Q 1578 397 2138 397 
Q 2388 397 2633 464 
Q 2878 531 3122 666 
L 3122 134 
Q 2881 22 2623 -34 
Q 2366 -91 2075 -91 
Q 1284 -91 818 406 
Q 353 903 353 1747 
Q 353 2603 823 3093 
Q 1294 3584 2113 3584 
Q 2378 3584 2631 3529 
Q 2884 3475 3122 3366 
z
" transform="scale(0.015625)"/>
      </defs>
      <use xlink:href="#DejaVuSans-52"/>
      <use xlink:href="#DejaVuSans-65" transform="translate(64.982422 0)"/>
      <use xlink:href="#DejaVuSans-63" transform="translate(126.505859 0)"/>
      <use xlink:href="#DejaVuSans-61" transform="translate(181.486328 0)"/>
      <use xlink:href="#DejaVuSans-6c" transform="translate(242.765625 0)"/>
      <use xlink:href="#DejaVuSans-6c" transform="translate(270.548828 0)"/>
      <use xlink:href="#DejaVuSans-20" transform="translate(298.332031 0)"/>
      <use xlink:href="#DejaVuSans-28" transform="translate(330.119141 0)"/>
      <use xlink:href="#DejaVuSans-50" transform="translate(369.132812 0)"/>
      <use xlink:href="#DejaVuSans-6f" transform="translate(425.810547 0)"/>
      <use xlink:href="#DejaVuSans-73" transform="translate(486.992188 0)"/>
      <use xlink:href="#DejaVuSans-69" transform="translate(539.091797 0)"/>
      <use xlink:href="#DejaVuSans-74" transform="translate(566.875 0)"/>
      <use xlink:href="#DejaVuSans-69" transform="translate(606.083984 0)"/>
      <use xlink:href="#DejaVuSans-76" transform="translate(633.867188 0)"/>
      <use xlink:href="#DejaVuSans-65" transform="translate(693.046875 0)"/>
      <use xlink:href="#DejaVuSans-20" transform="translate(754.570312 0)"/>
      <use xlink:href="#DejaVuSans-6c" transform="translate(786.357422 0)"/>
      <use xlink:href="#DejaVuSans-61" transform="translate(814.140625 0)"/>
      <use xlink:href="#DejaVuSans-62" transform="translate(875.419922 0)"/>
      <use xlink:href="#DejaVuSans-65" transform="translate(938.896484 0)"/>
      <use xlink:href="#DejaVuSans-6c" transform="translate(1000.419922 0)"/>
      <use xlink:href="#DejaVuSans-3a" transform="translate(1028.203125 0)"/>
      <use xlink:href="#DejaVuSans-20" transform="translate(1061.894531 0)"/>
      <use xlink:href="#DejaVuSans-31" transform="translate(1093.681641 0)"/>
      <use xlink:href="#DejaVuSans-29" transform="translate(1157.304688 0)"/>
     </g>
    </g>
   </g>
   <g id="matplotlib.axis_4">
    <g id="ytick_7">
     <g id="line2d_21">
      <g>
       <use xlink:href="#m1948d39214" x="337.669198" y="253.364955" style="stroke: #000000; stroke-width: 0.8"/>
      </g>
     </g>
     <g id="text_24">
      <!-- 0.0 -->
      <g transform="translate(314.766073 257.164174) scale(0.1 -0.1)">
       <use xlink:href="#DejaVuSans-30"/>
       <use xlink:href="#DejaVuSans-2e" transform="translate(63.623047 0)"/>
       <use xlink:href="#DejaVuSans-30" transform="translate(95.410156 0)"/>
      </g>
     </g>
    </g>
    <g id="ytick_8">
     <g id="line2d_22">
      <g>
       <use xlink:href="#m1948d39214" x="337.669198" y="211.354973" style="stroke: #000000; stroke-width: 0.8"/>
      </g>
     </g>
     <g id="text_25">
      <!-- 0.2 -->
      <g transform="translate(314.766073 215.154192) scale(0.1 -0.1)">
       <use xlink:href="#DejaVuSans-30"/>
       <use xlink:href="#DejaVuSans-2e" transform="translate(63.623047 0)"/>
       <use xlink:href="#DejaVuSans-32" transform="translate(95.410156 0)"/>
      </g>
     </g>
    </g>
    <g id="ytick_9">
     <g id="line2d_23">
      <g>
       <use xlink:href="#m1948d39214" x="337.669198" y="169.344991" style="stroke: #000000; stroke-width: 0.8"/>
      </g>
     </g>
     <g id="text_26">
      <!-- 0.4 -->
      <g transform="translate(314.766073 173.14421) scale(0.1 -0.1)">
       <use xlink:href="#DejaVuSans-30"/>
       <use xlink:href="#DejaVuSans-2e" transform="translate(63.623047 0)"/>
       <use xlink:href="#DejaVuSans-34" transform="translate(95.410156 0)"/>
      </g>
     </g>
    </g>
    <g id="ytick_10">
     <g id="line2d_24">
      <g>
       <use xlink:href="#m1948d39214" x="337.669198" y="127.335009" style="stroke: #000000; stroke-width: 0.8"/>
      </g>
     </g>
     <g id="text_27">
      <!-- 0.6 -->
      <g transform="translate(314.766073 131.134228) scale(0.1 -0.1)">
       <use xlink:href="#DejaVuSans-30"/>
       <use xlink:href="#DejaVuSans-2e" transform="translate(63.623047 0)"/>
       <use xlink:href="#DejaVuSans-36" transform="translate(95.410156 0)"/>
      </g>
     </g>
    </g>
    <g id="ytick_11">
     <g id="line2d_25">
      <g>
       <use xlink:href="#m1948d39214" x="337.669198" y="85.325027" style="stroke: #000000; stroke-width: 0.8"/>
      </g>
     </g>
     <g id="text_28">
      <!-- 0.8 -->
      <g transform="translate(314.766073 89.124245) scale(0.1 -0.1)">
       <use xlink:href="#DejaVuSans-30"/>
       <use xlink:href="#DejaVuSans-2e" transform="translate(63.623047 0)"/>
       <use xlink:href="#DejaVuSans-38" transform="translate(95.410156 0)"/>
      </g>
     </g>
    </g>
    <g id="ytick_12">
     <g id="line2d_26">
      <g>
       <use xlink:href="#m1948d39214" x="337.669198" y="43.315045" style="stroke: #000000; stroke-width: 0.8"/>
      </g>
     </g>
     <g id="text_29">
      <!-- 1.0 -->
      <g transform="translate(314.766073 47.114263) scale(0.1 -0.1)">
       <use xlink:href="#DejaVuSans-31"/>
       <use xlink:href="#DejaVuSans-2e" transform="translate(63.623047 0)"/>
       <use xlink:href="#DejaVuSans-30" transform="translate(95.410156 0)"/>
      </g>
     </g>
    </g>
    <g id="text_30">
     <!-- Precision (Positive label: 1) -->
     <g transform="translate(308.686385 215.54625) rotate(-90) scale(0.1 -0.1)">
      <defs>
       <path id="DejaVuSans-6e" d="M 3513 2113 
L 3513 0 
L 2938 0 
L 2938 2094 
Q 2938 2591 2744 2837 
Q 2550 3084 2163 3084 
Q 1697 3084 1428 2787 
Q 1159 2491 1159 1978 
L 1159 0 
L 581 0 
L 581 3500 
L 1159 3500 
L 1159 2956 
Q 1366 3272 1645 3428 
Q 1925 3584 2291 3584 
Q 2894 3584 3203 3211 
Q 3513 2838 3513 2113 
z
" transform="scale(0.015625)"/>
      </defs>
      <use xlink:href="#DejaVuSans-50"/>
      <use xlink:href="#DejaVuSans-72" transform="translate(58.552734 0)"/>
      <use xlink:href="#DejaVuSans-65" transform="translate(97.416016 0)"/>
      <use xlink:href="#DejaVuSans-63" transform="translate(158.939453 0)"/>
      <use xlink:href="#DejaVuSans-69" transform="translate(213.919922 0)"/>
      <use xlink:href="#DejaVuSans-73" transform="translate(241.703125 0)"/>
      <use xlink:href="#DejaVuSans-69" transform="translate(293.802734 0)"/>
      <use xlink:href="#DejaVuSans-6f" transform="translate(321.585938 0)"/>
      <use xlink:href="#DejaVuSans-6e" transform="translate(382.767578 0)"/>
      <use xlink:href="#DejaVuSans-20" transform="translate(446.146484 0)"/>
      <use xlink:href="#DejaVuSans-28" transform="translate(477.933594 0)"/>
      <use xlink:href="#DejaVuSans-50" transform="translate(516.947266 0)"/>
      <use xlink:href="#DejaVuSans-6f" transform="translate(573.625 0)"/>
      <use xlink:href="#DejaVuSans-73" transform="translate(634.806641 0)"/>
      <use xlink:href="#DejaVuSans-69" transform="translate(686.90625 0)"/>
      <use xlink:href="#DejaVuSans-74" transform="translate(714.689453 0)"/>
      <use xlink:href="#DejaVuSans-69" transform="translate(753.898438 0)"/>
      <use xlink:href="#DejaVuSans-76" transform="translate(781.681641 0)"/>
      <use xlink:href="#DejaVuSans-65" transform="translate(840.861328 0)"/>
      <use xlink:href="#DejaVuSans-20" transform="translate(902.384766 0)"/>
      <use xlink:href="#DejaVuSans-6c" transform="translate(934.171875 0)"/>
      <use xlink:href="#DejaVuSans-61" transform="translate(961.955078 0)"/>
      <use xlink:href="#DejaVuSans-62" transform="translate(1023.234375 0)"/>
      <use xlink:href="#DejaVuSans-65" transform="translate(1086.710938 0)"/>
      <use xlink:href="#DejaVuSans-6c" transform="translate(1148.234375 0)"/>
      <use xlink:href="#DejaVuSans-3a" transform="translate(1176.017578 0)"/>
      <use xlink:href="#DejaVuSans-20" transform="translate(1209.708984 0)"/>
      <use xlink:href="#DejaVuSans-31" transform="translate(1241.496094 0)"/>
      <use xlink:href="#DejaVuSans-29" transform="translate(1305.119141 0)"/>
     </g>
    </g>
   </g>
   <g id="line2d_27">
    <path d="M 549.819608 211.354973 
L 549.735588 210.465746 
L 549.483528 210.398246 
L 549.483528 210.355556 
L 549.399508 210.266721 
L 549.231468 210.259181 
L 549.231468 210.159145 
L 549.231468 210.08773 
L 549.147448 210.094361 
L 548.979408 210.079521 
L 548.979408 209.985651 
L 548.979408 209.931616 
L 548.895388 209.93824 
L 548.559308 209.835106 
L 548.559308 209.82721 
L 548.475288 209.797489 
L 548.139209 209.74813 
L 548.139209 209.688945 
L 548.055189 209.699234 
L 548.055189 209.592786 
L 547.383029 209.506236 
L 547.383029 209.483206 
L 547.383029 209.423766 
L 547.299009 209.43039 
L 546.878909 209.367412 
L 546.878909 209.321656 
L 546.794889 209.332032 
L 546.794889 209.279523 
L 544.86243 209.210537 
L 544.86243 209.171555 
L 544.86243 209.144875 
L 544.77841 209.159178 
L 541.921731 209.266383 
L 541.921731 209.280859 
L 541.921731 209.246223 
L 541.837711 209.260709 
L 539.233092 209.36138 
L 539.149072 209.386798 
L 539.149072 209.375154 
L 538.224853 209.483076 
L 538.140833 209.512463 
L 536.880533 209.61776 
L 536.796513 209.6434 
L 536.796513 209.616217 
L 535.704254 209.719921 
L 535.620234 209.749568 
L 535.620234 209.737909 
L 532.679535 209.842978 
L 532.595515 209.869102 
L 532.595515 209.861251 
L 531.335216 209.966056 
L 531.251196 209.996252 
L 529.234717 210.096822 
L 529.150697 210.115435 
L 527.890397 210.218527 
L 527.890397 210.233834 
L 527.890397 210.210088 
L 527.806377 210.225403 
L 526.630098 210.325905 
L 526.546078 210.35667 
L 526.546078 210.340819 
L 525.369798 210.438166 
L 525.369798 210.453622 
L 525.369798 210.437742 
L 525.285778 210.453205 
L 523.689399 210.561447 
L 523.605379 210.588596 
L 523.605379 210.556721 
L 522.513119 210.664226 
L 522.429099 210.687525 
L 521.25282 210.783543 
L 521.1688 210.814969 
L 521.1688 210.798994 
L 520.16056 210.900277 
L 520.07654 210.923838 
L 518.816241 211.021309 
L 518.732221 211.053029 
L 518.732221 211.045024 
L 517.639961 211.15168 
L 517.555942 211.179533 
L 517.555942 211.175529 
L 516.799762 211.275106 
L 516.715742 211.303045 
L 516.715742 211.299045 
L 515.875542 211.399 
L 515.791522 211.423041 
L 514.447203 211.519939 
L 514.363183 211.544153 
L 514.363183 211.540146 
L 513.522983 211.641332 
L 513.438963 211.673659 
L 513.438963 211.669655 
L 512.598764 211.775316 
L 512.514744 211.799737 
L 512.514744 211.779725 
L 511.758564 211.885617 
L 511.674544 211.910136 
L 510.834344 212.012711 
L 510.750324 212.041331 
L 510.750324 212.005346 
L 509.574045 212.10588 
L 509.490025 212.138681 
L 508.565805 212.242883 
L 508.481785 212.271793 
L 508.481785 212.263784 
L 507.809626 212.367114 
L 507.725606 212.388106 
L 507.725606 212.384107 
L 506.969426 212.48827 
L 506.885406 212.509365 
L 506.885406 212.505369 
L 506.045206 212.614532 
L 506.045206 212.631122 
L 505.961186 212.603774 
L 505.120987 212.705471 
L 505.036967 212.738783 
L 505.036967 212.730792 
L 504.364807 212.835538 
L 504.280787 212.860945 
L 504.280787 212.856955 
L 503.104508 212.958757 
L 503.020488 212.976338 
L 503.020488 212.968343 
L 502.180288 213.063713 
L 502.096268 213.0974 
L 502.096268 213.085409 
L 501.340088 213.1844 
L 501.256068 213.218184 
L 500.415869 213.322556 
L 500.331849 213.348469 
L 500.331849 213.340488 
L 499.575669 213.436379 
L 499.491649 213.466386 
L 499.491649 213.462399 
L 498.73547 213.562705 
L 498.65145 213.596795 
L 498.65145 213.592814 
L 497.89527 213.697522 
L 497.81125 213.727728 
L 497.81125 213.723751 
L 496.88703 213.827392 
L 496.80301 213.861707 
L 496.214871 213.964736 
L 496.130851 213.983242 
L 495.542711 214.082509 
L 495.458691 214.105072 
L 495.458691 214.101112 
L 494.618491 214.200948 
L 494.534471 214.227596 
L 494.534471 214.219677 
L 493.778292 214.33045 
L 493.694272 214.361161 
L 493.694272 214.357207 
L 492.938092 214.456553 
L 492.854072 214.49132 
L 492.854072 214.479471 
L 492.097892 214.575325 
L 492.013872 214.610201 
L 491.257693 214.710458 
L 491.173673 214.745433 
L 491.173673 214.741492 
L 490.585533 214.838644 
L 490.501513 214.86582 
L 489.577293 214.962717 
L 489.493273 214.993972 
L 489.493273 214.990038 
L 488.905134 215.083925 
L 488.821114 215.119185 
L 488.821114 215.115259 
L 488.064934 215.217265 
L 487.980914 215.252628 
L 487.308754 215.353039 
L 487.224734 215.388486 
L 486.636595 215.483197 
L 486.552575 215.51871 
L 486.552575 215.506997 
L 485.712375 215.608544 
L 485.628355 215.644189 
L 484.956195 215.749596 
L 484.872175 215.785323 
L 484.200016 215.887171 
L 484.115996 215.911323 
L 484.115996 215.907436 
L 483.527856 216.007232 
L 483.443836 216.039241 
L 483.443836 216.035362 
L 482.855696 216.143133 
L 482.771676 216.179086 
L 482.099517 216.274154 
L 482.015497 216.310199 
L 481.343337 216.413354 
L 481.259317 216.449484 
L 481.259317 216.445631 
L 480.419117 216.546872 
L 480.335097 216.583136 
L 480.335097 216.579286 
L 479.662938 216.679438 
L 479.578918 216.704262 
L 478.738718 216.802839 
L 478.654698 216.827809 
L 478.654698 216.823964 
L 477.982538 216.928855 
L 477.982538 216.947154 
L 477.982538 216.927952 
L 477.898518 216.946262 
L 477.310379 217.044703 
L 477.226359 217.073726 
L 477.226359 217.062224 
L 476.554199 217.171672 
L 476.470179 217.208459 
L 475.882039 217.311281 
L 475.798019 217.344321 
L 475.798019 217.317594 
L 475.12586 217.420109 
L 475.04184 217.44564 
L 474.36968 217.548552 
L 474.28566 217.578012 
L 474.28566 217.562772 
L 473.52948 217.669467 
L 473.44546 217.699063 
L 473.44546 217.695257 
L 472.689281 217.791081 
L 472.605261 217.824618 
L 471.849081 217.928607 
L 471.765061 217.962272 
L 471.176921 218.055814 
L 471.092901 218.08957 
L 470.504761 218.190971 
L 470.420742 218.228594 
L 470.420742 218.213469 
L 469.580542 218.315073 
L 469.496522 218.352858 
L 469.496522 218.349077 
L 468.908382 218.44745 
L 468.824362 218.485316 
L 468.236222 218.583964 
L 468.152202 218.621909 
L 468.152202 218.614386 
L 467.564063 218.713323 
L 467.480043 218.751353 
L 467.480043 218.732581 
L 466.807883 218.839641 
L 466.723863 218.877787 
L 466.135723 218.973624 
L 466.051703 219.008114 
L 466.051703 219.000635 
L 465.463564 219.096787 
L 465.379544 219.135108 
L 464.791404 219.231558 
L 464.707384 219.269964 
L 464.035224 219.371093 
L 463.951204 219.409605 
L 463.363065 219.503005 
L 463.279045 219.534193 
L 463.279045 219.515649 
L 462.690905 219.624219 
L 462.606885 219.651818 
L 462.606885 219.629597 
L 462.018745 219.731097 
L 461.934725 219.769909 
L 461.346585 219.875386 
L 461.262565 219.906906 
L 460.590406 220.013767 
L 460.506386 220.052769 
L 460.506386 220.038057 
L 459.834226 220.145383 
L 459.750206 220.184505 
L 459.078046 220.277612 
L 458.994026 220.31319 
L 458.994026 220.305858 
L 458.489907 220.400408 
L 458.405887 220.439725 
L 457.817747 220.546845 
L 457.733727 220.586243 
L 457.145587 220.682732 
L 457.061567 220.722222 
L 456.389407 220.817061 
L 456.305388 220.853045 
L 456.305388 220.842157 
L 455.717248 220.95028 
L 455.633228 220.989989 
L 455.633228 220.98275 
L 454.961068 221.093009 
L 454.877048 221.132834 
L 454.877048 221.129224 
L 453.952829 221.238563 
L 453.868809 221.278591 
L 453.280669 221.369971 
L 453.196649 221.402897 
L 453.196649 221.395691 
L 452.524489 221.493186 
L 452.440469 221.533457 
L 452.440469 221.526261 
L 451.936349 221.619856 
L 451.852329 221.660205 
L 451.18017 221.769373 
L 451.09615 221.809838 
L 450.50801 221.90279 
L 450.42399 221.93622 
L 449.75183 222.028504 
L 449.66781 222.069217 
L 449.163691 222.167528 
L 449.079671 222.204758 
L 449.079671 222.201204 
L 448.491531 222.302419 
L 448.407511 222.343307 
L 448.407511 222.329127 
L 447.651331 222.432783 
L 447.567311 222.473846 
L 447.567311 222.46322 
L 447.063191 222.555385 
L 446.979171 222.589472 
L 446.979171 222.582403 
L 446.391032 222.681336 
L 446.307012 222.722608 
L 445.718872 222.814882 
L 445.634852 222.852748 
L 444.794652 222.958517 
L 444.710632 223.000101 
L 444.710632 222.996587 
L 444.122493 223.093415 
L 444.038473 223.121083 
L 443.450333 223.218338 
L 443.366313 223.260162 
L 442.778173 223.364811 
L 442.694153 223.403248 
L 442.694153 223.385794 
L 442.106014 223.480403 
L 442.021994 223.522469 
L 442.021994 223.505039 
L 441.517874 223.603383 
L 441.433854 223.645546 
L 441.433854 223.64207 
L 440.845714 223.747893 
L 440.761694 223.786699 
L 440.761694 223.783234 
L 440.257574 223.882106 
L 440.173554 223.924462 
L 440.173554 223.921009 
L 439.585415 224.013757 
L 439.501395 224.05624 
L 438.913255 224.166633 
L 438.829235 224.209217 
L 438.829235 224.198916 
L 438.241095 224.306276 
L 438.157075 224.348977 
L 437.400896 224.441436 
L 437.316876 224.480916 
L 436.812756 224.571205 
L 436.728736 224.607381 
L 436.728736 224.603969 
L 436.224616 224.69797 
L 436.140596 224.737668 
L 435.552456 224.846756 
L 435.468436 224.889968 
L 435.468436 224.886578 
L 434.796277 224.987285 
L 434.712257 225.013737 
L 434.208137 225.10543 
L 434.124117 225.148921 
L 434.124117 225.138792 
L 433.535977 225.245858 
L 433.451957 225.289476 
L 432.863817 225.400327 
L 432.779798 225.444056 
L 432.779798 225.433994 
L 432.275678 225.526711 
L 432.191658 225.567205 
L 431.603518 225.675523 
L 431.519498 225.716148 
L 430.931358 225.821584 
L 430.847338 225.865668 
L 430.343219 225.956097 
L 430.259199 226.000282 
L 429.671059 226.10657 
L 429.587039 226.150878 
L 429.587039 226.147579 
L 429.082919 226.238714 
L 428.998899 226.283129 
L 428.998899 226.279841 
L 428.494779 226.37787 
L 428.410759 226.422383 
L 427.82262 226.523397 
L 427.7386 226.561512 
L 427.7386 226.551708 
L 427.23448 226.660221 
L 427.15046 226.704972 
L 426.56232 226.803673 
L 426.4783 226.848563 
L 426.4783 226.845319 
L 425.89016 226.947793 
L 425.80614 226.983119 
L 425.133981 227.07964 
L 425.049961 227.118414 
L 425.049961 227.108717 
L 424.461821 227.209166 
L 424.377801 227.254567 
L 424.377801 227.251343 
L 423.789661 227.358776 
L 423.705641 227.394676 
L 423.705641 227.391461 
L 423.201522 227.499047 
L 423.117502 227.544694 
L 423.117502 227.541494 
L 422.613382 227.649344 
L 422.529362 227.685526 
L 422.529362 227.682338 
L 422.025242 227.774588 
L 421.941222 227.817286 
L 421.353082 227.907535 
L 421.269062 227.944068 
L 420.680923 228.053941 
L 420.596903 228.100137 
L 420.596903 228.093818 
L 420.008763 228.201081 
L 419.924743 228.24743 
L 419.924743 228.241132 
L 419.336603 228.339529 
L 419.252583 228.386047 
L 419.252583 228.379765 
L 418.748463 228.480533 
L 418.664443 228.52404 
L 418.160324 228.628274 
L 418.076304 228.675018 
L 418.076304 228.665672 
L 417.572184 228.757819 
L 417.488164 228.798491 
L 416.984044 228.891055 
L 416.900024 228.938072 
L 416.900024 228.934977 
L 416.395904 229.037216 
L 416.311884 229.084348 
L 415.807765 229.190004 
L 415.723745 229.231107 
L 415.723745 229.221901 
L 415.219625 229.315685 
L 415.135605 229.356957 
L 414.631485 229.457271 
L 414.547465 229.498695 
L 413.875306 229.592324 
L 413.791286 229.640087 
L 413.203146 229.738053 
L 413.119126 229.785995 
L 413.119126 229.77993 
L 412.530986 229.878591 
L 412.446966 229.926724 
L 412.446966 229.920675 
L 411.942846 230.029091 
L 411.858826 230.077344 
L 411.858826 230.074335 
L 411.270687 230.171264 
L 411.186667 230.216709 
L 411.186667 230.207702 
L 410.766567 230.304713 
L 410.682547 230.353257 
L 410.682547 230.35027 
L 410.178427 230.453895 
L 410.094407 230.496618 
L 410.094407 230.493643 
L 409.674307 230.582198 
L 409.590287 230.625055 
L 409.590287 230.616164 
L 409.002148 230.709553 
L 408.918128 230.758564 
L 408.245968 230.853696 
L 408.161948 230.900019 
L 407.741848 230.98689 
L 407.657828 231.036271 
L 407.657828 231.033333 
L 407.237728 231.120471 
L 407.153708 231.164108 
L 407.153708 231.161182 
L 406.565569 231.248589 
L 406.481549 231.29832 
L 406.481549 231.2954 
L 405.977429 231.384932 
L 405.893409 231.434831 
L 405.473309 231.526012 
L 405.389289 231.567323 
L 405.389289 231.564426 
L 404.885169 231.666509 
L 404.801149 231.716669 
L 404.29703 231.81922 
L 404.21301 231.863783 
L 404.21301 231.852299 
L 403.70889 231.938177 
L 403.62487 231.988692 
L 403.62487 231.98583 
L 403.20477 232.075542 
L 403.12075 232.117621 
L 403.12075 232.111918 
L 402.70065 232.199104 
L 402.61663 232.247034 
L 402.61663 232.238516 
L 402.19653 232.334524 
L 402.112511 232.385411 
L 401.692411 232.487267 
L 401.608391 232.53543 
L 401.188291 232.623483 
L 401.104271 232.671779 
L 401.104271 232.666193 
L 400.684171 232.762924 
L 400.600151 232.811349 
L 400.600151 232.805792 
L 400.012011 232.904253 
L 399.927991 232.950168 
L 399.927991 232.941852 
L 399.507892 233.04491 
L 399.423872 233.093726 
L 399.423872 233.088214 
L 399.003772 233.185987 
L 398.919752 233.237674 
L 398.919752 233.22671 
L 398.499652 233.313825 
L 398.415632 233.360202 
L 398.415632 233.35201 
L 397.995532 233.442222 
L 397.911512 233.491488 
L 397.911512 233.488771 
L 397.407393 233.580984 
L 397.323373 233.627755 
L 397.323373 233.608785 
L 396.903273 233.705254 
L 396.819253 233.754906 
L 396.819253 233.741415 
L 396.315133 233.826777 
L 396.231113 233.876685 
L 396.231113 233.873994 
L 395.811013 233.971266 
L 395.726993 234.007928 
L 395.726993 234.005249 
L 395.306893 234.105531 
L 395.222873 234.158397 
L 394.802774 234.258918 
L 394.718754 234.306598 
L 394.130614 234.402523 
L 394.046594 234.447872 
L 393.626494 234.544014 
L 393.542474 234.592166 
L 393.122374 234.68602 
L 393.038354 234.739551 
L 392.618255 234.825947 
L 392.534235 234.879621 
L 392.534235 234.858875 
L 392.030115 234.957149 
L 391.946095 235.008497 
L 391.525995 235.106179 
L 391.441975 235.157669 
L 391.441975 235.144829 
L 390.937855 235.241837 
L 390.853835 235.296146 
L 390.853835 235.291032 
L 390.433735 235.379395 
L 390.349716 235.433865 
L 390.349716 235.423689 
L 389.845596 235.516991 
L 389.761576 235.571718 
L 389.761576 235.564116 
L 389.341476 235.65604 
L 389.341476 235.683482 
L 389.341476 235.645561 
L 389.257456 235.668003 
L 388.837356 235.757963 
L 388.753336 235.810612 
L 388.753336 235.805578 
L 388.333236 235.908533 
L 388.249216 235.963836 
L 388.249216 235.961337 
L 387.829117 236.052154 
L 387.745097 236.107617 
L 387.745097 236.105134 
L 387.324997 236.20629 
L 387.240977 236.261886 
L 387.240977 236.259421 
L 386.820877 236.368273 
L 386.736857 236.421535 
L 386.148717 236.530521 
L 386.064697 236.586541 
L 385.644598 236.689005 
L 385.560578 236.740326 
L 385.560578 236.730663 
L 385.140478 236.826315 
L 385.056458 236.882658 
L 385.056458 236.868248 
L 384.636358 236.973955 
L 384.552338 237.028081 
L 384.552338 237.025696 
L 384.132238 237.131734 
L 384.048218 237.18838 
L 384.048218 237.186016 
L 383.544098 237.290179 
L 383.460078 237.344722 
L 383.460078 237.33767 
L 383.039979 237.439925 
L 382.955959 237.485318 
L 382.451839 237.577093 
L 382.367819 237.620528 
L 382.367819 237.613542 
L 381.947719 237.705387 
L 381.863699 237.756085 
L 381.863699 237.753769 
L 381.443599 237.850792 
L 381.359579 237.906331 
L 381.359579 237.892529 
L 380.93948 237.996977 
L 380.85546 238.039022 
L 380.85546 238.034447 
L 380.51938 238.11712 
L 380.43536 238.163975 
L 380.01526 238.269289 
L 379.93124 238.325432 
L 379.51114 238.415457 
L 379.42712 238.462872 
L 379.09104 238.546452 
L 379.00702 238.605204 
L 378.58692 238.711783 
L 378.502901 238.768481 
L 378.502901 238.755268 
L 378.082801 238.86234 
L 377.998781 238.919262 
L 377.998781 238.912708 
L 377.578681 239.002841 
L 377.494661 239.062194 
L 376.990541 239.163317 
L 376.906521 239.222981 
L 376.570441 239.308262 
L 376.486421 239.355216 
L 376.066322 239.440949 
L 375.982302 239.498895 
L 375.982302 239.49677 
L 375.646222 239.578517 
L 375.562202 239.63873 
L 375.562202 239.636624 
L 375.226122 239.724932 
L 375.142102 239.783169 
L 375.142102 239.776908 
L 374.722002 239.870762 
L 374.637982 239.931343 
L 374.637982 239.927201 
L 374.301902 240.011991 
L 374.217882 240.070657 
L 374.217882 240.064498 
L 373.797783 240.163676 
L 373.713763 240.220568 
L 373.293663 240.316351 
L 373.209643 240.37756 
L 373.209643 240.375542 
L 372.873563 240.459416 
L 372.789543 240.520765 
L 372.285423 240.608755 
L 372.201403 240.668547 
L 372.201403 240.656607 
L 371.781303 240.758661 
L 371.697283 240.818749 
L 371.277184 240.913629 
L 371.193164 240.975953 
L 371.193164 240.973999 
L 370.857084 241.059805 
L 370.773064 241.11647 
L 370.773064 241.104845 
L 370.436984 241.196822 
L 370.352964 241.257565 
L 370.352964 241.251811 
L 370.016884 241.344027 
L 369.932864 241.380226 
L 369.932864 241.359237 
L 369.596784 241.450078 
L 369.512764 241.513239 
L 369.512764 241.501894 
L 369.092665 241.609684 
L 369.008645 241.665633 
L 369.008645 241.661886 
L 368.672565 241.75534 
L 368.588545 241.802266 
L 368.252465 241.89235 
L 368.168445 241.950668 
L 368.168445 241.943323 
L 367.748345 242.047538 
L 367.664325 242.108043 
L 367.664325 242.106226 
L 367.328245 242.198948 
L 367.244225 242.263239 
L 367.244225 242.25426 
L 366.908145 242.338356 
L 366.824125 242.395758 
L 366.824125 242.381508 
L 366.488046 242.464366 
L 366.404026 242.529183 
L 366.404026 242.522125 
L 365.983926 242.62747 
L 365.899906 242.689106 
L 365.479806 242.783183 
L 365.395786 242.846942 
L 365.395786 242.843487 
L 365.059706 242.928122 
L 364.975686 242.988704 
L 364.975686 242.985286 
L 364.639606 243.068731 
L 364.555586 243.134689 
L 364.555586 243.133 
L 364.219507 243.227009 
L 364.135487 243.293118 
L 364.135487 243.289786 
L 363.799407 243.37087 
L 363.715387 243.437223 
L 363.715387 243.41908 
L 363.379307 243.499187 
L 363.295287 243.565893 
L 363.295287 243.56426 
L 362.959207 243.651462 
L 362.875187 243.703854 
L 362.875187 243.700621 
L 362.455087 243.799584 
L 362.371067 243.865388 
L 362.371067 243.855796 
L 362.034988 243.952342 
L 361.950968 244.002609 
L 361.614888 244.093346 
L 361.530868 244.156606 
L 361.530868 244.151928 
L 361.194788 244.254014 
L 361.110768 244.315994 
L 361.110768 244.314459 
L 360.690668 244.402252 
L 360.606648 244.451133 
L 360.186548 244.546618 
L 360.102528 244.612876 
L 360.102528 244.609861 
L 359.766448 244.694501 
L 359.682429 244.7626 
L 359.682429 244.755161 
L 359.346349 244.843513 
L 359.262329 244.903143 
L 359.262329 244.900203 
L 358.926249 244.999489 
L 358.842229 245.060997 
L 358.842229 245.058104 
L 358.506149 245.159308 
L 358.422129 245.226896 
L 358.422129 245.224055 
L 358.086049 245.311571 
L 358.002029 245.380925 
L 358.002029 245.376727 
L 357.665949 245.452496 
L 357.581929 245.505693 
L 357.24585 245.592216 
L 357.16183 245.66114 
L 356.82575 245.756613 
L 356.74173 245.82183 
L 356.74173 245.817805 
L 356.40565 245.916642 
L 356.32163 245.987556 
L 356.32163 245.982291 
L 355.98555 246.079119 
L 355.90153 246.151651 
L 355.90153 246.14907 
L 355.56545 246.226054 
L 355.48143 246.286323 
L 355.14535 246.37848 
L 355.06133 246.45067 
L 355.06133 246.420526 
L 354.725251 246.518828 
L 354.641231 246.590387 
L 354.641231 246.580497 
L 354.305151 246.683295 
L 354.221131 246.756471 
L 354.221131 246.743147 
L 353.885051 246.838308 
L 353.801031 246.909612 
L 353.801031 246.908424 
L 353.464951 246.991563 
L 353.380931 247.062291 
L 353.380931 247.061123 
L 353.128871 247.136641 
L 353.044851 247.212214 
L 353.044851 247.211073 
L 352.708771 247.31558 
L 352.624752 247.391417 
L 352.288672 247.488886 
L 352.204652 247.560738 
L 352.204652 247.548793 
L 351.868572 247.634525 
L 351.784552 247.709309 
L 351.532492 247.783154 
L 351.448472 247.85506 
L 351.448472 247.848814 
L 351.196412 247.924071 
L 351.112392 247.998427 
L 351.112392 247.992326 
L 350.860332 248.067906 
L 350.776312 248.141619 
L 350.776312 248.139635 
L 350.440232 248.241787 
L 350.356212 248.31799 
L 350.356212 248.317027 
L 350.020133 248.423077 
L 349.936113 248.495982 
L 349.936113 248.492249 
L 349.684053 248.566349 
L 349.600033 248.643372 
L 349.600033 248.638832 
L 349.347973 248.711567 
L 349.263953 248.788087 
L 349.263953 248.782786 
L 349.011893 248.860408 
L 348.927873 248.926134 
L 348.507773 249.016525 
L 348.423753 249.078223 
L 348.423753 249.076523 
L 348.171693 249.155622 
L 348.087673 249.197633 
L 348.087673 249.196797 
L 347.835614 249.270333 
L 347.751594 249.347492 
L 347.751594 249.345064 
L 347.499534 249.423341 
L 347.415514 249.504212 
L 347.415514 249.50109 
L 347.163454 249.576054 
L 347.079434 249.656688 
L 347.079434 249.655935 
L 346.827374 249.736782 
L 346.743354 249.82071 
L 346.743354 249.817826 
L 346.407274 249.925039 
L 346.323254 249.995171 
L 346.323254 249.991702 
L 346.071194 250.071414 
L 345.987174 250.152785 
L 345.987174 250.147466 
L 345.735114 250.224022 
L 345.651094 250.301728 
L 345.315015 250.398399 
L 345.230995 250.484524 
L 345.230995 250.478434 
L 344.978935 250.560135 
L 344.894915 250.645141 
L 344.894915 250.631797 
L 344.558835 250.737633 
L 344.474815 250.825492 
L 344.474815 250.822198 
L 344.222755 250.906634 
L 344.138735 250.996656 
L 344.138735 250.983749 
L 343.886675 251.072335 
L 343.802655 251.161635 
L 343.802655 251.152448 
L 343.550595 251.230585 
L 343.466575 251.31705 
L 343.466575 251.29966 
L 343.214516 251.383353 
L 343.130496 251.432574 
L 343.130496 251.427672 
L 342.794416 251.514075 
L 342.710396 251.600254 
L 342.710396 251.596859 
L 342.458336 251.691857 
L 342.374316 251.787928 
L 342.374316 251.787164 
L 342.122256 251.885371 
L 342.038236 251.980687 
L 341.786176 252.073771 
L 341.702156 252.172079 
L 341.702156 252.171785 
L 341.450096 252.270403 
L 341.366076 252.372182 
L 341.366076 252.371441 
L 341.114016 252.465271 
L 341.029996 252.568507 
L 341.029996 252.565679 
L 340.777937 252.645796 
L 340.693917 252.732448 
L 340.693917 252.731408 
L 340.525877 252.785188 
L 340.441857 252.869555 
L 340.441857 252.865283 
L 340.189797 252.971358 
L 340.105777 253.08757 
L 340.105777 253.083764 
L 339.937737 253.134638 
L 339.853717 253.287788 
L 339.853717 253.271434 
L 339.769697 253.271434 
L 339.769697 253.364955 
L 339.769697 43.315045 
L 339.769697 43.315045 
" clip-path="url(#p2d17ee7820)" style="fill: none; stroke: #1f77b4; stroke-width: 1.5; stroke-linecap: square"/>
   </g>
   <g id="patch_9">
    <path d="M 337.669198 255.465455 
L 337.669198 41.214545 
" style="fill: none; stroke: #000000; stroke-width: 0.8; stroke-linejoin: miter; stroke-linecap: square"/>
   </g>
   <g id="patch_10">
    <path d="M 551.920107 255.465455 
L 551.920107 41.214545 
" style="fill: none; stroke: #000000; stroke-width: 0.8; stroke-linejoin: miter; stroke-linecap: square"/>
   </g>
   <g id="patch_11">
    <path d="M 337.669198 255.465455 
L 551.920107 255.465455 
" style="fill: none; stroke: #000000; stroke-width: 0.8; stroke-linejoin: miter; stroke-linecap: square"/>
   </g>
   <g id="patch_12">
    <path d="M 337.669198 41.214545 
L 551.920107 41.214545 
" style="fill: none; stroke: #000000; stroke-width: 0.8; stroke-linejoin: miter; stroke-linecap: square"/>
   </g>
   <g id="text_31">
    <!-- Precision-Recall Curve -->
    <g transform="translate(378.352152 35.214545) scale(0.12 -0.12)">
     <defs>
      <path id="DejaVuSans-2d" d="M 313 2009 
L 1997 2009 
L 1997 1497 
L 313 1497 
L 313 2009 
z
" transform="scale(0.015625)"/>
     </defs>
     <use xlink:href="#DejaVuSans-50"/>
     <use xlink:href="#DejaVuSans-72" transform="translate(58.552734 0)"/>
     <use xlink:href="#DejaVuSans-65" transform="translate(97.416016 0)"/>
     <use xlink:href="#DejaVuSans-63" transform="translate(158.939453 0)"/>
     <use xlink:href="#DejaVuSans-69" transform="translate(213.919922 0)"/>
     <use xlink:href="#DejaVuSans-73" transform="translate(241.703125 0)"/>
     <use xlink:href="#DejaVuSans-69" transform="translate(293.802734 0)"/>
     <use xlink:href="#DejaVuSans-6f" transform="translate(321.585938 0)"/>
     <use xlink:href="#DejaVuSans-6e" transform="translate(382.767578 0)"/>
     <use xlink:href="#DejaVuSans-2d" transform="translate(446.146484 0)"/>
     <use xlink:href="#DejaVuSans-52" transform="translate(482.230469 0)"/>
     <use xlink:href="#DejaVuSans-65" transform="translate(547.212891 0)"/>
     <use xlink:href="#DejaVuSans-63" transform="translate(608.736328 0)"/>
     <use xlink:href="#DejaVuSans-61" transform="translate(663.716797 0)"/>
     <use xlink:href="#DejaVuSans-6c" transform="translate(724.996094 0)"/>
     <use xlink:href="#DejaVuSans-6c" transform="translate(752.779297 0)"/>
     <use xlink:href="#DejaVuSans-20" transform="translate(780.5625 0)"/>
     <use xlink:href="#DejaVuSans-43" transform="translate(812.349609 0)"/>
     <use xlink:href="#DejaVuSans-75" transform="translate(882.173828 0)"/>
     <use xlink:href="#DejaVuSans-72" transform="translate(945.552734 0)"/>
     <use xlink:href="#DejaVuSans-76" transform="translate(986.666016 0)"/>
     <use xlink:href="#DejaVuSans-65" transform="translate(1045.845703 0)"/>
    </g>
   </g>
   <g id="legend_2">
    <g id="patch_13">
     <path d="M 344.669198 250.465455 
L 483.17076 250.465455 
Q 485.17076 250.465455 485.17076 248.465455 
L 485.17076 234.78733 
Q 485.17076 232.78733 483.17076 232.78733 
L 344.669198 232.78733 
Q 342.669198 232.78733 342.669198 234.78733 
L 342.669198 248.465455 
Q 342.669198 250.465455 344.669198 250.465455 
z
" style="fill: #ffffff; opacity: 0.8; stroke: #cccccc; stroke-linejoin: miter"/>
    </g>
    <g id="line2d_28">
     <path d="M 346.669198 240.885767 
L 356.669198 240.885767 
L 356.669198 240.885767 
L 366.669198 240.885767 
L 366.669198 240.885767 
" style="fill: none; stroke: #1f77b4; stroke-width: 1.5; stroke-linecap: square"/>
    </g>
    <g id="text_32">
     <!-- Classifier (AP = 0.13) -->
     <g transform="translate(374.669198 244.385767) scale(0.1 -0.1)">
      <defs>
       <path id="DejaVuSans-33" d="M 2597 2516 
Q 3050 2419 3304 2112 
Q 3559 1806 3559 1356 
Q 3559 666 3084 287 
Q 2609 -91 1734 -91 
Q 1441 -91 1130 -33 
Q 819 25 488 141 
L 488 750 
Q 750 597 1062 519 
Q 1375 441 1716 441 
Q 2309 441 2620 675 
Q 2931 909 2931 1356 
Q 2931 1769 2642 2001 
Q 2353 2234 1838 2234 
L 1294 2234 
L 1294 2753 
L 1863 2753 
Q 2328 2753 2575 2939 
Q 2822 3125 2822 3475 
Q 2822 3834 2567 4026 
Q 2313 4219 1838 4219 
Q 1578 4219 1281 4162 
Q 984 4106 628 3988 
L 628 4550 
Q 988 4650 1302 4700 
Q 1616 4750 1894 4750 
Q 2613 4750 3031 4423 
Q 3450 4097 3450 3541 
Q 3450 3153 3228 2886 
Q 3006 2619 2597 2516 
z
" transform="scale(0.015625)"/>
      </defs>
      <use xlink:href="#DejaVuSans-43"/>
      <use xlink:href="#DejaVuSans-6c" transform="translate(69.824219 0)"/>
      <use xlink:href="#DejaVuSans-61" transform="translate(97.607422 0)"/>
      <use xlink:href="#DejaVuSans-73" transform="translate(158.886719 0)"/>
      <use xlink:href="#DejaVuSans-73" transform="translate(210.986328 0)"/>
      <use xlink:href="#DejaVuSans-69" transform="translate(263.085938 0)"/>
      <use xlink:href="#DejaVuSans-66" transform="translate(290.869141 0)"/>
      <use xlink:href="#DejaVuSans-69" transform="translate(326.074219 0)"/>
      <use xlink:href="#DejaVuSans-65" transform="translate(353.857422 0)"/>
      <use xlink:href="#DejaVuSans-72" transform="translate(415.380859 0)"/>
      <use xlink:href="#DejaVuSans-20" transform="translate(456.494141 0)"/>
      <use xlink:href="#DejaVuSans-28" transform="translate(488.28125 0)"/>
      <use xlink:href="#DejaVuSans-41" transform="translate(527.294922 0)"/>
      <use xlink:href="#DejaVuSans-50" transform="translate(595.703125 0)"/>
      <use xlink:href="#DejaVuSans-20" transform="translate(656.005859 0)"/>
      <use xlink:href="#DejaVuSans-3d" transform="translate(687.792969 0)"/>
      <use xlink:href="#DejaVuSans-20" transform="translate(771.582031 0)"/>
      <use xlink:href="#DejaVuSans-30" transform="translate(803.369141 0)"/>
      <use xlink:href="#DejaVuSans-2e" transform="translate(866.992188 0)"/>
      <use xlink:href="#DejaVuSans-31" transform="translate(898.779297 0)"/>
      <use xlink:href="#DejaVuSans-33" transform="translate(962.402344 0)"/>
      <use xlink:href="#DejaVuSans-29" transform="translate(1026.025391 0)"/>
     </g>
    </g>
   </g>
  </g>
  <g id="text_33">
   <!-- OOD detection performance -->
   <g transform="translate(203.355938 14.878125) scale(0.12 -0.12)">
    <defs>
     <path id="DejaVuSans-44" d="M 1259 4147 
L 1259 519 
L 2022 519 
Q 2988 519 3436 956 
Q 3884 1394 3884 2338 
Q 3884 3275 3436 3711 
Q 2988 4147 2022 4147 
L 1259 4147 
z
M 628 4666 
L 1925 4666 
Q 3281 4666 3915 4102 
Q 4550 3538 4550 2338 
Q 4550 1131 3912 565 
Q 3275 0 1925 0 
L 628 0 
L 628 4666 
z
" transform="scale(0.015625)"/>
     <path id="DejaVuSans-64" d="M 2906 2969 
L 2906 4863 
L 3481 4863 
L 3481 0 
L 2906 0 
L 2906 525 
Q 2725 213 2448 61 
Q 2172 -91 1784 -91 
Q 1150 -91 751 415 
Q 353 922 353 1747 
Q 353 2572 751 3078 
Q 1150 3584 1784 3584 
Q 2172 3584 2448 3432 
Q 2725 3281 2906 2969 
z
M 947 1747 
Q 947 1113 1208 752 
Q 1469 391 1925 391 
Q 2381 391 2643 752 
Q 2906 1113 2906 1747 
Q 2906 2381 2643 2742 
Q 2381 3103 1925 3103 
Q 1469 3103 1208 2742 
Q 947 2381 947 1747 
z
" transform="scale(0.015625)"/>
     <path id="DejaVuSans-70" d="M 1159 525 
L 1159 -1331 
L 581 -1331 
L 581 3500 
L 1159 3500 
L 1159 2969 
Q 1341 3281 1617 3432 
Q 1894 3584 2278 3584 
Q 2916 3584 3314 3078 
Q 3713 2572 3713 1747 
Q 3713 922 3314 415 
Q 2916 -91 2278 -91 
Q 1894 -91 1617 61 
Q 1341 213 1159 525 
z
M 3116 1747 
Q 3116 2381 2855 2742 
Q 2594 3103 2138 3103 
Q 1681 3103 1420 2742 
Q 1159 2381 1159 1747 
Q 1159 1113 1420 752 
Q 1681 391 2138 391 
Q 2594 391 2855 752 
Q 3116 1113 3116 1747 
z
" transform="scale(0.015625)"/>
     <path id="DejaVuSans-6d" d="M 3328 2828 
Q 3544 3216 3844 3400 
Q 4144 3584 4550 3584 
Q 5097 3584 5394 3201 
Q 5691 2819 5691 2113 
L 5691 0 
L 5113 0 
L 5113 2094 
Q 5113 2597 4934 2840 
Q 4756 3084 4391 3084 
Q 3944 3084 3684 2787 
Q 3425 2491 3425 1978 
L 3425 0 
L 2847 0 
L 2847 2094 
Q 2847 2600 2669 2842 
Q 2491 3084 2119 3084 
Q 1678 3084 1418 2786 
Q 1159 2488 1159 1978 
L 1159 0 
L 581 0 
L 581 3500 
L 1159 3500 
L 1159 2956 
Q 1356 3278 1631 3431 
Q 1906 3584 2284 3584 
Q 2666 3584 2933 3390 
Q 3200 3197 3328 2828 
z
" transform="scale(0.015625)"/>
    </defs>
    <use xlink:href="#DejaVuSans-4f"/>
    <use xlink:href="#DejaVuSans-4f" transform="translate(78.710938 0)"/>
    <use xlink:href="#DejaVuSans-44" transform="translate(157.421875 0)"/>
    <use xlink:href="#DejaVuSans-20" transform="translate(234.423828 0)"/>
    <use xlink:href="#DejaVuSans-64" transform="translate(266.210938 0)"/>
    <use xlink:href="#DejaVuSans-65" transform="translate(329.6875 0)"/>
    <use xlink:href="#DejaVuSans-74" transform="translate(391.210938 0)"/>
    <use xlink:href="#DejaVuSans-65" transform="translate(430.419922 0)"/>
    <use xlink:href="#DejaVuSans-63" transform="translate(491.943359 0)"/>
    <use xlink:href="#DejaVuSans-74" transform="translate(546.923828 0)"/>
    <use xlink:href="#DejaVuSans-69" transform="translate(586.132812 0)"/>
    <use xlink:href="#DejaVuSans-6f" transform="translate(613.916016 0)"/>
    <use xlink:href="#DejaVuSans-6e" transform="translate(675.097656 0)"/>
    <use xlink:href="#DejaVuSans-20" transform="translate(738.476562 0)"/>
    <use xlink:href="#DejaVuSans-70" transform="translate(770.263672 0)"/>
    <use xlink:href="#DejaVuSans-65" transform="translate(833.740234 0)"/>
    <use xlink:href="#DejaVuSans-72" transform="translate(895.263672 0)"/>
    <use xlink:href="#DejaVuSans-66" transform="translate(936.376953 0)"/>
    <use xlink:href="#DejaVuSans-6f" transform="translate(971.582031 0)"/>
    <use xlink:href="#DejaVuSans-72" transform="translate(1032.763672 0)"/>
    <use xlink:href="#DejaVuSans-6d" transform="translate(1072.126953 0)"/>
    <use xlink:href="#DejaVuSans-61" transform="translate(1169.539062 0)"/>
    <use xlink:href="#DejaVuSans-6e" transform="translate(1230.818359 0)"/>
    <use xlink:href="#DejaVuSans-63" transform="translate(1294.197266 0)"/>
    <use xlink:href="#DejaVuSans-65" transform="translate(1349.177734 0)"/>
   </g>
  </g>
 </g>
 <defs>
  <clipPath id="p33bce12c4e">
   <rect x="55.069198" y="41.214545" width="214.250909" height="214.250909"/>
  </clipPath>
  <clipPath id="p2d17ee7820">
   <rect x="337.669198" y="41.214545" width="214.250909" height="214.250909"/>
  </clipPath>
 </defs>
</svg>
