<?xml version="1.0" encoding="utf-8" standalone="no"?>
<!DOCTYPE svg PUBLIC "-//W3C//DTD SVG 1.1//EN"
  "http://www.w3.org/Graphics/SVG/1.1/DTD/svg11.dtd">
<svg xmlns:xlink="http://www.w3.org/1999/xlink" width="576pt" height="288pt" viewBox="0 0 576 288" xmlns="http://www.w3.org/2000/svg" version="1.1">
 <metadata>
  <rdf:RDF xmlns:dc="http://purl.org/dc/elements/1.1/" xmlns:cc="http://creativecommons.org/ns#" xmlns:rdf="http://www.w3.org/1999/02/22-rdf-syntax-ns#">
   <cc:Work>
    <dc:type rdf:resource="http://purl.org/dc/dcmitype/StillImage"/>
    <dc:date>2025-05-24T20:03:18.635816</dc:date>
    <dc:format>image/svg+xml</dc:format>
    <dc:creator>
     <cc:Agent>
      <dc:title>Matplotlib v3.10.1, https://matplotlib.org/</dc:title>
     </cc:Agent>
    </dc:creator>
   </cc:Work>
  </rdf:RDF>
 </metadata>
 <defs>
  <style type="text/css">*{stroke-linejoin: round; stroke-linecap: butt}</style>
 </defs>
 <g id="figure_1">
  <g id="patch_1">
   <path d="M 0 288 
L 576 288 
L 576 0 
L 0 0 
z
" style="fill: #ffffff"/>
  </g>
  <g id="axes_1">
   <g id="patch_2">
    <path d="M 47.72 250.934652 
L 276.669305 250.934652 
L 276.669305 21.985348 
L 47.72 21.985348 
z
" style="fill: #ffffff"/>
   </g>
   <g id="matplotlib.axis_1">
    <g id="xtick_1">
     <g id="line2d_1">
      <defs>
       <path id="m5516421736" d="M 0 0 
L 0 3.5 
" style="stroke: #000000; stroke-width: 0.8"/>
      </defs>
      <g>
       <use xlink:href="#m5516421736" x="49.964601" y="250.934652" style="stroke: #000000; stroke-width: 0.8"/>
      </g>
     </g>
     <g id="text_1">
      <!-- 0.0 -->
      <g transform="translate(42.013039 265.53309) scale(0.1 -0.1)">
       <defs>
        <path id="DejaVuSans-30" d="M 2034 4250 
Q 1547 4250 1301 3770 
Q 1056 3291 1056 2328 
Q 1056 1369 1301 889 
Q 1547 409 2034 409 
Q 2525 409 2770 889 
Q 3016 1369 3016 2328 
Q 3016 3291 2770 3770 
Q 2525 4250 2034 4250 
z
M 2034 4750 
Q 2819 4750 3233 4129 
Q 3647 3509 3647 2328 
Q 3647 1150 3233 529 
Q 2819 -91 2034 -91 
Q 1250 -91 836 529 
Q 422 1150 422 2328 
Q 422 3509 836 4129 
Q 1250 4750 2034 4750 
z
" transform="scale(0.015625)"/>
        <path id="DejaVuSans-2e" d="M 684 794 
L 1344 794 
L 1344 0 
L 684 0 
L 684 794 
z
" transform="scale(0.015625)"/>
       </defs>
       <use xlink:href="#DejaVuSans-30"/>
       <use xlink:href="#DejaVuSans-2e" transform="translate(63.623047 0)"/>
       <use xlink:href="#DejaVuSans-30" transform="translate(95.410156 0)"/>
      </g>
     </g>
    </g>
    <g id="xtick_2">
     <g id="line2d_2">
      <g>
       <use xlink:href="#m5516421736" x="94.856622" y="250.934652" style="stroke: #000000; stroke-width: 0.8"/>
      </g>
     </g>
     <g id="text_2">
      <!-- 0.2 -->
      <g transform="translate(86.905059 265.53309) scale(0.1 -0.1)">
       <defs>
        <path id="DejaVuSans-32" d="M 1228 531 
L 3431 531 
L 3431 0 
L 469 0 
L 469 531 
Q 828 903 1448 1529 
Q 2069 2156 2228 2338 
Q 2531 2678 2651 2914 
Q 2772 3150 2772 3378 
Q 2772 3750 2511 3984 
Q 2250 4219 1831 4219 
Q 1534 4219 1204 4116 
Q 875 4013 500 3803 
L 500 4441 
Q 881 4594 1212 4672 
Q 1544 4750 1819 4750 
Q 2544 4750 2975 4387 
Q 3406 4025 3406 3419 
Q 3406 3131 3298 2873 
Q 3191 2616 2906 2266 
Q 2828 2175 2409 1742 
Q 1991 1309 1228 531 
z
" transform="scale(0.015625)"/>
       </defs>
       <use xlink:href="#DejaVuSans-30"/>
       <use xlink:href="#DejaVuSans-2e" transform="translate(63.623047 0)"/>
       <use xlink:href="#DejaVuSans-32" transform="translate(95.410156 0)"/>
      </g>
     </g>
    </g>
    <g id="xtick_3">
     <g id="line2d_3">
      <g>
       <use xlink:href="#m5516421736" x="139.748642" y="250.934652" style="stroke: #000000; stroke-width: 0.8"/>
      </g>
     </g>
     <g id="text_3">
      <!-- 0.4 -->
      <g transform="translate(131.79708 265.53309) scale(0.1 -0.1)">
       <defs>
        <path id="DejaVuSans-34" d="M 2419 4116 
L 825 1625 
L 2419 1625 
L 2419 4116 
z
M 2253 4666 
L 3047 4666 
L 3047 1625 
L 3713 1625 
L 3713 1100 
L 3047 1100 
L 3047 0 
L 2419 0 
L 2419 1100 
L 313 1100 
L 313 1709 
L 2253 4666 
z
" transform="scale(0.015625)"/>
       </defs>
       <use xlink:href="#DejaVuSans-30"/>
       <use xlink:href="#DejaVuSans-2e" transform="translate(63.623047 0)"/>
       <use xlink:href="#DejaVuSans-34" transform="translate(95.410156 0)"/>
      </g>
     </g>
    </g>
    <g id="xtick_4">
     <g id="line2d_4">
      <g>
       <use xlink:href="#m5516421736" x="184.640663" y="250.934652" style="stroke: #000000; stroke-width: 0.8"/>
      </g>
     </g>
     <g id="text_4">
      <!-- 0.6 -->
      <g transform="translate(176.6891 265.53309) scale(0.1 -0.1)">
       <defs>
        <path id="DejaVuSans-36" d="M 2113 2584 
Q 1688 2584 1439 2293 
Q 1191 2003 1191 1497 
Q 1191 994 1439 701 
Q 1688 409 2113 409 
Q 2538 409 2786 701 
Q 3034 994 3034 1497 
Q 3034 2003 2786 2293 
Q 2538 2584 2113 2584 
z
M 3366 4563 
L 3366 3988 
Q 3128 4100 2886 4159 
Q 2644 4219 2406 4219 
Q 1781 4219 1451 3797 
Q 1122 3375 1075 2522 
Q 1259 2794 1537 2939 
Q 1816 3084 2150 3084 
Q 2853 3084 3261 2657 
Q 3669 2231 3669 1497 
Q 3669 778 3244 343 
Q 2819 -91 2113 -91 
Q 1303 -91 875 529 
Q 447 1150 447 2328 
Q 447 3434 972 4092 
Q 1497 4750 2381 4750 
Q 2619 4750 2861 4703 
Q 3103 4656 3366 4563 
z
" transform="scale(0.015625)"/>
       </defs>
       <use xlink:href="#DejaVuSans-30"/>
       <use xlink:href="#DejaVuSans-2e" transform="translate(63.623047 0)"/>
       <use xlink:href="#DejaVuSans-36" transform="translate(95.410156 0)"/>
      </g>
     </g>
    </g>
    <g id="xtick_5">
     <g id="line2d_5">
      <g>
       <use xlink:href="#m5516421736" x="229.532683" y="250.934652" style="stroke: #000000; stroke-width: 0.8"/>
      </g>
     </g>
     <g id="text_5">
      <!-- 0.8 -->
      <g transform="translate(221.581121 265.53309) scale(0.1 -0.1)">
       <defs>
        <path id="DejaVuSans-38" d="M 2034 2216 
Q 1584 2216 1326 1975 
Q 1069 1734 1069 1313 
Q 1069 891 1326 650 
Q 1584 409 2034 409 
Q 2484 409 2743 651 
Q 3003 894 3003 1313 
Q 3003 1734 2745 1975 
Q 2488 2216 2034 2216 
z
M 1403 2484 
Q 997 2584 770 2862 
Q 544 3141 544 3541 
Q 544 4100 942 4425 
Q 1341 4750 2034 4750 
Q 2731 4750 3128 4425 
Q 3525 4100 3525 3541 
Q 3525 3141 3298 2862 
Q 3072 2584 2669 2484 
Q 3125 2378 3379 2068 
Q 3634 1759 3634 1313 
Q 3634 634 3220 271 
Q 2806 -91 2034 -91 
Q 1263 -91 848 271 
Q 434 634 434 1313 
Q 434 1759 690 2068 
Q 947 2378 1403 2484 
z
M 1172 3481 
Q 1172 3119 1398 2916 
Q 1625 2713 2034 2713 
Q 2441 2713 2670 2916 
Q 2900 3119 2900 3481 
Q 2900 3844 2670 4047 
Q 2441 4250 2034 4250 
Q 1625 4250 1398 4047 
Q 1172 3844 1172 3481 
z
" transform="scale(0.015625)"/>
       </defs>
       <use xlink:href="#DejaVuSans-30"/>
       <use xlink:href="#DejaVuSans-2e" transform="translate(63.623047 0)"/>
       <use xlink:href="#DejaVuSans-38" transform="translate(95.410156 0)"/>
      </g>
     </g>
    </g>
    <g id="xtick_6">
     <g id="line2d_6">
      <g>
       <use xlink:href="#m5516421736" x="274.424704" y="250.934652" style="stroke: #000000; stroke-width: 0.8"/>
      </g>
     </g>
     <g id="text_6">
      <!-- 1.0 -->
      <g transform="translate(266.473141 265.53309) scale(0.1 -0.1)">
       <defs>
        <path id="DejaVuSans-31" d="M 794 531 
L 1825 531 
L 1825 4091 
L 703 3866 
L 703 4441 
L 1819 4666 
L 2450 4666 
L 2450 531 
L 3481 531 
L 3481 0 
L 794 0 
L 794 531 
z
" transform="scale(0.015625)"/>
       </defs>
       <use xlink:href="#DejaVuSans-31"/>
       <use xlink:href="#DejaVuSans-2e" transform="translate(63.623047 0)"/>
       <use xlink:href="#DejaVuSans-30" transform="translate(95.410156 0)"/>
      </g>
     </g>
    </g>
    <g id="text_7">
     <!-- False Positive Rate (Positive label: 1) -->
     <g transform="translate(70.829027 279.211215) scale(0.1 -0.1)">
      <defs>
       <path id="DejaVuSans-46" d="M 628 4666 
L 3309 4666 
L 3309 4134 
L 1259 4134 
L 1259 2759 
L 3109 2759 
L 3109 2228 
L 1259 2228 
L 1259 0 
L 628 0 
L 628 4666 
z
" transform="scale(0.015625)"/>
       <path id="DejaVuSans-61" d="M 2194 1759 
Q 1497 1759 1228 1600 
Q 959 1441 959 1056 
Q 959 750 1161 570 
Q 1363 391 1709 391 
Q 2188 391 2477 730 
Q 2766 1069 2766 1631 
L 2766 1759 
L 2194 1759 
z
M 3341 1997 
L 3341 0 
L 2766 0 
L 2766 531 
Q 2569 213 2275 61 
Q 1981 -91 1556 -91 
Q 1019 -91 701 211 
Q 384 513 384 1019 
Q 384 1609 779 1909 
Q 1175 2209 1959 2209 
L 2766 2209 
L 2766 2266 
Q 2766 2663 2505 2880 
Q 2244 3097 1772 3097 
Q 1472 3097 1187 3025 
Q 903 2953 641 2809 
L 641 3341 
Q 956 3463 1253 3523 
Q 1550 3584 1831 3584 
Q 2591 3584 2966 3190 
Q 3341 2797 3341 1997 
z
" transform="scale(0.015625)"/>
       <path id="DejaVuSans-6c" d="M 603 4863 
L 1178 4863 
L 1178 0 
L 603 0 
L 603 4863 
z
" transform="scale(0.015625)"/>
       <path id="DejaVuSans-73" d="M 2834 3397 
L 2834 2853 
Q 2591 2978 2328 3040 
Q 2066 3103 1784 3103 
Q 1356 3103 1142 2972 
Q 928 2841 928 2578 
Q 928 2378 1081 2264 
Q 1234 2150 1697 2047 
L 1894 2003 
Q 2506 1872 2764 1633 
Q 3022 1394 3022 966 
Q 3022 478 2636 193 
Q 2250 -91 1575 -91 
Q 1294 -91 989 -36 
Q 684 19 347 128 
L 347 722 
Q 666 556 975 473 
Q 1284 391 1588 391 
Q 1994 391 2212 530 
Q 2431 669 2431 922 
Q 2431 1156 2273 1281 
Q 2116 1406 1581 1522 
L 1381 1569 
Q 847 1681 609 1914 
Q 372 2147 372 2553 
Q 372 3047 722 3315 
Q 1072 3584 1716 3584 
Q 2034 3584 2315 3537 
Q 2597 3491 2834 3397 
z
" transform="scale(0.015625)"/>
       <path id="DejaVuSans-65" d="M 3597 1894 
L 3597 1613 
L 953 1613 
Q 991 1019 1311 708 
Q 1631 397 2203 397 
Q 2534 397 2845 478 
Q 3156 559 3463 722 
L 3463 178 
Q 3153 47 2828 -22 
Q 2503 -91 2169 -91 
Q 1331 -91 842 396 
Q 353 884 353 1716 
Q 353 2575 817 3079 
Q 1281 3584 2069 3584 
Q 2775 3584 3186 3129 
Q 3597 2675 3597 1894 
z
M 3022 2063 
Q 3016 2534 2758 2815 
Q 2500 3097 2075 3097 
Q 1594 3097 1305 2825 
Q 1016 2553 972 2059 
L 3022 2063 
z
" transform="scale(0.015625)"/>
       <path id="DejaVuSans-20" transform="scale(0.015625)"/>
       <path id="DejaVuSans-50" d="M 1259 4147 
L 1259 2394 
L 2053 2394 
Q 2494 2394 2734 2622 
Q 2975 2850 2975 3272 
Q 2975 3691 2734 3919 
Q 2494 4147 2053 4147 
L 1259 4147 
z
M 628 4666 
L 2053 4666 
Q 2838 4666 3239 4311 
Q 3641 3956 3641 3272 
Q 3641 2581 3239 2228 
Q 2838 1875 2053 1875 
L 1259 1875 
L 1259 0 
L 628 0 
L 628 4666 
z
" transform="scale(0.015625)"/>
       <path id="DejaVuSans-6f" d="M 1959 3097 
Q 1497 3097 1228 2736 
Q 959 2375 959 1747 
Q 959 1119 1226 758 
Q 1494 397 1959 397 
Q 2419 397 2687 759 
Q 2956 1122 2956 1747 
Q 2956 2369 2687 2733 
Q 2419 3097 1959 3097 
z
M 1959 3584 
Q 2709 3584 3137 3096 
Q 3566 2609 3566 1747 
Q 3566 888 3137 398 
Q 2709 -91 1959 -91 
Q 1206 -91 779 398 
Q 353 888 353 1747 
Q 353 2609 779 3096 
Q 1206 3584 1959 3584 
z
" transform="scale(0.015625)"/>
       <path id="DejaVuSans-69" d="M 603 3500 
L 1178 3500 
L 1178 0 
L 603 0 
L 603 3500 
z
M 603 4863 
L 1178 4863 
L 1178 4134 
L 603 4134 
L 603 4863 
z
" transform="scale(0.015625)"/>
       <path id="DejaVuSans-74" d="M 1172 4494 
L 1172 3500 
L 2356 3500 
L 2356 3053 
L 1172 3053 
L 1172 1153 
Q 1172 725 1289 603 
Q 1406 481 1766 481 
L 2356 481 
L 2356 0 
L 1766 0 
Q 1100 0 847 248 
Q 594 497 594 1153 
L 594 3053 
L 172 3053 
L 172 3500 
L 594 3500 
L 594 4494 
L 1172 4494 
z
" transform="scale(0.015625)"/>
       <path id="DejaVuSans-76" d="M 191 3500 
L 800 3500 
L 1894 563 
L 2988 3500 
L 3597 3500 
L 2284 0 
L 1503 0 
L 191 3500 
z
" transform="scale(0.015625)"/>
       <path id="DejaVuSans-52" d="M 2841 2188 
Q 3044 2119 3236 1894 
Q 3428 1669 3622 1275 
L 4263 0 
L 3584 0 
L 2988 1197 
Q 2756 1666 2539 1819 
Q 2322 1972 1947 1972 
L 1259 1972 
L 1259 0 
L 628 0 
L 628 4666 
L 2053 4666 
Q 2853 4666 3247 4331 
Q 3641 3997 3641 3322 
Q 3641 2881 3436 2590 
Q 3231 2300 2841 2188 
z
M 1259 4147 
L 1259 2491 
L 2053 2491 
Q 2509 2491 2742 2702 
Q 2975 2913 2975 3322 
Q 2975 3731 2742 3939 
Q 2509 4147 2053 4147 
L 1259 4147 
z
" transform="scale(0.015625)"/>
       <path id="DejaVuSans-28" d="M 1984 4856 
Q 1566 4138 1362 3434 
Q 1159 2731 1159 2009 
Q 1159 1288 1364 580 
Q 1569 -128 1984 -844 
L 1484 -844 
Q 1016 -109 783 600 
Q 550 1309 550 2009 
Q 550 2706 781 3412 
Q 1013 4119 1484 4856 
L 1984 4856 
z
" transform="scale(0.015625)"/>
       <path id="DejaVuSans-62" d="M 3116 1747 
Q 3116 2381 2855 2742 
Q 2594 3103 2138 3103 
Q 1681 3103 1420 2742 
Q 1159 2381 1159 1747 
Q 1159 1113 1420 752 
Q 1681 391 2138 391 
Q 2594 391 2855 752 
Q 3116 1113 3116 1747 
z
M 1159 2969 
Q 1341 3281 1617 3432 
Q 1894 3584 2278 3584 
Q 2916 3584 3314 3078 
Q 3713 2572 3713 1747 
Q 3713 922 3314 415 
Q 2916 -91 2278 -91 
Q 1894 -91 1617 61 
Q 1341 213 1159 525 
L 1159 0 
L 581 0 
L 581 4863 
L 1159 4863 
L 1159 2969 
z
" transform="scale(0.015625)"/>
       <path id="DejaVuSans-3a" d="M 750 794 
L 1409 794 
L 1409 0 
L 750 0 
L 750 794 
z
M 750 3309 
L 1409 3309 
L 1409 2516 
L 750 2516 
L 750 3309 
z
" transform="scale(0.015625)"/>
       <path id="DejaVuSans-29" d="M 513 4856 
L 1013 4856 
Q 1481 4119 1714 3412 
Q 1947 2706 1947 2009 
Q 1947 1309 1714 600 
Q 1481 -109 1013 -844 
L 513 -844 
Q 928 -128 1133 580 
Q 1338 1288 1338 2009 
Q 1338 2731 1133 3434 
Q 928 4138 513 4856 
z
" transform="scale(0.015625)"/>
      </defs>
      <use xlink:href="#DejaVuSans-46"/>
      <use xlink:href="#DejaVuSans-61" transform="translate(48.394531 0)"/>
      <use xlink:href="#DejaVuSans-6c" transform="translate(109.673828 0)"/>
      <use xlink:href="#DejaVuSans-73" transform="translate(137.457031 0)"/>
      <use xlink:href="#DejaVuSans-65" transform="translate(189.556641 0)"/>
      <use xlink:href="#DejaVuSans-20" transform="translate(251.080078 0)"/>
      <use xlink:href="#DejaVuSans-50" transform="translate(282.867188 0)"/>
      <use xlink:href="#DejaVuSans-6f" transform="translate(339.544922 0)"/>
      <use xlink:href="#DejaVuSans-73" transform="translate(400.726562 0)"/>
      <use xlink:href="#DejaVuSans-69" transform="translate(452.826172 0)"/>
      <use xlink:href="#DejaVuSans-74" transform="translate(480.609375 0)"/>
      <use xlink:href="#DejaVuSans-69" transform="translate(519.818359 0)"/>
      <use xlink:href="#DejaVuSans-76" transform="translate(547.601562 0)"/>
      <use xlink:href="#DejaVuSans-65" transform="translate(606.78125 0)"/>
      <use xlink:href="#DejaVuSans-20" transform="translate(668.304688 0)"/>
      <use xlink:href="#DejaVuSans-52" transform="translate(700.091797 0)"/>
      <use xlink:href="#DejaVuSans-61" transform="translate(767.324219 0)"/>
      <use xlink:href="#DejaVuSans-74" transform="translate(828.603516 0)"/>
      <use xlink:href="#DejaVuSans-65" transform="translate(867.8125 0)"/>
      <use xlink:href="#DejaVuSans-20" transform="translate(929.335938 0)"/>
      <use xlink:href="#DejaVuSans-28" transform="translate(961.123047 0)"/>
      <use xlink:href="#DejaVuSans-50" transform="translate(1000.136719 0)"/>
      <use xlink:href="#DejaVuSans-6f" transform="translate(1056.814453 0)"/>
      <use xlink:href="#DejaVuSans-73" transform="translate(1117.996094 0)"/>
      <use xlink:href="#DejaVuSans-69" transform="translate(1170.095703 0)"/>
      <use xlink:href="#DejaVuSans-74" transform="translate(1197.878906 0)"/>
      <use xlink:href="#DejaVuSans-69" transform="translate(1237.087891 0)"/>
      <use xlink:href="#DejaVuSans-76" transform="translate(1264.871094 0)"/>
      <use xlink:href="#DejaVuSans-65" transform="translate(1324.050781 0)"/>
      <use xlink:href="#DejaVuSans-20" transform="translate(1385.574219 0)"/>
      <use xlink:href="#DejaVuSans-6c" transform="translate(1417.361328 0)"/>
      <use xlink:href="#DejaVuSans-61" transform="translate(1445.144531 0)"/>
      <use xlink:href="#DejaVuSans-62" transform="translate(1506.423828 0)"/>
      <use xlink:href="#DejaVuSans-65" transform="translate(1569.900391 0)"/>
      <use xlink:href="#DejaVuSans-6c" transform="translate(1631.423828 0)"/>
      <use xlink:href="#DejaVuSans-3a" transform="translate(1659.207031 0)"/>
      <use xlink:href="#DejaVuSans-20" transform="translate(1692.898438 0)"/>
      <use xlink:href="#DejaVuSans-31" transform="translate(1724.685547 0)"/>
      <use xlink:href="#DejaVuSans-29" transform="translate(1788.308594 0)"/>
     </g>
    </g>
   </g>
   <g id="matplotlib.axis_2">
    <g id="ytick_1">
     <g id="line2d_7">
      <defs>
       <path id="m1ac671c2be" d="M 0 0 
L -3.5 0 
" style="stroke: #000000; stroke-width: 0.8"/>
      </defs>
      <g>
       <use xlink:href="#m1ac671c2be" x="47.72" y="248.690051" style="stroke: #000000; stroke-width: 0.8"/>
      </g>
     </g>
     <g id="text_8">
      <!-- 0.0 -->
      <g transform="translate(24.816875 252.48927) scale(0.1 -0.1)">
       <use xlink:href="#DejaVuSans-30"/>
       <use xlink:href="#DejaVuSans-2e" transform="translate(63.623047 0)"/>
       <use xlink:href="#DejaVuSans-30" transform="translate(95.410156 0)"/>
      </g>
     </g>
    </g>
    <g id="ytick_2">
     <g id="line2d_8">
      <g>
       <use xlink:href="#m1ac671c2be" x="47.72" y="203.798031" style="stroke: #000000; stroke-width: 0.8"/>
      </g>
     </g>
     <g id="text_9">
      <!-- 0.2 -->
      <g transform="translate(24.816875 207.59725) scale(0.1 -0.1)">
       <use xlink:href="#DejaVuSans-30"/>
       <use xlink:href="#DejaVuSans-2e" transform="translate(63.623047 0)"/>
       <use xlink:href="#DejaVuSans-32" transform="translate(95.410156 0)"/>
      </g>
     </g>
    </g>
    <g id="ytick_3">
     <g id="line2d_9">
      <g>
       <use xlink:href="#m1ac671c2be" x="47.72" y="158.90601" style="stroke: #000000; stroke-width: 0.8"/>
      </g>
     </g>
     <g id="text_10">
      <!-- 0.4 -->
      <g transform="translate(24.816875 162.705229) scale(0.1 -0.1)">
       <use xlink:href="#DejaVuSans-30"/>
       <use xlink:href="#DejaVuSans-2e" transform="translate(63.623047 0)"/>
       <use xlink:href="#DejaVuSans-34" transform="translate(95.410156 0)"/>
      </g>
     </g>
    </g>
    <g id="ytick_4">
     <g id="line2d_10">
      <g>
       <use xlink:href="#m1ac671c2be" x="47.72" y="114.01399" style="stroke: #000000; stroke-width: 0.8"/>
      </g>
     </g>
     <g id="text_11">
      <!-- 0.6 -->
      <g transform="translate(24.816875 117.813208) scale(0.1 -0.1)">
       <use xlink:href="#DejaVuSans-30"/>
       <use xlink:href="#DejaVuSans-2e" transform="translate(63.623047 0)"/>
       <use xlink:href="#DejaVuSans-36" transform="translate(95.410156 0)"/>
      </g>
     </g>
    </g>
    <g id="ytick_5">
     <g id="line2d_11">
      <g>
       <use xlink:href="#m1ac671c2be" x="47.72" y="69.121969" style="stroke: #000000; stroke-width: 0.8"/>
      </g>
     </g>
     <g id="text_12">
      <!-- 0.8 -->
      <g transform="translate(24.816875 72.921188) scale(0.1 -0.1)">
       <use xlink:href="#DejaVuSans-30"/>
       <use xlink:href="#DejaVuSans-2e" transform="translate(63.623047 0)"/>
       <use xlink:href="#DejaVuSans-38" transform="translate(95.410156 0)"/>
      </g>
     </g>
    </g>
    <g id="ytick_6">
     <g id="line2d_12">
      <g>
       <use xlink:href="#m1ac671c2be" x="47.72" y="24.229949" style="stroke: #000000; stroke-width: 0.8"/>
      </g>
     </g>
     <g id="text_13">
      <!-- 1.0 -->
      <g transform="translate(24.816875 28.029167) scale(0.1 -0.1)">
       <use xlink:href="#DejaVuSans-31"/>
       <use xlink:href="#DejaVuSans-2e" transform="translate(63.623047 0)"/>
       <use xlink:href="#DejaVuSans-30" transform="translate(95.410156 0)"/>
      </g>
     </g>
    </g>
    <g id="text_14">
     <!-- True Positive Rate (Positive label: 1) -->
     <g transform="translate(18.737188 225.888906) rotate(-90) scale(0.1 -0.1)">
      <defs>
       <path id="DejaVuSans-54" d="M -19 4666 
L 3928 4666 
L 3928 4134 
L 2272 4134 
L 2272 0 
L 1638 0 
L 1638 4134 
L -19 4134 
L -19 4666 
z
" transform="scale(0.015625)"/>
       <path id="DejaVuSans-72" d="M 2631 2963 
Q 2534 3019 2420 3045 
Q 2306 3072 2169 3072 
Q 1681 3072 1420 2755 
Q 1159 2438 1159 1844 
L 1159 0 
L 581 0 
L 581 3500 
L 1159 3500 
L 1159 2956 
Q 1341 3275 1631 3429 
Q 1922 3584 2338 3584 
Q 2397 3584 2469 3576 
Q 2541 3569 2628 3553 
L 2631 2963 
z
" transform="scale(0.015625)"/>
       <path id="DejaVuSans-75" d="M 544 1381 
L 544 3500 
L 1119 3500 
L 1119 1403 
Q 1119 906 1312 657 
Q 1506 409 1894 409 
Q 2359 409 2629 706 
Q 2900 1003 2900 1516 
L 2900 3500 
L 3475 3500 
L 3475 0 
L 2900 0 
L 2900 538 
Q 2691 219 2414 64 
Q 2138 -91 1772 -91 
Q 1169 -91 856 284 
Q 544 659 544 1381 
z
M 1991 3584 
L 1991 3584 
z
" transform="scale(0.015625)"/>
      </defs>
      <use xlink:href="#DejaVuSans-54"/>
      <use xlink:href="#DejaVuSans-72" transform="translate(46.333984 0)"/>
      <use xlink:href="#DejaVuSans-75" transform="translate(87.447266 0)"/>
      <use xlink:href="#DejaVuSans-65" transform="translate(150.826172 0)"/>
      <use xlink:href="#DejaVuSans-20" transform="translate(212.349609 0)"/>
      <use xlink:href="#DejaVuSans-50" transform="translate(244.136719 0)"/>
      <use xlink:href="#DejaVuSans-6f" transform="translate(300.814453 0)"/>
      <use xlink:href="#DejaVuSans-73" transform="translate(361.996094 0)"/>
      <use xlink:href="#DejaVuSans-69" transform="translate(414.095703 0)"/>
      <use xlink:href="#DejaVuSans-74" transform="translate(441.878906 0)"/>
      <use xlink:href="#DejaVuSans-69" transform="translate(481.087891 0)"/>
      <use xlink:href="#DejaVuSans-76" transform="translate(508.871094 0)"/>
      <use xlink:href="#DejaVuSans-65" transform="translate(568.050781 0)"/>
      <use xlink:href="#DejaVuSans-20" transform="translate(629.574219 0)"/>
      <use xlink:href="#DejaVuSans-52" transform="translate(661.361328 0)"/>
      <use xlink:href="#DejaVuSans-61" transform="translate(728.59375 0)"/>
      <use xlink:href="#DejaVuSans-74" transform="translate(789.873047 0)"/>
      <use xlink:href="#DejaVuSans-65" transform="translate(829.082031 0)"/>
      <use xlink:href="#DejaVuSans-20" transform="translate(890.605469 0)"/>
      <use xlink:href="#DejaVuSans-28" transform="translate(922.392578 0)"/>
      <use xlink:href="#DejaVuSans-50" transform="translate(961.40625 0)"/>
      <use xlink:href="#DejaVuSans-6f" transform="translate(1018.083984 0)"/>
      <use xlink:href="#DejaVuSans-73" transform="translate(1079.265625 0)"/>
      <use xlink:href="#DejaVuSans-69" transform="translate(1131.365234 0)"/>
      <use xlink:href="#DejaVuSans-74" transform="translate(1159.148438 0)"/>
      <use xlink:href="#DejaVuSans-69" transform="translate(1198.357422 0)"/>
      <use xlink:href="#DejaVuSans-76" transform="translate(1226.140625 0)"/>
      <use xlink:href="#DejaVuSans-65" transform="translate(1285.320312 0)"/>
      <use xlink:href="#DejaVuSans-20" transform="translate(1346.84375 0)"/>
      <use xlink:href="#DejaVuSans-6c" transform="translate(1378.630859 0)"/>
      <use xlink:href="#DejaVuSans-61" transform="translate(1406.414062 0)"/>
      <use xlink:href="#DejaVuSans-62" transform="translate(1467.693359 0)"/>
      <use xlink:href="#DejaVuSans-65" transform="translate(1531.169922 0)"/>
      <use xlink:href="#DejaVuSans-6c" transform="translate(1592.693359 0)"/>
      <use xlink:href="#DejaVuSans-3a" transform="translate(1620.476562 0)"/>
      <use xlink:href="#DejaVuSans-20" transform="translate(1654.167969 0)"/>
      <use xlink:href="#DejaVuSans-31" transform="translate(1685.955078 0)"/>
      <use xlink:href="#DejaVuSans-29" transform="translate(1749.578125 0)"/>
     </g>
    </g>
   </g>
   <g id="line2d_13">
    <path d="M 49.964601 248.690051 
L 50.054385 248.690051 
L 64.689184 248.690051 
L 64.868752 248.690051 
L 153.03668 248.690051 
L 153.216248 248.690051 
L 170.365 248.690051 
L 170.544568 248.690051 
L 175.662259 248.690051 
L 175.841827 248.690051 
L 208.702786 248.690051 
L 208.882354 248.690051 
L 214.718316 248.690051 
L 214.897885 248.690051 
L 274.424704 248.690051 
L 274.424704 49.212358 
L 274.424704 49.167466 
L 274.424704 24.229949 
" clip-path="url(#p5db3e9e671)" style="fill: none; stroke: #1f77b4; stroke-width: 1.5; stroke-linecap: square"/>
   </g>
   <g id="patch_3">
    <path d="M 47.72 250.934652 
L 47.72 21.985348 
" style="fill: none; stroke: #000000; stroke-width: 0.8; stroke-linejoin: miter; stroke-linecap: square"/>
   </g>
   <g id="patch_4">
    <path d="M 276.669305 250.934652 
L 276.669305 21.985348 
" style="fill: none; stroke: #000000; stroke-width: 0.8; stroke-linejoin: miter; stroke-linecap: square"/>
   </g>
   <g id="patch_5">
    <path d="M 47.72 250.934652 
L 276.669305 250.934652 
" style="fill: none; stroke: #000000; stroke-width: 0.8; stroke-linejoin: miter; stroke-linecap: square"/>
   </g>
   <g id="patch_6">
    <path d="M 47.72 21.985348 
L 276.669305 21.985348 
" style="fill: none; stroke: #000000; stroke-width: 0.8; stroke-linejoin: miter; stroke-linecap: square"/>
   </g>
   <g id="text_15">
    <!-- ROC Curve -->
    <g transform="translate(129.504027 15.985348) scale(0.12 -0.12)">
     <defs>
      <path id="DejaVuSans-4f" d="M 2522 4238 
Q 1834 4238 1429 3725 
Q 1025 3213 1025 2328 
Q 1025 1447 1429 934 
Q 1834 422 2522 422 
Q 3209 422 3611 934 
Q 4013 1447 4013 2328 
Q 4013 3213 3611 3725 
Q 3209 4238 2522 4238 
z
M 2522 4750 
Q 3503 4750 4090 4092 
Q 4678 3434 4678 2328 
Q 4678 1225 4090 567 
Q 3503 -91 2522 -91 
Q 1538 -91 948 565 
Q 359 1222 359 2328 
Q 359 3434 948 4092 
Q 1538 4750 2522 4750 
z
" transform="scale(0.015625)"/>
      <path id="DejaVuSans-43" d="M 4122 4306 
L 4122 3641 
Q 3803 3938 3442 4084 
Q 3081 4231 2675 4231 
Q 1875 4231 1450 3742 
Q 1025 3253 1025 2328 
Q 1025 1406 1450 917 
Q 1875 428 2675 428 
Q 3081 428 3442 575 
Q 3803 722 4122 1019 
L 4122 359 
Q 3791 134 3420 21 
Q 3050 -91 2638 -91 
Q 1578 -91 968 557 
Q 359 1206 359 2328 
Q 359 3453 968 4101 
Q 1578 4750 2638 4750 
Q 3056 4750 3426 4639 
Q 3797 4528 4122 4306 
z
" transform="scale(0.015625)"/>
     </defs>
     <use xlink:href="#DejaVuSans-52"/>
     <use xlink:href="#DejaVuSans-4f" transform="translate(69.482422 0)"/>
     <use xlink:href="#DejaVuSans-43" transform="translate(148.193359 0)"/>
     <use xlink:href="#DejaVuSans-20" transform="translate(218.017578 0)"/>
     <use xlink:href="#DejaVuSans-43" transform="translate(249.804688 0)"/>
     <use xlink:href="#DejaVuSans-75" transform="translate(319.628906 0)"/>
     <use xlink:href="#DejaVuSans-72" transform="translate(383.007812 0)"/>
     <use xlink:href="#DejaVuSans-76" transform="translate(424.121094 0)"/>
     <use xlink:href="#DejaVuSans-65" transform="translate(483.300781 0)"/>
    </g>
   </g>
   <g id="legend_1">
    <g id="patch_7">
     <path d="M 122.895867 245.934652 
L 269.669305 245.934652 
Q 271.669305 245.934652 271.669305 243.934652 
L 271.669305 230.256527 
Q 271.669305 228.256527 269.669305 228.256527 
L 122.895867 228.256527 
Q 120.895867 228.256527 120.895867 230.256527 
L 120.895867 243.934652 
Q 120.895867 245.934652 122.895867 245.934652 
z
" style="fill: #ffffff; opacity: 0.8; stroke: #cccccc; stroke-linejoin: miter"/>
    </g>
    <g id="line2d_14">
     <path d="M 124.895867 236.354965 
L 134.895867 236.354965 
L 144.895867 236.354965 
" style="fill: none; stroke: #1f77b4; stroke-width: 1.5; stroke-linecap: square"/>
    </g>
    <g id="text_16">
     <!-- Classifier (AUC = 0.00) -->
     <g transform="translate(152.895867 239.854965) scale(0.1 -0.1)">
      <defs>
       <path id="DejaVuSans-66" d="M 2375 4863 
L 2375 4384 
L 1825 4384 
Q 1516 4384 1395 4259 
Q 1275 4134 1275 3809 
L 1275 3500 
L 2222 3500 
L 2222 3053 
L 1275 3053 
L 1275 0 
L 697 0 
L 697 3053 
L 147 3053 
L 147 3500 
L 697 3500 
L 697 3744 
Q 697 4328 969 4595 
Q 1241 4863 1831 4863 
L 2375 4863 
z
" transform="scale(0.015625)"/>
       <path id="DejaVuSans-41" d="M 2188 4044 
L 1331 1722 
L 3047 1722 
L 2188 4044 
z
M 1831 4666 
L 2547 4666 
L 4325 0 
L 3669 0 
L 3244 1197 
L 1141 1197 
L 716 0 
L 50 0 
L 1831 4666 
z
" transform="scale(0.015625)"/>
       <path id="DejaVuSans-55" d="M 556 4666 
L 1191 4666 
L 1191 1831 
Q 1191 1081 1462 751 
Q 1734 422 2344 422 
Q 2950 422 3222 751 
Q 3494 1081 3494 1831 
L 3494 4666 
L 4128 4666 
L 4128 1753 
Q 4128 841 3676 375 
Q 3225 -91 2344 -91 
Q 1459 -91 1007 375 
Q 556 841 556 1753 
L 556 4666 
z
" transform="scale(0.015625)"/>
       <path id="DejaVuSans-3d" d="M 678 2906 
L 4684 2906 
L 4684 2381 
L 678 2381 
L 678 2906 
z
M 678 1631 
L 4684 1631 
L 4684 1100 
L 678 1100 
L 678 1631 
z
" transform="scale(0.015625)"/>
      </defs>
      <use xlink:href="#DejaVuSans-43"/>
      <use xlink:href="#DejaVuSans-6c" transform="translate(69.824219 0)"/>
      <use xlink:href="#DejaVuSans-61" transform="translate(97.607422 0)"/>
      <use xlink:href="#DejaVuSans-73" transform="translate(158.886719 0)"/>
      <use xlink:href="#DejaVuSans-73" transform="translate(210.986328 0)"/>
      <use xlink:href="#DejaVuSans-69" transform="translate(263.085938 0)"/>
      <use xlink:href="#DejaVuSans-66" transform="translate(290.869141 0)"/>
      <use xlink:href="#DejaVuSans-69" transform="translate(326.074219 0)"/>
      <use xlink:href="#DejaVuSans-65" transform="translate(353.857422 0)"/>
      <use xlink:href="#DejaVuSans-72" transform="translate(415.380859 0)"/>
      <use xlink:href="#DejaVuSans-20" transform="translate(456.494141 0)"/>
      <use xlink:href="#DejaVuSans-28" transform="translate(488.28125 0)"/>
      <use xlink:href="#DejaVuSans-41" transform="translate(527.294922 0)"/>
      <use xlink:href="#DejaVuSans-55" transform="translate(595.703125 0)"/>
      <use xlink:href="#DejaVuSans-43" transform="translate(668.896484 0)"/>
      <use xlink:href="#DejaVuSans-20" transform="translate(738.720703 0)"/>
      <use xlink:href="#DejaVuSans-3d" transform="translate(770.507812 0)"/>
      <use xlink:href="#DejaVuSans-20" transform="translate(854.296875 0)"/>
      <use xlink:href="#DejaVuSans-30" transform="translate(886.083984 0)"/>
      <use xlink:href="#DejaVuSans-2e" transform="translate(949.707031 0)"/>
      <use xlink:href="#DejaVuSans-30" transform="translate(981.494141 0)"/>
      <use xlink:href="#DejaVuSans-30" transform="translate(1045.117188 0)"/>
      <use xlink:href="#DejaVuSans-29" transform="translate(1108.740234 0)"/>
     </g>
    </g>
   </g>
  </g>
  <g id="axes_2">
   <g id="patch_8">
    <path d="M 330.32 250.934652 
L 559.269305 250.934652 
L 559.269305 21.985348 
L 330.32 21.985348 
z
" style="fill: #ffffff"/>
   </g>
   <g id="matplotlib.axis_3">
    <g id="xtick_7">
     <g id="line2d_15">
      <g>
       <use xlink:href="#m5516421736" x="332.564601" y="250.934652" style="stroke: #000000; stroke-width: 0.8"/>
      </g>
     </g>
     <g id="text_17">
      <!-- 0.0 -->
      <g transform="translate(324.613039 265.53309) scale(0.1 -0.1)">
       <use xlink:href="#DejaVuSans-30"/>
       <use xlink:href="#DejaVuSans-2e" transform="translate(63.623047 0)"/>
       <use xlink:href="#DejaVuSans-30" transform="translate(95.410156 0)"/>
      </g>
     </g>
    </g>
    <g id="xtick_8">
     <g id="line2d_16">
      <g>
       <use xlink:href="#m5516421736" x="377.456622" y="250.934652" style="stroke: #000000; stroke-width: 0.8"/>
      </g>
     </g>
     <g id="text_18">
      <!-- 0.2 -->
      <g transform="translate(369.505059 265.53309) scale(0.1 -0.1)">
       <use xlink:href="#DejaVuSans-30"/>
       <use xlink:href="#DejaVuSans-2e" transform="translate(63.623047 0)"/>
       <use xlink:href="#DejaVuSans-32" transform="translate(95.410156 0)"/>
      </g>
     </g>
    </g>
    <g id="xtick_9">
     <g id="line2d_17">
      <g>
       <use xlink:href="#m5516421736" x="422.348642" y="250.934652" style="stroke: #000000; stroke-width: 0.8"/>
      </g>
     </g>
     <g id="text_19">
      <!-- 0.4 -->
      <g transform="translate(414.39708 265.53309) scale(0.1 -0.1)">
       <use xlink:href="#DejaVuSans-30"/>
       <use xlink:href="#DejaVuSans-2e" transform="translate(63.623047 0)"/>
       <use xlink:href="#DejaVuSans-34" transform="translate(95.410156 0)"/>
      </g>
     </g>
    </g>
    <g id="xtick_10">
     <g id="line2d_18">
      <g>
       <use xlink:href="#m5516421736" x="467.240663" y="250.934652" style="stroke: #000000; stroke-width: 0.8"/>
      </g>
     </g>
     <g id="text_20">
      <!-- 0.6 -->
      <g transform="translate(459.2891 265.53309) scale(0.1 -0.1)">
       <use xlink:href="#DejaVuSans-30"/>
       <use xlink:href="#DejaVuSans-2e" transform="translate(63.623047 0)"/>
       <use xlink:href="#DejaVuSans-36" transform="translate(95.410156 0)"/>
      </g>
     </g>
    </g>
    <g id="xtick_11">
     <g id="line2d_19">
      <g>
       <use xlink:href="#m5516421736" x="512.132683" y="250.934652" style="stroke: #000000; stroke-width: 0.8"/>
      </g>
     </g>
     <g id="text_21">
      <!-- 0.8 -->
      <g transform="translate(504.181121 265.53309) scale(0.1 -0.1)">
       <use xlink:href="#DejaVuSans-30"/>
       <use xlink:href="#DejaVuSans-2e" transform="translate(63.623047 0)"/>
       <use xlink:href="#DejaVuSans-38" transform="translate(95.410156 0)"/>
      </g>
     </g>
    </g>
    <g id="xtick_12">
     <g id="line2d_20">
      <g>
       <use xlink:href="#m5516421736" x="557.024704" y="250.934652" style="stroke: #000000; stroke-width: 0.8"/>
      </g>
     </g>
     <g id="text_22">
      <!-- 1.0 -->
      <g transform="translate(549.073141 265.53309) scale(0.1 -0.1)">
       <use xlink:href="#DejaVuSans-31"/>
       <use xlink:href="#DejaVuSans-2e" transform="translate(63.623047 0)"/>
       <use xlink:href="#DejaVuSans-30" transform="translate(95.410156 0)"/>
      </g>
     </g>
    </g>
    <g id="text_23">
     <!-- Recall (Positive label: 1) -->
     <g transform="translate(384.978246 279.211215) scale(0.1 -0.1)">
      <defs>
       <path id="DejaVuSans-63" d="M 3122 3366 
L 3122 2828 
Q 2878 2963 2633 3030 
Q 2388 3097 2138 3097 
Q 1578 3097 1268 2742 
Q 959 2388 959 1747 
Q 959 1106 1268 751 
Q 1578 397 2138 397 
Q 2388 397 2633 464 
Q 2878 531 3122 666 
L 3122 134 
Q 2881 22 2623 -34 
Q 2366 -91 2075 -91 
Q 1284 -91 818 406 
Q 353 903 353 1747 
Q 353 2603 823 3093 
Q 1294 3584 2113 3584 
Q 2378 3584 2631 3529 
Q 2884 3475 3122 3366 
z
" transform="scale(0.015625)"/>
      </defs>
      <use xlink:href="#DejaVuSans-52"/>
      <use xlink:href="#DejaVuSans-65" transform="translate(64.982422 0)"/>
      <use xlink:href="#DejaVuSans-63" transform="translate(126.505859 0)"/>
      <use xlink:href="#DejaVuSans-61" transform="translate(181.486328 0)"/>
      <use xlink:href="#DejaVuSans-6c" transform="translate(242.765625 0)"/>
      <use xlink:href="#DejaVuSans-6c" transform="translate(270.548828 0)"/>
      <use xlink:href="#DejaVuSans-20" transform="translate(298.332031 0)"/>
      <use xlink:href="#DejaVuSans-28" transform="translate(330.119141 0)"/>
      <use xlink:href="#DejaVuSans-50" transform="translate(369.132812 0)"/>
      <use xlink:href="#DejaVuSans-6f" transform="translate(425.810547 0)"/>
      <use xlink:href="#DejaVuSans-73" transform="translate(486.992188 0)"/>
      <use xlink:href="#DejaVuSans-69" transform="translate(539.091797 0)"/>
      <use xlink:href="#DejaVuSans-74" transform="translate(566.875 0)"/>
      <use xlink:href="#DejaVuSans-69" transform="translate(606.083984 0)"/>
      <use xlink:href="#DejaVuSans-76" transform="translate(633.867188 0)"/>
      <use xlink:href="#DejaVuSans-65" transform="translate(693.046875 0)"/>
      <use xlink:href="#DejaVuSans-20" transform="translate(754.570312 0)"/>
      <use xlink:href="#DejaVuSans-6c" transform="translate(786.357422 0)"/>
      <use xlink:href="#DejaVuSans-61" transform="translate(814.140625 0)"/>
      <use xlink:href="#DejaVuSans-62" transform="translate(875.419922 0)"/>
      <use xlink:href="#DejaVuSans-65" transform="translate(938.896484 0)"/>
      <use xlink:href="#DejaVuSans-6c" transform="translate(1000.419922 0)"/>
      <use xlink:href="#DejaVuSans-3a" transform="translate(1028.203125 0)"/>
      <use xlink:href="#DejaVuSans-20" transform="translate(1061.894531 0)"/>
      <use xlink:href="#DejaVuSans-31" transform="translate(1093.681641 0)"/>
      <use xlink:href="#DejaVuSans-29" transform="translate(1157.304688 0)"/>
     </g>
    </g>
   </g>
   <g id="matplotlib.axis_4">
    <g id="ytick_7">
     <g id="line2d_21">
      <g>
       <use xlink:href="#m1ac671c2be" x="330.32" y="248.690051" style="stroke: #000000; stroke-width: 0.8"/>
      </g>
     </g>
     <g id="text_24">
      <!-- 0.0 -->
      <g transform="translate(307.416875 252.48927) scale(0.1 -0.1)">
       <use xlink:href="#DejaVuSans-30"/>
       <use xlink:href="#DejaVuSans-2e" transform="translate(63.623047 0)"/>
       <use xlink:href="#DejaVuSans-30" transform="translate(95.410156 0)"/>
      </g>
     </g>
    </g>
    <g id="ytick_8">
     <g id="line2d_22">
      <g>
       <use xlink:href="#m1ac671c2be" x="330.32" y="203.798031" style="stroke: #000000; stroke-width: 0.8"/>
      </g>
     </g>
     <g id="text_25">
      <!-- 0.2 -->
      <g transform="translate(307.416875 207.59725) scale(0.1 -0.1)">
       <use xlink:href="#DejaVuSans-30"/>
       <use xlink:href="#DejaVuSans-2e" transform="translate(63.623047 0)"/>
       <use xlink:href="#DejaVuSans-32" transform="translate(95.410156 0)"/>
      </g>
     </g>
    </g>
    <g id="ytick_9">
     <g id="line2d_23">
      <g>
       <use xlink:href="#m1ac671c2be" x="330.32" y="158.90601" style="stroke: #000000; stroke-width: 0.8"/>
      </g>
     </g>
     <g id="text_26">
      <!-- 0.4 -->
      <g transform="translate(307.416875 162.705229) scale(0.1 -0.1)">
       <use xlink:href="#DejaVuSans-30"/>
       <use xlink:href="#DejaVuSans-2e" transform="translate(63.623047 0)"/>
       <use xlink:href="#DejaVuSans-34" transform="translate(95.410156 0)"/>
      </g>
     </g>
    </g>
    <g id="ytick_10">
     <g id="line2d_24">
      <g>
       <use xlink:href="#m1ac671c2be" x="330.32" y="114.01399" style="stroke: #000000; stroke-width: 0.8"/>
      </g>
     </g>
     <g id="text_27">
      <!-- 0.6 -->
      <g transform="translate(307.416875 117.813208) scale(0.1 -0.1)">
       <use xlink:href="#DejaVuSans-30"/>
       <use xlink:href="#DejaVuSans-2e" transform="translate(63.623047 0)"/>
       <use xlink:href="#DejaVuSans-36" transform="translate(95.410156 0)"/>
      </g>
     </g>
    </g>
    <g id="ytick_11">
     <g id="line2d_25">
      <g>
       <use xlink:href="#m1ac671c2be" x="330.32" y="69.121969" style="stroke: #000000; stroke-width: 0.8"/>
      </g>
     </g>
     <g id="text_28">
      <!-- 0.8 -->
      <g transform="translate(307.416875 72.921188) scale(0.1 -0.1)">
       <use xlink:href="#DejaVuSans-30"/>
       <use xlink:href="#DejaVuSans-2e" transform="translate(63.623047 0)"/>
       <use xlink:href="#DejaVuSans-38" transform="translate(95.410156 0)"/>
      </g>
     </g>
    </g>
    <g id="ytick_12">
     <g id="line2d_26">
      <g>
       <use xlink:href="#m1ac671c2be" x="330.32" y="24.229949" style="stroke: #000000; stroke-width: 0.8"/>
      </g>
     </g>
     <g id="text_29">
      <!-- 1.0 -->
      <g transform="translate(307.416875 28.029167) scale(0.1 -0.1)">
       <use xlink:href="#DejaVuSans-31"/>
       <use xlink:href="#DejaVuSans-2e" transform="translate(63.623047 0)"/>
       <use xlink:href="#DejaVuSans-30" transform="translate(95.410156 0)"/>
      </g>
     </g>
    </g>
    <g id="text_30">
     <!-- Precision (Positive label: 1) -->
     <g transform="translate(301.337188 203.66625) rotate(-90) scale(0.1 -0.1)">
      <defs>
       <path id="DejaVuSans-6e" d="M 3513 2113 
L 3513 0 
L 2938 0 
L 2938 2094 
Q 2938 2591 2744 2837 
Q 2550 3084 2163 3084 
Q 1697 3084 1428 2787 
Q 1159 2491 1159 1978 
L 1159 0 
L 581 0 
L 581 3500 
L 1159 3500 
L 1159 2956 
Q 1366 3272 1645 3428 
Q 1925 3584 2291 3584 
Q 2894 3584 3203 3211 
Q 3513 2838 3513 2113 
z
" transform="scale(0.015625)"/>
      </defs>
      <use xlink:href="#DejaVuSans-50"/>
      <use xlink:href="#DejaVuSans-72" transform="translate(58.552734 0)"/>
      <use xlink:href="#DejaVuSans-65" transform="translate(97.416016 0)"/>
      <use xlink:href="#DejaVuSans-63" transform="translate(158.939453 0)"/>
      <use xlink:href="#DejaVuSans-69" transform="translate(213.919922 0)"/>
      <use xlink:href="#DejaVuSans-73" transform="translate(241.703125 0)"/>
      <use xlink:href="#DejaVuSans-69" transform="translate(293.802734 0)"/>
      <use xlink:href="#DejaVuSans-6f" transform="translate(321.585938 0)"/>
      <use xlink:href="#DejaVuSans-6e" transform="translate(382.767578 0)"/>
      <use xlink:href="#DejaVuSans-20" transform="translate(446.146484 0)"/>
      <use xlink:href="#DejaVuSans-28" transform="translate(477.933594 0)"/>
      <use xlink:href="#DejaVuSans-50" transform="translate(516.947266 0)"/>
      <use xlink:href="#DejaVuSans-6f" transform="translate(573.625 0)"/>
      <use xlink:href="#DejaVuSans-73" transform="translate(634.806641 0)"/>
      <use xlink:href="#DejaVuSans-69" transform="translate(686.90625 0)"/>
      <use xlink:href="#DejaVuSans-74" transform="translate(714.689453 0)"/>
      <use xlink:href="#DejaVuSans-69" transform="translate(753.898438 0)"/>
      <use xlink:href="#DejaVuSans-76" transform="translate(781.681641 0)"/>
      <use xlink:href="#DejaVuSans-65" transform="translate(840.861328 0)"/>
      <use xlink:href="#DejaVuSans-20" transform="translate(902.384766 0)"/>
      <use xlink:href="#DejaVuSans-6c" transform="translate(934.171875 0)"/>
      <use xlink:href="#DejaVuSans-61" transform="translate(961.955078 0)"/>
      <use xlink:href="#DejaVuSans-62" transform="translate(1023.234375 0)"/>
      <use xlink:href="#DejaVuSans-65" transform="translate(1086.710938 0)"/>
      <use xlink:href="#DejaVuSans-6c" transform="translate(1148.234375 0)"/>
      <use xlink:href="#DejaVuSans-3a" transform="translate(1176.017578 0)"/>
      <use xlink:href="#DejaVuSans-20" transform="translate(1209.708984 0)"/>
      <use xlink:href="#DejaVuSans-31" transform="translate(1241.496094 0)"/>
      <use xlink:href="#DejaVuSans-29" transform="translate(1305.119141 0)"/>
     </g>
    </g>
   </g>
   <g id="line2d_27">
    <path d="M 557.024704 69.121969 
L 556.328877 69.229969 
L 556.239093 69.24802 
L 555.543267 69.356628 
L 555.453483 69.37478 
L 554.757657 69.484002 
L 554.667873 69.502257 
L 553.972046 69.612096 
L 553.882262 69.630455 
L 553.186436 69.740918 
L 553.096652 69.759381 
L 552.400826 69.870474 
L 552.311042 69.889042 
L 551.637661 69.997036 
L 551.547877 70.015707 
L 550.874497 70.124302 
L 550.784713 70.143077 
L 550.111333 70.252278 
L 550.021549 70.271158 
L 549.348168 70.380969 
L 549.258384 70.399955 
L 548.585004 70.510382 
L 548.49522 70.529475 
L 547.82184 70.640523 
L 547.732056 70.659723 
L 547.081121 70.767538 
L 546.991337 70.786844 
L 546.340403 70.895251 
L 546.250619 70.914662 
L 545.599685 71.023666 
L 545.509901 71.043184 
L 544.858966 71.15279 
L 544.769182 71.172416 
L 544.118248 71.282628 
L 544.028464 71.302363 
L 543.37753 71.413187 
L 543.287745 71.433032 
L 542.659257 71.540484 
L 542.569473 71.560436 
L 541.940985 71.668469 
L 541.851201 71.688529 
L 541.222713 71.797148 
L 541.132929 71.817318 
L 540.50444 71.926528 
L 540.414656 71.946807 
L 539.786168 72.056613 
L 539.696384 72.077003 
L 539.067896 72.18741 
L 538.978112 72.207912 
L 538.349623 72.318924 
L 538.259839 72.339539 
L 537.653797 72.447018 
L 537.564013 72.467743 
L 536.957971 72.575797 
L 536.868187 72.596632 
L 536.262144 72.705265 
L 536.17236 72.726211 
L 535.566318 72.835428 
L 535.476534 72.856487 
L 534.870492 72.966292 
L 534.780708 72.987465 
L 534.174665 73.097863 
L 534.084881 73.11915 
L 533.478839 73.230146 
L 533.389055 73.251549 
L 532.805459 73.358845 
L 532.715675 73.380361 
L 532.132078 73.488223 
L 532.042294 73.509852 
L 531.458698 73.618283 
L 531.368914 73.640027 
L 530.785318 73.749032 
L 530.695534 73.770891 
L 530.111937 73.880476 
L 530.022153 73.902451 
L 529.438557 74.012619 
L 529.348773 74.034711 
L 528.765177 74.145467 
L 528.675393 74.167677 
L 528.114243 74.274563 
L 528.024459 74.296888 
L 527.463308 74.404328 
L 527.373524 74.426769 
L 526.812374 74.534768 
L 526.72259 74.557326 
L 526.16144 74.665888 
L 526.071656 74.688564 
L 525.510505 74.797693 
L 525.420721 74.820487 
L 524.859571 74.930189 
L 524.769787 74.953103 
L 524.208637 75.063381 
L 524.118853 75.086416 
L 523.557702 75.197274 
L 523.467918 75.220431 
L 522.929214 75.327222 
L 522.83943 75.350497 
L 522.300726 75.457834 
L 522.210942 75.481228 
L 521.672238 75.589115 
L 521.582454 75.612629 
L 521.043749 75.721071 
L 520.953965 75.744706 
L 520.415261 75.853707 
L 520.325477 75.877464 
L 519.786773 75.987028 
L 519.696989 76.010908 
L 519.158284 76.12104 
L 519.0685 76.145043 
L 518.529796 76.255747 
L 518.440012 76.279875 
L 517.923754 76.386307 
L 517.83397 76.410556 
L 517.317712 76.517524 
L 517.227928 76.541896 
L 516.711669 76.649403 
L 516.621885 76.673898 
L 516.105627 76.781949 
L 516.015843 76.806568 
L 515.499585 76.915167 
L 515.409801 76.939911 
L 514.893542 77.049062 
L 514.803758 77.073932 
L 514.2875 77.183639 
L 514.197716 77.208636 
L 513.681458 77.318904 
L 513.591674 77.344029 
L 513.075416 77.454862 
L 512.985632 77.480115 
L 512.491819 77.586444 
L 512.402035 77.611822 
L 511.908223 77.718678 
L 511.818439 77.744183 
L 511.324627 77.851569 
L 511.234843 77.877201 
L 510.741031 77.985122 
L 510.651247 78.010882 
L 510.157434 78.119342 
L 510.06765 78.145231 
L 509.573838 78.254234 
L 509.484054 78.280253 
L 508.990242 78.389804 
L 508.900458 78.415953 
L 508.406646 78.526055 
L 508.316861 78.552336 
L 507.823049 78.662993 
L 507.733265 78.689407 
L 507.261899 78.795318 
L 507.172115 78.82186 
L 506.700749 78.928287 
L 506.610965 78.954959 
L 506.139598 79.061906 
L 506.049814 79.088709 
L 505.578448 79.19618 
L 505.488664 79.223114 
L 505.017298 79.331113 
L 504.927514 79.358179 
L 504.456148 79.46671 
L 504.366364 79.493909 
L 503.894997 79.602976 
L 503.805213 79.63031 
L 503.333847 79.739916 
L 503.244063 79.767385 
L 502.772697 79.877535 
L 502.682913 79.90514 
L 502.211547 80.015838 
L 502.121763 80.043581 
L 501.672842 80.149257 
L 501.583058 80.177133 
L 501.134138 80.283316 
L 501.044354 80.311325 
L 500.595434 80.418019 
L 500.50565 80.446163 
L 500.05673 80.553371 
L 499.966946 80.581651 
L 499.518025 80.689377 
L 499.428241 80.717794 
L 498.979321 80.826041 
L 498.889537 80.854596 
L 498.440617 80.963369 
L 498.350833 80.992062 
L 497.901913 81.101364 
L 497.812129 81.130198 
L 497.363208 81.240033 
L 497.273424 81.269007 
L 496.824504 81.379379 
L 496.73472 81.408495 
L 496.2858 81.519408 
L 496.196016 81.548667 
L 495.769542 81.654248 
L 495.679758 81.683645 
L 495.253284 81.789725 
L 495.163499 81.819261 
L 494.737025 81.925842 
L 494.647241 81.955518 
L 494.220767 82.062604 
L 494.130983 82.092421 
L 493.704509 82.200016 
L 493.614725 82.229975 
L 493.188251 82.338083 
L 493.098467 82.368185 
L 492.671992 82.476809 
L 492.582208 82.507055 
L 492.155734 82.616199 
L 492.06595 82.64659 
L 491.639476 82.756258 
L 491.549692 82.786795 
L 491.123218 82.896991 
L 491.033434 82.927674 
L 490.606959 83.038401 
L 490.517175 83.069233 
L 490.113147 83.174303 
L 490.023363 83.205278 
L 489.619335 83.310835 
L 489.529551 83.341953 
L 489.125523 83.448 
L 489.035739 83.479263 
L 488.63171 83.585804 
L 488.541926 83.617213 
L 488.137898 83.724251 
L 488.048114 83.755806 
L 487.644086 83.863345 
L 487.554302 83.895048 
L 487.150274 84.003091 
L 487.06049 84.034942 
L 486.656462 84.143493 
L 486.566678 84.175495 
L 486.162649 84.284557 
L 486.072865 84.316709 
L 485.668837 84.426286 
L 485.579053 84.458591 
L 485.175025 84.568686 
L 485.085241 84.601144 
L 484.681213 84.711761 
L 484.591429 84.744373 
L 484.209846 84.848967 
L 484.120062 84.881727 
L 483.73848 84.986798 
L 483.648696 85.019707 
L 483.267114 85.125256 
L 483.17733 85.158315 
L 482.795748 85.264347 
L 482.705964 85.297557 
L 482.324382 85.404075 
L 482.234598 85.437437 
L 481.853015 85.544443 
L 481.763231 85.57796 
L 481.381649 85.685458 
L 481.291865 85.719129 
L 480.910283 85.827123 
L 480.820499 85.860949 
L 480.438917 85.969442 
L 480.349133 86.003425 
L 479.967551 86.112421 
L 479.877766 86.146561 
L 479.496184 86.256063 
L 479.4064 86.290362 
L 479.024818 86.400374 
L 478.935034 86.434832 
L 478.553452 86.545357 
L 478.463668 86.579977 
L 478.082086 86.691019 
L 477.992302 86.725801 
L 477.633165 86.830379 
L 477.543381 86.865316 
L 477.184245 86.970362 
L 477.094461 87.005456 
L 476.735325 87.110972 
L 476.645541 87.146224 
L 476.286405 87.252215 
L 476.196621 87.287624 
L 475.837485 87.394093 
L 475.747701 87.429662 
L 475.388564 87.536611 
L 475.29878 87.572341 
L 474.939644 87.679774 
L 474.84986 87.715666 
L 474.490724 87.823586 
L 474.40094 87.859641 
L 474.041804 87.968051 
L 473.95202 88.00427 
L 473.592884 88.113175 
L 473.5031 88.149559 
L 473.143963 88.25896 
L 473.054179 88.295511 
L 472.695043 88.405413 
L 472.605259 88.44213 
L 472.246123 88.552537 
L 472.156339 88.589423 
L 471.797203 88.700337 
L 471.707419 88.737393 
L 471.370729 88.841377 
L 471.280945 88.878596 
L 470.944254 88.983036 
L 470.85447 89.020418 
L 470.51778 89.125318 
L 470.427996 89.162864 
L 470.091306 89.268226 
L 470.001522 89.305938 
L 469.664832 89.411765 
L 469.575048 89.449644 
L 469.238358 89.555939 
L 469.148574 89.593986 
L 468.811883 89.700752 
L 468.722099 89.738968 
L 468.385409 89.846209 
L 468.295625 89.884594 
L 467.958935 89.992313 
L 467.869151 90.03087 
L 467.532461 90.13907 
L 467.442677 90.177799 
L 467.105987 90.286483 
L 467.016203 90.325385 
L 466.679512 90.434557 
L 466.589728 90.473634 
L 466.253038 90.583296 
L 466.163254 90.622549 
L 465.826564 90.732705 
L 465.73678 90.772135 
L 465.40009 90.882788 
L 465.310306 90.922397 
L 464.996062 91.025599 
L 464.906278 91.065377 
L 464.592033 91.169023 
L 464.502249 91.208972 
L 464.188005 91.313064 
L 464.098221 91.353185 
L 463.783977 91.457726 
L 463.694193 91.498021 
L 463.379949 91.603013 
L 463.290165 91.643483 
L 462.975921 91.74893 
L 462.886137 91.789575 
L 462.571893 91.895481 
L 462.482109 91.936302 
L 462.167864 92.042668 
L 462.07808 92.083668 
L 461.763836 92.190498 
L 461.674052 92.231676 
L 461.359808 92.338974 
L 461.270024 92.380332 
L 460.95578 92.488099 
L 460.865996 92.529639 
L 460.551752 92.637879 
L 460.461968 92.679602 
L 460.147723 92.788318 
L 460.057939 92.830225 
L 459.743695 92.939421 
L 459.653911 92.981512 
L 459.339667 93.09119 
L 459.249883 93.133467 
L 458.935639 93.243632 
L 458.845855 93.286096 
L 458.531611 93.39675 
L 458.441827 93.439403 
L 458.150029 93.541986 
L 458.060244 93.584819 
L 457.768446 93.687834 
L 457.678662 93.730847 
L 457.386864 93.834297 
L 457.29708 93.877492 
L 457.005282 93.981379 
L 456.915498 94.024757 
L 456.6237 94.129084 
L 456.533916 94.172645 
L 456.242118 94.277415 
L 456.152334 94.321162 
L 455.860535 94.426378 
L 455.770751 94.470311 
L 455.478953 94.575976 
L 455.389169 94.620096 
L 455.097371 94.726212 
L 455.007587 94.770521 
L 454.715789 94.877092 
L 454.626005 94.921591 
L 454.334207 95.028618 
L 454.244423 95.073309 
L 453.952625 95.180797 
L 453.862841 95.22568 
L 453.571042 95.33363 
L 453.481258 95.378707 
L 453.18946 95.487124 
L 453.099676 95.532395 
L 452.807878 95.641282 
L 452.718094 95.686749 
L 452.426296 95.796108 
L 452.336512 95.841773 
L 452.044714 95.951607 
L 451.95493 95.997471 
L 451.663132 96.107783 
L 451.573348 96.153847 
L 451.281549 96.264641 
L 451.191765 96.310906 
L 450.922413 96.412899 
L 450.832629 96.459355 
L 450.563277 96.561768 
L 450.473493 96.608416 
L 450.204141 96.711253 
L 450.114357 96.758093 
L 449.845005 96.861356 
L 449.755221 96.908391 
L 449.485869 97.012083 
L 449.396085 97.059314 
L 449.126732 97.163437 
L 449.036948 97.210864 
L 448.767596 97.315421 
L 448.677812 97.363046 
L 448.40846 97.46804 
L 448.318676 97.515864 
L 448.049324 97.621298 
L 447.95954 97.669323 
L 447.690188 97.775199 
L 447.600404 97.823425 
L 447.331052 97.929746 
L 447.241268 97.978175 
L 446.971915 98.084944 
L 446.882131 98.133578 
L 446.612779 98.240798 
L 446.522995 98.289637 
L 446.253643 98.39731 
L 446.163859 98.446356 
L 445.894507 98.554486 
L 445.804723 98.60374 
L 445.535371 98.712329 
L 445.445587 98.761793 
L 445.176235 98.870845 
L 445.086451 98.920519 
L 444.817098 99.030036 
L 444.727314 99.079923 
L 444.457962 99.189908 
L 444.368178 99.240008 
L 444.098826 99.350465 
L 444.009042 99.40078 
L 443.73969 99.511711 
L 443.649906 99.562242 
L 443.403 99.663509 
L 443.313216 99.714245 
L 443.06631 99.815921 
L 442.976526 99.866862 
L 442.729619 99.968949 
L 442.639835 100.020097 
L 442.392929 100.122599 
L 442.303145 100.173954 
L 442.056239 100.276873 
L 441.966455 100.328437 
L 441.719549 100.431776 
L 441.629765 100.483551 
L 441.382859 100.587311 
L 441.293075 100.639297 
L 441.046169 100.743482 
L 440.956385 100.795682 
L 440.709479 100.900294 
L 440.619694 100.952707 
L 440.372788 101.057749 
L 440.283004 101.110378 
L 440.036098 101.215853 
L 439.946314 101.268699 
L 439.699408 101.374609 
L 439.609624 101.427673 
L 439.362718 101.53402 
L 439.272934 101.587304 
L 439.026028 101.694092 
L 438.936244 101.747597 
L 438.689338 101.854829 
L 438.599554 101.908556 
L 438.352647 102.016233 
L 438.262863 102.070184 
L 438.015957 102.17831 
L 437.926173 102.232486 
L 437.679267 102.341065 
L 437.589483 102.395467 
L 437.342577 102.5045 
L 437.252793 102.55913 
L 437.005887 102.66862 
L 436.916103 102.72348 
L 436.669197 102.83343 
L 436.579413 102.888521 
L 436.332507 102.998935 
L 436.242722 103.054258 
L 435.995816 103.165137 
L 435.906032 103.220694 
L 435.681572 103.320894 
L 435.591788 103.37667 
L 435.367328 103.477266 
L 435.277544 103.533264 
L 435.053084 103.634258 
L 434.9633 103.690478 
L 434.73884 103.791874 
L 434.649056 103.848317 
L 434.424596 103.950116 
L 434.334812 104.006784 
L 434.110352 104.108989 
L 434.020567 104.165883 
L 433.796107 104.268496 
L 433.706323 104.325618 
L 433.481863 104.428642 
L 433.392079 104.485992 
L 433.167619 104.58943 
L 433.077835 104.64701 
L 432.853375 104.750864 
L 432.763591 104.808676 
L 432.539131 104.912947 
L 432.449347 104.970993 
L 432.224887 105.075685 
L 432.135103 105.133965 
L 431.910643 105.239081 
L 431.820858 105.297596 
L 431.596398 105.403138 
L 431.506614 105.461891 
L 431.282154 105.567861 
L 431.19237 105.626853 
L 430.96791 105.733254 
L 430.878126 105.792486 
L 430.653666 105.899321 
L 430.563882 105.958795 
L 430.339422 106.066066 
L 430.249638 106.125783 
L 430.025178 106.233493 
L 429.935394 106.293455 
L 429.710934 106.401607 
L 429.621149 106.461815 
L 429.396689 106.570412 
L 429.306905 106.630867 
L 429.082445 106.739911 
L 428.992661 106.800616 
L 428.768201 106.91011 
L 428.678417 106.971066 
L 428.453957 107.081013 
L 428.364173 107.142221 
L 428.139713 107.252623 
L 428.049929 107.314085 
L 427.825469 107.424946 
L 427.735685 107.486663 
L 427.533671 107.585602 
L 427.443886 107.647558 
L 427.241872 107.746879 
L 427.152088 107.809075 
L 426.950074 107.908782 
L 426.86029 107.97122 
L 426.658276 108.071314 
L 426.568492 108.133994 
L 426.366478 108.234478 
L 426.276694 108.297403 
L 426.07468 108.398279 
L 425.984896 108.461449 
L 425.782882 108.562719 
L 425.693098 108.626137 
L 425.491084 108.727804 
L 425.4013 108.79147 
L 425.199285 108.893536 
L 425.109501 108.957452 
L 424.907487 109.059919 
L 424.817703 109.124087 
L 424.615689 109.226958 
L 424.525905 109.291379 
L 424.323891 109.394656 
L 424.234107 109.459332 
L 424.032093 109.563017 
L 423.942309 109.627948 
L 423.740295 109.732045 
L 423.650511 109.797234 
L 423.448497 109.901744 
L 423.358713 109.967192 
L 423.156699 110.072117 
L 423.066914 110.137826 
L 422.8649 110.24317 
L 422.775116 110.309141 
L 422.573102 110.414906 
L 422.483318 110.481141 
L 422.281304 110.587329 
L 422.19152 110.653829 
L 421.989506 110.760443 
L 421.899722 110.82721 
L 421.697708 110.934253 
L 421.607924 111.001289 
L 421.40591 111.108762 
L 421.316126 111.176068 
L 421.114112 111.283975 
L 421.024328 111.351553 
L 420.822313 111.459897 
L 420.732529 111.527748 
L 420.530515 111.636531 
L 420.440731 111.704657 
L 420.238717 111.813881 
L 420.148933 111.882285 
L 419.946919 111.991953 
L 419.857135 112.060635 
L 419.655121 112.170751 
L 419.565337 112.239713 
L 419.363323 112.350278 
L 419.273539 112.419522 
L 419.071525 112.53054 
L 418.981741 112.600068 
L 418.802173 112.697591 
L 418.712388 112.767383 
L 418.53282 112.865276 
L 418.443036 112.935332 
L 418.263468 113.033597 
L 418.173684 113.10392 
L 417.994116 113.20256 
L 417.904332 113.27315 
L 417.724764 113.372166 
L 417.63498 113.443026 
L 417.455412 113.54242 
L 417.365628 113.613551 
L 417.18606 113.713326 
L 417.096276 113.784729 
L 416.916708 113.884887 
L 416.826924 113.956565 
L 416.647356 114.057107 
L 416.557571 114.129061 
L 416.378003 114.22999 
L 416.288219 114.302221 
L 416.108651 114.40354 
L 416.018867 114.47605 
L 415.839299 114.57776 
L 415.749515 114.650551 
L 415.569947 114.752655 
L 415.480163 114.825728 
L 415.300595 114.928228 
L 415.210811 115.001585 
L 415.031243 115.104484 
L 414.941459 115.178126 
L 414.761891 115.281426 
L 414.672107 115.355356 
L 414.492539 115.459059 
L 414.402754 115.533277 
L 414.223186 115.637386 
L 414.133402 115.711895 
L 413.953834 115.816411 
L 413.86405 115.891212 
L 413.684482 115.996139 
L 413.594698 116.071235 
L 413.41513 116.176574 
L 413.325346 116.251965 
L 413.145778 116.35772 
L 413.055994 116.433409 
L 412.876426 116.539581 
L 412.786642 116.615569 
L 412.607074 116.722162 
L 412.51729 116.79845 
L 412.337722 116.905466 
L 412.247938 116.982057 
L 412.068369 117.089498 
L 411.978585 117.166394 
L 411.799017 117.274262 
L 411.709233 117.351465 
L 411.529665 117.459764 
L 411.439881 117.537274 
L 411.260313 117.646006 
L 411.170529 117.723827 
L 410.990961 117.832994 
L 410.901177 117.911127 
L 410.721609 118.020732 
L 410.631825 118.099179 
L 410.452257 118.209225 
L 410.362473 118.287987 
L 410.182905 118.398476 
L 410.093121 118.477556 
L 409.913552 118.588492 
L 409.823768 118.667892 
L 409.666646 118.763348 
L 409.576862 118.843042 
L 409.41974 118.938853 
L 409.329956 119.018843 
L 409.172834 119.115011 
L 409.08305 119.195299 
L 408.925928 119.291825 
L 408.836144 119.372413 
L 408.679022 119.4693 
L 408.589238 119.550189 
L 408.432116 119.647438 
L 408.342332 119.728631 
L 408.18521 119.826245 
L 408.095426 119.907742 
L 407.938304 120.005722 
L 407.848519 120.087526 
L 407.691397 120.185875 
L 407.601613 120.267987 
L 407.444491 120.366707 
L 407.354707 120.449128 
L 407.197585 120.548221 
L 407.107801 120.630955 
L 406.950679 120.730423 
L 406.860895 120.81347 
L 406.703773 120.913315 
L 406.613989 120.996677 
L 406.456867 121.096901 
L 406.367083 121.18058 
L 406.209961 121.281186 
L 406.120177 121.365184 
L 405.963055 121.466174 
L 405.873271 121.550493 
L 405.716149 121.651868 
L 405.626364 121.736509 
L 405.469242 121.838273 
L 405.379458 121.923238 
L 405.222336 122.025392 
L 405.132552 122.110684 
L 404.97543 122.213231 
L 404.885646 122.298851 
L 404.728524 122.401792 
L 404.63874 122.487742 
L 404.481618 122.59108 
L 404.391834 122.677362 
L 404.234712 122.7811 
L 404.144928 122.867716 
L 403.987806 122.971856 
L 403.898022 123.058807 
L 403.7409 123.163351 
L 403.651116 123.25064 
L 403.493993 123.35559 
L 403.404209 123.443219 
L 403.247087 123.548578 
L 403.157303 123.636549 
L 403.000181 123.742319 
L 402.910397 123.830633 
L 402.753275 123.936817 
L 402.663491 124.025477 
L 402.506369 124.132077 
L 402.416585 124.221085 
L 402.259463 124.328104 
L 402.169679 124.417461 
L 402.012557 124.524901 
L 401.922773 124.61461 
L 401.765651 124.722473 
L 401.675867 124.812536 
L 401.518745 124.920826 
L 401.428961 125.011245 
L 401.271838 125.119962 
L 401.182054 125.21074 
L 401.024932 125.319889 
L 400.935148 125.411026 
L 400.778026 125.520609 
L 400.688242 125.612109 
L 400.53112 125.722127 
L 400.441336 125.813992 
L 400.284214 125.92445 
L 400.19443 126.016681 
L 400.037308 126.12758 
L 399.947524 126.220181 
L 399.812848 126.31295 
L 399.723064 126.405888 
L 399.588388 126.498995 
L 399.498604 126.592272 
L 399.363928 126.685719 
L 399.274144 126.779338 
L 399.139468 126.873127 
L 399.049683 126.967088 
L 398.915007 127.061222 
L 398.825223 127.155528 
L 398.690547 127.250007 
L 398.600763 127.34466 
L 398.466087 127.439486 
L 398.376303 127.534488 
L 398.241627 127.629664 
L 398.151843 127.725016 
L 398.017167 127.820544 
L 397.927383 127.916249 
L 397.792707 128.01213 
L 397.702923 128.108189 
L 397.568247 128.204426 
L 397.478463 128.300842 
L 397.343787 128.397436 
L 397.254003 128.49421 
L 397.119327 128.591164 
L 397.029543 128.688299 
L 396.894866 128.785614 
L 396.805082 128.883111 
L 396.670406 128.98079 
L 396.580622 129.078651 
L 396.445946 129.176696 
L 396.356162 129.274924 
L 396.221486 129.373336 
L 396.131702 129.471932 
L 395.997026 129.570714 
L 395.907242 129.669681 
L 395.772566 129.768835 
L 395.682782 129.868175 
L 395.548106 129.967702 
L 395.458322 130.067417 
L 395.323646 130.16732 
L 395.233862 130.267412 
L 395.099186 130.367693 
L 395.009402 130.468165 
L 394.874726 130.568826 
L 394.784942 130.669679 
L 394.650265 130.770723 
L 394.560481 130.871959 
L 394.425805 130.973387 
L 394.336021 131.075009 
L 394.201345 131.176824 
L 394.111561 131.278834 
L 393.976885 131.381038 
L 393.887101 131.483438 
L 393.752425 131.586034 
L 393.662641 131.688826 
L 393.527965 131.791815 
L 393.438181 131.895002 
L 393.303505 131.998387 
L 393.213721 132.10197 
L 393.079045 132.205753 
L 392.989261 132.309736 
L 392.854585 132.413919 
L 392.764801 132.518304 
L 392.630125 132.62289 
L 392.54034 132.727678 
L 392.405664 132.832669 
L 392.31588 132.937864 
L 392.181204 133.043262 
L 392.09142 133.148865 
L 391.956744 133.254673 
L 391.86696 133.360687 
L 391.732284 133.466907 
L 391.6425 133.573335 
L 391.507824 133.679969 
L 391.41804 133.786813 
L 391.283364 133.893864 
L 391.19358 134.001126 
L 391.058904 134.108597 
L 390.96912 134.216279 
L 390.834444 134.324172 
L 390.74466 134.432277 
L 390.609984 134.540595 
L 390.5202 134.649125 
L 390.385523 134.75787 
L 390.295739 134.866829 
L 390.161063 134.976003 
L 390.071279 135.085392 
L 389.936603 135.194998 
L 389.846819 135.304821 
L 389.712143 135.414862 
L 389.622359 135.525121 
L 389.487683 135.635598 
L 389.397899 135.746295 
L 389.263223 135.857213 
L 389.173439 135.968351 
L 389.061209 136.057421 
L 388.971425 136.168959 
L 388.859195 136.258349 
L 388.769411 136.370288 
L 388.657181 136.46 
L 388.567397 136.572342 
L 388.455167 136.662378 
L 388.365383 136.775126 
L 388.253153 136.865488 
L 388.163368 136.978644 
L 388.051138 137.069333 
L 387.961354 137.182899 
L 387.849124 137.273917 
L 387.75934 137.387895 
L 387.64711 137.479244 
L 387.557326 137.593637 
L 387.445096 137.685318 
L 387.355312 137.800128 
L 387.243082 137.892144 
L 387.153298 138.007373 
L 387.041068 138.099725 
L 386.951284 138.215376 
L 386.839054 138.308065 
L 386.74927 138.42414 
L 386.63704 138.51717 
L 386.547256 138.633671 
L 386.435026 138.727042 
L 386.345242 138.843972 
L 386.233012 138.937687 
L 386.143228 139.055047 
L 386.030998 139.149108 
L 385.941213 139.266902 
L 385.828983 139.36131 
L 385.739199 139.479539 
L 385.626969 139.574297 
L 385.537185 139.692964 
L 385.424955 139.788074 
L 385.335171 139.907182 
L 385.222941 140.002644 
L 385.133157 140.122195 
L 385.020927 140.218013 
L 384.931143 140.338009 
L 384.818913 140.434185 
L 384.729129 140.554629 
L 384.616899 140.651164 
L 384.527115 140.772058 
L 384.414885 140.868954 
L 384.325101 140.990302 
L 384.212871 141.087561 
L 384.123087 141.209364 
L 384.010857 141.306989 
L 383.921073 141.42925 
L 383.808842 141.527243 
L 383.719058 141.649965 
L 383.606828 141.748327 
L 383.517044 141.871512 
L 383.404814 141.970246 
L 383.31503 142.093897 
L 383.2028 142.193005 
L 383.113016 142.317124 
L 383.000786 142.416608 
L 382.911002 142.541198 
L 382.798772 142.64106 
L 382.708988 142.766125 
L 382.596758 142.866367 
L 382.506974 142.991908 
L 382.394744 143.092532 
L 382.30496 143.218553 
L 382.19273 143.319562 
L 382.102946 143.446064 
L 381.990716 143.54746 
L 381.900932 143.674448 
L 381.788702 143.776233 
L 381.698918 143.903708 
L 381.586687 144.005884 
L 381.496903 144.13385 
L 381.384673 144.236419 
L 381.294889 144.364878 
L 381.182659 144.467844 
L 381.092875 144.596799 
L 380.980645 144.700163 
L 380.890861 144.829617 
L 380.778631 144.933381 
L 380.688847 145.063337 
L 380.576617 145.167504 
L 380.486833 145.297965 
L 380.374603 145.402537 
L 380.284819 145.533506 
L 380.172589 145.638485 
L 380.082805 145.769965 
L 379.970575 145.875354 
L 379.880791 146.007348 
L 379.768561 146.11315 
L 379.678777 146.24566 
L 379.566547 146.351876 
L 379.476763 146.484907 
L 379.364532 146.59154 
L 379.274748 146.725093 
L 379.162518 146.832146 
L 379.072734 146.966225 
L 378.960504 147.0737 
L 378.87072 147.208309 
L 378.75849 147.316208 
L 378.668706 147.451349 
L 378.556476 147.559675 
L 378.466692 147.695352 
L 378.354462 147.804108 
L 378.264678 147.940323 
L 378.152448 148.049511 
L 378.062664 148.186268 
L 377.950434 148.295891 
L 377.86065 148.433193 
L 377.74842 148.543253 
L 377.658636 148.681103 
L 377.546406 148.791604 
L 377.456622 148.930006 
L 377.344392 149.040949 
L 377.254607 149.179906 
L 377.164823 149.263428 
L 377.075039 149.402881 
L 376.985255 149.486702 
L 376.895471 149.626654 
L 376.805687 149.710775 
L 376.715903 149.851228 
L 376.626119 149.935651 
L 376.536335 150.076609 
L 376.446551 150.161335 
L 376.356767 150.302799 
L 376.266983 150.38783 
L 376.177199 150.529804 
L 376.087415 150.615142 
L 375.997631 150.757628 
L 375.907847 150.843274 
L 375.818063 150.986275 
L 375.728279 151.072231 
L 375.638495 151.21575 
L 375.548711 151.302018 
L 375.458927 151.446058 
L 375.369143 151.532638 
L 375.279359 151.677202 
L 375.189575 151.764098 
L 375.099791 151.909188 
L 375.010006 151.996401 
L 374.920222 152.14202 
L 374.830438 152.229551 
L 374.740654 152.375703 
L 374.65087 152.463554 
L 374.561086 152.610241 
L 374.471302 152.698414 
L 374.381518 152.845639 
L 374.291734 152.934136 
L 374.20195 153.081902 
L 374.112166 153.170725 
L 374.022382 153.319035 
L 373.932598 153.408185 
L 373.842814 153.557042 
L 373.75303 153.646521 
L 373.663246 153.795928 
L 373.573462 153.885738 
L 373.483678 154.035699 
L 373.393894 154.125841 
L 373.30411 154.276358 
L 373.214326 154.366836 
L 373.124542 154.517912 
L 373.034758 154.608726 
L 372.944974 154.760364 
L 372.855189 154.851517 
L 372.765405 155.003721 
L 372.675621 155.095214 
L 372.585837 155.247987 
L 372.496053 155.339822 
L 372.406269 155.493167 
L 372.316485 155.585346 
L 372.226701 155.739266 
L 372.136917 155.831791 
L 372.047133 155.98629 
L 371.957349 156.079163 
L 371.867565 156.234243 
L 371.777781 156.327467 
L 371.687997 156.483132 
L 371.598213 156.576707 
L 371.508429 156.732961 
L 371.418645 156.82689 
L 371.328861 156.983735 
L 371.239077 157.078021 
L 371.149293 157.235461 
L 371.059509 157.330104 
L 370.969725 157.488143 
L 370.879941 157.583147 
L 370.790157 157.741787 
L 370.700372 157.837153 
L 370.610588 157.996398 
L 370.520804 158.092128 
L 370.43102 158.251983 
L 370.341236 158.348079 
L 370.251452 158.508546 
L 370.161668 158.60501 
L 370.071884 158.766093 
L 369.9821 158.862928 
L 369.892316 159.02463 
L 369.802532 159.121837 
L 369.712748 159.284162 
L 369.622964 159.381745 
L 369.53318 159.544696 
L 369.443396 159.642655 
L 369.353612 159.806237 
L 369.263828 159.904576 
L 369.174044 160.068791 
L 369.08426 160.167511 
L 368.994476 160.332364 
L 368.904692 160.431467 
L 368.814908 160.596961 
L 368.725124 160.696451 
L 368.63534 160.86259 
L 368.545555 160.962467 
L 368.455771 161.129255 
L 368.365987 161.229523 
L 368.276203 161.396963 
L 368.186419 161.497624 
L 368.096635 161.665721 
L 368.006851 161.766776 
L 367.917067 161.935533 
L 367.827283 162.036986 
L 367.737499 162.206407 
L 367.647715 162.30826 
L 367.557931 162.478349 
L 367.468147 162.580604 
L 367.378363 162.751365 
L 367.288579 162.854024 
L 367.198795 163.025461 
L 367.109011 163.128527 
L 367.019227 163.300644 
L 366.929443 163.404119 
L 366.839659 163.576921 
L 366.749875 163.680808 
L 366.660091 163.854297 
L 366.570307 163.958598 
L 366.480523 164.13278 
L 366.390739 164.237498 
L 366.300954 164.412376 
L 366.21117 164.517513 
L 366.121386 164.693092 
L 366.031602 164.79865 
L 365.941818 164.974934 
L 365.852034 165.080917 
L 365.76225 165.25791 
L 365.672466 165.364319 
L 365.582682 165.542025 
L 365.492898 165.648864 
L 365.403114 165.827288 
L 365.31333 165.934559 
L 365.223546 166.113705 
L 365.133762 166.22141 
L 365.043978 166.401283 
L 364.954194 166.509426 
L 364.86441 166.690029 
L 364.774626 166.798611 
L 364.684842 166.97995 
L 364.595058 167.088975 
L 364.505274 167.271054 
L 364.41549 167.380524 
L 364.325706 167.563348 
L 364.235922 167.673266 
L 364.146137 167.856838 
L 364.056353 167.967207 
L 363.966569 168.151533 
L 363.876785 168.262355 
L 363.787001 168.447439 
L 363.719663 168.521606 
L 363.629879 168.707358 
L 363.562541 168.781792 
L 363.472757 168.968215 
L 363.405419 169.042918 
L 363.315635 169.230015 
L 363.248297 169.304989 
L 363.158513 169.492764 
L 363.091175 169.56801 
L 363.001391 169.756468 
L 362.934053 169.831987 
L 362.844269 170.02113 
L 362.776931 170.096925 
L 362.687147 170.286757 
L 362.619809 170.362828 
L 362.530025 170.553353 
L 362.462687 170.629703 
L 362.372903 170.820925 
L 362.305565 170.897554 
L 362.215781 171.089477 
L 362.148443 171.166387 
L 362.058659 171.359014 
L 361.99132 171.436207 
L 361.901536 171.629543 
L 361.834198 171.70702 
L 361.744414 171.901069 
L 361.677076 171.978831 
L 361.587292 172.173597 
L 361.519954 172.251647 
L 361.43017 172.447132 
L 361.362832 172.525471 
L 361.273048 172.721681 
L 361.20571 172.800311 
L 361.115926 172.997249 
L 361.048588 173.076171 
L 360.958804 173.273842 
L 360.891466 173.353057 
L 360.801682 173.551465 
L 360.734344 173.630975 
L 360.64456 173.830124 
L 360.577222 173.909932 
L 360.487438 174.109825 
L 360.4201 174.189932 
L 360.330316 174.390574 
L 360.262978 174.470981 
L 360.173194 174.672377 
L 360.105856 174.753086 
L 360.016072 174.955239 
L 359.948734 175.036253 
L 359.85895 175.239167 
L 359.791611 175.320486 
L 359.701827 175.524167 
L 359.634489 175.605793 
L 359.544705 175.810245 
L 359.477367 175.89218 
L 359.387583 176.097407 
L 359.320245 176.179653 
L 359.230461 176.385658 
L 359.163123 176.468217 
L 359.073339 176.675006 
L 359.006001 176.757879 
L 358.916217 176.965457 
L 358.848879 177.048646 
L 358.759095 177.257016 
L 358.691757 177.340523 
L 358.601973 177.549691 
L 358.534635 177.633518 
L 358.444851 177.843487 
L 358.377513 177.927636 
L 358.287729 178.138412 
L 358.220391 178.222884 
L 358.130607 178.434471 
L 358.063269 178.519269 
L 357.973485 178.731671 
L 357.906147 178.816796 
L 357.816363 179.030019 
L 357.749025 179.115474 
L 357.659241 179.329522 
L 357.591902 179.415307 
L 357.502118 179.630186 
L 357.43478 179.716304 
L 357.344996 179.932018 
L 357.277658 180.018471 
L 357.187874 180.235024 
L 357.120536 180.321814 
L 357.030752 180.539212 
L 356.963414 180.626341 
L 356.87363 180.844589 
L 356.806292 180.932059 
L 356.716508 181.151161 
L 356.64917 181.238974 
L 356.559386 181.458936 
L 356.492048 181.547094 
L 356.402264 181.767921 
L 356.334926 181.856425 
L 356.245142 182.078122 
L 356.177804 182.166976 
L 356.08802 182.389548 
L 356.020682 182.478752 
L 355.930898 182.702204 
L 355.86356 182.791762 
L 355.773776 183.016099 
L 355.706438 183.106012 
L 355.616654 183.331241 
L 355.549316 183.421511 
L 355.459532 183.647635 
L 355.392193 183.738265 
L 355.302409 183.965291 
L 355.235071 184.056282 
L 355.145287 184.284215 
L 355.077949 184.37557 
L 354.988165 184.604415 
L 354.920827 184.696136 
L 354.831043 184.925898 
L 354.763705 185.017988 
L 354.673921 185.248674 
L 354.606583 185.341133 
L 354.516799 185.572748 
L 354.449461 185.665581 
L 354.359677 185.89813 
L 354.292339 185.991337 
L 354.202555 186.224826 
L 354.135217 186.318411 
L 354.045433 186.552846 
L 353.978095 186.64681 
L 353.888311 186.882197 
L 353.820973 186.976543 
L 353.731189 187.212887 
L 353.663851 187.307617 
L 353.574067 187.544924 
L 353.506729 187.640041 
L 353.416945 187.878318 
L 353.349607 187.973823 
L 353.259823 188.213075 
L 353.192484 188.308971 
L 353.1027 188.549204 
L 353.035362 188.645494 
L 352.945578 188.886714 
L 352.87824 188.9834 
L 352.788456 189.225614 
L 352.721118 189.322699 
L 352.631334 189.565911 
L 352.563996 189.663397 
L 352.474212 189.907615 
L 352.406874 190.005505 
L 352.31709 190.250735 
L 352.249752 190.34903 
L 352.159968 190.595278 
L 352.09263 190.693982 
L 352.002846 190.941255 
L 351.935508 191.04037 
L 351.845724 191.288674 
L 351.778386 191.388202 
L 351.688602 191.637543 
L 351.621264 191.737488 
L 351.53148 191.987873 
L 351.464142 192.088237 
L 351.374358 192.339672 
L 351.30702 192.440457 
L 351.217236 192.69295 
L 351.149898 192.794159 
L 351.060113 193.047715 
L 350.992775 193.149352 
L 350.902991 193.403978 
L 350.835653 193.506044 
L 350.745869 193.761748 
L 350.678531 193.864246 
L 350.588747 194.121035 
L 350.521409 194.223968 
L 350.431625 194.481847 
L 350.364287 194.585218 
L 350.274503 194.844195 
L 350.207165 194.948007 
L 350.117381 195.208089 
L 350.050043 195.312344 
L 349.960259 195.573539 
L 349.892921 195.67824 
L 349.803137 195.940554 
L 349.735799 196.045704 
L 349.646015 196.309144 
L 349.578677 196.414747 
L 349.488893 196.679321 
L 349.421555 196.785378 
L 349.331771 197.051093 
L 349.264433 197.157609 
L 349.174649 197.424472 
L 349.107311 197.531449 
L 349.017527 197.799468 
L 348.950189 197.906908 
L 348.860404 198.176091 
L 348.793066 198.283999 
L 348.703282 198.554353 
L 348.635944 198.66273 
L 348.54616 198.934263 
L 348.478822 199.043113 
L 348.389038 199.315832 
L 348.3217 199.425158 
L 348.231916 199.699072 
L 348.164578 199.808878 
L 348.074794 200.083993 
L 348.007456 200.194281 
L 347.917672 200.470607 
L 347.850334 200.581381 
L 347.76055 200.858925 
L 347.715658 200.914538 
L 347.625874 201.193133 
L 347.580982 201.248957 
L 347.491198 201.528608 
L 347.446306 201.584644 
L 347.356522 201.865358 
L 347.31163 201.921607 
L 347.221846 202.203389 
L 347.176954 202.259852 
L 347.08717 202.542709 
L 347.042278 202.599388 
L 346.952494 202.883326 
L 346.907602 202.940222 
L 346.817818 203.225246 
L 346.772926 203.28236 
L 346.683141 203.568478 
L 346.638249 203.625811 
L 346.548465 203.913028 
L 346.503573 203.970582 
L 346.413789 204.258905 
L 346.368897 204.316681 
L 346.279113 204.606116 
L 346.234221 204.664115 
L 346.144437 204.954669 
L 346.099545 205.012892 
L 346.009761 205.304572 
L 345.964869 205.363021 
L 345.875085 205.655832 
L 345.830193 205.714508 
L 345.740409 206.008457 
L 345.695517 206.067362 
L 345.605733 206.362457 
L 345.560841 206.42159 
L 345.471057 206.717837 
L 345.426165 206.777202 
L 345.336381 207.074607 
L 345.291489 207.134204 
L 345.201705 207.432775 
L 345.156813 207.492606 
L 345.067029 207.792349 
L 345.022137 207.852415 
L 344.932353 208.153337 
L 344.887461 208.213639 
L 344.797677 208.515747 
L 344.752785 208.576288 
L 344.663001 208.879589 
L 344.618109 208.940369 
L 344.528325 209.24487 
L 344.483432 209.305891 
L 344.393648 209.611599 
L 344.348756 209.672862 
L 344.258972 209.979785 
L 344.21408 210.041292 
L 344.124296 210.349437 
L 344.079404 210.411188 
L 343.98962 210.720562 
L 343.944728 210.782561 
L 343.854944 211.093171 
L 343.810052 211.155417 
L 343.720268 211.467272 
L 343.675376 211.529767 
L 343.585592 211.842873 
L 343.5407 211.90562 
L 343.450916 212.219984 
L 343.406024 212.282984 
L 343.31624 212.598615 
L 343.271348 212.661868 
L 343.181564 212.978774 
L 343.136672 213.042283 
L 343.046888 213.36047 
L 343.001996 213.424236 
L 342.912212 213.743713 
L 342.86732 213.807738 
L 342.777536 214.128513 
L 342.732644 214.192798 
L 342.64286 214.514878 
L 342.597968 214.579425 
L 342.508184 214.902819 
L 342.463292 214.967629 
L 342.373508 215.292345 
L 342.328615 215.35742 
L 342.238831 215.683465 
L 342.193939 215.748808 
L 342.104155 216.07619 
L 342.059263 216.141801 
L 341.969479 216.47053 
L 341.924587 216.536411 
L 341.834803 216.866494 
L 341.789911 216.932647 
L 341.700127 217.264093 
L 341.655235 217.330519 
L 341.565451 217.663336 
L 341.520559 217.730037 
L 341.430775 218.064234 
L 341.385883 218.131212 
L 341.296099 218.466798 
L 341.251207 218.534054 
L 341.161423 218.871037 
L 341.116531 218.938573 
L 341.026747 219.276962 
L 340.981855 219.344781 
L 340.892071 219.684584 
L 340.847179 219.752686 
L 340.757395 220.093913 
L 340.712503 220.162301 
L 340.622719 220.50496 
L 340.577827 220.573635 
L 340.488043 220.917736 
L 340.443151 220.986701 
L 340.353367 221.332252 
L 340.308475 221.401508 
L 340.218691 221.748518 
L 340.173799 221.818067 
L 340.084014 222.166547 
L 340.039122 222.236391 
L 339.949338 222.586349 
L 339.904446 222.656489 
L 339.814662 223.007935 
L 339.76977 223.078374 
L 339.679986 223.431318 
L 339.635094 223.502057 
L 339.54531 223.856507 
L 339.500418 223.927549 
L 339.410634 224.283516 
L 339.365742 224.354862 
L 339.275958 224.712356 
L 339.231066 224.784008 
L 339.141282 225.143037 
L 339.09639 225.214998 
L 339.006606 225.575574 
L 338.961714 225.647844 
L 338.87193 226.009976 
L 338.827038 226.082559 
L 338.737254 226.446257 
L 338.692362 226.519154 
L 338.602578 226.884429 
L 338.557686 226.957643 
L 338.467902 227.324504 
L 338.42301 227.398036 
L 338.333226 227.766494 
L 338.288334 227.840347 
L 338.19855 228.210413 
L 338.153658 228.284587 
L 338.063874 228.656272 
L 338.018982 228.730771 
L 337.929197 229.104084 
L 337.884305 229.17891 
L 337.794521 229.553863 
L 337.749629 229.629018 
L 337.659845 230.00562 
L 337.614953 230.081107 
L 337.525169 230.45937 
L 337.480277 230.53519 
L 337.390493 230.915126 
L 337.345601 230.991281 
L 337.255817 231.372901 
L 337.210925 231.449394 
L 337.121141 231.832707 
L 337.076249 231.90954 
L 336.986465 232.29456 
L 336.941573 232.371735 
L 336.851789 232.758472 
L 336.806897 232.835992 
L 336.717113 233.224458 
L 336.672221 233.302325 
L 336.582437 233.692531 
L 336.537545 233.770747 
L 336.447761 234.162705 
L 336.402869 234.241272 
L 336.313085 234.634994 
L 336.268193 234.713916 
L 336.178409 235.109414 
L 336.133517 235.188692 
L 336.043733 235.585978 
L 335.998841 235.665614 
L 335.909057 236.0647 
L 335.864165 236.144698 
L 335.77438 236.545596 
L 335.729488 236.625958 
L 335.639704 237.028681 
L 335.594812 237.109409 
L 335.505028 237.513969 
L 335.460136 237.595065 
L 335.370352 238.001475 
L 335.32546 238.082943 
L 335.235676 238.491215 
L 335.190784 238.573057 
L 335.101 238.983204 
L 335.056108 239.065422 
L 334.966324 239.477458 
L 334.921432 239.560055 
L 334.831648 239.973992 
L 334.786756 240.056971 
L 334.696972 240.472822 
L 334.65208 240.556185 
L 334.562296 240.973964 
L 334.517404 241.057714 
L 334.42762 241.477435 
L 334.382728 241.561574 
L 334.292944 241.98325 
L 334.248052 242.067781 
L 334.158268 242.491425 
L 334.113376 242.576352 
L 334.023592 243.001979 
L 333.9787 243.087303 
L 333.888916 243.514926 
L 333.844024 243.600651 
L 333.75424 244.030284 
L 333.709348 244.116413 
L 333.619564 244.548071 
L 333.574671 244.634606 
L 333.484887 245.068302 
L 333.439995 245.155247 
L 333.350211 245.590997 
L 333.305319 245.678353 
L 333.215535 246.116171 
L 333.170643 246.203943 
L 333.080859 246.643844 
L 333.035967 246.732033 
L 332.946183 247.174032 
L 332.901291 247.262642 
L 332.811507 247.706753 
L 332.766615 247.795788 
L 332.676831 248.242027 
L 332.631939 248.331489 
L 332.564601 248.690051 
L 332.564601 24.229949 
L 332.564601 24.229949 
" clip-path="url(#pa7c0d528eb)" style="fill: none; stroke: #1f77b4; stroke-width: 1.5; stroke-linecap: square"/>
   </g>
   <g id="patch_9">
    <path d="M 330.32 250.934652 
L 330.32 21.985348 
" style="fill: none; stroke: #000000; stroke-width: 0.8; stroke-linejoin: miter; stroke-linecap: square"/>
   </g>
   <g id="patch_10">
    <path d="M 559.269305 250.934652 
L 559.269305 21.985348 
" style="fill: none; stroke: #000000; stroke-width: 0.8; stroke-linejoin: miter; stroke-linecap: square"/>
   </g>
   <g id="patch_11">
    <path d="M 330.32 250.934652 
L 559.269305 250.934652 
" style="fill: none; stroke: #000000; stroke-width: 0.8; stroke-linejoin: miter; stroke-linecap: square"/>
   </g>
   <g id="patch_12">
    <path d="M 330.32 21.985348 
L 559.269305 21.985348 
" style="fill: none; stroke: #000000; stroke-width: 0.8; stroke-linejoin: miter; stroke-linecap: square"/>
   </g>
   <g id="text_31">
    <!-- Precision-Recall Curve -->
    <g transform="translate(378.352152 15.985348) scale(0.12 -0.12)">
     <defs>
      <path id="DejaVuSans-2d" d="M 313 2009 
L 1997 2009 
L 1997 1497 
L 313 1497 
L 313 2009 
z
" transform="scale(0.015625)"/>
     </defs>
     <use xlink:href="#DejaVuSans-50"/>
     <use xlink:href="#DejaVuSans-72" transform="translate(58.552734 0)"/>
     <use xlink:href="#DejaVuSans-65" transform="translate(97.416016 0)"/>
     <use xlink:href="#DejaVuSans-63" transform="translate(158.939453 0)"/>
     <use xlink:href="#DejaVuSans-69" transform="translate(213.919922 0)"/>
     <use xlink:href="#DejaVuSans-73" transform="translate(241.703125 0)"/>
     <use xlink:href="#DejaVuSans-69" transform="translate(293.802734 0)"/>
     <use xlink:href="#DejaVuSans-6f" transform="translate(321.585938 0)"/>
     <use xlink:href="#DejaVuSans-6e" transform="translate(382.767578 0)"/>
     <use xlink:href="#DejaVuSans-2d" transform="translate(446.146484 0)"/>
     <use xlink:href="#DejaVuSans-52" transform="translate(482.230469 0)"/>
     <use xlink:href="#DejaVuSans-65" transform="translate(547.212891 0)"/>
     <use xlink:href="#DejaVuSans-63" transform="translate(608.736328 0)"/>
     <use xlink:href="#DejaVuSans-61" transform="translate(663.716797 0)"/>
     <use xlink:href="#DejaVuSans-6c" transform="translate(724.996094 0)"/>
     <use xlink:href="#DejaVuSans-6c" transform="translate(752.779297 0)"/>
     <use xlink:href="#DejaVuSans-20" transform="translate(780.5625 0)"/>
     <use xlink:href="#DejaVuSans-43" transform="translate(812.349609 0)"/>
     <use xlink:href="#DejaVuSans-75" transform="translate(882.173828 0)"/>
     <use xlink:href="#DejaVuSans-72" transform="translate(945.552734 0)"/>
     <use xlink:href="#DejaVuSans-76" transform="translate(986.666016 0)"/>
     <use xlink:href="#DejaVuSans-65" transform="translate(1045.845703 0)"/>
    </g>
   </g>
   <g id="legend_2">
    <g id="patch_13">
     <path d="M 337.32 245.934652 
L 475.821563 245.934652 
Q 477.821563 245.934652 477.821563 243.934652 
L 477.821563 230.256527 
Q 477.821563 228.256527 475.821563 228.256527 
L 337.32 228.256527 
Q 335.32 228.256527 335.32 230.256527 
L 335.32 243.934652 
Q 335.32 245.934652 337.32 245.934652 
z
" style="fill: #ffffff; opacity: 0.8; stroke: #cccccc; stroke-linejoin: miter"/>
    </g>
    <g id="line2d_28">
     <path d="M 339.32 236.354965 
L 349.32 236.354965 
L 349.32 236.354965 
L 359.32 236.354965 
L 359.32 236.354965 
" style="fill: none; stroke: #1f77b4; stroke-width: 1.5; stroke-linecap: square"/>
    </g>
    <g id="text_32">
     <!-- Classifier (AP = 0.60) -->
     <g transform="translate(367.32 239.854965) scale(0.1 -0.1)">
      <use xlink:href="#DejaVuSans-43"/>
      <use xlink:href="#DejaVuSans-6c" transform="translate(69.824219 0)"/>
      <use xlink:href="#DejaVuSans-61" transform="translate(97.607422 0)"/>
      <use xlink:href="#DejaVuSans-73" transform="translate(158.886719 0)"/>
      <use xlink:href="#DejaVuSans-73" transform="translate(210.986328 0)"/>
      <use xlink:href="#DejaVuSans-69" transform="translate(263.085938 0)"/>
      <use xlink:href="#DejaVuSans-66" transform="translate(290.869141 0)"/>
      <use xlink:href="#DejaVuSans-69" transform="translate(326.074219 0)"/>
      <use xlink:href="#DejaVuSans-65" transform="translate(353.857422 0)"/>
      <use xlink:href="#DejaVuSans-72" transform="translate(415.380859 0)"/>
      <use xlink:href="#DejaVuSans-20" transform="translate(456.494141 0)"/>
      <use xlink:href="#DejaVuSans-28" transform="translate(488.28125 0)"/>
      <use xlink:href="#DejaVuSans-41" transform="translate(527.294922 0)"/>
      <use xlink:href="#DejaVuSans-50" transform="translate(595.703125 0)"/>
      <use xlink:href="#DejaVuSans-20" transform="translate(656.005859 0)"/>
      <use xlink:href="#DejaVuSans-3d" transform="translate(687.792969 0)"/>
      <use xlink:href="#DejaVuSans-20" transform="translate(771.582031 0)"/>
      <use xlink:href="#DejaVuSans-30" transform="translate(803.369141 0)"/>
      <use xlink:href="#DejaVuSans-2e" transform="translate(866.992188 0)"/>
      <use xlink:href="#DejaVuSans-36" transform="translate(898.779297 0)"/>
      <use xlink:href="#DejaVuSans-30" transform="translate(962.402344 0)"/>
      <use xlink:href="#DejaVuSans-29" transform="translate(1026.025391 0)"/>
     </g>
    </g>
   </g>
  </g>
 </g>
 <defs>
  <clipPath id="p5db3e9e671">
   <rect x="47.72" y="21.985348" width="228.949305" height="228.949305"/>
  </clipPath>
  <clipPath id="pa7c0d528eb">
   <rect x="330.32" y="21.985348" width="228.949305" height="228.949305"/>
  </clipPath>
 </defs>
</svg>
