<?xml version="1.0" encoding="utf-8" standalone="no"?>
<!DOCTYPE svg PUBLIC "-//W3C//DTD SVG 1.1//EN"
  "http://www.w3.org/Graphics/SVG/1.1/DTD/svg11.dtd">
<svg xmlns:xlink="http://www.w3.org/1999/xlink" width="576pt" height="288pt" viewBox="0 0 576 288" xmlns="http://www.w3.org/2000/svg" version="1.1">
 <metadata>
  <rdf:RDF xmlns:dc="http://purl.org/dc/elements/1.1/" xmlns:cc="http://creativecommons.org/ns#" xmlns:rdf="http://www.w3.org/1999/02/22-rdf-syntax-ns#">
   <cc:Work>
    <dc:type rdf:resource="http://purl.org/dc/dcmitype/StillImage"/>
    <dc:date>2025-05-31T21:01:13.125489</dc:date>
    <dc:format>image/svg+xml</dc:format>
    <dc:creator>
     <cc:Agent>
      <dc:title>Matplotlib v3.10.1, https://matplotlib.org/</dc:title>
     </cc:Agent>
    </dc:creator>
   </cc:Work>
  </rdf:RDF>
 </metadata>
 <defs>
  <style type="text/css">*{stroke-linejoin: round; stroke-linecap: butt}</style>
 </defs>
 <g id="figure_1">
  <g id="patch_1">
   <path d="M 0 288 
L 576 288 
L 576 0 
L 0 0 
z
" style="fill: #ffffff"/>
  </g>
  <g id="axes_1">
   <g id="patch_2">
    <path d="M 47.72 246.04 
L 280.879846 246.04 
L 280.879846 34.75125 
L 47.72 34.75125 
z
" style="fill: #ffffff"/>
   </g>
   <g id="matplotlib.axis_1">
    <g id="xtick_1">
     <g id="line2d_1">
      <defs>
       <path id="m8d955e4c6a" d="M 0 0 
L 0 3.5 
" style="stroke: #000000; stroke-width: 0.8"/>
      </defs>
      <g>
       <use xlink:href="#m8d955e4c6a" x="58.318175" y="246.04" style="stroke: #000000; stroke-width: 0.8"/>
      </g>
     </g>
     <g id="text_1">
      <!-- 0 -->
      <g transform="translate(55.136925 260.638438) scale(0.1 -0.1)">
       <defs>
        <path id="DejaVuSans-30" d="M 2034 4250 
Q 1547 4250 1301 3770 
Q 1056 3291 1056 2328 
Q 1056 1369 1301 889 
Q 1547 409 2034 409 
Q 2525 409 2770 889 
Q 3016 1369 3016 2328 
Q 3016 3291 2770 3770 
Q 2525 4250 2034 4250 
z
M 2034 4750 
Q 2819 4750 3233 4129 
Q 3647 3509 3647 2328 
Q 3647 1150 3233 529 
Q 2819 -91 2034 -91 
Q 1250 -91 836 529 
Q 422 1150 422 2328 
Q 422 3509 836 4129 
Q 1250 4750 2034 4750 
z
" transform="scale(0.015625)"/>
       </defs>
       <use xlink:href="#DejaVuSans-30"/>
      </g>
     </g>
    </g>
    <g id="xtick_2">
     <g id="line2d_2">
      <g>
       <use xlink:href="#m8d955e4c6a" x="100.715114" y="246.04" style="stroke: #000000; stroke-width: 0.8"/>
      </g>
     </g>
     <g id="text_2">
      <!-- 2000 -->
      <g transform="translate(87.990114 260.638438) scale(0.1 -0.1)">
       <defs>
        <path id="DejaVuSans-32" d="M 1228 531 
L 3431 531 
L 3431 0 
L 469 0 
L 469 531 
Q 828 903 1448 1529 
Q 2069 2156 2228 2338 
Q 2531 2678 2651 2914 
Q 2772 3150 2772 3378 
Q 2772 3750 2511 3984 
Q 2250 4219 1831 4219 
Q 1534 4219 1204 4116 
Q 875 4013 500 3803 
L 500 4441 
Q 881 4594 1212 4672 
Q 1544 4750 1819 4750 
Q 2544 4750 2975 4387 
Q 3406 4025 3406 3419 
Q 3406 3131 3298 2873 
Q 3191 2616 2906 2266 
Q 2828 2175 2409 1742 
Q 1991 1309 1228 531 
z
" transform="scale(0.015625)"/>
       </defs>
       <use xlink:href="#DejaVuSans-32"/>
       <use xlink:href="#DejaVuSans-30" transform="translate(63.623047 0)"/>
       <use xlink:href="#DejaVuSans-30" transform="translate(127.246094 0)"/>
       <use xlink:href="#DejaVuSans-30" transform="translate(190.869141 0)"/>
      </g>
     </g>
    </g>
    <g id="xtick_3">
     <g id="line2d_3">
      <g>
       <use xlink:href="#m8d955e4c6a" x="143.112053" y="246.04" style="stroke: #000000; stroke-width: 0.8"/>
      </g>
     </g>
     <g id="text_3">
      <!-- 4000 -->
      <g transform="translate(130.387053 260.638438) scale(0.1 -0.1)">
       <defs>
        <path id="DejaVuSans-34" d="M 2419 4116 
L 825 1625 
L 2419 1625 
L 2419 4116 
z
M 2253 4666 
L 3047 4666 
L 3047 1625 
L 3713 1625 
L 3713 1100 
L 3047 1100 
L 3047 0 
L 2419 0 
L 2419 1100 
L 313 1100 
L 313 1709 
L 2253 4666 
z
" transform="scale(0.015625)"/>
       </defs>
       <use xlink:href="#DejaVuSans-34"/>
       <use xlink:href="#DejaVuSans-30" transform="translate(63.623047 0)"/>
       <use xlink:href="#DejaVuSans-30" transform="translate(127.246094 0)"/>
       <use xlink:href="#DejaVuSans-30" transform="translate(190.869141 0)"/>
      </g>
     </g>
    </g>
    <g id="xtick_4">
     <g id="line2d_4">
      <g>
       <use xlink:href="#m8d955e4c6a" x="185.508992" y="246.04" style="stroke: #000000; stroke-width: 0.8"/>
      </g>
     </g>
     <g id="text_4">
      <!-- 6000 -->
      <g transform="translate(172.783992 260.638438) scale(0.1 -0.1)">
       <defs>
        <path id="DejaVuSans-36" d="M 2113 2584 
Q 1688 2584 1439 2293 
Q 1191 2003 1191 1497 
Q 1191 994 1439 701 
Q 1688 409 2113 409 
Q 2538 409 2786 701 
Q 3034 994 3034 1497 
Q 3034 2003 2786 2293 
Q 2538 2584 2113 2584 
z
M 3366 4563 
L 3366 3988 
Q 3128 4100 2886 4159 
Q 2644 4219 2406 4219 
Q 1781 4219 1451 3797 
Q 1122 3375 1075 2522 
Q 1259 2794 1537 2939 
Q 1816 3084 2150 3084 
Q 2853 3084 3261 2657 
Q 3669 2231 3669 1497 
Q 3669 778 3244 343 
Q 2819 -91 2113 -91 
Q 1303 -91 875 529 
Q 447 1150 447 2328 
Q 447 3434 972 4092 
Q 1497 4750 2381 4750 
Q 2619 4750 2861 4703 
Q 3103 4656 3366 4563 
z
" transform="scale(0.015625)"/>
       </defs>
       <use xlink:href="#DejaVuSans-36"/>
       <use xlink:href="#DejaVuSans-30" transform="translate(63.623047 0)"/>
       <use xlink:href="#DejaVuSans-30" transform="translate(127.246094 0)"/>
       <use xlink:href="#DejaVuSans-30" transform="translate(190.869141 0)"/>
      </g>
     </g>
    </g>
    <g id="xtick_5">
     <g id="line2d_5">
      <g>
       <use xlink:href="#m8d955e4c6a" x="227.905931" y="246.04" style="stroke: #000000; stroke-width: 0.8"/>
      </g>
     </g>
     <g id="text_5">
      <!-- 8000 -->
      <g transform="translate(215.180931 260.638438) scale(0.1 -0.1)">
       <defs>
        <path id="DejaVuSans-38" d="M 2034 2216 
Q 1584 2216 1326 1975 
Q 1069 1734 1069 1313 
Q 1069 891 1326 650 
Q 1584 409 2034 409 
Q 2484 409 2743 651 
Q 3003 894 3003 1313 
Q 3003 1734 2745 1975 
Q 2488 2216 2034 2216 
z
M 1403 2484 
Q 997 2584 770 2862 
Q 544 3141 544 3541 
Q 544 4100 942 4425 
Q 1341 4750 2034 4750 
Q 2731 4750 3128 4425 
Q 3525 4100 3525 3541 
Q 3525 3141 3298 2862 
Q 3072 2584 2669 2484 
Q 3125 2378 3379 2068 
Q 3634 1759 3634 1313 
Q 3634 634 3220 271 
Q 2806 -91 2034 -91 
Q 1263 -91 848 271 
Q 434 634 434 1313 
Q 434 1759 690 2068 
Q 947 2378 1403 2484 
z
M 1172 3481 
Q 1172 3119 1398 2916 
Q 1625 2713 2034 2713 
Q 2441 2713 2670 2916 
Q 2900 3119 2900 3481 
Q 2900 3844 2670 4047 
Q 2441 4250 2034 4250 
Q 1625 4250 1398 4047 
Q 1172 3844 1172 3481 
z
" transform="scale(0.015625)"/>
       </defs>
       <use xlink:href="#DejaVuSans-38"/>
       <use xlink:href="#DejaVuSans-30" transform="translate(63.623047 0)"/>
       <use xlink:href="#DejaVuSans-30" transform="translate(127.246094 0)"/>
       <use xlink:href="#DejaVuSans-30" transform="translate(190.869141 0)"/>
      </g>
     </g>
    </g>
    <g id="xtick_6">
     <g id="line2d_6">
      <g>
       <use xlink:href="#m8d955e4c6a" x="270.30287" y="246.04" style="stroke: #000000; stroke-width: 0.8"/>
      </g>
     </g>
     <g id="text_6">
      <!-- 10000 -->
      <g transform="translate(254.39662 260.638438) scale(0.1 -0.1)">
       <defs>
        <path id="DejaVuSans-31" d="M 794 531 
L 1825 531 
L 1825 4091 
L 703 3866 
L 703 4441 
L 1819 4666 
L 2450 4666 
L 2450 531 
L 3481 531 
L 3481 0 
L 794 0 
L 794 531 
z
" transform="scale(0.015625)"/>
       </defs>
       <use xlink:href="#DejaVuSans-31"/>
       <use xlink:href="#DejaVuSans-30" transform="translate(63.623047 0)"/>
       <use xlink:href="#DejaVuSans-30" transform="translate(127.246094 0)"/>
       <use xlink:href="#DejaVuSans-30" transform="translate(190.869141 0)"/>
       <use xlink:href="#DejaVuSans-30" transform="translate(254.492188 0)"/>
      </g>
     </g>
    </g>
    <g id="text_7">
     <!-- Ordered samples -->
     <g transform="translate(121.578829 274.316562) scale(0.1 -0.1)">
      <defs>
       <path id="DejaVuSans-4f" d="M 2522 4238 
Q 1834 4238 1429 3725 
Q 1025 3213 1025 2328 
Q 1025 1447 1429 934 
Q 1834 422 2522 422 
Q 3209 422 3611 934 
Q 4013 1447 4013 2328 
Q 4013 3213 3611 3725 
Q 3209 4238 2522 4238 
z
M 2522 4750 
Q 3503 4750 4090 4092 
Q 4678 3434 4678 2328 
Q 4678 1225 4090 567 
Q 3503 -91 2522 -91 
Q 1538 -91 948 565 
Q 359 1222 359 2328 
Q 359 3434 948 4092 
Q 1538 4750 2522 4750 
z
" transform="scale(0.015625)"/>
       <path id="DejaVuSans-72" d="M 2631 2963 
Q 2534 3019 2420 3045 
Q 2306 3072 2169 3072 
Q 1681 3072 1420 2755 
Q 1159 2438 1159 1844 
L 1159 0 
L 581 0 
L 581 3500 
L 1159 3500 
L 1159 2956 
Q 1341 3275 1631 3429 
Q 1922 3584 2338 3584 
Q 2397 3584 2469 3576 
Q 2541 3569 2628 3553 
L 2631 2963 
z
" transform="scale(0.015625)"/>
       <path id="DejaVuSans-64" d="M 2906 2969 
L 2906 4863 
L 3481 4863 
L 3481 0 
L 2906 0 
L 2906 525 
Q 2725 213 2448 61 
Q 2172 -91 1784 -91 
Q 1150 -91 751 415 
Q 353 922 353 1747 
Q 353 2572 751 3078 
Q 1150 3584 1784 3584 
Q 2172 3584 2448 3432 
Q 2725 3281 2906 2969 
z
M 947 1747 
Q 947 1113 1208 752 
Q 1469 391 1925 391 
Q 2381 391 2643 752 
Q 2906 1113 2906 1747 
Q 2906 2381 2643 2742 
Q 2381 3103 1925 3103 
Q 1469 3103 1208 2742 
Q 947 2381 947 1747 
z
" transform="scale(0.015625)"/>
       <path id="DejaVuSans-65" d="M 3597 1894 
L 3597 1613 
L 953 1613 
Q 991 1019 1311 708 
Q 1631 397 2203 397 
Q 2534 397 2845 478 
Q 3156 559 3463 722 
L 3463 178 
Q 3153 47 2828 -22 
Q 2503 -91 2169 -91 
Q 1331 -91 842 396 
Q 353 884 353 1716 
Q 353 2575 817 3079 
Q 1281 3584 2069 3584 
Q 2775 3584 3186 3129 
Q 3597 2675 3597 1894 
z
M 3022 2063 
Q 3016 2534 2758 2815 
Q 2500 3097 2075 3097 
Q 1594 3097 1305 2825 
Q 1016 2553 972 2059 
L 3022 2063 
z
" transform="scale(0.015625)"/>
       <path id="DejaVuSans-20" transform="scale(0.015625)"/>
       <path id="DejaVuSans-73" d="M 2834 3397 
L 2834 2853 
Q 2591 2978 2328 3040 
Q 2066 3103 1784 3103 
Q 1356 3103 1142 2972 
Q 928 2841 928 2578 
Q 928 2378 1081 2264 
Q 1234 2150 1697 2047 
L 1894 2003 
Q 2506 1872 2764 1633 
Q 3022 1394 3022 966 
Q 3022 478 2636 193 
Q 2250 -91 1575 -91 
Q 1294 -91 989 -36 
Q 684 19 347 128 
L 347 722 
Q 666 556 975 473 
Q 1284 391 1588 391 
Q 1994 391 2212 530 
Q 2431 669 2431 922 
Q 2431 1156 2273 1281 
Q 2116 1406 1581 1522 
L 1381 1569 
Q 847 1681 609 1914 
Q 372 2147 372 2553 
Q 372 3047 722 3315 
Q 1072 3584 1716 3584 
Q 2034 3584 2315 3537 
Q 2597 3491 2834 3397 
z
" transform="scale(0.015625)"/>
       <path id="DejaVuSans-61" d="M 2194 1759 
Q 1497 1759 1228 1600 
Q 959 1441 959 1056 
Q 959 750 1161 570 
Q 1363 391 1709 391 
Q 2188 391 2477 730 
Q 2766 1069 2766 1631 
L 2766 1759 
L 2194 1759 
z
M 3341 1997 
L 3341 0 
L 2766 0 
L 2766 531 
Q 2569 213 2275 61 
Q 1981 -91 1556 -91 
Q 1019 -91 701 211 
Q 384 513 384 1019 
Q 384 1609 779 1909 
Q 1175 2209 1959 2209 
L 2766 2209 
L 2766 2266 
Q 2766 2663 2505 2880 
Q 2244 3097 1772 3097 
Q 1472 3097 1187 3025 
Q 903 2953 641 2809 
L 641 3341 
Q 956 3463 1253 3523 
Q 1550 3584 1831 3584 
Q 2591 3584 2966 3190 
Q 3341 2797 3341 1997 
z
" transform="scale(0.015625)"/>
       <path id="DejaVuSans-6d" d="M 3328 2828 
Q 3544 3216 3844 3400 
Q 4144 3584 4550 3584 
Q 5097 3584 5394 3201 
Q 5691 2819 5691 2113 
L 5691 0 
L 5113 0 
L 5113 2094 
Q 5113 2597 4934 2840 
Q 4756 3084 4391 3084 
Q 3944 3084 3684 2787 
Q 3425 2491 3425 1978 
L 3425 0 
L 2847 0 
L 2847 2094 
Q 2847 2600 2669 2842 
Q 2491 3084 2119 3084 
Q 1678 3084 1418 2786 
Q 1159 2488 1159 1978 
L 1159 0 
L 581 0 
L 581 3500 
L 1159 3500 
L 1159 2956 
Q 1356 3278 1631 3431 
Q 1906 3584 2284 3584 
Q 2666 3584 2933 3390 
Q 3200 3197 3328 2828 
z
" transform="scale(0.015625)"/>
       <path id="DejaVuSans-70" d="M 1159 525 
L 1159 -1331 
L 581 -1331 
L 581 3500 
L 1159 3500 
L 1159 2969 
Q 1341 3281 1617 3432 
Q 1894 3584 2278 3584 
Q 2916 3584 3314 3078 
Q 3713 2572 3713 1747 
Q 3713 922 3314 415 
Q 2916 -91 2278 -91 
Q 1894 -91 1617 61 
Q 1341 213 1159 525 
z
M 3116 1747 
Q 3116 2381 2855 2742 
Q 2594 3103 2138 3103 
Q 1681 3103 1420 2742 
Q 1159 2381 1159 1747 
Q 1159 1113 1420 752 
Q 1681 391 2138 391 
Q 2594 391 2855 752 
Q 3116 1113 3116 1747 
z
" transform="scale(0.015625)"/>
       <path id="DejaVuSans-6c" d="M 603 4863 
L 1178 4863 
L 1178 0 
L 603 0 
L 603 4863 
z
" transform="scale(0.015625)"/>
      </defs>
      <use xlink:href="#DejaVuSans-4f"/>
      <use xlink:href="#DejaVuSans-72" transform="translate(78.710938 0)"/>
      <use xlink:href="#DejaVuSans-64" transform="translate(118.074219 0)"/>
      <use xlink:href="#DejaVuSans-65" transform="translate(181.550781 0)"/>
      <use xlink:href="#DejaVuSans-72" transform="translate(243.074219 0)"/>
      <use xlink:href="#DejaVuSans-65" transform="translate(281.9375 0)"/>
      <use xlink:href="#DejaVuSans-64" transform="translate(343.460938 0)"/>
      <use xlink:href="#DejaVuSans-20" transform="translate(406.9375 0)"/>
      <use xlink:href="#DejaVuSans-73" transform="translate(438.724609 0)"/>
      <use xlink:href="#DejaVuSans-61" transform="translate(490.824219 0)"/>
      <use xlink:href="#DejaVuSans-6d" transform="translate(552.103516 0)"/>
      <use xlink:href="#DejaVuSans-70" transform="translate(649.515625 0)"/>
      <use xlink:href="#DejaVuSans-6c" transform="translate(712.992188 0)"/>
      <use xlink:href="#DejaVuSans-65" transform="translate(740.775391 0)"/>
      <use xlink:href="#DejaVuSans-73" transform="translate(802.298828 0)"/>
     </g>
    </g>
   </g>
   <g id="matplotlib.axis_2">
    <g id="ytick_1">
     <g id="line2d_7">
      <defs>
       <path id="m4f724000ff" d="M 0 0 
L -3.5 0 
" style="stroke: #000000; stroke-width: 0.8"/>
      </defs>
      <g>
       <use xlink:href="#m4f724000ff" x="47.72" y="238.313792" style="stroke: #000000; stroke-width: 0.8"/>
      </g>
     </g>
     <g id="text_8">
      <!-- 0.2 -->
      <g transform="translate(24.816875 242.113011) scale(0.1 -0.1)">
       <defs>
        <path id="DejaVuSans-2e" d="M 684 794 
L 1344 794 
L 1344 0 
L 684 0 
L 684 794 
z
" transform="scale(0.015625)"/>
       </defs>
       <use xlink:href="#DejaVuSans-30"/>
       <use xlink:href="#DejaVuSans-2e" transform="translate(63.623047 0)"/>
       <use xlink:href="#DejaVuSans-32" transform="translate(95.410156 0)"/>
      </g>
     </g>
    </g>
    <g id="ytick_2">
     <g id="line2d_8">
      <g>
       <use xlink:href="#m4f724000ff" x="47.72" y="214.068978" style="stroke: #000000; stroke-width: 0.8"/>
      </g>
     </g>
     <g id="text_9">
      <!-- 0.3 -->
      <g transform="translate(24.816875 217.868197) scale(0.1 -0.1)">
       <defs>
        <path id="DejaVuSans-33" d="M 2597 2516 
Q 3050 2419 3304 2112 
Q 3559 1806 3559 1356 
Q 3559 666 3084 287 
Q 2609 -91 1734 -91 
Q 1441 -91 1130 -33 
Q 819 25 488 141 
L 488 750 
Q 750 597 1062 519 
Q 1375 441 1716 441 
Q 2309 441 2620 675 
Q 2931 909 2931 1356 
Q 2931 1769 2642 2001 
Q 2353 2234 1838 2234 
L 1294 2234 
L 1294 2753 
L 1863 2753 
Q 2328 2753 2575 2939 
Q 2822 3125 2822 3475 
Q 2822 3834 2567 4026 
Q 2313 4219 1838 4219 
Q 1578 4219 1281 4162 
Q 984 4106 628 3988 
L 628 4550 
Q 988 4650 1302 4700 
Q 1616 4750 1894 4750 
Q 2613 4750 3031 4423 
Q 3450 4097 3450 3541 
Q 3450 3153 3228 2886 
Q 3006 2619 2597 2516 
z
" transform="scale(0.015625)"/>
       </defs>
       <use xlink:href="#DejaVuSans-30"/>
       <use xlink:href="#DejaVuSans-2e" transform="translate(63.623047 0)"/>
       <use xlink:href="#DejaVuSans-33" transform="translate(95.410156 0)"/>
      </g>
     </g>
    </g>
    <g id="ytick_3">
     <g id="line2d_9">
      <g>
       <use xlink:href="#m4f724000ff" x="47.72" y="189.824165" style="stroke: #000000; stroke-width: 0.8"/>
      </g>
     </g>
     <g id="text_10">
      <!-- 0.4 -->
      <g transform="translate(24.816875 193.623384) scale(0.1 -0.1)">
       <use xlink:href="#DejaVuSans-30"/>
       <use xlink:href="#DejaVuSans-2e" transform="translate(63.623047 0)"/>
       <use xlink:href="#DejaVuSans-34" transform="translate(95.410156 0)"/>
      </g>
     </g>
    </g>
    <g id="ytick_4">
     <g id="line2d_10">
      <g>
       <use xlink:href="#m4f724000ff" x="47.72" y="165.579351" style="stroke: #000000; stroke-width: 0.8"/>
      </g>
     </g>
     <g id="text_11">
      <!-- 0.5 -->
      <g transform="translate(24.816875 169.37857) scale(0.1 -0.1)">
       <defs>
        <path id="DejaVuSans-35" d="M 691 4666 
L 3169 4666 
L 3169 4134 
L 1269 4134 
L 1269 2991 
Q 1406 3038 1543 3061 
Q 1681 3084 1819 3084 
Q 2600 3084 3056 2656 
Q 3513 2228 3513 1497 
Q 3513 744 3044 326 
Q 2575 -91 1722 -91 
Q 1428 -91 1123 -41 
Q 819 9 494 109 
L 494 744 
Q 775 591 1075 516 
Q 1375 441 1709 441 
Q 2250 441 2565 725 
Q 2881 1009 2881 1497 
Q 2881 1984 2565 2268 
Q 2250 2553 1709 2553 
Q 1456 2553 1204 2497 
Q 953 2441 691 2322 
L 691 4666 
z
" transform="scale(0.015625)"/>
       </defs>
       <use xlink:href="#DejaVuSans-30"/>
       <use xlink:href="#DejaVuSans-2e" transform="translate(63.623047 0)"/>
       <use xlink:href="#DejaVuSans-35" transform="translate(95.410156 0)"/>
      </g>
     </g>
    </g>
    <g id="ytick_5">
     <g id="line2d_11">
      <g>
       <use xlink:href="#m4f724000ff" x="47.72" y="141.334538" style="stroke: #000000; stroke-width: 0.8"/>
      </g>
     </g>
     <g id="text_12">
      <!-- 0.6 -->
      <g transform="translate(24.816875 145.133757) scale(0.1 -0.1)">
       <use xlink:href="#DejaVuSans-30"/>
       <use xlink:href="#DejaVuSans-2e" transform="translate(63.623047 0)"/>
       <use xlink:href="#DejaVuSans-36" transform="translate(95.410156 0)"/>
      </g>
     </g>
    </g>
    <g id="ytick_6">
     <g id="line2d_12">
      <g>
       <use xlink:href="#m4f724000ff" x="47.72" y="117.089725" style="stroke: #000000; stroke-width: 0.8"/>
      </g>
     </g>
     <g id="text_13">
      <!-- 0.7 -->
      <g transform="translate(24.816875 120.888943) scale(0.1 -0.1)">
       <defs>
        <path id="DejaVuSans-37" d="M 525 4666 
L 3525 4666 
L 3525 4397 
L 1831 0 
L 1172 0 
L 2766 4134 
L 525 4134 
L 525 4666 
z
" transform="scale(0.015625)"/>
       </defs>
       <use xlink:href="#DejaVuSans-30"/>
       <use xlink:href="#DejaVuSans-2e" transform="translate(63.623047 0)"/>
       <use xlink:href="#DejaVuSans-37" transform="translate(95.410156 0)"/>
      </g>
     </g>
    </g>
    <g id="ytick_7">
     <g id="line2d_13">
      <g>
       <use xlink:href="#m4f724000ff" x="47.72" y="92.844911" style="stroke: #000000; stroke-width: 0.8"/>
      </g>
     </g>
     <g id="text_14">
      <!-- 0.8 -->
      <g transform="translate(24.816875 96.64413) scale(0.1 -0.1)">
       <use xlink:href="#DejaVuSans-30"/>
       <use xlink:href="#DejaVuSans-2e" transform="translate(63.623047 0)"/>
       <use xlink:href="#DejaVuSans-38" transform="translate(95.410156 0)"/>
      </g>
     </g>
    </g>
    <g id="ytick_8">
     <g id="line2d_14">
      <g>
       <use xlink:href="#m4f724000ff" x="47.72" y="68.600098" style="stroke: #000000; stroke-width: 0.8"/>
      </g>
     </g>
     <g id="text_15">
      <!-- 0.9 -->
      <g transform="translate(24.816875 72.399316) scale(0.1 -0.1)">
       <defs>
        <path id="DejaVuSans-39" d="M 703 97 
L 703 672 
Q 941 559 1184 500 
Q 1428 441 1663 441 
Q 2288 441 2617 861 
Q 2947 1281 2994 2138 
Q 2813 1869 2534 1725 
Q 2256 1581 1919 1581 
Q 1219 1581 811 2004 
Q 403 2428 403 3163 
Q 403 3881 828 4315 
Q 1253 4750 1959 4750 
Q 2769 4750 3195 4129 
Q 3622 3509 3622 2328 
Q 3622 1225 3098 567 
Q 2575 -91 1691 -91 
Q 1453 -91 1209 -44 
Q 966 3 703 97 
z
M 1959 2075 
Q 2384 2075 2632 2365 
Q 2881 2656 2881 3163 
Q 2881 3666 2632 3958 
Q 2384 4250 1959 4250 
Q 1534 4250 1286 3958 
Q 1038 3666 1038 3163 
Q 1038 2656 1286 2365 
Q 1534 2075 1959 2075 
z
" transform="scale(0.015625)"/>
       </defs>
       <use xlink:href="#DejaVuSans-30"/>
       <use xlink:href="#DejaVuSans-2e" transform="translate(63.623047 0)"/>
       <use xlink:href="#DejaVuSans-39" transform="translate(95.410156 0)"/>
      </g>
     </g>
    </g>
    <g id="ytick_9">
     <g id="line2d_15">
      <g>
       <use xlink:href="#m4f724000ff" x="47.72" y="44.355284" style="stroke: #000000; stroke-width: 0.8"/>
      </g>
     </g>
     <g id="text_16">
      <!-- 1.0 -->
      <g transform="translate(24.816875 48.154503) scale(0.1 -0.1)">
       <use xlink:href="#DejaVuSans-31"/>
       <use xlink:href="#DejaVuSans-2e" transform="translate(63.623047 0)"/>
       <use xlink:href="#DejaVuSans-30" transform="translate(95.410156 0)"/>
      </g>
     </g>
    </g>
    <g id="text_17">
     <!-- Scores -->
     <g transform="translate(18.737187 157.002656) rotate(-90) scale(0.1 -0.1)">
      <defs>
       <path id="DejaVuSans-53" d="M 3425 4513 
L 3425 3897 
Q 3066 4069 2747 4153 
Q 2428 4238 2131 4238 
Q 1616 4238 1336 4038 
Q 1056 3838 1056 3469 
Q 1056 3159 1242 3001 
Q 1428 2844 1947 2747 
L 2328 2669 
Q 3034 2534 3370 2195 
Q 3706 1856 3706 1288 
Q 3706 609 3251 259 
Q 2797 -91 1919 -91 
Q 1588 -91 1214 -16 
Q 841 59 441 206 
L 441 856 
Q 825 641 1194 531 
Q 1563 422 1919 422 
Q 2459 422 2753 634 
Q 3047 847 3047 1241 
Q 3047 1584 2836 1778 
Q 2625 1972 2144 2069 
L 1759 2144 
Q 1053 2284 737 2584 
Q 422 2884 422 3419 
Q 422 4038 858 4394 
Q 1294 4750 2059 4750 
Q 2388 4750 2728 4690 
Q 3069 4631 3425 4513 
z
" transform="scale(0.015625)"/>
       <path id="DejaVuSans-63" d="M 3122 3366 
L 3122 2828 
Q 2878 2963 2633 3030 
Q 2388 3097 2138 3097 
Q 1578 3097 1268 2742 
Q 959 2388 959 1747 
Q 959 1106 1268 751 
Q 1578 397 2138 397 
Q 2388 397 2633 464 
Q 2878 531 3122 666 
L 3122 134 
Q 2881 22 2623 -34 
Q 2366 -91 2075 -91 
Q 1284 -91 818 406 
Q 353 903 353 1747 
Q 353 2603 823 3093 
Q 1294 3584 2113 3584 
Q 2378 3584 2631 3529 
Q 2884 3475 3122 3366 
z
" transform="scale(0.015625)"/>
       <path id="DejaVuSans-6f" d="M 1959 3097 
Q 1497 3097 1228 2736 
Q 959 2375 959 1747 
Q 959 1119 1226 758 
Q 1494 397 1959 397 
Q 2419 397 2687 759 
Q 2956 1122 2956 1747 
Q 2956 2369 2687 2733 
Q 2419 3097 1959 3097 
z
M 1959 3584 
Q 2709 3584 3137 3096 
Q 3566 2609 3566 1747 
Q 3566 888 3137 398 
Q 2709 -91 1959 -91 
Q 1206 -91 779 398 
Q 353 888 353 1747 
Q 353 2609 779 3096 
Q 1206 3584 1959 3584 
z
" transform="scale(0.015625)"/>
      </defs>
      <use xlink:href="#DejaVuSans-53"/>
      <use xlink:href="#DejaVuSans-63" transform="translate(63.476562 0)"/>
      <use xlink:href="#DejaVuSans-6f" transform="translate(118.457031 0)"/>
      <use xlink:href="#DejaVuSans-72" transform="translate(179.638672 0)"/>
      <use xlink:href="#DejaVuSans-65" transform="translate(218.501953 0)"/>
      <use xlink:href="#DejaVuSans-73" transform="translate(280.025391 0)"/>
     </g>
    </g>
   </g>
   <g id="line2d_16">
    <path d="M 58.318175 235.335621 
L 58.487763 230.080253 
L 58.678549 223.427856 
L 59.123717 215.532121 
L 59.166114 215.459505 
L 59.568885 211.284167 
L 59.929259 208.984661 
L 60.056449 208.174174 
L 60.755999 204.920481 
L 60.925587 203.399885 
L 61.201167 202.830341 
L 61.370754 202.384808 
L 61.688731 200.757397 
L 62.006709 198.491692 
L 62.027907 198.491114 
L 62.282289 197.606552 
L 62.515472 197.281967 
L 62.663861 196.875893 
L 62.96064 195.954957 
L 63.024235 195.804804 
L 63.172624 194.894374 
L 63.23622 194.710962 
L 63.384609 193.923785 
L 63.448204 193.828018 
L 63.660189 193.08324 
L 64.147754 192.293188 
L 65.674044 188.263437 
L 65.843631 187.847378 
L 66.14041 186.980959 
L 66.161609 186.980518 
L 66.288799 186.742805 
L 66.352395 186.662508 
L 66.861158 185.553493 
L 66.96715 185.363317 
L 67.030746 185.184919 
L 67.263929 184.761518 
L 67.412318 184.517339 
L 68.429845 182.247045 
L 68.472242 182.161921 
L 68.49344 182.125208 
L 68.641829 181.549313 
L 68.853814 181.025875 
L 68.938608 180.985513 
L 69.086997 180.563767 
L 69.235387 180.070199 
L 69.383776 179.626516 
L 69.659356 179.15193 
L 69.850142 178.775907 
L 69.934936 178.647249 
L 70.062127 178.394717 
L 70.146921 178.333221 
L 70.29531 177.962284 
L 70.782875 176.720131 
L 70.99486 176.368176 
L 71.185646 175.863582 
L 71.291638 175.740235 
L 71.630814 174.926996 
L 72.245569 173.634633 
L 72.393959 173.280041 
L 72.966317 172.135974 
L 73.07231 171.997974 
L 73.34789 171.550548 
L 73.475081 171.40624 
L 73.708264 171.020318 
L 73.835455 170.921812 
L 74.026241 170.51404 
L 74.195828 170.349479 
L 74.365416 170.189109 
L 74.513806 170.075712 
L 74.72579 169.666422 
L 74.87418 169.436058 
L 74.958973 169.321866 
L 75.404141 168.663195 
L 75.510134 168.591395 
L 75.743317 168.157019 
L 75.955301 167.9681 
L 76.103691 167.670741 
L 76.167286 167.575972 
L 77.07882 166.067731 
L 77.863164 165.27442 
L 78.032751 164.948809 
L 79.092675 163.777134 
L 79.325858 163.504356 
L 79.58024 163.288183 
L 79.792224 163.026013 
L 80.152598 162.61043 
L 80.512972 162.380441 
L 80.68256 162.16726 
L 80.830949 162.014353 
L 81.064133 161.695188 
L 81.466904 161.218564 
L 81.615293 160.970599 
L 82.76001 159.470899 
L 82.887201 159.36756 
L 83.03559 159.193598 
L 83.077987 159.102875 
L 83.289972 158.819417 
L 83.671544 158.41882 
L 83.841132 158.200263 
L 83.968323 158.057227 
L 84.222705 157.567625 
L 84.307498 157.380152 
L 84.752666 156.974786 
L 85.346223 156.391066 
L 85.515811 156.170268 
L 85.558208 156.066553 
L 85.770193 155.827071 
L 86.406147 155.239405 
L 86.808918 154.722289 
L 87.656857 154.042599 
L 87.868841 153.805674 
L 88.208017 153.501321 
L 88.356406 153.386695 
L 88.462398 153.269469 
L 88.631986 153.067183 
L 88.780375 153.000463 
L 89.055956 152.641643 
L 89.183146 152.508275 
L 89.395131 152.237072 
L 89.585917 151.988283 
L 89.776704 151.638048 
L 89.861497 151.542628 
L 91.197001 149.336966 
L 91.34539 149.194927 
L 92.193329 148.164482 
L 92.256924 148.040549 
L 92.723291 147.18356 
L 92.87168 146.965103 
L 93.083665 146.756575 
L 93.189657 146.617744 
L 93.634825 145.927721 
L 94.779542 144.362891 
L 94.906733 144.155952 
L 95.351901 143.624255 
L 95.585084 143.263196 
L 95.818267 143.108628 
L 96.051451 142.806486 
L 96.369428 142.385021 
L 96.623809 142.068052 
L 96.751 141.898021 
L 96.878191 141.648654 
L 97.938114 139.768054 
L 98.362084 139.305665 
L 98.468076 139.207672 
L 98.595267 139.015228 
L 99.273618 138.43908 
L 99.591595 137.957022 
L 100.333541 136.840809 
L 100.566725 136.455791 
L 100.715114 136.310428 
L 100.863503 136.091437 
L 100.948297 136.024254 
L 101.117885 135.574032 
L 101.308671 135.296008 
L 101.690243 134.755915 
L 101.775037 134.641102 
L 101.944625 134.389755 
L 102.241404 133.875269 
L 102.43219 133.745268 
L 102.728968 133.520366 
L 102.898556 133.304121 
L 103.131739 132.932585 
L 103.25893 132.798263 
L 103.428518 132.570456 
L 103.555709 132.377983 
L 103.937281 131.823815 
L 104.170464 131.633798 
L 104.276457 131.531673 
L 104.424846 131.273852 
L 104.573235 131.031754 
L 104.870014 130.605231 
L 104.954808 130.476285 
L 105.187991 129.996857 
L 105.357579 129.809008 
L 105.569563 129.469626 
L 105.972334 128.843997 
L 106.078327 128.726409 
L 106.544693 128.078945 
L 106.58709 128.055794 
L 106.735479 127.835777 
L 106.989861 127.519675 
L 107.159449 127.2022 
L 107.392632 126.954394 
L 107.562219 126.823829 
L 108.346563 125.973761 
L 108.537349 125.798037 
L 108.622143 125.686374 
L 108.855326 125.301701 
L 108.94012 125.183203 
L 109.364089 124.502256 
L 109.533677 124.278742 
L 109.703265 124.030314 
L 110.000043 123.592823 
L 110.296822 123.236677 
L 110.487608 122.813782 
L 110.657196 122.694504 
L 111.102364 122.095913 
L 111.271952 121.992227 
L 111.505135 121.67335 
L 113.052623 119.664627 
L 113.201012 119.469654 
L 113.349402 119.377355 
L 113.540188 118.958781 
L 113.709776 118.736683 
L 115.660035 116.037533 
L 115.787226 115.944902 
L 116.42318 114.832678 
L 116.550371 114.763414 
L 116.719958 114.451633 
L 116.931943 114.275504 
L 117.080332 114.047568 
L 117.377111 113.683893 
L 117.631492 113.360363 
L 117.843477 113.098684 
L 118.161454 112.473214 
L 118.966996 111.542047 
L 119.05179 111.458882 
L 119.475759 110.816822 
L 119.836133 110.35462 
L 120.005721 110.040527 
L 120.238904 109.726867 
L 120.790064 109.044981 
L 120.959652 108.929488 
L 121.256431 108.670829 
L 121.298828 108.660771 
L 121.426019 108.45915 
L 121.595606 108.382314 
L 121.807591 108.093423 
L 122.401148 107.272186 
L 122.634331 106.983136 
L 122.782721 106.766573 
L 123.863843 105.19537 
L 124.097026 104.918907 
L 124.30901 104.605507 
L 124.817774 104.102004 
L 126.068483 102.706786 
L 126.195674 102.411869 
L 126.322865 102.281636 
L 126.598445 101.823264 
L 126.704437 101.728176 
L 126.916422 101.251754 
L 127.149605 101.129007 
L 127.297995 100.930363 
L 127.467582 100.799061 
L 127.552376 100.649218 
L 127.721964 100.48017 
L 127.997544 100.249691 
L 128.124735 99.968156 
L 128.569903 99.412441 
L 128.697094 99.255806 
L 129.078666 98.778879 
L 129.248254 98.679542 
L 129.417842 98.587576 
L 129.481437 98.557691 
L 129.651025 98.284509 
L 129.841811 98.079362 
L 130.922933 96.960866 
L 131.092521 96.789145 
L 131.219711 96.693045 
L 131.452895 96.369848 
L 131.537688 96.360411 
L 131.728475 95.893209 
L 131.855666 95.850333 
L 132.025253 95.551269 
L 132.131246 95.457063 
L 132.406826 95.082752 
L 132.661207 94.730132 
L 134.357085 92.488907 
L 134.505474 92.371189 
L 134.971841 91.911256 
L 135.12023 91.756398 
L 136.180153 90.74302 
L 136.349741 90.531529 
L 140.356252 86.077041 
L 140.504641 85.638134 
L 140.674229 85.493118 
L 140.822618 85.364373 
L 141.034603 85.213981 
L 141.182992 85.083358 
L 141.373778 84.88694 
L 141.564565 84.673744 
L 141.840145 84.408799 
L 142.136923 84.116208 
L 142.518496 83.66616 
L 142.688083 83.505378 
L 143.048457 83.245606 
L 143.769205 82.28678 
L 143.98119 82.102905 
L 145.549877 80.169212 
L 145.698266 80.025973 
L 145.910251 79.839497 
L 146.6098 79.128419 
L 146.715793 79.028447 
L 146.88538 78.869428 
L 147.945304 77.956484 
L 148.093693 77.760571 
L 148.475266 77.32493 
L 148.68725 77.197862 
L 148.920433 77.042167 
L 149.174815 76.75936 
L 149.598784 76.441177 
L 150.234739 75.556123 
L 151.782227 74.160139 
L 151.930616 74.060311 
L 152.184998 73.726594 
L 152.333387 73.479409 
L 153.732486 72.25714 
L 154.156455 71.790256 
L 154.347242 71.653405 
L 154.495631 71.557999 
L 155.004394 70.95844 
L 155.110387 70.822803 
L 155.937127 70.302724 
L 156.233905 70.134514 
L 156.594279 69.846895 
L 156.785066 69.592918 
L 156.975852 69.412121 
L 157.14544 69.285169 
L 162.381462 65.448766 
L 162.572248 65.346395 
L 163.568576 64.690145 
L 163.780561 64.580158 
L 170.627666 59.782877 
L 170.903246 59.59299 
L 171.433208 59.290703 
L 173.977024 57.866424 
L 174.231406 57.761538 
L 174.400994 57.618516 
L 174.761368 57.433225 
L 175.015749 57.265029 
L 175.270131 57.12682 
L 175.439719 57.007526 
L 176.330055 56.518128 
L 176.605635 56.323487 
L 176.94481 56.189786 
L 177.813947 55.838828 
L 177.983535 55.74189 
L 178.386306 55.578391 
L 178.767879 55.445384 
L 178.958665 55.393577 
L 179.403833 55.235353 
L 180.209374 54.851938 
L 180.400161 54.768122 
L 180.590947 54.609681 
L 180.887725 54.481283 
L 181.778061 54.147985 
L 182.032443 54.025527 
L 182.308023 53.867432 
L 184.0039 53.127366 
L 184.576259 52.824718 
L 185.932961 52.3149 
L 186.102549 52.213078 
L 186.314534 52.149797 
L 186.462923 52.056645 
L 186.886892 51.950907 
L 187.077679 51.857192 
L 191.508159 50.277636 
L 192.18651 50.078212 
L 193.776395 49.599738 
L 194.645532 49.366426 
L 194.81512 49.297394 
L 195.281486 49.190673 
L 195.811448 49.080353 
L 196.61699 48.918473 
L 197.846501 48.629799 
L 198.312867 48.518266 
L 199.393989 48.233017 
L 199.584776 48.194202 
L 201.344249 47.866972 
L 202.043798 47.725106 
L 203.760874 47.348686 
L 205.541546 47.03663 
L 213.914941 46.005303 
L 214.996063 45.882441 
L 219.998902 45.40664 
L 222.606313 45.218025 
L 223.89942 45.130177 
L 226.888404 44.971837 
L 228.541885 44.895305 
L 237.551234 44.575922 
L 270.281671 44.355284 
L 270.281671 44.355284 
" clip-path="url(#p42e937075c)" style="fill: none; stroke: #1f77b4; stroke-width: 1.5; stroke-linecap: square"/>
   </g>
   <g id="line2d_17">
    <path d="M 58.318175 236.435966 
L 58.466564 225.949092 
L 58.487763 225.904518 
L 58.763343 219.250199 
L 58.848137 218.529259 
L 59.038923 215.820296 
L 59.971655 206.816919 
L 59.992854 206.806023 
L 60.162442 205.377502 
L 60.204839 204.991139 
L 60.353228 204.097725 
L 60.438022 203.857867 
L 60.692403 201.687755 
L 60.7348 201.598643 
L 60.925587 200.329979 
L 61.497945 197.018113 
L 61.646335 195.25237 
L 61.667533 195.229241 
L 61.837121 194.564146 
L 61.900716 194.430192 
L 63.003037 189.388125 
L 63.193823 188.471532 
L 63.532998 187.169386 
L 63.681388 186.237785 
L 63.766181 185.968765 
L 64.105357 184.535497 
L 64.232548 184.242458 
L 64.423334 183.096636 
L 64.486929 183.060082 
L 65.016891 180.877622 
L 65.101685 180.676008 
L 65.419662 179.568864 
L 65.631647 179.123122 
L 65.843631 177.63064 
L 65.907227 177.459909 
L 66.394792 175.001954 
L 66.712769 173.961371 
L 66.882357 173.193623 
L 66.96715 172.797513 
L 67.157937 172.175772 
L 67.327524 171.721258 
L 67.687898 170.475608 
L 67.836288 169.691675 
L 67.857486 169.681422 
L 68.027074 168.920301 
L 68.069471 168.810422 
L 68.260257 168.123557 
L 68.705425 167.035199 
L 68.747822 166.972886 
L 69.002203 165.875135 
L 69.086997 165.788472 
L 69.298982 164.401274 
L 69.32018 164.38928 
L 69.638158 162.907919 
L 70.29531 160.979096 
L 70.401302 160.865135 
L 71.652012 157.954465 
L 71.8216 157.289038 
L 71.885195 157.071189 
L 72.160775 156.158678 
L 72.181974 156.142262 
L 72.37276 155.128276 
L 72.499951 154.883346 
L 72.669539 154.332675 
L 74.386615 147.974364 
L 74.556202 147.234586 
L 74.87418 146.205326 
L 75.022569 145.560665 
L 75.14976 145.154114 
L 75.467737 144.069232 
L 75.573729 143.87144 
L 75.743317 142.973728 
L 75.806912 142.894912 
L 76.209683 141.676921 
L 76.273278 141.625475 
L 76.506462 140.707733 
L 76.845637 139.571968 
L 77.057622 138.637463 
L 77.248408 138.087471 
L 78.223538 132.709721 
L 78.308332 132.441987 
L 78.477919 131.839566 
L 78.562713 131.64455 
L 78.859492 130.044849 
L 78.944286 129.861191 
L 79.43185 128.042745 
L 79.601438 126.86513 
L 79.85582 126.252247 
L 79.877018 126.252001 
L 80.089003 124.992536 
L 80.173797 124.895685 
L 80.512972 123.228368 
L 80.661362 122.776267 
L 80.852148 122.31421 
L 80.979339 122.209353 
L 81.148926 121.411598 
L 81.488102 120.507455 
L 81.721285 119.275952 
L 81.827278 118.928275 
L 82.018064 118.170593 
L 82.060461 118.095924 
L 82.399636 117.23457 
L 82.611621 116.394271 
L 82.844804 115.505432 
L 82.993193 114.764325 
L 83.03559 114.61808 
L 83.713941 111.600964 
L 83.904728 110.518914 
L 83.925926 110.501847 
L 84.159109 109.53279 
L 84.349895 109.20124 
L 84.498285 108.695555 
L 84.773865 107.529457 
L 84.964651 106.29544 
L 85.515811 104.553325 
L 86.278956 100.163447 
L 86.384948 100.058605 
L 86.575735 99.154692 
L 86.893712 97.912799 
L 86.91491 97.900877 
L 87.105696 97.306058 
L 87.232887 96.765965 
L 87.423673 95.789798 
L 87.487269 95.700158 
L 87.868841 94.053911 
L 87.996032 93.542402 
L 88.080826 93.354264 
L 88.377605 91.679981 
L 88.695582 90.413088 
L 89.077154 88.565191 
L 89.289139 87.426102 
L 89.458727 86.351625 
L 89.670711 85.642252 
L 89.840299 85.005886 
L 89.96749 84.593252 
L 90.115879 84.090832 
L 90.137078 84.090832 
L 90.412658 83.136732 
L 90.433856 83.134579 
L 90.582245 82.586668 
L 90.730635 82.179351 
L 90.900222 81.620052 
L 91.960146 77.963391 
L 91.981344 77.953738 
L 92.214528 76.990634 
L 92.278123 76.857844 
L 92.468909 76.255322 
L 92.574902 76.01347 
L 92.765688 75.141335 
L 93.804413 71.52534 
L 93.825611 71.500021 
L 93.974001 70.895462 
L 94.079993 70.759608 
L 94.546359 69.602326 
L 94.737145 68.587488 
L 95.330703 66.940286 
L 95.521489 66.348675 
L 96.581412 62.63554 
L 96.708603 62.28529 
L 96.962985 61.494775 
L 97.365756 60.822296 
L 97.471748 60.735431 
L 97.620137 60.376727 
L 97.980511 59.627557 
L 98.150099 59.299793 
L 98.764855 57.847088 
L 98.934442 57.396722 
L 99.040435 57.215809 
L 99.485603 55.912239 
L 100.057961 54.961563 
L 100.206351 54.637268 
L 100.439534 54.365386 
L 101.139083 53.017119 
L 101.308671 52.541911 
L 101.563053 52.332429 
L 101.711442 51.926355 
L 101.817434 51.833463 
L 102.050617 51.529602 
L 102.368594 51.200421 
L 102.559381 50.813481 
L 102.750167 50.525168 
L 102.856159 50.390239 
L 102.98335 50.176537 
L 103.068144 50.024555 
L 103.301327 49.736387 
L 103.492113 49.431051 
L 103.725296 49.135022 
L 103.894884 49.016422 
L 104.022075 48.852735 
L 104.361251 48.456892 
L 104.467243 48.341241 
L 104.848815 47.806668 
L 105.103197 47.629152 
L 105.272785 47.350622 
L 106.184319 46.682927 
L 106.481098 46.45184 
L 106.693082 46.348718 
L 107.074655 45.992326 
L 107.41383 45.807729 
L 107.795403 45.593478 
L 109.067311 44.984005 
L 109.427685 44.890233 
L 109.724463 44.760043 
L 109.957647 44.653337 
L 110.233227 44.586255 
L 110.74199 44.420704 
L 111.29315 44.356787 
L 111.29315 44.356787 
" clip-path="url(#p42e937075c)" style="fill: none; stroke: #ff7f0e; stroke-width: 1.5; stroke-linecap: square"/>
   </g>
   <g id="patch_3">
    <path d="M 47.72 246.04 
L 47.72 34.75125 
" style="fill: none; stroke: #000000; stroke-width: 0.8; stroke-linejoin: miter; stroke-linecap: square"/>
   </g>
   <g id="patch_4">
    <path d="M 280.879846 246.04 
L 280.879846 34.75125 
" style="fill: none; stroke: #000000; stroke-width: 0.8; stroke-linejoin: miter; stroke-linecap: square"/>
   </g>
   <g id="patch_5">
    <path d="M 47.72 246.04 
L 280.879846 246.04 
" style="fill: none; stroke: #000000; stroke-width: 0.8; stroke-linejoin: miter; stroke-linecap: square"/>
   </g>
   <g id="patch_6">
    <path d="M 47.72 34.75125 
L 280.879846 34.75125 
" style="fill: none; stroke: #000000; stroke-width: 0.8; stroke-linejoin: miter; stroke-linecap: square"/>
   </g>
   <g id="legend_1">
    <g id="patch_7">
     <path d="M 173.690784 241.04 
L 273.879846 241.04 
Q 275.879846 241.04 275.879846 239.04 
L 275.879846 210.68375 
Q 275.879846 208.68375 273.879846 208.68375 
L 173.690784 208.68375 
Q 171.690784 208.68375 171.690784 210.68375 
L 171.690784 239.04 
Q 171.690784 241.04 173.690784 241.04 
z
" style="fill: #ffffff; opacity: 0.8; stroke: #cccccc; stroke-linejoin: miter"/>
    </g>
    <g id="line2d_18">
     <path d="M 175.690784 216.782187 
L 185.690784 216.782187 
L 195.690784 216.782187 
" style="fill: none; stroke: #1f77b4; stroke-width: 1.5; stroke-linecap: square"/>
    </g>
    <g id="text_18">
     <!-- ID samples -->
     <g transform="translate(203.690784 220.282187) scale(0.1 -0.1)">
      <defs>
       <path id="DejaVuSans-49" d="M 628 4666 
L 1259 4666 
L 1259 0 
L 628 0 
L 628 4666 
z
" transform="scale(0.015625)"/>
       <path id="DejaVuSans-44" d="M 1259 4147 
L 1259 519 
L 2022 519 
Q 2988 519 3436 956 
Q 3884 1394 3884 2338 
Q 3884 3275 3436 3711 
Q 2988 4147 2022 4147 
L 1259 4147 
z
M 628 4666 
L 1925 4666 
Q 3281 4666 3915 4102 
Q 4550 3538 4550 2338 
Q 4550 1131 3912 565 
Q 3275 0 1925 0 
L 628 0 
L 628 4666 
z
" transform="scale(0.015625)"/>
      </defs>
      <use xlink:href="#DejaVuSans-49"/>
      <use xlink:href="#DejaVuSans-44" transform="translate(29.492188 0)"/>
      <use xlink:href="#DejaVuSans-20" transform="translate(106.494141 0)"/>
      <use xlink:href="#DejaVuSans-73" transform="translate(138.28125 0)"/>
      <use xlink:href="#DejaVuSans-61" transform="translate(190.380859 0)"/>
      <use xlink:href="#DejaVuSans-6d" transform="translate(251.660156 0)"/>
      <use xlink:href="#DejaVuSans-70" transform="translate(349.072266 0)"/>
      <use xlink:href="#DejaVuSans-6c" transform="translate(412.548828 0)"/>
      <use xlink:href="#DejaVuSans-65" transform="translate(440.332031 0)"/>
      <use xlink:href="#DejaVuSans-73" transform="translate(501.855469 0)"/>
     </g>
    </g>
    <g id="line2d_19">
     <path d="M 175.690784 231.460312 
L 185.690784 231.460312 
L 195.690784 231.460312 
" style="fill: none; stroke: #ff7f0e; stroke-width: 1.5; stroke-linecap: square"/>
    </g>
    <g id="text_19">
     <!-- OOD samples -->
     <g transform="translate(203.690784 234.960312) scale(0.1 -0.1)">
      <use xlink:href="#DejaVuSans-4f"/>
      <use xlink:href="#DejaVuSans-4f" transform="translate(78.710938 0)"/>
      <use xlink:href="#DejaVuSans-44" transform="translate(157.421875 0)"/>
      <use xlink:href="#DejaVuSans-20" transform="translate(234.423828 0)"/>
      <use xlink:href="#DejaVuSans-73" transform="translate(266.210938 0)"/>
      <use xlink:href="#DejaVuSans-61" transform="translate(318.310547 0)"/>
      <use xlink:href="#DejaVuSans-6d" transform="translate(379.589844 0)"/>
      <use xlink:href="#DejaVuSans-70" transform="translate(477.001953 0)"/>
      <use xlink:href="#DejaVuSans-6c" transform="translate(540.478516 0)"/>
      <use xlink:href="#DejaVuSans-65" transform="translate(568.261719 0)"/>
      <use xlink:href="#DejaVuSans-73" transform="translate(629.785156 0)"/>
     </g>
    </g>
   </g>
  </g>
  <g id="axes_2">
   <g id="patch_8">
    <path d="M 332.040154 246.04 
L 565.2 246.04 
L 565.2 34.75125 
L 332.040154 34.75125 
z
" style="fill: #ffffff"/>
   </g>
   <g id="patch_9">
    <path d="M 343.852574 246.04 
L 352.282545 246.04 
L 352.282545 245.529659 
L 343.852574 245.529659 
z
" clip-path="url(#p5364bec1b1)" style="fill: #1f77b4; opacity: 0.5"/>
   </g>
   <g id="patch_10">
    <path d="M 352.282545 246.04 
L 360.712512 246.04 
L 360.712512 245.42759 
L 352.282545 245.42759 
z
" clip-path="url(#p5364bec1b1)" style="fill: #1f77b4; opacity: 0.5"/>
   </g>
   <g id="patch_11">
    <path d="M 360.712512 246.04 
L 369.142483 246.04 
L 369.142483 244.508976 
L 360.712512 244.508976 
z
" clip-path="url(#p5364bec1b1)" style="fill: #1f77b4; opacity: 0.5"/>
   </g>
   <g id="patch_12">
    <path d="M 369.142483 246.04 
L 377.572454 246.04 
L 377.572454 242.773816 
L 369.142483 242.773816 
z
" clip-path="url(#p5364bec1b1)" style="fill: #1f77b4; opacity: 0.5"/>
   </g>
   <g id="patch_13">
    <path d="M 377.572454 246.04 
L 386.002426 246.04 
L 386.002426 241.804167 
L 377.572454 241.804167 
z
" clip-path="url(#p5364bec1b1)" style="fill: #1f77b4; opacity: 0.5"/>
   </g>
   <g id="patch_14">
    <path d="M 386.002426 246.04 
L 394.432397 246.04 
L 394.432397 239.86487 
L 386.002426 239.86487 
z
" clip-path="url(#p5364bec1b1)" style="fill: #1f77b4; opacity: 0.5"/>
   </g>
   <g id="patch_15">
    <path d="M 394.432397 246.04 
L 402.86236 246.04 
L 402.86236 237.823497 
L 394.432397 237.823497 
z
" clip-path="url(#p5364bec1b1)" style="fill: #1f77b4; opacity: 0.5"/>
   </g>
   <g id="patch_16">
    <path d="M 402.86236 246.04 
L 411.292339 246.04 
L 411.292339 237.568343 
L 402.86236 237.568343 
z
" clip-path="url(#p5364bec1b1)" style="fill: #1f77b4; opacity: 0.5"/>
   </g>
   <g id="patch_17">
    <path d="M 411.292339 246.04 
L 419.722302 246.04 
L 419.722302 234.761447 
L 411.292339 234.761447 
z
" clip-path="url(#p5364bec1b1)" style="fill: #1f77b4; opacity: 0.5"/>
   </g>
   <g id="patch_18">
    <path d="M 419.722302 246.04 
L 428.152281 246.04 
L 428.152281 230.372537 
L 419.722302 230.372537 
z
" clip-path="url(#p5364bec1b1)" style="fill: #1f77b4; opacity: 0.5"/>
   </g>
   <g id="patch_19">
    <path d="M 428.152281 246.04 
L 436.582245 246.04 
L 436.582245 229.709063 
L 428.152281 229.709063 
z
" clip-path="url(#p5364bec1b1)" style="fill: #1f77b4; opacity: 0.5"/>
   </g>
   <g id="patch_20">
    <path d="M 436.582245 246.04 
L 445.012208 246.04 
L 445.012208 233.281456 
L 436.582245 233.281456 
z
" clip-path="url(#p5364bec1b1)" style="fill: #1f77b4; opacity: 0.5"/>
   </g>
   <g id="patch_21">
    <path d="M 445.012208 246.04 
L 453.442187 246.04 
L 453.442187 232.464934 
L 445.012208 232.464934 
z
" clip-path="url(#p5364bec1b1)" style="fill: #1f77b4; opacity: 0.5"/>
   </g>
   <g id="patch_22">
    <path d="M 453.442187 246.04 
L 461.87215 246.04 
L 461.87215 233.128353 
L 453.442187 233.128353 
z
" clip-path="url(#p5364bec1b1)" style="fill: #1f77b4; opacity: 0.5"/>
   </g>
   <g id="patch_23">
    <path d="M 461.87215 246.04 
L 470.302129 246.04 
L 470.302129 231.648389 
L 461.87215 231.648389 
z
" clip-path="url(#p5364bec1b1)" style="fill: #1f77b4; opacity: 0.5"/>
   </g>
   <g id="patch_24">
    <path d="M 470.302129 246.04 
L 478.732093 246.04 
L 478.732093 232.72008 
L 470.302129 232.72008 
z
" clip-path="url(#p5364bec1b1)" style="fill: #1f77b4; opacity: 0.5"/>
   </g>
   <g id="patch_25">
    <path d="M 478.732093 246.04 
L 487.162056 246.04 
L 487.162056 232.10767 
L 478.732093 232.10767 
z
" clip-path="url(#p5364bec1b1)" style="fill: #1f77b4; opacity: 0.5"/>
   </g>
   <g id="patch_26">
    <path d="M 487.162056 246.04 
L 495.592035 246.04 
L 495.592035 230.321503 
L 487.162056 230.321503 
z
" clip-path="url(#p5364bec1b1)" style="fill: #1f77b4; opacity: 0.5"/>
   </g>
   <g id="patch_27">
    <path d="M 495.592035 246.04 
L 504.021998 246.04 
L 504.021998 230.423542 
L 495.592035 230.423542 
z
" clip-path="url(#p5364bec1b1)" style="fill: #1f77b4; opacity: 0.5"/>
   </g>
   <g id="patch_28">
    <path d="M 504.021998 246.04 
L 512.451977 246.04 
L 512.451977 229.351856 
L 504.021998 229.351856 
z
" clip-path="url(#p5364bec1b1)" style="fill: #1f77b4; opacity: 0.5"/>
   </g>
   <g id="patch_29">
    <path d="M 512.451977 246.04 
L 520.88194 246.04 
L 520.88194 228.484243 
L 512.451977 228.484243 
z
" clip-path="url(#p5364bec1b1)" style="fill: #1f77b4; opacity: 0.5"/>
   </g>
   <g id="patch_30">
    <path d="M 520.88194 246.04 
L 529.31192 246.04 
L 529.31192 224.350516 
L 520.88194 224.350516 
z
" clip-path="url(#p5364bec1b1)" style="fill: #1f77b4; opacity: 0.5"/>
   </g>
   <g id="patch_31">
    <path d="M 529.31192 246.04 
L 537.741883 246.04 
L 537.741883 219.553262 
L 529.31192 219.553262 
z
" clip-path="url(#p5364bec1b1)" style="fill: #1f77b4; opacity: 0.5"/>
   </g>
   <g id="patch_32">
    <path d="M 537.741883 246.04 
L 546.171846 246.04 
L 546.171846 207.866435 
L 537.741883 207.866435 
z
" clip-path="url(#p5364bec1b1)" style="fill: #1f77b4; opacity: 0.5"/>
   </g>
   <g id="patch_33">
    <path d="M 546.171846 246.04 
L 554.601825 246.04 
L 554.601825 44.812619 
L 546.171846 44.812619 
z
" clip-path="url(#p5364bec1b1)" style="fill: #1f77b4; opacity: 0.5"/>
   </g>
   <g id="patch_34">
    <path d="M 342.638329 246.04 
L 351.116802 246.04 
L 351.116802 244.822188 
L 342.638329 244.822188 
z
" clip-path="url(#p5364bec1b1)" style="fill: #ff7f0e; opacity: 0.5"/>
   </g>
   <g id="patch_35">
    <path d="M 351.116802 246.04 
L 359.595272 246.04 
L 359.595272 243.604374 
L 351.116802 243.604374 
z
" clip-path="url(#p5364bec1b1)" style="fill: #ff7f0e; opacity: 0.5"/>
   </g>
   <g id="patch_36">
    <path d="M 359.595272 246.04 
L 368.073746 246.04 
L 368.073746 240.559845 
L 359.595272 240.559845 
z
" clip-path="url(#p5364bec1b1)" style="fill: #ff7f0e; opacity: 0.5"/>
   </g>
   <g id="patch_37">
    <path d="M 368.073746 246.04 
L 376.552219 246.04 
L 376.552219 237.718282 
L 368.073746 237.718282 
z
" clip-path="url(#p5364bec1b1)" style="fill: #ff7f0e; opacity: 0.5"/>
   </g>
   <g id="patch_38">
    <path d="M 376.552219 246.04 
L 385.030693 246.04 
L 385.030693 234.267814 
L 376.552219 234.267814 
z
" clip-path="url(#p5364bec1b1)" style="fill: #ff7f0e; opacity: 0.5"/>
   </g>
   <g id="patch_39">
    <path d="M 385.030693 246.04 
L 393.509167 246.04 
L 393.509167 232.238127 
L 385.030693 232.238127 
z
" clip-path="url(#p5364bec1b1)" style="fill: #ff7f0e; opacity: 0.5"/>
   </g>
   <g id="patch_40">
    <path d="M 393.509167 246.04 
L 401.98764 246.04 
L 401.98764 228.990628 
L 393.509167 228.990628 
z
" clip-path="url(#p5364bec1b1)" style="fill: #ff7f0e; opacity: 0.5"/>
   </g>
   <g id="patch_41">
    <path d="M 401.98764 246.04 
L 410.466114 246.04 
L 410.466114 228.58469 
L 401.98764 228.58469 
z
" clip-path="url(#p5364bec1b1)" style="fill: #ff7f0e; opacity: 0.5"/>
   </g>
   <g id="patch_42">
    <path d="M 410.466114 246.04 
L 418.944588 246.04 
L 418.944588 224.931253 
L 410.466114 224.931253 
z
" clip-path="url(#p5364bec1b1)" style="fill: #ff7f0e; opacity: 0.5"/>
   </g>
   <g id="patch_43">
    <path d="M 418.944588 246.04 
L 427.423061 246.04 
L 427.423061 222.901566 
L 418.944588 222.901566 
z
" clip-path="url(#p5364bec1b1)" style="fill: #ff7f0e; opacity: 0.5"/>
   </g>
   <g id="patch_44">
    <path d="M 427.423061 246.04 
L 435.901535 246.04 
L 435.901535 223.713441 
L 427.423061 223.713441 
z
" clip-path="url(#p5364bec1b1)" style="fill: #ff7f0e; opacity: 0.5"/>
   </g>
   <g id="patch_45">
    <path d="M 435.901535 246.04 
L 444.380009 246.04 
L 444.380009 226.352034 
L 435.901535 226.352034 
z
" clip-path="url(#p5364bec1b1)" style="fill: #ff7f0e; opacity: 0.5"/>
   </g>
   <g id="patch_46">
    <path d="M 444.380009 246.04 
L 452.858483 246.04 
L 452.858483 225.743128 
L 444.380009 225.743128 
z
" clip-path="url(#p5364bec1b1)" style="fill: #ff7f0e; opacity: 0.5"/>
   </g>
   <g id="patch_47">
    <path d="M 452.858483 246.04 
L 461.336956 246.04 
L 461.336956 230.005471 
L 452.858483 230.005471 
z
" clip-path="url(#p5364bec1b1)" style="fill: #ff7f0e; opacity: 0.5"/>
   </g>
   <g id="patch_48">
    <path d="M 461.336956 246.04 
L 469.81543 246.04 
L 469.81543 226.555003 
L 461.336956 226.555003 
z
" clip-path="url(#p5364bec1b1)" style="fill: #ff7f0e; opacity: 0.5"/>
   </g>
   <g id="patch_49">
    <path d="M 469.81543 246.04 
L 478.293904 246.04 
L 478.293904 226.352034 
L 469.81543 226.352034 
z
" clip-path="url(#p5364bec1b1)" style="fill: #ff7f0e; opacity: 0.5"/>
   </g>
   <g id="patch_50">
    <path d="M 478.293904 246.04 
L 486.772377 246.04 
L 486.772377 228.58469 
L 478.293904 228.58469 
z
" clip-path="url(#p5364bec1b1)" style="fill: #ff7f0e; opacity: 0.5"/>
   </g>
   <g id="patch_51">
    <path d="M 486.772377 246.04 
L 495.250851 246.04 
L 495.250851 229.802502 
L 486.772377 229.802502 
z
" clip-path="url(#p5364bec1b1)" style="fill: #ff7f0e; opacity: 0.5"/>
   </g>
   <g id="patch_52">
    <path d="M 495.250851 246.04 
L 503.729325 246.04 
L 503.729325 228.178753 
L 495.250851 228.178753 
z
" clip-path="url(#p5364bec1b1)" style="fill: #ff7f0e; opacity: 0.5"/>
   </g>
   <g id="patch_53">
    <path d="M 503.729325 246.04 
L 512.207798 246.04 
L 512.207798 228.381721 
L 503.729325 228.381721 
z
" clip-path="url(#p5364bec1b1)" style="fill: #ff7f0e; opacity: 0.5"/>
   </g>
   <g id="patch_54">
    <path d="M 512.207798 246.04 
L 520.686272 246.04 
L 520.686272 224.525316 
L 512.207798 224.525316 
z
" clip-path="url(#p5364bec1b1)" style="fill: #ff7f0e; opacity: 0.5"/>
   </g>
   <g id="patch_55">
    <path d="M 520.686272 246.04 
L 529.164746 246.04 
L 529.164746 222.698597 
L 520.686272 222.698597 
z
" clip-path="url(#p5364bec1b1)" style="fill: #ff7f0e; opacity: 0.5"/>
   </g>
   <g id="patch_56">
    <path d="M 529.164746 246.04 
L 537.643219 246.04 
L 537.643219 220.262973 
L 529.164746 220.262973 
z
" clip-path="url(#p5364bec1b1)" style="fill: #ff7f0e; opacity: 0.5"/>
   </g>
   <g id="patch_57">
    <path d="M 537.643219 246.04 
L 546.121693 246.04 
L 546.121693 210.114537 
L 537.643219 210.114537 
z
" clip-path="url(#p5364bec1b1)" style="fill: #ff7f0e; opacity: 0.5"/>
   </g>
   <g id="patch_58">
    <path d="M 546.121693 246.04 
L 554.600167 246.04 
L 554.600167 153.689232 
L 546.121693 153.689232 
z
" clip-path="url(#p5364bec1b1)" style="fill: #ff7f0e; opacity: 0.5"/>
   </g>
   <g id="matplotlib.axis_3">
    <g id="xtick_7">
     <g id="line2d_20">
      <g>
       <use xlink:href="#m8d955e4c6a" x="340.566124" y="246.04" style="stroke: #000000; stroke-width: 0.8"/>
      </g>
     </g>
     <g id="text_20">
      <!-- 0.2 -->
      <g transform="translate(332.614561 260.638438) scale(0.1 -0.1)">
       <use xlink:href="#DejaVuSans-30"/>
       <use xlink:href="#DejaVuSans-2e" transform="translate(63.623047 0)"/>
       <use xlink:href="#DejaVuSans-32" transform="translate(95.410156 0)"/>
      </g>
     </g>
    </g>
    <g id="xtick_8">
     <g id="line2d_21">
      <g>
       <use xlink:href="#m8d955e4c6a" x="394.075049" y="246.04" style="stroke: #000000; stroke-width: 0.8"/>
      </g>
     </g>
     <g id="text_21">
      <!-- 0.4 -->
      <g transform="translate(386.123486 260.638438) scale(0.1 -0.1)">
       <use xlink:href="#DejaVuSans-30"/>
       <use xlink:href="#DejaVuSans-2e" transform="translate(63.623047 0)"/>
       <use xlink:href="#DejaVuSans-34" transform="translate(95.410156 0)"/>
      </g>
     </g>
    </g>
    <g id="xtick_9">
     <g id="line2d_22">
      <g>
       <use xlink:href="#m8d955e4c6a" x="447.583974" y="246.04" style="stroke: #000000; stroke-width: 0.8"/>
      </g>
     </g>
     <g id="text_22">
      <!-- 0.6 -->
      <g transform="translate(439.632412 260.638438) scale(0.1 -0.1)">
       <use xlink:href="#DejaVuSans-30"/>
       <use xlink:href="#DejaVuSans-2e" transform="translate(63.623047 0)"/>
       <use xlink:href="#DejaVuSans-36" transform="translate(95.410156 0)"/>
      </g>
     </g>
    </g>
    <g id="xtick_10">
     <g id="line2d_23">
      <g>
       <use xlink:href="#m8d955e4c6a" x="501.0929" y="246.04" style="stroke: #000000; stroke-width: 0.8"/>
      </g>
     </g>
     <g id="text_23">
      <!-- 0.8 -->
      <g transform="translate(493.141337 260.638438) scale(0.1 -0.1)">
       <use xlink:href="#DejaVuSans-30"/>
       <use xlink:href="#DejaVuSans-2e" transform="translate(63.623047 0)"/>
       <use xlink:href="#DejaVuSans-38" transform="translate(95.410156 0)"/>
      </g>
     </g>
    </g>
    <g id="xtick_11">
     <g id="line2d_24">
      <g>
       <use xlink:href="#m8d955e4c6a" x="554.601825" y="246.04" style="stroke: #000000; stroke-width: 0.8"/>
      </g>
     </g>
     <g id="text_24">
      <!-- 1.0 -->
      <g transform="translate(546.650263 260.638438) scale(0.1 -0.1)">
       <use xlink:href="#DejaVuSans-31"/>
       <use xlink:href="#DejaVuSans-2e" transform="translate(63.623047 0)"/>
       <use xlink:href="#DejaVuSans-30" transform="translate(95.410156 0)"/>
      </g>
     </g>
    </g>
    <g id="text_25">
     <!-- Scores -->
     <g transform="translate(432.013046 274.316562) scale(0.1 -0.1)">
      <use xlink:href="#DejaVuSans-53"/>
      <use xlink:href="#DejaVuSans-63" transform="translate(63.476562 0)"/>
      <use xlink:href="#DejaVuSans-6f" transform="translate(118.457031 0)"/>
      <use xlink:href="#DejaVuSans-72" transform="translate(179.638672 0)"/>
      <use xlink:href="#DejaVuSans-65" transform="translate(218.501953 0)"/>
      <use xlink:href="#DejaVuSans-73" transform="translate(280.025391 0)"/>
     </g>
    </g>
   </g>
   <g id="matplotlib.axis_4">
    <g id="ytick_10">
     <g id="line2d_25">
      <g>
       <use xlink:href="#m4f724000ff" x="332.040154" y="246.04" style="stroke: #000000; stroke-width: 0.8"/>
      </g>
     </g>
     <g id="text_26">
      <!-- 0 -->
      <g transform="translate(318.677654 249.839219) scale(0.1 -0.1)">
       <use xlink:href="#DejaVuSans-30"/>
      </g>
     </g>
    </g>
    <g id="ytick_11">
     <g id="line2d_26">
      <g>
       <use xlink:href="#m4f724000ff" x="332.040154" y="213.879665" style="stroke: #000000; stroke-width: 0.8"/>
      </g>
     </g>
     <g id="text_27">
      <!-- 2 -->
      <g transform="translate(318.677654 217.678884) scale(0.1 -0.1)">
       <use xlink:href="#DejaVuSans-32"/>
      </g>
     </g>
    </g>
    <g id="ytick_12">
     <g id="line2d_27">
      <g>
       <use xlink:href="#m4f724000ff" x="332.040154" y="181.719331" style="stroke: #000000; stroke-width: 0.8"/>
      </g>
     </g>
     <g id="text_28">
      <!-- 4 -->
      <g transform="translate(318.677654 185.518549) scale(0.1 -0.1)">
       <use xlink:href="#DejaVuSans-34"/>
      </g>
     </g>
    </g>
    <g id="ytick_13">
     <g id="line2d_28">
      <g>
       <use xlink:href="#m4f724000ff" x="332.040154" y="149.558996" style="stroke: #000000; stroke-width: 0.8"/>
      </g>
     </g>
     <g id="text_29">
      <!-- 6 -->
      <g transform="translate(318.677654 153.358215) scale(0.1 -0.1)">
       <use xlink:href="#DejaVuSans-36"/>
      </g>
     </g>
    </g>
    <g id="ytick_14">
     <g id="line2d_29">
      <g>
       <use xlink:href="#m4f724000ff" x="332.040154" y="117.398661" style="stroke: #000000; stroke-width: 0.8"/>
      </g>
     </g>
     <g id="text_30">
      <!-- 8 -->
      <g transform="translate(318.677654 121.19788) scale(0.1 -0.1)">
       <use xlink:href="#DejaVuSans-38"/>
      </g>
     </g>
    </g>
    <g id="ytick_15">
     <g id="line2d_30">
      <g>
       <use xlink:href="#m4f724000ff" x="332.040154" y="85.238326" style="stroke: #000000; stroke-width: 0.8"/>
      </g>
     </g>
     <g id="text_31">
      <!-- 10 -->
      <g transform="translate(312.315154 89.037545) scale(0.1 -0.1)">
       <use xlink:href="#DejaVuSans-31"/>
       <use xlink:href="#DejaVuSans-30" transform="translate(63.623047 0)"/>
      </g>
     </g>
    </g>
    <g id="ytick_16">
     <g id="line2d_31">
      <g>
       <use xlink:href="#m4f724000ff" x="332.040154" y="53.077992" style="stroke: #000000; stroke-width: 0.8"/>
      </g>
     </g>
     <g id="text_32">
      <!-- 12 -->
      <g transform="translate(312.315154 56.87721) scale(0.1 -0.1)">
       <use xlink:href="#DejaVuSans-31"/>
       <use xlink:href="#DejaVuSans-32" transform="translate(63.623047 0)"/>
      </g>
     </g>
    </g>
    <g id="text_33">
     <!-- Density -->
     <g transform="translate(306.235466 159.404219) rotate(-90) scale(0.1 -0.1)">
      <defs>
       <path id="DejaVuSans-6e" d="M 3513 2113 
L 3513 0 
L 2938 0 
L 2938 2094 
Q 2938 2591 2744 2837 
Q 2550 3084 2163 3084 
Q 1697 3084 1428 2787 
Q 1159 2491 1159 1978 
L 1159 0 
L 581 0 
L 581 3500 
L 1159 3500 
L 1159 2956 
Q 1366 3272 1645 3428 
Q 1925 3584 2291 3584 
Q 2894 3584 3203 3211 
Q 3513 2838 3513 2113 
z
" transform="scale(0.015625)"/>
       <path id="DejaVuSans-69" d="M 603 3500 
L 1178 3500 
L 1178 0 
L 603 0 
L 603 3500 
z
M 603 4863 
L 1178 4863 
L 1178 4134 
L 603 4134 
L 603 4863 
z
" transform="scale(0.015625)"/>
       <path id="DejaVuSans-74" d="M 1172 4494 
L 1172 3500 
L 2356 3500 
L 2356 3053 
L 1172 3053 
L 1172 1153 
Q 1172 725 1289 603 
Q 1406 481 1766 481 
L 2356 481 
L 2356 0 
L 1766 0 
Q 1100 0 847 248 
Q 594 497 594 1153 
L 594 3053 
L 172 3053 
L 172 3500 
L 594 3500 
L 594 4494 
L 1172 4494 
z
" transform="scale(0.015625)"/>
       <path id="DejaVuSans-79" d="M 2059 -325 
Q 1816 -950 1584 -1140 
Q 1353 -1331 966 -1331 
L 506 -1331 
L 506 -850 
L 844 -850 
Q 1081 -850 1212 -737 
Q 1344 -625 1503 -206 
L 1606 56 
L 191 3500 
L 800 3500 
L 1894 763 
L 2988 3500 
L 3597 3500 
L 2059 -325 
z
" transform="scale(0.015625)"/>
      </defs>
      <use xlink:href="#DejaVuSans-44"/>
      <use xlink:href="#DejaVuSans-65" transform="translate(77.001953 0)"/>
      <use xlink:href="#DejaVuSans-6e" transform="translate(138.525391 0)"/>
      <use xlink:href="#DejaVuSans-73" transform="translate(201.904297 0)"/>
      <use xlink:href="#DejaVuSans-69" transform="translate(254.003906 0)"/>
      <use xlink:href="#DejaVuSans-74" transform="translate(281.787109 0)"/>
      <use xlink:href="#DejaVuSans-79" transform="translate(320.996094 0)"/>
     </g>
    </g>
   </g>
   <g id="patch_59">
    <path d="M 332.040154 246.04 
L 332.040154 34.75125 
" style="fill: none; stroke: #000000; stroke-width: 0.8; stroke-linejoin: miter; stroke-linecap: square"/>
   </g>
   <g id="patch_60">
    <path d="M 565.2 246.04 
L 565.2 34.75125 
" style="fill: none; stroke: #000000; stroke-width: 0.8; stroke-linejoin: miter; stroke-linecap: square"/>
   </g>
   <g id="patch_61">
    <path d="M 332.040154 246.04 
L 565.2 246.04 
" style="fill: none; stroke: #000000; stroke-width: 0.8; stroke-linejoin: miter; stroke-linecap: square"/>
   </g>
   <g id="patch_62">
    <path d="M 332.040154 34.75125 
L 565.2 34.75125 
" style="fill: none; stroke: #000000; stroke-width: 0.8; stroke-linejoin: miter; stroke-linecap: square"/>
   </g>
   <g id="legend_2">
    <g id="patch_63">
     <path d="M 339.040154 72.1075 
L 439.229216 72.1075 
Q 441.229216 72.1075 441.229216 70.1075 
L 441.229216 41.75125 
Q 441.229216 39.75125 439.229216 39.75125 
L 339.040154 39.75125 
Q 337.040154 39.75125 337.040154 41.75125 
L 337.040154 70.1075 
Q 337.040154 72.1075 339.040154 72.1075 
z
" style="fill: #ffffff; opacity: 0.8; stroke: #cccccc; stroke-linejoin: miter"/>
    </g>
    <g id="patch_64">
     <path d="M 341.040154 51.349687 
L 361.040154 51.349687 
L 361.040154 44.349687 
L 341.040154 44.349687 
z
" style="fill: #1f77b4; opacity: 0.5"/>
    </g>
    <g id="text_34">
     <!-- ID samples -->
     <g transform="translate(369.040154 51.349687) scale(0.1 -0.1)">
      <use xlink:href="#DejaVuSans-49"/>
      <use xlink:href="#DejaVuSans-44" transform="translate(29.492188 0)"/>
      <use xlink:href="#DejaVuSans-20" transform="translate(106.494141 0)"/>
      <use xlink:href="#DejaVuSans-73" transform="translate(138.28125 0)"/>
      <use xlink:href="#DejaVuSans-61" transform="translate(190.380859 0)"/>
      <use xlink:href="#DejaVuSans-6d" transform="translate(251.660156 0)"/>
      <use xlink:href="#DejaVuSans-70" transform="translate(349.072266 0)"/>
      <use xlink:href="#DejaVuSans-6c" transform="translate(412.548828 0)"/>
      <use xlink:href="#DejaVuSans-65" transform="translate(440.332031 0)"/>
      <use xlink:href="#DejaVuSans-73" transform="translate(501.855469 0)"/>
     </g>
    </g>
    <g id="patch_65">
     <path d="M 341.040154 66.027812 
L 361.040154 66.027812 
L 361.040154 59.027812 
L 341.040154 59.027812 
z
" style="fill: #ff7f0e; opacity: 0.5"/>
    </g>
    <g id="text_35">
     <!-- OOD samples -->
     <g transform="translate(369.040154 66.027812) scale(0.1 -0.1)">
      <use xlink:href="#DejaVuSans-4f"/>
      <use xlink:href="#DejaVuSans-4f" transform="translate(78.710938 0)"/>
      <use xlink:href="#DejaVuSans-44" transform="translate(157.421875 0)"/>
      <use xlink:href="#DejaVuSans-20" transform="translate(234.423828 0)"/>
      <use xlink:href="#DejaVuSans-73" transform="translate(266.210938 0)"/>
      <use xlink:href="#DejaVuSans-61" transform="translate(318.310547 0)"/>
      <use xlink:href="#DejaVuSans-6d" transform="translate(379.589844 0)"/>
      <use xlink:href="#DejaVuSans-70" transform="translate(477.001953 0)"/>
      <use xlink:href="#DejaVuSans-6c" transform="translate(540.478516 0)"/>
      <use xlink:href="#DejaVuSans-65" transform="translate(568.261719 0)"/>
      <use xlink:href="#DejaVuSans-73" transform="translate(629.785156 0)"/>
     </g>
    </g>
   </g>
  </g>
  <g id="text_36">
   <!-- Scores using max_softmax - RLargeCNNskip -->
   <g transform="translate(155.476875 14.878125) scale(0.12 -0.12)">
    <defs>
     <path id="DejaVuSans-75" d="M 544 1381 
L 544 3500 
L 1119 3500 
L 1119 1403 
Q 1119 906 1312 657 
Q 1506 409 1894 409 
Q 2359 409 2629 706 
Q 2900 1003 2900 1516 
L 2900 3500 
L 3475 3500 
L 3475 0 
L 2900 0 
L 2900 538 
Q 2691 219 2414 64 
Q 2138 -91 1772 -91 
Q 1169 -91 856 284 
Q 544 659 544 1381 
z
M 1991 3584 
L 1991 3584 
z
" transform="scale(0.015625)"/>
     <path id="DejaVuSans-67" d="M 2906 1791 
Q 2906 2416 2648 2759 
Q 2391 3103 1925 3103 
Q 1463 3103 1205 2759 
Q 947 2416 947 1791 
Q 947 1169 1205 825 
Q 1463 481 1925 481 
Q 2391 481 2648 825 
Q 2906 1169 2906 1791 
z
M 3481 434 
Q 3481 -459 3084 -895 
Q 2688 -1331 1869 -1331 
Q 1566 -1331 1297 -1286 
Q 1028 -1241 775 -1147 
L 775 -588 
Q 1028 -725 1275 -790 
Q 1522 -856 1778 -856 
Q 2344 -856 2625 -561 
Q 2906 -266 2906 331 
L 2906 616 
Q 2728 306 2450 153 
Q 2172 0 1784 0 
Q 1141 0 747 490 
Q 353 981 353 1791 
Q 353 2603 747 3093 
Q 1141 3584 1784 3584 
Q 2172 3584 2450 3431 
Q 2728 3278 2906 2969 
L 2906 3500 
L 3481 3500 
L 3481 434 
z
" transform="scale(0.015625)"/>
     <path id="DejaVuSans-78" d="M 3513 3500 
L 2247 1797 
L 3578 0 
L 2900 0 
L 1881 1375 
L 863 0 
L 184 0 
L 1544 1831 
L 300 3500 
L 978 3500 
L 1906 2253 
L 2834 3500 
L 3513 3500 
z
" transform="scale(0.015625)"/>
     <path id="DejaVuSans-5f" d="M 3263 -1063 
L 3263 -1509 
L -63 -1509 
L -63 -1063 
L 3263 -1063 
z
" transform="scale(0.015625)"/>
     <path id="DejaVuSans-66" d="M 2375 4863 
L 2375 4384 
L 1825 4384 
Q 1516 4384 1395 4259 
Q 1275 4134 1275 3809 
L 1275 3500 
L 2222 3500 
L 2222 3053 
L 1275 3053 
L 1275 0 
L 697 0 
L 697 3053 
L 147 3053 
L 147 3500 
L 697 3500 
L 697 3744 
Q 697 4328 969 4595 
Q 1241 4863 1831 4863 
L 2375 4863 
z
" transform="scale(0.015625)"/>
     <path id="DejaVuSans-2d" d="M 313 2009 
L 1997 2009 
L 1997 1497 
L 313 1497 
L 313 2009 
z
" transform="scale(0.015625)"/>
     <path id="DejaVuSans-52" d="M 2841 2188 
Q 3044 2119 3236 1894 
Q 3428 1669 3622 1275 
L 4263 0 
L 3584 0 
L 2988 1197 
Q 2756 1666 2539 1819 
Q 2322 1972 1947 1972 
L 1259 1972 
L 1259 0 
L 628 0 
L 628 4666 
L 2053 4666 
Q 2853 4666 3247 4331 
Q 3641 3997 3641 3322 
Q 3641 2881 3436 2590 
Q 3231 2300 2841 2188 
z
M 1259 4147 
L 1259 2491 
L 2053 2491 
Q 2509 2491 2742 2702 
Q 2975 2913 2975 3322 
Q 2975 3731 2742 3939 
Q 2509 4147 2053 4147 
L 1259 4147 
z
" transform="scale(0.015625)"/>
     <path id="DejaVuSans-4c" d="M 628 4666 
L 1259 4666 
L 1259 531 
L 3531 531 
L 3531 0 
L 628 0 
L 628 4666 
z
" transform="scale(0.015625)"/>
     <path id="DejaVuSans-43" d="M 4122 4306 
L 4122 3641 
Q 3803 3938 3442 4084 
Q 3081 4231 2675 4231 
Q 1875 4231 1450 3742 
Q 1025 3253 1025 2328 
Q 1025 1406 1450 917 
Q 1875 428 2675 428 
Q 3081 428 3442 575 
Q 3803 722 4122 1019 
L 4122 359 
Q 3791 134 3420 21 
Q 3050 -91 2638 -91 
Q 1578 -91 968 557 
Q 359 1206 359 2328 
Q 359 3453 968 4101 
Q 1578 4750 2638 4750 
Q 3056 4750 3426 4639 
Q 3797 4528 4122 4306 
z
" transform="scale(0.015625)"/>
     <path id="DejaVuSans-4e" d="M 628 4666 
L 1478 4666 
L 3547 763 
L 3547 4666 
L 4159 4666 
L 4159 0 
L 3309 0 
L 1241 3903 
L 1241 0 
L 628 0 
L 628 4666 
z
" transform="scale(0.015625)"/>
     <path id="DejaVuSans-6b" d="M 581 4863 
L 1159 4863 
L 1159 1991 
L 2875 3500 
L 3609 3500 
L 1753 1863 
L 3688 0 
L 2938 0 
L 1159 1709 
L 1159 0 
L 581 0 
L 581 4863 
z
" transform="scale(0.015625)"/>
    </defs>
    <use xlink:href="#DejaVuSans-53"/>
    <use xlink:href="#DejaVuSans-63" transform="translate(63.476562 0)"/>
    <use xlink:href="#DejaVuSans-6f" transform="translate(118.457031 0)"/>
    <use xlink:href="#DejaVuSans-72" transform="translate(179.638672 0)"/>
    <use xlink:href="#DejaVuSans-65" transform="translate(218.501953 0)"/>
    <use xlink:href="#DejaVuSans-73" transform="translate(280.025391 0)"/>
    <use xlink:href="#DejaVuSans-20" transform="translate(332.125 0)"/>
    <use xlink:href="#DejaVuSans-75" transform="translate(363.912109 0)"/>
    <use xlink:href="#DejaVuSans-73" transform="translate(427.291016 0)"/>
    <use xlink:href="#DejaVuSans-69" transform="translate(479.390625 0)"/>
    <use xlink:href="#DejaVuSans-6e" transform="translate(507.173828 0)"/>
    <use xlink:href="#DejaVuSans-67" transform="translate(570.552734 0)"/>
    <use xlink:href="#DejaVuSans-20" transform="translate(634.029297 0)"/>
    <use xlink:href="#DejaVuSans-6d" transform="translate(665.816406 0)"/>
    <use xlink:href="#DejaVuSans-61" transform="translate(763.228516 0)"/>
    <use xlink:href="#DejaVuSans-78" transform="translate(824.507812 0)"/>
    <use xlink:href="#DejaVuSans-5f" transform="translate(883.6875 0)"/>
    <use xlink:href="#DejaVuSans-73" transform="translate(933.6875 0)"/>
    <use xlink:href="#DejaVuSans-6f" transform="translate(985.787109 0)"/>
    <use xlink:href="#DejaVuSans-66" transform="translate(1046.96875 0)"/>
    <use xlink:href="#DejaVuSans-74" transform="translate(1080.423828 0)"/>
    <use xlink:href="#DejaVuSans-6d" transform="translate(1119.632812 0)"/>
    <use xlink:href="#DejaVuSans-61" transform="translate(1217.044922 0)"/>
    <use xlink:href="#DejaVuSans-78" transform="translate(1278.324219 0)"/>
    <use xlink:href="#DejaVuSans-20" transform="translate(1337.503906 0)"/>
    <use xlink:href="#DejaVuSans-2d" transform="translate(1369.291016 0)"/>
    <use xlink:href="#DejaVuSans-20" transform="translate(1405.375 0)"/>
    <use xlink:href="#DejaVuSans-52" transform="translate(1437.162109 0)"/>
    <use xlink:href="#DejaVuSans-4c" transform="translate(1506.644531 0)"/>
    <use xlink:href="#DejaVuSans-61" transform="translate(1562.357422 0)"/>
    <use xlink:href="#DejaVuSans-72" transform="translate(1623.636719 0)"/>
    <use xlink:href="#DejaVuSans-67" transform="translate(1663 0)"/>
    <use xlink:href="#DejaVuSans-65" transform="translate(1726.476562 0)"/>
    <use xlink:href="#DejaVuSans-43" transform="translate(1788 0)"/>
    <use xlink:href="#DejaVuSans-4e" transform="translate(1857.824219 0)"/>
    <use xlink:href="#DejaVuSans-4e" transform="translate(1932.628906 0)"/>
    <use xlink:href="#DejaVuSans-73" transform="translate(2007.433594 0)"/>
    <use xlink:href="#DejaVuSans-6b" transform="translate(2059.533203 0)"/>
    <use xlink:href="#DejaVuSans-69" transform="translate(2117.443359 0)"/>
    <use xlink:href="#DejaVuSans-70" transform="translate(2145.226562 0)"/>
   </g>
  </g>
 </g>
 <defs>
  <clipPath id="p42e937075c">
   <rect x="47.72" y="34.75125" width="233.159846" height="211.28875"/>
  </clipPath>
  <clipPath id="p5364bec1b1">
   <rect x="332.040154" y="34.75125" width="233.159846" height="211.28875"/>
  </clipPath>
 </defs>
</svg>
