<?xml version="1.0" encoding="utf-8" standalone="no"?>
<!DOCTYPE svg PUBLIC "-//W3C//DTD SVG 1.1//EN"
  "http://www.w3.org/Graphics/SVG/1.1/DTD/svg11.dtd">
<svg xmlns:xlink="http://www.w3.org/1999/xlink" width="576pt" height="288pt" viewBox="0 0 576 288" xmlns="http://www.w3.org/2000/svg" version="1.1">
 <metadata>
  <rdf:RDF xmlns:dc="http://purl.org/dc/elements/1.1/" xmlns:cc="http://creativecommons.org/ns#" xmlns:rdf="http://www.w3.org/1999/02/22-rdf-syntax-ns#">
   <cc:Work>
    <dc:type rdf:resource="http://purl.org/dc/dcmitype/StillImage"/>
    <dc:date>2025-05-24T18:53:27.794268</dc:date>
    <dc:format>image/svg+xml</dc:format>
    <dc:creator>
     <cc:Agent>
      <dc:title>Matplotlib v3.10.1, https://matplotlib.org/</dc:title>
     </cc:Agent>
    </dc:creator>
   </cc:Work>
  </rdf:RDF>
 </metadata>
 <defs>
  <style type="text/css">*{stroke-linejoin: round; stroke-linecap: butt}</style>
 </defs>
 <g id="figure_1">
  <g id="patch_1">
   <path d="M 0 288 
L 576 288 
L 576 0 
L 0 0 
z
" style="fill: #ffffff"/>
  </g>
  <g id="axes_1">
   <g id="patch_2">
    <path d="M 44.57 246.04 
L 274.579846 246.04 
L 274.579846 34.75125 
L 44.57 34.75125 
z
" style="fill: #ffffff"/>
   </g>
   <g id="matplotlib.axis_1">
    <g id="xtick_1">
     <g id="line2d_1">
      <defs>
       <path id="mc60e3e2fee" d="M 0 0 
L 0 3.5 
" style="stroke: #000000; stroke-width: 0.8"/>
      </defs>
      <g>
       <use xlink:href="#mc60e3e2fee" x="55.024993" y="246.04" style="stroke: #000000; stroke-width: 0.8"/>
      </g>
     </g>
     <g id="text_1">
      <!-- 0 -->
      <g transform="translate(51.843743 260.638438) scale(0.1 -0.1)">
       <defs>
        <path id="DejaVuSans-30" d="M 2034 4250 
Q 1547 4250 1301 3770 
Q 1056 3291 1056 2328 
Q 1056 1369 1301 889 
Q 1547 409 2034 409 
Q 2525 409 2770 889 
Q 3016 1369 3016 2328 
Q 3016 3291 2770 3770 
Q 2525 4250 2034 4250 
z
M 2034 4750 
Q 2819 4750 3233 4129 
Q 3647 3509 3647 2328 
Q 3647 1150 3233 529 
Q 2819 -91 2034 -91 
Q 1250 -91 836 529 
Q 422 1150 422 2328 
Q 422 3509 836 4129 
Q 1250 4750 2034 4750 
z
" transform="scale(0.015625)"/>
       </defs>
       <use xlink:href="#DejaVuSans-30"/>
      </g>
     </g>
    </g>
    <g id="xtick_2">
     <g id="line2d_2">
      <g>
       <use xlink:href="#mc60e3e2fee" x="96.849147" y="246.04" style="stroke: #000000; stroke-width: 0.8"/>
      </g>
     </g>
     <g id="text_2">
      <!-- 2000 -->
      <g transform="translate(84.124147 260.638438) scale(0.1 -0.1)">
       <defs>
        <path id="DejaVuSans-32" d="M 1228 531 
L 3431 531 
L 3431 0 
L 469 0 
L 469 531 
Q 828 903 1448 1529 
Q 2069 2156 2228 2338 
Q 2531 2678 2651 2914 
Q 2772 3150 2772 3378 
Q 2772 3750 2511 3984 
Q 2250 4219 1831 4219 
Q 1534 4219 1204 4116 
Q 875 4013 500 3803 
L 500 4441 
Q 881 4594 1212 4672 
Q 1544 4750 1819 4750 
Q 2544 4750 2975 4387 
Q 3406 4025 3406 3419 
Q 3406 3131 3298 2873 
Q 3191 2616 2906 2266 
Q 2828 2175 2409 1742 
Q 1991 1309 1228 531 
z
" transform="scale(0.015625)"/>
       </defs>
       <use xlink:href="#DejaVuSans-32"/>
       <use xlink:href="#DejaVuSans-30" transform="translate(63.623047 0)"/>
       <use xlink:href="#DejaVuSans-30" transform="translate(127.246094 0)"/>
       <use xlink:href="#DejaVuSans-30" transform="translate(190.869141 0)"/>
      </g>
     </g>
    </g>
    <g id="xtick_3">
     <g id="line2d_3">
      <g>
       <use xlink:href="#mc60e3e2fee" x="138.673302" y="246.04" style="stroke: #000000; stroke-width: 0.8"/>
      </g>
     </g>
     <g id="text_3">
      <!-- 4000 -->
      <g transform="translate(125.948302 260.638438) scale(0.1 -0.1)">
       <defs>
        <path id="DejaVuSans-34" d="M 2419 4116 
L 825 1625 
L 2419 1625 
L 2419 4116 
z
M 2253 4666 
L 3047 4666 
L 3047 1625 
L 3713 1625 
L 3713 1100 
L 3047 1100 
L 3047 0 
L 2419 0 
L 2419 1100 
L 313 1100 
L 313 1709 
L 2253 4666 
z
" transform="scale(0.015625)"/>
       </defs>
       <use xlink:href="#DejaVuSans-34"/>
       <use xlink:href="#DejaVuSans-30" transform="translate(63.623047 0)"/>
       <use xlink:href="#DejaVuSans-30" transform="translate(127.246094 0)"/>
       <use xlink:href="#DejaVuSans-30" transform="translate(190.869141 0)"/>
      </g>
     </g>
    </g>
    <g id="xtick_4">
     <g id="line2d_4">
      <g>
       <use xlink:href="#mc60e3e2fee" x="180.497456" y="246.04" style="stroke: #000000; stroke-width: 0.8"/>
      </g>
     </g>
     <g id="text_4">
      <!-- 6000 -->
      <g transform="translate(167.772456 260.638438) scale(0.1 -0.1)">
       <defs>
        <path id="DejaVuSans-36" d="M 2113 2584 
Q 1688 2584 1439 2293 
Q 1191 2003 1191 1497 
Q 1191 994 1439 701 
Q 1688 409 2113 409 
Q 2538 409 2786 701 
Q 3034 994 3034 1497 
Q 3034 2003 2786 2293 
Q 2538 2584 2113 2584 
z
M 3366 4563 
L 3366 3988 
Q 3128 4100 2886 4159 
Q 2644 4219 2406 4219 
Q 1781 4219 1451 3797 
Q 1122 3375 1075 2522 
Q 1259 2794 1537 2939 
Q 1816 3084 2150 3084 
Q 2853 3084 3261 2657 
Q 3669 2231 3669 1497 
Q 3669 778 3244 343 
Q 2819 -91 2113 -91 
Q 1303 -91 875 529 
Q 447 1150 447 2328 
Q 447 3434 972 4092 
Q 1497 4750 2381 4750 
Q 2619 4750 2861 4703 
Q 3103 4656 3366 4563 
z
" transform="scale(0.015625)"/>
       </defs>
       <use xlink:href="#DejaVuSans-36"/>
       <use xlink:href="#DejaVuSans-30" transform="translate(63.623047 0)"/>
       <use xlink:href="#DejaVuSans-30" transform="translate(127.246094 0)"/>
       <use xlink:href="#DejaVuSans-30" transform="translate(190.869141 0)"/>
      </g>
     </g>
    </g>
    <g id="xtick_5">
     <g id="line2d_5">
      <g>
       <use xlink:href="#mc60e3e2fee" x="222.321611" y="246.04" style="stroke: #000000; stroke-width: 0.8"/>
      </g>
     </g>
     <g id="text_5">
      <!-- 8000 -->
      <g transform="translate(209.596611 260.638438) scale(0.1 -0.1)">
       <defs>
        <path id="DejaVuSans-38" d="M 2034 2216 
Q 1584 2216 1326 1975 
Q 1069 1734 1069 1313 
Q 1069 891 1326 650 
Q 1584 409 2034 409 
Q 2484 409 2743 651 
Q 3003 894 3003 1313 
Q 3003 1734 2745 1975 
Q 2488 2216 2034 2216 
z
M 1403 2484 
Q 997 2584 770 2862 
Q 544 3141 544 3541 
Q 544 4100 942 4425 
Q 1341 4750 2034 4750 
Q 2731 4750 3128 4425 
Q 3525 4100 3525 3541 
Q 3525 3141 3298 2862 
Q 3072 2584 2669 2484 
Q 3125 2378 3379 2068 
Q 3634 1759 3634 1313 
Q 3634 634 3220 271 
Q 2806 -91 2034 -91 
Q 1263 -91 848 271 
Q 434 634 434 1313 
Q 434 1759 690 2068 
Q 947 2378 1403 2484 
z
M 1172 3481 
Q 1172 3119 1398 2916 
Q 1625 2713 2034 2713 
Q 2441 2713 2670 2916 
Q 2900 3119 2900 3481 
Q 2900 3844 2670 4047 
Q 2441 4250 2034 4250 
Q 1625 4250 1398 4047 
Q 1172 3844 1172 3481 
z
" transform="scale(0.015625)"/>
       </defs>
       <use xlink:href="#DejaVuSans-38"/>
       <use xlink:href="#DejaVuSans-30" transform="translate(63.623047 0)"/>
       <use xlink:href="#DejaVuSans-30" transform="translate(127.246094 0)"/>
       <use xlink:href="#DejaVuSans-30" transform="translate(190.869141 0)"/>
      </g>
     </g>
    </g>
    <g id="xtick_6">
     <g id="line2d_6">
      <g>
       <use xlink:href="#mc60e3e2fee" x="264.145765" y="246.04" style="stroke: #000000; stroke-width: 0.8"/>
      </g>
     </g>
     <g id="text_6">
      <!-- 10000 -->
      <g transform="translate(248.239515 260.638438) scale(0.1 -0.1)">
       <defs>
        <path id="DejaVuSans-31" d="M 794 531 
L 1825 531 
L 1825 4091 
L 703 3866 
L 703 4441 
L 1819 4666 
L 2450 4666 
L 2450 531 
L 3481 531 
L 3481 0 
L 794 0 
L 794 531 
z
" transform="scale(0.015625)"/>
       </defs>
       <use xlink:href="#DejaVuSans-31"/>
       <use xlink:href="#DejaVuSans-30" transform="translate(63.623047 0)"/>
       <use xlink:href="#DejaVuSans-30" transform="translate(127.246094 0)"/>
       <use xlink:href="#DejaVuSans-30" transform="translate(190.869141 0)"/>
       <use xlink:href="#DejaVuSans-30" transform="translate(254.492188 0)"/>
      </g>
     </g>
    </g>
    <g id="text_7">
     <!-- Ordered samples -->
     <g transform="translate(116.853829 274.316562) scale(0.1 -0.1)">
      <defs>
       <path id="DejaVuSans-4f" d="M 2522 4238 
Q 1834 4238 1429 3725 
Q 1025 3213 1025 2328 
Q 1025 1447 1429 934 
Q 1834 422 2522 422 
Q 3209 422 3611 934 
Q 4013 1447 4013 2328 
Q 4013 3213 3611 3725 
Q 3209 4238 2522 4238 
z
M 2522 4750 
Q 3503 4750 4090 4092 
Q 4678 3434 4678 2328 
Q 4678 1225 4090 567 
Q 3503 -91 2522 -91 
Q 1538 -91 948 565 
Q 359 1222 359 2328 
Q 359 3434 948 4092 
Q 1538 4750 2522 4750 
z
" transform="scale(0.015625)"/>
       <path id="DejaVuSans-72" d="M 2631 2963 
Q 2534 3019 2420 3045 
Q 2306 3072 2169 3072 
Q 1681 3072 1420 2755 
Q 1159 2438 1159 1844 
L 1159 0 
L 581 0 
L 581 3500 
L 1159 3500 
L 1159 2956 
Q 1341 3275 1631 3429 
Q 1922 3584 2338 3584 
Q 2397 3584 2469 3576 
Q 2541 3569 2628 3553 
L 2631 2963 
z
" transform="scale(0.015625)"/>
       <path id="DejaVuSans-64" d="M 2906 2969 
L 2906 4863 
L 3481 4863 
L 3481 0 
L 2906 0 
L 2906 525 
Q 2725 213 2448 61 
Q 2172 -91 1784 -91 
Q 1150 -91 751 415 
Q 353 922 353 1747 
Q 353 2572 751 3078 
Q 1150 3584 1784 3584 
Q 2172 3584 2448 3432 
Q 2725 3281 2906 2969 
z
M 947 1747 
Q 947 1113 1208 752 
Q 1469 391 1925 391 
Q 2381 391 2643 752 
Q 2906 1113 2906 1747 
Q 2906 2381 2643 2742 
Q 2381 3103 1925 3103 
Q 1469 3103 1208 2742 
Q 947 2381 947 1747 
z
" transform="scale(0.015625)"/>
       <path id="DejaVuSans-65" d="M 3597 1894 
L 3597 1613 
L 953 1613 
Q 991 1019 1311 708 
Q 1631 397 2203 397 
Q 2534 397 2845 478 
Q 3156 559 3463 722 
L 3463 178 
Q 3153 47 2828 -22 
Q 2503 -91 2169 -91 
Q 1331 -91 842 396 
Q 353 884 353 1716 
Q 353 2575 817 3079 
Q 1281 3584 2069 3584 
Q 2775 3584 3186 3129 
Q 3597 2675 3597 1894 
z
M 3022 2063 
Q 3016 2534 2758 2815 
Q 2500 3097 2075 3097 
Q 1594 3097 1305 2825 
Q 1016 2553 972 2059 
L 3022 2063 
z
" transform="scale(0.015625)"/>
       <path id="DejaVuSans-20" transform="scale(0.015625)"/>
       <path id="DejaVuSans-73" d="M 2834 3397 
L 2834 2853 
Q 2591 2978 2328 3040 
Q 2066 3103 1784 3103 
Q 1356 3103 1142 2972 
Q 928 2841 928 2578 
Q 928 2378 1081 2264 
Q 1234 2150 1697 2047 
L 1894 2003 
Q 2506 1872 2764 1633 
Q 3022 1394 3022 966 
Q 3022 478 2636 193 
Q 2250 -91 1575 -91 
Q 1294 -91 989 -36 
Q 684 19 347 128 
L 347 722 
Q 666 556 975 473 
Q 1284 391 1588 391 
Q 1994 391 2212 530 
Q 2431 669 2431 922 
Q 2431 1156 2273 1281 
Q 2116 1406 1581 1522 
L 1381 1569 
Q 847 1681 609 1914 
Q 372 2147 372 2553 
Q 372 3047 722 3315 
Q 1072 3584 1716 3584 
Q 2034 3584 2315 3537 
Q 2597 3491 2834 3397 
z
" transform="scale(0.015625)"/>
       <path id="DejaVuSans-61" d="M 2194 1759 
Q 1497 1759 1228 1600 
Q 959 1441 959 1056 
Q 959 750 1161 570 
Q 1363 391 1709 391 
Q 2188 391 2477 730 
Q 2766 1069 2766 1631 
L 2766 1759 
L 2194 1759 
z
M 3341 1997 
L 3341 0 
L 2766 0 
L 2766 531 
Q 2569 213 2275 61 
Q 1981 -91 1556 -91 
Q 1019 -91 701 211 
Q 384 513 384 1019 
Q 384 1609 779 1909 
Q 1175 2209 1959 2209 
L 2766 2209 
L 2766 2266 
Q 2766 2663 2505 2880 
Q 2244 3097 1772 3097 
Q 1472 3097 1187 3025 
Q 903 2953 641 2809 
L 641 3341 
Q 956 3463 1253 3523 
Q 1550 3584 1831 3584 
Q 2591 3584 2966 3190 
Q 3341 2797 3341 1997 
z
" transform="scale(0.015625)"/>
       <path id="DejaVuSans-6d" d="M 3328 2828 
Q 3544 3216 3844 3400 
Q 4144 3584 4550 3584 
Q 5097 3584 5394 3201 
Q 5691 2819 5691 2113 
L 5691 0 
L 5113 0 
L 5113 2094 
Q 5113 2597 4934 2840 
Q 4756 3084 4391 3084 
Q 3944 3084 3684 2787 
Q 3425 2491 3425 1978 
L 3425 0 
L 2847 0 
L 2847 2094 
Q 2847 2600 2669 2842 
Q 2491 3084 2119 3084 
Q 1678 3084 1418 2786 
Q 1159 2488 1159 1978 
L 1159 0 
L 581 0 
L 581 3500 
L 1159 3500 
L 1159 2956 
Q 1356 3278 1631 3431 
Q 1906 3584 2284 3584 
Q 2666 3584 2933 3390 
Q 3200 3197 3328 2828 
z
" transform="scale(0.015625)"/>
       <path id="DejaVuSans-70" d="M 1159 525 
L 1159 -1331 
L 581 -1331 
L 581 3500 
L 1159 3500 
L 1159 2969 
Q 1341 3281 1617 3432 
Q 1894 3584 2278 3584 
Q 2916 3584 3314 3078 
Q 3713 2572 3713 1747 
Q 3713 922 3314 415 
Q 2916 -91 2278 -91 
Q 1894 -91 1617 61 
Q 1341 213 1159 525 
z
M 3116 1747 
Q 3116 2381 2855 2742 
Q 2594 3103 2138 3103 
Q 1681 3103 1420 2742 
Q 1159 2381 1159 1747 
Q 1159 1113 1420 752 
Q 1681 391 2138 391 
Q 2594 391 2855 752 
Q 3116 1113 3116 1747 
z
" transform="scale(0.015625)"/>
       <path id="DejaVuSans-6c" d="M 603 4863 
L 1178 4863 
L 1178 0 
L 603 0 
L 603 4863 
z
" transform="scale(0.015625)"/>
      </defs>
      <use xlink:href="#DejaVuSans-4f"/>
      <use xlink:href="#DejaVuSans-72" transform="translate(78.710938 0)"/>
      <use xlink:href="#DejaVuSans-64" transform="translate(118.074219 0)"/>
      <use xlink:href="#DejaVuSans-65" transform="translate(181.550781 0)"/>
      <use xlink:href="#DejaVuSans-72" transform="translate(243.074219 0)"/>
      <use xlink:href="#DejaVuSans-65" transform="translate(281.9375 0)"/>
      <use xlink:href="#DejaVuSans-64" transform="translate(343.460938 0)"/>
      <use xlink:href="#DejaVuSans-20" transform="translate(406.9375 0)"/>
      <use xlink:href="#DejaVuSans-73" transform="translate(438.724609 0)"/>
      <use xlink:href="#DejaVuSans-61" transform="translate(490.824219 0)"/>
      <use xlink:href="#DejaVuSans-6d" transform="translate(552.103516 0)"/>
      <use xlink:href="#DejaVuSans-70" transform="translate(649.515625 0)"/>
      <use xlink:href="#DejaVuSans-6c" transform="translate(712.992188 0)"/>
      <use xlink:href="#DejaVuSans-65" transform="translate(740.775391 0)"/>
      <use xlink:href="#DejaVuSans-73" transform="translate(802.298828 0)"/>
     </g>
    </g>
   </g>
   <g id="matplotlib.axis_2">
    <g id="ytick_1">
     <g id="line2d_7">
      <defs>
       <path id="me343042716" d="M 0 0 
L -3.5 0 
" style="stroke: #000000; stroke-width: 0.8"/>
      </defs>
      <g>
       <use xlink:href="#me343042716" x="44.57" y="204.535504" style="stroke: #000000; stroke-width: 0.8"/>
      </g>
     </g>
     <g id="text_8">
      <!-- 5 -->
      <g transform="translate(31.2075 208.334723) scale(0.1 -0.1)">
       <defs>
        <path id="DejaVuSans-35" d="M 691 4666 
L 3169 4666 
L 3169 4134 
L 1269 4134 
L 1269 2991 
Q 1406 3038 1543 3061 
Q 1681 3084 1819 3084 
Q 2600 3084 3056 2656 
Q 3513 2228 3513 1497 
Q 3513 744 3044 326 
Q 2575 -91 1722 -91 
Q 1428 -91 1123 -41 
Q 819 9 494 109 
L 494 744 
Q 775 591 1075 516 
Q 1375 441 1709 441 
Q 2250 441 2565 725 
Q 2881 1009 2881 1497 
Q 2881 1984 2565 2268 
Q 2250 2553 1709 2553 
Q 1456 2553 1204 2497 
Q 953 2441 691 2322 
L 691 4666 
z
" transform="scale(0.015625)"/>
       </defs>
       <use xlink:href="#DejaVuSans-35"/>
      </g>
     </g>
    </g>
    <g id="ytick_2">
     <g id="line2d_8">
      <g>
       <use xlink:href="#me343042716" x="44.57" y="160.790367" style="stroke: #000000; stroke-width: 0.8"/>
      </g>
     </g>
     <g id="text_9">
      <!-- 10 -->
      <g transform="translate(24.845 164.589586) scale(0.1 -0.1)">
       <use xlink:href="#DejaVuSans-31"/>
       <use xlink:href="#DejaVuSans-30" transform="translate(63.623047 0)"/>
      </g>
     </g>
    </g>
    <g id="ytick_3">
     <g id="line2d_9">
      <g>
       <use xlink:href="#me343042716" x="44.57" y="117.04523" style="stroke: #000000; stroke-width: 0.8"/>
      </g>
     </g>
     <g id="text_10">
      <!-- 15 -->
      <g transform="translate(24.845 120.844448) scale(0.1 -0.1)">
       <use xlink:href="#DejaVuSans-31"/>
       <use xlink:href="#DejaVuSans-35" transform="translate(63.623047 0)"/>
      </g>
     </g>
    </g>
    <g id="ytick_4">
     <g id="line2d_10">
      <g>
       <use xlink:href="#me343042716" x="44.57" y="73.300092" style="stroke: #000000; stroke-width: 0.8"/>
      </g>
     </g>
     <g id="text_11">
      <!-- 20 -->
      <g transform="translate(24.845 77.099311) scale(0.1 -0.1)">
       <use xlink:href="#DejaVuSans-32"/>
       <use xlink:href="#DejaVuSans-30" transform="translate(63.623047 0)"/>
      </g>
     </g>
    </g>
    <g id="text_12">
     <!-- Scores -->
     <g transform="translate(18.765313 157.002656) rotate(-90) scale(0.1 -0.1)">
      <defs>
       <path id="DejaVuSans-53" d="M 3425 4513 
L 3425 3897 
Q 3066 4069 2747 4153 
Q 2428 4238 2131 4238 
Q 1616 4238 1336 4038 
Q 1056 3838 1056 3469 
Q 1056 3159 1242 3001 
Q 1428 2844 1947 2747 
L 2328 2669 
Q 3034 2534 3370 2195 
Q 3706 1856 3706 1288 
Q 3706 609 3251 259 
Q 2797 -91 1919 -91 
Q 1588 -91 1214 -16 
Q 841 59 441 206 
L 441 856 
Q 825 641 1194 531 
Q 1563 422 1919 422 
Q 2459 422 2753 634 
Q 3047 847 3047 1241 
Q 3047 1584 2836 1778 
Q 2625 1972 2144 2069 
L 1759 2144 
Q 1053 2284 737 2584 
Q 422 2884 422 3419 
Q 422 4038 858 4394 
Q 1294 4750 2059 4750 
Q 2388 4750 2728 4690 
Q 3069 4631 3425 4513 
z
" transform="scale(0.015625)"/>
       <path id="DejaVuSans-63" d="M 3122 3366 
L 3122 2828 
Q 2878 2963 2633 3030 
Q 2388 3097 2138 3097 
Q 1578 3097 1268 2742 
Q 959 2388 959 1747 
Q 959 1106 1268 751 
Q 1578 397 2138 397 
Q 2388 397 2633 464 
Q 2878 531 3122 666 
L 3122 134 
Q 2881 22 2623 -34 
Q 2366 -91 2075 -91 
Q 1284 -91 818 406 
Q 353 903 353 1747 
Q 353 2603 823 3093 
Q 1294 3584 2113 3584 
Q 2378 3584 2631 3529 
Q 2884 3475 3122 3366 
z
" transform="scale(0.015625)"/>
       <path id="DejaVuSans-6f" d="M 1959 3097 
Q 1497 3097 1228 2736 
Q 959 2375 959 1747 
Q 959 1119 1226 758 
Q 1494 397 1959 397 
Q 2419 397 2687 759 
Q 2956 1122 2956 1747 
Q 2956 2369 2687 2733 
Q 2419 3097 1959 3097 
z
M 1959 3584 
Q 2709 3584 3137 3096 
Q 3566 2609 3566 1747 
Q 3566 888 3137 398 
Q 2709 -91 1959 -91 
Q 1206 -91 779 398 
Q 353 888 353 1747 
Q 353 2609 779 3096 
Q 1206 3584 1959 3584 
z
" transform="scale(0.015625)"/>
      </defs>
      <use xlink:href="#DejaVuSans-53"/>
      <use xlink:href="#DejaVuSans-63" transform="translate(63.476562 0)"/>
      <use xlink:href="#DejaVuSans-6f" transform="translate(118.457031 0)"/>
      <use xlink:href="#DejaVuSans-72" transform="translate(179.638672 0)"/>
      <use xlink:href="#DejaVuSans-65" transform="translate(218.501953 0)"/>
      <use xlink:href="#DejaVuSans-73" transform="translate(280.025391 0)"/>
     </g>
    </g>
   </g>
   <g id="line2d_11">
    <path d="M 55.024993 236.435966 
L 55.213202 233.416887 
L 55.882388 229.044116 
L 55.924212 229.005856 
L 56.133333 227.952757 
L 57.639003 224.626759 
L 57.722651 224.547231 
L 57.931772 224.167053 
L 58.329101 223.806064 
L 58.538222 223.553838 
L 58.580046 223.525619 
L 58.747343 223.234225 
L 60.62943 220.553548 
L 61.068583 220.231278 
L 62.84611 218.761671 
L 63.180703 218.610676 
L 63.975362 217.996011 
L 64.121747 217.840073 
L 64.393604 217.646401 
L 64.5609 217.539075 
L 64.728197 217.39578 
L 65.209175 216.890311 
L 65.397383 216.662085 
L 65.773801 216.481853 
L 66.129306 216.296132 
L 66.359339 216.117497 
L 66.56846 215.932354 
L 66.756668 215.802526 
L 70.834523 213.347938 
L 71.085468 213.167006 
L 71.294589 212.937274 
L 71.921951 212.615662 
L 72.193808 212.431703 
L 72.298369 212.305279 
L 72.61205 212.195346 
L 72.883907 212.089148 
L 74.598697 211.128038 
L 74.954203 210.994322 
L 75.33062 210.807477 
L 75.686125 210.595713 
L 75.895246 210.513073 
L 77.066322 209.679038 
L 77.254531 209.550378 
L 77.505476 209.452385 
L 77.651861 209.340337 
L 78.04919 209.121907 
L 79.345739 208.442811 
L 80.579551 207.937165 
L 80.746848 207.870574 
L 81.081441 207.687012 
L 81.290562 207.587889 
L 81.604243 207.438319 
L 81.834276 207.371444 
L 82.398902 207.149518 
L 82.587111 207.068233 
L 82.87988 206.920783 
L 83.48633 206.611623 
L 83.611803 206.483146 
L 84.699231 206.128375 
L 84.887439 206.042568 
L 86.10034 205.619062 
L 86.288548 205.553426 
L 86.832262 205.323874 
L 87.145944 205.149269 
L 87.940603 204.901197 
L 88.588877 204.547123 
L 89.069855 204.383565 
L 89.278976 204.265406 
L 89.969074 203.917447 
L 90.282755 203.71623 
L 92.980413 202.721412 
L 93.294094 202.616578 
L 95.385302 201.723257 
L 95.531687 201.59085 
L 96.263609 201.30358 
L 96.514554 201.22051 
L 96.911884 201.08369 
L 97.141917 200.986352 
L 98.668498 200.352529 
L 98.856707 200.206401 
L 102.014431 198.792637 
L 102.244463 198.668933 
L 102.453584 198.604957 
L 102.746353 198.498779 
L 103.039122 198.316006 
L 103.499188 198.166357 
L 104.168374 197.865829 
L 104.565704 197.734319 
L 104.774825 197.647448 
L 105.193066 197.474133 
L 105.506747 197.289098 
L 105.966813 197.11242 
L 114.519853 193.748648 
L 114.645325 193.661297 
L 115.544544 193.385637 
L 118.242202 192.410578 
L 118.639532 192.192381 
L 118.806829 192.084004 
L 119.036861 191.949257 
L 119.434191 191.841924 
L 119.580575 191.797443 
L 120.019729 191.621603 
L 120.668003 191.356085 
L 120.8353 191.213516 
L 124.285793 189.969025 
L 124.453089 189.860519 
L 124.871331 189.69407 
L 125.038628 189.610245 
L 125.875111 189.233847 
L 126.711594 188.884328 
L 126.920715 188.794663 
L 127.506253 188.579415 
L 127.799022 188.424752 
L 128.029055 188.315153 
L 128.238175 188.215779 
L 128.760977 188.073465 
L 128.949186 188.018475 
L 129.241955 187.909185 
L 129.513812 187.820112 
L 131.395899 187.206051 
L 131.542284 187.089861 
L 132.232382 186.768427 
L 132.650624 186.615149 
L 133.047953 186.503147 
L 133.528931 186.325701 
L 134.135381 186.06231 
L 136.017468 185.250349 
L 137.815907 184.481171 
L 138.087764 184.286854 
L 138.694214 184.127893 
L 140.032587 183.511651 
L 140.806334 183.233388 
L 141.329136 182.98507 
L 143.294871 182.11905 
L 143.650376 181.940211 
L 143.817673 181.826724 
L 144.235914 181.696436 
L 144.716892 181.454043 
L 145.135134 181.306856 
L 145.323342 181.237027 
L 145.867056 180.977616 
L 146.180738 180.859085 
L 147.017221 180.62844 
L 151.450581 178.922278 
L 151.680614 178.756826 
L 151.952471 178.63545 
L 152.266152 178.441963 
L 152.558921 178.307542 
L 153.562701 177.72195 
L 153.876382 177.580866 
L 154.127327 177.425197 
L 154.650129 177.272766 
L 154.984722 177.011148 
L 155.444788 176.858809 
L 155.632997 176.759443 
L 156.051238 176.59644 
L 156.490392 176.309633 
L 158.07971 175.484848 
L 158.727984 175.250948 
L 159.271698 174.988663 
L 159.648115 174.793996 
L 159.815412 174.71841 
L 160.066357 174.652945 
L 160.568247 174.498069 
L 160.79828 174.41958 
L 161.237433 174.257536 
L 162.784927 173.544198 
L 163.558674 173.15609 
L 164.060564 172.989399 
L 164.436981 172.789508 
L 164.708838 172.659663 
L 165.085255 172.426214 
L 165.315288 172.31989 
L 165.628969 172.15234 
L 166.026299 172.001836 
L 166.507277 171.752659 
L 167.092815 171.533277 
L 167.824738 171.200922 
L 168.117507 171.074047 
L 168.933078 170.759013 
L 169.936857 170.411247 
L 170.104154 170.32705 
L 171.714384 169.609515 
L 171.923505 169.472686 
L 172.446307 169.319596 
L 172.718164 169.233155 
L 173.073669 169.10356 
L 175.938624 167.793404 
L 176.461425 167.594097 
L 176.649634 167.491228 
L 177.256084 167.264195 
L 177.486117 167.139815 
L 178.155304 166.780718 
L 178.427161 166.683213 
L 178.615369 166.605817 
L 178.866314 166.493936 
L 179.32638 166.205744 
L 179.472765 166.081789 
L 179.995567 165.880789 
L 180.309248 165.653481 
L 180.539281 165.54074 
L 180.769313 165.394508 
L 183.195114 164.088757 
L 183.571532 163.879747 
L 183.843389 163.738813 
L 184.136158 163.584413 
L 184.679872 163.214135 
L 184.909905 163.082505 
L 185.16085 162.906602 
L 185.579091 162.697383 
L 185.788212 162.604367 
L 186.164629 162.447664 
L 186.415574 162.334682 
L 187.063849 161.974809 
L 187.272969 161.864279 
L 187.921244 161.576254 
L 188.444046 161.332267 
L 188.611342 161.23855 
L 188.925023 160.979002 
L 189.280529 160.791435 
L 189.531474 160.554715 
L 189.907891 160.380815 
L 190.20066 160.262076 
L 190.388869 160.205222 
L 192.668285 159.019454 
L 193.044703 158.713147 
L 193.211999 158.606573 
L 195.470504 157.010018 
L 196.327899 156.631622 
L 196.495195 156.498506 
L 196.892525 156.301586 
L 197.038909 156.218641 
L 197.206206 156.110523 
L 197.436239 155.958909 
L 197.64536 155.805251 
L 197.812656 155.727521 
L 200.133897 154.339668 
L 200.740347 153.878677 
L 201.095852 153.643193 
L 202.162368 152.948886 
L 202.329665 152.850873 
L 202.664258 152.691257 
L 203.542565 152.120421 
L 203.814422 151.952763 
L 204.19084 151.797486 
L 205.090059 151.050431 
L 205.29918 150.94177 
L 205.466477 150.811617 
L 206.261135 150.342541 
L 206.553905 150.181707 
L 207.494948 149.670279 
L 207.704069 149.592749 
L 207.850453 149.485883 
L 208.01775 149.362963 
L 208.247783 149.250106 
L 208.435992 149.135747 
L 209.377035 148.52925 
L 209.586156 148.423693 
L 209.962573 148.242843 
L 210.464463 147.837338 
L 210.652672 147.63421 
L 210.945441 147.37855 
L 211.991045 146.806254 
L 212.179253 146.645604 
L 212.555671 146.482743 
L 213.245769 145.970272 
L 213.392154 145.824257 
L 213.768571 145.581788 
L 213.95678 145.28199 
L 214.165901 145.145595 
L 214.270461 144.956685 
L 214.772351 144.57697 
L 215.002384 144.443279 
L 218.682909 141.937241 
L 218.871118 141.727363 
L 219.665777 140.996562 
L 219.812162 140.803305 
L 220.334963 140.329782 
L 220.627733 140.15564 
L 220.89959 139.856701 
L 221.338743 139.548776 
L 221.777897 139.288093 
L 222.133402 139.054569 
L 222.405259 138.901912 
L 222.572556 138.791658 
L 223.032621 138.453428 
L 223.429951 138.159846 
L 223.701808 137.935058 
L 223.869105 137.743553 
L 223.994577 137.659565 
L 224.454643 137.438098 
L 224.663763 137.22605 
L 225.374774 136.654647 
L 225.688455 136.258762 
L 225.83484 136.146473 
L 227.173213 134.895431 
L 227.403246 134.601424 
L 227.779663 134.29898 
L 227.967872 134.135844 
L 229.034388 133.260237 
L 229.180772 133.060171 
L 229.724486 132.520065 
L 229.870871 132.369253 
L 231.251068 131.296667 
L 231.77387 131.101082 
L 232.443056 130.762535 
L 232.610353 130.268887 
L 232.756737 130.09311 
L 232.903122 129.864267 
L 233.216803 129.57338 
L 233.3841 129.209535 
L 233.551396 129.088526 
L 234.576088 128.340786 
L 234.743385 128.209314 
L 236.249054 126.904106 
L 236.520911 126.514854 
L 236.646384 126.396766 
L 236.855504 126.219912 
L 236.897329 126.158895 
L 237.085537 125.880323 
L 237.127361 125.849334 
L 237.252834 125.668601 
L 237.545603 125.456979 
L 237.691988 125.309812 
L 237.942932 125.061153 
L 238.089317 124.803432 
L 238.42391 124.314631 
L 238.612119 124.037253 
L 238.737591 123.923294 
L 239.176745 123.308871 
L 239.448602 123.069214 
L 239.92958 122.514899 
L 239.992316 122.434966 
L 240.159613 122.2015 
L 240.243261 122.094066 
L 240.954272 121.278626 
L 241.100656 121.0304 
L 241.53981 120.520933 
L 241.978963 120.023196 
L 242.292645 119.618651 
L 242.564502 119.255866 
L 243.003655 118.78654 
L 243.129128 118.563879 
L 243.338248 118.386859 
L 243.735578 118.058833 
L 243.902875 117.81125 
L 245.680401 115.817151 
L 246.224115 115.200958 
L 246.307763 115.101868 
L 246.454148 115.015152 
L 246.663269 114.839675 
L 246.830565 114.512685 
L 247.039686 114.372093 
L 247.311543 114.076775 
L 247.47884 113.954014 
L 247.771609 113.567141 
L 247.897081 113.426123 
L 248.921773 111.7481 
L 249.528223 110.908338 
L 249.737344 110.498953 
L 249.883729 110.283001 
L 250.030113 110.057988 
L 250.657475 109.059378 
L 250.762036 108.989666 
L 251.012981 108.435893 
L 251.138453 108.352005 
L 251.284838 108.222344 
L 251.870376 107.512326 
L 252.037673 107.285177 
L 252.079497 107.187372 
L 252.288617 106.741667 
L 252.476826 106.477204 
L 252.665035 106.247251 
L 253.041452 105.557626 
L 253.355133 104.70972 
L 253.459694 104.592891 
L 253.62699 104.30872 
L 253.752463 103.931968 
L 254.045232 103.276819 
L 254.317089 102.884013 
L 254.568034 102.474103 
L 254.756243 102.104142 
L 254.860803 101.964752 
L 255.404517 100.68923 
L 255.571814 100.298777 
L 255.906407 99.653223 
L 255.969143 99.592731 
L 256.366473 98.492211 
L 256.450121 98.395975 
L 256.575593 98.106698 
L 256.617417 98.06795 
L 256.784714 97.443856 
L 256.931099 97.313009 
L 257.202956 96.809266 
L 257.328428 96.618745 
L 258.060351 95.105194 
L 258.102175 94.982841 
L 258.415856 93.519736 
L 258.45768 93.453887 
L 258.666801 92.190998 
L 258.729537 92.023006 
L 258.980482 91.237711 
L 259.043218 91.184295 
L 259.210515 90.610046 
L 259.273251 90.52424 
L 259.503284 89.80421 
L 259.691493 88.768887 
L 259.733317 88.730306 
L 259.96335 87.677612 
L 260.109734 87.417037 
L 260.653448 85.723896 
L 260.737097 85.665122 
L 261.008954 84.698352 
L 261.949997 80.032909 
L 262.07547 79.138829 
L 262.159118 78.664071 
L 262.326415 77.070187 
L 262.472799 76.122874 
L 262.807392 74.146446 
L 263.037425 72.175559 
L 263.058337 72.13666 
L 263.267458 69.5453 
L 263.372018 67.245487 
L 263.957557 55.575472 
L 264.124853 44.355284 
L 264.124853 44.355284 
" clip-path="url(#p1e01792648)" style="fill: none; stroke: #1f77b4; stroke-width: 1.5; stroke-linecap: square"/>
   </g>
   <g id="line2d_12">
    <path d="M 55.024993 222.121358 
L 55.171378 218.55547 
L 55.213202 218.366243 
L 55.380498 216.424327 
L 55.610531 214.819733 
L 55.777828 213.670734 
L 55.819652 213.528897 
L 55.966036 213.176973 
L 56.049685 213.030044 
L 56.279718 212.178329 
L 56.488838 211.789103 
L 56.530663 211.730251 
L 56.718871 211.365013 
L 57.074377 210.871102 
L 57.241673 210.569347 
L 57.325322 210.48621 
L 57.555354 210.003117 
L 57.722651 209.856935 
L 57.931772 209.724975 
L 58.245453 209.37526 
L 58.454574 209.143217 
L 59.12376 208.188566 
L 59.583826 207.767779 
L 59.855683 207.473062 
L 60.022979 207.326167 
L 61.612297 205.89264 
L 61.800506 205.73995 
L 62.427868 205.257883 
L 62.595165 205.156811 
L 62.74155 205.027142 
L 63.682593 204.421216 
L 63.828978 204.250633 
L 64.100835 204.085365 
L 64.268131 203.984034 
L 64.665461 203.710227 
L 64.832757 203.565764 
L 65.000054 203.441705 
L 65.334647 203.259958 
L 65.648328 203.117864 
L 65.920185 203.005082 
L 66.087482 202.880268 
L 66.923965 202.415394 
L 67.17491 202.301894 
L 71.210941 200.4798 
L 71.50371 200.36852 
L 73.845863 199.112823 
L 74.180456 198.874647 
L 75.351532 198.381462 
L 75.727949 198.224671 
L 76.522608 197.951206 
L 76.731729 197.825795 
L 78.697464 197.043446 
L 78.885673 196.831265 
L 79.094794 196.719781 
L 79.303915 196.586986 
L 79.76398 196.401509 
L 83.59089 194.594163 
L 83.758187 194.461698 
L 84.239165 194.325358 
L 85.012912 193.979343 
L 85.389329 193.789411 
L 86.121252 193.362379 
L 86.455845 193.253043 
L 87.020471 192.970233 
L 87.668746 192.589279 
L 87.982427 192.472042 
L 88.233372 192.352981 
L 88.442492 192.240883 
L 88.651613 192.0339 
L 89.697217 191.271926 
L 89.92725 191.08723 
L 90.115459 190.930472 
L 90.972854 190.363307 
L 92.332139 189.586557 
L 92.54126 189.48536 
L 92.771292 189.330146 
L 93.607775 188.699344 
L 93.691424 188.652298 
L 93.837808 188.490455 
L 94.235138 188.19351 
L 94.381522 188.124457 
L 96.514554 186.634435 
L 96.744587 186.367599 
L 97.037356 186.105226 
L 97.204653 185.888811 
L 97.643806 185.602367 
L 98.271169 185.003242 
L 98.480289 184.893405 
L 98.68941 184.759989 
L 98.877619 184.57888 
L 99.044916 184.364688 
L 99.107652 184.320233 
L 99.274948 184.001094 
L 99.672278 183.66193 
L 101.596189 181.321144 
L 101.763486 181.031413 
L 101.868046 180.907896 
L 102.077167 180.680117 
L 102.244463 180.378958 
L 102.328112 180.277182 
L 102.599969 180.020708 
L 102.767265 179.835181 
L 102.934562 179.360432 
L 103.269155 179.03808 
L 103.331891 178.90816 
L 103.5201 178.105661 
L 103.771045 177.529794 
L 104.586616 176.095191 
L 104.753913 175.734909 
L 105.02577 175.316889 
L 105.297627 173.839941 
L 105.360363 173.741544 
L 105.757692 172.712938 
L 105.778604 172.705545 
L 105.987725 171.646218 
L 106.029549 171.416807 
L 106.175934 170.793139 
L 106.196846 170.791654 
L 107.033329 162.973502 
L 107.284274 143.045321 
L 107.284274 143.045321 
" clip-path="url(#p1e01792648)" style="fill: none; stroke: #ff7f0e; stroke-width: 1.5; stroke-linecap: square"/>
   </g>
   <g id="patch_3">
    <path d="M 44.57 246.04 
L 44.57 34.75125 
" style="fill: none; stroke: #000000; stroke-width: 0.8; stroke-linejoin: miter; stroke-linecap: square"/>
   </g>
   <g id="patch_4">
    <path d="M 274.579846 246.04 
L 274.579846 34.75125 
" style="fill: none; stroke: #000000; stroke-width: 0.8; stroke-linejoin: miter; stroke-linecap: square"/>
   </g>
   <g id="patch_5">
    <path d="M 44.57 246.04 
L 274.579846 246.04 
" style="fill: none; stroke: #000000; stroke-width: 0.8; stroke-linejoin: miter; stroke-linecap: square"/>
   </g>
   <g id="patch_6">
    <path d="M 44.57 34.75125 
L 274.579846 34.75125 
" style="fill: none; stroke: #000000; stroke-width: 0.8; stroke-linejoin: miter; stroke-linecap: square"/>
   </g>
   <g id="legend_1">
    <g id="patch_7">
     <path d="M 51.57 72.1075 
L 151.759063 72.1075 
Q 153.759063 72.1075 153.759063 70.1075 
L 153.759063 41.75125 
Q 153.759063 39.75125 151.759063 39.75125 
L 51.57 39.75125 
Q 49.57 39.75125 49.57 41.75125 
L 49.57 70.1075 
Q 49.57 72.1075 51.57 72.1075 
z
" style="fill: #ffffff; opacity: 0.8; stroke: #cccccc; stroke-linejoin: miter"/>
    </g>
    <g id="line2d_13">
     <path d="M 53.57 47.849687 
L 63.57 47.849687 
L 73.57 47.849687 
" style="fill: none; stroke: #1f77b4; stroke-width: 1.5; stroke-linecap: square"/>
    </g>
    <g id="text_13">
     <!-- ID samples -->
     <g transform="translate(81.57 51.349687) scale(0.1 -0.1)">
      <defs>
       <path id="DejaVuSans-49" d="M 628 4666 
L 1259 4666 
L 1259 0 
L 628 0 
L 628 4666 
z
" transform="scale(0.015625)"/>
       <path id="DejaVuSans-44" d="M 1259 4147 
L 1259 519 
L 2022 519 
Q 2988 519 3436 956 
Q 3884 1394 3884 2338 
Q 3884 3275 3436 3711 
Q 2988 4147 2022 4147 
L 1259 4147 
z
M 628 4666 
L 1925 4666 
Q 3281 4666 3915 4102 
Q 4550 3538 4550 2338 
Q 4550 1131 3912 565 
Q 3275 0 1925 0 
L 628 0 
L 628 4666 
z
" transform="scale(0.015625)"/>
      </defs>
      <use xlink:href="#DejaVuSans-49"/>
      <use xlink:href="#DejaVuSans-44" transform="translate(29.492188 0)"/>
      <use xlink:href="#DejaVuSans-20" transform="translate(106.494141 0)"/>
      <use xlink:href="#DejaVuSans-73" transform="translate(138.28125 0)"/>
      <use xlink:href="#DejaVuSans-61" transform="translate(190.380859 0)"/>
      <use xlink:href="#DejaVuSans-6d" transform="translate(251.660156 0)"/>
      <use xlink:href="#DejaVuSans-70" transform="translate(349.072266 0)"/>
      <use xlink:href="#DejaVuSans-6c" transform="translate(412.548828 0)"/>
      <use xlink:href="#DejaVuSans-65" transform="translate(440.332031 0)"/>
      <use xlink:href="#DejaVuSans-73" transform="translate(501.855469 0)"/>
     </g>
    </g>
    <g id="line2d_14">
     <path d="M 53.57 62.527812 
L 63.57 62.527812 
L 73.57 62.527812 
" style="fill: none; stroke: #ff7f0e; stroke-width: 1.5; stroke-linecap: square"/>
    </g>
    <g id="text_14">
     <!-- OOD samples -->
     <g transform="translate(81.57 66.027812) scale(0.1 -0.1)">
      <use xlink:href="#DejaVuSans-4f"/>
      <use xlink:href="#DejaVuSans-4f" transform="translate(78.710938 0)"/>
      <use xlink:href="#DejaVuSans-44" transform="translate(157.421875 0)"/>
      <use xlink:href="#DejaVuSans-20" transform="translate(234.423828 0)"/>
      <use xlink:href="#DejaVuSans-73" transform="translate(266.210938 0)"/>
      <use xlink:href="#DejaVuSans-61" transform="translate(318.310547 0)"/>
      <use xlink:href="#DejaVuSans-6d" transform="translate(379.589844 0)"/>
      <use xlink:href="#DejaVuSans-70" transform="translate(477.001953 0)"/>
      <use xlink:href="#DejaVuSans-6c" transform="translate(540.478516 0)"/>
      <use xlink:href="#DejaVuSans-65" transform="translate(568.261719 0)"/>
      <use xlink:href="#DejaVuSans-73" transform="translate(629.785156 0)"/>
     </g>
    </g>
   </g>
  </g>
  <g id="axes_2">
   <g id="patch_8">
    <path d="M 335.190154 246.04 
L 565.2 246.04 
L 565.2 34.75125 
L 335.190154 34.75125 
z
" style="fill: #ffffff"/>
   </g>
   <g id="patch_9">
    <path d="M 345.645147 246.04 
L 354.009141 246.04 
L 354.009141 243.136677 
L 345.645147 243.136677 
z
" clip-path="url(#p6a712246f4)" style="fill: #1f77b4; opacity: 0.5"/>
   </g>
   <g id="patch_10">
    <path d="M 354.009141 246.04 
L 362.373134 246.04 
L 362.373134 233.007302 
L 354.009141 233.007302 
z
" clip-path="url(#p6a712246f4)" style="fill: #1f77b4; opacity: 0.5"/>
   </g>
   <g id="patch_11">
    <path d="M 362.373134 246.04 
L 370.737128 246.04 
L 370.737128 213.651818 
L 362.373134 213.651818 
z
" clip-path="url(#p6a712246f4)" style="fill: #1f77b4; opacity: 0.5"/>
   </g>
   <g id="patch_12">
    <path d="M 370.737128 246.04 
L 379.101123 246.04 
L 379.101123 199.135203 
L 370.737128 199.135203 
z
" clip-path="url(#p6a712246f4)" style="fill: #1f77b4; opacity: 0.5"/>
   </g>
   <g id="patch_13">
    <path d="M 379.101123 246.04 
L 387.465115 246.04 
L 387.465115 190.618774 
L 379.101123 190.618774 
z
" clip-path="url(#p6a712246f4)" style="fill: #1f77b4; opacity: 0.5"/>
   </g>
   <g id="patch_14">
    <path d="M 387.465115 246.04 
L 395.829108 246.04 
L 395.829108 186.425084 
L 387.465115 186.425084 
z
" clip-path="url(#p6a712246f4)" style="fill: #1f77b4; opacity: 0.5"/>
   </g>
   <g id="patch_15">
    <path d="M 395.829108 246.04 
L 404.193109 246.04 
L 404.193109 188.425214 
L 395.829108 188.425214 
z
" clip-path="url(#p6a712246f4)" style="fill: #1f77b4; opacity: 0.5"/>
   </g>
   <g id="patch_16">
    <path d="M 404.193109 246.04 
L 412.557101 246.04 
L 412.557101 192.038177 
L 404.193109 192.038177 
z
" clip-path="url(#p6a712246f4)" style="fill: #1f77b4; opacity: 0.5"/>
   </g>
   <g id="patch_17">
    <path d="M 412.557101 246.04 
L 420.921094 246.04 
L 420.921094 191.13492 
L 412.557101 191.13492 
z
" clip-path="url(#p6a712246f4)" style="fill: #1f77b4; opacity: 0.5"/>
   </g>
   <g id="patch_18">
    <path d="M 420.921094 246.04 
L 429.285086 246.04 
L 429.285086 201.45785 
L 420.921094 201.45785 
z
" clip-path="url(#p6a712246f4)" style="fill: #1f77b4; opacity: 0.5"/>
   </g>
   <g id="patch_19">
    <path d="M 429.285086 246.04 
L 437.649078 246.04 
L 437.649078 208.038717 
L 429.285086 208.038717 
z
" clip-path="url(#p6a712246f4)" style="fill: #1f77b4; opacity: 0.5"/>
   </g>
   <g id="patch_20">
    <path d="M 437.649078 246.04 
L 446.013071 246.04 
L 446.013071 210.877522 
L 437.649078 210.877522 
z
" clip-path="url(#p6a712246f4)" style="fill: #1f77b4; opacity: 0.5"/>
   </g>
   <g id="patch_21">
    <path d="M 446.013071 246.04 
L 454.377063 246.04 
L 454.377063 214.748621 
L 446.013071 214.748621 
z
" clip-path="url(#p6a712246f4)" style="fill: #1f77b4; opacity: 0.5"/>
   </g>
   <g id="patch_22">
    <path d="M 454.377063 246.04 
L 462.741064 246.04 
L 462.741064 220.168187 
L 454.377063 220.168187 
z
" clip-path="url(#p6a712246f4)" style="fill: #1f77b4; opacity: 0.5"/>
   </g>
   <g id="patch_23">
    <path d="M 462.741064 246.04 
L 471.105057 246.04 
L 471.105057 224.039257 
L 462.741064 224.039257 
z
" clip-path="url(#p6a712246f4)" style="fill: #1f77b4; opacity: 0.5"/>
   </g>
   <g id="patch_24">
    <path d="M 471.105057 246.04 
L 479.469049 246.04 
L 479.469049 224.877995 
L 471.105057 224.877995 
z
" clip-path="url(#p6a712246f4)" style="fill: #1f77b4; opacity: 0.5"/>
   </g>
   <g id="patch_25">
    <path d="M 479.469049 246.04 
L 487.83305 246.04 
L 487.83305 230.362068 
L 479.469049 230.362068 
z
" clip-path="url(#p6a712246f4)" style="fill: #1f77b4; opacity: 0.5"/>
   </g>
   <g id="patch_26">
    <path d="M 487.83305 246.04 
L 496.197034 246.04 
L 496.197034 234.813802 
L 487.83305 234.813802 
z
" clip-path="url(#p6a712246f4)" style="fill: #1f77b4; opacity: 0.5"/>
   </g>
   <g id="patch_27">
    <path d="M 496.197034 246.04 
L 504.561035 246.04 
L 504.561035 237.459074 
L 496.197034 237.459074 
z
" clip-path="url(#p6a712246f4)" style="fill: #1f77b4; opacity: 0.5"/>
   </g>
   <g id="patch_28">
    <path d="M 504.561035 246.04 
L 512.925036 246.04 
L 512.925036 239.588176 
L 504.561035 239.588176 
z
" clip-path="url(#p6a712246f4)" style="fill: #1f77b4; opacity: 0.5"/>
   </g>
   <g id="patch_29">
    <path d="M 512.925036 246.04 
L 521.28902 246.04 
L 521.28902 242.362452 
L 512.925036 242.362452 
z
" clip-path="url(#p6a712246f4)" style="fill: #1f77b4; opacity: 0.5"/>
   </g>
   <g id="patch_30">
    <path d="M 521.28902 246.04 
L 529.653021 246.04 
L 529.653021 243.717343 
L 521.28902 243.717343 
z
" clip-path="url(#p6a712246f4)" style="fill: #1f77b4; opacity: 0.5"/>
   </g>
   <g id="patch_31">
    <path d="M 529.653021 246.04 
L 538.017022 246.04 
L 538.017022 244.491562 
L 529.653021 244.491562 
z
" clip-path="url(#p6a712246f4)" style="fill: #1f77b4; opacity: 0.5"/>
   </g>
   <g id="patch_32">
    <path d="M 538.017022 246.04 
L 546.381006 246.04 
L 546.381006 245.523853 
L 538.017022 245.523853 
z
" clip-path="url(#p6a712246f4)" style="fill: #1f77b4; opacity: 0.5"/>
   </g>
   <g id="patch_33">
    <path d="M 546.381006 246.04 
L 554.745007 246.04 
L 554.745007 245.717409 
L 546.381006 245.717409 
z
" clip-path="url(#p6a712246f4)" style="fill: #1f77b4; opacity: 0.5"/>
   </g>
   <g id="patch_34">
    <path d="M 361.228091 246.04 
L 364.67139 246.04 
L 364.67139 241.651867 
L 361.228091 241.651867 
z
" clip-path="url(#p6a712246f4)" style="fill: #ff7f0e; opacity: 0.5"/>
   </g>
   <g id="patch_35">
    <path d="M 364.67139 246.04 
L 368.114692 246.04 
L 368.114692 237.26374 
L 364.67139 237.26374 
z
" clip-path="url(#p6a712246f4)" style="fill: #ff7f0e; opacity: 0.5"/>
   </g>
   <g id="patch_36">
    <path d="M 368.114692 246.04 
L 371.557994 246.04 
L 371.557994 224.726225 
L 368.114692 224.726225 
z
" clip-path="url(#p6a712246f4)" style="fill: #ff7f0e; opacity: 0.5"/>
   </g>
   <g id="patch_37">
    <path d="M 371.557994 246.04 
L 375.001296 246.04 
L 375.001296 186.486804 
L 371.557994 186.486804 
z
" clip-path="url(#p6a712246f4)" style="fill: #ff7f0e; opacity: 0.5"/>
   </g>
   <g id="patch_38">
    <path d="M 375.001296 246.04 
L 378.444594 246.04 
L 378.444594 160.157909 
L 375.001296 160.157909 
z
" clip-path="url(#p6a712246f4)" style="fill: #ff7f0e; opacity: 0.5"/>
   </g>
   <g id="patch_39">
    <path d="M 378.444594 246.04 
L 381.887896 246.04 
L 381.887896 108.754211 
L 378.444594 108.754211 
z
" clip-path="url(#p6a712246f4)" style="fill: #ff7f0e; opacity: 0.5"/>
   </g>
   <g id="patch_40">
    <path d="M 381.887896 246.04 
L 385.331198 246.04 
L 385.331198 46.693512 
L 381.887896 46.693512 
z
" clip-path="url(#p6a712246f4)" style="fill: #ff7f0e; opacity: 0.5"/>
   </g>
   <g id="patch_41">
    <path d="M 385.331198 246.04 
L 388.774495 246.04 
L 388.774495 44.812619 
L 385.331198 44.812619 
z
" clip-path="url(#p6a712246f4)" style="fill: #ff7f0e; opacity: 0.5"/>
   </g>
   <g id="patch_42">
    <path d="M 388.774495 246.04 
L 392.217802 246.04 
L 392.217802 46.693775 
L 388.774495 46.693775 
z
" clip-path="url(#p6a712246f4)" style="fill: #ff7f0e; opacity: 0.5"/>
   </g>
   <g id="patch_43">
    <path d="M 392.217802 246.04 
L 395.661099 246.04 
L 395.661099 93.082115 
L 392.217802 93.082115 
z
" clip-path="url(#p6a712246f4)" style="fill: #ff7f0e; opacity: 0.5"/>
   </g>
   <g id="patch_44">
    <path d="M 395.661099 246.04 
L 399.104397 246.04 
L 399.104397 98.724005 
L 395.661099 98.724005 
z
" clip-path="url(#p6a712246f4)" style="fill: #ff7f0e; opacity: 0.5"/>
   </g>
   <g id="patch_45">
    <path d="M 399.104397 246.04 
L 402.547703 246.04 
L 402.547703 140.098138 
L 399.104397 140.098138 
z
" clip-path="url(#p6a712246f4)" style="fill: #ff7f0e; opacity: 0.5"/>
   </g>
   <g id="patch_46">
    <path d="M 402.547703 246.04 
L 405.991 246.04 
L 405.991 167.053551 
L 402.547703 167.053551 
z
" clip-path="url(#p6a712246f4)" style="fill: #ff7f0e; opacity: 0.5"/>
   </g>
   <g id="patch_47">
    <path d="M 405.991 246.04 
L 409.434298 246.04 
L 409.434298 190.874861 
L 405.991 190.874861 
z
" clip-path="url(#p6a712246f4)" style="fill: #ff7f0e; opacity: 0.5"/>
   </g>
   <g id="patch_48">
    <path d="M 409.434298 246.04 
L 412.877604 246.04 
L 412.877604 202.78563 
L 409.434298 202.78563 
z
" clip-path="url(#p6a712246f4)" style="fill: #ff7f0e; opacity: 0.5"/>
   </g>
   <g id="patch_49">
    <path d="M 412.877604 246.04 
L 416.320902 246.04 
L 416.320902 217.830554 
L 412.877604 217.830554 
z
" clip-path="url(#p6a712246f4)" style="fill: #ff7f0e; opacity: 0.5"/>
   </g>
   <g id="patch_50">
    <path d="M 416.320902 246.04 
L 419.764208 246.04 
L 419.764208 232.248752 
L 416.320902 232.248752 
z
" clip-path="url(#p6a712246f4)" style="fill: #ff7f0e; opacity: 0.5"/>
   </g>
   <g id="patch_51">
    <path d="M 419.764208 246.04 
L 423.207506 246.04 
L 423.207506 232.248715 
L 419.764208 232.248715 
z
" clip-path="url(#p6a712246f4)" style="fill: #ff7f0e; opacity: 0.5"/>
   </g>
   <g id="patch_52">
    <path d="M 423.207506 246.04 
L 426.650803 246.04 
L 426.650803 242.905617 
L 423.207506 242.905617 
z
" clip-path="url(#p6a712246f4)" style="fill: #ff7f0e; opacity: 0.5"/>
   </g>
   <g id="patch_53">
    <path d="M 426.650803 246.04 
L 430.09411 246.04 
L 430.09411 244.159375 
L 426.650803 244.159375 
z
" clip-path="url(#p6a712246f4)" style="fill: #ff7f0e; opacity: 0.5"/>
   </g>
   <g id="patch_54">
    <path d="M 430.09411 246.04 
L 433.537407 246.04 
L 433.537407 243.532494 
L 430.09411 243.532494 
z
" clip-path="url(#p6a712246f4)" style="fill: #ff7f0e; opacity: 0.5"/>
   </g>
   <g id="patch_55">
    <path d="M 433.537407 246.04 
L 436.980705 246.04 
L 436.980705 244.786247 
L 433.537407 244.786247 
z
" clip-path="url(#p6a712246f4)" style="fill: #ff7f0e; opacity: 0.5"/>
   </g>
   <g id="patch_56">
    <path d="M 436.980705 246.04 
L 440.424011 246.04 
L 440.424011 244.78625 
L 436.980705 244.78625 
z
" clip-path="url(#p6a712246f4)" style="fill: #ff7f0e; opacity: 0.5"/>
   </g>
   <g id="patch_57">
    <path d="M 440.424011 246.04 
L 443.867309 246.04 
L 443.867309 246.04 
L 440.424011 246.04 
z
" clip-path="url(#p6a712246f4)" style="fill: #ff7f0e; opacity: 0.5"/>
   </g>
   <g id="patch_58">
    <path d="M 443.867309 246.04 
L 447.310606 246.04 
L 447.310606 245.413123 
L 443.867309 245.413123 
z
" clip-path="url(#p6a712246f4)" style="fill: #ff7f0e; opacity: 0.5"/>
   </g>
   <g id="matplotlib.axis_3">
    <g id="xtick_7">
     <g id="line2d_15">
      <g>
       <use xlink:href="#mc60e3e2fee" x="380.372127" y="246.04" style="stroke: #000000; stroke-width: 0.8"/>
      </g>
     </g>
     <g id="text_15">
      <!-- 5 -->
      <g transform="translate(377.190877 260.638438) scale(0.1 -0.1)">
       <use xlink:href="#DejaVuSans-35"/>
      </g>
     </g>
    </g>
    <g id="xtick_8">
     <g id="line2d_16">
      <g>
       <use xlink:href="#mc60e3e2fee" x="427.993273" y="246.04" style="stroke: #000000; stroke-width: 0.8"/>
      </g>
     </g>
     <g id="text_16">
      <!-- 10 -->
      <g transform="translate(421.630773 260.638438) scale(0.1 -0.1)">
       <use xlink:href="#DejaVuSans-31"/>
       <use xlink:href="#DejaVuSans-30" transform="translate(63.623047 0)"/>
      </g>
     </g>
    </g>
    <g id="xtick_9">
     <g id="line2d_17">
      <g>
       <use xlink:href="#mc60e3e2fee" x="475.614418" y="246.04" style="stroke: #000000; stroke-width: 0.8"/>
      </g>
     </g>
     <g id="text_17">
      <!-- 15 -->
      <g transform="translate(469.251918 260.638438) scale(0.1 -0.1)">
       <use xlink:href="#DejaVuSans-31"/>
       <use xlink:href="#DejaVuSans-35" transform="translate(63.623047 0)"/>
      </g>
     </g>
    </g>
    <g id="xtick_10">
     <g id="line2d_18">
      <g>
       <use xlink:href="#mc60e3e2fee" x="523.235564" y="246.04" style="stroke: #000000; stroke-width: 0.8"/>
      </g>
     </g>
     <g id="text_18">
      <!-- 20 -->
      <g transform="translate(516.873064 260.638438) scale(0.1 -0.1)">
       <use xlink:href="#DejaVuSans-32"/>
       <use xlink:href="#DejaVuSans-30" transform="translate(63.623047 0)"/>
      </g>
     </g>
    </g>
    <g id="text_19">
     <!-- Scores -->
     <g transform="translate(433.588046 274.316562) scale(0.1 -0.1)">
      <use xlink:href="#DejaVuSans-53"/>
      <use xlink:href="#DejaVuSans-63" transform="translate(63.476562 0)"/>
      <use xlink:href="#DejaVuSans-6f" transform="translate(118.457031 0)"/>
      <use xlink:href="#DejaVuSans-72" transform="translate(179.638672 0)"/>
      <use xlink:href="#DejaVuSans-65" transform="translate(218.501953 0)"/>
      <use xlink:href="#DejaVuSans-73" transform="translate(280.025391 0)"/>
     </g>
    </g>
   </g>
   <g id="matplotlib.axis_4">
    <g id="ytick_5">
     <g id="line2d_19">
      <g>
       <use xlink:href="#me343042716" x="335.190154" y="246.04" style="stroke: #000000; stroke-width: 0.8"/>
      </g>
     </g>
     <g id="text_20">
      <!-- 0.00 -->
      <g transform="translate(305.924529 249.839219) scale(0.1 -0.1)">
       <defs>
        <path id="DejaVuSans-2e" d="M 684 794 
L 1344 794 
L 1344 0 
L 684 0 
L 684 794 
z
" transform="scale(0.015625)"/>
       </defs>
       <use xlink:href="#DejaVuSans-30"/>
       <use xlink:href="#DejaVuSans-2e" transform="translate(63.623047 0)"/>
       <use xlink:href="#DejaVuSans-30" transform="translate(95.410156 0)"/>
       <use xlink:href="#DejaVuSans-30" transform="translate(159.033203 0)"/>
      </g>
     </g>
    </g>
    <g id="ytick_6">
     <g id="line2d_20">
      <g>
       <use xlink:href="#me343042716" x="335.190154" y="217.71064" style="stroke: #000000; stroke-width: 0.8"/>
      </g>
     </g>
     <g id="text_21">
      <!-- 0.05 -->
      <g transform="translate(305.924529 221.509859) scale(0.1 -0.1)">
       <use xlink:href="#DejaVuSans-30"/>
       <use xlink:href="#DejaVuSans-2e" transform="translate(63.623047 0)"/>
       <use xlink:href="#DejaVuSans-30" transform="translate(95.410156 0)"/>
       <use xlink:href="#DejaVuSans-35" transform="translate(159.033203 0)"/>
      </g>
     </g>
    </g>
    <g id="ytick_7">
     <g id="line2d_21">
      <g>
       <use xlink:href="#me343042716" x="335.190154" y="189.38128" style="stroke: #000000; stroke-width: 0.8"/>
      </g>
     </g>
     <g id="text_22">
      <!-- 0.10 -->
      <g transform="translate(305.924529 193.180499) scale(0.1 -0.1)">
       <use xlink:href="#DejaVuSans-30"/>
       <use xlink:href="#DejaVuSans-2e" transform="translate(63.623047 0)"/>
       <use xlink:href="#DejaVuSans-31" transform="translate(95.410156 0)"/>
       <use xlink:href="#DejaVuSans-30" transform="translate(159.033203 0)"/>
      </g>
     </g>
    </g>
    <g id="ytick_8">
     <g id="line2d_22">
      <g>
       <use xlink:href="#me343042716" x="335.190154" y="161.05192" style="stroke: #000000; stroke-width: 0.8"/>
      </g>
     </g>
     <g id="text_23">
      <!-- 0.15 -->
      <g transform="translate(305.924529 164.851139) scale(0.1 -0.1)">
       <use xlink:href="#DejaVuSans-30"/>
       <use xlink:href="#DejaVuSans-2e" transform="translate(63.623047 0)"/>
       <use xlink:href="#DejaVuSans-31" transform="translate(95.410156 0)"/>
       <use xlink:href="#DejaVuSans-35" transform="translate(159.033203 0)"/>
      </g>
     </g>
    </g>
    <g id="ytick_9">
     <g id="line2d_23">
      <g>
       <use xlink:href="#me343042716" x="335.190154" y="132.72256" style="stroke: #000000; stroke-width: 0.8"/>
      </g>
     </g>
     <g id="text_24">
      <!-- 0.20 -->
      <g transform="translate(305.924529 136.521779) scale(0.1 -0.1)">
       <use xlink:href="#DejaVuSans-30"/>
       <use xlink:href="#DejaVuSans-2e" transform="translate(63.623047 0)"/>
       <use xlink:href="#DejaVuSans-32" transform="translate(95.410156 0)"/>
       <use xlink:href="#DejaVuSans-30" transform="translate(159.033203 0)"/>
      </g>
     </g>
    </g>
    <g id="ytick_10">
     <g id="line2d_24">
      <g>
       <use xlink:href="#me343042716" x="335.190154" y="104.393201" style="stroke: #000000; stroke-width: 0.8"/>
      </g>
     </g>
     <g id="text_25">
      <!-- 0.25 -->
      <g transform="translate(305.924529 108.192419) scale(0.1 -0.1)">
       <use xlink:href="#DejaVuSans-30"/>
       <use xlink:href="#DejaVuSans-2e" transform="translate(63.623047 0)"/>
       <use xlink:href="#DejaVuSans-32" transform="translate(95.410156 0)"/>
       <use xlink:href="#DejaVuSans-35" transform="translate(159.033203 0)"/>
      </g>
     </g>
    </g>
    <g id="ytick_11">
     <g id="line2d_25">
      <g>
       <use xlink:href="#me343042716" x="335.190154" y="76.063841" style="stroke: #000000; stroke-width: 0.8"/>
      </g>
     </g>
     <g id="text_26">
      <!-- 0.30 -->
      <g transform="translate(305.924529 79.863059) scale(0.1 -0.1)">
       <defs>
        <path id="DejaVuSans-33" d="M 2597 2516 
Q 3050 2419 3304 2112 
Q 3559 1806 3559 1356 
Q 3559 666 3084 287 
Q 2609 -91 1734 -91 
Q 1441 -91 1130 -33 
Q 819 25 488 141 
L 488 750 
Q 750 597 1062 519 
Q 1375 441 1716 441 
Q 2309 441 2620 675 
Q 2931 909 2931 1356 
Q 2931 1769 2642 2001 
Q 2353 2234 1838 2234 
L 1294 2234 
L 1294 2753 
L 1863 2753 
Q 2328 2753 2575 2939 
Q 2822 3125 2822 3475 
Q 2822 3834 2567 4026 
Q 2313 4219 1838 4219 
Q 1578 4219 1281 4162 
Q 984 4106 628 3988 
L 628 4550 
Q 988 4650 1302 4700 
Q 1616 4750 1894 4750 
Q 2613 4750 3031 4423 
Q 3450 4097 3450 3541 
Q 3450 3153 3228 2886 
Q 3006 2619 2597 2516 
z
" transform="scale(0.015625)"/>
       </defs>
       <use xlink:href="#DejaVuSans-30"/>
       <use xlink:href="#DejaVuSans-2e" transform="translate(63.623047 0)"/>
       <use xlink:href="#DejaVuSans-33" transform="translate(95.410156 0)"/>
       <use xlink:href="#DejaVuSans-30" transform="translate(159.033203 0)"/>
      </g>
     </g>
    </g>
    <g id="ytick_12">
     <g id="line2d_26">
      <g>
       <use xlink:href="#me343042716" x="335.190154" y="47.734481" style="stroke: #000000; stroke-width: 0.8"/>
      </g>
     </g>
     <g id="text_27">
      <!-- 0.35 -->
      <g transform="translate(305.924529 51.5337) scale(0.1 -0.1)">
       <use xlink:href="#DejaVuSans-30"/>
       <use xlink:href="#DejaVuSans-2e" transform="translate(63.623047 0)"/>
       <use xlink:href="#DejaVuSans-33" transform="translate(95.410156 0)"/>
       <use xlink:href="#DejaVuSans-35" transform="translate(159.033203 0)"/>
      </g>
     </g>
    </g>
    <g id="text_28">
     <!-- Density -->
     <g transform="translate(299.844841 159.404219) rotate(-90) scale(0.1 -0.1)">
      <defs>
       <path id="DejaVuSans-6e" d="M 3513 2113 
L 3513 0 
L 2938 0 
L 2938 2094 
Q 2938 2591 2744 2837 
Q 2550 3084 2163 3084 
Q 1697 3084 1428 2787 
Q 1159 2491 1159 1978 
L 1159 0 
L 581 0 
L 581 3500 
L 1159 3500 
L 1159 2956 
Q 1366 3272 1645 3428 
Q 1925 3584 2291 3584 
Q 2894 3584 3203 3211 
Q 3513 2838 3513 2113 
z
" transform="scale(0.015625)"/>
       <path id="DejaVuSans-69" d="M 603 3500 
L 1178 3500 
L 1178 0 
L 603 0 
L 603 3500 
z
M 603 4863 
L 1178 4863 
L 1178 4134 
L 603 4134 
L 603 4863 
z
" transform="scale(0.015625)"/>
       <path id="DejaVuSans-74" d="M 1172 4494 
L 1172 3500 
L 2356 3500 
L 2356 3053 
L 1172 3053 
L 1172 1153 
Q 1172 725 1289 603 
Q 1406 481 1766 481 
L 2356 481 
L 2356 0 
L 1766 0 
Q 1100 0 847 248 
Q 594 497 594 1153 
L 594 3053 
L 172 3053 
L 172 3500 
L 594 3500 
L 594 4494 
L 1172 4494 
z
" transform="scale(0.015625)"/>
       <path id="DejaVuSans-79" d="M 2059 -325 
Q 1816 -950 1584 -1140 
Q 1353 -1331 966 -1331 
L 506 -1331 
L 506 -850 
L 844 -850 
Q 1081 -850 1212 -737 
Q 1344 -625 1503 -206 
L 1606 56 
L 191 3500 
L 800 3500 
L 1894 763 
L 2988 3500 
L 3597 3500 
L 2059 -325 
z
" transform="scale(0.015625)"/>
      </defs>
      <use xlink:href="#DejaVuSans-44"/>
      <use xlink:href="#DejaVuSans-65" transform="translate(77.001953 0)"/>
      <use xlink:href="#DejaVuSans-6e" transform="translate(138.525391 0)"/>
      <use xlink:href="#DejaVuSans-73" transform="translate(201.904297 0)"/>
      <use xlink:href="#DejaVuSans-69" transform="translate(254.003906 0)"/>
      <use xlink:href="#DejaVuSans-74" transform="translate(281.787109 0)"/>
      <use xlink:href="#DejaVuSans-79" transform="translate(320.996094 0)"/>
     </g>
    </g>
   </g>
   <g id="patch_59">
    <path d="M 335.190154 246.04 
L 335.190154 34.75125 
" style="fill: none; stroke: #000000; stroke-width: 0.8; stroke-linejoin: miter; stroke-linecap: square"/>
   </g>
   <g id="patch_60">
    <path d="M 565.2 246.04 
L 565.2 34.75125 
" style="fill: none; stroke: #000000; stroke-width: 0.8; stroke-linejoin: miter; stroke-linecap: square"/>
   </g>
   <g id="patch_61">
    <path d="M 335.190154 246.04 
L 565.2 246.04 
" style="fill: none; stroke: #000000; stroke-width: 0.8; stroke-linejoin: miter; stroke-linecap: square"/>
   </g>
   <g id="patch_62">
    <path d="M 335.190154 34.75125 
L 565.2 34.75125 
" style="fill: none; stroke: #000000; stroke-width: 0.8; stroke-linejoin: miter; stroke-linecap: square"/>
   </g>
   <g id="legend_2">
    <g id="patch_63">
     <path d="M 458.010937 72.1075 
L 558.2 72.1075 
Q 560.2 72.1075 560.2 70.1075 
L 560.2 41.75125 
Q 560.2 39.75125 558.2 39.75125 
L 458.010937 39.75125 
Q 456.010937 39.75125 456.010937 41.75125 
L 456.010937 70.1075 
Q 456.010937 72.1075 458.010937 72.1075 
z
" style="fill: #ffffff; opacity: 0.8; stroke: #cccccc; stroke-linejoin: miter"/>
    </g>
    <g id="patch_64">
     <path d="M 460.010937 51.349687 
L 480.010937 51.349687 
L 480.010937 44.349687 
L 460.010937 44.349687 
z
" style="fill: #1f77b4; opacity: 0.5"/>
    </g>
    <g id="text_29">
     <!-- ID samples -->
     <g transform="translate(488.010937 51.349687) scale(0.1 -0.1)">
      <use xlink:href="#DejaVuSans-49"/>
      <use xlink:href="#DejaVuSans-44" transform="translate(29.492188 0)"/>
      <use xlink:href="#DejaVuSans-20" transform="translate(106.494141 0)"/>
      <use xlink:href="#DejaVuSans-73" transform="translate(138.28125 0)"/>
      <use xlink:href="#DejaVuSans-61" transform="translate(190.380859 0)"/>
      <use xlink:href="#DejaVuSans-6d" transform="translate(251.660156 0)"/>
      <use xlink:href="#DejaVuSans-70" transform="translate(349.072266 0)"/>
      <use xlink:href="#DejaVuSans-6c" transform="translate(412.548828 0)"/>
      <use xlink:href="#DejaVuSans-65" transform="translate(440.332031 0)"/>
      <use xlink:href="#DejaVuSans-73" transform="translate(501.855469 0)"/>
     </g>
    </g>
    <g id="patch_65">
     <path d="M 460.010937 66.027812 
L 480.010937 66.027812 
L 480.010937 59.027812 
L 460.010937 59.027812 
z
" style="fill: #ff7f0e; opacity: 0.5"/>
    </g>
    <g id="text_30">
     <!-- OOD samples -->
     <g transform="translate(488.010937 66.027812) scale(0.1 -0.1)">
      <use xlink:href="#DejaVuSans-4f"/>
      <use xlink:href="#DejaVuSans-4f" transform="translate(78.710938 0)"/>
      <use xlink:href="#DejaVuSans-44" transform="translate(157.421875 0)"/>
      <use xlink:href="#DejaVuSans-20" transform="translate(234.423828 0)"/>
      <use xlink:href="#DejaVuSans-73" transform="translate(266.210938 0)"/>
      <use xlink:href="#DejaVuSans-61" transform="translate(318.310547 0)"/>
      <use xlink:href="#DejaVuSans-6d" transform="translate(379.589844 0)"/>
      <use xlink:href="#DejaVuSans-70" transform="translate(477.001953 0)"/>
      <use xlink:href="#DejaVuSans-6c" transform="translate(540.478516 0)"/>
      <use xlink:href="#DejaVuSans-65" transform="translate(568.261719 0)"/>
      <use xlink:href="#DejaVuSans-73" transform="translate(629.785156 0)"/>
     </g>
    </g>
   </g>
  </g>
  <g id="text_31">
   <!-- Scores using max_logit -->
   <g transform="translate(218.8125 14.878125) scale(0.12 -0.12)">
    <defs>
     <path id="DejaVuSans-75" d="M 544 1381 
L 544 3500 
L 1119 3500 
L 1119 1403 
Q 1119 906 1312 657 
Q 1506 409 1894 409 
Q 2359 409 2629 706 
Q 2900 1003 2900 1516 
L 2900 3500 
L 3475 3500 
L 3475 0 
L 2900 0 
L 2900 538 
Q 2691 219 2414 64 
Q 2138 -91 1772 -91 
Q 1169 -91 856 284 
Q 544 659 544 1381 
z
M 1991 3584 
L 1991 3584 
z
" transform="scale(0.015625)"/>
     <path id="DejaVuSans-67" d="M 2906 1791 
Q 2906 2416 2648 2759 
Q 2391 3103 1925 3103 
Q 1463 3103 1205 2759 
Q 947 2416 947 1791 
Q 947 1169 1205 825 
Q 1463 481 1925 481 
Q 2391 481 2648 825 
Q 2906 1169 2906 1791 
z
M 3481 434 
Q 3481 -459 3084 -895 
Q 2688 -1331 1869 -1331 
Q 1566 -1331 1297 -1286 
Q 1028 -1241 775 -1147 
L 775 -588 
Q 1028 -725 1275 -790 
Q 1522 -856 1778 -856 
Q 2344 -856 2625 -561 
Q 2906 -266 2906 331 
L 2906 616 
Q 2728 306 2450 153 
Q 2172 0 1784 0 
Q 1141 0 747 490 
Q 353 981 353 1791 
Q 353 2603 747 3093 
Q 1141 3584 1784 3584 
Q 2172 3584 2450 3431 
Q 2728 3278 2906 2969 
L 2906 3500 
L 3481 3500 
L 3481 434 
z
" transform="scale(0.015625)"/>
     <path id="DejaVuSans-78" d="M 3513 3500 
L 2247 1797 
L 3578 0 
L 2900 0 
L 1881 1375 
L 863 0 
L 184 0 
L 1544 1831 
L 300 3500 
L 978 3500 
L 1906 2253 
L 2834 3500 
L 3513 3500 
z
" transform="scale(0.015625)"/>
     <path id="DejaVuSans-5f" d="M 3263 -1063 
L 3263 -1509 
L -63 -1509 
L -63 -1063 
L 3263 -1063 
z
" transform="scale(0.015625)"/>
    </defs>
    <use xlink:href="#DejaVuSans-53"/>
    <use xlink:href="#DejaVuSans-63" transform="translate(63.476562 0)"/>
    <use xlink:href="#DejaVuSans-6f" transform="translate(118.457031 0)"/>
    <use xlink:href="#DejaVuSans-72" transform="translate(179.638672 0)"/>
    <use xlink:href="#DejaVuSans-65" transform="translate(218.501953 0)"/>
    <use xlink:href="#DejaVuSans-73" transform="translate(280.025391 0)"/>
    <use xlink:href="#DejaVuSans-20" transform="translate(332.125 0)"/>
    <use xlink:href="#DejaVuSans-75" transform="translate(363.912109 0)"/>
    <use xlink:href="#DejaVuSans-73" transform="translate(427.291016 0)"/>
    <use xlink:href="#DejaVuSans-69" transform="translate(479.390625 0)"/>
    <use xlink:href="#DejaVuSans-6e" transform="translate(507.173828 0)"/>
    <use xlink:href="#DejaVuSans-67" transform="translate(570.552734 0)"/>
    <use xlink:href="#DejaVuSans-20" transform="translate(634.029297 0)"/>
    <use xlink:href="#DejaVuSans-6d" transform="translate(665.816406 0)"/>
    <use xlink:href="#DejaVuSans-61" transform="translate(763.228516 0)"/>
    <use xlink:href="#DejaVuSans-78" transform="translate(824.507812 0)"/>
    <use xlink:href="#DejaVuSans-5f" transform="translate(883.6875 0)"/>
    <use xlink:href="#DejaVuSans-6c" transform="translate(933.6875 0)"/>
    <use xlink:href="#DejaVuSans-6f" transform="translate(961.470703 0)"/>
    <use xlink:href="#DejaVuSans-67" transform="translate(1022.652344 0)"/>
    <use xlink:href="#DejaVuSans-69" transform="translate(1086.128906 0)"/>
    <use xlink:href="#DejaVuSans-74" transform="translate(1113.912109 0)"/>
   </g>
  </g>
 </g>
 <defs>
  <clipPath id="p1e01792648">
   <rect x="44.57" y="34.75125" width="230.009846" height="211.28875"/>
  </clipPath>
  <clipPath id="p6a712246f4">
   <rect x="335.190154" y="34.75125" width="230.009846" height="211.28875"/>
  </clipPath>
 </defs>
</svg>
