<svg class="main-svg" xmlns="http://www.w3.org/2000/svg" xmlns:xlink="http://www.w3.org/1999/xlink" width="1200" height="600" style="" viewBox="0 0 1200 600"><rect x="0" y="0" width="1200" height="600" style="fill: rgb(255, 255, 255); fill-opacity: 1;"/><defs id="defs-ee1e9e"><g class="clips"><clipPath id="clipee1e9exyplot" class="plotclip"><rect width="926" height="519"/></clipPath><clipPath class="axesclip" id="clipee1e9ex"><rect x="68" y="0" width="926" height="600"/></clipPath><clipPath class="axesclip" id="clipee1e9ey"><rect x="0" y="16" width="1200" height="519"/></clipPath><clipPath class="axesclip" id="clipee1e9exy"><rect x="68" y="16" width="926" height="519"/></clipPath></g><g class="gradients"/><g class="patterns"/></defs><g class="bglayer"/><g class="layer-below"><g class="imagelayer"/><g class="shapelayer"/></g><g class="cartesianlayer"><g class="subplot xy"><g class="layer-subplot"><g class="shapelayer"/><g class="imagelayer"/></g><g class="minor-gridlayer"><g class="x"/><g class="y"/></g><g class="gridlayer"><g class="x"><path class="xgrid crisp" transform="translate(298.71000000000004,0)" d="M0,16v519" style="stroke: rgb(238, 238, 238); stroke-opacity: 1; stroke-width: 1px;"/><path class="xgrid crisp" transform="translate(529.4200000000001,0)" d="M0,16v519" style="stroke: rgb(238, 238, 238); stroke-opacity: 1; stroke-width: 1px;"/><path class="xgrid crisp" transform="translate(760.13,0)" d="M0,16v519" style="stroke: rgb(238, 238, 238); stroke-opacity: 1; stroke-width: 1px;"/><path class="xgrid crisp" transform="translate(990.84,0)" d="M0,16v519" style="stroke: rgb(238, 238, 238); stroke-opacity: 1; stroke-width: 1px;"/></g><g class="y"><path class="ygrid crisp" transform="translate(0,494.25)" d="M68,0h926" style="stroke: rgb(238, 238, 238); stroke-opacity: 1; stroke-width: 1px;"/><path class="ygrid crisp" transform="translate(0,387.13)" d="M68,0h926" style="stroke: rgb(238, 238, 238); stroke-opacity: 1; stroke-width: 1px;"/><path class="ygrid crisp" transform="translate(0,280)" d="M68,0h926" style="stroke: rgb(238, 238, 238); stroke-opacity: 1; stroke-width: 1px;"/><path class="ygrid crisp" transform="translate(0,172.88)" d="M68,0h926" style="stroke: rgb(238, 238, 238); stroke-opacity: 1; stroke-width: 1px;"/><path class="ygrid crisp" transform="translate(0,65.75)" d="M68,0h926" style="stroke: rgb(238, 238, 238); stroke-opacity: 1; stroke-width: 1px;"/></g></g><g class="zerolinelayer"><path class="xzl zl crisp" transform="translate(68,0)" d="M0,16v519" style="stroke: rgb(238, 238, 238); stroke-opacity: 1; stroke-width: 1px;"/></g><g class="layer-between"><g class="shapelayer"/><g class="imagelayer"/></g><path class="xlines-below"/><path class="ylines-below"/><g class="overlines-below"/><g class="xaxislayer-below"/><g class="yaxislayer-below"/><g class="overaxes-below"/><g class="plot" transform="translate(68,16)"><g class="scatterlayer mlayer"><g class="trace scatter traceba16230" style="stroke-miterlimit: 2; opacity: 1;"><g class="fills" clip-path="url(#clipee1e9exyplot)"/><g class="errorbars"/><g class="lines"><path class="js-line" style="vector-effect: none; fill: none; stroke: rgb(46, 100, 151); stroke-opacity: 1; stroke-width: 1.5px; opacity: 1;" d="M0,48.49L27.69,161.51L46.14,190.06L92.28,225.83L110.74,272.29L133.81,282.37L138.43,255.63L143.04,286.55L179.95,327.54L184.57,350.42L203.03,330.74L230.71,341.9L235.32,337.8L258.4,359.64L276.85,385.51L281.47,363.06L322.99,331.27L369.14,389.56L382.98,391.48L401.44,392.59L415.28,365.35L429.12,408.1L438.35,408.73L461.42,419.16L470.65,411.87L507.56,414.55L539.86,425.97L553.71,415.28L558.32,426.17L562.93,425.68L590.62,443.13L599.85,447.45L609.08,437.23L627.53,438.68L636.76,438.4L645.99,445.28L692.13,422.42L724.43,447.59L738.27,437.43L756.73,450.87L761.34,452.6L775.19,454.88L784.42,462.55L825.94,454.95L830.56,446.04L876.7,475.37" clip-path="url(#clipee1e9exyplot)"/></g><g class="points" clip-path="url(#clipee1e9exyplot)"/><g class="text" clip-path="url(#clipee1e9exyplot)"/></g><g class="trace scatter tracead21b60" style="stroke-miterlimit: 2; opacity: 1;"><g class="fills" clip-path="url(#clipee1e9exyplot)"/><g class="errorbars"/><g class="lines"><path class="js-line" style="vector-effect: none; fill: none; stroke: rgb(191, 57, 158); stroke-opacity: 1; stroke-width: 1.5px; opacity: 1;" d="M0,25.95L4.61,105.4L27.69,170.27L46.14,183L92.28,249.39L110.74,285.43L133.81,294.92L138.43,275.37L143.04,298.47L179.95,334.65L184.57,349.18L203.03,337.7L230.71,340.54L235.32,343.64L258.4,367.06L276.85,385.96L281.47,368.28L322.99,353.85L369.14,392.69L401.44,394.92L415.28,379.98L429.12,409.61L438.35,409.29L461.42,423.03L470.65,413.42L479.88,413.89L507.56,406.54L539.86,425.46L553.71,414.84L558.32,425.42L562.93,424.56L590.62,437.17L599.85,449.89L609.08,432.73L627.53,435.52L636.76,435.56L645.99,443.23L692.13,420.31L724.43,443.13L738.27,428.35L756.73,448.33L775.19,449.45L784.42,465.93L825.94,450.58L830.56,442.92L876.7,490.05" clip-path="url(#clipee1e9exyplot)"/></g><g class="points" clip-path="url(#clipee1e9exyplot)"/><g class="text" clip-path="url(#clipee1e9exyplot)"/></g><g class="trace scatter traceb6a5480" style="stroke-miterlimit: 2; opacity: 1;"><g class="fills" clip-path="url(#clipee1e9exyplot)"/><g class="errorbars"/><g class="lines"><path class="js-line" style="vector-effect: none; fill: none; stroke: rgb(46, 100, 151); stroke-opacity: 1; stroke-width: 1.5px; opacity: 1;" d="M0,92.66L27.69,128.91L46.14,149.71L92.28,175.19L110.74,197.39L133.81,201.48L138.43,193.53L143.04,203.01L179.95,221.89L184.57,254.43L203.03,224.29L230.71,216.62L235.32,225.82L258.4,239.03L276.85,230.13L281.47,238.03L322.99,217.35L369.14,253.95L382.98,255.39L401.44,257.8L415.28,257.6L429.12,266.57L438.35,267.78L461.42,288.87L470.65,272.97L479.88,273.69L507.56,291.77L539.86,287.66L553.71,298.19L558.32,289.38L562.93,289.03L590.62,302.83L599.85,315.82L609.08,298.23L627.53,300.67L636.76,301.05L645.99,325.59L692.13,259.03L724.43,313.05L738.27,298.3L756.73,316.18L761.34,319.68L775.19,321.04L784.42,317.21L825.94,322.99L830.56,294.43L876.7,385.94" clip-path="url(#clipee1e9exyplot)"/></g><g class="points" clip-path="url(#clipee1e9exyplot)"/><g class="text" clip-path="url(#clipee1e9exyplot)"/></g><g class="trace scatter trace197a9b0" style="stroke-miterlimit: 2; opacity: 1;"><g class="fills" clip-path="url(#clipee1e9exyplot)"/><g class="errorbars"/><g class="lines"><path class="js-line" style="vector-effect: none; fill: none; stroke: rgb(191, 57, 158); stroke-opacity: 1; stroke-width: 1.5px; opacity: 1;" d="M0,85.15L4.61,103.13L27.69,154.26L46.14,177.76L92.28,202.7L110.74,218.54L133.81,224.1L138.43,232.69L179.95,252.91L184.57,284.59L203.03,255.73L230.71,253.37L235.32,261.03L258.4,282.32L276.85,297.25L281.47,286.49L322.99,258.57L369.14,310.2L382.98,311.17L401.44,311.97L415.28,293.56L429.12,320.83L438.35,324.56L461.42,342.06L470.65,328.43L479.88,329.38L507.56,327.1L539.86,344.72L553.71,362.24L558.32,345.79L562.93,345.62L590.62,356.91L599.85,372.49L609.08,356.07L627.53,358.87L636.76,358.65L645.99,385.93L692.13,336.34L724.43,368.79L738.27,358.78L756.73,372.39L761.34,373.04L775.19,376.96L784.42,395.59L825.94,378.83L830.56,340.73L876.7,442.16" clip-path="url(#clipee1e9exyplot)"/></g><g class="points" clip-path="url(#clipee1e9exyplot)"/><g class="text" clip-path="url(#clipee1e9exyplot)"/></g><g class="trace scatter trace8e35f40" style="stroke-miterlimit: 2; opacity: 1;"><g class="fills" clip-path="url(#clipee1e9exyplot)"/><g class="errorbars"/><g class="lines"><path class="js-line" style="vector-effect: none; fill: none; stroke: rgb(239, 104, 104); stroke-opacity: 1; stroke-width: 1.5px; opacity: 1;" d="M0,91.51L4.61,118.95L27.69,175.46L46.14,213.44L92.28,255.05L110.74,269.14L133.81,278.44L138.43,256.85L143.04,281.22L179.95,312.32L184.57,350.58L203.03,316.23L230.71,308.7L235.32,322.31L258.4,344.21L276.85,350.66L281.47,345.51L322.99,299.92L369.14,367.13L401.44,368.92L415.28,375.79L429.12,375.9L438.35,379.17L461.42,383.8L466.04,382.12L479.88,383.06L507.56,378.37L539.86,394.53L553.71,404.89L558.32,394.81L562.93,394.04L590.62,405.2L599.85,423.67L609.08,403.54L627.53,405.57L636.76,404.77L645.99,422.38L692.13,382.87L724.43,413.37L738.27,403L756.73,415.21L761.34,418.12L775.19,420.07L784.42,426.19L825.94,420.92L830.56,389.49L876.7,482.93" clip-path="url(#clipee1e9exyplot)"/></g><g class="points" clip-path="url(#clipee1e9exyplot)"/><g class="text" clip-path="url(#clipee1e9exyplot)"/></g><g class="trace scatter traceaff5980" style="stroke-miterlimit: 2; opacity: 1;"><g class="fills" clip-path="url(#clipee1e9exyplot)"/><g class="errorbars"/><g class="lines"><path class="js-line" style="vector-effect: none; fill: none; stroke: rgb(239, 104, 104); stroke-opacity: 1; stroke-width: 1.5px; opacity: 1;" d="M0,83.28L4.61,121.82L27.69,188.93L46.14,201.71L92.28,262.83L110.74,283.42L133.81,292.13L138.43,261.22L179.95,324.34L184.57,347.86L203.03,326.36L230.71,336.78L235.32,330.55L258.4,351.09L276.85,344.19L281.47,348.14L322.99,346.37L369.14,362.08L382.98,363.15L401.44,363.16L415.28,353.3L429.12,368.69L438.35,369.69L461.42,361.98L470.65,371.54L479.88,371.88L507.56,371.35L539.86,380.2L553.71,381.11L562.93,380.09L590.62,387.78L599.85,400.43L609.08,383.75L627.53,386.43L636.76,385.97L645.99,403.87L692.13,372.11L724.43,391.48L738.27,380.49L756.73,394.1L761.34,395.41L775.19,394.72L784.42,411.7L825.94,395.56L830.56,374.64L876.7,437.28" clip-path="url(#clipee1e9exyplot)"/></g><g class="points" clip-path="url(#clipee1e9exyplot)"/><g class="text" clip-path="url(#clipee1e9exyplot)"/></g><g class="trace scatter trace8e7e50" style="stroke-miterlimit: 2; opacity: 1;"><g class="fills" clip-path="url(#clipee1e9exyplot)"/><g class="errorbars"/><g class="lines"/><g class="points"><path class="point" transform="translate(876.7,475.37)" style="opacity: 1; stroke-width: 0px; fill: rgb(46, 100, 151); fill-opacity: 1;" d="M2,0A2,2 0 1,1 0,-2A2,2 0 0,1 2,0Z"/></g><g class="text"/></g><g class="trace scatter trace674c81" style="stroke-miterlimit: 2; opacity: 1;"><g class="fills" clip-path="url(#clipee1e9exyplot)"/><g class="errorbars"/><g class="lines"/><g class="points"><path class="point" transform="translate(876.7,490.05)" style="opacity: 1; stroke-width: 0px; fill: rgb(191, 57, 158); fill-opacity: 1;" d="M2,0A2,2 0 1,1 0,-2A2,2 0 0,1 2,0Z"/></g><g class="text"/></g><g class="trace scatter tracebdef3f" style="stroke-miterlimit: 2; opacity: 1;"><g class="fills" clip-path="url(#clipee1e9exyplot)"/><g class="errorbars"/><g class="lines"/><g class="points"><path class="point" transform="translate(876.7,385.94)" style="opacity: 1; stroke-width: 0px; fill: rgb(46, 100, 151); fill-opacity: 1;" d="M2,0A2,2 0 1,1 0,-2A2,2 0 0,1 2,0Z"/></g><g class="text"/></g><g class="trace scatter trace654e2a" style="stroke-miterlimit: 2; opacity: 1;"><g class="fills" clip-path="url(#clipee1e9exyplot)"/><g class="errorbars"/><g class="lines"/><g class="points"><path class="point" transform="translate(876.7,442.16)" style="opacity: 1; stroke-width: 0px; fill: rgb(191, 57, 158); fill-opacity: 1;" d="M2,0A2,2 0 1,1 0,-2A2,2 0 0,1 2,0Z"/></g><g class="text"/></g><g class="trace scatter trace80a607" style="stroke-miterlimit: 2; opacity: 1;"><g class="fills" clip-path="url(#clipee1e9exyplot)"/><g class="errorbars"/><g class="lines"/><g class="points"><path class="point" transform="translate(876.7,482.93)" style="opacity: 1; stroke-width: 0px; fill: rgb(239, 104, 104); fill-opacity: 1;" d="M2,0A2,2 0 1,1 0,-2A2,2 0 0,1 2,0Z"/></g><g class="text"/></g><g class="trace scatter trace1bcf04" style="stroke-miterlimit: 2; opacity: 1;"><g class="fills" clip-path="url(#clipee1e9exyplot)"/><g class="errorbars"/><g class="lines"/><g class="points"><path class="point" transform="translate(876.7,437.28)" style="opacity: 1; stroke-width: 0px; fill: rgb(239, 104, 104); fill-opacity: 1;" d="M2,0A2,2 0 1,1 0,-2A2,2 0 0,1 2,0Z"/></g><g class="text"/></g></g></g><g class="overplot"/><path class="xlines-above crisp" style="fill: none;" d="M0,0"/><path class="ylines-above crisp" style="fill: none;" d="M0,0"/><g class="overlines-above"/><g class="xaxislayer-above"><g class="xtick"><text text-anchor="middle" x="0" y="560" style="font-family: Roboto, sans-serif; font-size: 12px; fill: rgb(95, 103, 126); fill-opacity: 1; white-space: pre; opacity: 1;" transform="translate(68,0)">0</text></g><g class="xtick"><text text-anchor="middle" x="0" y="560" style="font-family: Roboto, sans-serif; font-size: 12px; fill: rgb(95, 103, 126); fill-opacity: 1; white-space: pre; opacity: 1;" transform="translate(298.71000000000004,0)">50</text></g><g class="xtick"><text text-anchor="middle" x="0" y="560" style="font-family: Roboto, sans-serif; font-size: 12px; fill: rgb(95, 103, 126); fill-opacity: 1; white-space: pre; opacity: 1;" transform="translate(529.4200000000001,0)">100</text></g><g class="xtick"><text text-anchor="middle" x="0" y="560" style="font-family: Roboto, sans-serif; font-size: 12px; fill: rgb(95, 103, 126); fill-opacity: 1; white-space: pre; opacity: 1;" transform="translate(760.13,0)">150</text></g><g class="xtick"><text text-anchor="middle" x="0" y="560" style="font-family: Roboto, sans-serif; font-size: 12px; fill: rgb(95, 103, 126); fill-opacity: 1; white-space: pre; opacity: 1;" transform="translate(990.84,0)">200</text></g></g><g class="yaxislayer-above"><g class="ytick"><text text-anchor="end" x="55" y="4.199999999999999" style="font-family: Roboto, sans-serif; font-size: 12px; fill: rgb(95, 103, 126); fill-opacity: 1; white-space: pre; opacity: 1;" transform="translate(0,494.25)">0.5</text></g><g class="ytick"><text text-anchor="end" x="55" y="4.199999999999999" style="font-family: Roboto, sans-serif; font-size: 12px; fill: rgb(95, 103, 126); fill-opacity: 1; white-space: pre; opacity: 1;" transform="translate(0,387.13)">1</text></g><g class="ytick"><text text-anchor="end" x="55" y="4.199999999999999" style="font-family: Roboto, sans-serif; font-size: 12px; fill: rgb(95, 103, 126); fill-opacity: 1; white-space: pre; opacity: 1;" transform="translate(0,280)">1.5</text></g><g class="ytick"><text text-anchor="end" x="55" y="4.199999999999999" style="font-family: Roboto, sans-serif; font-size: 12px; fill: rgb(95, 103, 126); fill-opacity: 1; white-space: pre; opacity: 1;" transform="translate(0,172.88)">2</text></g><g class="ytick"><text text-anchor="end" x="55" y="4.199999999999999" style="font-family: Roboto, sans-serif; font-size: 12px; fill: rgb(95, 103, 126); fill-opacity: 1; white-space: pre; opacity: 1;" transform="translate(0,65.75)">2.5</text></g></g><g class="overaxes-above"/></g></g><g class="polarlayer"/><g class="smithlayer"/><g class="ternarylayer"/><g class="geolayer"/><g class="funnelarealayer"/><g class="pielayer"/><g class="iciclelayer"/><g class="treemaplayer"/><g class="sunburstlayer"/><g class="glimages"/><defs id="topdefs-ee1e9e"><g class="clips"/><clipPath id="legendee1e9e"><rect width="175" height="124" x="0" y="0"/></clipPath></defs><g class="layer-above"><g class="imagelayer"/><g class="shapelayer"/></g><g class="infolayer"><g class="legend" pointer-events="all" transform="translate(1012.52,16)"><rect class="bg" shape-rendering="crispEdges" style="stroke: rgb(68, 68, 68); stroke-opacity: 1; fill: rgb(255, 255, 255); fill-opacity: 1; stroke-width: 0px;" width="175" height="124" x="0" y="0"/><g class="scrollbox" transform="" clip-path="url(#legendee1e9e)"><g class="groups" transform=""><g class="traces" style="opacity: 1;" transform="translate(0,14.5)"><text class="legendtext" text-anchor="start" style="font-family: TOBESTRIPPEDOpen SansTOBESTRIPPED, verdana, arial, sans-serif; font-size: 12px; fill: rgb(68, 68, 68); fill-opacity: 1; white-space: pre;" x="40" y="4.680000000000001">CNNskip0.16M_cifar10</text><g class="layers" style="opacity: 1;"><g class="legendfill"/><g class="legendlines"><path class="js-line" d="M5,0h30" style="fill: none; stroke: rgb(46, 100, 151); stroke-opacity: 1; stroke-width: 1.5px;"/></g><g class="legendsymbols"><g class="legendpoints"/></g></g><rect class="legendtoggle" style="fill: rgb(0, 0, 0); fill-opacity: 0;" x="0" y="-9.5" width="170" height="19"/></g><g class="traces" style="opacity: 1;" transform="translate(0,33.5)"><text class="legendtext" text-anchor="start" style="font-family: TOBESTRIPPEDOpen SansTOBESTRIPPED, verdana, arial, sans-serif; font-size: 12px; fill: rgb(68, 68, 68); fill-opacity: 1; white-space: pre;" x="40" y="4.680000000000001">CNNskip0.11M_cifar10</text><g class="layers" style="opacity: 1;"><g class="legendfill"/><g class="legendlines"><path class="js-line" d="M5,0h30" style="fill: none; stroke: rgb(191, 57, 158); stroke-opacity: 1; stroke-width: 1.5px;"/></g><g class="legendsymbols"><g class="legendpoints"/></g></g><rect class="legendtoggle" style="fill: rgb(0, 0, 0); fill-opacity: 0;" x="0" y="-9.5" width="170" height="19"/></g><g class="traces" style="opacity: 1;" transform="translate(0,52.5)"><text class="legendtext" text-anchor="start" style="font-family: TOBESTRIPPEDOpen SansTOBESTRIPPED, verdana, arial, sans-serif; font-size: 12px; fill: rgb(68, 68, 68); fill-opacity: 1; white-space: pre;" x="40" y="4.680000000000001">CNN0.16M_cifar10</text><g class="layers" style="opacity: 1;"><g class="legendfill"/><g class="legendlines"><path class="js-line" d="M5,0h30" style="fill: none; stroke: rgb(46, 100, 151); stroke-opacity: 1; stroke-width: 1.5px;"/></g><g class="legendsymbols"><g class="legendpoints"/></g></g><rect class="legendtoggle" style="fill: rgb(0, 0, 0); fill-opacity: 0;" x="0" y="-9.5" width="170" height="19"/></g><g class="traces" style="opacity: 1;" transform="translate(0,71.5)"><text class="legendtext" text-anchor="start" style="font-family: TOBESTRIPPEDOpen SansTOBESTRIPPED, verdana, arial, sans-serif; font-size: 12px; fill: rgb(68, 68, 68); fill-opacity: 1; white-space: pre;" x="40" y="4.680000000000001">CNN0.11M_cifar10</text><g class="layers" style="opacity: 1;"><g class="legendfill"/><g class="legendlines"><path class="js-line" d="M5,0h30" style="fill: none; stroke: rgb(191, 57, 158); stroke-opacity: 1; stroke-width: 1.5px;"/></g><g class="legendsymbols"><g class="legendpoints"/></g></g><rect class="legendtoggle" style="fill: rgb(0, 0, 0); fill-opacity: 0;" x="0" y="-9.5" width="170" height="19"/></g><g class="traces" style="opacity: 1;" transform="translate(0,90.5)"><text class="legendtext" text-anchor="start" style="font-family: TOBESTRIPPEDOpen SansTOBESTRIPPED, verdana, arial, sans-serif; font-size: 12px; fill: rgb(68, 68, 68); fill-opacity: 1; white-space: pre;" x="40" y="4.680000000000001">CNN0.07M_cifar10</text><g class="layers" style="opacity: 1;"><g class="legendfill"/><g class="legendlines"><path class="js-line" d="M5,0h30" style="fill: none; stroke: rgb(239, 104, 104); stroke-opacity: 1; stroke-width: 1.5px;"/></g><g class="legendsymbols"><g class="legendpoints"/></g></g><rect class="legendtoggle" style="fill: rgb(0, 0, 0); fill-opacity: 0;" x="0" y="-9.5" width="170" height="19"/></g><g class="traces" style="opacity: 1;" transform="translate(0,109.5)"><text class="legendtext" text-anchor="start" style="font-family: TOBESTRIPPEDOpen SansTOBESTRIPPED, verdana, arial, sans-serif; font-size: 12px; fill: rgb(68, 68, 68); fill-opacity: 1; white-space: pre;" x="40" y="4.680000000000001">CNN0.02M_cifar10</text><g class="layers" style="opacity: 1;"><g class="legendfill"/><g class="legendlines"><path class="js-line" d="M5,0h30" style="fill: none; stroke: rgb(239, 104, 104); stroke-opacity: 1; stroke-width: 1.5px;"/></g><g class="legendsymbols"><g class="legendpoints"/></g></g><rect class="legendtoggle" style="fill: rgb(0, 0, 0); fill-opacity: 0;" x="0" y="-9.5" width="170" height="19"/></g></g></g><rect class="scrollbar" rx="20" ry="3" width="0" height="0" style="fill: rgb(128, 139, 164); fill-opacity: 1;" x="0" y="0"/></g><g class="g-gtitle"/><g class="g-xtitle" transform="translate(0,1.1000000000000227)"><text class="xtitle" style="font-family: Roboto, sans-serif; font-size: 12px; fill: rgb(95, 103, 126); opacity: 1; font-weight: normal; white-space: pre;" x="531" y="575.9" text-anchor="middle">Step</text></g><g class="g-ytitle"><text class="ytitle" transform="rotate(-90,24.7337890625,275.5)" style="font-family: Roboto, sans-serif; font-size: 12px; fill: rgb(95, 103, 126); opacity: 1; font-weight: normal; white-space: pre;" x="24.7337890625" y="275.5" text-anchor="middle">Training loss</text></g></g></svg>