<?xml version="1.0" encoding="utf-8" standalone="no"?>
<!DOCTYPE svg PUBLIC "-//W3C//DTD SVG 1.1//EN"
  "http://www.w3.org/Graphics/SVG/1.1/DTD/svg11.dtd">
<svg xmlns:xlink="http://www.w3.org/1999/xlink" width="576pt" height="288pt" viewBox="0 0 576 288" xmlns="http://www.w3.org/2000/svg" version="1.1">
 <metadata>
  <rdf:RDF xmlns:dc="http://purl.org/dc/elements/1.1/" xmlns:cc="http://creativecommons.org/ns#" xmlns:rdf="http://www.w3.org/1999/02/22-rdf-syntax-ns#">
   <cc:Work>
    <dc:type rdf:resource="http://purl.org/dc/dcmitype/StillImage"/>
    <dc:date>2025-05-25T10:06:33.003536</dc:date>
    <dc:format>image/svg+xml</dc:format>
    <dc:creator>
     <cc:Agent>
      <dc:title>Matplotlib v3.10.1, https://matplotlib.org/</dc:title>
     </cc:Agent>
    </dc:creator>
   </cc:Work>
  </rdf:RDF>
 </metadata>
 <defs>
  <style type="text/css">*{stroke-linejoin: round; stroke-linecap: butt}</style>
 </defs>
 <g id="figure_1">
  <g id="patch_1">
   <path d="M 0 288 
L 576 288 
L 576 0 
L 0 0 
z
" style="fill: #ffffff"/>
  </g>
  <g id="axes_1">
   <g id="patch_2">
    <path d="M 55.069198 255.465455 
L 269.320107 255.465455 
L 269.320107 41.214545 
L 55.069198 41.214545 
z
" style="fill: #ffffff"/>
   </g>
   <g id="matplotlib.axis_1">
    <g id="xtick_1">
     <g id="line2d_1">
      <defs>
       <path id="me3bf8f86fb" d="M 0 0 
L 0 3.5 
" style="stroke: #000000; stroke-width: 0.8"/>
      </defs>
      <g>
       <use xlink:href="#me3bf8f86fb" x="57.169697" y="255.465455" style="stroke: #000000; stroke-width: 0.8"/>
      </g>
     </g>
     <g id="text_1">
      <!-- 0.0 -->
      <g transform="translate(49.218134 270.063892) scale(0.1 -0.1)">
       <defs>
        <path id="DejaVuSans-30" d="M 2034 4250 
Q 1547 4250 1301 3770 
Q 1056 3291 1056 2328 
Q 1056 1369 1301 889 
Q 1547 409 2034 409 
Q 2525 409 2770 889 
Q 3016 1369 3016 2328 
Q 3016 3291 2770 3770 
Q 2525 4250 2034 4250 
z
M 2034 4750 
Q 2819 4750 3233 4129 
Q 3647 3509 3647 2328 
Q 3647 1150 3233 529 
Q 2819 -91 2034 -91 
Q 1250 -91 836 529 
Q 422 1150 422 2328 
Q 422 3509 836 4129 
Q 1250 4750 2034 4750 
z
" transform="scale(0.015625)"/>
        <path id="DejaVuSans-2e" d="M 684 794 
L 1344 794 
L 1344 0 
L 684 0 
L 684 794 
z
" transform="scale(0.015625)"/>
       </defs>
       <use xlink:href="#DejaVuSans-30"/>
       <use xlink:href="#DejaVuSans-2e" transform="translate(63.623047 0)"/>
       <use xlink:href="#DejaVuSans-30" transform="translate(95.410156 0)"/>
      </g>
     </g>
    </g>
    <g id="xtick_2">
     <g id="line2d_2">
      <g>
       <use xlink:href="#me3bf8f86fb" x="99.179679" y="255.465455" style="stroke: #000000; stroke-width: 0.8"/>
      </g>
     </g>
     <g id="text_2">
      <!-- 0.2 -->
      <g transform="translate(91.228117 270.063892) scale(0.1 -0.1)">
       <defs>
        <path id="DejaVuSans-32" d="M 1228 531 
L 3431 531 
L 3431 0 
L 469 0 
L 469 531 
Q 828 903 1448 1529 
Q 2069 2156 2228 2338 
Q 2531 2678 2651 2914 
Q 2772 3150 2772 3378 
Q 2772 3750 2511 3984 
Q 2250 4219 1831 4219 
Q 1534 4219 1204 4116 
Q 875 4013 500 3803 
L 500 4441 
Q 881 4594 1212 4672 
Q 1544 4750 1819 4750 
Q 2544 4750 2975 4387 
Q 3406 4025 3406 3419 
Q 3406 3131 3298 2873 
Q 3191 2616 2906 2266 
Q 2828 2175 2409 1742 
Q 1991 1309 1228 531 
z
" transform="scale(0.015625)"/>
       </defs>
       <use xlink:href="#DejaVuSans-30"/>
       <use xlink:href="#DejaVuSans-2e" transform="translate(63.623047 0)"/>
       <use xlink:href="#DejaVuSans-32" transform="translate(95.410156 0)"/>
      </g>
     </g>
    </g>
    <g id="xtick_3">
     <g id="line2d_3">
      <g>
       <use xlink:href="#me3bf8f86fb" x="141.189661" y="255.465455" style="stroke: #000000; stroke-width: 0.8"/>
      </g>
     </g>
     <g id="text_3">
      <!-- 0.4 -->
      <g transform="translate(133.238099 270.063892) scale(0.1 -0.1)">
       <defs>
        <path id="DejaVuSans-34" d="M 2419 4116 
L 825 1625 
L 2419 1625 
L 2419 4116 
z
M 2253 4666 
L 3047 4666 
L 3047 1625 
L 3713 1625 
L 3713 1100 
L 3047 1100 
L 3047 0 
L 2419 0 
L 2419 1100 
L 313 1100 
L 313 1709 
L 2253 4666 
z
" transform="scale(0.015625)"/>
       </defs>
       <use xlink:href="#DejaVuSans-30"/>
       <use xlink:href="#DejaVuSans-2e" transform="translate(63.623047 0)"/>
       <use xlink:href="#DejaVuSans-34" transform="translate(95.410156 0)"/>
      </g>
     </g>
    </g>
    <g id="xtick_4">
     <g id="line2d_4">
      <g>
       <use xlink:href="#me3bf8f86fb" x="183.199643" y="255.465455" style="stroke: #000000; stroke-width: 0.8"/>
      </g>
     </g>
     <g id="text_4">
      <!-- 0.6 -->
      <g transform="translate(175.248081 270.063892) scale(0.1 -0.1)">
       <defs>
        <path id="DejaVuSans-36" d="M 2113 2584 
Q 1688 2584 1439 2293 
Q 1191 2003 1191 1497 
Q 1191 994 1439 701 
Q 1688 409 2113 409 
Q 2538 409 2786 701 
Q 3034 994 3034 1497 
Q 3034 2003 2786 2293 
Q 2538 2584 2113 2584 
z
M 3366 4563 
L 3366 3988 
Q 3128 4100 2886 4159 
Q 2644 4219 2406 4219 
Q 1781 4219 1451 3797 
Q 1122 3375 1075 2522 
Q 1259 2794 1537 2939 
Q 1816 3084 2150 3084 
Q 2853 3084 3261 2657 
Q 3669 2231 3669 1497 
Q 3669 778 3244 343 
Q 2819 -91 2113 -91 
Q 1303 -91 875 529 
Q 447 1150 447 2328 
Q 447 3434 972 4092 
Q 1497 4750 2381 4750 
Q 2619 4750 2861 4703 
Q 3103 4656 3366 4563 
z
" transform="scale(0.015625)"/>
       </defs>
       <use xlink:href="#DejaVuSans-30"/>
       <use xlink:href="#DejaVuSans-2e" transform="translate(63.623047 0)"/>
       <use xlink:href="#DejaVuSans-36" transform="translate(95.410156 0)"/>
      </g>
     </g>
    </g>
    <g id="xtick_5">
     <g id="line2d_5">
      <g>
       <use xlink:href="#me3bf8f86fb" x="225.209626" y="255.465455" style="stroke: #000000; stroke-width: 0.8"/>
      </g>
     </g>
     <g id="text_5">
      <!-- 0.8 -->
      <g transform="translate(217.258063 270.063892) scale(0.1 -0.1)">
       <defs>
        <path id="DejaVuSans-38" d="M 2034 2216 
Q 1584 2216 1326 1975 
Q 1069 1734 1069 1313 
Q 1069 891 1326 650 
Q 1584 409 2034 409 
Q 2484 409 2743 651 
Q 3003 894 3003 1313 
Q 3003 1734 2745 1975 
Q 2488 2216 2034 2216 
z
M 1403 2484 
Q 997 2584 770 2862 
Q 544 3141 544 3541 
Q 544 4100 942 4425 
Q 1341 4750 2034 4750 
Q 2731 4750 3128 4425 
Q 3525 4100 3525 3541 
Q 3525 3141 3298 2862 
Q 3072 2584 2669 2484 
Q 3125 2378 3379 2068 
Q 3634 1759 3634 1313 
Q 3634 634 3220 271 
Q 2806 -91 2034 -91 
Q 1263 -91 848 271 
Q 434 634 434 1313 
Q 434 1759 690 2068 
Q 947 2378 1403 2484 
z
M 1172 3481 
Q 1172 3119 1398 2916 
Q 1625 2713 2034 2713 
Q 2441 2713 2670 2916 
Q 2900 3119 2900 3481 
Q 2900 3844 2670 4047 
Q 2441 4250 2034 4250 
Q 1625 4250 1398 4047 
Q 1172 3844 1172 3481 
z
" transform="scale(0.015625)"/>
       </defs>
       <use xlink:href="#DejaVuSans-30"/>
       <use xlink:href="#DejaVuSans-2e" transform="translate(63.623047 0)"/>
       <use xlink:href="#DejaVuSans-38" transform="translate(95.410156 0)"/>
      </g>
     </g>
    </g>
    <g id="xtick_6">
     <g id="line2d_6">
      <g>
       <use xlink:href="#me3bf8f86fb" x="267.219608" y="255.465455" style="stroke: #000000; stroke-width: 0.8"/>
      </g>
     </g>
     <g id="text_6">
      <!-- 1.0 -->
      <g transform="translate(259.268045 270.063892) scale(0.1 -0.1)">
       <defs>
        <path id="DejaVuSans-31" d="M 794 531 
L 1825 531 
L 1825 4091 
L 703 3866 
L 703 4441 
L 1819 4666 
L 2450 4666 
L 2450 531 
L 3481 531 
L 3481 0 
L 794 0 
L 794 531 
z
" transform="scale(0.015625)"/>
       </defs>
       <use xlink:href="#DejaVuSans-31"/>
       <use xlink:href="#DejaVuSans-2e" transform="translate(63.623047 0)"/>
       <use xlink:href="#DejaVuSans-30" transform="translate(95.410156 0)"/>
      </g>
     </g>
    </g>
    <g id="text_7">
     <!-- False Positive Rate (Positive label: 1) -->
     <g transform="translate(70.829027 283.742017) scale(0.1 -0.1)">
      <defs>
       <path id="DejaVuSans-46" d="M 628 4666 
L 3309 4666 
L 3309 4134 
L 1259 4134 
L 1259 2759 
L 3109 2759 
L 3109 2228 
L 1259 2228 
L 1259 0 
L 628 0 
L 628 4666 
z
" transform="scale(0.015625)"/>
       <path id="DejaVuSans-61" d="M 2194 1759 
Q 1497 1759 1228 1600 
Q 959 1441 959 1056 
Q 959 750 1161 570 
Q 1363 391 1709 391 
Q 2188 391 2477 730 
Q 2766 1069 2766 1631 
L 2766 1759 
L 2194 1759 
z
M 3341 1997 
L 3341 0 
L 2766 0 
L 2766 531 
Q 2569 213 2275 61 
Q 1981 -91 1556 -91 
Q 1019 -91 701 211 
Q 384 513 384 1019 
Q 384 1609 779 1909 
Q 1175 2209 1959 2209 
L 2766 2209 
L 2766 2266 
Q 2766 2663 2505 2880 
Q 2244 3097 1772 3097 
Q 1472 3097 1187 3025 
Q 903 2953 641 2809 
L 641 3341 
Q 956 3463 1253 3523 
Q 1550 3584 1831 3584 
Q 2591 3584 2966 3190 
Q 3341 2797 3341 1997 
z
" transform="scale(0.015625)"/>
       <path id="DejaVuSans-6c" d="M 603 4863 
L 1178 4863 
L 1178 0 
L 603 0 
L 603 4863 
z
" transform="scale(0.015625)"/>
       <path id="DejaVuSans-73" d="M 2834 3397 
L 2834 2853 
Q 2591 2978 2328 3040 
Q 2066 3103 1784 3103 
Q 1356 3103 1142 2972 
Q 928 2841 928 2578 
Q 928 2378 1081 2264 
Q 1234 2150 1697 2047 
L 1894 2003 
Q 2506 1872 2764 1633 
Q 3022 1394 3022 966 
Q 3022 478 2636 193 
Q 2250 -91 1575 -91 
Q 1294 -91 989 -36 
Q 684 19 347 128 
L 347 722 
Q 666 556 975 473 
Q 1284 391 1588 391 
Q 1994 391 2212 530 
Q 2431 669 2431 922 
Q 2431 1156 2273 1281 
Q 2116 1406 1581 1522 
L 1381 1569 
Q 847 1681 609 1914 
Q 372 2147 372 2553 
Q 372 3047 722 3315 
Q 1072 3584 1716 3584 
Q 2034 3584 2315 3537 
Q 2597 3491 2834 3397 
z
" transform="scale(0.015625)"/>
       <path id="DejaVuSans-65" d="M 3597 1894 
L 3597 1613 
L 953 1613 
Q 991 1019 1311 708 
Q 1631 397 2203 397 
Q 2534 397 2845 478 
Q 3156 559 3463 722 
L 3463 178 
Q 3153 47 2828 -22 
Q 2503 -91 2169 -91 
Q 1331 -91 842 396 
Q 353 884 353 1716 
Q 353 2575 817 3079 
Q 1281 3584 2069 3584 
Q 2775 3584 3186 3129 
Q 3597 2675 3597 1894 
z
M 3022 2063 
Q 3016 2534 2758 2815 
Q 2500 3097 2075 3097 
Q 1594 3097 1305 2825 
Q 1016 2553 972 2059 
L 3022 2063 
z
" transform="scale(0.015625)"/>
       <path id="DejaVuSans-20" transform="scale(0.015625)"/>
       <path id="DejaVuSans-50" d="M 1259 4147 
L 1259 2394 
L 2053 2394 
Q 2494 2394 2734 2622 
Q 2975 2850 2975 3272 
Q 2975 3691 2734 3919 
Q 2494 4147 2053 4147 
L 1259 4147 
z
M 628 4666 
L 2053 4666 
Q 2838 4666 3239 4311 
Q 3641 3956 3641 3272 
Q 3641 2581 3239 2228 
Q 2838 1875 2053 1875 
L 1259 1875 
L 1259 0 
L 628 0 
L 628 4666 
z
" transform="scale(0.015625)"/>
       <path id="DejaVuSans-6f" d="M 1959 3097 
Q 1497 3097 1228 2736 
Q 959 2375 959 1747 
Q 959 1119 1226 758 
Q 1494 397 1959 397 
Q 2419 397 2687 759 
Q 2956 1122 2956 1747 
Q 2956 2369 2687 2733 
Q 2419 3097 1959 3097 
z
M 1959 3584 
Q 2709 3584 3137 3096 
Q 3566 2609 3566 1747 
Q 3566 888 3137 398 
Q 2709 -91 1959 -91 
Q 1206 -91 779 398 
Q 353 888 353 1747 
Q 353 2609 779 3096 
Q 1206 3584 1959 3584 
z
" transform="scale(0.015625)"/>
       <path id="DejaVuSans-69" d="M 603 3500 
L 1178 3500 
L 1178 0 
L 603 0 
L 603 3500 
z
M 603 4863 
L 1178 4863 
L 1178 4134 
L 603 4134 
L 603 4863 
z
" transform="scale(0.015625)"/>
       <path id="DejaVuSans-74" d="M 1172 4494 
L 1172 3500 
L 2356 3500 
L 2356 3053 
L 1172 3053 
L 1172 1153 
Q 1172 725 1289 603 
Q 1406 481 1766 481 
L 2356 481 
L 2356 0 
L 1766 0 
Q 1100 0 847 248 
Q 594 497 594 1153 
L 594 3053 
L 172 3053 
L 172 3500 
L 594 3500 
L 594 4494 
L 1172 4494 
z
" transform="scale(0.015625)"/>
       <path id="DejaVuSans-76" d="M 191 3500 
L 800 3500 
L 1894 563 
L 2988 3500 
L 3597 3500 
L 2284 0 
L 1503 0 
L 191 3500 
z
" transform="scale(0.015625)"/>
       <path id="DejaVuSans-52" d="M 2841 2188 
Q 3044 2119 3236 1894 
Q 3428 1669 3622 1275 
L 4263 0 
L 3584 0 
L 2988 1197 
Q 2756 1666 2539 1819 
Q 2322 1972 1947 1972 
L 1259 1972 
L 1259 0 
L 628 0 
L 628 4666 
L 2053 4666 
Q 2853 4666 3247 4331 
Q 3641 3997 3641 3322 
Q 3641 2881 3436 2590 
Q 3231 2300 2841 2188 
z
M 1259 4147 
L 1259 2491 
L 2053 2491 
Q 2509 2491 2742 2702 
Q 2975 2913 2975 3322 
Q 2975 3731 2742 3939 
Q 2509 4147 2053 4147 
L 1259 4147 
z
" transform="scale(0.015625)"/>
       <path id="DejaVuSans-28" d="M 1984 4856 
Q 1566 4138 1362 3434 
Q 1159 2731 1159 2009 
Q 1159 1288 1364 580 
Q 1569 -128 1984 -844 
L 1484 -844 
Q 1016 -109 783 600 
Q 550 1309 550 2009 
Q 550 2706 781 3412 
Q 1013 4119 1484 4856 
L 1984 4856 
z
" transform="scale(0.015625)"/>
       <path id="DejaVuSans-62" d="M 3116 1747 
Q 3116 2381 2855 2742 
Q 2594 3103 2138 3103 
Q 1681 3103 1420 2742 
Q 1159 2381 1159 1747 
Q 1159 1113 1420 752 
Q 1681 391 2138 391 
Q 2594 391 2855 752 
Q 3116 1113 3116 1747 
z
M 1159 2969 
Q 1341 3281 1617 3432 
Q 1894 3584 2278 3584 
Q 2916 3584 3314 3078 
Q 3713 2572 3713 1747 
Q 3713 922 3314 415 
Q 2916 -91 2278 -91 
Q 1894 -91 1617 61 
Q 1341 213 1159 525 
L 1159 0 
L 581 0 
L 581 4863 
L 1159 4863 
L 1159 2969 
z
" transform="scale(0.015625)"/>
       <path id="DejaVuSans-3a" d="M 750 794 
L 1409 794 
L 1409 0 
L 750 0 
L 750 794 
z
M 750 3309 
L 1409 3309 
L 1409 2516 
L 750 2516 
L 750 3309 
z
" transform="scale(0.015625)"/>
       <path id="DejaVuSans-29" d="M 513 4856 
L 1013 4856 
Q 1481 4119 1714 3412 
Q 1947 2706 1947 2009 
Q 1947 1309 1714 600 
Q 1481 -109 1013 -844 
L 513 -844 
Q 928 -128 1133 580 
Q 1338 1288 1338 2009 
Q 1338 2731 1133 3434 
Q 928 4138 513 4856 
z
" transform="scale(0.015625)"/>
      </defs>
      <use xlink:href="#DejaVuSans-46"/>
      <use xlink:href="#DejaVuSans-61" transform="translate(48.394531 0)"/>
      <use xlink:href="#DejaVuSans-6c" transform="translate(109.673828 0)"/>
      <use xlink:href="#DejaVuSans-73" transform="translate(137.457031 0)"/>
      <use xlink:href="#DejaVuSans-65" transform="translate(189.556641 0)"/>
      <use xlink:href="#DejaVuSans-20" transform="translate(251.080078 0)"/>
      <use xlink:href="#DejaVuSans-50" transform="translate(282.867188 0)"/>
      <use xlink:href="#DejaVuSans-6f" transform="translate(339.544922 0)"/>
      <use xlink:href="#DejaVuSans-73" transform="translate(400.726562 0)"/>
      <use xlink:href="#DejaVuSans-69" transform="translate(452.826172 0)"/>
      <use xlink:href="#DejaVuSans-74" transform="translate(480.609375 0)"/>
      <use xlink:href="#DejaVuSans-69" transform="translate(519.818359 0)"/>
      <use xlink:href="#DejaVuSans-76" transform="translate(547.601562 0)"/>
      <use xlink:href="#DejaVuSans-65" transform="translate(606.78125 0)"/>
      <use xlink:href="#DejaVuSans-20" transform="translate(668.304688 0)"/>
      <use xlink:href="#DejaVuSans-52" transform="translate(700.091797 0)"/>
      <use xlink:href="#DejaVuSans-61" transform="translate(767.324219 0)"/>
      <use xlink:href="#DejaVuSans-74" transform="translate(828.603516 0)"/>
      <use xlink:href="#DejaVuSans-65" transform="translate(867.8125 0)"/>
      <use xlink:href="#DejaVuSans-20" transform="translate(929.335938 0)"/>
      <use xlink:href="#DejaVuSans-28" transform="translate(961.123047 0)"/>
      <use xlink:href="#DejaVuSans-50" transform="translate(1000.136719 0)"/>
      <use xlink:href="#DejaVuSans-6f" transform="translate(1056.814453 0)"/>
      <use xlink:href="#DejaVuSans-73" transform="translate(1117.996094 0)"/>
      <use xlink:href="#DejaVuSans-69" transform="translate(1170.095703 0)"/>
      <use xlink:href="#DejaVuSans-74" transform="translate(1197.878906 0)"/>
      <use xlink:href="#DejaVuSans-69" transform="translate(1237.087891 0)"/>
      <use xlink:href="#DejaVuSans-76" transform="translate(1264.871094 0)"/>
      <use xlink:href="#DejaVuSans-65" transform="translate(1324.050781 0)"/>
      <use xlink:href="#DejaVuSans-20" transform="translate(1385.574219 0)"/>
      <use xlink:href="#DejaVuSans-6c" transform="translate(1417.361328 0)"/>
      <use xlink:href="#DejaVuSans-61" transform="translate(1445.144531 0)"/>
      <use xlink:href="#DejaVuSans-62" transform="translate(1506.423828 0)"/>
      <use xlink:href="#DejaVuSans-65" transform="translate(1569.900391 0)"/>
      <use xlink:href="#DejaVuSans-6c" transform="translate(1631.423828 0)"/>
      <use xlink:href="#DejaVuSans-3a" transform="translate(1659.207031 0)"/>
      <use xlink:href="#DejaVuSans-20" transform="translate(1692.898438 0)"/>
      <use xlink:href="#DejaVuSans-31" transform="translate(1724.685547 0)"/>
      <use xlink:href="#DejaVuSans-29" transform="translate(1788.308594 0)"/>
     </g>
    </g>
   </g>
   <g id="matplotlib.axis_2">
    <g id="ytick_1">
     <g id="line2d_7">
      <defs>
       <path id="mdc3f7322b9" d="M 0 0 
L -3.5 0 
" style="stroke: #000000; stroke-width: 0.8"/>
      </defs>
      <g>
       <use xlink:href="#mdc3f7322b9" x="55.069198" y="253.364955" style="stroke: #000000; stroke-width: 0.8"/>
      </g>
     </g>
     <g id="text_8">
      <!-- 0.0 -->
      <g transform="translate(32.166073 257.164174) scale(0.1 -0.1)">
       <use xlink:href="#DejaVuSans-30"/>
       <use xlink:href="#DejaVuSans-2e" transform="translate(63.623047 0)"/>
       <use xlink:href="#DejaVuSans-30" transform="translate(95.410156 0)"/>
      </g>
     </g>
    </g>
    <g id="ytick_2">
     <g id="line2d_8">
      <g>
       <use xlink:href="#mdc3f7322b9" x="55.069198" y="211.354973" style="stroke: #000000; stroke-width: 0.8"/>
      </g>
     </g>
     <g id="text_9">
      <!-- 0.2 -->
      <g transform="translate(32.166073 215.154192) scale(0.1 -0.1)">
       <use xlink:href="#DejaVuSans-30"/>
       <use xlink:href="#DejaVuSans-2e" transform="translate(63.623047 0)"/>
       <use xlink:href="#DejaVuSans-32" transform="translate(95.410156 0)"/>
      </g>
     </g>
    </g>
    <g id="ytick_3">
     <g id="line2d_9">
      <g>
       <use xlink:href="#mdc3f7322b9" x="55.069198" y="169.344991" style="stroke: #000000; stroke-width: 0.8"/>
      </g>
     </g>
     <g id="text_10">
      <!-- 0.4 -->
      <g transform="translate(32.166073 173.14421) scale(0.1 -0.1)">
       <use xlink:href="#DejaVuSans-30"/>
       <use xlink:href="#DejaVuSans-2e" transform="translate(63.623047 0)"/>
       <use xlink:href="#DejaVuSans-34" transform="translate(95.410156 0)"/>
      </g>
     </g>
    </g>
    <g id="ytick_4">
     <g id="line2d_10">
      <g>
       <use xlink:href="#mdc3f7322b9" x="55.069198" y="127.335009" style="stroke: #000000; stroke-width: 0.8"/>
      </g>
     </g>
     <g id="text_11">
      <!-- 0.6 -->
      <g transform="translate(32.166073 131.134228) scale(0.1 -0.1)">
       <use xlink:href="#DejaVuSans-30"/>
       <use xlink:href="#DejaVuSans-2e" transform="translate(63.623047 0)"/>
       <use xlink:href="#DejaVuSans-36" transform="translate(95.410156 0)"/>
      </g>
     </g>
    </g>
    <g id="ytick_5">
     <g id="line2d_11">
      <g>
       <use xlink:href="#mdc3f7322b9" x="55.069198" y="85.325027" style="stroke: #000000; stroke-width: 0.8"/>
      </g>
     </g>
     <g id="text_12">
      <!-- 0.8 -->
      <g transform="translate(32.166073 89.124245) scale(0.1 -0.1)">
       <use xlink:href="#DejaVuSans-30"/>
       <use xlink:href="#DejaVuSans-2e" transform="translate(63.623047 0)"/>
       <use xlink:href="#DejaVuSans-38" transform="translate(95.410156 0)"/>
      </g>
     </g>
    </g>
    <g id="ytick_6">
     <g id="line2d_12">
      <g>
       <use xlink:href="#mdc3f7322b9" x="55.069198" y="43.315045" style="stroke: #000000; stroke-width: 0.8"/>
      </g>
     </g>
     <g id="text_13">
      <!-- 1.0 -->
      <g transform="translate(32.166073 47.114263) scale(0.1 -0.1)">
       <use xlink:href="#DejaVuSans-31"/>
       <use xlink:href="#DejaVuSans-2e" transform="translate(63.623047 0)"/>
       <use xlink:href="#DejaVuSans-30" transform="translate(95.410156 0)"/>
      </g>
     </g>
    </g>
    <g id="text_14">
     <!-- True Positive Rate (Positive label: 1) -->
     <g transform="translate(26.086385 237.768906) rotate(-90) scale(0.1 -0.1)">
      <defs>
       <path id="DejaVuSans-54" d="M -19 4666 
L 3928 4666 
L 3928 4134 
L 2272 4134 
L 2272 0 
L 1638 0 
L 1638 4134 
L -19 4134 
L -19 4666 
z
" transform="scale(0.015625)"/>
       <path id="DejaVuSans-72" d="M 2631 2963 
Q 2534 3019 2420 3045 
Q 2306 3072 2169 3072 
Q 1681 3072 1420 2755 
Q 1159 2438 1159 1844 
L 1159 0 
L 581 0 
L 581 3500 
L 1159 3500 
L 1159 2956 
Q 1341 3275 1631 3429 
Q 1922 3584 2338 3584 
Q 2397 3584 2469 3576 
Q 2541 3569 2628 3553 
L 2631 2963 
z
" transform="scale(0.015625)"/>
       <path id="DejaVuSans-75" d="M 544 1381 
L 544 3500 
L 1119 3500 
L 1119 1403 
Q 1119 906 1312 657 
Q 1506 409 1894 409 
Q 2359 409 2629 706 
Q 2900 1003 2900 1516 
L 2900 3500 
L 3475 3500 
L 3475 0 
L 2900 0 
L 2900 538 
Q 2691 219 2414 64 
Q 2138 -91 1772 -91 
Q 1169 -91 856 284 
Q 544 659 544 1381 
z
M 1991 3584 
L 1991 3584 
z
" transform="scale(0.015625)"/>
      </defs>
      <use xlink:href="#DejaVuSans-54"/>
      <use xlink:href="#DejaVuSans-72" transform="translate(46.333984 0)"/>
      <use xlink:href="#DejaVuSans-75" transform="translate(87.447266 0)"/>
      <use xlink:href="#DejaVuSans-65" transform="translate(150.826172 0)"/>
      <use xlink:href="#DejaVuSans-20" transform="translate(212.349609 0)"/>
      <use xlink:href="#DejaVuSans-50" transform="translate(244.136719 0)"/>
      <use xlink:href="#DejaVuSans-6f" transform="translate(300.814453 0)"/>
      <use xlink:href="#DejaVuSans-73" transform="translate(361.996094 0)"/>
      <use xlink:href="#DejaVuSans-69" transform="translate(414.095703 0)"/>
      <use xlink:href="#DejaVuSans-74" transform="translate(441.878906 0)"/>
      <use xlink:href="#DejaVuSans-69" transform="translate(481.087891 0)"/>
      <use xlink:href="#DejaVuSans-76" transform="translate(508.871094 0)"/>
      <use xlink:href="#DejaVuSans-65" transform="translate(568.050781 0)"/>
      <use xlink:href="#DejaVuSans-20" transform="translate(629.574219 0)"/>
      <use xlink:href="#DejaVuSans-52" transform="translate(661.361328 0)"/>
      <use xlink:href="#DejaVuSans-61" transform="translate(728.59375 0)"/>
      <use xlink:href="#DejaVuSans-74" transform="translate(789.873047 0)"/>
      <use xlink:href="#DejaVuSans-65" transform="translate(829.082031 0)"/>
      <use xlink:href="#DejaVuSans-20" transform="translate(890.605469 0)"/>
      <use xlink:href="#DejaVuSans-28" transform="translate(922.392578 0)"/>
      <use xlink:href="#DejaVuSans-50" transform="translate(961.40625 0)"/>
      <use xlink:href="#DejaVuSans-6f" transform="translate(1018.083984 0)"/>
      <use xlink:href="#DejaVuSans-73" transform="translate(1079.265625 0)"/>
      <use xlink:href="#DejaVuSans-69" transform="translate(1131.365234 0)"/>
      <use xlink:href="#DejaVuSans-74" transform="translate(1159.148438 0)"/>
      <use xlink:href="#DejaVuSans-69" transform="translate(1198.357422 0)"/>
      <use xlink:href="#DejaVuSans-76" transform="translate(1226.140625 0)"/>
      <use xlink:href="#DejaVuSans-65" transform="translate(1285.320312 0)"/>
      <use xlink:href="#DejaVuSans-20" transform="translate(1346.84375 0)"/>
      <use xlink:href="#DejaVuSans-6c" transform="translate(1378.630859 0)"/>
      <use xlink:href="#DejaVuSans-61" transform="translate(1406.414062 0)"/>
      <use xlink:href="#DejaVuSans-62" transform="translate(1467.693359 0)"/>
      <use xlink:href="#DejaVuSans-65" transform="translate(1531.169922 0)"/>
      <use xlink:href="#DejaVuSans-6c" transform="translate(1592.693359 0)"/>
      <use xlink:href="#DejaVuSans-3a" transform="translate(1620.476562 0)"/>
      <use xlink:href="#DejaVuSans-20" transform="translate(1654.167969 0)"/>
      <use xlink:href="#DejaVuSans-31" transform="translate(1685.955078 0)"/>
      <use xlink:href="#DejaVuSans-29" transform="translate(1749.578125 0)"/>
     </g>
    </g>
   </g>
   <g id="line2d_13">
    <path d="M 57.169697 253.364955 
L 116.193722 253.280935 
L 116.193722 253.196916 
L 120.709795 253.196916 
L 120.709795 253.028876 
L 121.48698 252.944856 
L 121.48698 252.860836 
L 122.558234 252.776816 
L 122.558234 252.692796 
L 123.902554 252.608776 
L 123.902554 252.524756 
L 127.998527 252.440736 
L 127.998527 252.356716 
L 128.964757 252.272696 
L 128.964757 252.188676 
L 129.615911 252.104656 
L 129.615911 252.020636 
L 131.023246 251.936616 
L 131.023246 251.852596 
L 132.115505 251.768576 
L 132.115505 251.684556 
L 132.745655 251.600536 
L 132.745655 251.516516 
L 133.01872 251.516516 
L 133.01872 251.348476 
L 134.678114 251.264456 
L 134.678114 251.180436 
L 135.140224 251.096416 
L 135.140224 251.012396 
L 135.959419 250.928376 
L 135.959419 250.844357 
L 136.841628 250.760337 
L 136.841628 250.676317 
L 137.282733 250.592297 
L 137.282733 250.508277 
L 138.311978 250.424257 
L 138.311978 250.340237 
L 138.900117 250.256217 
L 138.900117 250.172197 
L 139.887352 250.088177 
L 139.887352 250.004157 
L 140.244437 249.920137 
L 140.244437 249.836117 
L 140.559512 249.752097 
L 140.559512 249.668077 
L 141.273681 249.584057 
L 141.273681 249.500037 
L 141.672776 249.416017 
L 141.672776 249.331997 
L 142.155891 249.247977 
L 142.155891 249.163957 
L 143.12212 249.079937 
L 143.12212 248.995917 
L 144.445435 248.911897 
L 144.445435 248.827877 
L 145.768749 248.743857 
L 145.768749 248.659837 
L 147.197089 248.575817 
L 147.197089 248.407778 
L 147.743219 248.323758 
L 147.743219 248.239738 
L 148.205328 248.155718 
L 148.205328 248.071698 
L 150.032763 247.987678 
L 150.032763 247.903658 
L 150.872962 247.819638 
L 150.872962 247.735618 
L 151.251052 247.651598 
L 151.335072 247.399538 
L 151.629142 247.315518 
L 151.734167 247.147478 
L 151.797182 247.147478 
L 151.797182 246.895418 
L 152.658386 246.811398 
L 152.700396 246.643358 
L 153.519591 246.559338 
L 153.519591 246.475318 
L 154.065721 246.391298 
L 154.065721 246.307278 
L 154.779891 246.223258 
L 154.779891 246.139239 
L 156.46029 246.055219 
L 156.46029 245.971199 
L 156.71235 245.887179 
L 156.775365 245.719139 
L 157.279484 245.635119 
L 157.279484 245.551099 
L 157.573554 245.467079 
L 157.678579 245.215019 
L 157.888629 245.215019 
L 157.888629 245.046979 
L 158.203704 244.962959 
L 158.203704 244.878939 
L 158.770839 244.878939 
L 158.791844 244.626879 
L 159.001894 244.542859 
L 159.001894 244.458839 
L 159.358979 244.374819 
L 159.442999 244.206779 
L 159.884103 244.122759 
L 159.905108 243.954719 
L 160.220183 243.870699 
L 160.220183 243.78668 
L 161.039378 243.70266 
L 161.039378 243.61864 
L 161.228423 243.53462 
L 161.270433 243.36658 
L 162.005607 243.28256 
L 162.005607 243.19854 
L 162.194652 243.11452 
L 162.257667 242.69442 
L 163.118872 242.6104 
L 163.223897 242.35834 
L 163.391937 242.27432 
L 163.496962 242.02226 
L 164.001082 241.93824 
L 164.001082 241.85422 
L 164.841281 241.7702 
L 164.946306 241.51814 
L 165.135351 241.43412 
L 165.240376 241.182061 
L 165.429421 241.098041 
L 165.429421 240.845981 
L 165.786506 240.761961 
L 165.828516 240.593921 
L 166.080576 240.509901 
L 166.122586 240.257841 
L 166.332636 240.173821 
L 166.332636 240.005781 
L 166.836755 239.921761 
L 166.836755 239.837741 
L 166.98379 239.837741 
L 167.046805 239.585681 
L 167.172835 239.501661 
L 167.172835 239.417641 
L 167.802985 239.333621 
L 167.90801 239.081561 
L 168.11806 238.997542 
L 168.139065 238.829502 
L 168.853235 238.745482 
L 168.895245 238.409402 
L 169.168309 238.325382 
L 169.273334 238.157342 
L 169.609414 238.073322 
L 169.609414 237.989302 
L 169.798459 237.905282 
L 169.903484 237.569202 
L 170.218559 237.485182 
L 170.218559 237.401162 
L 170.596649 237.317142 
L 170.701674 237.149102 
L 170.890719 237.065082 
L 170.890719 236.981062 
L 171.205794 236.897042 
L 171.289814 236.560963 
L 171.373834 236.560963 
L 171.373834 236.392923 
L 171.940968 236.308903 
L 171.961973 236.140863 
L 172.676143 236.056843 
L 172.676143 235.972823 
L 172.823178 235.972823 
L 172.865188 235.636743 
L 173.453328 235.552723 
L 173.453328 235.468703 
L 174.062472 235.384683 
L 174.125487 235.216643 
L 174.482572 235.132623 
L 174.587597 234.964583 
L 174.776642 234.880563 
L 174.818652 234.712523 
L 175.070712 234.628503 
L 175.070712 234.544483 
L 175.301767 234.460463 
L 175.301767 234.376443 
L 175.805887 234.292424 
L 175.805887 234.208404 
L 175.952922 234.208404 
L 176.036942 233.872324 
L 176.436036 233.788304 
L 176.478046 233.536244 
L 176.856136 233.452224 
L 176.877141 233.284184 
L 177.318246 233.200164 
L 177.381261 232.864084 
L 177.528296 232.780064 
L 177.549301 232.612024 
L 177.885381 232.528004 
L 177.885381 232.443984 
L 178.032416 232.443984 
L 178.095431 232.191924 
L 178.326486 232.107904 
L 178.326486 232.023884 
L 178.72558 231.939865 
L 178.72558 231.855845 
L 179.376735 231.771825 
L 179.418745 231.519765 
L 179.754825 231.435745 
L 179.85985 231.099665 
L 180.006885 231.015645 
L 180.0699 230.595545 
L 180.216935 230.511525 
L 180.32196 230.259465 
L 180.36397 230.175445 
L 180.36397 230.091425 
L 180.889094 230.007405 
L 180.931104 229.839365 
L 181.057134 229.755345 
L 181.162159 229.587306 
L 181.225174 229.503286 
L 181.267184 229.335246 
L 181.372209 229.335246 
L 181.372209 229.167206 
L 181.519244 229.167206 
L 181.540249 228.915146 
L 181.834319 228.831126 
L 181.939344 228.411026 
L 182.023364 228.327006 
L 182.023364 228.242986 
L 182.191404 228.242986 
L 182.254419 227.990926 
L 182.506479 227.906906 
L 182.506479 227.822886 
L 182.842559 227.738866 
L 182.947584 227.402786 
L 183.220648 227.318766 
L 183.325673 227.066707 
L 183.808788 226.982687 
L 183.913813 226.646607 
L 183.997833 226.562587 
L 184.060848 226.226507 
L 184.144868 226.142487 
L 184.228888 225.974447 
L 185.132103 225.890427 
L 185.132103 225.722387 
L 185.384163 225.638367 
L 185.384163 225.470327 
L 185.846272 225.386307 
L 185.888282 225.218267 
L 186.161347 225.134247 
L 186.245367 224.966207 
L 186.455417 224.966207 
L 186.455417 224.798168 
L 186.644462 224.714148 
L 186.686472 224.462088 
L 186.959537 224.378068 
L 187.064562 223.873948 
L 187.127577 223.789928 
L 187.169587 223.537868 
L 187.358632 223.453848 
L 187.463657 223.033748 
L 187.589687 222.949728 
L 187.610692 222.781688 
L 187.778732 222.697668 
L 187.820742 222.361589 
L 188.009786 222.361589 
L 188.009786 222.193549 
L 188.177826 222.109529 
L 188.240841 221.773449 
L 188.450891 221.689429 
L 188.450891 221.605409 
L 188.807976 221.521389 
L 188.828981 221.353349 
L 189.081041 221.269329 
L 189.081041 221.185309 
L 189.711191 221.101289 
L 189.816216 220.681189 
L 190.089281 220.597169 
L 190.131291 220.429129 
L 190.38335 220.345109 
L 190.488375 219.92501 
L 190.572395 219.84099 
L 190.656415 219.67295 
L 190.84546 219.58893 
L 190.950485 219.25285 
L 191.202545 219.16883 
L 191.286565 219.00079 
L 191.412595 218.91677 
L 191.496615 218.66471 
L 191.81169 218.66471 
L 191.81169 218.41265 
L 192.06375 218.32863 
L 192.06375 218.07657 
L 192.420835 217.99255 
L 192.52586 217.824511 
L 192.672894 217.740491 
L 192.735909 217.236371 
L 192.819929 217.152351 
L 192.924954 216.816271 
L 193.219024 216.732251 
L 193.219024 216.648231 
L 193.597114 216.564211 
L 193.597114 216.480191 
L 193.870179 216.480191 
L 193.870179 216.312151 
L 194.038219 216.312151 
L 194.143244 215.976071 
L 194.395304 215.892051 
L 194.458319 215.639991 
L 194.710379 215.639991 
L 194.710379 215.471952 
L 194.899424 215.387932 
L 194.941434 215.135872 
L 195.403543 215.051852 
L 195.508568 214.799792 
L 195.676608 214.715772 
L 195.697613 214.463712 
L 196.201733 214.379692 
L 196.306758 214.127632 
L 196.705853 214.043612 
L 196.810878 213.791552 
L 197.041933 213.707532 
L 197.146958 213.539492 
L 197.188968 213.539492 
L 197.293993 213.203412 
L 197.378012 213.203412 
L 197.483037 212.867333 
L 197.630072 212.783313 
L 197.630072 212.615273 
L 197.903137 212.531253 
L 197.987157 212.363213 
L 198.197207 212.363213 
L 198.239217 212.111153 
L 198.407257 212.111153 
L 198.491277 211.775073 
L 198.764342 211.691053 
L 198.848362 211.523013 
L 199.079417 211.438993 
L 199.079417 211.354973 
L 199.352482 211.270953 
L 199.352482 211.186933 
L 199.562532 211.102913 
L 199.562532 211.018893 
L 199.730571 210.934873 
L 199.835596 210.682814 
L 200.024641 210.598794 
L 200.087656 210.430754 
L 200.402731 210.346734 
L 200.486751 210.178694 
L 200.591776 210.094674 
L 200.696801 209.842614 
L 200.885846 209.758594 
L 200.990871 209.506534 
L 201.032881 209.506534 
L 201.074891 209.086434 
L 201.263936 209.002414 
L 201.326951 208.666334 
L 201.431976 208.582314 
L 201.431976 208.498294 
L 201.621021 208.498294 
L 201.705041 207.994175 
L 201.831071 207.910155 
L 201.915091 207.742115 
L 202.04112 207.658095 
L 202.04112 207.574075 
L 202.230165 207.490055 
L 202.33519 207.237995 
L 202.50323 207.237995 
L 202.566245 206.901915 
L 202.75529 206.817895 
L 202.75529 206.733875 
L 203.028355 206.649855 
L 203.04936 206.481815 
L 203.17539 206.481815 
L 203.2174 206.061716 
L 203.34343 206.061716 
L 203.38544 205.725636 
L 203.574485 205.641616 
L 203.616495 205.473576 
L 203.826545 205.473576 
L 203.910565 205.137496 
L 204.0576 205.053476 
L 204.0576 204.969456 
L 204.330665 204.885436 
L 204.330665 204.801416 
L 204.666744 204.801416 
L 204.708754 204.549356 
L 204.960814 204.549356 
L 205.065839 204.129256 
L 205.317899 204.045236 
L 205.422924 203.541117 
L 205.485939 203.541117 
L 205.548954 203.289057 
L 205.674984 203.205037 
L 205.780009 202.532877 
L 206.011064 202.448857 
L 206.032069 202.196797 
L 206.242119 202.112777 
L 206.305134 201.944737 
L 206.515184 201.860717 
L 206.620209 201.524637 
L 206.662219 201.440617 
L 206.767243 201.272578 
L 206.977293 201.188558 
L 207.040308 201.020518 
L 207.124328 201.020518 
L 207.145333 200.768458 
L 207.439403 200.768458 
L 207.523423 200.432378 
L 207.565433 200.432378 
L 207.628448 200.180318 
L 207.775483 200.180318 
L 207.859503 199.844238 
L 208.300608 199.760218 
L 208.363623 199.424138 
L 208.468648 199.340118 
L 208.531663 199.004039 
L 208.657693 198.920019 
L 208.678698 198.751979 
L 208.909753 198.667959 
L 208.993773 198.247859 
L 209.182817 198.163839 
L 209.287842 197.995799 
L 209.371862 197.911779 
L 209.392867 197.659719 
L 209.518897 197.659719 
L 209.623922 197.323639 
L 209.728947 197.323639 
L 209.728947 196.819519 
L 209.875982 196.735499 
L 209.981007 196.23138 
L 210.149047 196.14736 
L 210.149047 196.06334 
L 210.359097 195.97932 
L 210.443117 195.72726 
L 210.611157 195.64324 
L 210.611157 195.55922 
L 210.863217 195.4752 
L 210.968242 194.97108 
L 211.073267 194.88706 
L 211.157287 194.71902 
L 211.346332 194.635 
L 211.409347 194.130881 
L 211.535376 194.046861 
L 211.619396 193.878821 
L 211.724421 193.794801 
L 211.766431 193.542741 
L 211.892461 193.542741 
L 211.892461 193.374701 
L 212.186531 193.290681 
L 212.228541 193.038621 
L 212.417586 192.954601 
L 212.522611 192.702541 
L 212.816681 192.618521 
L 212.900701 192.366461 
L 213.089746 192.282441 
L 213.152761 191.862342 
L 213.341806 191.778322 
L 213.362811 191.526262 
L 213.509846 191.442242 
L 213.551856 191.274202 
L 213.698891 191.190182 
L 213.761906 190.770082 
L 213.929945 190.770082 
L 213.95095 190.518022 
L 214.11899 190.434002 
L 214.182005 190.265962 
L 214.434065 190.181942 
L 214.53909 189.761842 
L 214.560095 189.761842 
L 214.644115 189.257723 
L 214.70713 189.173703 
L 214.812155 188.837623 
L 214.87517 188.753603 
L 214.938185 188.333503 
L 215.106225 188.249483 
L 215.21125 188.081443 
L 215.274265 188.081443 
L 215.274265 187.913403 
L 215.484315 187.829383 
L 215.58934 187.409283 
L 215.75738 187.325263 
L 215.820395 186.989184 
L 216.072455 186.905164 
L 216.17748 186.485064 
L 216.282504 186.485064 
L 216.303509 186.064964 
L 216.429539 185.980944 
L 216.429539 185.812904 
L 216.639589 185.812904 
L 216.744614 185.392804 
L 216.786624 185.392804 
L 216.849639 184.972704 
L 217.017679 184.888684 
L 217.059689 184.300545 
L 217.185719 184.300545 
L 217.290744 184.048485 
L 217.353759 183.964465 
L 217.437779 183.712405 
L 217.500794 183.712405 
L 217.563809 183.376325 
L 217.857879 183.292305 
L 217.899889 183.124265 
L 218.004914 183.124265 
L 218.088934 182.788185 
L 218.235969 182.704165 
L 218.235969 182.620145 
L 218.425014 182.620145 
L 218.509034 182.368086 
L 218.593053 182.284066 
L 218.698078 182.032006 
L 218.782098 181.947986 
L 218.887123 181.527886 
L 218.908128 181.527886 
L 219.013153 181.275826 
L 219.034158 181.275826 
L 219.139183 180.687686 
L 219.202198 180.603666 
L 219.307223 179.847487 
L 219.328228 179.847487 
L 219.349233 179.595427 
L 219.601293 179.511407 
L 219.622298 179.343367 
L 219.769333 179.259347 
L 219.832348 179.007287 
L 220.231443 178.923267 
L 220.273453 178.587187 
L 220.420488 178.587187 
L 220.525513 177.915027 
L 220.567523 177.831007 
L 220.630538 177.410908 
L 220.798578 177.326888 
L 220.903602 176.654728 
L 220.966617 176.654728 
L 220.966617 176.402668 
L 221.113652 176.318648 
L 221.218677 175.982568 
L 221.449732 175.898548 
L 221.554757 175.730508 
L 221.743802 175.646488 
L 221.806817 175.478448 
L 221.932847 175.394429 
L 222.037872 174.638249 
L 222.142897 174.554229 
L 222.226917 173.798049 
L 222.478977 173.714029 
L 222.584002 173.209909 
L 222.731037 173.125889 
L 222.752042 172.95785 
L 222.899077 172.87383 
L 222.941087 172.53775 
L 223.088122 172.45373 
L 223.193147 171.61353 
L 223.340181 171.52951 
L 223.445206 170.85735 
L 223.466211 170.85735 
L 223.571236 170.353231 
L 223.634251 170.269211 
L 223.718271 169.765091 
L 223.802291 169.681071 
L 223.907316 169.176951 
L 223.970331 169.176951 
L 224.075356 168.840871 
L 224.138371 168.840871 
L 224.243396 168.420771 
L 224.285406 168.420771 
L 224.390431 168.168712 
L 224.558471 168.168712 
L 224.663496 167.748612 
L 224.705506 167.664592 
L 224.705506 167.580572 
L 224.852541 167.580572 
L 224.915556 167.328512 
L 225.083596 167.244492 
L 225.188621 166.656352 
L 225.293646 166.572332 
L 225.398671 166.320272 
L 225.461686 166.236252 
L 225.545706 166.068212 
L 225.69274 165.984193 
L 225.77676 165.732133 
L 225.923795 165.648113 
L 226.02882 165.312033 
L 226.175855 165.312033 
L 226.259875 164.807913 
L 226.65897 164.723893 
L 226.763995 163.967713 
L 226.785 163.967713 
L 226.890025 163.463594 
L 226.95304 163.379574 
L 226.974045 163.127514 
L 227.184095 163.043494 
L 227.268115 162.371334 
L 227.41515 162.287314 
L 227.45716 161.867214 
L 227.604195 161.783194 
L 227.688215 161.447114 
L 227.79324 161.363094 
L 227.79324 161.195055 
L 227.982284 161.111035 
L 228.087309 160.354855 
L 228.129319 160.354855 
L 228.234344 159.934755 
L 228.276354 159.850735 
L 228.276354 159.766715 
L 228.402384 159.766715 
L 228.444394 159.430635 
L 228.549419 159.346615 
L 228.570424 158.926516 
L 228.759469 158.842496 
L 228.822484 158.590436 
L 229.032534 158.506416 
L 229.137559 158.338376 
L 229.305599 158.338376 
L 229.389619 158.002296 
L 229.515649 157.918276 
L 229.578664 157.750236 
L 229.662684 157.750236 
L 229.746704 157.498176 
L 229.830724 157.498176 
L 229.872734 157.246116 
L 230.040774 157.162096 
L 230.124794 156.657976 
L 230.271829 156.573957 
L 230.376853 156.237877 
L 230.481878 156.153857 
L 230.586903 155.145617 
L 230.691928 155.061597 
L 230.796953 154.893557 
L 230.838963 154.809537 
L 230.943988 154.305417 
L 231.028008 154.221398 
L 231.133033 153.969338 
L 231.343083 153.885318 
L 231.364088 153.717278 
L 231.469113 153.717278 
L 231.553133 153.129138 
L 231.805193 153.045118 
L 231.889213 152.877078 
L 231.952228 152.793058 
L 232.036248 152.036878 
L 232.099263 152.036878 
L 232.141273 151.700799 
L 232.246298 151.616779 
L 232.351323 151.364719 
L 232.435343 151.364719 
L 232.519363 150.440499 
L 232.687402 150.356479 
L 232.771422 149.936379 
L 232.834437 149.852359 
L 232.876447 149.600299 
L 233.002477 149.51628 
L 233.023482 149.34824 
L 233.191522 149.26422 
L 233.254537 149.09618 
L 233.317552 149.09618 
L 233.422577 148.34 
L 233.485592 148.34 
L 233.506597 148.00392 
L 233.632627 148.00392 
L 233.674637 147.66784 
L 233.821672 147.58382 
L 233.884687 147.079701 
L 233.989712 146.995681 
L 234.052727 146.575581 
L 234.157752 146.491561 
L 234.178757 146.323521 
L 234.409812 146.239501 
L 234.430817 146.071461 
L 234.598857 145.987441 
L 234.703882 145.651361 
L 234.745892 145.651361 
L 234.745892 145.483321 
L 235.018957 145.399301 
L 235.102976 145.231261 
L 235.229006 145.147241 
L 235.334031 144.559102 
L 235.418051 144.475082 
L 235.523076 144.307042 
L 235.586091 144.307042 
L 235.691116 144.054982 
L 235.733126 144.054982 
L 235.775136 143.634882 
L 235.943176 143.550862 
L 236.048201 143.214782 
L 236.195236 143.130762 
L 236.300261 142.626642 
L 236.363276 142.626642 
L 236.447296 142.206543 
L 236.699356 142.122523 
L 236.783376 141.702423 
L 236.930411 141.618403 
L 236.993426 141.450363 
L 237.140461 141.366343 
L 237.140461 141.282323 
L 237.308501 141.282323 
L 237.39252 141.030263 
L 237.47654 141.030263 
L 237.581565 140.442123 
L 237.749605 140.358103 
L 237.85463 140.106043 
L 237.959655 140.022024 
L 238.06468 139.769964 
L 238.169705 139.685944 
L 238.253725 139.349864 
L 238.44277 139.265844 
L 238.547795 138.677704 
L 238.5688 138.677704 
L 238.673825 138.005544 
L 238.77885 137.921524 
L 238.86287 137.585445 
L 238.94689 137.585445 
L 239.051915 136.997305 
L 239.093925 136.913285 
L 239.19895 136.577205 
L 239.24096 136.493185 
L 239.28297 136.241125 
L 239.430005 136.241125 
L 239.49302 135.400925 
L 239.70307 135.316906 
L 239.766084 134.812786 
L 239.850104 134.728766 
L 239.934124 134.308666 
L 240.039149 134.224646 
L 240.123169 133.972586 
L 240.354224 133.888566 
L 240.354224 133.804546 
L 240.501259 133.804546 
L 240.585279 133.384446 
L 240.732314 133.300426 
L 240.837339 132.964347 
L 240.921359 132.880327 
L 241.026384 132.292187 
L 241.152414 132.208167 
L 241.257439 131.620027 
L 241.362464 131.536007 
L 241.446484 131.283947 
L 241.530504 131.283947 
L 241.635529 130.863847 
L 241.656534 130.863847 
L 241.677539 130.611788 
L 241.824574 130.527768 
L 241.887589 130.191688 
L 242.097639 130.107668 
L 242.139648 129.771588 
L 242.286683 129.771588 
L 242.370703 129.267468 
L 242.496733 129.183448 
L 242.601758 128.763348 
L 242.664773 128.763348 
L 242.706783 128.427268 
L 242.853818 128.427268 
L 242.958843 127.839129 
L 243.042863 127.755109 
L 243.126883 127.419029 
L 243.294923 127.419029 
L 243.378943 126.746869 
L 243.462963 126.662849 
L 243.546983 126.158729 
L 243.609998 126.158729 
L 243.715023 125.23451 
L 243.862058 125.15049 
L 243.967083 124.64637 
L 244.009093 124.56235 
L 244.051103 123.80617 
L 244.219143 123.72215 
L 244.324168 122.713911 
L 244.366178 122.629891 
L 244.471202 122.293811 
L 244.576227 122.209791 
L 244.660247 121.621651 
L 244.786277 121.621651 
L 244.849292 121.117532 
L 244.933312 121.033512 
L 245.017332 120.445372 
L 245.080347 120.361352 
L 245.164367 119.773212 
L 245.227382 119.689192 
L 245.290397 119.185072 
L 245.395422 119.101052 
L 245.458437 118.428893 
L 245.542457 118.428893 
L 245.605472 118.176833 
L 245.689492 118.176833 
L 245.794517 117.672713 
L 245.815522 117.672713 
L 245.899542 117.084573 
L 245.941552 117.084573 
L 246.046577 116.412414 
L 246.088587 116.328394 
L 246.193612 115.824274 
L 246.235622 115.740254 
L 246.340647 115.320154 
L 246.403662 115.236134 
L 246.487682 114.732014 
L 246.571702 114.647994 
L 246.655722 114.311914 
L 246.760747 114.227894 
L 246.865771 113.555735 
L 246.928786 113.555735 
L 246.991801 113.051615 
L 247.117831 112.967595 
L 247.201851 112.379455 
L 247.243861 112.379455 
L 247.348886 111.959355 
L 247.411901 111.875335 
L 247.432906 111.623276 
L 247.663961 111.539256 
L 247.663961 111.035136 
L 247.895016 110.951116 
L 248.000041 109.942876 
L 248.126071 109.942876 
L 248.210091 108.850617 
L 248.273106 108.766597 
L 248.336121 108.262477 
L 248.483156 108.178457 
L 248.588181 107.926397 
L 248.651196 107.842377 
L 248.735216 107.254237 
L 248.798231 107.170217 
L 248.882251 106.918158 
L 249.008281 106.918158 
L 249.029286 106.582078 
L 249.134311 106.582078 
L 249.197325 105.825898 
L 249.26034 105.825898 
L 249.281345 105.321778 
L 249.42838 105.237758 
L 249.42838 105.069718 
L 249.68044 104.985698 
L 249.72245 104.817658 
L 249.80647 104.817658 
L 249.911495 103.809419 
L 250.01652 103.725399 
L 250.01652 103.641379 
L 250.163555 103.641379 
L 250.22657 102.969219 
L 250.331595 102.885199 
L 250.43662 102.549119 
L 250.47863 102.549119 
L 250.583655 101.6249 
L 250.625665 101.54088 
L 250.73069 101.37284 
L 250.793705 101.37284 
L 250.877725 101.03676 
L 250.94074 100.95274 
L 251.045765 100.28058 
L 251.06677 100.28058 
L 251.171795 99.692441 
L 251.255815 99.692441 
L 251.31883 99.020281 
L 251.48687 98.936261 
L 251.507875 98.768221 
L 251.654909 98.768221 
L 251.759934 98.264101 
L 251.843954 98.264101 
L 251.864959 98.012041 
L 252.096014 97.928021 
L 252.201039 97.675961 
L 252.264054 97.591942 
L 252.348074 97.171842 
L 252.474104 97.087822 
L 252.516114 96.919782 
L 252.663149 96.835762 
L 252.726164 95.743502 
L 252.810184 95.659482 
L 252.915209 94.735263 
L 252.936214 94.735263 
L 253.020234 94.063103 
L 253.083249 93.979083 
L 253.146264 93.558983 
L 253.209279 93.558983 
L 253.293299 93.138883 
L 253.356314 93.054863 
L 253.461339 92.550744 
L 253.587369 92.466724 
L 253.671389 92.130644 
L 253.755409 92.046624 
L 253.839429 91.710544 
L 253.902443 91.626524 
L 253.986463 90.954364 
L 254.028473 90.954364 
L 254.070483 90.702304 
L 254.175508 90.618284 
L 254.196513 90.366225 
L 254.406563 90.366225 
L 254.511588 89.357985 
L 254.553598 89.357985 
L 254.658623 88.853865 
L 254.721638 88.853865 
L 254.826663 88.097686 
L 254.868673 88.013666 
L 254.973698 86.585326 
L 255.057718 86.501306 
L 255.162743 85.745127 
L 255.330783 85.661107 
L 255.414803 85.156987 
L 255.561838 85.072967 
L 255.666863 84.484827 
L 255.771888 84.400807 
L 255.876913 83.812667 
L 255.960933 83.728647 
L 256.044953 83.392568 
L 256.107968 83.392568 
L 256.191988 83.056488 
L 256.255002 83.056488 
L 256.339022 82.468348 
L 256.402037 82.384328 
L 256.465052 81.964228 
L 256.528067 81.964228 
L 256.633092 81.712168 
L 256.822137 81.628148 
L 256.927162 81.124029 
L 256.969172 81.124029 
L 257.074197 80.115789 
L 257.095202 80.115789 
L 257.200227 79.191569 
L 257.263242 79.191569 
L 257.368267 77.93127 
L 257.389272 77.93127 
L 257.452287 77.51117 
L 257.578317 77.42715 
L 257.662337 77.09107 
L 257.767362 77.09107 
L 257.830377 76.418911 
L 257.914397 76.334891 
L 257.956407 75.914791 
L 258.124447 75.914791 
L 258.208467 75.242631 
L 258.355502 75.158611 
L 258.418517 74.318411 
L 258.502537 74.318411 
L 258.586557 73.982332 
L 258.649571 73.982332 
L 258.733591 73.142132 
L 258.817611 73.058112 
L 258.922636 72.133892 
L 258.964646 72.133892 
L 259.069671 71.209673 
L 259.153691 71.209673 
L 259.237711 70.789573 
L 259.468766 70.705553 
L 259.573791 70.453493 
L 259.636806 70.369473 
L 259.741831 69.361234 
L 259.825851 69.361234 
L 259.825851 69.109174 
L 259.972886 69.109174 
L 260.014896 68.857114 
L 260.140926 68.773094 
L 260.245951 68.016914 
L 260.308966 68.016914 
L 260.413991 67.260734 
L 260.477006 67.260734 
L 260.519016 66.924655 
L 260.645046 66.840635 
L 260.708061 66.420535 
L 260.792081 66.336515 
L 260.876101 65.580335 
L 261.00213 65.496315 
L 261.065145 64.992195 
L 261.191175 64.908175 
L 261.2962 64.656116 
L 261.38022 64.656116 
L 261.485245 63.899936 
L 261.50625 63.899936 
L 261.54826 63.311796 
L 261.67429 63.227776 
L 261.779315 62.975716 
L 261.84233 62.975716 
L 261.92635 62.471596 
L 261.989365 62.387576 
L 262.073385 61.967477 
L 262.1364 61.883457 
L 262.22042 61.127277 
L 262.325445 61.043257 
L 262.38846 60.539137 
L 262.451475 60.539137 
L 262.535495 59.782958 
L 262.577505 59.782958 
L 262.68253 59.362858 
L 262.80856 59.278838 
L 262.913585 58.522658 
L 262.955595 58.438638 
L 263.06062 58.102558 
L 263.081625 58.102558 
L 263.18665 57.178339 
L 263.22866 57.178339 
L 263.31268 56.590199 
L 263.459714 56.506179 
L 263.543734 55.918039 
L 263.627754 55.918039 
L 263.732779 55.581959 
L 263.795794 55.497939 
L 263.900819 55.16186 
L 263.984839 55.07784 
L 264.089864 54.65774 
L 264.194889 54.57372 
L 264.299914 53.98558 
L 264.446949 53.90156 
L 264.530969 53.39744 
L 264.614989 53.31342 
L 264.656999 53.06136 
L 264.741019 53.06136 
L 264.783029 52.641261 
L 264.888054 52.641261 
L 264.972074 52.137141 
L 265.014084 52.137141 
L 265.098104 51.212921 
L 265.224134 51.128901 
L 265.329159 50.708801 
L 265.350164 50.708801 
L 265.455189 50.204682 
L 265.497199 50.120662 
L 265.602224 49.280462 
L 265.686243 49.196442 
L 265.728253 48.776342 
L 265.938303 48.692322 
L 266.022323 48.104183 
L 266.127348 48.104183 
L 266.232373 46.591823 
L 266.274383 46.507803 
L 266.295388 46.003683 
L 266.442423 45.919663 
L 266.547448 44.575344 
L 266.631468 44.491324 
L 266.694483 44.239264 
L 266.778503 44.155244 
L 266.862523 43.735144 
L 267.072573 43.651124 
L 267.114583 43.483084 
L 267.198603 43.483084 
L 267.198603 43.315045 
L 267.219608 43.315045 
" clip-path="url(#paa74ed215b)" style="fill: none; stroke: #1f77b4; stroke-width: 1.5; stroke-linecap: square"/>
   </g>
   <g id="patch_3">
    <path d="M 55.069198 255.465455 
L 55.069198 41.214545 
" style="fill: none; stroke: #000000; stroke-width: 0.8; stroke-linejoin: miter; stroke-linecap: square"/>
   </g>
   <g id="patch_4">
    <path d="M 269.320107 255.465455 
L 269.320107 41.214545 
" style="fill: none; stroke: #000000; stroke-width: 0.8; stroke-linejoin: miter; stroke-linecap: square"/>
   </g>
   <g id="patch_5">
    <path d="M 55.069198 255.465455 
L 269.320107 255.465455 
" style="fill: none; stroke: #000000; stroke-width: 0.8; stroke-linejoin: miter; stroke-linecap: square"/>
   </g>
   <g id="patch_6">
    <path d="M 55.069198 41.214545 
L 269.320107 41.214545 
" style="fill: none; stroke: #000000; stroke-width: 0.8; stroke-linejoin: miter; stroke-linecap: square"/>
   </g>
   <g id="text_15">
    <!-- ROC Curve -->
    <g transform="translate(129.504027 35.214545) scale(0.12 -0.12)">
     <defs>
      <path id="DejaVuSans-4f" d="M 2522 4238 
Q 1834 4238 1429 3725 
Q 1025 3213 1025 2328 
Q 1025 1447 1429 934 
Q 1834 422 2522 422 
Q 3209 422 3611 934 
Q 4013 1447 4013 2328 
Q 4013 3213 3611 3725 
Q 3209 4238 2522 4238 
z
M 2522 4750 
Q 3503 4750 4090 4092 
Q 4678 3434 4678 2328 
Q 4678 1225 4090 567 
Q 3503 -91 2522 -91 
Q 1538 -91 948 565 
Q 359 1222 359 2328 
Q 359 3434 948 4092 
Q 1538 4750 2522 4750 
z
" transform="scale(0.015625)"/>
      <path id="DejaVuSans-43" d="M 4122 4306 
L 4122 3641 
Q 3803 3938 3442 4084 
Q 3081 4231 2675 4231 
Q 1875 4231 1450 3742 
Q 1025 3253 1025 2328 
Q 1025 1406 1450 917 
Q 1875 428 2675 428 
Q 3081 428 3442 575 
Q 3803 722 4122 1019 
L 4122 359 
Q 3791 134 3420 21 
Q 3050 -91 2638 -91 
Q 1578 -91 968 557 
Q 359 1206 359 2328 
Q 359 3453 968 4101 
Q 1578 4750 2638 4750 
Q 3056 4750 3426 4639 
Q 3797 4528 4122 4306 
z
" transform="scale(0.015625)"/>
     </defs>
     <use xlink:href="#DejaVuSans-52"/>
     <use xlink:href="#DejaVuSans-4f" transform="translate(69.482422 0)"/>
     <use xlink:href="#DejaVuSans-43" transform="translate(148.193359 0)"/>
     <use xlink:href="#DejaVuSans-20" transform="translate(218.017578 0)"/>
     <use xlink:href="#DejaVuSans-43" transform="translate(249.804688 0)"/>
     <use xlink:href="#DejaVuSans-75" transform="translate(319.628906 0)"/>
     <use xlink:href="#DejaVuSans-72" transform="translate(383.007812 0)"/>
     <use xlink:href="#DejaVuSans-76" transform="translate(424.121094 0)"/>
     <use xlink:href="#DejaVuSans-65" transform="translate(483.300781 0)"/>
    </g>
   </g>
   <g id="legend_1">
    <g id="patch_7">
     <path d="M 115.546669 250.465455 
L 262.320107 250.465455 
Q 264.320107 250.465455 264.320107 248.465455 
L 264.320107 234.78733 
Q 264.320107 232.78733 262.320107 232.78733 
L 115.546669 232.78733 
Q 113.546669 232.78733 113.546669 234.78733 
L 113.546669 248.465455 
Q 113.546669 250.465455 115.546669 250.465455 
z
" style="fill: #ffffff; opacity: 0.8; stroke: #cccccc; stroke-linejoin: miter"/>
    </g>
    <g id="line2d_14">
     <path d="M 117.546669 240.885767 
L 127.546669 240.885767 
L 137.546669 240.885767 
" style="fill: none; stroke: #1f77b4; stroke-width: 1.5; stroke-linecap: square"/>
    </g>
    <g id="text_16">
     <!-- Classifier (AUC = 0.20) -->
     <g transform="translate(145.546669 244.385767) scale(0.1 -0.1)">
      <defs>
       <path id="DejaVuSans-66" d="M 2375 4863 
L 2375 4384 
L 1825 4384 
Q 1516 4384 1395 4259 
Q 1275 4134 1275 3809 
L 1275 3500 
L 2222 3500 
L 2222 3053 
L 1275 3053 
L 1275 0 
L 697 0 
L 697 3053 
L 147 3053 
L 147 3500 
L 697 3500 
L 697 3744 
Q 697 4328 969 4595 
Q 1241 4863 1831 4863 
L 2375 4863 
z
" transform="scale(0.015625)"/>
       <path id="DejaVuSans-41" d="M 2188 4044 
L 1331 1722 
L 3047 1722 
L 2188 4044 
z
M 1831 4666 
L 2547 4666 
L 4325 0 
L 3669 0 
L 3244 1197 
L 1141 1197 
L 716 0 
L 50 0 
L 1831 4666 
z
" transform="scale(0.015625)"/>
       <path id="DejaVuSans-55" d="M 556 4666 
L 1191 4666 
L 1191 1831 
Q 1191 1081 1462 751 
Q 1734 422 2344 422 
Q 2950 422 3222 751 
Q 3494 1081 3494 1831 
L 3494 4666 
L 4128 4666 
L 4128 1753 
Q 4128 841 3676 375 
Q 3225 -91 2344 -91 
Q 1459 -91 1007 375 
Q 556 841 556 1753 
L 556 4666 
z
" transform="scale(0.015625)"/>
       <path id="DejaVuSans-3d" d="M 678 2906 
L 4684 2906 
L 4684 2381 
L 678 2381 
L 678 2906 
z
M 678 1631 
L 4684 1631 
L 4684 1100 
L 678 1100 
L 678 1631 
z
" transform="scale(0.015625)"/>
      </defs>
      <use xlink:href="#DejaVuSans-43"/>
      <use xlink:href="#DejaVuSans-6c" transform="translate(69.824219 0)"/>
      <use xlink:href="#DejaVuSans-61" transform="translate(97.607422 0)"/>
      <use xlink:href="#DejaVuSans-73" transform="translate(158.886719 0)"/>
      <use xlink:href="#DejaVuSans-73" transform="translate(210.986328 0)"/>
      <use xlink:href="#DejaVuSans-69" transform="translate(263.085938 0)"/>
      <use xlink:href="#DejaVuSans-66" transform="translate(290.869141 0)"/>
      <use xlink:href="#DejaVuSans-69" transform="translate(326.074219 0)"/>
      <use xlink:href="#DejaVuSans-65" transform="translate(353.857422 0)"/>
      <use xlink:href="#DejaVuSans-72" transform="translate(415.380859 0)"/>
      <use xlink:href="#DejaVuSans-20" transform="translate(456.494141 0)"/>
      <use xlink:href="#DejaVuSans-28" transform="translate(488.28125 0)"/>
      <use xlink:href="#DejaVuSans-41" transform="translate(527.294922 0)"/>
      <use xlink:href="#DejaVuSans-55" transform="translate(595.703125 0)"/>
      <use xlink:href="#DejaVuSans-43" transform="translate(668.896484 0)"/>
      <use xlink:href="#DejaVuSans-20" transform="translate(738.720703 0)"/>
      <use xlink:href="#DejaVuSans-3d" transform="translate(770.507812 0)"/>
      <use xlink:href="#DejaVuSans-20" transform="translate(854.296875 0)"/>
      <use xlink:href="#DejaVuSans-30" transform="translate(886.083984 0)"/>
      <use xlink:href="#DejaVuSans-2e" transform="translate(949.707031 0)"/>
      <use xlink:href="#DejaVuSans-32" transform="translate(981.494141 0)"/>
      <use xlink:href="#DejaVuSans-30" transform="translate(1045.117188 0)"/>
      <use xlink:href="#DejaVuSans-29" transform="translate(1108.740234 0)"/>
     </g>
    </g>
   </g>
  </g>
  <g id="axes_2">
   <g id="patch_8">
    <path d="M 337.669198 255.465455 
L 551.920107 255.465455 
L 551.920107 41.214545 
L 337.669198 41.214545 
z
" style="fill: #ffffff"/>
   </g>
   <g id="matplotlib.axis_3">
    <g id="xtick_7">
     <g id="line2d_15">
      <g>
       <use xlink:href="#me3bf8f86fb" x="339.769697" y="255.465455" style="stroke: #000000; stroke-width: 0.8"/>
      </g>
     </g>
     <g id="text_17">
      <!-- 0.0 -->
      <g transform="translate(331.818134 270.063892) scale(0.1 -0.1)">
       <use xlink:href="#DejaVuSans-30"/>
       <use xlink:href="#DejaVuSans-2e" transform="translate(63.623047 0)"/>
       <use xlink:href="#DejaVuSans-30" transform="translate(95.410156 0)"/>
      </g>
     </g>
    </g>
    <g id="xtick_8">
     <g id="line2d_16">
      <g>
       <use xlink:href="#me3bf8f86fb" x="381.779679" y="255.465455" style="stroke: #000000; stroke-width: 0.8"/>
      </g>
     </g>
     <g id="text_18">
      <!-- 0.2 -->
      <g transform="translate(373.828117 270.063892) scale(0.1 -0.1)">
       <use xlink:href="#DejaVuSans-30"/>
       <use xlink:href="#DejaVuSans-2e" transform="translate(63.623047 0)"/>
       <use xlink:href="#DejaVuSans-32" transform="translate(95.410156 0)"/>
      </g>
     </g>
    </g>
    <g id="xtick_9">
     <g id="line2d_17">
      <g>
       <use xlink:href="#me3bf8f86fb" x="423.789661" y="255.465455" style="stroke: #000000; stroke-width: 0.8"/>
      </g>
     </g>
     <g id="text_19">
      <!-- 0.4 -->
      <g transform="translate(415.838099 270.063892) scale(0.1 -0.1)">
       <use xlink:href="#DejaVuSans-30"/>
       <use xlink:href="#DejaVuSans-2e" transform="translate(63.623047 0)"/>
       <use xlink:href="#DejaVuSans-34" transform="translate(95.410156 0)"/>
      </g>
     </g>
    </g>
    <g id="xtick_10">
     <g id="line2d_18">
      <g>
       <use xlink:href="#me3bf8f86fb" x="465.799643" y="255.465455" style="stroke: #000000; stroke-width: 0.8"/>
      </g>
     </g>
     <g id="text_20">
      <!-- 0.6 -->
      <g transform="translate(457.848081 270.063892) scale(0.1 -0.1)">
       <use xlink:href="#DejaVuSans-30"/>
       <use xlink:href="#DejaVuSans-2e" transform="translate(63.623047 0)"/>
       <use xlink:href="#DejaVuSans-36" transform="translate(95.410156 0)"/>
      </g>
     </g>
    </g>
    <g id="xtick_11">
     <g id="line2d_19">
      <g>
       <use xlink:href="#me3bf8f86fb" x="507.809626" y="255.465455" style="stroke: #000000; stroke-width: 0.8"/>
      </g>
     </g>
     <g id="text_21">
      <!-- 0.8 -->
      <g transform="translate(499.858063 270.063892) scale(0.1 -0.1)">
       <use xlink:href="#DejaVuSans-30"/>
       <use xlink:href="#DejaVuSans-2e" transform="translate(63.623047 0)"/>
       <use xlink:href="#DejaVuSans-38" transform="translate(95.410156 0)"/>
      </g>
     </g>
    </g>
    <g id="xtick_12">
     <g id="line2d_20">
      <g>
       <use xlink:href="#me3bf8f86fb" x="549.819608" y="255.465455" style="stroke: #000000; stroke-width: 0.8"/>
      </g>
     </g>
     <g id="text_22">
      <!-- 1.0 -->
      <g transform="translate(541.868045 270.063892) scale(0.1 -0.1)">
       <use xlink:href="#DejaVuSans-31"/>
       <use xlink:href="#DejaVuSans-2e" transform="translate(63.623047 0)"/>
       <use xlink:href="#DejaVuSans-30" transform="translate(95.410156 0)"/>
      </g>
     </g>
    </g>
    <g id="text_23">
     <!-- Recall (Positive label: 1) -->
     <g transform="translate(384.978246 283.742017) scale(0.1 -0.1)">
      <defs>
       <path id="DejaVuSans-63" d="M 3122 3366 
L 3122 2828 
Q 2878 2963 2633 3030 
Q 2388 3097 2138 3097 
Q 1578 3097 1268 2742 
Q 959 2388 959 1747 
Q 959 1106 1268 751 
Q 1578 397 2138 397 
Q 2388 397 2633 464 
Q 2878 531 3122 666 
L 3122 134 
Q 2881 22 2623 -34 
Q 2366 -91 2075 -91 
Q 1284 -91 818 406 
Q 353 903 353 1747 
Q 353 2603 823 3093 
Q 1294 3584 2113 3584 
Q 2378 3584 2631 3529 
Q 2884 3475 3122 3366 
z
" transform="scale(0.015625)"/>
      </defs>
      <use xlink:href="#DejaVuSans-52"/>
      <use xlink:href="#DejaVuSans-65" transform="translate(64.982422 0)"/>
      <use xlink:href="#DejaVuSans-63" transform="translate(126.505859 0)"/>
      <use xlink:href="#DejaVuSans-61" transform="translate(181.486328 0)"/>
      <use xlink:href="#DejaVuSans-6c" transform="translate(242.765625 0)"/>
      <use xlink:href="#DejaVuSans-6c" transform="translate(270.548828 0)"/>
      <use xlink:href="#DejaVuSans-20" transform="translate(298.332031 0)"/>
      <use xlink:href="#DejaVuSans-28" transform="translate(330.119141 0)"/>
      <use xlink:href="#DejaVuSans-50" transform="translate(369.132812 0)"/>
      <use xlink:href="#DejaVuSans-6f" transform="translate(425.810547 0)"/>
      <use xlink:href="#DejaVuSans-73" transform="translate(486.992188 0)"/>
      <use xlink:href="#DejaVuSans-69" transform="translate(539.091797 0)"/>
      <use xlink:href="#DejaVuSans-74" transform="translate(566.875 0)"/>
      <use xlink:href="#DejaVuSans-69" transform="translate(606.083984 0)"/>
      <use xlink:href="#DejaVuSans-76" transform="translate(633.867188 0)"/>
      <use xlink:href="#DejaVuSans-65" transform="translate(693.046875 0)"/>
      <use xlink:href="#DejaVuSans-20" transform="translate(754.570312 0)"/>
      <use xlink:href="#DejaVuSans-6c" transform="translate(786.357422 0)"/>
      <use xlink:href="#DejaVuSans-61" transform="translate(814.140625 0)"/>
      <use xlink:href="#DejaVuSans-62" transform="translate(875.419922 0)"/>
      <use xlink:href="#DejaVuSans-65" transform="translate(938.896484 0)"/>
      <use xlink:href="#DejaVuSans-6c" transform="translate(1000.419922 0)"/>
      <use xlink:href="#DejaVuSans-3a" transform="translate(1028.203125 0)"/>
      <use xlink:href="#DejaVuSans-20" transform="translate(1061.894531 0)"/>
      <use xlink:href="#DejaVuSans-31" transform="translate(1093.681641 0)"/>
      <use xlink:href="#DejaVuSans-29" transform="translate(1157.304688 0)"/>
     </g>
    </g>
   </g>
   <g id="matplotlib.axis_4">
    <g id="ytick_7">
     <g id="line2d_21">
      <g>
       <use xlink:href="#mdc3f7322b9" x="337.669198" y="253.364955" style="stroke: #000000; stroke-width: 0.8"/>
      </g>
     </g>
     <g id="text_24">
      <!-- 0.0 -->
      <g transform="translate(314.766073 257.164174) scale(0.1 -0.1)">
       <use xlink:href="#DejaVuSans-30"/>
       <use xlink:href="#DejaVuSans-2e" transform="translate(63.623047 0)"/>
       <use xlink:href="#DejaVuSans-30" transform="translate(95.410156 0)"/>
      </g>
     </g>
    </g>
    <g id="ytick_8">
     <g id="line2d_22">
      <g>
       <use xlink:href="#mdc3f7322b9" x="337.669198" y="211.354973" style="stroke: #000000; stroke-width: 0.8"/>
      </g>
     </g>
     <g id="text_25">
      <!-- 0.2 -->
      <g transform="translate(314.766073 215.154192) scale(0.1 -0.1)">
       <use xlink:href="#DejaVuSans-30"/>
       <use xlink:href="#DejaVuSans-2e" transform="translate(63.623047 0)"/>
       <use xlink:href="#DejaVuSans-32" transform="translate(95.410156 0)"/>
      </g>
     </g>
    </g>
    <g id="ytick_9">
     <g id="line2d_23">
      <g>
       <use xlink:href="#mdc3f7322b9" x="337.669198" y="169.344991" style="stroke: #000000; stroke-width: 0.8"/>
      </g>
     </g>
     <g id="text_26">
      <!-- 0.4 -->
      <g transform="translate(314.766073 173.14421) scale(0.1 -0.1)">
       <use xlink:href="#DejaVuSans-30"/>
       <use xlink:href="#DejaVuSans-2e" transform="translate(63.623047 0)"/>
       <use xlink:href="#DejaVuSans-34" transform="translate(95.410156 0)"/>
      </g>
     </g>
    </g>
    <g id="ytick_10">
     <g id="line2d_24">
      <g>
       <use xlink:href="#mdc3f7322b9" x="337.669198" y="127.335009" style="stroke: #000000; stroke-width: 0.8"/>
      </g>
     </g>
     <g id="text_27">
      <!-- 0.6 -->
      <g transform="translate(314.766073 131.134228) scale(0.1 -0.1)">
       <use xlink:href="#DejaVuSans-30"/>
       <use xlink:href="#DejaVuSans-2e" transform="translate(63.623047 0)"/>
       <use xlink:href="#DejaVuSans-36" transform="translate(95.410156 0)"/>
      </g>
     </g>
    </g>
    <g id="ytick_11">
     <g id="line2d_25">
      <g>
       <use xlink:href="#mdc3f7322b9" x="337.669198" y="85.325027" style="stroke: #000000; stroke-width: 0.8"/>
      </g>
     </g>
     <g id="text_28">
      <!-- 0.8 -->
      <g transform="translate(314.766073 89.124245) scale(0.1 -0.1)">
       <use xlink:href="#DejaVuSans-30"/>
       <use xlink:href="#DejaVuSans-2e" transform="translate(63.623047 0)"/>
       <use xlink:href="#DejaVuSans-38" transform="translate(95.410156 0)"/>
      </g>
     </g>
    </g>
    <g id="ytick_12">
     <g id="line2d_26">
      <g>
       <use xlink:href="#mdc3f7322b9" x="337.669198" y="43.315045" style="stroke: #000000; stroke-width: 0.8"/>
      </g>
     </g>
     <g id="text_29">
      <!-- 1.0 -->
      <g transform="translate(314.766073 47.114263) scale(0.1 -0.1)">
       <use xlink:href="#DejaVuSans-31"/>
       <use xlink:href="#DejaVuSans-2e" transform="translate(63.623047 0)"/>
       <use xlink:href="#DejaVuSans-30" transform="translate(95.410156 0)"/>
      </g>
     </g>
    </g>
    <g id="text_30">
     <!-- Precision (Positive label: 1) -->
     <g transform="translate(308.686385 215.54625) rotate(-90) scale(0.1 -0.1)">
      <defs>
       <path id="DejaVuSans-6e" d="M 3513 2113 
L 3513 0 
L 2938 0 
L 2938 2094 
Q 2938 2591 2744 2837 
Q 2550 3084 2163 3084 
Q 1697 3084 1428 2787 
Q 1159 2491 1159 1978 
L 1159 0 
L 581 0 
L 581 3500 
L 1159 3500 
L 1159 2956 
Q 1366 3272 1645 3428 
Q 1925 3584 2291 3584 
Q 2894 3584 3203 3211 
Q 3513 2838 3513 2113 
z
" transform="scale(0.015625)"/>
      </defs>
      <use xlink:href="#DejaVuSans-50"/>
      <use xlink:href="#DejaVuSans-72" transform="translate(58.552734 0)"/>
      <use xlink:href="#DejaVuSans-65" transform="translate(97.416016 0)"/>
      <use xlink:href="#DejaVuSans-63" transform="translate(158.939453 0)"/>
      <use xlink:href="#DejaVuSans-69" transform="translate(213.919922 0)"/>
      <use xlink:href="#DejaVuSans-73" transform="translate(241.703125 0)"/>
      <use xlink:href="#DejaVuSans-69" transform="translate(293.802734 0)"/>
      <use xlink:href="#DejaVuSans-6f" transform="translate(321.585938 0)"/>
      <use xlink:href="#DejaVuSans-6e" transform="translate(382.767578 0)"/>
      <use xlink:href="#DejaVuSans-20" transform="translate(446.146484 0)"/>
      <use xlink:href="#DejaVuSans-28" transform="translate(477.933594 0)"/>
      <use xlink:href="#DejaVuSans-50" transform="translate(516.947266 0)"/>
      <use xlink:href="#DejaVuSans-6f" transform="translate(573.625 0)"/>
      <use xlink:href="#DejaVuSans-73" transform="translate(634.806641 0)"/>
      <use xlink:href="#DejaVuSans-69" transform="translate(686.90625 0)"/>
      <use xlink:href="#DejaVuSans-74" transform="translate(714.689453 0)"/>
      <use xlink:href="#DejaVuSans-69" transform="translate(753.898438 0)"/>
      <use xlink:href="#DejaVuSans-76" transform="translate(781.681641 0)"/>
      <use xlink:href="#DejaVuSans-65" transform="translate(840.861328 0)"/>
      <use xlink:href="#DejaVuSans-20" transform="translate(902.384766 0)"/>
      <use xlink:href="#DejaVuSans-6c" transform="translate(934.171875 0)"/>
      <use xlink:href="#DejaVuSans-61" transform="translate(961.955078 0)"/>
      <use xlink:href="#DejaVuSans-62" transform="translate(1023.234375 0)"/>
      <use xlink:href="#DejaVuSans-65" transform="translate(1086.710938 0)"/>
      <use xlink:href="#DejaVuSans-6c" transform="translate(1148.234375 0)"/>
      <use xlink:href="#DejaVuSans-3a" transform="translate(1176.017578 0)"/>
      <use xlink:href="#DejaVuSans-20" transform="translate(1209.708984 0)"/>
      <use xlink:href="#DejaVuSans-31" transform="translate(1241.496094 0)"/>
      <use xlink:href="#DejaVuSans-29" transform="translate(1305.119141 0)"/>
     </g>
    </g>
   </g>
   <g id="line2d_27">
    <path d="M 549.819608 211.354973 
L 549.819608 211.351612 
L 549.735588 211.365057 
L 548.391268 211.462933 
L 548.307248 211.489945 
L 548.307248 211.486581 
L 547.467049 211.594818 
L 547.383029 211.621886 
L 546.458809 211.723838 
L 546.374789 211.750975 
L 546.374789 211.747622 
L 545.61861 211.852915 
L 545.53459 211.880098 
L 545.53459 211.876752 
L 544.61037 211.976061 
L 544.52635 212.003317 
L 543.434091 212.106974 
L 543.350071 212.127641 
L 542.425851 212.237851 
L 542.341831 212.261933 
L 542.341831 212.258597 
L 541.333591 212.366274 
L 541.249571 212.393775 
L 541.249571 212.390443 
L 540.325352 212.491488 
L 540.241332 212.512405 
L 539.317112 212.610539 
L 539.233092 212.631539 
L 539.233092 212.624883 
L 538.224853 212.727331 
L 538.140833 212.748425 
L 538.140833 212.738443 
L 536.964553 212.845962 
L 536.880533 212.870495 
L 535.872294 212.974068 
L 535.788274 212.998692 
L 535.788274 212.995366 
L 535.032094 213.097307 
L 534.948074 213.121991 
L 534.023855 213.225709 
L 533.939835 213.253788 
L 533.939835 213.250474 
L 533.015615 213.347995 
L 532.931595 213.372844 
L 532.091395 213.469932 
L 532.007375 213.491547 
L 532.007375 213.48162 
L 531.251196 213.581453 
L 531.167176 213.606443 
L 531.167176 213.599835 
L 530.242956 213.705182 
L 530.158936 213.733557 
L 530.158936 213.723655 
L 529.234717 213.822849 
L 529.150697 213.848012 
L 528.142457 213.952043 
L 528.058437 213.967412 
L 528.058437 213.964114 
L 527.134217 214.070863 
L 527.050198 214.099503 
L 526.125978 214.196825 
L 526.041958 214.218969 
L 525.201758 214.32209 
L 525.117738 214.350886 
L 525.117738 214.341029 
L 524.361559 214.439932 
L 524.277539 214.465512 
L 524.277539 214.449103 
L 523.353319 214.550999 
L 523.269299 214.579953 
L 522.09302 214.679991 
L 522.009 214.705791 
L 521.1688 214.807311 
L 521.08478 214.836463 
L 520.3286 214.933562 
L 520.24458 214.962776 
L 520.24458 214.959507 
L 519.404381 215.065002 
L 519.320361 215.094288 
L 518.396141 215.198531 
L 518.312121 215.227903 
L 517.387902 215.335888 
L 517.303882 215.365344 
L 516.379662 215.464058 
L 516.295642 215.493604 
L 516.295642 215.490353 
L 515.287402 215.591395 
L 515.203383 215.621047 
L 515.203383 215.617799 
L 514.447203 215.726791 
L 514.363183 215.756502 
L 513.607003 215.856043 
L 513.522983 215.885817 
L 513.522983 215.879348 
L 512.766804 215.975962 
L 512.682784 216.005806 
L 512.682784 216.002577 
L 512.010624 216.107119 
L 511.926604 216.130569 
L 510.834344 216.232987 
L 510.750324 216.259785 
L 510.750324 216.256563 
L 509.910125 216.362858 
L 509.826105 216.380091 
L 508.985905 216.47716 
L 508.901885 216.497707 
L 508.061686 216.598424 
L 507.977666 216.62228 
L 507.977666 216.606221 
L 507.137466 216.704173 
L 507.053446 216.728129 
L 507.053446 216.718498 
L 506.297266 216.827326 
L 506.213246 216.857772 
L 506.213246 216.854569 
L 505.541087 216.961222 
L 505.457067 216.985329 
L 505.457067 216.982134 
L 504.784907 217.07941 
L 504.700887 217.100402 
L 504.700887 217.094022 
L 503.944707 217.197299 
L 503.860687 217.221565 
L 503.104508 217.331521 
L 503.020488 217.352692 
L 502.012248 217.458352 
L 501.928228 217.485999 
L 501.928228 217.47647 
L 501.172048 217.587223 
L 501.088029 217.608609 
L 501.088029 217.602268 
L 500.163809 217.706318 
L 500.079789 217.734156 
L 500.079789 217.730988 
L 499.239589 217.835893 
L 499.155569 217.863826 
L 499.155569 217.860662 
L 498.39939 217.966233 
L 498.31537 217.994245 
L 497.55919 218.103293 
L 497.47517 218.134531 
L 497.47517 218.131382 
L 496.71899 218.240746 
L 496.63497 218.272053 
L 495.710751 218.378617 
L 495.626731 218.400617 
L 495.626731 218.397479 
L 494.534471 218.501664 
L 494.450451 218.526948 
L 493.526232 218.625421 
L 493.442212 218.657097 
L 493.442212 218.64455 
L 492.686032 218.752623 
L 492.602012 218.781249 
L 491.761812 218.889952 
L 491.677793 218.912425 
L 491.677793 218.896791 
L 491.005633 218.995928 
L 490.921613 219.027855 
L 490.081413 219.124965 
L 489.997393 219.156991 
L 489.997393 219.153875 
L 489.157194 219.254614 
L 489.073174 219.28674 
L 488.401014 219.383752 
L 488.316994 219.415943 
L 488.316994 219.403525 
L 487.308754 219.512663 
L 487.224734 219.535682 
L 486.552575 219.639664 
L 486.468555 219.656578 
L 485.628355 219.756196 
L 485.544335 219.788707 
L 485.544335 219.779425 
L 484.704135 219.879581 
L 484.620116 219.912203 
L 483.863936 220.021232 
L 483.779916 220.053931 
L 483.023736 220.157176 
L 482.939716 220.186883 
L 482.267557 220.292521 
L 482.183537 220.322301 
L 482.183537 220.306961 
L 481.343337 220.402916 
L 481.259317 220.432822 
L 481.259317 220.429755 
L 480.503137 220.531188 
L 480.419117 220.561191 
L 479.662938 220.659988 
L 479.578918 220.693143 
L 479.578918 220.683978 
L 478.906758 220.784903 
L 478.822738 220.80899 
L 478.822738 220.802891 
L 478.066558 220.905563 
L 477.982538 220.938895 
L 477.982538 220.932808 
L 477.226359 221.035912 
L 477.142339 221.057185 
L 477.142339 221.054145 
L 476.470179 221.165214 
L 476.386159 221.189623 
L 475.713999 221.28583 
L 475.629979 221.319413 
L 475.629979 221.316389 
L 474.95782 221.415937 
L 474.8738 221.437528 
L 474.8738 221.428471 
L 474.20164 221.528365 
L 474.11762 221.559102 
L 473.36144 221.667203 
L 473.27742 221.695033 
L 473.27742 221.689022 
L 472.605261 221.792608 
L 472.521241 221.826529 
L 471.849081 221.921435 
L 471.765061 221.955436 
L 471.765061 221.952446 
L 471.092901 222.047695 
L 471.008881 222.078795 
L 471.008881 222.069843 
L 470.252702 222.170617 
L 470.168682 222.201829 
L 469.496522 222.309729 
L 469.412502 222.343993 
L 469.412502 222.332112 
L 468.740342 222.434396 
L 468.656322 222.468746 
L 467.984163 222.568391 
L 467.900143 222.596911 
L 467.900143 222.582127 
L 467.227983 222.688049 
L 467.143963 222.72257 
L 466.471803 222.822913 
L 466.387783 222.854573 
L 466.387783 222.845748 
L 465.715624 222.955259 
L 465.715624 222.972599 
L 465.715624 222.949112 
L 465.631604 222.957653 
L 464.959444 223.055808 
L 464.875424 223.087674 
L 464.875424 223.084743 
L 464.035224 223.191815 
L 463.951204 223.226739 
L 463.951204 223.215031 
L 463.195025 223.314019 
L 463.111005 223.349062 
L 463.111005 223.34614 
L 462.270805 223.44279 
L 462.186785 223.472133 
L 462.186785 223.469213 
L 461.430605 223.563494 
L 461.346585 223.598799 
L 461.346585 223.595884 
L 460.674426 223.690486 
L 460.590406 223.720067 
L 460.590406 223.717157 
L 459.918246 223.815071 
L 459.834226 223.844762 
L 459.834226 223.841859 
L 458.825986 223.938876 
L 458.741966 223.965858 
L 458.069807 224.067754 
L 457.985787 224.103547 
L 457.985787 224.094853 
L 457.229607 224.203516 
L 457.145587 224.239424 
L 456.389407 224.345727 
L 456.305388 224.378862 
L 456.305388 224.370208 
L 455.633228 224.476289 
L 455.549208 224.512406 
L 455.549208 224.500897 
L 454.877048 224.595882 
L 454.793028 224.632109 
L 454.793028 224.629238 
L 454.204888 224.726561 
L 454.120868 224.762862 
L 453.280669 224.863603 
L 453.196649 224.900051 
L 453.196649 224.885757 
L 452.356449 224.990126 
L 452.272429 225.02388 
L 452.272429 225.021024 
L 451.26419 225.128668 
L 451.18017 225.162628 
L 451.18017 225.156916 
L 450.33997 225.247366 
L 450.25595 225.299965 
L 450.25595 225.294261 
L 449.49977 225.399667 
L 449.49977 225.418217 
L 449.49977 225.398273 
L 449.41575 225.411138 
L 448.743591 225.512796 
L 448.659571 225.535812 
L 448.659571 225.532966 
L 447.987411 225.640776 
L 447.903391 225.67245 
L 447.903391 225.661099 
L 447.063191 225.758643 
L 447.063191 225.777407 
L 447.063191 225.757531 
L 446.979171 225.77347 
L 446.222992 225.870036 
L 446.138972 225.904899 
L 446.138972 225.899227 
L 445.550832 225.995474 
L 445.466812 226.024781 
L 445.466812 226.013461 
L 444.794652 226.120535 
L 444.710632 226.149983 
L 444.710632 226.13586 
L 444.206513 226.230782 
L 444.122493 226.268779 
L 443.282293 226.375424 
L 443.198273 226.410776 
L 443.198273 226.405156 
L 442.526113 226.505251 
L 442.442093 226.543535 
L 442.442093 226.540732 
L 441.853954 226.64731 
L 441.769934 226.685672 
L 441.769934 226.674502 
L 441.097774 226.775523 
L 441.013754 226.805654 
L 440.425614 226.91014 
L 440.341594 226.948718 
L 440.341594 226.945943 
L 439.585415 227.039527 
L 439.501395 227.078267 
L 438.661195 227.183726 
L 438.577175 227.208804 
L 437.905015 227.312081 
L 437.820995 227.351133 
L 437.232856 227.454634 
L 437.148836 227.493771 
L 436.476676 227.589764 
L 436.392656 227.623545 
L 436.392656 227.620801 
L 435.720496 227.722848 
L 435.636476 227.762248 
L 435.636476 227.751303 
L 434.880297 227.851818 
L 434.796277 227.891392 
L 434.796277 227.869522 
L 433.956077 227.971571 
L 433.872057 228.011372 
L 433.199897 228.112682 
L 433.115877 228.149888 
L 433.115877 228.136258 
L 432.611758 228.228059 
L 432.527738 228.268083 
L 432.527738 228.26265 
L 432.023618 228.357388 
L 431.939598 228.394783 
L 431.939598 228.373117 
L 431.351458 228.469306 
L 431.267438 228.501439 
L 431.267438 228.490624 
L 430.679298 228.587257 
L 430.595278 228.62493 
L 430.091159 228.717878 
L 430.007139 228.750269 
L 430.007139 228.731454 
L 429.418999 228.842294 
L 429.334979 228.882864 
L 429.334979 228.869473 
L 428.746839 228.978 
L 428.662819 229.016012 
L 427.90664 229.117769 
L 427.82262 229.158632 
L 427.82262 229.139985 
L 427.15046 229.240732 
L 427.06644 229.268471 
L 427.06644 229.263149 
L 426.39428 229.361909 
L 426.31026 229.395156 
L 426.31026 229.3925 
L 425.80614 229.487706 
L 425.72212 229.513134 
L 425.72212 229.505189 
L 425.049961 229.613068 
L 424.965941 229.654546 
L 424.965941 229.633411 
L 424.377801 229.726426 
L 424.293781 229.768059 
L 424.293781 229.760151 
L 423.705641 229.861553 
L 423.621621 229.898056 
L 423.621621 229.892801 
L 423.117502 229.986838 
L 423.033482 230.028693 
L 423.033482 230.018224 
L 422.529362 230.109935 
L 422.445342 230.146677 
L 422.445342 230.144069 
L 421.941222 230.241278 
L 421.857202 230.278133 
L 421.857202 230.275536 
L 421.269062 230.38372 
L 421.185042 230.4233 
L 420.680923 230.518502 
L 420.596903 230.558182 
L 420.596903 230.542727 
L 420.008763 230.64401 
L 419.924743 230.678709 
L 419.924743 230.668431 
L 419.420623 230.761784 
L 419.420623 230.783042 
L 419.420623 230.75997 
L 419.336603 230.773557 
L 418.832483 230.869842 
L 418.748463 230.912497 
L 418.160324 231.022783 
L 418.076304 231.065546 
L 417.488164 231.163584 
L 417.404144 231.188754 
L 417.404144 231.183685 
L 416.731984 231.278524 
L 416.647964 231.30646 
L 416.143845 231.396743 
L 416.059825 231.437464 
L 415.471685 231.539703 
L 415.387665 231.583077 
L 414.883545 231.681602 
L 414.799525 231.725065 
L 414.799525 231.722568 
L 414.211385 231.825733 
L 414.127365 231.856894 
L 414.127365 231.821999 
L 413.539226 231.918345 
L 413.539226 231.940255 
L 413.539226 231.917831 
L 413.455206 231.937275 
L 412.951086 232.039595 
L 412.867066 232.083551 
L 412.362946 232.178718 
L 412.278926 232.220307 
L 412.278926 232.215373 
L 411.774806 232.318263 
L 411.690786 232.350144 
L 411.186667 232.446 
L 411.102647 232.485389 
L 411.102647 232.480499 
L 410.514507 232.581848 
L 410.430487 232.604352 
L 410.430487 232.59703 
L 409.842347 232.694163 
L 409.758327 232.731515 
L 409.758327 232.704715 
L 409.254207 232.797154 
L 409.170188 232.837125 
L 409.170188 232.832266 
L 408.582048 232.937901 
L 408.498028 232.982888 
L 407.909888 233.089096 
L 407.825868 233.131821 
L 407.321748 233.227981 
L 407.321748 233.2506 
L 407.321748 233.226614 
L 407.237728 233.249263 
L 406.733609 233.345867 
L 406.649589 233.391269 
L 406.649589 233.379332 
L 406.061449 233.475296 
L 405.977429 233.520892 
L 405.977429 233.516133 
L 405.389289 233.622284 
L 405.305269 233.665673 
L 405.305269 233.660935 
L 404.633109 233.759959 
L 404.549089 233.80596 
L 404.04497 233.909305 
L 403.96095 233.946014 
L 403.96095 233.943664 
L 403.45683 234.045047 
L 403.37281 234.091285 
L 403.37281 234.088948 
L 402.78467 234.188262 
L 402.70065 234.227699 
L 402.70065 234.220713 
L 402.112511 234.327741 
L 402.028491 234.367399 
L 401.440351 234.470489 
L 401.356331 234.514982 
L 401.356331 234.512674 
L 400.852211 234.604517 
L 400.768191 234.649168 
L 400.768191 234.630774 
L 400.180051 234.719174 
L 400.096031 234.759498 
L 400.096031 234.745716 
L 399.507892 234.837263 
L 399.423872 234.880147 
L 398.835732 234.988525 
L 398.751712 235.036175 
L 398.751712 235.033897 
L 398.163572 235.133912 
L 398.079552 235.179497 
L 398.079552 235.177228 
L 397.575432 235.274407 
L 397.491412 235.308863 
L 397.491412 235.302083 
L 396.903273 235.392347 
L 396.819253 235.433865 
L 396.315133 235.541257 
L 396.231113 235.57623 
L 395.811013 235.673196 
L 395.726993 235.710584 
L 395.726993 235.703897 
L 395.222873 235.805452 
L 395.138853 235.847505 
L 395.138853 235.845288 
L 394.634734 235.934091 
L 394.550714 235.982985 
L 394.550714 235.976365 
L 393.962574 236.081521 
L 393.878554 236.13064 
L 393.878554 236.126247 
L 393.374434 236.231704 
L 393.290414 236.276604 
L 393.290414 236.235037 
L 392.786294 236.328053 
L 392.702275 236.377607 
L 392.702275 236.373245 
L 392.114135 236.480871 
L 392.030115 236.521969 
L 392.030115 236.515453 
L 391.525995 236.603342 
L 391.441975 236.649027 
L 391.441975 236.642535 
L 390.937855 236.733278 
L 390.853835 236.768419 
L 390.853835 236.766262 
L 390.349716 236.868459 
L 390.265696 236.91889 
L 390.265696 236.908171 
L 389.845596 237.004904 
L 389.761576 237.046938 
L 389.761576 237.040544 
L 389.341476 237.131204 
L 389.257456 237.177673 
L 388.753336 237.266642 
L 388.669316 237.317561 
L 387.997157 237.403716 
L 387.913137 237.4424 
L 387.913137 237.438186 
L 387.409017 237.531067 
L 387.324997 237.57005 
L 386.904897 237.656632 
L 386.820877 237.704198 
L 386.400777 237.791179 
L 386.316757 237.818175 
L 386.316757 237.805703 
L 385.896657 237.897363 
L 385.812637 237.932947 
L 385.812637 237.928808 
L 385.308518 238.022327 
L 385.224498 238.06649 
L 385.224498 238.060309 
L 384.804398 238.157081 
L 384.720378 238.203501 
L 384.216258 238.300483 
L 384.132238 238.353267 
L 384.132238 238.351235 
L 383.712138 238.436683 
L 383.628118 238.489626 
L 383.628118 238.485589 
L 383.123999 238.585995 
L 383.039979 238.633142 
L 383.039979 238.629129 
L 382.451839 238.73304 
L 382.367819 238.774559 
L 381.863699 238.862816 
L 381.779679 238.906674 
L 381.779679 238.890733 
L 381.191539 238.989137 
L 381.107519 239.043371 
L 380.6034 239.131714 
L 380.51938 239.172394 
L 380.51938 239.160521 
L 380.09928 239.248146 
L 380.01526 239.300948 
L 379.59516 239.393004 
L 379.51114 239.444035 
L 379.51114 239.434276 
L 378.923 239.531461 
L 378.83898 239.586819 
L 378.83898 239.577094 
L 378.250841 239.67966 
L 378.166821 239.725738 
L 377.662701 239.815282 
L 377.578681 239.857888 
L 377.074561 239.946608 
L 376.990541 239.995399 
L 376.990541 239.993478 
L 376.486421 240.077569 
L 376.402401 240.117196 
L 376.402401 240.09416 
L 375.982302 240.194917 
L 375.898282 240.25018 
L 375.898282 240.244464 
L 375.478182 240.355176 
L 375.394162 240.410605 
L 375.394162 240.40872 
L 374.890042 240.499744 
L 374.806022 240.557409 
L 374.806022 240.555536 
L 374.301902 240.651489 
L 374.217882 240.702044 
L 374.217882 240.694592 
L 373.797783 240.777463 
L 373.713763 240.835771 
L 373.713763 240.826515 
L 373.293663 240.919397 
L 373.209643 240.972447 
L 373.209643 240.970609 
L 372.873563 241.053082 
L 372.789543 241.108145 
L 372.789543 241.099039 
L 372.285423 241.204501 
L 372.201403 241.263573 
L 372.201403 241.259959 
L 371.613263 241.356686 
L 371.529243 241.409095 
L 371.529243 241.385645 
L 371.109144 241.483729 
L 371.025124 241.541901 
L 371.025124 241.538322 
L 370.605024 241.631749 
L 370.521004 241.691972 
L 370.521004 241.688426 
L 370.100904 241.791429 
L 370.016884 241.843095 
L 369.680804 241.925166 
L 369.596784 241.982309 
L 369.596784 241.970133 
L 369.260704 242.056058 
L 369.176684 242.11343 
L 369.176684 242.111707 
L 368.840605 242.196197 
L 368.756585 242.257166 
L 368.756585 242.250351 
L 368.336485 242.350498 
L 368.252465 242.399923 
L 367.748345 242.50479 
L 367.664325 242.548053 
L 367.664325 242.529565 
L 367.244225 242.633434 
L 367.160205 242.665538 
L 367.160205 242.62358 
L 366.824125 242.704031 
L 366.740106 242.76338 
L 366.740106 242.761713 
L 366.404026 242.849233 
L 366.320006 242.910432 
L 365.815886 243.015538 
L 365.731866 243.067411 
L 365.731866 243.057599 
L 365.395786 243.144686 
L 365.311766 243.193695 
L 365.311766 243.182341 
L 364.891666 243.285785 
L 364.807646 243.33694 
L 364.807646 243.335333 
L 364.471566 243.426748 
L 364.387547 243.487789 
L 364.387547 243.483031 
L 363.967447 243.588111 
L 363.883427 243.641677 
L 363.547347 243.724656 
L 363.463327 243.787902 
L 363.463327 243.780154 
L 363.127247 243.865211 
L 363.043227 243.913392 
L 363.043227 243.891848 
L 362.707147 243.985282 
L 362.623127 244.044633 
L 362.623127 244.04007 
L 362.287047 244.130861 
L 362.203027 244.196519 
L 362.203027 244.19352 
L 361.866948 244.274271 
L 361.782928 244.340181 
L 361.362828 244.445785 
L 361.278808 244.503258 
L 361.278808 244.466597 
L 360.858708 244.556073 
L 360.774688 244.618707 
L 360.354588 244.718323 
L 360.270568 244.781439 
L 360.270568 244.775685 
L 359.934488 244.872751 
L 359.850468 244.921981 
L 359.850468 244.910606 
L 359.430369 245.018366 
L 359.346349 245.085201 
L 359.346349 245.066951 
L 359.010269 245.155698 
L 358.926249 245.224316 
L 358.926249 245.214619 
L 358.506149 245.304106 
L 358.422129 245.363741 
L 358.422129 245.35687 
L 358.086049 245.446048 
L 358.002029 245.508901 
L 358.002029 245.498053 
L 357.581929 245.582623 
L 357.497909 245.623378 
L 357.497909 245.615256 
L 357.16183 245.718756 
L 357.07781 245.780331 
L 357.07781 245.776341 
L 356.57369 245.876479 
L 356.48967 245.943092 
L 356.15359 246.038068 
L 356.06957 246.098607 
L 356.06957 246.097311 
L 355.73349 246.184083 
L 355.64947 246.238868 
L 355.64947 246.226054 
L 355.31339 246.324176 
L 355.22937 246.396116 
L 355.22937 246.394859 
L 354.893291 246.474953 
L 354.809271 246.542431 
L 354.809271 246.539954 
L 354.473191 246.634793 
L 354.389171 246.708848 
L 354.389171 246.690616 
L 354.053091 246.768347 
L 353.969071 246.840707 
L 353.548971 246.947952 
L 353.464951 247.017507 
L 353.464951 247.013975 
L 353.128871 247.099485 
L 353.044851 247.167404 
L 352.708771 247.268001 
L 352.624752 247.344417 
L 352.624752 247.34216 
L 352.288672 247.435809 
L 352.204652 247.501623 
L 351.868572 247.607444 
L 351.784552 247.68471 
L 351.784552 247.679334 
L 351.448472 247.781704 
L 351.364452 247.858328 
L 351.364452 247.842592 
L 350.944352 247.946921 
L 350.860332 248.021616 
L 350.860332 248.014398 
L 350.608272 248.092415 
L 350.524252 248.166504 
L 350.524252 248.128027 
L 350.272193 248.203823 
L 350.188173 248.283764 
L 350.188173 248.282772 
L 349.936113 248.360837 
L 349.852093 248.433242 
L 349.852093 248.410948 
L 349.516013 248.516694 
L 349.431993 248.591094 
L 349.431993 248.561667 
L 349.095913 248.662659 
L 349.011893 248.743857 
L 349.011893 248.729022 
L 348.759833 248.803244 
L 348.675813 248.884116 
L 348.675813 248.870549 
L 348.423753 248.944642 
L 348.339733 249.027014 
L 348.003653 249.115887 
L 347.919634 249.200025 
L 347.919634 249.191493 
L 347.667574 249.271675 
L 347.583554 249.351263 
L 347.583554 249.344655 
L 347.247474 249.450171 
L 347.163454 249.534787 
L 347.163454 249.526037 
L 346.743354 249.608474 
L 346.659334 249.693224 
L 346.659334 249.675923 
L 346.323254 249.777076 
L 346.239234 249.846608 
L 346.239234 249.83509 
L 345.987174 249.925273 
L 345.903154 250.013339 
L 345.903154 250.009672 
L 345.651094 250.090132 
L 345.567075 250.180283 
L 345.567075 250.178182 
L 345.315015 250.256885 
L 345.230995 250.346997 
L 345.230995 250.321432 
L 344.894915 250.395714 
L 344.810895 250.482294 
L 344.810895 250.478994 
L 344.558835 250.560422 
L 344.474815 250.630693 
L 344.474815 250.612781 
L 344.138735 250.717477 
L 344.054715 250.779258 
L 344.054715 250.755958 
L 343.802655 250.850924 
L 343.718635 250.939318 
L 343.718635 250.933942 
L 343.466575 251.015988 
L 343.382555 251.114234 
L 343.382555 251.113673 
L 343.130496 251.205465 
L 343.046476 251.305125 
L 343.046476 251.283668 
L 342.794416 251.379809 
L 342.710396 251.478925 
L 342.710396 251.475532 
L 342.458336 251.560309 
L 342.374316 251.662145 
L 342.374316 251.649133 
L 342.122256 251.740136 
L 342.038236 251.848147 
L 342.038236 251.844487 
L 341.786176 251.934098 
L 341.702156 252.035526 
L 341.450096 252.145423 
L 341.366076 252.252341 
L 341.366076 252.240111 
L 341.198036 252.295092 
L 341.114016 252.402252 
L 341.114016 252.395028 
L 340.945976 252.451695 
L 340.861957 252.56908 
L 340.861957 252.560167 
L 340.693917 252.620098 
L 340.609897 252.74055 
L 340.609897 252.705872 
L 340.441857 252.767468 
L 340.357837 252.89369 
L 340.357837 252.887414 
L 340.189797 252.954167 
L 340.105777 253.090291 
L 340.105777 253.08757 
L 339.937737 253.156848 
L 339.853717 253.290231 
L 339.853717 253.286461 
L 339.769697 253.286461 
L 339.769697 253.364955 
L 339.769697 43.315045 
L 339.769697 43.315045 
" clip-path="url(#pcaa5b95a6f)" style="fill: none; stroke: #1f77b4; stroke-width: 1.5; stroke-linecap: square"/>
   </g>
   <g id="patch_9">
    <path d="M 337.669198 255.465455 
L 337.669198 41.214545 
" style="fill: none; stroke: #000000; stroke-width: 0.8; stroke-linejoin: miter; stroke-linecap: square"/>
   </g>
   <g id="patch_10">
    <path d="M 551.920107 255.465455 
L 551.920107 41.214545 
" style="fill: none; stroke: #000000; stroke-width: 0.8; stroke-linejoin: miter; stroke-linecap: square"/>
   </g>
   <g id="patch_11">
    <path d="M 337.669198 255.465455 
L 551.920107 255.465455 
" style="fill: none; stroke: #000000; stroke-width: 0.8; stroke-linejoin: miter; stroke-linecap: square"/>
   </g>
   <g id="patch_12">
    <path d="M 337.669198 41.214545 
L 551.920107 41.214545 
" style="fill: none; stroke: #000000; stroke-width: 0.8; stroke-linejoin: miter; stroke-linecap: square"/>
   </g>
   <g id="text_31">
    <!-- Precision-Recall Curve -->
    <g transform="translate(378.352152 35.214545) scale(0.12 -0.12)">
     <defs>
      <path id="DejaVuSans-2d" d="M 313 2009 
L 1997 2009 
L 1997 1497 
L 313 1497 
L 313 2009 
z
" transform="scale(0.015625)"/>
     </defs>
     <use xlink:href="#DejaVuSans-50"/>
     <use xlink:href="#DejaVuSans-72" transform="translate(58.552734 0)"/>
     <use xlink:href="#DejaVuSans-65" transform="translate(97.416016 0)"/>
     <use xlink:href="#DejaVuSans-63" transform="translate(158.939453 0)"/>
     <use xlink:href="#DejaVuSans-69" transform="translate(213.919922 0)"/>
     <use xlink:href="#DejaVuSans-73" transform="translate(241.703125 0)"/>
     <use xlink:href="#DejaVuSans-69" transform="translate(293.802734 0)"/>
     <use xlink:href="#DejaVuSans-6f" transform="translate(321.585938 0)"/>
     <use xlink:href="#DejaVuSans-6e" transform="translate(382.767578 0)"/>
     <use xlink:href="#DejaVuSans-2d" transform="translate(446.146484 0)"/>
     <use xlink:href="#DejaVuSans-52" transform="translate(482.230469 0)"/>
     <use xlink:href="#DejaVuSans-65" transform="translate(547.212891 0)"/>
     <use xlink:href="#DejaVuSans-63" transform="translate(608.736328 0)"/>
     <use xlink:href="#DejaVuSans-61" transform="translate(663.716797 0)"/>
     <use xlink:href="#DejaVuSans-6c" transform="translate(724.996094 0)"/>
     <use xlink:href="#DejaVuSans-6c" transform="translate(752.779297 0)"/>
     <use xlink:href="#DejaVuSans-20" transform="translate(780.5625 0)"/>
     <use xlink:href="#DejaVuSans-43" transform="translate(812.349609 0)"/>
     <use xlink:href="#DejaVuSans-75" transform="translate(882.173828 0)"/>
     <use xlink:href="#DejaVuSans-72" transform="translate(945.552734 0)"/>
     <use xlink:href="#DejaVuSans-76" transform="translate(986.666016 0)"/>
     <use xlink:href="#DejaVuSans-65" transform="translate(1045.845703 0)"/>
    </g>
   </g>
   <g id="legend_2">
    <g id="patch_13">
     <path d="M 344.669198 250.465455 
L 483.17076 250.465455 
Q 485.17076 250.465455 485.17076 248.465455 
L 485.17076 234.78733 
Q 485.17076 232.78733 483.17076 232.78733 
L 344.669198 232.78733 
Q 342.669198 232.78733 342.669198 234.78733 
L 342.669198 248.465455 
Q 342.669198 250.465455 344.669198 250.465455 
z
" style="fill: #ffffff; opacity: 0.8; stroke: #cccccc; stroke-linejoin: miter"/>
    </g>
    <g id="line2d_28">
     <path d="M 346.669198 240.885767 
L 356.669198 240.885767 
L 356.669198 240.885767 
L 366.669198 240.885767 
L 366.669198 240.885767 
" style="fill: none; stroke: #1f77b4; stroke-width: 1.5; stroke-linecap: square"/>
    </g>
    <g id="text_32">
     <!-- Classifier (AP = 0.12) -->
     <g transform="translate(374.669198 244.385767) scale(0.1 -0.1)">
      <use xlink:href="#DejaVuSans-43"/>
      <use xlink:href="#DejaVuSans-6c" transform="translate(69.824219 0)"/>
      <use xlink:href="#DejaVuSans-61" transform="translate(97.607422 0)"/>
      <use xlink:href="#DejaVuSans-73" transform="translate(158.886719 0)"/>
      <use xlink:href="#DejaVuSans-73" transform="translate(210.986328 0)"/>
      <use xlink:href="#DejaVuSans-69" transform="translate(263.085938 0)"/>
      <use xlink:href="#DejaVuSans-66" transform="translate(290.869141 0)"/>
      <use xlink:href="#DejaVuSans-69" transform="translate(326.074219 0)"/>
      <use xlink:href="#DejaVuSans-65" transform="translate(353.857422 0)"/>
      <use xlink:href="#DejaVuSans-72" transform="translate(415.380859 0)"/>
      <use xlink:href="#DejaVuSans-20" transform="translate(456.494141 0)"/>
      <use xlink:href="#DejaVuSans-28" transform="translate(488.28125 0)"/>
      <use xlink:href="#DejaVuSans-41" transform="translate(527.294922 0)"/>
      <use xlink:href="#DejaVuSans-50" transform="translate(595.703125 0)"/>
      <use xlink:href="#DejaVuSans-20" transform="translate(656.005859 0)"/>
      <use xlink:href="#DejaVuSans-3d" transform="translate(687.792969 0)"/>
      <use xlink:href="#DejaVuSans-20" transform="translate(771.582031 0)"/>
      <use xlink:href="#DejaVuSans-30" transform="translate(803.369141 0)"/>
      <use xlink:href="#DejaVuSans-2e" transform="translate(866.992188 0)"/>
      <use xlink:href="#DejaVuSans-31" transform="translate(898.779297 0)"/>
      <use xlink:href="#DejaVuSans-32" transform="translate(962.402344 0)"/>
      <use xlink:href="#DejaVuSans-29" transform="translate(1026.025391 0)"/>
     </g>
    </g>
   </g>
  </g>
  <g id="text_33">
   <!-- OOD detection performance -->
   <g transform="translate(203.355938 14.878125) scale(0.12 -0.12)">
    <defs>
     <path id="DejaVuSans-44" d="M 1259 4147 
L 1259 519 
L 2022 519 
Q 2988 519 3436 956 
Q 3884 1394 3884 2338 
Q 3884 3275 3436 3711 
Q 2988 4147 2022 4147 
L 1259 4147 
z
M 628 4666 
L 1925 4666 
Q 3281 4666 3915 4102 
Q 4550 3538 4550 2338 
Q 4550 1131 3912 565 
Q 3275 0 1925 0 
L 628 0 
L 628 4666 
z
" transform="scale(0.015625)"/>
     <path id="DejaVuSans-64" d="M 2906 2969 
L 2906 4863 
L 3481 4863 
L 3481 0 
L 2906 0 
L 2906 525 
Q 2725 213 2448 61 
Q 2172 -91 1784 -91 
Q 1150 -91 751 415 
Q 353 922 353 1747 
Q 353 2572 751 3078 
Q 1150 3584 1784 3584 
Q 2172 3584 2448 3432 
Q 2725 3281 2906 2969 
z
M 947 1747 
Q 947 1113 1208 752 
Q 1469 391 1925 391 
Q 2381 391 2643 752 
Q 2906 1113 2906 1747 
Q 2906 2381 2643 2742 
Q 2381 3103 1925 3103 
Q 1469 3103 1208 2742 
Q 947 2381 947 1747 
z
" transform="scale(0.015625)"/>
     <path id="DejaVuSans-70" d="M 1159 525 
L 1159 -1331 
L 581 -1331 
L 581 3500 
L 1159 3500 
L 1159 2969 
Q 1341 3281 1617 3432 
Q 1894 3584 2278 3584 
Q 2916 3584 3314 3078 
Q 3713 2572 3713 1747 
Q 3713 922 3314 415 
Q 2916 -91 2278 -91 
Q 1894 -91 1617 61 
Q 1341 213 1159 525 
z
M 3116 1747 
Q 3116 2381 2855 2742 
Q 2594 3103 2138 3103 
Q 1681 3103 1420 2742 
Q 1159 2381 1159 1747 
Q 1159 1113 1420 752 
Q 1681 391 2138 391 
Q 2594 391 2855 752 
Q 3116 1113 3116 1747 
z
" transform="scale(0.015625)"/>
     <path id="DejaVuSans-6d" d="M 3328 2828 
Q 3544 3216 3844 3400 
Q 4144 3584 4550 3584 
Q 5097 3584 5394 3201 
Q 5691 2819 5691 2113 
L 5691 0 
L 5113 0 
L 5113 2094 
Q 5113 2597 4934 2840 
Q 4756 3084 4391 3084 
Q 3944 3084 3684 2787 
Q 3425 2491 3425 1978 
L 3425 0 
L 2847 0 
L 2847 2094 
Q 2847 2600 2669 2842 
Q 2491 3084 2119 3084 
Q 1678 3084 1418 2786 
Q 1159 2488 1159 1978 
L 1159 0 
L 581 0 
L 581 3500 
L 1159 3500 
L 1159 2956 
Q 1356 3278 1631 3431 
Q 1906 3584 2284 3584 
Q 2666 3584 2933 3390 
Q 3200 3197 3328 2828 
z
" transform="scale(0.015625)"/>
    </defs>
    <use xlink:href="#DejaVuSans-4f"/>
    <use xlink:href="#DejaVuSans-4f" transform="translate(78.710938 0)"/>
    <use xlink:href="#DejaVuSans-44" transform="translate(157.421875 0)"/>
    <use xlink:href="#DejaVuSans-20" transform="translate(234.423828 0)"/>
    <use xlink:href="#DejaVuSans-64" transform="translate(266.210938 0)"/>
    <use xlink:href="#DejaVuSans-65" transform="translate(329.6875 0)"/>
    <use xlink:href="#DejaVuSans-74" transform="translate(391.210938 0)"/>
    <use xlink:href="#DejaVuSans-65" transform="translate(430.419922 0)"/>
    <use xlink:href="#DejaVuSans-63" transform="translate(491.943359 0)"/>
    <use xlink:href="#DejaVuSans-74" transform="translate(546.923828 0)"/>
    <use xlink:href="#DejaVuSans-69" transform="translate(586.132812 0)"/>
    <use xlink:href="#DejaVuSans-6f" transform="translate(613.916016 0)"/>
    <use xlink:href="#DejaVuSans-6e" transform="translate(675.097656 0)"/>
    <use xlink:href="#DejaVuSans-20" transform="translate(738.476562 0)"/>
    <use xlink:href="#DejaVuSans-70" transform="translate(770.263672 0)"/>
    <use xlink:href="#DejaVuSans-65" transform="translate(833.740234 0)"/>
    <use xlink:href="#DejaVuSans-72" transform="translate(895.263672 0)"/>
    <use xlink:href="#DejaVuSans-66" transform="translate(936.376953 0)"/>
    <use xlink:href="#DejaVuSans-6f" transform="translate(971.582031 0)"/>
    <use xlink:href="#DejaVuSans-72" transform="translate(1032.763672 0)"/>
    <use xlink:href="#DejaVuSans-6d" transform="translate(1072.126953 0)"/>
    <use xlink:href="#DejaVuSans-61" transform="translate(1169.539062 0)"/>
    <use xlink:href="#DejaVuSans-6e" transform="translate(1230.818359 0)"/>
    <use xlink:href="#DejaVuSans-63" transform="translate(1294.197266 0)"/>
    <use xlink:href="#DejaVuSans-65" transform="translate(1349.177734 0)"/>
   </g>
  </g>
 </g>
 <defs>
  <clipPath id="paa74ed215b">
   <rect x="55.069198" y="41.214545" width="214.250909" height="214.250909"/>
  </clipPath>
  <clipPath id="pcaa5b95a6f">
   <rect x="337.669198" y="41.214545" width="214.250909" height="214.250909"/>
  </clipPath>
 </defs>
</svg>
