<?xml version="1.0" encoding="utf-8" standalone="no"?>
<!DOCTYPE svg PUBLIC "-//W3C//DTD SVG 1.1//EN"
  "http://www.w3.org/Graphics/SVG/1.1/DTD/svg11.dtd">
<svg xmlns:xlink="http://www.w3.org/1999/xlink" width="576pt" height="288pt" viewBox="0 0 576 288" xmlns="http://www.w3.org/2000/svg" version="1.1">
 <metadata>
  <rdf:RDF xmlns:dc="http://purl.org/dc/elements/1.1/" xmlns:cc="http://creativecommons.org/ns#" xmlns:rdf="http://www.w3.org/1999/02/22-rdf-syntax-ns#">
   <cc:Work>
    <dc:type rdf:resource="http://purl.org/dc/dcmitype/StillImage"/>
    <dc:date>2025-05-25T10:06:38.307231</dc:date>
    <dc:format>image/svg+xml</dc:format>
    <dc:creator>
     <cc:Agent>
      <dc:title>Matplotlib v3.10.1, https://matplotlib.org/</dc:title>
     </cc:Agent>
    </dc:creator>
   </cc:Work>
  </rdf:RDF>
 </metadata>
 <defs>
  <style type="text/css">*{stroke-linejoin: round; stroke-linecap: butt}</style>
 </defs>
 <g id="figure_1">
  <g id="patch_1">
   <path d="M 0 288 
L 576 288 
L 576 0 
L 0 0 
z
" style="fill: #ffffff"/>
  </g>
  <g id="axes_1">
   <g id="patch_2">
    <path d="M 55.069198 255.465455 
L 269.320107 255.465455 
L 269.320107 41.214545 
L 55.069198 41.214545 
z
" style="fill: #ffffff"/>
   </g>
   <g id="matplotlib.axis_1">
    <g id="xtick_1">
     <g id="line2d_1">
      <defs>
       <path id="mf29f6dfe9d" d="M 0 0 
L 0 3.5 
" style="stroke: #000000; stroke-width: 0.8"/>
      </defs>
      <g>
       <use xlink:href="#mf29f6dfe9d" x="57.169697" y="255.465455" style="stroke: #000000; stroke-width: 0.8"/>
      </g>
     </g>
     <g id="text_1">
      <!-- 0.0 -->
      <g transform="translate(49.218134 270.063892) scale(0.1 -0.1)">
       <defs>
        <path id="DejaVuSans-30" d="M 2034 4250 
Q 1547 4250 1301 3770 
Q 1056 3291 1056 2328 
Q 1056 1369 1301 889 
Q 1547 409 2034 409 
Q 2525 409 2770 889 
Q 3016 1369 3016 2328 
Q 3016 3291 2770 3770 
Q 2525 4250 2034 4250 
z
M 2034 4750 
Q 2819 4750 3233 4129 
Q 3647 3509 3647 2328 
Q 3647 1150 3233 529 
Q 2819 -91 2034 -91 
Q 1250 -91 836 529 
Q 422 1150 422 2328 
Q 422 3509 836 4129 
Q 1250 4750 2034 4750 
z
" transform="scale(0.015625)"/>
        <path id="DejaVuSans-2e" d="M 684 794 
L 1344 794 
L 1344 0 
L 684 0 
L 684 794 
z
" transform="scale(0.015625)"/>
       </defs>
       <use xlink:href="#DejaVuSans-30"/>
       <use xlink:href="#DejaVuSans-2e" transform="translate(63.623047 0)"/>
       <use xlink:href="#DejaVuSans-30" transform="translate(95.410156 0)"/>
      </g>
     </g>
    </g>
    <g id="xtick_2">
     <g id="line2d_2">
      <g>
       <use xlink:href="#mf29f6dfe9d" x="99.179679" y="255.465455" style="stroke: #000000; stroke-width: 0.8"/>
      </g>
     </g>
     <g id="text_2">
      <!-- 0.2 -->
      <g transform="translate(91.228117 270.063892) scale(0.1 -0.1)">
       <defs>
        <path id="DejaVuSans-32" d="M 1228 531 
L 3431 531 
L 3431 0 
L 469 0 
L 469 531 
Q 828 903 1448 1529 
Q 2069 2156 2228 2338 
Q 2531 2678 2651 2914 
Q 2772 3150 2772 3378 
Q 2772 3750 2511 3984 
Q 2250 4219 1831 4219 
Q 1534 4219 1204 4116 
Q 875 4013 500 3803 
L 500 4441 
Q 881 4594 1212 4672 
Q 1544 4750 1819 4750 
Q 2544 4750 2975 4387 
Q 3406 4025 3406 3419 
Q 3406 3131 3298 2873 
Q 3191 2616 2906 2266 
Q 2828 2175 2409 1742 
Q 1991 1309 1228 531 
z
" transform="scale(0.015625)"/>
       </defs>
       <use xlink:href="#DejaVuSans-30"/>
       <use xlink:href="#DejaVuSans-2e" transform="translate(63.623047 0)"/>
       <use xlink:href="#DejaVuSans-32" transform="translate(95.410156 0)"/>
      </g>
     </g>
    </g>
    <g id="xtick_3">
     <g id="line2d_3">
      <g>
       <use xlink:href="#mf29f6dfe9d" x="141.189661" y="255.465455" style="stroke: #000000; stroke-width: 0.8"/>
      </g>
     </g>
     <g id="text_3">
      <!-- 0.4 -->
      <g transform="translate(133.238099 270.063892) scale(0.1 -0.1)">
       <defs>
        <path id="DejaVuSans-34" d="M 2419 4116 
L 825 1625 
L 2419 1625 
L 2419 4116 
z
M 2253 4666 
L 3047 4666 
L 3047 1625 
L 3713 1625 
L 3713 1100 
L 3047 1100 
L 3047 0 
L 2419 0 
L 2419 1100 
L 313 1100 
L 313 1709 
L 2253 4666 
z
" transform="scale(0.015625)"/>
       </defs>
       <use xlink:href="#DejaVuSans-30"/>
       <use xlink:href="#DejaVuSans-2e" transform="translate(63.623047 0)"/>
       <use xlink:href="#DejaVuSans-34" transform="translate(95.410156 0)"/>
      </g>
     </g>
    </g>
    <g id="xtick_4">
     <g id="line2d_4">
      <g>
       <use xlink:href="#mf29f6dfe9d" x="183.199643" y="255.465455" style="stroke: #000000; stroke-width: 0.8"/>
      </g>
     </g>
     <g id="text_4">
      <!-- 0.6 -->
      <g transform="translate(175.248081 270.063892) scale(0.1 -0.1)">
       <defs>
        <path id="DejaVuSans-36" d="M 2113 2584 
Q 1688 2584 1439 2293 
Q 1191 2003 1191 1497 
Q 1191 994 1439 701 
Q 1688 409 2113 409 
Q 2538 409 2786 701 
Q 3034 994 3034 1497 
Q 3034 2003 2786 2293 
Q 2538 2584 2113 2584 
z
M 3366 4563 
L 3366 3988 
Q 3128 4100 2886 4159 
Q 2644 4219 2406 4219 
Q 1781 4219 1451 3797 
Q 1122 3375 1075 2522 
Q 1259 2794 1537 2939 
Q 1816 3084 2150 3084 
Q 2853 3084 3261 2657 
Q 3669 2231 3669 1497 
Q 3669 778 3244 343 
Q 2819 -91 2113 -91 
Q 1303 -91 875 529 
Q 447 1150 447 2328 
Q 447 3434 972 4092 
Q 1497 4750 2381 4750 
Q 2619 4750 2861 4703 
Q 3103 4656 3366 4563 
z
" transform="scale(0.015625)"/>
       </defs>
       <use xlink:href="#DejaVuSans-30"/>
       <use xlink:href="#DejaVuSans-2e" transform="translate(63.623047 0)"/>
       <use xlink:href="#DejaVuSans-36" transform="translate(95.410156 0)"/>
      </g>
     </g>
    </g>
    <g id="xtick_5">
     <g id="line2d_5">
      <g>
       <use xlink:href="#mf29f6dfe9d" x="225.209626" y="255.465455" style="stroke: #000000; stroke-width: 0.8"/>
      </g>
     </g>
     <g id="text_5">
      <!-- 0.8 -->
      <g transform="translate(217.258063 270.063892) scale(0.1 -0.1)">
       <defs>
        <path id="DejaVuSans-38" d="M 2034 2216 
Q 1584 2216 1326 1975 
Q 1069 1734 1069 1313 
Q 1069 891 1326 650 
Q 1584 409 2034 409 
Q 2484 409 2743 651 
Q 3003 894 3003 1313 
Q 3003 1734 2745 1975 
Q 2488 2216 2034 2216 
z
M 1403 2484 
Q 997 2584 770 2862 
Q 544 3141 544 3541 
Q 544 4100 942 4425 
Q 1341 4750 2034 4750 
Q 2731 4750 3128 4425 
Q 3525 4100 3525 3541 
Q 3525 3141 3298 2862 
Q 3072 2584 2669 2484 
Q 3125 2378 3379 2068 
Q 3634 1759 3634 1313 
Q 3634 634 3220 271 
Q 2806 -91 2034 -91 
Q 1263 -91 848 271 
Q 434 634 434 1313 
Q 434 1759 690 2068 
Q 947 2378 1403 2484 
z
M 1172 3481 
Q 1172 3119 1398 2916 
Q 1625 2713 2034 2713 
Q 2441 2713 2670 2916 
Q 2900 3119 2900 3481 
Q 2900 3844 2670 4047 
Q 2441 4250 2034 4250 
Q 1625 4250 1398 4047 
Q 1172 3844 1172 3481 
z
" transform="scale(0.015625)"/>
       </defs>
       <use xlink:href="#DejaVuSans-30"/>
       <use xlink:href="#DejaVuSans-2e" transform="translate(63.623047 0)"/>
       <use xlink:href="#DejaVuSans-38" transform="translate(95.410156 0)"/>
      </g>
     </g>
    </g>
    <g id="xtick_6">
     <g id="line2d_6">
      <g>
       <use xlink:href="#mf29f6dfe9d" x="267.219608" y="255.465455" style="stroke: #000000; stroke-width: 0.8"/>
      </g>
     </g>
     <g id="text_6">
      <!-- 1.0 -->
      <g transform="translate(259.268045 270.063892) scale(0.1 -0.1)">
       <defs>
        <path id="DejaVuSans-31" d="M 794 531 
L 1825 531 
L 1825 4091 
L 703 3866 
L 703 4441 
L 1819 4666 
L 2450 4666 
L 2450 531 
L 3481 531 
L 3481 0 
L 794 0 
L 794 531 
z
" transform="scale(0.015625)"/>
       </defs>
       <use xlink:href="#DejaVuSans-31"/>
       <use xlink:href="#DejaVuSans-2e" transform="translate(63.623047 0)"/>
       <use xlink:href="#DejaVuSans-30" transform="translate(95.410156 0)"/>
      </g>
     </g>
    </g>
    <g id="text_7">
     <!-- False Positive Rate (Positive label: 1) -->
     <g transform="translate(70.829027 283.742017) scale(0.1 -0.1)">
      <defs>
       <path id="DejaVuSans-46" d="M 628 4666 
L 3309 4666 
L 3309 4134 
L 1259 4134 
L 1259 2759 
L 3109 2759 
L 3109 2228 
L 1259 2228 
L 1259 0 
L 628 0 
L 628 4666 
z
" transform="scale(0.015625)"/>
       <path id="DejaVuSans-61" d="M 2194 1759 
Q 1497 1759 1228 1600 
Q 959 1441 959 1056 
Q 959 750 1161 570 
Q 1363 391 1709 391 
Q 2188 391 2477 730 
Q 2766 1069 2766 1631 
L 2766 1759 
L 2194 1759 
z
M 3341 1997 
L 3341 0 
L 2766 0 
L 2766 531 
Q 2569 213 2275 61 
Q 1981 -91 1556 -91 
Q 1019 -91 701 211 
Q 384 513 384 1019 
Q 384 1609 779 1909 
Q 1175 2209 1959 2209 
L 2766 2209 
L 2766 2266 
Q 2766 2663 2505 2880 
Q 2244 3097 1772 3097 
Q 1472 3097 1187 3025 
Q 903 2953 641 2809 
L 641 3341 
Q 956 3463 1253 3523 
Q 1550 3584 1831 3584 
Q 2591 3584 2966 3190 
Q 3341 2797 3341 1997 
z
" transform="scale(0.015625)"/>
       <path id="DejaVuSans-6c" d="M 603 4863 
L 1178 4863 
L 1178 0 
L 603 0 
L 603 4863 
z
" transform="scale(0.015625)"/>
       <path id="DejaVuSans-73" d="M 2834 3397 
L 2834 2853 
Q 2591 2978 2328 3040 
Q 2066 3103 1784 3103 
Q 1356 3103 1142 2972 
Q 928 2841 928 2578 
Q 928 2378 1081 2264 
Q 1234 2150 1697 2047 
L 1894 2003 
Q 2506 1872 2764 1633 
Q 3022 1394 3022 966 
Q 3022 478 2636 193 
Q 2250 -91 1575 -91 
Q 1294 -91 989 -36 
Q 684 19 347 128 
L 347 722 
Q 666 556 975 473 
Q 1284 391 1588 391 
Q 1994 391 2212 530 
Q 2431 669 2431 922 
Q 2431 1156 2273 1281 
Q 2116 1406 1581 1522 
L 1381 1569 
Q 847 1681 609 1914 
Q 372 2147 372 2553 
Q 372 3047 722 3315 
Q 1072 3584 1716 3584 
Q 2034 3584 2315 3537 
Q 2597 3491 2834 3397 
z
" transform="scale(0.015625)"/>
       <path id="DejaVuSans-65" d="M 3597 1894 
L 3597 1613 
L 953 1613 
Q 991 1019 1311 708 
Q 1631 397 2203 397 
Q 2534 397 2845 478 
Q 3156 559 3463 722 
L 3463 178 
Q 3153 47 2828 -22 
Q 2503 -91 2169 -91 
Q 1331 -91 842 396 
Q 353 884 353 1716 
Q 353 2575 817 3079 
Q 1281 3584 2069 3584 
Q 2775 3584 3186 3129 
Q 3597 2675 3597 1894 
z
M 3022 2063 
Q 3016 2534 2758 2815 
Q 2500 3097 2075 3097 
Q 1594 3097 1305 2825 
Q 1016 2553 972 2059 
L 3022 2063 
z
" transform="scale(0.015625)"/>
       <path id="DejaVuSans-20" transform="scale(0.015625)"/>
       <path id="DejaVuSans-50" d="M 1259 4147 
L 1259 2394 
L 2053 2394 
Q 2494 2394 2734 2622 
Q 2975 2850 2975 3272 
Q 2975 3691 2734 3919 
Q 2494 4147 2053 4147 
L 1259 4147 
z
M 628 4666 
L 2053 4666 
Q 2838 4666 3239 4311 
Q 3641 3956 3641 3272 
Q 3641 2581 3239 2228 
Q 2838 1875 2053 1875 
L 1259 1875 
L 1259 0 
L 628 0 
L 628 4666 
z
" transform="scale(0.015625)"/>
       <path id="DejaVuSans-6f" d="M 1959 3097 
Q 1497 3097 1228 2736 
Q 959 2375 959 1747 
Q 959 1119 1226 758 
Q 1494 397 1959 397 
Q 2419 397 2687 759 
Q 2956 1122 2956 1747 
Q 2956 2369 2687 2733 
Q 2419 3097 1959 3097 
z
M 1959 3584 
Q 2709 3584 3137 3096 
Q 3566 2609 3566 1747 
Q 3566 888 3137 398 
Q 2709 -91 1959 -91 
Q 1206 -91 779 398 
Q 353 888 353 1747 
Q 353 2609 779 3096 
Q 1206 3584 1959 3584 
z
" transform="scale(0.015625)"/>
       <path id="DejaVuSans-69" d="M 603 3500 
L 1178 3500 
L 1178 0 
L 603 0 
L 603 3500 
z
M 603 4863 
L 1178 4863 
L 1178 4134 
L 603 4134 
L 603 4863 
z
" transform="scale(0.015625)"/>
       <path id="DejaVuSans-74" d="M 1172 4494 
L 1172 3500 
L 2356 3500 
L 2356 3053 
L 1172 3053 
L 1172 1153 
Q 1172 725 1289 603 
Q 1406 481 1766 481 
L 2356 481 
L 2356 0 
L 1766 0 
Q 1100 0 847 248 
Q 594 497 594 1153 
L 594 3053 
L 172 3053 
L 172 3500 
L 594 3500 
L 594 4494 
L 1172 4494 
z
" transform="scale(0.015625)"/>
       <path id="DejaVuSans-76" d="M 191 3500 
L 800 3500 
L 1894 563 
L 2988 3500 
L 3597 3500 
L 2284 0 
L 1503 0 
L 191 3500 
z
" transform="scale(0.015625)"/>
       <path id="DejaVuSans-52" d="M 2841 2188 
Q 3044 2119 3236 1894 
Q 3428 1669 3622 1275 
L 4263 0 
L 3584 0 
L 2988 1197 
Q 2756 1666 2539 1819 
Q 2322 1972 1947 1972 
L 1259 1972 
L 1259 0 
L 628 0 
L 628 4666 
L 2053 4666 
Q 2853 4666 3247 4331 
Q 3641 3997 3641 3322 
Q 3641 2881 3436 2590 
Q 3231 2300 2841 2188 
z
M 1259 4147 
L 1259 2491 
L 2053 2491 
Q 2509 2491 2742 2702 
Q 2975 2913 2975 3322 
Q 2975 3731 2742 3939 
Q 2509 4147 2053 4147 
L 1259 4147 
z
" transform="scale(0.015625)"/>
       <path id="DejaVuSans-28" d="M 1984 4856 
Q 1566 4138 1362 3434 
Q 1159 2731 1159 2009 
Q 1159 1288 1364 580 
Q 1569 -128 1984 -844 
L 1484 -844 
Q 1016 -109 783 600 
Q 550 1309 550 2009 
Q 550 2706 781 3412 
Q 1013 4119 1484 4856 
L 1984 4856 
z
" transform="scale(0.015625)"/>
       <path id="DejaVuSans-62" d="M 3116 1747 
Q 3116 2381 2855 2742 
Q 2594 3103 2138 3103 
Q 1681 3103 1420 2742 
Q 1159 2381 1159 1747 
Q 1159 1113 1420 752 
Q 1681 391 2138 391 
Q 2594 391 2855 752 
Q 3116 1113 3116 1747 
z
M 1159 2969 
Q 1341 3281 1617 3432 
Q 1894 3584 2278 3584 
Q 2916 3584 3314 3078 
Q 3713 2572 3713 1747 
Q 3713 922 3314 415 
Q 2916 -91 2278 -91 
Q 1894 -91 1617 61 
Q 1341 213 1159 525 
L 1159 0 
L 581 0 
L 581 4863 
L 1159 4863 
L 1159 2969 
z
" transform="scale(0.015625)"/>
       <path id="DejaVuSans-3a" d="M 750 794 
L 1409 794 
L 1409 0 
L 750 0 
L 750 794 
z
M 750 3309 
L 1409 3309 
L 1409 2516 
L 750 2516 
L 750 3309 
z
" transform="scale(0.015625)"/>
       <path id="DejaVuSans-29" d="M 513 4856 
L 1013 4856 
Q 1481 4119 1714 3412 
Q 1947 2706 1947 2009 
Q 1947 1309 1714 600 
Q 1481 -109 1013 -844 
L 513 -844 
Q 928 -128 1133 580 
Q 1338 1288 1338 2009 
Q 1338 2731 1133 3434 
Q 928 4138 513 4856 
z
" transform="scale(0.015625)"/>
      </defs>
      <use xlink:href="#DejaVuSans-46"/>
      <use xlink:href="#DejaVuSans-61" transform="translate(48.394531 0)"/>
      <use xlink:href="#DejaVuSans-6c" transform="translate(109.673828 0)"/>
      <use xlink:href="#DejaVuSans-73" transform="translate(137.457031 0)"/>
      <use xlink:href="#DejaVuSans-65" transform="translate(189.556641 0)"/>
      <use xlink:href="#DejaVuSans-20" transform="translate(251.080078 0)"/>
      <use xlink:href="#DejaVuSans-50" transform="translate(282.867188 0)"/>
      <use xlink:href="#DejaVuSans-6f" transform="translate(339.544922 0)"/>
      <use xlink:href="#DejaVuSans-73" transform="translate(400.726562 0)"/>
      <use xlink:href="#DejaVuSans-69" transform="translate(452.826172 0)"/>
      <use xlink:href="#DejaVuSans-74" transform="translate(480.609375 0)"/>
      <use xlink:href="#DejaVuSans-69" transform="translate(519.818359 0)"/>
      <use xlink:href="#DejaVuSans-76" transform="translate(547.601562 0)"/>
      <use xlink:href="#DejaVuSans-65" transform="translate(606.78125 0)"/>
      <use xlink:href="#DejaVuSans-20" transform="translate(668.304688 0)"/>
      <use xlink:href="#DejaVuSans-52" transform="translate(700.091797 0)"/>
      <use xlink:href="#DejaVuSans-61" transform="translate(767.324219 0)"/>
      <use xlink:href="#DejaVuSans-74" transform="translate(828.603516 0)"/>
      <use xlink:href="#DejaVuSans-65" transform="translate(867.8125 0)"/>
      <use xlink:href="#DejaVuSans-20" transform="translate(929.335938 0)"/>
      <use xlink:href="#DejaVuSans-28" transform="translate(961.123047 0)"/>
      <use xlink:href="#DejaVuSans-50" transform="translate(1000.136719 0)"/>
      <use xlink:href="#DejaVuSans-6f" transform="translate(1056.814453 0)"/>
      <use xlink:href="#DejaVuSans-73" transform="translate(1117.996094 0)"/>
      <use xlink:href="#DejaVuSans-69" transform="translate(1170.095703 0)"/>
      <use xlink:href="#DejaVuSans-74" transform="translate(1197.878906 0)"/>
      <use xlink:href="#DejaVuSans-69" transform="translate(1237.087891 0)"/>
      <use xlink:href="#DejaVuSans-76" transform="translate(1264.871094 0)"/>
      <use xlink:href="#DejaVuSans-65" transform="translate(1324.050781 0)"/>
      <use xlink:href="#DejaVuSans-20" transform="translate(1385.574219 0)"/>
      <use xlink:href="#DejaVuSans-6c" transform="translate(1417.361328 0)"/>
      <use xlink:href="#DejaVuSans-61" transform="translate(1445.144531 0)"/>
      <use xlink:href="#DejaVuSans-62" transform="translate(1506.423828 0)"/>
      <use xlink:href="#DejaVuSans-65" transform="translate(1569.900391 0)"/>
      <use xlink:href="#DejaVuSans-6c" transform="translate(1631.423828 0)"/>
      <use xlink:href="#DejaVuSans-3a" transform="translate(1659.207031 0)"/>
      <use xlink:href="#DejaVuSans-20" transform="translate(1692.898438 0)"/>
      <use xlink:href="#DejaVuSans-31" transform="translate(1724.685547 0)"/>
      <use xlink:href="#DejaVuSans-29" transform="translate(1788.308594 0)"/>
     </g>
    </g>
   </g>
   <g id="matplotlib.axis_2">
    <g id="ytick_1">
     <g id="line2d_7">
      <defs>
       <path id="m76a72e846f" d="M 0 0 
L -3.5 0 
" style="stroke: #000000; stroke-width: 0.8"/>
      </defs>
      <g>
       <use xlink:href="#m76a72e846f" x="55.069198" y="253.364955" style="stroke: #000000; stroke-width: 0.8"/>
      </g>
     </g>
     <g id="text_8">
      <!-- 0.0 -->
      <g transform="translate(32.166073 257.164174) scale(0.1 -0.1)">
       <use xlink:href="#DejaVuSans-30"/>
       <use xlink:href="#DejaVuSans-2e" transform="translate(63.623047 0)"/>
       <use xlink:href="#DejaVuSans-30" transform="translate(95.410156 0)"/>
      </g>
     </g>
    </g>
    <g id="ytick_2">
     <g id="line2d_8">
      <g>
       <use xlink:href="#m76a72e846f" x="55.069198" y="211.354973" style="stroke: #000000; stroke-width: 0.8"/>
      </g>
     </g>
     <g id="text_9">
      <!-- 0.2 -->
      <g transform="translate(32.166073 215.154192) scale(0.1 -0.1)">
       <use xlink:href="#DejaVuSans-30"/>
       <use xlink:href="#DejaVuSans-2e" transform="translate(63.623047 0)"/>
       <use xlink:href="#DejaVuSans-32" transform="translate(95.410156 0)"/>
      </g>
     </g>
    </g>
    <g id="ytick_3">
     <g id="line2d_9">
      <g>
       <use xlink:href="#m76a72e846f" x="55.069198" y="169.344991" style="stroke: #000000; stroke-width: 0.8"/>
      </g>
     </g>
     <g id="text_10">
      <!-- 0.4 -->
      <g transform="translate(32.166073 173.14421) scale(0.1 -0.1)">
       <use xlink:href="#DejaVuSans-30"/>
       <use xlink:href="#DejaVuSans-2e" transform="translate(63.623047 0)"/>
       <use xlink:href="#DejaVuSans-34" transform="translate(95.410156 0)"/>
      </g>
     </g>
    </g>
    <g id="ytick_4">
     <g id="line2d_10">
      <g>
       <use xlink:href="#m76a72e846f" x="55.069198" y="127.335009" style="stroke: #000000; stroke-width: 0.8"/>
      </g>
     </g>
     <g id="text_11">
      <!-- 0.6 -->
      <g transform="translate(32.166073 131.134228) scale(0.1 -0.1)">
       <use xlink:href="#DejaVuSans-30"/>
       <use xlink:href="#DejaVuSans-2e" transform="translate(63.623047 0)"/>
       <use xlink:href="#DejaVuSans-36" transform="translate(95.410156 0)"/>
      </g>
     </g>
    </g>
    <g id="ytick_5">
     <g id="line2d_11">
      <g>
       <use xlink:href="#m76a72e846f" x="55.069198" y="85.325027" style="stroke: #000000; stroke-width: 0.8"/>
      </g>
     </g>
     <g id="text_12">
      <!-- 0.8 -->
      <g transform="translate(32.166073 89.124245) scale(0.1 -0.1)">
       <use xlink:href="#DejaVuSans-30"/>
       <use xlink:href="#DejaVuSans-2e" transform="translate(63.623047 0)"/>
       <use xlink:href="#DejaVuSans-38" transform="translate(95.410156 0)"/>
      </g>
     </g>
    </g>
    <g id="ytick_6">
     <g id="line2d_12">
      <g>
       <use xlink:href="#m76a72e846f" x="55.069198" y="43.315045" style="stroke: #000000; stroke-width: 0.8"/>
      </g>
     </g>
     <g id="text_13">
      <!-- 1.0 -->
      <g transform="translate(32.166073 47.114263) scale(0.1 -0.1)">
       <use xlink:href="#DejaVuSans-31"/>
       <use xlink:href="#DejaVuSans-2e" transform="translate(63.623047 0)"/>
       <use xlink:href="#DejaVuSans-30" transform="translate(95.410156 0)"/>
      </g>
     </g>
    </g>
    <g id="text_14">
     <!-- True Positive Rate (Positive label: 1) -->
     <g transform="translate(26.086385 237.768906) rotate(-90) scale(0.1 -0.1)">
      <defs>
       <path id="DejaVuSans-54" d="M -19 4666 
L 3928 4666 
L 3928 4134 
L 2272 4134 
L 2272 0 
L 1638 0 
L 1638 4134 
L -19 4134 
L -19 4666 
z
" transform="scale(0.015625)"/>
       <path id="DejaVuSans-72" d="M 2631 2963 
Q 2534 3019 2420 3045 
Q 2306 3072 2169 3072 
Q 1681 3072 1420 2755 
Q 1159 2438 1159 1844 
L 1159 0 
L 581 0 
L 581 3500 
L 1159 3500 
L 1159 2956 
Q 1341 3275 1631 3429 
Q 1922 3584 2338 3584 
Q 2397 3584 2469 3576 
Q 2541 3569 2628 3553 
L 2631 2963 
z
" transform="scale(0.015625)"/>
       <path id="DejaVuSans-75" d="M 544 1381 
L 544 3500 
L 1119 3500 
L 1119 1403 
Q 1119 906 1312 657 
Q 1506 409 1894 409 
Q 2359 409 2629 706 
Q 2900 1003 2900 1516 
L 2900 3500 
L 3475 3500 
L 3475 0 
L 2900 0 
L 2900 538 
Q 2691 219 2414 64 
Q 2138 -91 1772 -91 
Q 1169 -91 856 284 
Q 544 659 544 1381 
z
M 1991 3584 
L 1991 3584 
z
" transform="scale(0.015625)"/>
      </defs>
      <use xlink:href="#DejaVuSans-54"/>
      <use xlink:href="#DejaVuSans-72" transform="translate(46.333984 0)"/>
      <use xlink:href="#DejaVuSans-75" transform="translate(87.447266 0)"/>
      <use xlink:href="#DejaVuSans-65" transform="translate(150.826172 0)"/>
      <use xlink:href="#DejaVuSans-20" transform="translate(212.349609 0)"/>
      <use xlink:href="#DejaVuSans-50" transform="translate(244.136719 0)"/>
      <use xlink:href="#DejaVuSans-6f" transform="translate(300.814453 0)"/>
      <use xlink:href="#DejaVuSans-73" transform="translate(361.996094 0)"/>
      <use xlink:href="#DejaVuSans-69" transform="translate(414.095703 0)"/>
      <use xlink:href="#DejaVuSans-74" transform="translate(441.878906 0)"/>
      <use xlink:href="#DejaVuSans-69" transform="translate(481.087891 0)"/>
      <use xlink:href="#DejaVuSans-76" transform="translate(508.871094 0)"/>
      <use xlink:href="#DejaVuSans-65" transform="translate(568.050781 0)"/>
      <use xlink:href="#DejaVuSans-20" transform="translate(629.574219 0)"/>
      <use xlink:href="#DejaVuSans-52" transform="translate(661.361328 0)"/>
      <use xlink:href="#DejaVuSans-61" transform="translate(728.59375 0)"/>
      <use xlink:href="#DejaVuSans-74" transform="translate(789.873047 0)"/>
      <use xlink:href="#DejaVuSans-65" transform="translate(829.082031 0)"/>
      <use xlink:href="#DejaVuSans-20" transform="translate(890.605469 0)"/>
      <use xlink:href="#DejaVuSans-28" transform="translate(922.392578 0)"/>
      <use xlink:href="#DejaVuSans-50" transform="translate(961.40625 0)"/>
      <use xlink:href="#DejaVuSans-6f" transform="translate(1018.083984 0)"/>
      <use xlink:href="#DejaVuSans-73" transform="translate(1079.265625 0)"/>
      <use xlink:href="#DejaVuSans-69" transform="translate(1131.365234 0)"/>
      <use xlink:href="#DejaVuSans-74" transform="translate(1159.148438 0)"/>
      <use xlink:href="#DejaVuSans-69" transform="translate(1198.357422 0)"/>
      <use xlink:href="#DejaVuSans-76" transform="translate(1226.140625 0)"/>
      <use xlink:href="#DejaVuSans-65" transform="translate(1285.320312 0)"/>
      <use xlink:href="#DejaVuSans-20" transform="translate(1346.84375 0)"/>
      <use xlink:href="#DejaVuSans-6c" transform="translate(1378.630859 0)"/>
      <use xlink:href="#DejaVuSans-61" transform="translate(1406.414062 0)"/>
      <use xlink:href="#DejaVuSans-62" transform="translate(1467.693359 0)"/>
      <use xlink:href="#DejaVuSans-65" transform="translate(1531.169922 0)"/>
      <use xlink:href="#DejaVuSans-6c" transform="translate(1592.693359 0)"/>
      <use xlink:href="#DejaVuSans-3a" transform="translate(1620.476562 0)"/>
      <use xlink:href="#DejaVuSans-20" transform="translate(1654.167969 0)"/>
      <use xlink:href="#DejaVuSans-31" transform="translate(1685.955078 0)"/>
      <use xlink:href="#DejaVuSans-29" transform="translate(1749.578125 0)"/>
     </g>
    </g>
   </g>
   <g id="line2d_13">
    <path d="M 57.169697 253.364955 
L 102.876558 253.280935 
L 102.876558 253.196916 
L 106.846501 253.112896 
L 106.846501 253.028876 
L 110.12328 252.944856 
L 110.12328 252.860836 
L 113.463073 252.776816 
L 113.463073 252.692796 
L 113.715133 252.608776 
L 113.715133 252.524756 
L 114.093223 252.524756 
L 114.093223 252.356716 
L 115.773622 252.356716 
L 115.773622 252.188676 
L 116.844877 252.104656 
L 116.844877 252.020636 
L 118.483266 251.936616 
L 118.546281 251.768576 
L 122.978334 251.684556 
L 122.978334 251.600536 
L 125.246873 251.516516 
L 125.246873 251.432496 
L 125.919033 251.348476 
L 125.919033 251.264456 
L 127.263352 251.180436 
L 127.263352 251.096416 
L 128.355612 251.012396 
L 128.355612 250.928376 
L 128.460637 250.928376 
L 130.918221 250.844357 
L 130.981236 250.676317 
L 131.653395 250.592297 
L 131.653395 250.508277 
L 132.26254 250.508277 
L 132.26254 250.340237 
L 132.913695 250.256217 
L 132.913695 250.172197 
L 134.216004 250.088177 
L 134.216004 250.004157 
L 135.329269 249.920137 
L 135.329269 249.836117 
L 136.337508 249.752097 
L 136.337508 249.668077 
L 137.912883 249.584057 
L 137.912883 249.500037 
L 139.194187 249.416017 
L 139.257202 249.247977 
L 139.383232 249.163957 
L 139.383232 249.079937 
L 139.572277 248.995917 
L 139.656297 248.743857 
L 140.286447 248.659837 
L 140.286447 248.575817 
L 141.483731 248.491798 
L 141.525741 248.323758 
L 142.029861 248.239738 
L 142.029861 248.155718 
L 142.681016 248.071698 
L 142.681016 247.987678 
L 142.849056 247.903658 
L 142.954081 247.735618 
L 143.437195 247.651598 
L 143.437195 247.567578 
L 143.8783 247.567578 
L 143.8783 247.399538 
L 145.663724 247.315518 
L 145.768749 247.063458 
L 146.188849 246.979438 
L 146.209854 246.811398 
L 146.419904 246.727378 
L 146.419904 246.643358 
L 146.987039 246.559338 
L 147.092064 246.307278 
L 147.995278 246.223258 
L 147.995278 246.055219 
L 148.058293 246.055219 
L 148.163318 246.055219 
L 148.163318 245.887179 
L 148.814473 245.803159 
L 148.814473 245.719139 
L 149.507638 245.635119 
L 149.507638 245.551099 
L 149.885728 245.467079 
L 149.885728 245.383059 
L 150.137788 245.299039 
L 150.137788 245.215019 
L 150.662912 245.130999 
L 150.662912 245.046979 
L 151.167032 244.962959 
L 151.272057 244.794919 
L 151.818187 244.710899 
L 151.818187 244.626879 
L 152.133262 244.542859 
L 152.238287 244.290799 
L 152.553361 244.206779 
L 152.553361 244.122759 
L 153.267531 244.038739 
L 153.267531 243.954719 
L 153.918686 243.870699 
L 153.918686 243.78668 
L 154.380796 243.70266 
L 154.380796 243.61864 
L 154.716876 243.53462 
L 154.716876 243.4506 
L 154.90592 243.36658 
L 154.98994 243.11452 
L 155.45205 243.0305 
L 155.473055 242.86246 
L 155.83014 242.77844 
L 155.87215 242.6104 
L 156.37627 242.52638 
L 156.37627 242.44236 
L 157.069435 242.35834 
L 157.111445 242.1903 
L 157.510539 242.10628 
L 157.594559 241.93824 
L 157.762599 241.85422 
L 157.762599 241.7702 
L 158.077674 241.68618 
L 158.077674 241.60216 
L 158.560789 241.51814 
L 158.665814 241.350101 
L 159.400989 241.266081 
L 159.464004 241.098041 
L 159.506014 241.098041 
L 159.527019 241.014021 
L 159.758073 240.930001 
L 159.758073 240.845981 
L 160.136163 240.761961 
L 160.241188 240.509901 
L 160.367218 240.425881 
L 160.367218 240.341861 
L 160.745308 240.341861 
L 160.808323 240.089801 
L 160.892343 240.005781 
L 160.892343 239.921761 
L 161.144403 239.837741 
L 161.144403 239.753721 
L 161.375458 239.669701 
L 161.375458 239.585681 
L 161.837568 239.501661 
L 161.879578 239.333621 
L 162.593747 239.249601 
L 162.698772 238.997542 
L 162.866812 238.913522 
L 162.887817 238.745482 
L 163.244902 238.661462 
L 163.244902 238.577442 
L 163.475957 238.577442 
L 163.475957 238.325382 
L 163.938067 238.241362 
L 164.022087 237.989302 
L 164.379171 237.989302 
L 164.442186 237.737242 
L 164.568216 237.653222 
L 164.568216 237.569202 
L 164.967311 237.485182 
L 164.988316 237.317142 
L 165.282386 237.233122 
L 165.345401 236.981062 
L 165.576456 236.897042 
L 165.576456 236.813022 
L 165.954546 236.729002 
L 165.954546 236.644983 
L 166.563691 236.560963 
L 166.563691 236.476943 
L 167.046805 236.392923 
L 167.046805 236.308903 
L 167.57193 236.224883 
L 167.65595 236.056843 
L 168.11806 235.972823 
L 168.11806 235.888803 
L 168.307105 235.888803 
L 168.307105 235.720763 
L 169.063284 235.636743 
L 169.105294 235.216643 
L 169.273334 235.132623 
L 169.357354 234.964583 
L 169.630419 234.880563 
L 169.693434 234.628503 
L 169.924489 234.544483 
L 169.987504 234.292424 
L 170.491624 234.208404 
L 170.533634 233.956344 
L 170.827704 233.956344 
L 170.827704 233.788304 
L 171.163784 233.704284 
L 171.268809 233.368204 
L 171.751923 233.284184 
L 171.772928 233.116144 
L 172.151018 233.032124 
L 172.172023 232.864084 
L 172.298053 232.780064 
L 172.319058 232.612024 
L 172.571118 232.612024 
L 172.571118 232.443984 
L 172.865188 232.359964 
L 172.907198 232.191924 
L 173.117248 232.107904 
L 173.117248 232.023884 
L 173.243278 232.023884 
L 173.327298 231.771825 
L 173.537348 231.771825 
L 173.621368 231.519765 
L 173.747398 231.519765 
L 173.747398 231.351725 
L 174.545587 231.267705 
L 174.545587 231.183685 
L 174.692622 231.183685 
L 174.776642 230.847605 
L 174.860662 230.763585 
L 174.860662 230.679565 
L 175.406792 230.595545 
L 175.469807 230.427505 
L 175.826892 230.343485 
L 175.868902 230.007405 
L 176.036942 230.007405 
L 176.099957 229.755345 
L 176.541061 229.671325 
L 176.541061 229.587306 
L 176.751111 229.503286 
L 176.835131 229.335246 
L 177.171211 229.251226 
L 177.171211 229.167206 
L 177.381261 229.083186 
L 177.486286 228.831126 
L 177.696336 228.747106 
L 177.801361 228.411026 
L 178.032416 228.327006 
L 178.053421 228.158966 
L 178.263471 228.074946 
L 178.347491 227.486806 
L 178.452516 227.402786 
L 178.47352 227.150727 
L 178.956635 227.066707 
L 179.06166 226.730627 
L 179.250705 226.646607 
L 179.292715 226.394547 
L 179.48176 226.310527 
L 179.48176 226.226507 
L 179.838845 226.142487 
L 179.85985 225.890427 
L 180.19593 225.806407 
L 180.19593 225.638367 
L 180.426985 225.638367 
L 180.426985 225.470327 
L 180.61603 225.386307 
L 180.721055 225.050227 
L 180.931104 224.966207 
L 180.994119 224.714148 
L 181.204169 224.714148 
L 181.204169 224.546108 
L 181.393214 224.462088 
L 181.435224 224.294048 
L 181.582259 224.294048 
L 181.624269 223.957968 
L 181.834319 223.873948 
L 181.876329 223.621888 
L 181.981354 223.621888 
L 182.086379 223.369828 
L 182.128389 223.285808 
L 182.128389 223.117768 
L 182.401454 223.033748 
L 182.401454 222.949728 
L 182.590499 222.865708 
L 182.590499 222.781688 
L 182.758539 222.697668 
L 182.821554 222.529629 
L 182.947584 222.529629 
L 183.052609 222.277569 
L 183.409693 222.193549 
L 183.472708 221.941489 
L 183.619743 221.857469 
L 183.640748 221.689429 
L 183.934818 221.605409 
L 183.976828 221.353349 
L 184.186878 221.269329 
L 184.186878 221.185309 
L 184.354918 221.185309 
L 184.396928 220.933249 
L 184.543963 220.849229 
L 184.627983 220.345109 
L 184.796023 220.261089 
L 184.817028 220.00903 
L 185.048083 219.92501 
L 185.048083 219.84099 
L 185.342153 219.75697 
L 185.405168 219.58893 
L 185.489188 219.58893 
L 185.552202 219.33687 
L 185.657227 219.33687 
L 185.762252 218.58069 
L 185.846272 218.58069 
L 185.909287 218.07657 
L 186.182352 217.99255 
L 186.287377 217.656471 
L 186.539437 217.572451 
L 186.623457 217.404411 
L 186.686472 217.320391 
L 186.791497 216.900291 
L 186.875517 216.900291 
L 186.938532 216.648231 
L 187.211597 216.564211 
L 187.295617 216.312151 
L 187.442652 216.312151 
L 187.442652 216.144111 
L 187.673707 216.060091 
L 187.757727 215.724011 
L 187.862752 215.639991 
L 187.862752 215.471952 
L 188.030791 215.471952 
L 188.030791 215.303912 
L 188.261846 215.219892 
L 188.345866 214.883812 
L 188.513906 214.799792 
L 188.513906 214.631752 
L 188.807976 214.547732 
L 188.849986 214.295672 
L 188.955011 214.295672 
L 188.997021 214.043612 
L 189.144056 214.043612 
L 189.186066 213.791552 
L 189.396116 213.707532 
L 189.480136 213.539492 
L 189.669181 213.455472 
L 189.774206 213.035373 
L 190.005261 212.951353 
L 190.005261 212.867333 
L 190.46737 212.783313 
L 190.530385 212.615273 
L 190.63541 212.531253 
L 190.63541 212.447233 
L 191.09752 212.363213 
L 191.09752 212.195173 
L 191.244555 212.111153 
L 191.328575 211.775073 
L 191.412595 211.775073 
L 191.496615 211.354973 
L 191.76968 211.270953 
L 191.874705 211.102913 
L 191.89571 211.102913 
L 191.958725 210.850853 
L 192.06375 210.766834 
L 192.168775 210.514774 
L 192.336815 210.430754 
L 192.336815 210.346734 
L 192.588875 210.262714 
L 192.588875 210.178694 
L 192.735909 210.094674 
L 192.735909 210.010654 
L 193.092994 209.926634 
L 193.113999 209.758594 
L 193.240029 209.674574 
L 193.345054 209.506534 
L 193.429074 209.422514 
L 193.471084 209.254474 
L 193.891184 209.170454 
L 193.954199 209.002414 
L 194.143244 208.918394 
L 194.143244 208.834374 
L 194.542339 208.750354 
L 194.584349 208.414275 
L 194.941434 208.330255 
L 195.046458 207.994175 
L 195.277513 207.910155 
L 195.382538 207.658095 
L 195.424548 207.574075 
L 195.508568 207.406035 
L 196.096708 207.322015 
L 196.117713 207.153975 
L 196.306758 207.069955 
L 196.390778 206.901915 
L 196.579823 206.817895 
L 196.621833 206.649855 
L 196.831883 206.565835 
L 196.915903 206.145735 
L 196.957913 206.145735 
L 197.020928 205.893676 
L 197.083943 205.893676 
L 197.167963 205.557596 
L 197.272988 205.473576 
L 197.314998 205.053476 
L 197.462032 204.969456 
L 197.462032 204.885436 
L 197.672082 204.801416 
L 197.714092 204.465336 
L 197.945147 204.381316 
L 197.945147 204.297296 
L 198.470272 204.213276 
L 198.575297 203.793176 
L 198.638312 203.709157 
L 198.743337 203.373077 
L 198.848362 203.289057 
L 198.911377 202.952977 
L 199.016402 202.868957 
L 199.016402 202.784937 
L 199.394492 202.784937 
L 199.478512 202.532877 
L 199.625547 202.448857 
L 199.709566 201.776697 
L 199.940621 201.692677 
L 200.045646 201.440617 
L 200.087656 201.356598 
L 200.129666 201.020518 
L 200.486751 200.936498 
L 200.528761 200.600418 
L 200.780821 200.516398 
L 200.801826 200.348358 
L 201.116901 200.264338 
L 201.200921 199.928258 
L 201.347956 199.844238 
L 201.410971 199.592178 
L 201.494991 199.508158 
L 201.558006 199.340118 
L 201.642026 199.256098 
L 201.705041 199.088058 
L 201.789061 199.004039 
L 201.894086 198.415899 
L 201.915091 198.415899 
L 201.915091 198.247859 
L 202.062125 198.163839 
L 202.08313 197.911779 
L 202.230165 197.911779 
L 202.230165 197.743739 
L 202.440215 197.659719 
L 202.524235 197.491679 
L 202.7973 197.407659 
L 202.88132 197.155599 
L 203.04936 197.071579 
L 203.154385 196.903539 
L 203.280415 196.819519 
L 203.322425 196.56746 
L 203.59549 196.56746 
L 203.59549 196.39942 
L 203.742525 196.3154 
L 203.80554 196.06334 
L 203.910565 195.97932 
L 203.97358 195.72726 
L 204.120615 195.64324 
L 204.204635 195.0551 
L 204.330665 194.97108 
L 204.435689 194.80304 
L 204.456694 194.80304 
L 204.519709 194.29892 
L 204.729759 194.214901 
L 204.834784 193.542741 
L 204.876794 193.542741 
L 204.960814 193.122641 
L 205.170864 193.038621 
L 205.170864 192.954601 
L 205.716994 192.870581 
L 205.822019 192.534501 
L 205.885034 192.450481 
L 205.990059 191.862342 
L 206.158099 191.778322 
L 206.158099 191.694302 
L 206.431164 191.610282 
L 206.515184 191.442242 
L 206.578199 191.358222 
L 206.683224 191.106162 
L 206.725234 191.106162 
L 206.725234 190.938122 
L 206.893273 190.854102 
L 206.893273 190.686062 
L 207.061313 190.602042 
L 207.061313 190.518022 
L 207.292368 190.518022 
L 207.397393 190.097922 
L 207.418398 190.097922 
L 207.523423 189.425763 
L 207.754478 189.341743 
L 207.838498 189.005663 
L 207.943523 189.005663 
L 208.048548 188.669583 
L 208.090558 188.669583 
L 208.195583 188.165463 
L 208.216588 188.165463 
L 208.300608 187.577323 
L 208.510658 187.493303 
L 208.615683 187.241243 
L 208.678698 187.157224 
L 208.762718 186.821144 
L 208.846738 186.821144 
L 208.867743 186.569084 
L 209.077793 186.485064 
L 209.077793 186.317024 
L 209.287842 186.233004 
L 209.392867 185.644864 
L 209.497892 185.560844 
L 209.560907 185.308784 
L 209.728947 185.224764 
L 209.770957 184.972704 
L 210.065027 184.888684 
L 210.065027 184.552605 
L 210.527137 184.468585 
L 210.590152 184.132505 
L 210.800202 184.048485 
L 210.905227 183.628385 
L 210.947237 183.544365 
L 210.947237 183.376325 
L 211.136282 183.292305 
L 211.178292 182.956225 
L 211.640401 182.872205 
L 211.640401 182.788185 
L 211.850451 182.788185 
L 211.892461 182.452106 
L 212.039496 182.368086 
L 212.144521 182.032006 
L 212.207536 181.947986 
L 212.207536 181.863966 
L 212.501606 181.779946 
L 212.522611 181.611906 
L 212.648641 181.611906 
L 212.753666 181.107786 
L 212.900701 181.023766 
L 213.005726 180.687686 
L 213.236781 180.603666 
L 213.341806 180.267586 
L 213.593866 180.183566 
L 213.698891 179.847487 
L 213.82492 179.763467 
L 213.82492 179.679447 
L 214.013965 179.595427 
L 214.11899 179.091307 
L 214.308035 179.007287 
L 214.308035 178.923267 
L 214.5811 178.839247 
L 214.5811 178.755227 
L 214.70713 178.755227 
L 214.812155 178.419147 
L 214.854165 178.419147 
L 214.896175 178.167087 
L 215.16924 178.167087 
L 215.274265 177.494928 
L 215.358285 177.494928 
L 215.442305 177.242868 
L 215.568335 177.158848 
L 215.652355 176.906788 
L 215.71537 176.822768 
L 215.79939 176.486688 
L 215.88341 176.402668 
L 215.96743 175.898548 
L 216.114465 175.814528 
L 216.198484 175.562468 
L 216.408534 175.478448 
L 216.492554 175.226389 
L 216.765619 175.142369 
L 216.870644 174.806289 
L 216.954664 174.722269 
L 217.059689 174.386189 
L 217.206724 174.302169 
L 217.206724 174.218149 
L 217.500794 174.218149 
L 217.500794 174.050109 
L 217.710844 173.966089 
L 217.752854 173.461969 
L 217.920894 173.377949 
L 218.004914 173.125889 
L 218.172954 173.04187 
L 218.193959 172.87383 
L 218.340994 172.78981 
L 218.383004 172.62177 
L 218.530039 172.53775 
L 218.593053 172.36971 
L 218.866118 172.28569 
L 218.929133 171.52951 
L 219.097173 171.44549 
L 219.202198 171.02539 
L 219.286218 170.94137 
L 219.349233 170.521271 
L 219.454258 170.437251 
L 219.538278 170.017151 
L 219.601293 169.933131 
L 219.643303 169.429011 
L 219.811343 169.344991 
L 219.895363 169.092931 
L 220.084408 169.008911 
L 220.189433 168.756851 
L 220.294458 168.672831 
L 220.357473 168.420771 
L 220.462498 168.336752 
L 220.462498 168.168712 
L 220.609533 168.084692 
L 220.714558 167.832632 
L 220.798578 167.748612 
L 220.861593 167.580572 
L 221.029632 167.496552 
L 221.134657 166.992432 
L 221.281692 166.908412 
L 221.386717 166.656352 
L 221.449732 166.656352 
L 221.533752 166.152232 
L 221.575762 166.152232 
L 221.659782 165.648113 
L 221.701792 165.648113 
L 221.722797 165.396053 
L 221.911842 165.312033 
L 222.016867 164.807913 
L 222.079882 164.723893 
L 222.121892 164.471833 
L 222.226917 164.471833 
L 222.226917 164.219773 
L 222.541992 164.219773 
L 222.626012 163.631634 
L 222.668022 163.631634 
L 222.752042 162.371334 
L 222.857067 162.287314 
L 222.962092 161.951234 
L 223.088122 161.951234 
L 223.088122 161.783194 
L 223.340181 161.699174 
L 223.361186 161.447114 
L 223.487216 161.363094 
L 223.571236 160.774955 
L 223.739276 160.690935 
L 223.844301 160.522895 
L 223.907316 160.522895 
L 223.970331 160.018775 
L 224.075356 159.934755 
L 224.180381 159.346615 
L 224.222391 159.346615 
L 224.264401 158.926516 
L 224.369426 158.926516 
L 224.453446 158.506416 
L 224.621486 158.422396 
L 224.726511 157.834256 
L 224.789526 157.750236 
L 224.894551 157.078076 
L 225.041586 157.078076 
L 225.146611 156.826016 
L 225.230631 156.741996 
L 225.335656 156.405917 
L 225.440681 156.321897 
L 225.545706 155.817777 
L 225.69274 155.817777 
L 225.77676 155.397677 
L 225.90279 155.313657 
L 225.9448 154.977577 
L 226.28088 154.893557 
L 226.32289 154.641497 
L 226.53294 154.557477 
L 226.637965 154.137378 
L 226.65897 154.137378 
L 226.763995 153.381198 
L 226.932035 153.297178 
L 227.016055 153.045118 
L 227.058065 153.045118 
L 227.058065 152.793058 
L 227.16309 152.793058 
L 227.2051 152.793058 
L 227.310125 152.204918 
L 227.478165 152.204918 
L 227.58319 151.868839 
L 227.856255 151.784819 
L 227.96128 151.280699 
L 228.024294 151.196679 
L 228.066304 150.944619 
L 228.171329 150.860599 
L 228.192334 150.608539 
L 228.318364 150.524519 
L 228.402384 150.188439 
L 228.591429 150.104419 
L 228.654444 149.852359 
L 228.780474 149.768339 
L 228.843489 149.600299 
L 228.948514 149.51628 
L 229.011529 149.26422 
L 229.284594 149.1802 
L 229.368614 148.67608 
L 229.431629 148.59206 
L 229.515649 147.66784 
L 229.578664 147.66784 
L 229.683689 147.24774 
L 229.935749 147.16372 
L 229.977759 146.911661 
L 230.082784 146.911661 
L 230.166804 146.575581 
L 230.292834 146.491561 
L 230.376853 146.239501 
L 230.481878 146.155481 
L 230.586903 145.651361 
L 230.670923 145.567341 
L 230.670923 145.483321 
L 230.880973 145.399301 
L 230.964993 144.895181 
L 231.007003 144.895181 
L 231.007003 144.559102 
L 231.154038 144.559102 
L 231.238058 143.886942 
L 231.280068 143.886942 
L 231.364088 143.382822 
L 231.469113 143.298802 
L 231.469113 143.214782 
L 231.742178 143.130762 
L 231.847203 142.626642 
L 231.973233 142.542622 
L 232.078258 142.374583 
L 232.246298 142.290563 
L 232.309313 142.038503 
L 232.393333 141.954483 
L 232.498358 141.702423 
L 232.645393 141.618403 
L 232.708407 141.282323 
L 232.855442 141.198303 
L 232.960467 140.778203 
L 233.002477 140.694183 
L 233.107502 140.526143 
L 233.317552 140.442123 
L 233.317552 140.358103 
L 233.443582 140.358103 
L 233.527602 139.853984 
L 233.590617 139.769964 
L 233.695642 139.265844 
L 233.968707 139.181824 
L 234.052727 138.761724 
L 234.157752 138.761724 
L 234.199762 138.341624 
L 234.367802 138.257604 
L 234.409812 137.585445 
L 234.535842 137.501425 
L 234.619862 137.081325 
L 234.745892 136.997305 
L 234.787902 136.325145 
L 235.018957 136.241125 
L 235.123981 135.905045 
L 235.165991 135.821025 
L 235.186996 135.652985 
L 235.334031 135.568965 
L 235.397046 135.316906 
L 235.586091 135.232886 
L 235.691116 134.896806 
L 235.733126 134.896806 
L 235.838151 134.560726 
L 236.111216 134.560726 
L 236.216241 133.972586 
L 236.342271 133.888566 
L 236.426291 133.552486 
L 236.468301 133.552486 
L 236.573326 132.880327 
L 236.720361 132.880327 
L 236.825386 132.376207 
L 237.077446 132.292187 
L 237.119456 131.956107 
L 237.350511 131.872087 
L 237.371516 131.620027 
L 237.51855 131.536007 
L 237.60257 131.031887 
L 237.68659 131.031887 
L 237.68659 130.779827 
L 237.917645 130.695807 
L 237.959655 130.443748 
L 238.06468 130.359728 
L 238.06468 130.275708 
L 238.253725 130.191688 
L 238.31674 129.939628 
L 238.421765 129.855608 
L 238.52679 129.435508 
L 238.589805 129.351488 
L 238.65282 129.015408 
L 238.73684 128.931388 
L 238.77885 128.343248 
L 238.967895 128.259229 
L 239.03091 128.091189 
L 239.19895 128.007169 
L 239.24096 127.839129 
L 239.45101 127.755109 
L 239.556035 127.082949 
L 239.57704 127.082949 
L 239.66106 126.746869 
L 239.787089 126.662849 
L 239.871109 126.158729 
L 239.976134 126.074709 
L 240.018144 125.82265 
L 240.144174 125.73863 
L 240.144174 125.65461 
L 240.270204 125.65461 
L 240.375229 125.31853 
L 240.459249 125.23451 
L 240.501259 124.81441 
L 240.753319 124.73039 
L 240.837339 124.22627 
L 240.984374 124.14225 
L 241.047389 123.89019 
L 241.152414 123.80617 
L 241.257439 123.386071 
L 241.341459 123.386071 
L 241.383469 123.134011 
L 241.677539 123.049991 
L 241.698544 122.377831 
L 241.824574 122.377831 
L 241.887589 121.789691 
L 242.013619 121.705671 
L 242.055629 121.537631 
L 242.286683 121.453611 
L 242.370703 121.201552 
L 242.433718 121.117532 
L 242.475728 120.949492 
L 242.580753 120.949492 
L 242.664773 120.613412 
L 242.769798 120.529392 
L 242.853818 119.857232 
L 243.021858 119.773212 
L 243.042863 119.521152 
L 243.252913 119.437132 
L 243.357938 119.017032 
L 243.378943 119.017032 
L 243.441958 118.764973 
L 243.504973 118.764973 
L 243.567988 118.260853 
L 243.652008 118.176833 
L 243.757033 116.916533 
L 243.883063 116.832513 
L 243.967083 116.580453 
L 244.093113 116.580453 
L 244.198138 115.908294 
L 244.261153 115.908294 
L 244.345173 115.404174 
L 244.471202 115.320154 
L 244.534217 114.900054 
L 244.597232 114.900054 
L 244.618237 114.647994 
L 244.744267 114.647994 
L 244.828287 114.227894 
L 244.912307 114.143875 
L 244.975322 113.807795 
L 245.080347 113.807795 
L 245.185372 113.555735 
L 245.248387 113.471715 
L 245.311402 113.303675 
L 245.374417 113.303675 
L 245.479442 112.883575 
L 245.500447 112.883575 
L 245.605472 112.379455 
L 245.626477 112.379455 
L 245.689492 111.959355 
L 245.773512 111.959355 
L 245.878537 111.455236 
L 245.899542 111.455236 
L 246.004567 110.951116 
L 246.109592 110.867096 
L 246.130597 110.699056 
L 246.235622 110.699056 
L 246.256627 110.362976 
L 246.424667 110.278956 
L 246.424667 110.110916 
L 246.571702 110.110916 
L 246.676727 109.354737 
L 246.697732 109.354737 
L 246.802757 109.018657 
L 246.907781 108.934637 
L 246.928786 108.766597 
L 247.096826 108.682577 
L 247.201851 108.346497 
L 247.243861 108.346497 
L 247.348886 107.590317 
L 247.453911 107.506297 
L 247.558936 106.582078 
L 247.663961 106.498058 
L 247.747981 105.993938 
L 247.895016 105.909918 
L 247.979036 105.573838 
L 248.042051 105.573838 
L 248.126071 105.153738 
L 248.336121 105.069718 
L 248.399136 104.397559 
L 248.504161 104.313539 
L 248.588181 103.893439 
L 248.714211 103.809419 
L 248.735216 103.641379 
L 248.861246 103.641379 
L 248.861246 103.473339 
L 249.029286 103.473339 
L 249.113306 102.801179 
L 249.197325 102.717159 
L 249.30235 101.79294 
L 249.491395 101.70892 
L 249.575415 101.03676 
L 249.827475 100.95274 
L 249.9325 100.61666 
L 250.05853 100.53264 
L 250.10054 100.11254 
L 250.22657 100.02852 
L 250.331595 99.440381 
L 250.56265 99.356361 
L 250.625665 99.104301 
L 250.68868 99.104301 
L 250.68868 98.936261 
L 250.81471 98.936261 
L 250.89873 98.684201 
L 250.961745 98.684201 
L 250.961745 98.516161 
L 251.1928 98.432141 
L 251.27682 97.928021 
L 251.40285 97.844001 
L 251.44486 97.675961 
L 251.591894 97.675961 
L 251.675914 97.423902 
L 251.801944 97.339882 
L 251.885964 97.087822 
L 251.969984 97.003802 
L 252.075009 96.751742 
L 252.096014 96.751742 
L 252.096014 96.499682 
L 252.306064 96.415662 
L 252.369079 96.247622 
L 252.453099 96.247622 
L 252.558124 95.491442 
L 252.642144 95.491442 
L 252.705159 94.819283 
L 252.978224 94.735263 
L 253.062244 94.399183 
L 253.104254 94.399183 
L 253.125259 93.895063 
L 253.230284 93.895063 
L 253.230284 93.643003 
L 253.398324 93.643003 
L 253.482344 93.390943 
L 253.524354 93.390943 
L 253.629379 92.886824 
L 253.650384 92.886824 
L 253.650384 92.718784 
L 253.818424 92.718784 
L 253.881439 92.382704 
L 253.965458 92.298684 
L 254.028473 91.626524 
L 254.112493 91.626524 
L 254.133498 91.206424 
L 254.280533 91.122404 
L 254.322543 90.786324 
L 254.448573 90.786324 
L 254.553598 90.114165 
L 254.595608 90.030145 
L 254.658623 89.357985 
L 254.742643 89.273965 
L 254.826663 89.021905 
L 254.931688 89.021905 
L 255.036713 88.013666 
L 255.078723 88.013666 
L 255.162743 87.509546 
L 255.246763 87.509546 
L 255.351788 86.165226 
L 255.561838 86.081206 
L 255.603848 85.829147 
L 255.729878 85.829147 
L 255.834903 84.820907 
L 255.876913 84.736887 
L 255.981938 83.896687 
L 256.023948 83.896687 
L 256.128973 82.972468 
L 256.170983 82.972468 
L 256.255002 82.048248 
L 256.318017 82.048248 
L 256.381032 81.544128 
L 256.444047 81.544128 
L 256.486057 80.787949 
L 256.570077 80.787949 
L 256.633092 79.947749 
L 256.738117 79.947749 
L 256.822137 79.107549 
L 257.032187 79.023529 
L 257.137212 78.68745 
L 257.158217 78.68745 
L 257.200227 78.18333 
L 257.284247 78.18333 
L 257.326257 77.67921 
L 257.473292 77.59519 
L 257.536307 76.250871 
L 257.620327 76.166851 
L 257.683342 75.914791 
L 257.746357 75.914791 
L 257.851382 75.494691 
L 257.893392 75.410671 
L 257.977412 74.654491 
L 258.061432 74.570471 
L 258.145452 74.066352 
L 258.187462 74.066352 
L 258.271482 73.394192 
L 258.355502 73.394192 
L 258.418517 72.890072 
L 258.628566 72.806052 
L 258.712586 72.301932 
L 258.817611 72.217912 
L 258.922636 71.797812 
L 259.027661 71.797812 
L 259.090676 71.209673 
L 259.195701 71.125653 
L 259.300726 70.957613 
L 259.363741 70.873593 
L 259.426756 70.621533 
L 259.489771 70.621533 
L 259.489771 70.453493 
L 259.615801 70.453493 
L 259.720826 69.949373 
L 259.762836 69.949373 
L 259.846856 69.193194 
L 259.888866 69.193194 
L 259.993891 68.521034 
L 260.140926 68.437014 
L 260.140926 68.268974 
L 260.287961 68.184954 
L 260.392986 67.932894 
L 260.434996 67.932894 
L 260.477006 67.176714 
L 260.624041 67.176714 
L 260.729066 66.504555 
L 260.750071 66.504555 
L 260.792081 66.168475 
L 260.897106 66.084455 
L 261.00213 65.076215 
L 261.023135 65.076215 
L 261.12816 64.320036 
L 261.191175 64.320036 
L 261.2962 63.815916 
L 261.359215 63.815916 
L 261.443235 63.227776 
L 261.63228 63.143756 
L 261.737305 62.471596 
L 261.863335 62.387576 
L 261.947355 61.967477 
L 262.05238 61.883457 
L 262.1364 60.875217 
L 262.17841 60.875217 
L 262.283435 60.455117 
L 262.30444 60.455117 
L 262.409465 59.782958 
L 262.535495 59.698938 
L 262.619515 59.194818 
L 262.68253 59.110798 
L 262.787555 58.522658 
L 262.871575 58.522658 
L 262.9766 58.018538 
L 263.081625 57.934518 
L 263.165645 56.926279 
L 263.207655 56.926279 
L 263.31268 56.590199 
L 263.417704 56.506179 
L 263.459714 56.002059 
L 263.606749 55.918039 
L 263.711774 55.413919 
L 263.732779 55.413919 
L 263.816799 54.65774 
L 263.942829 54.57372 
L 263.984839 54.15362 
L 264.236899 54.0696 
L 264.341924 53.39744 
L 264.383934 53.39744 
L 264.467954 53.06136 
L 264.551974 53.06136 
L 264.656999 52.473221 
L 264.762024 52.389201 
L 264.846044 52.137141 
L 264.993079 52.137141 
L 265.098104 51.633021 
L 265.203129 51.549001 
L 265.266144 51.380961 
L 265.350164 51.296941 
L 265.455189 50.960861 
L 265.581219 50.876841 
L 265.644234 49.952622 
L 265.707248 49.952622 
L 265.812273 49.028402 
L 265.917298 48.944382 
L 266.022323 47.852123 
L 266.127348 47.768103 
L 266.211368 47.179963 
L 266.253378 47.179963 
L 266.337398 46.759863 
L 266.442423 46.675843 
L 266.547448 45.751624 
L 266.568453 45.751624 
L 266.673478 44.659364 
L 266.715488 44.659364 
L 266.820513 44.239264 
L 266.862523 44.239264 
L 266.967548 43.819164 
L 267.009558 43.819164 
L 267.093578 43.483084 
L 267.156593 43.399065 
L 267.156593 43.315045 
L 267.219608 43.315045 
" clip-path="url(#pe216641611)" style="fill: none; stroke: #1f77b4; stroke-width: 1.5; stroke-linecap: square"/>
   </g>
   <g id="patch_3">
    <path d="M 55.069198 255.465455 
L 55.069198 41.214545 
" style="fill: none; stroke: #000000; stroke-width: 0.8; stroke-linejoin: miter; stroke-linecap: square"/>
   </g>
   <g id="patch_4">
    <path d="M 269.320107 255.465455 
L 269.320107 41.214545 
" style="fill: none; stroke: #000000; stroke-width: 0.8; stroke-linejoin: miter; stroke-linecap: square"/>
   </g>
   <g id="patch_5">
    <path d="M 55.069198 255.465455 
L 269.320107 255.465455 
" style="fill: none; stroke: #000000; stroke-width: 0.8; stroke-linejoin: miter; stroke-linecap: square"/>
   </g>
   <g id="patch_6">
    <path d="M 55.069198 41.214545 
L 269.320107 41.214545 
" style="fill: none; stroke: #000000; stroke-width: 0.8; stroke-linejoin: miter; stroke-linecap: square"/>
   </g>
   <g id="text_15">
    <!-- ROC Curve -->
    <g transform="translate(129.504027 35.214545) scale(0.12 -0.12)">
     <defs>
      <path id="DejaVuSans-4f" d="M 2522 4238 
Q 1834 4238 1429 3725 
Q 1025 3213 1025 2328 
Q 1025 1447 1429 934 
Q 1834 422 2522 422 
Q 3209 422 3611 934 
Q 4013 1447 4013 2328 
Q 4013 3213 3611 3725 
Q 3209 4238 2522 4238 
z
M 2522 4750 
Q 3503 4750 4090 4092 
Q 4678 3434 4678 2328 
Q 4678 1225 4090 567 
Q 3503 -91 2522 -91 
Q 1538 -91 948 565 
Q 359 1222 359 2328 
Q 359 3434 948 4092 
Q 1538 4750 2522 4750 
z
" transform="scale(0.015625)"/>
      <path id="DejaVuSans-43" d="M 4122 4306 
L 4122 3641 
Q 3803 3938 3442 4084 
Q 3081 4231 2675 4231 
Q 1875 4231 1450 3742 
Q 1025 3253 1025 2328 
Q 1025 1406 1450 917 
Q 1875 428 2675 428 
Q 3081 428 3442 575 
Q 3803 722 4122 1019 
L 4122 359 
Q 3791 134 3420 21 
Q 3050 -91 2638 -91 
Q 1578 -91 968 557 
Q 359 1206 359 2328 
Q 359 3453 968 4101 
Q 1578 4750 2638 4750 
Q 3056 4750 3426 4639 
Q 3797 4528 4122 4306 
z
" transform="scale(0.015625)"/>
     </defs>
     <use xlink:href="#DejaVuSans-52"/>
     <use xlink:href="#DejaVuSans-4f" transform="translate(69.482422 0)"/>
     <use xlink:href="#DejaVuSans-43" transform="translate(148.193359 0)"/>
     <use xlink:href="#DejaVuSans-20" transform="translate(218.017578 0)"/>
     <use xlink:href="#DejaVuSans-43" transform="translate(249.804688 0)"/>
     <use xlink:href="#DejaVuSans-75" transform="translate(319.628906 0)"/>
     <use xlink:href="#DejaVuSans-72" transform="translate(383.007812 0)"/>
     <use xlink:href="#DejaVuSans-76" transform="translate(424.121094 0)"/>
     <use xlink:href="#DejaVuSans-65" transform="translate(483.300781 0)"/>
    </g>
   </g>
   <g id="legend_1">
    <g id="patch_7">
     <path d="M 115.546669 250.465455 
L 262.320107 250.465455 
Q 264.320107 250.465455 264.320107 248.465455 
L 264.320107 234.78733 
Q 264.320107 232.78733 262.320107 232.78733 
L 115.546669 232.78733 
Q 113.546669 232.78733 113.546669 234.78733 
L 113.546669 248.465455 
Q 113.546669 250.465455 115.546669 250.465455 
z
" style="fill: #ffffff; opacity: 0.8; stroke: #cccccc; stroke-linejoin: miter"/>
    </g>
    <g id="line2d_14">
     <path d="M 117.546669 240.885767 
L 127.546669 240.885767 
L 137.546669 240.885767 
" style="fill: none; stroke: #1f77b4; stroke-width: 1.5; stroke-linecap: square"/>
    </g>
    <g id="text_16">
     <!-- Classifier (AUC = 0.21) -->
     <g transform="translate(145.546669 244.385767) scale(0.1 -0.1)">
      <defs>
       <path id="DejaVuSans-66" d="M 2375 4863 
L 2375 4384 
L 1825 4384 
Q 1516 4384 1395 4259 
Q 1275 4134 1275 3809 
L 1275 3500 
L 2222 3500 
L 2222 3053 
L 1275 3053 
L 1275 0 
L 697 0 
L 697 3053 
L 147 3053 
L 147 3500 
L 697 3500 
L 697 3744 
Q 697 4328 969 4595 
Q 1241 4863 1831 4863 
L 2375 4863 
z
" transform="scale(0.015625)"/>
       <path id="DejaVuSans-41" d="M 2188 4044 
L 1331 1722 
L 3047 1722 
L 2188 4044 
z
M 1831 4666 
L 2547 4666 
L 4325 0 
L 3669 0 
L 3244 1197 
L 1141 1197 
L 716 0 
L 50 0 
L 1831 4666 
z
" transform="scale(0.015625)"/>
       <path id="DejaVuSans-55" d="M 556 4666 
L 1191 4666 
L 1191 1831 
Q 1191 1081 1462 751 
Q 1734 422 2344 422 
Q 2950 422 3222 751 
Q 3494 1081 3494 1831 
L 3494 4666 
L 4128 4666 
L 4128 1753 
Q 4128 841 3676 375 
Q 3225 -91 2344 -91 
Q 1459 -91 1007 375 
Q 556 841 556 1753 
L 556 4666 
z
" transform="scale(0.015625)"/>
       <path id="DejaVuSans-3d" d="M 678 2906 
L 4684 2906 
L 4684 2381 
L 678 2381 
L 678 2906 
z
M 678 1631 
L 4684 1631 
L 4684 1100 
L 678 1100 
L 678 1631 
z
" transform="scale(0.015625)"/>
      </defs>
      <use xlink:href="#DejaVuSans-43"/>
      <use xlink:href="#DejaVuSans-6c" transform="translate(69.824219 0)"/>
      <use xlink:href="#DejaVuSans-61" transform="translate(97.607422 0)"/>
      <use xlink:href="#DejaVuSans-73" transform="translate(158.886719 0)"/>
      <use xlink:href="#DejaVuSans-73" transform="translate(210.986328 0)"/>
      <use xlink:href="#DejaVuSans-69" transform="translate(263.085938 0)"/>
      <use xlink:href="#DejaVuSans-66" transform="translate(290.869141 0)"/>
      <use xlink:href="#DejaVuSans-69" transform="translate(326.074219 0)"/>
      <use xlink:href="#DejaVuSans-65" transform="translate(353.857422 0)"/>
      <use xlink:href="#DejaVuSans-72" transform="translate(415.380859 0)"/>
      <use xlink:href="#DejaVuSans-20" transform="translate(456.494141 0)"/>
      <use xlink:href="#DejaVuSans-28" transform="translate(488.28125 0)"/>
      <use xlink:href="#DejaVuSans-41" transform="translate(527.294922 0)"/>
      <use xlink:href="#DejaVuSans-55" transform="translate(595.703125 0)"/>
      <use xlink:href="#DejaVuSans-43" transform="translate(668.896484 0)"/>
      <use xlink:href="#DejaVuSans-20" transform="translate(738.720703 0)"/>
      <use xlink:href="#DejaVuSans-3d" transform="translate(770.507812 0)"/>
      <use xlink:href="#DejaVuSans-20" transform="translate(854.296875 0)"/>
      <use xlink:href="#DejaVuSans-30" transform="translate(886.083984 0)"/>
      <use xlink:href="#DejaVuSans-2e" transform="translate(949.707031 0)"/>
      <use xlink:href="#DejaVuSans-32" transform="translate(981.494141 0)"/>
      <use xlink:href="#DejaVuSans-31" transform="translate(1045.117188 0)"/>
      <use xlink:href="#DejaVuSans-29" transform="translate(1108.740234 0)"/>
     </g>
    </g>
   </g>
  </g>
  <g id="axes_2">
   <g id="patch_8">
    <path d="M 337.669198 255.465455 
L 551.920107 255.465455 
L 551.920107 41.214545 
L 337.669198 41.214545 
z
" style="fill: #ffffff"/>
   </g>
   <g id="matplotlib.axis_3">
    <g id="xtick_7">
     <g id="line2d_15">
      <g>
       <use xlink:href="#mf29f6dfe9d" x="339.769697" y="255.465455" style="stroke: #000000; stroke-width: 0.8"/>
      </g>
     </g>
     <g id="text_17">
      <!-- 0.0 -->
      <g transform="translate(331.818134 270.063892) scale(0.1 -0.1)">
       <use xlink:href="#DejaVuSans-30"/>
       <use xlink:href="#DejaVuSans-2e" transform="translate(63.623047 0)"/>
       <use xlink:href="#DejaVuSans-30" transform="translate(95.410156 0)"/>
      </g>
     </g>
    </g>
    <g id="xtick_8">
     <g id="line2d_16">
      <g>
       <use xlink:href="#mf29f6dfe9d" x="381.779679" y="255.465455" style="stroke: #000000; stroke-width: 0.8"/>
      </g>
     </g>
     <g id="text_18">
      <!-- 0.2 -->
      <g transform="translate(373.828117 270.063892) scale(0.1 -0.1)">
       <use xlink:href="#DejaVuSans-30"/>
       <use xlink:href="#DejaVuSans-2e" transform="translate(63.623047 0)"/>
       <use xlink:href="#DejaVuSans-32" transform="translate(95.410156 0)"/>
      </g>
     </g>
    </g>
    <g id="xtick_9">
     <g id="line2d_17">
      <g>
       <use xlink:href="#mf29f6dfe9d" x="423.789661" y="255.465455" style="stroke: #000000; stroke-width: 0.8"/>
      </g>
     </g>
     <g id="text_19">
      <!-- 0.4 -->
      <g transform="translate(415.838099 270.063892) scale(0.1 -0.1)">
       <use xlink:href="#DejaVuSans-30"/>
       <use xlink:href="#DejaVuSans-2e" transform="translate(63.623047 0)"/>
       <use xlink:href="#DejaVuSans-34" transform="translate(95.410156 0)"/>
      </g>
     </g>
    </g>
    <g id="xtick_10">
     <g id="line2d_18">
      <g>
       <use xlink:href="#mf29f6dfe9d" x="465.799643" y="255.465455" style="stroke: #000000; stroke-width: 0.8"/>
      </g>
     </g>
     <g id="text_20">
      <!-- 0.6 -->
      <g transform="translate(457.848081 270.063892) scale(0.1 -0.1)">
       <use xlink:href="#DejaVuSans-30"/>
       <use xlink:href="#DejaVuSans-2e" transform="translate(63.623047 0)"/>
       <use xlink:href="#DejaVuSans-36" transform="translate(95.410156 0)"/>
      </g>
     </g>
    </g>
    <g id="xtick_11">
     <g id="line2d_19">
      <g>
       <use xlink:href="#mf29f6dfe9d" x="507.809626" y="255.465455" style="stroke: #000000; stroke-width: 0.8"/>
      </g>
     </g>
     <g id="text_21">
      <!-- 0.8 -->
      <g transform="translate(499.858063 270.063892) scale(0.1 -0.1)">
       <use xlink:href="#DejaVuSans-30"/>
       <use xlink:href="#DejaVuSans-2e" transform="translate(63.623047 0)"/>
       <use xlink:href="#DejaVuSans-38" transform="translate(95.410156 0)"/>
      </g>
     </g>
    </g>
    <g id="xtick_12">
     <g id="line2d_20">
      <g>
       <use xlink:href="#mf29f6dfe9d" x="549.819608" y="255.465455" style="stroke: #000000; stroke-width: 0.8"/>
      </g>
     </g>
     <g id="text_22">
      <!-- 1.0 -->
      <g transform="translate(541.868045 270.063892) scale(0.1 -0.1)">
       <use xlink:href="#DejaVuSans-31"/>
       <use xlink:href="#DejaVuSans-2e" transform="translate(63.623047 0)"/>
       <use xlink:href="#DejaVuSans-30" transform="translate(95.410156 0)"/>
      </g>
     </g>
    </g>
    <g id="text_23">
     <!-- Recall (Positive label: 1) -->
     <g transform="translate(384.978246 283.742017) scale(0.1 -0.1)">
      <defs>
       <path id="DejaVuSans-63" d="M 3122 3366 
L 3122 2828 
Q 2878 2963 2633 3030 
Q 2388 3097 2138 3097 
Q 1578 3097 1268 2742 
Q 959 2388 959 1747 
Q 959 1106 1268 751 
Q 1578 397 2138 397 
Q 2388 397 2633 464 
Q 2878 531 3122 666 
L 3122 134 
Q 2881 22 2623 -34 
Q 2366 -91 2075 -91 
Q 1284 -91 818 406 
Q 353 903 353 1747 
Q 353 2603 823 3093 
Q 1294 3584 2113 3584 
Q 2378 3584 2631 3529 
Q 2884 3475 3122 3366 
z
" transform="scale(0.015625)"/>
      </defs>
      <use xlink:href="#DejaVuSans-52"/>
      <use xlink:href="#DejaVuSans-65" transform="translate(64.982422 0)"/>
      <use xlink:href="#DejaVuSans-63" transform="translate(126.505859 0)"/>
      <use xlink:href="#DejaVuSans-61" transform="translate(181.486328 0)"/>
      <use xlink:href="#DejaVuSans-6c" transform="translate(242.765625 0)"/>
      <use xlink:href="#DejaVuSans-6c" transform="translate(270.548828 0)"/>
      <use xlink:href="#DejaVuSans-20" transform="translate(298.332031 0)"/>
      <use xlink:href="#DejaVuSans-28" transform="translate(330.119141 0)"/>
      <use xlink:href="#DejaVuSans-50" transform="translate(369.132812 0)"/>
      <use xlink:href="#DejaVuSans-6f" transform="translate(425.810547 0)"/>
      <use xlink:href="#DejaVuSans-73" transform="translate(486.992188 0)"/>
      <use xlink:href="#DejaVuSans-69" transform="translate(539.091797 0)"/>
      <use xlink:href="#DejaVuSans-74" transform="translate(566.875 0)"/>
      <use xlink:href="#DejaVuSans-69" transform="translate(606.083984 0)"/>
      <use xlink:href="#DejaVuSans-76" transform="translate(633.867188 0)"/>
      <use xlink:href="#DejaVuSans-65" transform="translate(693.046875 0)"/>
      <use xlink:href="#DejaVuSans-20" transform="translate(754.570312 0)"/>
      <use xlink:href="#DejaVuSans-6c" transform="translate(786.357422 0)"/>
      <use xlink:href="#DejaVuSans-61" transform="translate(814.140625 0)"/>
      <use xlink:href="#DejaVuSans-62" transform="translate(875.419922 0)"/>
      <use xlink:href="#DejaVuSans-65" transform="translate(938.896484 0)"/>
      <use xlink:href="#DejaVuSans-6c" transform="translate(1000.419922 0)"/>
      <use xlink:href="#DejaVuSans-3a" transform="translate(1028.203125 0)"/>
      <use xlink:href="#DejaVuSans-20" transform="translate(1061.894531 0)"/>
      <use xlink:href="#DejaVuSans-31" transform="translate(1093.681641 0)"/>
      <use xlink:href="#DejaVuSans-29" transform="translate(1157.304688 0)"/>
     </g>
    </g>
   </g>
   <g id="matplotlib.axis_4">
    <g id="ytick_7">
     <g id="line2d_21">
      <g>
       <use xlink:href="#m76a72e846f" x="337.669198" y="253.364955" style="stroke: #000000; stroke-width: 0.8"/>
      </g>
     </g>
     <g id="text_24">
      <!-- 0.0 -->
      <g transform="translate(314.766073 257.164174) scale(0.1 -0.1)">
       <use xlink:href="#DejaVuSans-30"/>
       <use xlink:href="#DejaVuSans-2e" transform="translate(63.623047 0)"/>
       <use xlink:href="#DejaVuSans-30" transform="translate(95.410156 0)"/>
      </g>
     </g>
    </g>
    <g id="ytick_8">
     <g id="line2d_22">
      <g>
       <use xlink:href="#m76a72e846f" x="337.669198" y="211.354973" style="stroke: #000000; stroke-width: 0.8"/>
      </g>
     </g>
     <g id="text_25">
      <!-- 0.2 -->
      <g transform="translate(314.766073 215.154192) scale(0.1 -0.1)">
       <use xlink:href="#DejaVuSans-30"/>
       <use xlink:href="#DejaVuSans-2e" transform="translate(63.623047 0)"/>
       <use xlink:href="#DejaVuSans-32" transform="translate(95.410156 0)"/>
      </g>
     </g>
    </g>
    <g id="ytick_9">
     <g id="line2d_23">
      <g>
       <use xlink:href="#m76a72e846f" x="337.669198" y="169.344991" style="stroke: #000000; stroke-width: 0.8"/>
      </g>
     </g>
     <g id="text_26">
      <!-- 0.4 -->
      <g transform="translate(314.766073 173.14421) scale(0.1 -0.1)">
       <use xlink:href="#DejaVuSans-30"/>
       <use xlink:href="#DejaVuSans-2e" transform="translate(63.623047 0)"/>
       <use xlink:href="#DejaVuSans-34" transform="translate(95.410156 0)"/>
      </g>
     </g>
    </g>
    <g id="ytick_10">
     <g id="line2d_24">
      <g>
       <use xlink:href="#m76a72e846f" x="337.669198" y="127.335009" style="stroke: #000000; stroke-width: 0.8"/>
      </g>
     </g>
     <g id="text_27">
      <!-- 0.6 -->
      <g transform="translate(314.766073 131.134228) scale(0.1 -0.1)">
       <use xlink:href="#DejaVuSans-30"/>
       <use xlink:href="#DejaVuSans-2e" transform="translate(63.623047 0)"/>
       <use xlink:href="#DejaVuSans-36" transform="translate(95.410156 0)"/>
      </g>
     </g>
    </g>
    <g id="ytick_11">
     <g id="line2d_25">
      <g>
       <use xlink:href="#m76a72e846f" x="337.669198" y="85.325027" style="stroke: #000000; stroke-width: 0.8"/>
      </g>
     </g>
     <g id="text_28">
      <!-- 0.8 -->
      <g transform="translate(314.766073 89.124245) scale(0.1 -0.1)">
       <use xlink:href="#DejaVuSans-30"/>
       <use xlink:href="#DejaVuSans-2e" transform="translate(63.623047 0)"/>
       <use xlink:href="#DejaVuSans-38" transform="translate(95.410156 0)"/>
      </g>
     </g>
    </g>
    <g id="ytick_12">
     <g id="line2d_26">
      <g>
       <use xlink:href="#m76a72e846f" x="337.669198" y="43.315045" style="stroke: #000000; stroke-width: 0.8"/>
      </g>
     </g>
     <g id="text_29">
      <!-- 1.0 -->
      <g transform="translate(314.766073 47.114263) scale(0.1 -0.1)">
       <use xlink:href="#DejaVuSans-31"/>
       <use xlink:href="#DejaVuSans-2e" transform="translate(63.623047 0)"/>
       <use xlink:href="#DejaVuSans-30" transform="translate(95.410156 0)"/>
      </g>
     </g>
    </g>
    <g id="text_30">
     <!-- Precision (Positive label: 1) -->
     <g transform="translate(308.686385 215.54625) rotate(-90) scale(0.1 -0.1)">
      <defs>
       <path id="DejaVuSans-6e" d="M 3513 2113 
L 3513 0 
L 2938 0 
L 2938 2094 
Q 2938 2591 2744 2837 
Q 2550 3084 2163 3084 
Q 1697 3084 1428 2787 
Q 1159 2491 1159 1978 
L 1159 0 
L 581 0 
L 581 3500 
L 1159 3500 
L 1159 2956 
Q 1366 3272 1645 3428 
Q 1925 3584 2291 3584 
Q 2894 3584 3203 3211 
Q 3513 2838 3513 2113 
z
" transform="scale(0.015625)"/>
      </defs>
      <use xlink:href="#DejaVuSans-50"/>
      <use xlink:href="#DejaVuSans-72" transform="translate(58.552734 0)"/>
      <use xlink:href="#DejaVuSans-65" transform="translate(97.416016 0)"/>
      <use xlink:href="#DejaVuSans-63" transform="translate(158.939453 0)"/>
      <use xlink:href="#DejaVuSans-69" transform="translate(213.919922 0)"/>
      <use xlink:href="#DejaVuSans-73" transform="translate(241.703125 0)"/>
      <use xlink:href="#DejaVuSans-69" transform="translate(293.802734 0)"/>
      <use xlink:href="#DejaVuSans-6f" transform="translate(321.585938 0)"/>
      <use xlink:href="#DejaVuSans-6e" transform="translate(382.767578 0)"/>
      <use xlink:href="#DejaVuSans-20" transform="translate(446.146484 0)"/>
      <use xlink:href="#DejaVuSans-28" transform="translate(477.933594 0)"/>
      <use xlink:href="#DejaVuSans-50" transform="translate(516.947266 0)"/>
      <use xlink:href="#DejaVuSans-6f" transform="translate(573.625 0)"/>
      <use xlink:href="#DejaVuSans-73" transform="translate(634.806641 0)"/>
      <use xlink:href="#DejaVuSans-69" transform="translate(686.90625 0)"/>
      <use xlink:href="#DejaVuSans-74" transform="translate(714.689453 0)"/>
      <use xlink:href="#DejaVuSans-69" transform="translate(753.898438 0)"/>
      <use xlink:href="#DejaVuSans-76" transform="translate(781.681641 0)"/>
      <use xlink:href="#DejaVuSans-65" transform="translate(840.861328 0)"/>
      <use xlink:href="#DejaVuSans-20" transform="translate(902.384766 0)"/>
      <use xlink:href="#DejaVuSans-6c" transform="translate(934.171875 0)"/>
      <use xlink:href="#DejaVuSans-61" transform="translate(961.955078 0)"/>
      <use xlink:href="#DejaVuSans-62" transform="translate(1023.234375 0)"/>
      <use xlink:href="#DejaVuSans-65" transform="translate(1086.710938 0)"/>
      <use xlink:href="#DejaVuSans-6c" transform="translate(1148.234375 0)"/>
      <use xlink:href="#DejaVuSans-3a" transform="translate(1176.017578 0)"/>
      <use xlink:href="#DejaVuSans-20" transform="translate(1209.708984 0)"/>
      <use xlink:href="#DejaVuSans-31" transform="translate(1241.496094 0)"/>
      <use xlink:href="#DejaVuSans-29" transform="translate(1305.119141 0)"/>
     </g>
    </g>
   </g>
   <g id="line2d_27">
    <path d="M 549.819608 211.354973 
L 549.819608 211.344888 
L 549.735588 211.358335 
L 549.735588 211.354973 
L 548.643328 211.45608 
L 548.559308 211.476341 
L 547.719109 211.584462 
L 547.635089 211.604792 
L 546.878909 211.703001 
L 546.794889 211.723393 
L 546.794889 211.716691 
L 545.87067 211.815505 
L 545.78665 211.842674 
L 544.86243 211.948574 
L 544.77841 211.97581 
L 543.85419 212.078756 
L 543.77017 212.099385 
L 543.77017 212.092706 
L 542.929971 212.202388 
L 542.845951 212.229756 
L 541.837711 212.333853 
L 541.753691 212.357973 
L 541.753691 212.34798 
L 540.409372 212.451035 
L 540.325352 212.47195 
L 539.401132 212.570067 
L 539.317112 212.591066 
L 539.317112 212.587733 
L 538.140833 212.694582 
L 538.056813 212.719023 
L 538.056813 212.712357 
L 537.300633 212.810253 
L 537.216613 212.831429 
L 537.216613 212.821441 
L 536.208374 212.921529 
L 536.124354 212.942801 
L 535.368174 213.044652 
L 535.284154 213.072635 
L 535.284154 213.069313 
L 534.275914 213.170327 
L 534.191894 213.19508 
L 534.191894 213.188439 
L 533.267675 213.285867 
L 533.183655 213.304069 
L 532.343455 213.404411 
L 532.259435 213.432639 
L 532.259435 213.426011 
L 531.503256 213.529107 
L 531.419236 213.554083 
L 530.410996 213.653679 
L 530.326976 213.682057 
L 530.326976 213.675445 
L 529.318737 213.785506 
L 529.234717 213.804064 
L 528.310497 213.906998 
L 528.226477 213.935551 
L 528.226477 213.932251 
L 527.470297 214.036686 
L 527.386277 214.065295 
L 526.462058 214.172329 
L 526.378038 214.197727 
L 525.453818 214.29864 
L 525.369798 214.327411 
L 524.193519 214.43268 
L 524.109499 214.46157 
L 524.109499 214.458286 
L 523.269299 214.568755 
L 523.185279 214.597712 
L 523.185279 214.591156 
L 522.17704 214.691699 
L 522.09302 214.714204 
L 522.09302 214.69781 
L 521.1688 214.797478 
L 521.08478 214.826636 
L 521.08478 214.82336 
L 519.99252 214.923278 
L 519.908501 214.949276 
L 519.908501 214.945999 
L 519.068301 215.051708 
L 518.984281 215.074514 
L 518.984281 215.067968 
L 518.228101 215.165892 
L 518.144081 215.188775 
L 518.144081 215.185507 
L 517.303882 215.291946 
L 517.219862 215.321442 
L 517.219862 215.311652 
L 516.379662 215.415216 
L 516.295642 215.444792 
L 516.295642 215.441533 
L 515.623482 215.545135 
L 515.539462 215.574758 
L 515.539462 215.565006 
L 514.699263 215.662761 
L 514.615243 215.692469 
L 514.615243 215.689222 
L 513.691023 215.786054 
L 513.607003 215.815857 
L 512.766804 215.914478 
L 512.682784 215.941121 
L 511.926604 216.047829 
L 511.842584 216.077774 
L 511.842584 216.074541 
L 511.086404 216.171846 
L 511.002384 216.192177 
L 510.246205 216.299472 
L 510.162185 216.329551 
L 510.162185 216.32311 
L 509.406005 216.433907 
L 509.321985 216.457622 
L 508.565805 216.562278 
L 508.481785 216.58928 
L 508.481785 216.586073 
L 507.809626 216.6823 
L 507.725606 216.702965 
L 506.717366 216.808952 
L 506.633346 216.839334 
L 505.961186 216.936179 
L 505.877166 216.963424 
L 505.036967 217.065498 
L 504.952947 217.096018 
L 504.196767 217.202314 
L 504.112747 217.232898 
L 504.112747 217.217003 
L 503.272548 217.326255 
L 503.188528 217.353754 
L 503.188528 217.35058 
L 502.432348 217.451223 
L 502.348328 217.48197 
L 502.348328 217.462952 
L 501.508128 217.569864 
L 501.424108 217.588041 
L 500.667929 217.689428 
L 500.583909 217.714026 
L 500.583909 217.710864 
L 499.659689 217.815175 
L 499.575669 217.833567 
L 498.73547 217.929212 
L 498.65145 217.954027 
L 497.64321 218.062449 
L 497.55919 218.08108 
L 497.55919 218.077923 
L 496.88703 218.174824 
L 496.80301 218.193545 
L 496.80301 218.184089 
L 495.794771 218.281107 
L 495.710751 218.309418 
L 495.710751 218.29365 
L 494.702511 218.394545 
L 494.618491 218.416686 
L 494.618491 218.391427 
L 493.526232 218.486803 
L 493.442212 218.51858 
L 492.602012 218.620719 
L 492.517992 218.649434 
L 492.517992 218.633647 
L 491.593773 218.730187 
L 491.509753 218.759031 
L 490.669553 218.862242 
L 490.585533 218.89434 
L 489.829353 218.994551 
L 489.745333 219.026729 
L 488.737094 219.122303 
L 488.653074 219.142039 
L 487.812874 219.246843 
L 487.728854 219.272984 
L 487.728854 219.266698 
L 486.888655 219.362605 
L 486.804635 219.395143 
L 486.048455 219.494091 
L 485.964435 219.526714 
L 485.964435 219.523581 
L 485.292275 219.619104 
L 485.208255 219.651799 
L 485.208255 219.636162 
L 484.536096 219.735122 
L 484.452076 219.761653 
L 484.452076 219.758531 
L 483.527856 219.863423 
L 483.443836 219.890086 
L 482.519616 219.995658 
L 482.435596 220.028686 
L 482.435596 220.013099 
L 481.679417 220.111152 
L 481.595397 220.141169 
L 480.839217 220.236543 
L 480.755197 220.269768 
L 480.755197 220.26666 
L 480.083037 220.364448 
L 479.999017 220.385341 
L 479.999017 220.382238 
L 479.074798 220.480856 
L 478.990778 220.514299 
L 478.990778 220.511198 
L 478.150578 220.609254 
L 478.066558 220.639716 
L 478.066558 220.63352 
L 477.394399 220.732557 
L 477.310379 220.75383 
L 476.554199 220.863882 
L 476.554199 220.880748 
L 476.554199 220.862222 
L 476.470179 220.876011 
L 475.713999 220.97726 
L 475.629979 221.004942 
L 475.629979 221.001858 
L 475.04184 221.1035 
L 474.95782 221.137406 
L 474.95782 221.134333 
L 474.20164 221.2333 
L 474.11762 221.267306 
L 474.11762 221.264238 
L 473.27742 221.3654 
L 473.27742 221.382461 
L 473.27742 221.360995 
L 473.1934 221.378068 
L 472.521241 221.476257 
L 472.437221 221.504359 
L 471.344961 221.609219 
L 471.260941 221.63138 
L 470.504761 221.738642 
L 470.420742 221.773156 
L 469.496522 221.875812 
L 469.412502 221.910471 
L 469.412502 221.904364 
L 468.572302 222.005679 
L 468.488282 222.040468 
L 468.488282 222.037418 
L 467.648083 222.133284 
L 467.564063 222.159064 
L 466.723863 222.258642 
L 466.639843 222.287612 
L 466.639843 222.281521 
L 465.883663 222.388523 
L 465.799643 222.423694 
L 465.799643 222.420655 
L 464.875424 222.514845 
L 464.791404 222.534982 
L 464.791404 222.522813 
L 464.203264 222.622908 
L 464.119244 222.655297 
L 464.119244 222.646194 
L 463.447084 222.749131 
L 463.363065 222.781622 
L 463.363065 222.772538 
L 462.522865 222.866101 
L 462.438845 222.895718 
L 462.438845 222.883605 
L 461.682665 222.981167 
L 461.598645 223.016971 
L 461.598645 223.010922 
L 460.758446 223.11189 
L 460.758446 223.129862 
L 460.758446 223.09658 
L 460.674426 223.108517 
L 459.918246 223.213343 
L 459.834226 223.24642 
L 459.834226 223.243398 
L 459.162066 223.336708 
L 459.078046 223.369896 
L 459.078046 223.360844 
L 458.237847 223.463783 
L 458.153827 223.494111 
L 458.153827 223.485064 
L 457.313627 223.582712 
L 457.229607 223.616219 
L 457.229607 223.613205 
L 456.473427 223.711352 
L 456.389407 223.748003 
L 455.717248 223.846392 
L 455.633228 223.877138 
L 455.633228 223.874136 
L 454.961068 223.981954 
L 454.877048 224.018802 
L 454.877048 224.015809 
L 454.120868 224.118587 
L 454.036848 224.146598 
L 453.196649 224.25062 
L 453.112629 224.281785 
L 452.272429 224.374649 
L 452.188409 224.411954 
L 452.188409 224.403004 
L 451.51625 224.498003 
L 451.43223 224.52947 
L 451.43223 224.51457 
L 450.59203 224.6089 
L 450.50801 224.643534 
L 450.50801 224.628628 
L 449.75183 224.72278 
L 449.66781 224.748636 
L 449.66781 224.745655 
L 449.079671 224.841282 
L 448.995651 224.879155 
L 448.323491 224.982205 
L 448.239471 225.020183 
L 448.239471 225.014257 
L 447.483291 225.119066 
L 447.399271 225.151268 
L 446.727112 225.255335 
L 446.643092 225.281764 
L 446.643092 225.272906 
L 445.970932 225.365679 
L 445.970932 225.384864 
L 445.970932 225.361255 
L 445.886912 225.368645 
L 445.214752 225.476722 
L 445.130732 225.515242 
L 444.626612 225.608678 
L 444.542593 225.641391 
L 444.542593 225.638456 
L 443.954453 225.736769 
L 443.870433 225.769595 
L 443.870433 225.737372 
L 443.114253 225.836856 
L 443.030233 225.8728 
L 443.030233 225.85229 
L 442.358073 225.953487 
L 442.274053 225.98958 
L 442.274053 225.986655 
L 441.601894 226.088375 
L 441.517874 226.127517 
L 441.517874 226.1246 
L 440.677674 226.216569 
L 440.593654 226.252995 
L 440.593654 226.247162 
L 440.005514 226.339137 
L 439.921494 226.372772 
L 439.921494 226.366951 
L 439.249335 226.476207 
L 439.165315 226.512887 
L 439.165315 226.507082 
L 438.577175 226.608598 
L 438.493155 226.642495 
L 438.493155 226.619329 
L 437.736975 226.71189 
L 437.652955 226.743094 
L 437.652955 226.734403 
L 437.064816 226.83113 
L 436.980796 226.871142 
L 436.980796 226.862475 
L 436.308636 226.959468 
L 436.224616 226.996744 
L 436.224616 226.982319 
L 435.636476 227.074184 
L 435.552456 227.111595 
L 434.964317 227.215367 
L 434.880297 227.252887 
L 434.208137 227.354372 
L 434.124117 227.380592 
L 434.124117 227.377729 
L 433.619997 227.470612 
L 433.535977 227.511233 
L 433.535977 227.508381 
L 432.947837 227.604774 
L 432.863817 227.645506 
L 432.107638 227.746272 
L 432.023618 227.78718 
L 431.435478 227.887392 
L 431.351458 227.92275 
L 431.351458 227.894447 
L 430.679298 227.9931 
L 430.595278 228.031479 
L 430.091159 228.128946 
L 430.007139 228.167412 
L 429.503019 228.270705 
L 429.418999 228.306452 
L 429.418999 228.300847 
L 428.914879 228.398755 
L 428.914879 228.419471 
L 428.914879 228.377518 
L 428.830859 228.398269 
L 428.242719 228.49497 
L 428.158699 228.536584 
L 428.158699 228.528212 
L 427.57056 228.619803 
L 427.48654 228.661553 
L 427.48654 228.655986 
L 426.98242 228.749361 
L 426.8984 228.785655 
L 426.31026 228.880901 
L 426.22624 228.920106 
L 426.22624 228.911809 
L 425.638101 229.013068 
L 425.554081 229.044139 
L 425.554081 229.033102 
L 424.965941 229.123834 
L 424.881921 229.149574 
L 424.293781 229.240838 
L 424.209761 229.283258 
L 424.209761 229.269514 
L 423.537601 229.360626 
L 423.453581 229.397753 
L 422.949462 229.496195 
L 422.865442 229.533435 
L 422.865442 229.527966 
L 422.277302 229.634458 
L 422.193282 229.677294 
L 422.193282 229.669123 
L 421.689162 229.760037 
L 421.605142 229.794839 
L 421.605142 229.781254 
L 421.101022 229.880663 
L 421.017002 229.923725 
L 420.260823 230.023372 
L 420.176803 230.053142 
L 420.176803 230.050439 
L 419.504643 230.14827 
L 419.420623 230.191755 
L 419.420623 230.189057 
L 418.580424 230.293618 
L 418.496404 230.334676 
L 418.496404 230.329285 
L 417.908264 230.42578 
L 417.908264 230.447731 
L 417.908264 230.423509 
L 417.824244 230.445485 
L 417.068064 230.549061 
L 416.984044 230.590549 
L 416.984044 230.587862 
L 416.479924 230.687703 
L 416.395904 230.723953 
L 416.395904 230.721277 
L 415.891785 230.810762 
L 415.807765 230.841831 
L 415.807765 230.831152 
L 415.303645 230.909454 
L 415.219625 230.968278 
L 414.547465 231.074047 
L 414.463445 231.105524 
L 413.707266 231.200149 
L 413.623246 231.245167 
L 413.623246 231.242517 
L 413.035106 231.3381 
L 412.951086 231.370068 
L 412.951086 231.362133 
L 412.194906 231.466783 
L 412.110886 231.509611 
L 412.110886 231.504328 
L 411.522747 231.614601 
L 411.438727 231.644435 
L 411.438727 231.641801 
L 410.850587 231.731654 
L 410.766567 231.766978 
L 410.766567 231.759091 
L 410.178427 231.852275 
L 410.178427 231.875293 
L 410.178427 231.820056 
L 410.094407 231.840497 
L 409.590287 231.929714 
L 409.506267 231.973369 
L 409.506267 231.970744 
L 409.002148 232.06041 
L 408.918128 232.093751 
L 408.918128 232.088515 
L 408.245968 232.191302 
L 408.161948 232.217073 
L 408.161948 232.201367 
L 407.573808 232.307843 
L 407.489788 232.352143 
L 407.489788 232.341706 
L 406.985668 232.446147 
L 406.901648 232.493188 
L 406.901648 232.482801 
L 406.313509 232.580131 
L 406.229489 232.617018 
L 406.229489 232.611835 
L 405.725369 232.704308 
L 405.641349 232.751721 
L 405.641349 232.736228 
L 405.137229 232.834356 
L 405.053209 232.881926 
L 404.549089 232.9856 
L 404.46507 233.033286 
L 404.46507 233.028173 
L 403.96095 233.116949 
L 403.87693 233.164794 
L 403.87693 233.159701 
L 403.28879 233.265375 
L 403.20477 233.313409 
L 403.20477 233.310873 
L 402.70065 233.415933 
L 402.61663 233.46409 
L 402.61663 233.436324 
L 402.028491 233.540861 
L 401.944471 233.584231 
L 401.944471 233.574157 
L 401.440351 233.662724 
L 401.356331 233.691229 
L 401.356331 233.683684 
L 400.852211 233.787906 
L 400.768191 233.836689 
L 400.768191 233.829184 
L 400.264071 233.931363 
L 400.264071 233.955826 
L 400.264071 233.913388 
L 400.180051 233.915389 
L 399.675932 234.003267 
L 399.591912 234.052515 
L 399.591912 234.047526 
L 399.171812 234.138668 
L 399.087792 234.188021 
L 398.583672 234.27446 
L 398.499652 234.32399 
L 397.995532 234.418421 
L 397.911512 234.46811 
L 397.491412 234.55778 
L 397.407393 234.600241 
L 397.407393 234.590462 
L 396.903273 234.693243 
L 396.819253 234.738354 
L 396.819253 234.735921 
L 396.231113 234.825468 
L 396.147093 234.870861 
L 396.147093 234.85872 
L 395.642973 234.953105 
L 395.642973 234.97833 
L 395.642973 234.949241 
L 395.558953 234.964805 
L 394.970814 235.073155 
L 394.886794 235.12151 
L 394.886794 235.107006 
L 394.466694 235.199079 
L 394.382674 235.247593 
L 393.962574 235.337555 
L 393.878554 235.381421 
L 393.878554 235.37903 
L 393.374434 235.478243 
L 393.290414 235.527095 
L 393.290414 235.515196 
L 392.870314 235.603588 
L 392.786294 235.63128 
L 392.786294 235.619408 
L 392.282175 235.712755 
L 392.198155 235.764426 
L 392.198155 235.745498 
L 391.694035 235.846646 
L 391.610015 235.896187 
L 391.105895 235.983865 
L 391.021875 236.033636 
L 390.601775 236.130966 
L 390.517755 236.171549 
L 390.517755 236.162224 
L 389.929616 236.261218 
L 389.845596 236.311455 
L 389.845596 236.309132 
L 389.341476 236.417584 
L 389.257456 236.465707 
L 388.585296 236.556342 
L 388.501276 236.607191 
L 388.501276 236.604886 
L 387.997157 236.698928 
L 387.913137 236.750019 
L 387.493037 236.843197 
L 387.409017 236.896717 
L 387.409017 236.887604 
L 386.988917 236.981179 
L 386.904897 237.030328 
L 386.904897 237.025798 
L 386.484797 237.124284 
L 386.400777 237.160104 
L 386.400777 237.155598 
L 385.896657 237.241096 
L 385.812637 237.292999 
L 385.812637 237.281771 
L 385.224498 237.368461 
L 385.140478 237.414041 
L 385.140478 237.398324 
L 384.636358 237.485811 
L 384.552338 237.540701 
L 384.552338 237.536226 
L 383.964198 237.63211 
L 383.880178 237.662805 
L 383.880178 237.642657 
L 383.460078 237.729007 
L 383.376058 237.782351 
L 383.376058 237.771206 
L 382.871939 237.854877 
L 382.787919 237.908566 
L 382.787919 237.884093 
L 382.367819 237.967357 
L 382.283799 238.01912 
L 382.283799 238.01247 
L 381.863699 238.105179 
L 381.779679 238.141741 
L 381.779679 238.13291 
L 381.359579 238.237214 
L 381.275559 238.285075 
L 380.85546 238.374502 
L 380.77144 238.431337 
L 380.77144 238.409549 
L 380.26732 238.499885 
L 380.26732 238.528488 
L 380.26732 238.489249 
L 380.1833 238.507013 
L 379.7632 238.600174 
L 379.67918 238.655578 
L 379.67918 238.65124 
L 379.17506 238.745755 
L 379.09104 238.803652 
L 379.09104 238.788538 
L 378.67094 238.885211 
L 378.58692 238.943339 
L 378.58692 238.939051 
L 378.082801 239.03767 
L 377.998781 239.096113 
L 377.998781 239.091851 
L 377.494661 239.19792 
L 377.410641 239.25454 
L 377.410641 239.246072 
L 376.990541 239.353213 
L 376.906521 239.391135 
L 376.486421 239.479978 
L 376.402401 239.518303 
L 376.402401 239.512019 
L 375.982302 239.618317 
L 375.898282 239.671586 
L 375.478182 239.770112 
L 375.394162 239.811286 
L 375.394162 239.809223 
L 374.974062 239.89405 
L 374.890042 239.952052 
L 374.553962 240.038138 
L 374.469942 240.090187 
L 374.133862 240.176523 
L 374.049842 240.234825 
L 373.629743 240.335604 
L 373.545723 240.396124 
L 373.545723 240.388151 
L 373.125623 240.473689 
L 373.041603 240.514691 
L 373.041603 240.512705 
L 372.621503 240.612971 
L 372.537483 240.674101 
L 372.201403 240.758052 
L 372.117383 240.811522 
L 372.117383 240.807624 
L 371.697283 240.895492 
L 371.613263 240.955148 
L 371.613263 240.953213 
L 371.193164 241.040012 
L 371.109144 241.096146 
L 371.109144 241.09038 
L 370.689044 241.172346 
L 370.605024 241.234614 
L 370.605024 241.223151 
L 370.184924 241.325145 
L 370.100904 241.372544 
L 370.100904 241.359253 
L 369.764824 241.440143 
L 369.680804 241.501118 
L 369.680804 241.491699 
L 369.344724 241.573031 
L 369.260704 241.636111 
L 369.260704 241.632378 
L 368.840605 241.740184 
L 368.756585 241.790571 
L 368.756585 241.786873 
L 368.336485 241.878904 
L 368.252465 241.942607 
L 368.252465 241.937108 
L 367.832365 242.046519 
L 367.748345 242.101409 
L 367.748345 242.099595 
L 367.328245 242.193533 
L 367.244225 242.247066 
L 367.244225 242.229041 
L 366.824125 242.325886 
L 366.740106 242.383519 
L 366.740106 242.374569 
L 366.404026 242.457726 
L 366.320006 242.517469 
L 365.899906 242.598474 
L 365.815886 242.662215 
L 365.479806 242.750088 
L 365.395786 242.815767 
L 365.059706 242.909199 
L 364.975686 242.97159 
L 364.975686 242.957858 
L 364.639606 243.036342 
L 364.555586 243.102497 
L 364.555586 243.097396 
L 364.219507 243.176488 
L 364.135487 243.236177 
L 364.135487 243.234492 
L 363.715387 243.324127 
L 363.631367 243.384334 
L 363.631367 243.379322 
L 363.211267 243.461946 
L 363.127247 243.529369 
L 363.127247 243.516098 
L 362.791167 243.614158 
L 362.707147 243.670344 
L 362.707147 243.653927 
L 362.287047 243.740798 
L 362.203027 243.804211 
L 361.866948 243.88902 
L 361.782928 243.949545 
L 361.782928 243.896085 
L 361.446848 243.983523 
L 361.362828 244.052755 
L 361.362828 244.036663 
L 361.026748 244.124797 
L 360.942728 244.188018 
L 360.942728 244.178462 
L 360.606648 244.257794 
L 360.522628 244.327797 
L 360.522628 244.308867 
L 360.186548 244.403218 
L 360.102528 244.47201 
L 360.102528 244.453301 
L 359.766448 244.545221 
L 359.682429 244.583543 
L 359.682429 244.578893 
L 359.346349 244.667083 
L 359.262329 244.729198 
L 358.926249 244.81207 
L 358.842229 244.871665 
L 358.842229 244.84739 
L 358.506149 244.949434 
L 358.422129 245.006633 
L 358.086049 245.091407 
L 358.002029 245.158108 
L 358.002029 245.153673 
L 357.665949 245.254042 
L 357.581929 245.326944 
L 357.581929 245.325493 
L 357.16183 245.40678 
L 357.07781 245.455929 
L 357.07781 245.448695 
L 356.65771 245.5423 
L 356.57369 245.596837 
L 356.57369 245.579562 
L 356.15359 245.671107 
L 356.06957 245.739641 
L 355.73349 245.829356 
L 355.64947 245.904058 
L 355.64947 245.898446 
L 355.31339 245.983644 
L 355.22937 246.056108 
L 354.893291 246.142495 
L 354.809271 246.208706 
L 354.809271 246.189586 
L 354.557211 246.267049 
L 354.473191 246.329791 
L 354.473191 246.317652 
L 354.137111 246.421157 
L 354.053091 246.490006 
L 354.053091 246.486033 
L 353.632991 246.5931 
L 353.548971 246.655141 
L 353.548971 246.643358 
L 353.212891 246.740463 
L 353.128871 246.812486 
L 353.128871 246.8112 
L 352.876811 246.883463 
L 352.792791 246.963513 
L 352.792791 246.940777 
L 352.540732 247.013644 
L 352.456712 247.090467 
L 352.456712 247.087984 
L 352.120632 247.180872 
L 352.036612 247.253499 
L 352.036612 247.251062 
L 351.700532 247.32734 
L 351.616512 247.403394 
L 351.616512 247.399792 
L 351.280432 247.481682 
L 351.196412 247.557517 
L 351.196412 247.555155 
L 350.860332 247.65311 
L 350.776312 247.734397 
L 350.776312 247.721695 
L 350.440232 247.794956 
L 350.356212 247.87744 
L 350.356212 247.872885 
L 350.104153 247.943184 
L 350.020133 248.026187 
L 350.020133 248.002727 
L 349.768073 248.084002 
L 349.684053 248.168752 
L 349.684053 248.160023 
L 349.431993 248.228828 
L 349.347973 248.312056 
L 349.347973 248.291716 
L 349.011893 248.37554 
L 348.927873 248.441205 
L 348.927873 248.434843 
L 348.675813 248.508572 
L 348.591793 248.597286 
L 348.591793 248.59316 
L 348.255713 248.68903 
L 348.171693 248.773701 
L 348.171693 248.767671 
L 347.919634 248.838814 
L 347.835614 248.905692 
L 347.835614 248.904705 
L 347.583554 248.980169 
L 347.499534 249.059119 
L 347.499534 249.052393 
L 347.163454 249.1364 
L 347.079434 249.229553 
L 347.079434 249.222053 
L 346.827374 249.312699 
L 346.743354 249.369964 
L 346.743354 249.368132 
L 346.491294 249.456377 
L 346.407274 249.530865 
L 346.407274 249.529093 
L 346.155214 249.616672 
L 346.071194 249.704699 
L 346.071194 249.69532 
L 345.819134 249.787344 
L 345.819134 249.835529 
L 345.819134 249.778616 
L 345.735114 249.813266 
L 345.483055 249.894303 
L 345.399035 249.984378 
L 345.399035 249.974605 
L 345.146975 250.069458 
L 345.062955 250.163905 
L 345.062955 250.147561 
L 344.810895 250.226811 
L 344.726875 250.323742 
L 344.726875 250.322249 
L 344.474815 250.382184 
L 344.390795 250.48469 
L 344.390795 250.463714 
L 344.138735 250.564994 
L 344.054715 250.667261 
L 344.054715 250.663179 
L 343.802655 250.763882 
L 343.718635 250.866892 
L 343.718635 250.832935 
L 343.466575 250.911101 
L 343.382555 250.995557 
L 343.382555 250.984316 
L 343.130496 251.067184 
L 343.046476 251.155097 
L 343.046476 251.124883 
L 342.794416 251.222771 
L 342.710396 251.32846 
L 342.458336 251.422774 
L 342.374316 251.52813 
L 342.374316 251.526574 
L 342.122256 251.582788 
L 342.038236 251.699361 
L 342.038236 251.679061 
L 341.870196 251.735204 
L 341.786176 251.83593 
L 341.786176 251.826598 
L 341.618136 251.884824 
L 341.534116 252.003101 
L 341.534116 251.966399 
L 341.282056 252.007952 
L 341.198036 252.148726 
L 341.198036 252.132353 
L 341.029996 252.188617 
L 340.945976 252.330954 
L 340.945976 252.316204 
L 340.777937 252.390767 
L 340.693917 252.515801 
L 340.525877 252.587569 
L 340.441857 252.741662 
L 340.441857 252.739807 
L 340.273817 252.80311 
L 340.189797 252.94918 
L 340.189797 252.941809 
L 340.021757 253.010291 
L 339.937737 253.178823 
L 339.937737 253.172072 
L 339.769697 253.262542 
L 339.769697 253.364955 
L 339.769697 43.315045 
L 339.769697 43.315045 
" clip-path="url(#p8a8a4f3f32)" style="fill: none; stroke: #1f77b4; stroke-width: 1.5; stroke-linecap: square"/>
   </g>
   <g id="patch_9">
    <path d="M 337.669198 255.465455 
L 337.669198 41.214545 
" style="fill: none; stroke: #000000; stroke-width: 0.8; stroke-linejoin: miter; stroke-linecap: square"/>
   </g>
   <g id="patch_10">
    <path d="M 551.920107 255.465455 
L 551.920107 41.214545 
" style="fill: none; stroke: #000000; stroke-width: 0.8; stroke-linejoin: miter; stroke-linecap: square"/>
   </g>
   <g id="patch_11">
    <path d="M 337.669198 255.465455 
L 551.920107 255.465455 
" style="fill: none; stroke: #000000; stroke-width: 0.8; stroke-linejoin: miter; stroke-linecap: square"/>
   </g>
   <g id="patch_12">
    <path d="M 337.669198 41.214545 
L 551.920107 41.214545 
" style="fill: none; stroke: #000000; stroke-width: 0.8; stroke-linejoin: miter; stroke-linecap: square"/>
   </g>
   <g id="text_31">
    <!-- Precision-Recall Curve -->
    <g transform="translate(378.352152 35.214545) scale(0.12 -0.12)">
     <defs>
      <path id="DejaVuSans-2d" d="M 313 2009 
L 1997 2009 
L 1997 1497 
L 313 1497 
L 313 2009 
z
" transform="scale(0.015625)"/>
     </defs>
     <use xlink:href="#DejaVuSans-50"/>
     <use xlink:href="#DejaVuSans-72" transform="translate(58.552734 0)"/>
     <use xlink:href="#DejaVuSans-65" transform="translate(97.416016 0)"/>
     <use xlink:href="#DejaVuSans-63" transform="translate(158.939453 0)"/>
     <use xlink:href="#DejaVuSans-69" transform="translate(213.919922 0)"/>
     <use xlink:href="#DejaVuSans-73" transform="translate(241.703125 0)"/>
     <use xlink:href="#DejaVuSans-69" transform="translate(293.802734 0)"/>
     <use xlink:href="#DejaVuSans-6f" transform="translate(321.585938 0)"/>
     <use xlink:href="#DejaVuSans-6e" transform="translate(382.767578 0)"/>
     <use xlink:href="#DejaVuSans-2d" transform="translate(446.146484 0)"/>
     <use xlink:href="#DejaVuSans-52" transform="translate(482.230469 0)"/>
     <use xlink:href="#DejaVuSans-65" transform="translate(547.212891 0)"/>
     <use xlink:href="#DejaVuSans-63" transform="translate(608.736328 0)"/>
     <use xlink:href="#DejaVuSans-61" transform="translate(663.716797 0)"/>
     <use xlink:href="#DejaVuSans-6c" transform="translate(724.996094 0)"/>
     <use xlink:href="#DejaVuSans-6c" transform="translate(752.779297 0)"/>
     <use xlink:href="#DejaVuSans-20" transform="translate(780.5625 0)"/>
     <use xlink:href="#DejaVuSans-43" transform="translate(812.349609 0)"/>
     <use xlink:href="#DejaVuSans-75" transform="translate(882.173828 0)"/>
     <use xlink:href="#DejaVuSans-72" transform="translate(945.552734 0)"/>
     <use xlink:href="#DejaVuSans-76" transform="translate(986.666016 0)"/>
     <use xlink:href="#DejaVuSans-65" transform="translate(1045.845703 0)"/>
    </g>
   </g>
   <g id="legend_2">
    <g id="patch_13">
     <path d="M 344.669198 250.465455 
L 483.17076 250.465455 
Q 485.17076 250.465455 485.17076 248.465455 
L 485.17076 234.78733 
Q 485.17076 232.78733 483.17076 232.78733 
L 344.669198 232.78733 
Q 342.669198 232.78733 342.669198 234.78733 
L 342.669198 248.465455 
Q 342.669198 250.465455 344.669198 250.465455 
z
" style="fill: #ffffff; opacity: 0.8; stroke: #cccccc; stroke-linejoin: miter"/>
    </g>
    <g id="line2d_28">
     <path d="M 346.669198 240.885767 
L 356.669198 240.885767 
L 356.669198 240.885767 
L 366.669198 240.885767 
L 366.669198 240.885767 
" style="fill: none; stroke: #1f77b4; stroke-width: 1.5; stroke-linecap: square"/>
    </g>
    <g id="text_32">
     <!-- Classifier (AP = 0.12) -->
     <g transform="translate(374.669198 244.385767) scale(0.1 -0.1)">
      <use xlink:href="#DejaVuSans-43"/>
      <use xlink:href="#DejaVuSans-6c" transform="translate(69.824219 0)"/>
      <use xlink:href="#DejaVuSans-61" transform="translate(97.607422 0)"/>
      <use xlink:href="#DejaVuSans-73" transform="translate(158.886719 0)"/>
      <use xlink:href="#DejaVuSans-73" transform="translate(210.986328 0)"/>
      <use xlink:href="#DejaVuSans-69" transform="translate(263.085938 0)"/>
      <use xlink:href="#DejaVuSans-66" transform="translate(290.869141 0)"/>
      <use xlink:href="#DejaVuSans-69" transform="translate(326.074219 0)"/>
      <use xlink:href="#DejaVuSans-65" transform="translate(353.857422 0)"/>
      <use xlink:href="#DejaVuSans-72" transform="translate(415.380859 0)"/>
      <use xlink:href="#DejaVuSans-20" transform="translate(456.494141 0)"/>
      <use xlink:href="#DejaVuSans-28" transform="translate(488.28125 0)"/>
      <use xlink:href="#DejaVuSans-41" transform="translate(527.294922 0)"/>
      <use xlink:href="#DejaVuSans-50" transform="translate(595.703125 0)"/>
      <use xlink:href="#DejaVuSans-20" transform="translate(656.005859 0)"/>
      <use xlink:href="#DejaVuSans-3d" transform="translate(687.792969 0)"/>
      <use xlink:href="#DejaVuSans-20" transform="translate(771.582031 0)"/>
      <use xlink:href="#DejaVuSans-30" transform="translate(803.369141 0)"/>
      <use xlink:href="#DejaVuSans-2e" transform="translate(866.992188 0)"/>
      <use xlink:href="#DejaVuSans-31" transform="translate(898.779297 0)"/>
      <use xlink:href="#DejaVuSans-32" transform="translate(962.402344 0)"/>
      <use xlink:href="#DejaVuSans-29" transform="translate(1026.025391 0)"/>
     </g>
    </g>
   </g>
  </g>
  <g id="text_33">
   <!-- OOD detection performance -->
   <g transform="translate(203.355938 14.878125) scale(0.12 -0.12)">
    <defs>
     <path id="DejaVuSans-44" d="M 1259 4147 
L 1259 519 
L 2022 519 
Q 2988 519 3436 956 
Q 3884 1394 3884 2338 
Q 3884 3275 3436 3711 
Q 2988 4147 2022 4147 
L 1259 4147 
z
M 628 4666 
L 1925 4666 
Q 3281 4666 3915 4102 
Q 4550 3538 4550 2338 
Q 4550 1131 3912 565 
Q 3275 0 1925 0 
L 628 0 
L 628 4666 
z
" transform="scale(0.015625)"/>
     <path id="DejaVuSans-64" d="M 2906 2969 
L 2906 4863 
L 3481 4863 
L 3481 0 
L 2906 0 
L 2906 525 
Q 2725 213 2448 61 
Q 2172 -91 1784 -91 
Q 1150 -91 751 415 
Q 353 922 353 1747 
Q 353 2572 751 3078 
Q 1150 3584 1784 3584 
Q 2172 3584 2448 3432 
Q 2725 3281 2906 2969 
z
M 947 1747 
Q 947 1113 1208 752 
Q 1469 391 1925 391 
Q 2381 391 2643 752 
Q 2906 1113 2906 1747 
Q 2906 2381 2643 2742 
Q 2381 3103 1925 3103 
Q 1469 3103 1208 2742 
Q 947 2381 947 1747 
z
" transform="scale(0.015625)"/>
     <path id="DejaVuSans-70" d="M 1159 525 
L 1159 -1331 
L 581 -1331 
L 581 3500 
L 1159 3500 
L 1159 2969 
Q 1341 3281 1617 3432 
Q 1894 3584 2278 3584 
Q 2916 3584 3314 3078 
Q 3713 2572 3713 1747 
Q 3713 922 3314 415 
Q 2916 -91 2278 -91 
Q 1894 -91 1617 61 
Q 1341 213 1159 525 
z
M 3116 1747 
Q 3116 2381 2855 2742 
Q 2594 3103 2138 3103 
Q 1681 3103 1420 2742 
Q 1159 2381 1159 1747 
Q 1159 1113 1420 752 
Q 1681 391 2138 391 
Q 2594 391 2855 752 
Q 3116 1113 3116 1747 
z
" transform="scale(0.015625)"/>
     <path id="DejaVuSans-6d" d="M 3328 2828 
Q 3544 3216 3844 3400 
Q 4144 3584 4550 3584 
Q 5097 3584 5394 3201 
Q 5691 2819 5691 2113 
L 5691 0 
L 5113 0 
L 5113 2094 
Q 5113 2597 4934 2840 
Q 4756 3084 4391 3084 
Q 3944 3084 3684 2787 
Q 3425 2491 3425 1978 
L 3425 0 
L 2847 0 
L 2847 2094 
Q 2847 2600 2669 2842 
Q 2491 3084 2119 3084 
Q 1678 3084 1418 2786 
Q 1159 2488 1159 1978 
L 1159 0 
L 581 0 
L 581 3500 
L 1159 3500 
L 1159 2956 
Q 1356 3278 1631 3431 
Q 1906 3584 2284 3584 
Q 2666 3584 2933 3390 
Q 3200 3197 3328 2828 
z
" transform="scale(0.015625)"/>
    </defs>
    <use xlink:href="#DejaVuSans-4f"/>
    <use xlink:href="#DejaVuSans-4f" transform="translate(78.710938 0)"/>
    <use xlink:href="#DejaVuSans-44" transform="translate(157.421875 0)"/>
    <use xlink:href="#DejaVuSans-20" transform="translate(234.423828 0)"/>
    <use xlink:href="#DejaVuSans-64" transform="translate(266.210938 0)"/>
    <use xlink:href="#DejaVuSans-65" transform="translate(329.6875 0)"/>
    <use xlink:href="#DejaVuSans-74" transform="translate(391.210938 0)"/>
    <use xlink:href="#DejaVuSans-65" transform="translate(430.419922 0)"/>
    <use xlink:href="#DejaVuSans-63" transform="translate(491.943359 0)"/>
    <use xlink:href="#DejaVuSans-74" transform="translate(546.923828 0)"/>
    <use xlink:href="#DejaVuSans-69" transform="translate(586.132812 0)"/>
    <use xlink:href="#DejaVuSans-6f" transform="translate(613.916016 0)"/>
    <use xlink:href="#DejaVuSans-6e" transform="translate(675.097656 0)"/>
    <use xlink:href="#DejaVuSans-20" transform="translate(738.476562 0)"/>
    <use xlink:href="#DejaVuSans-70" transform="translate(770.263672 0)"/>
    <use xlink:href="#DejaVuSans-65" transform="translate(833.740234 0)"/>
    <use xlink:href="#DejaVuSans-72" transform="translate(895.263672 0)"/>
    <use xlink:href="#DejaVuSans-66" transform="translate(936.376953 0)"/>
    <use xlink:href="#DejaVuSans-6f" transform="translate(971.582031 0)"/>
    <use xlink:href="#DejaVuSans-72" transform="translate(1032.763672 0)"/>
    <use xlink:href="#DejaVuSans-6d" transform="translate(1072.126953 0)"/>
    <use xlink:href="#DejaVuSans-61" transform="translate(1169.539062 0)"/>
    <use xlink:href="#DejaVuSans-6e" transform="translate(1230.818359 0)"/>
    <use xlink:href="#DejaVuSans-63" transform="translate(1294.197266 0)"/>
    <use xlink:href="#DejaVuSans-65" transform="translate(1349.177734 0)"/>
   </g>
  </g>
 </g>
 <defs>
  <clipPath id="pe216641611">
   <rect x="55.069198" y="41.214545" width="214.250909" height="214.250909"/>
  </clipPath>
  <clipPath id="p8a8a4f3f32">
   <rect x="337.669198" y="41.214545" width="214.250909" height="214.250909"/>
  </clipPath>
 </defs>
</svg>
