<?xml version="1.0" encoding="utf-8" standalone="no"?>
<!DOCTYPE svg PUBLIC "-//W3C//DTD SVG 1.1//EN"
  "http://www.w3.org/Graphics/SVG/1.1/DTD/svg11.dtd">
<svg xmlns:xlink="http://www.w3.org/1999/xlink" width="576pt" height="288pt" viewBox="0 0 576 288" xmlns="http://www.w3.org/2000/svg" version="1.1">
 <metadata>
  <rdf:RDF xmlns:dc="http://purl.org/dc/elements/1.1/" xmlns:cc="http://creativecommons.org/ns#" xmlns:rdf="http://www.w3.org/1999/02/22-rdf-syntax-ns#">
   <cc:Work>
    <dc:type rdf:resource="http://purl.org/dc/dcmitype/StillImage"/>
    <dc:date>2025-05-31T20:40:23.182327</dc:date>
    <dc:format>image/svg+xml</dc:format>
    <dc:creator>
     <cc:Agent>
      <dc:title>Matplotlib v3.10.1, https://matplotlib.org/</dc:title>
     </cc:Agent>
    </dc:creator>
   </cc:Work>
  </rdf:RDF>
 </metadata>
 <defs>
  <style type="text/css">*{stroke-linejoin: round; stroke-linecap: butt}</style>
 </defs>
 <g id="figure_1">
  <g id="patch_1">
   <path d="M 0 288 
L 576 288 
L 576 0 
L 0 0 
z
" style="fill: #ffffff"/>
  </g>
  <g id="axes_1">
   <g id="patch_2">
    <path d="M 47.72 246.04 
L 280.879846 246.04 
L 280.879846 34.75125 
L 47.72 34.75125 
z
" style="fill: #ffffff"/>
   </g>
   <g id="matplotlib.axis_1">
    <g id="xtick_1">
     <g id="line2d_1">
      <defs>
       <path id="m9fae7be791" d="M 0 0 
L 0 3.5 
" style="stroke: #000000; stroke-width: 0.8"/>
      </defs>
      <g>
       <use xlink:href="#m9fae7be791" x="58.318175" y="246.04" style="stroke: #000000; stroke-width: 0.8"/>
      </g>
     </g>
     <g id="text_1">
      <!-- 0 -->
      <g transform="translate(55.136925 260.638438) scale(0.1 -0.1)">
       <defs>
        <path id="DejaVuSans-30" d="M 2034 4250 
Q 1547 4250 1301 3770 
Q 1056 3291 1056 2328 
Q 1056 1369 1301 889 
Q 1547 409 2034 409 
Q 2525 409 2770 889 
Q 3016 1369 3016 2328 
Q 3016 3291 2770 3770 
Q 2525 4250 2034 4250 
z
M 2034 4750 
Q 2819 4750 3233 4129 
Q 3647 3509 3647 2328 
Q 3647 1150 3233 529 
Q 2819 -91 2034 -91 
Q 1250 -91 836 529 
Q 422 1150 422 2328 
Q 422 3509 836 4129 
Q 1250 4750 2034 4750 
z
" transform="scale(0.015625)"/>
       </defs>
       <use xlink:href="#DejaVuSans-30"/>
      </g>
     </g>
    </g>
    <g id="xtick_2">
     <g id="line2d_2">
      <g>
       <use xlink:href="#m9fae7be791" x="100.715114" y="246.04" style="stroke: #000000; stroke-width: 0.8"/>
      </g>
     </g>
     <g id="text_2">
      <!-- 2000 -->
      <g transform="translate(87.990114 260.638438) scale(0.1 -0.1)">
       <defs>
        <path id="DejaVuSans-32" d="M 1228 531 
L 3431 531 
L 3431 0 
L 469 0 
L 469 531 
Q 828 903 1448 1529 
Q 2069 2156 2228 2338 
Q 2531 2678 2651 2914 
Q 2772 3150 2772 3378 
Q 2772 3750 2511 3984 
Q 2250 4219 1831 4219 
Q 1534 4219 1204 4116 
Q 875 4013 500 3803 
L 500 4441 
Q 881 4594 1212 4672 
Q 1544 4750 1819 4750 
Q 2544 4750 2975 4387 
Q 3406 4025 3406 3419 
Q 3406 3131 3298 2873 
Q 3191 2616 2906 2266 
Q 2828 2175 2409 1742 
Q 1991 1309 1228 531 
z
" transform="scale(0.015625)"/>
       </defs>
       <use xlink:href="#DejaVuSans-32"/>
       <use xlink:href="#DejaVuSans-30" transform="translate(63.623047 0)"/>
       <use xlink:href="#DejaVuSans-30" transform="translate(127.246094 0)"/>
       <use xlink:href="#DejaVuSans-30" transform="translate(190.869141 0)"/>
      </g>
     </g>
    </g>
    <g id="xtick_3">
     <g id="line2d_3">
      <g>
       <use xlink:href="#m9fae7be791" x="143.112053" y="246.04" style="stroke: #000000; stroke-width: 0.8"/>
      </g>
     </g>
     <g id="text_3">
      <!-- 4000 -->
      <g transform="translate(130.387053 260.638438) scale(0.1 -0.1)">
       <defs>
        <path id="DejaVuSans-34" d="M 2419 4116 
L 825 1625 
L 2419 1625 
L 2419 4116 
z
M 2253 4666 
L 3047 4666 
L 3047 1625 
L 3713 1625 
L 3713 1100 
L 3047 1100 
L 3047 0 
L 2419 0 
L 2419 1100 
L 313 1100 
L 313 1709 
L 2253 4666 
z
" transform="scale(0.015625)"/>
       </defs>
       <use xlink:href="#DejaVuSans-34"/>
       <use xlink:href="#DejaVuSans-30" transform="translate(63.623047 0)"/>
       <use xlink:href="#DejaVuSans-30" transform="translate(127.246094 0)"/>
       <use xlink:href="#DejaVuSans-30" transform="translate(190.869141 0)"/>
      </g>
     </g>
    </g>
    <g id="xtick_4">
     <g id="line2d_4">
      <g>
       <use xlink:href="#m9fae7be791" x="185.508992" y="246.04" style="stroke: #000000; stroke-width: 0.8"/>
      </g>
     </g>
     <g id="text_4">
      <!-- 6000 -->
      <g transform="translate(172.783992 260.638438) scale(0.1 -0.1)">
       <defs>
        <path id="DejaVuSans-36" d="M 2113 2584 
Q 1688 2584 1439 2293 
Q 1191 2003 1191 1497 
Q 1191 994 1439 701 
Q 1688 409 2113 409 
Q 2538 409 2786 701 
Q 3034 994 3034 1497 
Q 3034 2003 2786 2293 
Q 2538 2584 2113 2584 
z
M 3366 4563 
L 3366 3988 
Q 3128 4100 2886 4159 
Q 2644 4219 2406 4219 
Q 1781 4219 1451 3797 
Q 1122 3375 1075 2522 
Q 1259 2794 1537 2939 
Q 1816 3084 2150 3084 
Q 2853 3084 3261 2657 
Q 3669 2231 3669 1497 
Q 3669 778 3244 343 
Q 2819 -91 2113 -91 
Q 1303 -91 875 529 
Q 447 1150 447 2328 
Q 447 3434 972 4092 
Q 1497 4750 2381 4750 
Q 2619 4750 2861 4703 
Q 3103 4656 3366 4563 
z
" transform="scale(0.015625)"/>
       </defs>
       <use xlink:href="#DejaVuSans-36"/>
       <use xlink:href="#DejaVuSans-30" transform="translate(63.623047 0)"/>
       <use xlink:href="#DejaVuSans-30" transform="translate(127.246094 0)"/>
       <use xlink:href="#DejaVuSans-30" transform="translate(190.869141 0)"/>
      </g>
     </g>
    </g>
    <g id="xtick_5">
     <g id="line2d_5">
      <g>
       <use xlink:href="#m9fae7be791" x="227.905931" y="246.04" style="stroke: #000000; stroke-width: 0.8"/>
      </g>
     </g>
     <g id="text_5">
      <!-- 8000 -->
      <g transform="translate(215.180931 260.638438) scale(0.1 -0.1)">
       <defs>
        <path id="DejaVuSans-38" d="M 2034 2216 
Q 1584 2216 1326 1975 
Q 1069 1734 1069 1313 
Q 1069 891 1326 650 
Q 1584 409 2034 409 
Q 2484 409 2743 651 
Q 3003 894 3003 1313 
Q 3003 1734 2745 1975 
Q 2488 2216 2034 2216 
z
M 1403 2484 
Q 997 2584 770 2862 
Q 544 3141 544 3541 
Q 544 4100 942 4425 
Q 1341 4750 2034 4750 
Q 2731 4750 3128 4425 
Q 3525 4100 3525 3541 
Q 3525 3141 3298 2862 
Q 3072 2584 2669 2484 
Q 3125 2378 3379 2068 
Q 3634 1759 3634 1313 
Q 3634 634 3220 271 
Q 2806 -91 2034 -91 
Q 1263 -91 848 271 
Q 434 634 434 1313 
Q 434 1759 690 2068 
Q 947 2378 1403 2484 
z
M 1172 3481 
Q 1172 3119 1398 2916 
Q 1625 2713 2034 2713 
Q 2441 2713 2670 2916 
Q 2900 3119 2900 3481 
Q 2900 3844 2670 4047 
Q 2441 4250 2034 4250 
Q 1625 4250 1398 4047 
Q 1172 3844 1172 3481 
z
" transform="scale(0.015625)"/>
       </defs>
       <use xlink:href="#DejaVuSans-38"/>
       <use xlink:href="#DejaVuSans-30" transform="translate(63.623047 0)"/>
       <use xlink:href="#DejaVuSans-30" transform="translate(127.246094 0)"/>
       <use xlink:href="#DejaVuSans-30" transform="translate(190.869141 0)"/>
      </g>
     </g>
    </g>
    <g id="xtick_6">
     <g id="line2d_6">
      <g>
       <use xlink:href="#m9fae7be791" x="270.30287" y="246.04" style="stroke: #000000; stroke-width: 0.8"/>
      </g>
     </g>
     <g id="text_6">
      <!-- 10000 -->
      <g transform="translate(254.39662 260.638438) scale(0.1 -0.1)">
       <defs>
        <path id="DejaVuSans-31" d="M 794 531 
L 1825 531 
L 1825 4091 
L 703 3866 
L 703 4441 
L 1819 4666 
L 2450 4666 
L 2450 531 
L 3481 531 
L 3481 0 
L 794 0 
L 794 531 
z
" transform="scale(0.015625)"/>
       </defs>
       <use xlink:href="#DejaVuSans-31"/>
       <use xlink:href="#DejaVuSans-30" transform="translate(63.623047 0)"/>
       <use xlink:href="#DejaVuSans-30" transform="translate(127.246094 0)"/>
       <use xlink:href="#DejaVuSans-30" transform="translate(190.869141 0)"/>
       <use xlink:href="#DejaVuSans-30" transform="translate(254.492188 0)"/>
      </g>
     </g>
    </g>
    <g id="text_7">
     <!-- Ordered samples -->
     <g transform="translate(121.578829 274.316562) scale(0.1 -0.1)">
      <defs>
       <path id="DejaVuSans-4f" d="M 2522 4238 
Q 1834 4238 1429 3725 
Q 1025 3213 1025 2328 
Q 1025 1447 1429 934 
Q 1834 422 2522 422 
Q 3209 422 3611 934 
Q 4013 1447 4013 2328 
Q 4013 3213 3611 3725 
Q 3209 4238 2522 4238 
z
M 2522 4750 
Q 3503 4750 4090 4092 
Q 4678 3434 4678 2328 
Q 4678 1225 4090 567 
Q 3503 -91 2522 -91 
Q 1538 -91 948 565 
Q 359 1222 359 2328 
Q 359 3434 948 4092 
Q 1538 4750 2522 4750 
z
" transform="scale(0.015625)"/>
       <path id="DejaVuSans-72" d="M 2631 2963 
Q 2534 3019 2420 3045 
Q 2306 3072 2169 3072 
Q 1681 3072 1420 2755 
Q 1159 2438 1159 1844 
L 1159 0 
L 581 0 
L 581 3500 
L 1159 3500 
L 1159 2956 
Q 1341 3275 1631 3429 
Q 1922 3584 2338 3584 
Q 2397 3584 2469 3576 
Q 2541 3569 2628 3553 
L 2631 2963 
z
" transform="scale(0.015625)"/>
       <path id="DejaVuSans-64" d="M 2906 2969 
L 2906 4863 
L 3481 4863 
L 3481 0 
L 2906 0 
L 2906 525 
Q 2725 213 2448 61 
Q 2172 -91 1784 -91 
Q 1150 -91 751 415 
Q 353 922 353 1747 
Q 353 2572 751 3078 
Q 1150 3584 1784 3584 
Q 2172 3584 2448 3432 
Q 2725 3281 2906 2969 
z
M 947 1747 
Q 947 1113 1208 752 
Q 1469 391 1925 391 
Q 2381 391 2643 752 
Q 2906 1113 2906 1747 
Q 2906 2381 2643 2742 
Q 2381 3103 1925 3103 
Q 1469 3103 1208 2742 
Q 947 2381 947 1747 
z
" transform="scale(0.015625)"/>
       <path id="DejaVuSans-65" d="M 3597 1894 
L 3597 1613 
L 953 1613 
Q 991 1019 1311 708 
Q 1631 397 2203 397 
Q 2534 397 2845 478 
Q 3156 559 3463 722 
L 3463 178 
Q 3153 47 2828 -22 
Q 2503 -91 2169 -91 
Q 1331 -91 842 396 
Q 353 884 353 1716 
Q 353 2575 817 3079 
Q 1281 3584 2069 3584 
Q 2775 3584 3186 3129 
Q 3597 2675 3597 1894 
z
M 3022 2063 
Q 3016 2534 2758 2815 
Q 2500 3097 2075 3097 
Q 1594 3097 1305 2825 
Q 1016 2553 972 2059 
L 3022 2063 
z
" transform="scale(0.015625)"/>
       <path id="DejaVuSans-20" transform="scale(0.015625)"/>
       <path id="DejaVuSans-73" d="M 2834 3397 
L 2834 2853 
Q 2591 2978 2328 3040 
Q 2066 3103 1784 3103 
Q 1356 3103 1142 2972 
Q 928 2841 928 2578 
Q 928 2378 1081 2264 
Q 1234 2150 1697 2047 
L 1894 2003 
Q 2506 1872 2764 1633 
Q 3022 1394 3022 966 
Q 3022 478 2636 193 
Q 2250 -91 1575 -91 
Q 1294 -91 989 -36 
Q 684 19 347 128 
L 347 722 
Q 666 556 975 473 
Q 1284 391 1588 391 
Q 1994 391 2212 530 
Q 2431 669 2431 922 
Q 2431 1156 2273 1281 
Q 2116 1406 1581 1522 
L 1381 1569 
Q 847 1681 609 1914 
Q 372 2147 372 2553 
Q 372 3047 722 3315 
Q 1072 3584 1716 3584 
Q 2034 3584 2315 3537 
Q 2597 3491 2834 3397 
z
" transform="scale(0.015625)"/>
       <path id="DejaVuSans-61" d="M 2194 1759 
Q 1497 1759 1228 1600 
Q 959 1441 959 1056 
Q 959 750 1161 570 
Q 1363 391 1709 391 
Q 2188 391 2477 730 
Q 2766 1069 2766 1631 
L 2766 1759 
L 2194 1759 
z
M 3341 1997 
L 3341 0 
L 2766 0 
L 2766 531 
Q 2569 213 2275 61 
Q 1981 -91 1556 -91 
Q 1019 -91 701 211 
Q 384 513 384 1019 
Q 384 1609 779 1909 
Q 1175 2209 1959 2209 
L 2766 2209 
L 2766 2266 
Q 2766 2663 2505 2880 
Q 2244 3097 1772 3097 
Q 1472 3097 1187 3025 
Q 903 2953 641 2809 
L 641 3341 
Q 956 3463 1253 3523 
Q 1550 3584 1831 3584 
Q 2591 3584 2966 3190 
Q 3341 2797 3341 1997 
z
" transform="scale(0.015625)"/>
       <path id="DejaVuSans-6d" d="M 3328 2828 
Q 3544 3216 3844 3400 
Q 4144 3584 4550 3584 
Q 5097 3584 5394 3201 
Q 5691 2819 5691 2113 
L 5691 0 
L 5113 0 
L 5113 2094 
Q 5113 2597 4934 2840 
Q 4756 3084 4391 3084 
Q 3944 3084 3684 2787 
Q 3425 2491 3425 1978 
L 3425 0 
L 2847 0 
L 2847 2094 
Q 2847 2600 2669 2842 
Q 2491 3084 2119 3084 
Q 1678 3084 1418 2786 
Q 1159 2488 1159 1978 
L 1159 0 
L 581 0 
L 581 3500 
L 1159 3500 
L 1159 2956 
Q 1356 3278 1631 3431 
Q 1906 3584 2284 3584 
Q 2666 3584 2933 3390 
Q 3200 3197 3328 2828 
z
" transform="scale(0.015625)"/>
       <path id="DejaVuSans-70" d="M 1159 525 
L 1159 -1331 
L 581 -1331 
L 581 3500 
L 1159 3500 
L 1159 2969 
Q 1341 3281 1617 3432 
Q 1894 3584 2278 3584 
Q 2916 3584 3314 3078 
Q 3713 2572 3713 1747 
Q 3713 922 3314 415 
Q 2916 -91 2278 -91 
Q 1894 -91 1617 61 
Q 1341 213 1159 525 
z
M 3116 1747 
Q 3116 2381 2855 2742 
Q 2594 3103 2138 3103 
Q 1681 3103 1420 2742 
Q 1159 2381 1159 1747 
Q 1159 1113 1420 752 
Q 1681 391 2138 391 
Q 2594 391 2855 752 
Q 3116 1113 3116 1747 
z
" transform="scale(0.015625)"/>
       <path id="DejaVuSans-6c" d="M 603 4863 
L 1178 4863 
L 1178 0 
L 603 0 
L 603 4863 
z
" transform="scale(0.015625)"/>
      </defs>
      <use xlink:href="#DejaVuSans-4f"/>
      <use xlink:href="#DejaVuSans-72" transform="translate(78.710938 0)"/>
      <use xlink:href="#DejaVuSans-64" transform="translate(118.074219 0)"/>
      <use xlink:href="#DejaVuSans-65" transform="translate(181.550781 0)"/>
      <use xlink:href="#DejaVuSans-72" transform="translate(243.074219 0)"/>
      <use xlink:href="#DejaVuSans-65" transform="translate(281.9375 0)"/>
      <use xlink:href="#DejaVuSans-64" transform="translate(343.460938 0)"/>
      <use xlink:href="#DejaVuSans-20" transform="translate(406.9375 0)"/>
      <use xlink:href="#DejaVuSans-73" transform="translate(438.724609 0)"/>
      <use xlink:href="#DejaVuSans-61" transform="translate(490.824219 0)"/>
      <use xlink:href="#DejaVuSans-6d" transform="translate(552.103516 0)"/>
      <use xlink:href="#DejaVuSans-70" transform="translate(649.515625 0)"/>
      <use xlink:href="#DejaVuSans-6c" transform="translate(712.992188 0)"/>
      <use xlink:href="#DejaVuSans-65" transform="translate(740.775391 0)"/>
      <use xlink:href="#DejaVuSans-73" transform="translate(802.298828 0)"/>
     </g>
    </g>
   </g>
   <g id="matplotlib.axis_2">
    <g id="ytick_1">
     <g id="line2d_7">
      <defs>
       <path id="m1547bfbf0b" d="M 0 0 
L -3.5 0 
" style="stroke: #000000; stroke-width: 0.8"/>
      </defs>
      <g>
       <use xlink:href="#m1547bfbf0b" x="47.72" y="239.431296" style="stroke: #000000; stroke-width: 0.8"/>
      </g>
     </g>
     <g id="text_8">
      <!-- 0.2 -->
      <g transform="translate(24.816875 243.230515) scale(0.1 -0.1)">
       <defs>
        <path id="DejaVuSans-2e" d="M 684 794 
L 1344 794 
L 1344 0 
L 684 0 
L 684 794 
z
" transform="scale(0.015625)"/>
       </defs>
       <use xlink:href="#DejaVuSans-30"/>
       <use xlink:href="#DejaVuSans-2e" transform="translate(63.623047 0)"/>
       <use xlink:href="#DejaVuSans-32" transform="translate(95.410156 0)"/>
      </g>
     </g>
    </g>
    <g id="ytick_2">
     <g id="line2d_8">
      <g>
       <use xlink:href="#m1547bfbf0b" x="47.72" y="215.046795" style="stroke: #000000; stroke-width: 0.8"/>
      </g>
     </g>
     <g id="text_9">
      <!-- 0.3 -->
      <g transform="translate(24.816875 218.846013) scale(0.1 -0.1)">
       <defs>
        <path id="DejaVuSans-33" d="M 2597 2516 
Q 3050 2419 3304 2112 
Q 3559 1806 3559 1356 
Q 3559 666 3084 287 
Q 2609 -91 1734 -91 
Q 1441 -91 1130 -33 
Q 819 25 488 141 
L 488 750 
Q 750 597 1062 519 
Q 1375 441 1716 441 
Q 2309 441 2620 675 
Q 2931 909 2931 1356 
Q 2931 1769 2642 2001 
Q 2353 2234 1838 2234 
L 1294 2234 
L 1294 2753 
L 1863 2753 
Q 2328 2753 2575 2939 
Q 2822 3125 2822 3475 
Q 2822 3834 2567 4026 
Q 2313 4219 1838 4219 
Q 1578 4219 1281 4162 
Q 984 4106 628 3988 
L 628 4550 
Q 988 4650 1302 4700 
Q 1616 4750 1894 4750 
Q 2613 4750 3031 4423 
Q 3450 4097 3450 3541 
Q 3450 3153 3228 2886 
Q 3006 2619 2597 2516 
z
" transform="scale(0.015625)"/>
       </defs>
       <use xlink:href="#DejaVuSans-30"/>
       <use xlink:href="#DejaVuSans-2e" transform="translate(63.623047 0)"/>
       <use xlink:href="#DejaVuSans-33" transform="translate(95.410156 0)"/>
      </g>
     </g>
    </g>
    <g id="ytick_3">
     <g id="line2d_9">
      <g>
       <use xlink:href="#m1547bfbf0b" x="47.72" y="190.662293" style="stroke: #000000; stroke-width: 0.8"/>
      </g>
     </g>
     <g id="text_10">
      <!-- 0.4 -->
      <g transform="translate(24.816875 194.461512) scale(0.1 -0.1)">
       <use xlink:href="#DejaVuSans-30"/>
       <use xlink:href="#DejaVuSans-2e" transform="translate(63.623047 0)"/>
       <use xlink:href="#DejaVuSans-34" transform="translate(95.410156 0)"/>
      </g>
     </g>
    </g>
    <g id="ytick_4">
     <g id="line2d_10">
      <g>
       <use xlink:href="#m1547bfbf0b" x="47.72" y="166.277792" style="stroke: #000000; stroke-width: 0.8"/>
      </g>
     </g>
     <g id="text_11">
      <!-- 0.5 -->
      <g transform="translate(24.816875 170.07701) scale(0.1 -0.1)">
       <defs>
        <path id="DejaVuSans-35" d="M 691 4666 
L 3169 4666 
L 3169 4134 
L 1269 4134 
L 1269 2991 
Q 1406 3038 1543 3061 
Q 1681 3084 1819 3084 
Q 2600 3084 3056 2656 
Q 3513 2228 3513 1497 
Q 3513 744 3044 326 
Q 2575 -91 1722 -91 
Q 1428 -91 1123 -41 
Q 819 9 494 109 
L 494 744 
Q 775 591 1075 516 
Q 1375 441 1709 441 
Q 2250 441 2565 725 
Q 2881 1009 2881 1497 
Q 2881 1984 2565 2268 
Q 2250 2553 1709 2553 
Q 1456 2553 1204 2497 
Q 953 2441 691 2322 
L 691 4666 
z
" transform="scale(0.015625)"/>
       </defs>
       <use xlink:href="#DejaVuSans-30"/>
       <use xlink:href="#DejaVuSans-2e" transform="translate(63.623047 0)"/>
       <use xlink:href="#DejaVuSans-35" transform="translate(95.410156 0)"/>
      </g>
     </g>
    </g>
    <g id="ytick_5">
     <g id="line2d_11">
      <g>
       <use xlink:href="#m1547bfbf0b" x="47.72" y="141.89329" style="stroke: #000000; stroke-width: 0.8"/>
      </g>
     </g>
     <g id="text_12">
      <!-- 0.6 -->
      <g transform="translate(24.816875 145.692509) scale(0.1 -0.1)">
       <use xlink:href="#DejaVuSans-30"/>
       <use xlink:href="#DejaVuSans-2e" transform="translate(63.623047 0)"/>
       <use xlink:href="#DejaVuSans-36" transform="translate(95.410156 0)"/>
      </g>
     </g>
    </g>
    <g id="ytick_6">
     <g id="line2d_12">
      <g>
       <use xlink:href="#m1547bfbf0b" x="47.72" y="117.508789" style="stroke: #000000; stroke-width: 0.8"/>
      </g>
     </g>
     <g id="text_13">
      <!-- 0.7 -->
      <g transform="translate(24.816875 121.308007) scale(0.1 -0.1)">
       <defs>
        <path id="DejaVuSans-37" d="M 525 4666 
L 3525 4666 
L 3525 4397 
L 1831 0 
L 1172 0 
L 2766 4134 
L 525 4134 
L 525 4666 
z
" transform="scale(0.015625)"/>
       </defs>
       <use xlink:href="#DejaVuSans-30"/>
       <use xlink:href="#DejaVuSans-2e" transform="translate(63.623047 0)"/>
       <use xlink:href="#DejaVuSans-37" transform="translate(95.410156 0)"/>
      </g>
     </g>
    </g>
    <g id="ytick_7">
     <g id="line2d_13">
      <g>
       <use xlink:href="#m1547bfbf0b" x="47.72" y="93.124287" style="stroke: #000000; stroke-width: 0.8"/>
      </g>
     </g>
     <g id="text_14">
      <!-- 0.8 -->
      <g transform="translate(24.816875 96.923506) scale(0.1 -0.1)">
       <use xlink:href="#DejaVuSans-30"/>
       <use xlink:href="#DejaVuSans-2e" transform="translate(63.623047 0)"/>
       <use xlink:href="#DejaVuSans-38" transform="translate(95.410156 0)"/>
      </g>
     </g>
    </g>
    <g id="ytick_8">
     <g id="line2d_14">
      <g>
       <use xlink:href="#m1547bfbf0b" x="47.72" y="68.739786" style="stroke: #000000; stroke-width: 0.8"/>
      </g>
     </g>
     <g id="text_15">
      <!-- 0.9 -->
      <g transform="translate(24.816875 72.539004) scale(0.1 -0.1)">
       <defs>
        <path id="DejaVuSans-39" d="M 703 97 
L 703 672 
Q 941 559 1184 500 
Q 1428 441 1663 441 
Q 2288 441 2617 861 
Q 2947 1281 2994 2138 
Q 2813 1869 2534 1725 
Q 2256 1581 1919 1581 
Q 1219 1581 811 2004 
Q 403 2428 403 3163 
Q 403 3881 828 4315 
Q 1253 4750 1959 4750 
Q 2769 4750 3195 4129 
Q 3622 3509 3622 2328 
Q 3622 1225 3098 567 
Q 2575 -91 1691 -91 
Q 1453 -91 1209 -44 
Q 966 3 703 97 
z
M 1959 2075 
Q 2384 2075 2632 2365 
Q 2881 2656 2881 3163 
Q 2881 3666 2632 3958 
Q 2384 4250 1959 4250 
Q 1534 4250 1286 3958 
Q 1038 3666 1038 3163 
Q 1038 2656 1286 2365 
Q 1534 2075 1959 2075 
z
" transform="scale(0.015625)"/>
       </defs>
       <use xlink:href="#DejaVuSans-30"/>
       <use xlink:href="#DejaVuSans-2e" transform="translate(63.623047 0)"/>
       <use xlink:href="#DejaVuSans-39" transform="translate(95.410156 0)"/>
      </g>
     </g>
    </g>
    <g id="ytick_9">
     <g id="line2d_15">
      <g>
       <use xlink:href="#m1547bfbf0b" x="47.72" y="44.355284" style="stroke: #000000; stroke-width: 0.8"/>
      </g>
     </g>
     <g id="text_16">
      <!-- 1.0 -->
      <g transform="translate(24.816875 48.154503) scale(0.1 -0.1)">
       <use xlink:href="#DejaVuSans-31"/>
       <use xlink:href="#DejaVuSans-2e" transform="translate(63.623047 0)"/>
       <use xlink:href="#DejaVuSans-30" transform="translate(95.410156 0)"/>
      </g>
     </g>
    </g>
    <g id="text_17">
     <!-- Scores -->
     <g transform="translate(18.737187 157.002656) rotate(-90) scale(0.1 -0.1)">
      <defs>
       <path id="DejaVuSans-53" d="M 3425 4513 
L 3425 3897 
Q 3066 4069 2747 4153 
Q 2428 4238 2131 4238 
Q 1616 4238 1336 4038 
Q 1056 3838 1056 3469 
Q 1056 3159 1242 3001 
Q 1428 2844 1947 2747 
L 2328 2669 
Q 3034 2534 3370 2195 
Q 3706 1856 3706 1288 
Q 3706 609 3251 259 
Q 2797 -91 1919 -91 
Q 1588 -91 1214 -16 
Q 841 59 441 206 
L 441 856 
Q 825 641 1194 531 
Q 1563 422 1919 422 
Q 2459 422 2753 634 
Q 3047 847 3047 1241 
Q 3047 1584 2836 1778 
Q 2625 1972 2144 2069 
L 1759 2144 
Q 1053 2284 737 2584 
Q 422 2884 422 3419 
Q 422 4038 858 4394 
Q 1294 4750 2059 4750 
Q 2388 4750 2728 4690 
Q 3069 4631 3425 4513 
z
" transform="scale(0.015625)"/>
       <path id="DejaVuSans-63" d="M 3122 3366 
L 3122 2828 
Q 2878 2963 2633 3030 
Q 2388 3097 2138 3097 
Q 1578 3097 1268 2742 
Q 959 2388 959 1747 
Q 959 1106 1268 751 
Q 1578 397 2138 397 
Q 2388 397 2633 464 
Q 2878 531 3122 666 
L 3122 134 
Q 2881 22 2623 -34 
Q 2366 -91 2075 -91 
Q 1284 -91 818 406 
Q 353 903 353 1747 
Q 353 2603 823 3093 
Q 1294 3584 2113 3584 
Q 2378 3584 2631 3529 
Q 2884 3475 3122 3366 
z
" transform="scale(0.015625)"/>
       <path id="DejaVuSans-6f" d="M 1959 3097 
Q 1497 3097 1228 2736 
Q 959 2375 959 1747 
Q 959 1119 1226 758 
Q 1494 397 1959 397 
Q 2419 397 2687 759 
Q 2956 1122 2956 1747 
Q 2956 2369 2687 2733 
Q 2419 3097 1959 3097 
z
M 1959 3584 
Q 2709 3584 3137 3096 
Q 3566 2609 3566 1747 
Q 3566 888 3137 398 
Q 2709 -91 1959 -91 
Q 1206 -91 779 398 
Q 353 888 353 1747 
Q 353 2609 779 3096 
Q 1206 3584 1959 3584 
z
" transform="scale(0.015625)"/>
      </defs>
      <use xlink:href="#DejaVuSans-53"/>
      <use xlink:href="#DejaVuSans-63" transform="translate(63.476562 0)"/>
      <use xlink:href="#DejaVuSans-6f" transform="translate(118.457031 0)"/>
      <use xlink:href="#DejaVuSans-72" transform="translate(179.638672 0)"/>
      <use xlink:href="#DejaVuSans-65" transform="translate(218.501953 0)"/>
      <use xlink:href="#DejaVuSans-73" transform="translate(280.025391 0)"/>
     </g>
    </g>
   </g>
   <g id="line2d_16">
    <path d="M 58.318175 236.435966 
L 58.487763 231.150319 
L 58.678549 224.459594 
L 59.123717 216.518367 
L 59.166114 216.445332 
L 59.568885 212.245938 
L 59.929259 209.933183 
L 60.056449 209.118027 
L 60.755999 205.845587 
L 60.925587 204.31623 
L 61.201167 203.743405 
L 61.370754 203.295305 
L 61.688731 201.658518 
L 62.006709 199.379759 
L 62.027907 199.379177 
L 62.282289 198.489518 
L 62.515472 198.163064 
L 62.663861 197.75465 
L 62.96064 196.828408 
L 63.024235 196.67739 
L 63.172624 195.761715 
L 63.23622 195.577245 
L 63.384609 194.785533 
L 63.448204 194.689214 
L 63.660189 193.940146 
L 64.147754 193.145541 
L 65.674044 189.092573 
L 65.843631 188.674116 
L 66.14041 187.802705 
L 66.161609 187.802262 
L 66.288799 187.56318 
L 66.352395 187.48242 
L 66.861158 186.367015 
L 66.96715 186.175743 
L 67.030746 185.996318 
L 67.263929 185.570477 
L 67.369921 185.435272 
L 67.603104 184.82122 
L 67.730295 184.583926 
L 67.984677 183.929141 
L 68.154265 183.640643 
L 68.323852 183.224598 
L 68.451043 183.039722 
L 68.875013 181.813122 
L 68.938608 181.772717 
L 69.086997 181.348541 
L 69.235387 180.852129 
L 69.383776 180.40589 
L 69.659356 179.928569 
L 69.850142 179.550379 
L 69.934936 179.420981 
L 70.062127 179.166994 
L 70.146921 179.105143 
L 70.29531 178.732069 
L 70.782875 177.48276 
L 70.99486 177.128777 
L 71.185646 176.621276 
L 71.27044 176.541896 
L 72.245569 174.379484 
L 72.393959 174.022849 
L 72.966317 172.87219 
L 73.07231 172.733395 
L 73.34789 172.283391 
L 73.475081 172.138252 
L 73.708264 171.750106 
L 73.835455 171.651033 
L 74.026241 171.240912 
L 74.195828 171.075403 
L 74.365416 170.914108 
L 74.513806 170.800058 
L 74.72579 170.38841 
L 74.87418 170.156719 
L 74.958973 170.041869 
L 75.404141 169.379403 
L 75.510134 169.307189 
L 75.743317 168.87031 
L 75.955301 168.680303 
L 76.103691 168.381231 
L 76.167286 168.285915 
L 77.07882 166.768985 
L 77.863164 165.971103 
L 78.032751 165.643617 
L 79.092675 164.46519 
L 79.325858 164.190841 
L 79.58024 163.973423 
L 79.792224 163.709741 
L 80.152598 163.291764 
L 80.512972 163.060451 
L 80.68256 162.846041 
L 80.830949 162.692254 
L 81.064133 162.371249 
L 81.466904 161.891879 
L 81.615293 161.642485 
L 82.76001 160.134145 
L 82.887201 160.03021 
L 83.03559 159.855246 
L 83.077987 159.764 
L 83.289972 159.47891 
L 83.671544 159.076005 
L 83.841132 158.856188 
L 83.968323 158.712327 
L 84.222705 158.219905 
L 84.307498 158.031352 
L 84.752666 157.62365 
L 85.346223 157.036567 
L 85.515811 156.814497 
L 85.558208 156.710185 
L 85.770193 156.469322 
L 86.406147 155.878271 
L 86.808918 155.358175 
L 87.656857 154.674569 
L 87.868841 154.436279 
L 88.208017 154.130173 
L 88.356406 154.014887 
L 88.462398 153.896984 
L 88.631986 153.693533 
L 88.780375 153.626429 
L 89.055956 153.265542 
L 89.183146 153.131405 
L 89.395131 152.85864 
L 89.585917 152.608417 
L 89.776704 152.256164 
L 89.861497 152.160194 
L 91.197001 149.941825 
L 91.34539 149.798967 
L 92.193329 148.762585 
L 92.256924 148.637939 
L 92.723291 147.776011 
L 92.87168 147.556296 
L 93.083665 147.346566 
L 93.189657 147.206935 
L 93.634825 146.512937 
L 94.779542 144.939091 
L 94.906733 144.73096 
L 95.351901 144.1962 
L 95.585084 143.83306 
L 95.818267 143.677602 
L 96.051451 143.373718 
L 96.369428 142.949826 
L 96.623809 142.631031 
L 96.751 142.46002 
L 96.878191 142.209216 
L 97.938114 140.317781 
L 98.362084 139.852727 
L 98.468076 139.75417 
L 98.595267 139.560617 
L 99.273618 138.981149 
L 99.591595 138.496314 
L 100.333541 137.373671 
L 100.566725 136.986433 
L 100.715114 136.840233 
L 100.863503 136.61998 
L 100.948297 136.55241 
L 101.117885 136.099594 
L 101.308671 135.819969 
L 101.690243 135.276764 
L 101.775037 135.161289 
L 101.944625 134.908494 
L 102.241404 134.391044 
L 102.43219 134.260294 
L 102.728968 134.034096 
L 102.898556 133.816605 
L 103.131739 133.442929 
L 103.25893 133.307832 
L 103.428518 133.078714 
L 103.555709 132.885131 
L 103.937281 132.32777 
L 104.170464 132.136659 
L 104.276457 132.033945 
L 104.424846 131.774639 
L 104.573235 131.531145 
L 104.870014 131.102166 
L 104.954808 130.972476 
L 105.187991 130.490286 
L 105.357579 130.301355 
L 105.569563 129.960017 
L 105.972334 129.330784 
L 106.078327 129.212518 
L 106.544693 128.561324 
L 106.58709 128.53804 
L 106.735479 128.316755 
L 106.989861 127.998832 
L 107.159449 127.679528 
L 107.392632 127.430294 
L 107.562219 127.298977 
L 108.346563 126.444011 
L 108.537349 126.267274 
L 108.622143 126.154968 
L 108.855326 125.768079 
L 108.94012 125.648898 
L 109.364089 124.964028 
L 109.533677 124.739226 
L 109.703265 124.489367 
L 110.000043 124.049355 
L 110.296822 123.691158 
L 110.487608 123.265826 
L 110.657196 123.14586 
L 111.102364 122.54382 
L 111.271952 122.439537 
L 111.505135 122.118823 
L 113.052623 120.098527 
L 113.201012 119.90243 
L 113.349402 119.8096 
L 113.540188 119.388614 
L 113.709776 119.165236 
L 115.660035 116.450535 
L 115.787226 116.35737 
L 116.42318 115.238738 
L 116.550371 115.169075 
L 116.719958 114.855498 
L 116.931943 114.678354 
L 117.080332 114.449104 
L 117.377111 114.083334 
L 117.631492 113.75794 
L 117.843477 113.494753 
L 118.161454 112.86568 
L 118.966996 111.929148 
L 119.05179 111.845503 
L 119.475759 111.199744 
L 119.836133 110.73488 
L 120.005721 110.418977 
L 120.238904 110.10351 
L 120.790064 109.417695 
L 120.959652 109.301536 
L 121.256431 109.041387 
L 121.298828 109.031271 
L 121.426019 108.828489 
L 121.595606 108.75121 
L 121.807591 108.460655 
L 122.401148 107.634685 
L 122.634331 107.34397 
L 122.782721 107.126159 
L 123.863843 105.545904 
L 124.097026 105.267848 
L 124.30901 104.952643 
L 124.796575 104.51282 
L 125.050957 104.069103 
L 125.411331 103.678799 
L 126.068483 103.042982 
L 126.195674 102.746366 
L 126.322865 102.615383 
L 126.598445 102.154369 
L 126.704437 102.058734 
L 126.916422 101.579567 
L 127.149605 101.456113 
L 127.297995 101.256324 
L 127.467582 101.124266 
L 127.552376 100.97356 
L 127.721964 100.803537 
L 127.997544 100.57173 
L 128.124735 100.288573 
L 128.569903 99.729656 
L 128.697094 99.572119 
L 129.078666 99.092444 
L 129.248254 98.992535 
L 129.417842 98.900039 
L 129.481437 98.869982 
L 129.651025 98.595226 
L 129.841811 98.388897 
L 130.922933 97.263957 
L 131.092521 97.091246 
L 131.219711 96.994593 
L 131.452895 96.669533 
L 131.537688 96.660042 
L 131.728475 96.190148 
L 131.855666 96.147025 
L 132.025253 95.846238 
L 132.131246 95.751489 
L 132.406826 95.375022 
L 132.661207 95.02037 
L 134.357085 92.766232 
L 134.505474 92.647835 
L 134.971841 92.185252 
L 135.12023 92.029503 
L 136.180153 91.010285 
L 136.349741 90.797576 
L 140.356252 86.317423 
L 140.504641 85.875987 
L 140.674229 85.730136 
L 140.822618 85.60065 
L 141.034603 85.449391 
L 141.182992 85.318016 
L 141.373778 85.120466 
L 141.564565 84.906041 
L 141.840145 84.639569 
L 142.136923 84.345294 
L 142.518496 83.892652 
L 142.688083 83.730943 
L 143.048457 83.469675 
L 143.769205 82.505324 
L 143.959992 82.33257 
L 144.087182 82.206586 
L 144.235572 82.016594 
L 144.574747 81.570362 
L 144.659541 81.492066 
L 144.850327 81.173096 
L 144.95632 81.059685 
L 145.147106 80.841932 
L 145.295495 80.70579 
L 145.486281 80.431964 
L 145.931449 80.016937 
L 146.143434 79.869748 
L 146.440213 79.470694 
L 148.284479 77.760153 
L 148.517663 77.493231 
L 148.729647 77.364457 
L 149.641181 76.448506 
L 149.789571 76.234648 
L 149.916762 76.119144 
L 150.107548 75.895476 
L 150.383128 75.593569 
L 152.184998 73.895818 
L 152.333387 73.647209 
L 153.711288 72.43627 
L 154.856005 71.342477 
L 155.06799 71.022402 
L 155.301173 70.882524 
L 155.364768 70.783648 
L 155.576753 70.586534 
L 155.873531 70.469155 
L 156.657875 69.903407 
L 156.827463 69.717223 
L 157.039447 69.47636 
L 157.251432 69.364112 
L 159.519668 67.688235 
L 159.77405 67.488127 
L 160.028431 67.25395 
L 160.388805 67.011184 
L 160.749179 66.762531 
L 160.918767 66.666198 
L 161.109553 66.494214 
L 161.703111 65.969017 
L 161.893897 65.865227 
L 162.084683 65.694232 
L 162.423859 65.568626 
L 162.996217 65.192798 
L 163.165805 65.107162 
L 163.335393 64.966238 
L 163.483782 64.849019 
L 164.056141 64.463816 
L 164.543705 64.1396 
L 164.628499 64.025447 
L 164.861683 63.839408 
L 165.391644 63.462301 
L 165.879209 63.200219 
L 166.790743 62.451921 
L 167.087522 62.248746 
L 167.914262 61.673595 
L 168.020254 61.644744 
L 168.147445 61.496378 
L 173.447063 58.174681 
L 174.231406 57.838779 
L 174.400994 57.694933 
L 174.761368 57.508574 
L 175.015749 57.33941 
L 175.270131 57.200404 
L 175.439719 57.080423 
L 176.330055 56.588205 
L 176.605635 56.392442 
L 176.94481 56.257971 
L 177.813947 55.904991 
L 177.983535 55.807495 
L 178.365108 55.644188 
L 178.74668 55.514091 
L 179.531023 55.23371 
L 179.785405 55.102509 
L 180.018588 54.996103 
L 180.166978 54.923127 
L 183.007572 53.609517 
L 183.304351 53.471659 
L 184.046297 53.140147 
L 186.568915 52.090015 
L 186.886892 51.99467 
L 187.077679 51.900415 
L 191.508159 50.311758 
L 192.122914 50.128917 
L 192.483288 50.000666 
L 192.928456 49.892662 
L 193.458418 49.724442 
L 193.818792 49.622382 
L 194.11557 49.519101 
L 195.005906 49.282091 
L 195.196692 49.232093 
L 196.023433 49.055893 
L 196.89257 48.874186 
L 197.252944 48.755804 
L 198.546051 48.493053 
L 199.012417 48.356343 
L 199.711966 48.190187 
L 200.623501 48.004352 
L 201.32305 47.887888 
L 201.959004 47.762922 
L 202.192187 47.717953 
L 202.785744 47.586011 
L 203.273309 47.466263 
L 204.10005 47.310077 
L 204.333233 47.26755 
L 204.990385 47.135012 
L 205.329561 47.083517 
L 206.707461 46.891097 
L 207.110232 46.825315 
L 208.954499 46.563552 
L 210.035621 46.442671 
L 210.311201 46.398254 
L 211.477117 46.273462 
L 211.752697 46.24124 
L 215.483628 45.845703 
L 215.928796 45.798947 
L 217.624673 45.627515 
L 218.6422 45.529495 
L 229.156641 44.869028 
L 232.569594 44.73056 
L 235.346594 44.637758 
L 248.765225 44.408145 
L 270.281671 44.355284 
L 270.281671 44.355284 
" clip-path="url(#p45cfc98763)" style="fill: none; stroke: #1f77b4; stroke-width: 1.5; stroke-linecap: square"/>
   </g>
   <g id="line2d_17">
    <path d="M 58.318175 236.135916 
L 58.360572 229.351852 
L 58.53016 219.154278 
L 58.699747 217.005339 
L 58.869335 212.688159 
L 59.102518 210.644019 
L 59.229709 208.588063 
L 59.378098 205.163834 
L 59.484091 204.778871 
L 59.590083 203.5456 
L 59.717274 202.048873 
L 59.738472 202.038815 
L 60.438022 197.067999 
L 60.628808 196.330921 
L 60.755999 195.213161 
L 60.798396 195.084133 
L 61.264762 191.375519 
L 61.391953 190.714223 
L 61.497945 190.014178 
L 61.667533 188.960471 
L 61.98551 187.806782 
L 62.133899 186.612935 
L 62.197495 186.381324 
L 62.345884 185.480634 
L 62.388281 185.474493 
L 62.557869 184.906798 
L 62.579067 184.90352 
L 63.342212 181.295258 
L 63.363411 181.283165 
L 63.914571 178.263636 
L 63.978166 178.157333 
L 64.06296 177.937218 
L 64.296143 176.849667 
L 64.380937 176.114457 
L 64.592922 174.790071 
L 65.546853 171.435061 
L 65.610448 171.339818 
L 66.076815 169.547347 
L 66.267601 168.819782 
L 66.564379 168.105116 
L 66.861158 166.719743 
L 66.988349 166.464906 
L 67.518311 164.969632 
L 67.560708 164.932294 
L 67.730295 164.456019 
L 67.815089 164.011357 
L 67.984677 163.396309 
L 68.239059 162.928988 
L 68.91741 160.937891 
L 69.002203 160.571409 
L 69.256585 159.87417 
L 69.298982 159.81003 
L 69.553364 159.053098 
L 69.595761 159.006065 
L 69.807745 158.065377 
L 70.040928 157.366423 
L 70.146921 157.232184 
L 70.422501 156.031564 
L 70.443699 156.025314 
L 70.613287 155.120191 
L 70.888867 154.293872 
L 71.334035 153.017471 
L 71.503623 152.722279 
L 71.694409 152.071811 
L 71.779203 151.861733 
L 72.563546 149.851451 
L 72.605943 149.682431 
L 72.817928 148.961719 
L 72.945119 148.792351 
L 73.241897 147.92788 
L 73.644668 146.846005 
L 74.704592 143.849993 
L 74.937775 142.936774 
L 75.531332 141.57491 
L 75.658523 141.088012 
L 76.082492 140.302695 
L 76.294477 139.498294 
L 76.379271 139.395115 
L 76.676049 138.694068 
L 76.760843 138.453394 
L 76.95163 137.923009 
L 77.566385 136.250664 
L 77.735973 135.46821 
L 77.799568 135.265893 
L 78.138744 134.227228 
L 78.350729 133.280392 
L 78.838293 131.250328 
L 79.050278 130.616299 
L 79.135072 130.421772 
L 79.30466 129.657588 
L 79.389454 129.565426 
L 79.707431 128.432855 
L 79.749827 128.315622 
L 79.983011 127.359323 
L 80.067805 127.232569 
L 80.300988 126.672301 
L 80.512972 125.953857 
L 80.68256 125.302895 
L 80.830949 124.958911 
L 81.085331 124.276425 
L 81.424507 123.464989 
L 81.700087 122.922104 
L 81.869674 122.138502 
L 81.975667 121.972957 
L 82.505629 119.791998 
L 82.717613 118.915769 
L 82.76001 118.84804 
L 83.205178 117.687912 
L 83.247575 117.590314 
L 83.777537 115.34542 
L 83.925926 115.069617 
L 84.053117 114.59436 
L 84.116712 114.377843 
L 84.943453 112.100755 
L 85.11304 111.721686 
L 85.176636 111.660205 
L 85.409819 110.638096 
L 85.494613 110.473669 
L 85.579407 110.145732 
L 85.727796 109.450964 
L 86.172964 108.119666 
L 86.384948 107.011978 
L 86.448544 106.918537 
L 86.681727 106.274915 
L 86.766521 106.152841 
L 87.33888 104.305183 
L 87.360078 104.254924 
L 87.487269 103.716268 
L 87.593261 103.591491 
L 87.762849 102.991545 
L 87.826444 102.878584 
L 88.229215 102.026933 
L 88.547192 100.652163 
L 88.589589 100.574259 
L 88.907566 99.86234 
L 89.098353 99.132806 
L 89.225543 98.860535 
L 90.073482 96.270552 
L 90.158276 96.158435 
L 90.327864 95.550538 
L 90.349062 95.550291 
L 90.688238 94.267639 
L 90.730635 94.174707 
L 90.985016 93.260311 
L 91.154604 92.210251 
L 91.34539 91.774484 
L 91.536177 90.982263 
L 91.705764 90.499158 
L 92.023741 89.695353 
L 92.129734 89.3573 
L 92.362917 88.596909 
L 92.468909 88.378924 
L 92.680894 87.496169 
L 92.765688 87.408324 
L 93.401642 85.36765 
L 93.528833 84.890039 
L 93.634825 84.407747 
L 94.079993 83.160385 
L 94.12239 83.061392 
L 94.39797 82.412276 
L 94.482764 82.325143 
L 95.033924 80.25559 
L 95.118718 80.13292 
L 95.330703 79.458427 
L 95.479092 78.925309 
L 95.77587 77.913911 
L 95.818267 77.893636 
L 96.051451 77.337118 
L 96.666206 75.315078 
L 96.835794 74.874281 
L 96.920588 74.73795 
L 98.022908 71.368188 
L 98.086504 71.230577 
L 98.722458 69.487915 
L 99.273618 68.57115 
L 99.294816 68.567211 
L 99.422007 68.213635 
L 99.506801 68.092419 
L 99.591595 67.829654 
L 99.739984 67.276072 
L 100.35474 66.042967 
L 100.418335 65.95268 
L 101.223877 63.685737 
L 101.329869 63.502198 
L 101.520656 62.966638 
L 101.88103 62.242031 
L 102.093014 61.558149 
L 102.177808 61.445741 
L 102.368594 60.94204 
L 102.70777 60.295308 
L 102.919755 59.233083 
L 103.046945 59.07713 
L 103.725296 57.368406 
L 103.81009 57.260183 
L 103.979678 56.710453 
L 104.403648 55.764953 
L 104.467243 55.670713 
L 104.615632 55.200281 
L 104.806418 54.912749 
L 104.976006 54.568156 
L 105.039602 54.491545 
L 105.230388 53.945201 
L 105.463571 53.40063 
L 105.590762 53.156483 
L 105.802747 52.729364 
L 106.184319 52.037677 
L 106.290311 51.950602 
L 106.481098 51.498454 
L 106.544693 51.412237 
L 106.671884 51.227317 
L 106.799075 50.986004 
L 106.947464 50.602153 
L 107.117052 50.470952 
L 107.562219 49.90769 
L 107.68941 49.671217 
L 107.880197 49.257615 
L 107.901395 49.256408 
L 108.134578 48.470321 
L 108.749334 47.69544 
L 108.94012 47.409812 
L 109.236899 47.122614 
L 109.406486 46.692689 
L 110.275624 45.714793 
L 110.46641 45.459237 
L 110.508807 45.280218 
L 110.720791 44.979881 
L 110.847982 44.840061 
L 111.038768 44.570522 
L 111.29315 44.36104 
L 111.29315 44.36104 
" clip-path="url(#p45cfc98763)" style="fill: none; stroke: #ff7f0e; stroke-width: 1.5; stroke-linecap: square"/>
   </g>
   <g id="patch_3">
    <path d="M 47.72 246.04 
L 47.72 34.75125 
" style="fill: none; stroke: #000000; stroke-width: 0.8; stroke-linejoin: miter; stroke-linecap: square"/>
   </g>
   <g id="patch_4">
    <path d="M 280.879846 246.04 
L 280.879846 34.75125 
" style="fill: none; stroke: #000000; stroke-width: 0.8; stroke-linejoin: miter; stroke-linecap: square"/>
   </g>
   <g id="patch_5">
    <path d="M 47.72 246.04 
L 280.879846 246.04 
" style="fill: none; stroke: #000000; stroke-width: 0.8; stroke-linejoin: miter; stroke-linecap: square"/>
   </g>
   <g id="patch_6">
    <path d="M 47.72 34.75125 
L 280.879846 34.75125 
" style="fill: none; stroke: #000000; stroke-width: 0.8; stroke-linejoin: miter; stroke-linecap: square"/>
   </g>
   <g id="legend_1">
    <g id="patch_7">
     <path d="M 173.690784 241.04 
L 273.879846 241.04 
Q 275.879846 241.04 275.879846 239.04 
L 275.879846 210.68375 
Q 275.879846 208.68375 273.879846 208.68375 
L 173.690784 208.68375 
Q 171.690784 208.68375 171.690784 210.68375 
L 171.690784 239.04 
Q 171.690784 241.04 173.690784 241.04 
z
" style="fill: #ffffff; opacity: 0.8; stroke: #cccccc; stroke-linejoin: miter"/>
    </g>
    <g id="line2d_18">
     <path d="M 175.690784 216.782187 
L 185.690784 216.782187 
L 195.690784 216.782187 
" style="fill: none; stroke: #1f77b4; stroke-width: 1.5; stroke-linecap: square"/>
    </g>
    <g id="text_18">
     <!-- ID samples -->
     <g transform="translate(203.690784 220.282187) scale(0.1 -0.1)">
      <defs>
       <path id="DejaVuSans-49" d="M 628 4666 
L 1259 4666 
L 1259 0 
L 628 0 
L 628 4666 
z
" transform="scale(0.015625)"/>
       <path id="DejaVuSans-44" d="M 1259 4147 
L 1259 519 
L 2022 519 
Q 2988 519 3436 956 
Q 3884 1394 3884 2338 
Q 3884 3275 3436 3711 
Q 2988 4147 2022 4147 
L 1259 4147 
z
M 628 4666 
L 1925 4666 
Q 3281 4666 3915 4102 
Q 4550 3538 4550 2338 
Q 4550 1131 3912 565 
Q 3275 0 1925 0 
L 628 0 
L 628 4666 
z
" transform="scale(0.015625)"/>
      </defs>
      <use xlink:href="#DejaVuSans-49"/>
      <use xlink:href="#DejaVuSans-44" transform="translate(29.492188 0)"/>
      <use xlink:href="#DejaVuSans-20" transform="translate(106.494141 0)"/>
      <use xlink:href="#DejaVuSans-73" transform="translate(138.28125 0)"/>
      <use xlink:href="#DejaVuSans-61" transform="translate(190.380859 0)"/>
      <use xlink:href="#DejaVuSans-6d" transform="translate(251.660156 0)"/>
      <use xlink:href="#DejaVuSans-70" transform="translate(349.072266 0)"/>
      <use xlink:href="#DejaVuSans-6c" transform="translate(412.548828 0)"/>
      <use xlink:href="#DejaVuSans-65" transform="translate(440.332031 0)"/>
      <use xlink:href="#DejaVuSans-73" transform="translate(501.855469 0)"/>
     </g>
    </g>
    <g id="line2d_19">
     <path d="M 175.690784 231.460312 
L 185.690784 231.460312 
L 195.690784 231.460312 
" style="fill: none; stroke: #ff7f0e; stroke-width: 1.5; stroke-linecap: square"/>
    </g>
    <g id="text_19">
     <!-- OOD samples -->
     <g transform="translate(203.690784 234.960312) scale(0.1 -0.1)">
      <use xlink:href="#DejaVuSans-4f"/>
      <use xlink:href="#DejaVuSans-4f" transform="translate(78.710938 0)"/>
      <use xlink:href="#DejaVuSans-44" transform="translate(157.421875 0)"/>
      <use xlink:href="#DejaVuSans-20" transform="translate(234.423828 0)"/>
      <use xlink:href="#DejaVuSans-73" transform="translate(266.210938 0)"/>
      <use xlink:href="#DejaVuSans-61" transform="translate(318.310547 0)"/>
      <use xlink:href="#DejaVuSans-6d" transform="translate(379.589844 0)"/>
      <use xlink:href="#DejaVuSans-70" transform="translate(477.001953 0)"/>
      <use xlink:href="#DejaVuSans-6c" transform="translate(540.478516 0)"/>
      <use xlink:href="#DejaVuSans-65" transform="translate(568.261719 0)"/>
      <use xlink:href="#DejaVuSans-73" transform="translate(629.785156 0)"/>
     </g>
    </g>
   </g>
  </g>
  <g id="axes_2">
   <g id="patch_8">
    <path d="M 332.040154 246.04 
L 565.2 246.04 
L 565.2 34.75125 
L 332.040154 34.75125 
z
" style="fill: #ffffff"/>
   </g>
   <g id="patch_9">
    <path d="M 342.638329 246.04 
L 351.11687 246.04 
L 351.11687 245.529659 
L 342.638329 245.529659 
z
" clip-path="url(#p1876892401)" style="fill: #1f77b4; opacity: 0.5"/>
   </g>
   <g id="patch_10">
    <path d="M 351.11687 246.04 
L 359.595407 246.04 
L 359.595407 245.42759 
L 351.11687 245.42759 
z
" clip-path="url(#p1876892401)" style="fill: #1f77b4; opacity: 0.5"/>
   </g>
   <g id="patch_11">
    <path d="M 359.595407 246.04 
L 368.073948 246.04 
L 368.073948 244.508976 
L 359.595407 244.508976 
z
" clip-path="url(#p1876892401)" style="fill: #1f77b4; opacity: 0.5"/>
   </g>
   <g id="patch_12">
    <path d="M 368.073948 246.04 
L 376.552489 246.04 
L 376.552489 242.773816 
L 368.073948 242.773816 
z
" clip-path="url(#p1876892401)" style="fill: #1f77b4; opacity: 0.5"/>
   </g>
   <g id="patch_13">
    <path d="M 376.552489 246.04 
L 385.03103 246.04 
L 385.03103 241.804167 
L 376.552489 241.804167 
z
" clip-path="url(#p1876892401)" style="fill: #1f77b4; opacity: 0.5"/>
   </g>
   <g id="patch_14">
    <path d="M 385.03103 246.04 
L 393.509571 246.04 
L 393.509571 239.86487 
L 385.03103 239.86487 
z
" clip-path="url(#p1876892401)" style="fill: #1f77b4; opacity: 0.5"/>
   </g>
   <g id="patch_15">
    <path d="M 393.509571 246.04 
L 401.988104 246.04 
L 401.988104 237.823497 
L 393.509571 237.823497 
z
" clip-path="url(#p1876892401)" style="fill: #1f77b4; opacity: 0.5"/>
   </g>
   <g id="patch_16">
    <path d="M 401.988104 246.04 
L 410.466653 246.04 
L 410.466653 237.568343 
L 401.988104 237.568343 
z
" clip-path="url(#p1876892401)" style="fill: #1f77b4; opacity: 0.5"/>
   </g>
   <g id="patch_17">
    <path d="M 410.466653 246.04 
L 418.945185 246.04 
L 418.945185 234.761447 
L 410.466653 234.761447 
z
" clip-path="url(#p1876892401)" style="fill: #1f77b4; opacity: 0.5"/>
   </g>
   <g id="patch_18">
    <path d="M 418.945185 246.04 
L 427.423734 246.04 
L 427.423734 230.372537 
L 418.945185 230.372537 
z
" clip-path="url(#p1876892401)" style="fill: #1f77b4; opacity: 0.5"/>
   </g>
   <g id="patch_19">
    <path d="M 427.423734 246.04 
L 435.902267 246.04 
L 435.902267 229.709063 
L 427.423734 229.709063 
z
" clip-path="url(#p1876892401)" style="fill: #1f77b4; opacity: 0.5"/>
   </g>
   <g id="patch_20">
    <path d="M 435.902267 246.04 
L 444.3808 246.04 
L 444.3808 233.281456 
L 435.902267 233.281456 
z
" clip-path="url(#p1876892401)" style="fill: #1f77b4; opacity: 0.5"/>
   </g>
   <g id="patch_21">
    <path d="M 444.3808 246.04 
L 452.859349 246.04 
L 452.859349 232.464934 
L 444.3808 232.464934 
z
" clip-path="url(#p1876892401)" style="fill: #1f77b4; opacity: 0.5"/>
   </g>
   <g id="patch_22">
    <path d="M 452.859349 246.04 
L 461.337882 246.04 
L 461.337882 233.128353 
L 452.859349 233.128353 
z
" clip-path="url(#p1876892401)" style="fill: #1f77b4; opacity: 0.5"/>
   </g>
   <g id="patch_23">
    <path d="M 461.337882 246.04 
L 469.816431 246.04 
L 469.816431 231.648389 
L 461.337882 231.648389 
z
" clip-path="url(#p1876892401)" style="fill: #1f77b4; opacity: 0.5"/>
   </g>
   <g id="patch_24">
    <path d="M 469.816431 246.04 
L 478.294964 246.04 
L 478.294964 232.72008 
L 469.816431 232.72008 
z
" clip-path="url(#p1876892401)" style="fill: #1f77b4; opacity: 0.5"/>
   </g>
   <g id="patch_25">
    <path d="M 478.294964 246.04 
L 486.773497 246.04 
L 486.773497 232.10767 
L 478.294964 232.10767 
z
" clip-path="url(#p1876892401)" style="fill: #1f77b4; opacity: 0.5"/>
   </g>
   <g id="patch_26">
    <path d="M 486.773497 246.04 
L 495.252046 246.04 
L 495.252046 230.321503 
L 486.773497 230.321503 
z
" clip-path="url(#p1876892401)" style="fill: #1f77b4; opacity: 0.5"/>
   </g>
   <g id="patch_27">
    <path d="M 495.252046 246.04 
L 503.730579 246.04 
L 503.730579 230.423542 
L 495.252046 230.423542 
z
" clip-path="url(#p1876892401)" style="fill: #1f77b4; opacity: 0.5"/>
   </g>
   <g id="patch_28">
    <path d="M 503.730579 246.04 
L 512.209128 246.04 
L 512.209128 229.351856 
L 503.730579 229.351856 
z
" clip-path="url(#p1876892401)" style="fill: #1f77b4; opacity: 0.5"/>
   </g>
   <g id="patch_29">
    <path d="M 512.209128 246.04 
L 520.687661 246.04 
L 520.687661 228.484243 
L 512.209128 228.484243 
z
" clip-path="url(#p1876892401)" style="fill: #1f77b4; opacity: 0.5"/>
   </g>
   <g id="patch_30">
    <path d="M 520.687661 246.04 
L 529.16621 246.04 
L 529.16621 224.350516 
L 520.687661 224.350516 
z
" clip-path="url(#p1876892401)" style="fill: #1f77b4; opacity: 0.5"/>
   </g>
   <g id="patch_31">
    <path d="M 529.16621 246.04 
L 537.644743 246.04 
L 537.644743 219.553262 
L 529.16621 219.553262 
z
" clip-path="url(#p1876892401)" style="fill: #1f77b4; opacity: 0.5"/>
   </g>
   <g id="patch_32">
    <path d="M 537.644743 246.04 
L 546.123276 246.04 
L 546.123276 207.866435 
L 537.644743 207.866435 
z
" clip-path="url(#p1876892401)" style="fill: #1f77b4; opacity: 0.5"/>
   </g>
   <g id="patch_33">
    <path d="M 546.123276 246.04 
L 554.601825 246.04 
L 554.601825 44.812619 
L 546.123276 44.812619 
z
" clip-path="url(#p1876892401)" style="fill: #1f77b4; opacity: 0.5"/>
   </g>
   <g id="patch_34">
    <path d="M 342.969437 246.04 
L 351.434478 246.04 
L 351.434478 245.426614 
L 342.969437 245.426614 
z
" clip-path="url(#p1876892401)" style="fill: #ff7f0e; opacity: 0.5"/>
   </g>
   <g id="patch_35">
    <path d="M 351.434478 246.04 
L 359.899518 246.04 
L 359.899518 245.01769 
L 351.434478 245.01769 
z
" clip-path="url(#p1876892401)" style="fill: #ff7f0e; opacity: 0.5"/>
   </g>
   <g id="patch_36">
    <path d="M 359.899518 246.04 
L 368.364562 246.04 
L 368.364562 242.359684 
L 359.899518 242.359684 
z
" clip-path="url(#p1876892401)" style="fill: #ff7f0e; opacity: 0.5"/>
   </g>
   <g id="patch_37">
    <path d="M 368.364562 246.04 
L 376.829607 246.04 
L 376.829607 241.132912 
L 368.364562 241.132912 
z
" clip-path="url(#p1876892401)" style="fill: #ff7f0e; opacity: 0.5"/>
   </g>
   <g id="patch_38">
    <path d="M 376.829607 246.04 
L 385.294643 246.04 
L 385.294643 237.452588 
L 376.829607 237.452588 
z
" clip-path="url(#p1876892401)" style="fill: #ff7f0e; opacity: 0.5"/>
   </g>
   <g id="patch_39">
    <path d="M 385.294643 246.04 
L 393.759687 246.04 
L 393.759687 234.590128 
L 385.294643 234.590128 
z
" clip-path="url(#p1876892401)" style="fill: #ff7f0e; opacity: 0.5"/>
   </g>
   <g id="patch_40">
    <path d="M 393.759687 246.04 
L 402.224724 246.04 
L 402.224724 230.296412 
L 393.759687 230.296412 
z
" clip-path="url(#p1876892401)" style="fill: #ff7f0e; opacity: 0.5"/>
   </g>
   <g id="patch_41">
    <path d="M 402.224724 246.04 
L 410.689768 246.04 
L 410.689768 231.318737 
L 402.224724 231.318737 
z
" clip-path="url(#p1876892401)" style="fill: #ff7f0e; opacity: 0.5"/>
   </g>
   <g id="patch_42">
    <path d="M 410.689768 246.04 
L 419.154812 246.04 
L 419.154812 225.184877 
L 410.689768 225.184877 
z
" clip-path="url(#p1876892401)" style="fill: #ff7f0e; opacity: 0.5"/>
   </g>
   <g id="patch_43">
    <path d="M 419.154812 246.04 
L 427.619841 246.04 
L 427.619841 220.482203 
L 419.154812 220.482203 
z
" clip-path="url(#p1876892401)" style="fill: #ff7f0e; opacity: 0.5"/>
   </g>
   <g id="patch_44">
    <path d="M 427.619841 246.04 
L 436.084885 246.04 
L 436.084885 222.935795 
L 427.619841 222.935795 
z
" clip-path="url(#p1876892401)" style="fill: #ff7f0e; opacity: 0.5"/>
   </g>
   <g id="patch_45">
    <path d="M 436.084885 246.04 
L 444.549929 246.04 
L 444.549929 218.233169 
L 436.084885 218.233169 
z
" clip-path="url(#p1876892401)" style="fill: #ff7f0e; opacity: 0.5"/>
   </g>
   <g id="patch_46">
    <path d="M 444.549929 246.04 
L 453.014974 246.04 
L 453.014974 218.846555 
L 444.549929 218.846555 
z
" clip-path="url(#p1876892401)" style="fill: #ff7f0e; opacity: 0.5"/>
   </g>
   <g id="patch_47">
    <path d="M 453.014974 246.04 
L 461.480018 246.04 
L 461.480018 225.389339 
L 453.014974 225.389339 
z
" clip-path="url(#p1876892401)" style="fill: #ff7f0e; opacity: 0.5"/>
   </g>
   <g id="patch_48">
    <path d="M 461.480018 246.04 
L 469.945062 246.04 
L 469.945062 221.300099 
L 461.480018 221.300099 
z
" clip-path="url(#p1876892401)" style="fill: #ff7f0e; opacity: 0.5"/>
   </g>
   <g id="patch_49">
    <path d="M 469.945062 246.04 
L 478.410107 246.04 
L 478.410107 223.549181 
L 469.945062 223.549181 
z
" clip-path="url(#p1876892401)" style="fill: #ff7f0e; opacity: 0.5"/>
   </g>
   <g id="patch_50">
    <path d="M 478.410107 246.04 
L 486.875151 246.04 
L 486.875151 223.958105 
L 478.410107 223.958105 
z
" clip-path="url(#p1876892401)" style="fill: #ff7f0e; opacity: 0.5"/>
   </g>
   <g id="patch_51">
    <path d="M 486.875151 246.04 
L 495.340195 246.04 
L 495.340195 221.504561 
L 486.875151 221.504561 
z
" clip-path="url(#p1876892401)" style="fill: #ff7f0e; opacity: 0.5"/>
   </g>
   <g id="patch_52">
    <path d="M 495.340195 246.04 
L 503.805208 246.04 
L 503.805208 223.14017 
L 495.340195 223.14017 
z
" clip-path="url(#p1876892401)" style="fill: #ff7f0e; opacity: 0.5"/>
   </g>
   <g id="patch_53">
    <path d="M 503.805208 246.04 
L 512.270252 246.04 
L 512.270252 222.322409 
L 503.805208 222.322409 
z
" clip-path="url(#p1876892401)" style="fill: #ff7f0e; opacity: 0.5"/>
   </g>
   <g id="patch_54">
    <path d="M 512.270252 246.04 
L 520.735296 246.04 
L 520.735296 221.504561 
L 512.270252 221.504561 
z
" clip-path="url(#p1876892401)" style="fill: #ff7f0e; opacity: 0.5"/>
   </g>
   <g id="patch_55">
    <path d="M 520.735296 246.04 
L 529.200341 246.04 
L 529.200341 217.824245 
L 520.735296 217.824245 
z
" clip-path="url(#p1876892401)" style="fill: #ff7f0e; opacity: 0.5"/>
   </g>
   <g id="patch_56">
    <path d="M 529.200341 246.04 
L 537.665385 246.04 
L 537.665385 215.779625 
L 529.200341 215.779625 
z
" clip-path="url(#p1876892401)" style="fill: #ff7f0e; opacity: 0.5"/>
   </g>
   <g id="patch_57">
    <path d="M 537.665385 246.04 
L 546.130429 246.04 
L 546.130429 213.326081 
L 537.665385 213.326081 
z
" clip-path="url(#p1876892401)" style="fill: #ff7f0e; opacity: 0.5"/>
   </g>
   <g id="patch_58">
    <path d="M 546.130429 246.04 
L 554.595474 246.04 
L 554.595474 196.969122 
L 546.130429 196.969122 
z
" clip-path="url(#p1876892401)" style="fill: #ff7f0e; opacity: 0.5"/>
   </g>
   <g id="matplotlib.axis_3">
    <g id="xtick_7">
     <g id="line2d_20">
      <g>
       <use xlink:href="#m9fae7be791" x="339.332943" y="246.04" style="stroke: #000000; stroke-width: 0.8"/>
      </g>
     </g>
     <g id="text_20">
      <!-- 0.2 -->
      <g transform="translate(331.381381 260.638438) scale(0.1 -0.1)">
       <use xlink:href="#DejaVuSans-30"/>
       <use xlink:href="#DejaVuSans-2e" transform="translate(63.623047 0)"/>
       <use xlink:href="#DejaVuSans-32" transform="translate(95.410156 0)"/>
      </g>
     </g>
    </g>
    <g id="xtick_8">
     <g id="line2d_21">
      <g>
       <use xlink:href="#m9fae7be791" x="393.150164" y="246.04" style="stroke: #000000; stroke-width: 0.8"/>
      </g>
     </g>
     <g id="text_21">
      <!-- 0.4 -->
      <g transform="translate(385.198601 260.638438) scale(0.1 -0.1)">
       <use xlink:href="#DejaVuSans-30"/>
       <use xlink:href="#DejaVuSans-2e" transform="translate(63.623047 0)"/>
       <use xlink:href="#DejaVuSans-34" transform="translate(95.410156 0)"/>
      </g>
     </g>
    </g>
    <g id="xtick_9">
     <g id="line2d_22">
      <g>
       <use xlink:href="#m9fae7be791" x="446.967384" y="246.04" style="stroke: #000000; stroke-width: 0.8"/>
      </g>
     </g>
     <g id="text_22">
      <!-- 0.6 -->
      <g transform="translate(439.015822 260.638438) scale(0.1 -0.1)">
       <use xlink:href="#DejaVuSans-30"/>
       <use xlink:href="#DejaVuSans-2e" transform="translate(63.623047 0)"/>
       <use xlink:href="#DejaVuSans-36" transform="translate(95.410156 0)"/>
      </g>
     </g>
    </g>
    <g id="xtick_10">
     <g id="line2d_23">
      <g>
       <use xlink:href="#m9fae7be791" x="500.784605" y="246.04" style="stroke: #000000; stroke-width: 0.8"/>
      </g>
     </g>
     <g id="text_23">
      <!-- 0.8 -->
      <g transform="translate(492.833042 260.638438) scale(0.1 -0.1)">
       <use xlink:href="#DejaVuSans-30"/>
       <use xlink:href="#DejaVuSans-2e" transform="translate(63.623047 0)"/>
       <use xlink:href="#DejaVuSans-38" transform="translate(95.410156 0)"/>
      </g>
     </g>
    </g>
    <g id="xtick_11">
     <g id="line2d_24">
      <g>
       <use xlink:href="#m9fae7be791" x="554.601825" y="246.04" style="stroke: #000000; stroke-width: 0.8"/>
      </g>
     </g>
     <g id="text_24">
      <!-- 1.0 -->
      <g transform="translate(546.650263 260.638438) scale(0.1 -0.1)">
       <use xlink:href="#DejaVuSans-31"/>
       <use xlink:href="#DejaVuSans-2e" transform="translate(63.623047 0)"/>
       <use xlink:href="#DejaVuSans-30" transform="translate(95.410156 0)"/>
      </g>
     </g>
    </g>
    <g id="text_25">
     <!-- Scores -->
     <g transform="translate(432.013046 274.316562) scale(0.1 -0.1)">
      <use xlink:href="#DejaVuSans-53"/>
      <use xlink:href="#DejaVuSans-63" transform="translate(63.476562 0)"/>
      <use xlink:href="#DejaVuSans-6f" transform="translate(118.457031 0)"/>
      <use xlink:href="#DejaVuSans-72" transform="translate(179.638672 0)"/>
      <use xlink:href="#DejaVuSans-65" transform="translate(218.501953 0)"/>
      <use xlink:href="#DejaVuSans-73" transform="translate(280.025391 0)"/>
     </g>
    </g>
   </g>
   <g id="matplotlib.axis_4">
    <g id="ytick_10">
     <g id="line2d_25">
      <g>
       <use xlink:href="#m1547bfbf0b" x="332.040154" y="246.04" style="stroke: #000000; stroke-width: 0.8"/>
      </g>
     </g>
     <g id="text_26">
      <!-- 0 -->
      <g transform="translate(318.677654 249.839219) scale(0.1 -0.1)">
       <use xlink:href="#DejaVuSans-30"/>
      </g>
     </g>
    </g>
    <g id="ytick_11">
     <g id="line2d_26">
      <g>
       <use xlink:href="#m1547bfbf0b" x="332.040154" y="213.879665" style="stroke: #000000; stroke-width: 0.8"/>
      </g>
     </g>
     <g id="text_27">
      <!-- 2 -->
      <g transform="translate(318.677654 217.678884) scale(0.1 -0.1)">
       <use xlink:href="#DejaVuSans-32"/>
      </g>
     </g>
    </g>
    <g id="ytick_12">
     <g id="line2d_27">
      <g>
       <use xlink:href="#m1547bfbf0b" x="332.040154" y="181.719331" style="stroke: #000000; stroke-width: 0.8"/>
      </g>
     </g>
     <g id="text_28">
      <!-- 4 -->
      <g transform="translate(318.677654 185.518549) scale(0.1 -0.1)">
       <use xlink:href="#DejaVuSans-34"/>
      </g>
     </g>
    </g>
    <g id="ytick_13">
     <g id="line2d_28">
      <g>
       <use xlink:href="#m1547bfbf0b" x="332.040154" y="149.558996" style="stroke: #000000; stroke-width: 0.8"/>
      </g>
     </g>
     <g id="text_29">
      <!-- 6 -->
      <g transform="translate(318.677654 153.358215) scale(0.1 -0.1)">
       <use xlink:href="#DejaVuSans-36"/>
      </g>
     </g>
    </g>
    <g id="ytick_14">
     <g id="line2d_29">
      <g>
       <use xlink:href="#m1547bfbf0b" x="332.040154" y="117.398661" style="stroke: #000000; stroke-width: 0.8"/>
      </g>
     </g>
     <g id="text_30">
      <!-- 8 -->
      <g transform="translate(318.677654 121.19788) scale(0.1 -0.1)">
       <use xlink:href="#DejaVuSans-38"/>
      </g>
     </g>
    </g>
    <g id="ytick_15">
     <g id="line2d_30">
      <g>
       <use xlink:href="#m1547bfbf0b" x="332.040154" y="85.238326" style="stroke: #000000; stroke-width: 0.8"/>
      </g>
     </g>
     <g id="text_31">
      <!-- 10 -->
      <g transform="translate(312.315154 89.037545) scale(0.1 -0.1)">
       <use xlink:href="#DejaVuSans-31"/>
       <use xlink:href="#DejaVuSans-30" transform="translate(63.623047 0)"/>
      </g>
     </g>
    </g>
    <g id="ytick_16">
     <g id="line2d_31">
      <g>
       <use xlink:href="#m1547bfbf0b" x="332.040154" y="53.077992" style="stroke: #000000; stroke-width: 0.8"/>
      </g>
     </g>
     <g id="text_32">
      <!-- 12 -->
      <g transform="translate(312.315154 56.87721) scale(0.1 -0.1)">
       <use xlink:href="#DejaVuSans-31"/>
       <use xlink:href="#DejaVuSans-32" transform="translate(63.623047 0)"/>
      </g>
     </g>
    </g>
    <g id="text_33">
     <!-- Density -->
     <g transform="translate(306.235466 159.404219) rotate(-90) scale(0.1 -0.1)">
      <defs>
       <path id="DejaVuSans-6e" d="M 3513 2113 
L 3513 0 
L 2938 0 
L 2938 2094 
Q 2938 2591 2744 2837 
Q 2550 3084 2163 3084 
Q 1697 3084 1428 2787 
Q 1159 2491 1159 1978 
L 1159 0 
L 581 0 
L 581 3500 
L 1159 3500 
L 1159 2956 
Q 1366 3272 1645 3428 
Q 1925 3584 2291 3584 
Q 2894 3584 3203 3211 
Q 3513 2838 3513 2113 
z
" transform="scale(0.015625)"/>
       <path id="DejaVuSans-69" d="M 603 3500 
L 1178 3500 
L 1178 0 
L 603 0 
L 603 3500 
z
M 603 4863 
L 1178 4863 
L 1178 4134 
L 603 4134 
L 603 4863 
z
" transform="scale(0.015625)"/>
       <path id="DejaVuSans-74" d="M 1172 4494 
L 1172 3500 
L 2356 3500 
L 2356 3053 
L 1172 3053 
L 1172 1153 
Q 1172 725 1289 603 
Q 1406 481 1766 481 
L 2356 481 
L 2356 0 
L 1766 0 
Q 1100 0 847 248 
Q 594 497 594 1153 
L 594 3053 
L 172 3053 
L 172 3500 
L 594 3500 
L 594 4494 
L 1172 4494 
z
" transform="scale(0.015625)"/>
       <path id="DejaVuSans-79" d="M 2059 -325 
Q 1816 -950 1584 -1140 
Q 1353 -1331 966 -1331 
L 506 -1331 
L 506 -850 
L 844 -850 
Q 1081 -850 1212 -737 
Q 1344 -625 1503 -206 
L 1606 56 
L 191 3500 
L 800 3500 
L 1894 763 
L 2988 3500 
L 3597 3500 
L 2059 -325 
z
" transform="scale(0.015625)"/>
      </defs>
      <use xlink:href="#DejaVuSans-44"/>
      <use xlink:href="#DejaVuSans-65" transform="translate(77.001953 0)"/>
      <use xlink:href="#DejaVuSans-6e" transform="translate(138.525391 0)"/>
      <use xlink:href="#DejaVuSans-73" transform="translate(201.904297 0)"/>
      <use xlink:href="#DejaVuSans-69" transform="translate(254.003906 0)"/>
      <use xlink:href="#DejaVuSans-74" transform="translate(281.787109 0)"/>
      <use xlink:href="#DejaVuSans-79" transform="translate(320.996094 0)"/>
     </g>
    </g>
   </g>
   <g id="patch_59">
    <path d="M 332.040154 246.04 
L 332.040154 34.75125 
" style="fill: none; stroke: #000000; stroke-width: 0.8; stroke-linejoin: miter; stroke-linecap: square"/>
   </g>
   <g id="patch_60">
    <path d="M 565.2 246.04 
L 565.2 34.75125 
" style="fill: none; stroke: #000000; stroke-width: 0.8; stroke-linejoin: miter; stroke-linecap: square"/>
   </g>
   <g id="patch_61">
    <path d="M 332.040154 246.04 
L 565.2 246.04 
" style="fill: none; stroke: #000000; stroke-width: 0.8; stroke-linejoin: miter; stroke-linecap: square"/>
   </g>
   <g id="patch_62">
    <path d="M 332.040154 34.75125 
L 565.2 34.75125 
" style="fill: none; stroke: #000000; stroke-width: 0.8; stroke-linejoin: miter; stroke-linecap: square"/>
   </g>
   <g id="legend_2">
    <g id="patch_63">
     <path d="M 339.040154 72.1075 
L 439.229216 72.1075 
Q 441.229216 72.1075 441.229216 70.1075 
L 441.229216 41.75125 
Q 441.229216 39.75125 439.229216 39.75125 
L 339.040154 39.75125 
Q 337.040154 39.75125 337.040154 41.75125 
L 337.040154 70.1075 
Q 337.040154 72.1075 339.040154 72.1075 
z
" style="fill: #ffffff; opacity: 0.8; stroke: #cccccc; stroke-linejoin: miter"/>
    </g>
    <g id="patch_64">
     <path d="M 341.040154 51.349687 
L 361.040154 51.349687 
L 361.040154 44.349687 
L 341.040154 44.349687 
z
" style="fill: #1f77b4; opacity: 0.5"/>
    </g>
    <g id="text_34">
     <!-- ID samples -->
     <g transform="translate(369.040154 51.349687) scale(0.1 -0.1)">
      <use xlink:href="#DejaVuSans-49"/>
      <use xlink:href="#DejaVuSans-44" transform="translate(29.492188 0)"/>
      <use xlink:href="#DejaVuSans-20" transform="translate(106.494141 0)"/>
      <use xlink:href="#DejaVuSans-73" transform="translate(138.28125 0)"/>
      <use xlink:href="#DejaVuSans-61" transform="translate(190.380859 0)"/>
      <use xlink:href="#DejaVuSans-6d" transform="translate(251.660156 0)"/>
      <use xlink:href="#DejaVuSans-70" transform="translate(349.072266 0)"/>
      <use xlink:href="#DejaVuSans-6c" transform="translate(412.548828 0)"/>
      <use xlink:href="#DejaVuSans-65" transform="translate(440.332031 0)"/>
      <use xlink:href="#DejaVuSans-73" transform="translate(501.855469 0)"/>
     </g>
    </g>
    <g id="patch_65">
     <path d="M 341.040154 66.027812 
L 361.040154 66.027812 
L 361.040154 59.027812 
L 341.040154 59.027812 
z
" style="fill: #ff7f0e; opacity: 0.5"/>
    </g>
    <g id="text_35">
     <!-- OOD samples -->
     <g transform="translate(369.040154 66.027812) scale(0.1 -0.1)">
      <use xlink:href="#DejaVuSans-4f"/>
      <use xlink:href="#DejaVuSans-4f" transform="translate(78.710938 0)"/>
      <use xlink:href="#DejaVuSans-44" transform="translate(157.421875 0)"/>
      <use xlink:href="#DejaVuSans-20" transform="translate(234.423828 0)"/>
      <use xlink:href="#DejaVuSans-73" transform="translate(266.210938 0)"/>
      <use xlink:href="#DejaVuSans-61" transform="translate(318.310547 0)"/>
      <use xlink:href="#DejaVuSans-6d" transform="translate(379.589844 0)"/>
      <use xlink:href="#DejaVuSans-70" transform="translate(477.001953 0)"/>
      <use xlink:href="#DejaVuSans-6c" transform="translate(540.478516 0)"/>
      <use xlink:href="#DejaVuSans-65" transform="translate(568.261719 0)"/>
      <use xlink:href="#DejaVuSans-73" transform="translate(629.785156 0)"/>
     </g>
    </g>
   </g>
  </g>
  <g id="text_36">
   <!-- Scores using max_softmax -->
   <g transform="translate(207.75 14.878125) scale(0.12 -0.12)">
    <defs>
     <path id="DejaVuSans-75" d="M 544 1381 
L 544 3500 
L 1119 3500 
L 1119 1403 
Q 1119 906 1312 657 
Q 1506 409 1894 409 
Q 2359 409 2629 706 
Q 2900 1003 2900 1516 
L 2900 3500 
L 3475 3500 
L 3475 0 
L 2900 0 
L 2900 538 
Q 2691 219 2414 64 
Q 2138 -91 1772 -91 
Q 1169 -91 856 284 
Q 544 659 544 1381 
z
M 1991 3584 
L 1991 3584 
z
" transform="scale(0.015625)"/>
     <path id="DejaVuSans-67" d="M 2906 1791 
Q 2906 2416 2648 2759 
Q 2391 3103 1925 3103 
Q 1463 3103 1205 2759 
Q 947 2416 947 1791 
Q 947 1169 1205 825 
Q 1463 481 1925 481 
Q 2391 481 2648 825 
Q 2906 1169 2906 1791 
z
M 3481 434 
Q 3481 -459 3084 -895 
Q 2688 -1331 1869 -1331 
Q 1566 -1331 1297 -1286 
Q 1028 -1241 775 -1147 
L 775 -588 
Q 1028 -725 1275 -790 
Q 1522 -856 1778 -856 
Q 2344 -856 2625 -561 
Q 2906 -266 2906 331 
L 2906 616 
Q 2728 306 2450 153 
Q 2172 0 1784 0 
Q 1141 0 747 490 
Q 353 981 353 1791 
Q 353 2603 747 3093 
Q 1141 3584 1784 3584 
Q 2172 3584 2450 3431 
Q 2728 3278 2906 2969 
L 2906 3500 
L 3481 3500 
L 3481 434 
z
" transform="scale(0.015625)"/>
     <path id="DejaVuSans-78" d="M 3513 3500 
L 2247 1797 
L 3578 0 
L 2900 0 
L 1881 1375 
L 863 0 
L 184 0 
L 1544 1831 
L 300 3500 
L 978 3500 
L 1906 2253 
L 2834 3500 
L 3513 3500 
z
" transform="scale(0.015625)"/>
     <path id="DejaVuSans-5f" d="M 3263 -1063 
L 3263 -1509 
L -63 -1509 
L -63 -1063 
L 3263 -1063 
z
" transform="scale(0.015625)"/>
     <path id="DejaVuSans-66" d="M 2375 4863 
L 2375 4384 
L 1825 4384 
Q 1516 4384 1395 4259 
Q 1275 4134 1275 3809 
L 1275 3500 
L 2222 3500 
L 2222 3053 
L 1275 3053 
L 1275 0 
L 697 0 
L 697 3053 
L 147 3053 
L 147 3500 
L 697 3500 
L 697 3744 
Q 697 4328 969 4595 
Q 1241 4863 1831 4863 
L 2375 4863 
z
" transform="scale(0.015625)"/>
    </defs>
    <use xlink:href="#DejaVuSans-53"/>
    <use xlink:href="#DejaVuSans-63" transform="translate(63.476562 0)"/>
    <use xlink:href="#DejaVuSans-6f" transform="translate(118.457031 0)"/>
    <use xlink:href="#DejaVuSans-72" transform="translate(179.638672 0)"/>
    <use xlink:href="#DejaVuSans-65" transform="translate(218.501953 0)"/>
    <use xlink:href="#DejaVuSans-73" transform="translate(280.025391 0)"/>
    <use xlink:href="#DejaVuSans-20" transform="translate(332.125 0)"/>
    <use xlink:href="#DejaVuSans-75" transform="translate(363.912109 0)"/>
    <use xlink:href="#DejaVuSans-73" transform="translate(427.291016 0)"/>
    <use xlink:href="#DejaVuSans-69" transform="translate(479.390625 0)"/>
    <use xlink:href="#DejaVuSans-6e" transform="translate(507.173828 0)"/>
    <use xlink:href="#DejaVuSans-67" transform="translate(570.552734 0)"/>
    <use xlink:href="#DejaVuSans-20" transform="translate(634.029297 0)"/>
    <use xlink:href="#DejaVuSans-6d" transform="translate(665.816406 0)"/>
    <use xlink:href="#DejaVuSans-61" transform="translate(763.228516 0)"/>
    <use xlink:href="#DejaVuSans-78" transform="translate(824.507812 0)"/>
    <use xlink:href="#DejaVuSans-5f" transform="translate(883.6875 0)"/>
    <use xlink:href="#DejaVuSans-73" transform="translate(933.6875 0)"/>
    <use xlink:href="#DejaVuSans-6f" transform="translate(985.787109 0)"/>
    <use xlink:href="#DejaVuSans-66" transform="translate(1046.96875 0)"/>
    <use xlink:href="#DejaVuSans-74" transform="translate(1080.423828 0)"/>
    <use xlink:href="#DejaVuSans-6d" transform="translate(1119.632812 0)"/>
    <use xlink:href="#DejaVuSans-61" transform="translate(1217.044922 0)"/>
    <use xlink:href="#DejaVuSans-78" transform="translate(1278.324219 0)"/>
   </g>
  </g>
 </g>
 <defs>
  <clipPath id="p45cfc98763">
   <rect x="47.72" y="34.75125" width="233.159846" height="211.28875"/>
  </clipPath>
  <clipPath id="p1876892401">
   <rect x="332.040154" y="34.75125" width="233.159846" height="211.28875"/>
  </clipPath>
 </defs>
</svg>
