<?xml version="1.0" encoding="utf-8" standalone="no"?>
<!DOCTYPE svg PUBLIC "-//W3C//DTD SVG 1.1//EN"
  "http://www.w3.org/Graphics/SVG/1.1/DTD/svg11.dtd">
<svg xmlns:xlink="http://www.w3.org/1999/xlink" width="576pt" height="288pt" viewBox="0 0 576 288" xmlns="http://www.w3.org/2000/svg" version="1.1">
 <metadata>
  <rdf:RDF xmlns:dc="http://purl.org/dc/elements/1.1/" xmlns:cc="http://creativecommons.org/ns#" xmlns:rdf="http://www.w3.org/1999/02/22-rdf-syntax-ns#">
   <cc:Work>
    <dc:type rdf:resource="http://purl.org/dc/dcmitype/StillImage"/>
    <dc:date>2025-05-31T21:01:34.839485</dc:date>
    <dc:format>image/svg+xml</dc:format>
    <dc:creator>
     <cc:Agent>
      <dc:title>Matplotlib v3.10.1, https://matplotlib.org/</dc:title>
     </cc:Agent>
    </dc:creator>
   </cc:Work>
  </rdf:RDF>
 </metadata>
 <defs>
  <style type="text/css">*{stroke-linejoin: round; stroke-linecap: butt}</style>
 </defs>
 <g id="figure_1">
  <g id="patch_1">
   <path d="M 0 288 
L 576 288 
L 576 0 
L 0 0 
z
" style="fill: #ffffff"/>
  </g>
  <g id="axes_1">
   <g id="patch_2">
    <path d="M 44.57 246.04 
L 271.429846 246.04 
L 271.429846 34.75125 
L 44.57 34.75125 
z
" style="fill: #ffffff"/>
   </g>
   <g id="matplotlib.axis_1">
    <g id="xtick_1">
     <g id="line2d_1">
      <defs>
       <path id="mb1675993ce" d="M 0 0 
L 0 3.5 
" style="stroke: #000000; stroke-width: 0.8"/>
      </defs>
      <g>
       <use xlink:href="#mb1675993ce" x="54.881811" y="246.04" style="stroke: #000000; stroke-width: 0.8"/>
      </g>
     </g>
     <g id="text_1">
      <!-- 0 -->
      <g transform="translate(51.700561 260.638438) scale(0.1 -0.1)">
       <defs>
        <path id="DejaVuSans-30" d="M 2034 4250 
Q 1547 4250 1301 3770 
Q 1056 3291 1056 2328 
Q 1056 1369 1301 889 
Q 1547 409 2034 409 
Q 2525 409 2770 889 
Q 3016 1369 3016 2328 
Q 3016 3291 2770 3770 
Q 2525 4250 2034 4250 
z
M 2034 4750 
Q 2819 4750 3233 4129 
Q 3647 3509 3647 2328 
Q 3647 1150 3233 529 
Q 2819 -91 2034 -91 
Q 1250 -91 836 529 
Q 422 1150 422 2328 
Q 422 3509 836 4129 
Q 1250 4750 2034 4750 
z
" transform="scale(0.015625)"/>
       </defs>
       <use xlink:href="#DejaVuSans-30"/>
      </g>
     </g>
    </g>
    <g id="xtick_2">
     <g id="line2d_2">
      <g>
       <use xlink:href="#mb1675993ce" x="96.133181" y="246.04" style="stroke: #000000; stroke-width: 0.8"/>
      </g>
     </g>
     <g id="text_2">
      <!-- 2000 -->
      <g transform="translate(83.408181 260.638438) scale(0.1 -0.1)">
       <defs>
        <path id="DejaVuSans-32" d="M 1228 531 
L 3431 531 
L 3431 0 
L 469 0 
L 469 531 
Q 828 903 1448 1529 
Q 2069 2156 2228 2338 
Q 2531 2678 2651 2914 
Q 2772 3150 2772 3378 
Q 2772 3750 2511 3984 
Q 2250 4219 1831 4219 
Q 1534 4219 1204 4116 
Q 875 4013 500 3803 
L 500 4441 
Q 881 4594 1212 4672 
Q 1544 4750 1819 4750 
Q 2544 4750 2975 4387 
Q 3406 4025 3406 3419 
Q 3406 3131 3298 2873 
Q 3191 2616 2906 2266 
Q 2828 2175 2409 1742 
Q 1991 1309 1228 531 
z
" transform="scale(0.015625)"/>
       </defs>
       <use xlink:href="#DejaVuSans-32"/>
       <use xlink:href="#DejaVuSans-30" transform="translate(63.623047 0)"/>
       <use xlink:href="#DejaVuSans-30" transform="translate(127.246094 0)"/>
       <use xlink:href="#DejaVuSans-30" transform="translate(190.869141 0)"/>
      </g>
     </g>
    </g>
    <g id="xtick_3">
     <g id="line2d_3">
      <g>
       <use xlink:href="#mb1675993ce" x="137.384551" y="246.04" style="stroke: #000000; stroke-width: 0.8"/>
      </g>
     </g>
     <g id="text_3">
      <!-- 4000 -->
      <g transform="translate(124.659551 260.638438) scale(0.1 -0.1)">
       <defs>
        <path id="DejaVuSans-34" d="M 2419 4116 
L 825 1625 
L 2419 1625 
L 2419 4116 
z
M 2253 4666 
L 3047 4666 
L 3047 1625 
L 3713 1625 
L 3713 1100 
L 3047 1100 
L 3047 0 
L 2419 0 
L 2419 1100 
L 313 1100 
L 313 1709 
L 2253 4666 
z
" transform="scale(0.015625)"/>
       </defs>
       <use xlink:href="#DejaVuSans-34"/>
       <use xlink:href="#DejaVuSans-30" transform="translate(63.623047 0)"/>
       <use xlink:href="#DejaVuSans-30" transform="translate(127.246094 0)"/>
       <use xlink:href="#DejaVuSans-30" transform="translate(190.869141 0)"/>
      </g>
     </g>
    </g>
    <g id="xtick_4">
     <g id="line2d_4">
      <g>
       <use xlink:href="#mb1675993ce" x="178.635921" y="246.04" style="stroke: #000000; stroke-width: 0.8"/>
      </g>
     </g>
     <g id="text_4">
      <!-- 6000 -->
      <g transform="translate(165.910921 260.638438) scale(0.1 -0.1)">
       <defs>
        <path id="DejaVuSans-36" d="M 2113 2584 
Q 1688 2584 1439 2293 
Q 1191 2003 1191 1497 
Q 1191 994 1439 701 
Q 1688 409 2113 409 
Q 2538 409 2786 701 
Q 3034 994 3034 1497 
Q 3034 2003 2786 2293 
Q 2538 2584 2113 2584 
z
M 3366 4563 
L 3366 3988 
Q 3128 4100 2886 4159 
Q 2644 4219 2406 4219 
Q 1781 4219 1451 3797 
Q 1122 3375 1075 2522 
Q 1259 2794 1537 2939 
Q 1816 3084 2150 3084 
Q 2853 3084 3261 2657 
Q 3669 2231 3669 1497 
Q 3669 778 3244 343 
Q 2819 -91 2113 -91 
Q 1303 -91 875 529 
Q 447 1150 447 2328 
Q 447 3434 972 4092 
Q 1497 4750 2381 4750 
Q 2619 4750 2861 4703 
Q 3103 4656 3366 4563 
z
" transform="scale(0.015625)"/>
       </defs>
       <use xlink:href="#DejaVuSans-36"/>
       <use xlink:href="#DejaVuSans-30" transform="translate(63.623047 0)"/>
       <use xlink:href="#DejaVuSans-30" transform="translate(127.246094 0)"/>
       <use xlink:href="#DejaVuSans-30" transform="translate(190.869141 0)"/>
      </g>
     </g>
    </g>
    <g id="xtick_5">
     <g id="line2d_5">
      <g>
       <use xlink:href="#mb1675993ce" x="219.887291" y="246.04" style="stroke: #000000; stroke-width: 0.8"/>
      </g>
     </g>
     <g id="text_5">
      <!-- 8000 -->
      <g transform="translate(207.162291 260.638438) scale(0.1 -0.1)">
       <defs>
        <path id="DejaVuSans-38" d="M 2034 2216 
Q 1584 2216 1326 1975 
Q 1069 1734 1069 1313 
Q 1069 891 1326 650 
Q 1584 409 2034 409 
Q 2484 409 2743 651 
Q 3003 894 3003 1313 
Q 3003 1734 2745 1975 
Q 2488 2216 2034 2216 
z
M 1403 2484 
Q 997 2584 770 2862 
Q 544 3141 544 3541 
Q 544 4100 942 4425 
Q 1341 4750 2034 4750 
Q 2731 4750 3128 4425 
Q 3525 4100 3525 3541 
Q 3525 3141 3298 2862 
Q 3072 2584 2669 2484 
Q 3125 2378 3379 2068 
Q 3634 1759 3634 1313 
Q 3634 634 3220 271 
Q 2806 -91 2034 -91 
Q 1263 -91 848 271 
Q 434 634 434 1313 
Q 434 1759 690 2068 
Q 947 2378 1403 2484 
z
M 1172 3481 
Q 1172 3119 1398 2916 
Q 1625 2713 2034 2713 
Q 2441 2713 2670 2916 
Q 2900 3119 2900 3481 
Q 2900 3844 2670 4047 
Q 2441 4250 2034 4250 
Q 1625 4250 1398 4047 
Q 1172 3844 1172 3481 
z
" transform="scale(0.015625)"/>
       </defs>
       <use xlink:href="#DejaVuSans-38"/>
       <use xlink:href="#DejaVuSans-30" transform="translate(63.623047 0)"/>
       <use xlink:href="#DejaVuSans-30" transform="translate(127.246094 0)"/>
       <use xlink:href="#DejaVuSans-30" transform="translate(190.869141 0)"/>
      </g>
     </g>
    </g>
    <g id="xtick_6">
     <g id="line2d_6">
      <g>
       <use xlink:href="#mb1675993ce" x="261.138661" y="246.04" style="stroke: #000000; stroke-width: 0.8"/>
      </g>
     </g>
     <g id="text_6">
      <!-- 10000 -->
      <g transform="translate(245.232411 260.638438) scale(0.1 -0.1)">
       <defs>
        <path id="DejaVuSans-31" d="M 794 531 
L 1825 531 
L 1825 4091 
L 703 3866 
L 703 4441 
L 1819 4666 
L 2450 4666 
L 2450 531 
L 3481 531 
L 3481 0 
L 794 0 
L 794 531 
z
" transform="scale(0.015625)"/>
       </defs>
       <use xlink:href="#DejaVuSans-31"/>
       <use xlink:href="#DejaVuSans-30" transform="translate(63.623047 0)"/>
       <use xlink:href="#DejaVuSans-30" transform="translate(127.246094 0)"/>
       <use xlink:href="#DejaVuSans-30" transform="translate(190.869141 0)"/>
       <use xlink:href="#DejaVuSans-30" transform="translate(254.492188 0)"/>
      </g>
     </g>
    </g>
    <g id="text_7">
     <!-- Ordered samples -->
     <g transform="translate(115.278829 274.316562) scale(0.1 -0.1)">
      <defs>
       <path id="DejaVuSans-4f" d="M 2522 4238 
Q 1834 4238 1429 3725 
Q 1025 3213 1025 2328 
Q 1025 1447 1429 934 
Q 1834 422 2522 422 
Q 3209 422 3611 934 
Q 4013 1447 4013 2328 
Q 4013 3213 3611 3725 
Q 3209 4238 2522 4238 
z
M 2522 4750 
Q 3503 4750 4090 4092 
Q 4678 3434 4678 2328 
Q 4678 1225 4090 567 
Q 3503 -91 2522 -91 
Q 1538 -91 948 565 
Q 359 1222 359 2328 
Q 359 3434 948 4092 
Q 1538 4750 2522 4750 
z
" transform="scale(0.015625)"/>
       <path id="DejaVuSans-72" d="M 2631 2963 
Q 2534 3019 2420 3045 
Q 2306 3072 2169 3072 
Q 1681 3072 1420 2755 
Q 1159 2438 1159 1844 
L 1159 0 
L 581 0 
L 581 3500 
L 1159 3500 
L 1159 2956 
Q 1341 3275 1631 3429 
Q 1922 3584 2338 3584 
Q 2397 3584 2469 3576 
Q 2541 3569 2628 3553 
L 2631 2963 
z
" transform="scale(0.015625)"/>
       <path id="DejaVuSans-64" d="M 2906 2969 
L 2906 4863 
L 3481 4863 
L 3481 0 
L 2906 0 
L 2906 525 
Q 2725 213 2448 61 
Q 2172 -91 1784 -91 
Q 1150 -91 751 415 
Q 353 922 353 1747 
Q 353 2572 751 3078 
Q 1150 3584 1784 3584 
Q 2172 3584 2448 3432 
Q 2725 3281 2906 2969 
z
M 947 1747 
Q 947 1113 1208 752 
Q 1469 391 1925 391 
Q 2381 391 2643 752 
Q 2906 1113 2906 1747 
Q 2906 2381 2643 2742 
Q 2381 3103 1925 3103 
Q 1469 3103 1208 2742 
Q 947 2381 947 1747 
z
" transform="scale(0.015625)"/>
       <path id="DejaVuSans-65" d="M 3597 1894 
L 3597 1613 
L 953 1613 
Q 991 1019 1311 708 
Q 1631 397 2203 397 
Q 2534 397 2845 478 
Q 3156 559 3463 722 
L 3463 178 
Q 3153 47 2828 -22 
Q 2503 -91 2169 -91 
Q 1331 -91 842 396 
Q 353 884 353 1716 
Q 353 2575 817 3079 
Q 1281 3584 2069 3584 
Q 2775 3584 3186 3129 
Q 3597 2675 3597 1894 
z
M 3022 2063 
Q 3016 2534 2758 2815 
Q 2500 3097 2075 3097 
Q 1594 3097 1305 2825 
Q 1016 2553 972 2059 
L 3022 2063 
z
" transform="scale(0.015625)"/>
       <path id="DejaVuSans-20" transform="scale(0.015625)"/>
       <path id="DejaVuSans-73" d="M 2834 3397 
L 2834 2853 
Q 2591 2978 2328 3040 
Q 2066 3103 1784 3103 
Q 1356 3103 1142 2972 
Q 928 2841 928 2578 
Q 928 2378 1081 2264 
Q 1234 2150 1697 2047 
L 1894 2003 
Q 2506 1872 2764 1633 
Q 3022 1394 3022 966 
Q 3022 478 2636 193 
Q 2250 -91 1575 -91 
Q 1294 -91 989 -36 
Q 684 19 347 128 
L 347 722 
Q 666 556 975 473 
Q 1284 391 1588 391 
Q 1994 391 2212 530 
Q 2431 669 2431 922 
Q 2431 1156 2273 1281 
Q 2116 1406 1581 1522 
L 1381 1569 
Q 847 1681 609 1914 
Q 372 2147 372 2553 
Q 372 3047 722 3315 
Q 1072 3584 1716 3584 
Q 2034 3584 2315 3537 
Q 2597 3491 2834 3397 
z
" transform="scale(0.015625)"/>
       <path id="DejaVuSans-61" d="M 2194 1759 
Q 1497 1759 1228 1600 
Q 959 1441 959 1056 
Q 959 750 1161 570 
Q 1363 391 1709 391 
Q 2188 391 2477 730 
Q 2766 1069 2766 1631 
L 2766 1759 
L 2194 1759 
z
M 3341 1997 
L 3341 0 
L 2766 0 
L 2766 531 
Q 2569 213 2275 61 
Q 1981 -91 1556 -91 
Q 1019 -91 701 211 
Q 384 513 384 1019 
Q 384 1609 779 1909 
Q 1175 2209 1959 2209 
L 2766 2209 
L 2766 2266 
Q 2766 2663 2505 2880 
Q 2244 3097 1772 3097 
Q 1472 3097 1187 3025 
Q 903 2953 641 2809 
L 641 3341 
Q 956 3463 1253 3523 
Q 1550 3584 1831 3584 
Q 2591 3584 2966 3190 
Q 3341 2797 3341 1997 
z
" transform="scale(0.015625)"/>
       <path id="DejaVuSans-6d" d="M 3328 2828 
Q 3544 3216 3844 3400 
Q 4144 3584 4550 3584 
Q 5097 3584 5394 3201 
Q 5691 2819 5691 2113 
L 5691 0 
L 5113 0 
L 5113 2094 
Q 5113 2597 4934 2840 
Q 4756 3084 4391 3084 
Q 3944 3084 3684 2787 
Q 3425 2491 3425 1978 
L 3425 0 
L 2847 0 
L 2847 2094 
Q 2847 2600 2669 2842 
Q 2491 3084 2119 3084 
Q 1678 3084 1418 2786 
Q 1159 2488 1159 1978 
L 1159 0 
L 581 0 
L 581 3500 
L 1159 3500 
L 1159 2956 
Q 1356 3278 1631 3431 
Q 1906 3584 2284 3584 
Q 2666 3584 2933 3390 
Q 3200 3197 3328 2828 
z
" transform="scale(0.015625)"/>
       <path id="DejaVuSans-70" d="M 1159 525 
L 1159 -1331 
L 581 -1331 
L 581 3500 
L 1159 3500 
L 1159 2969 
Q 1341 3281 1617 3432 
Q 1894 3584 2278 3584 
Q 2916 3584 3314 3078 
Q 3713 2572 3713 1747 
Q 3713 922 3314 415 
Q 2916 -91 2278 -91 
Q 1894 -91 1617 61 
Q 1341 213 1159 525 
z
M 3116 1747 
Q 3116 2381 2855 2742 
Q 2594 3103 2138 3103 
Q 1681 3103 1420 2742 
Q 1159 2381 1159 1747 
Q 1159 1113 1420 752 
Q 1681 391 2138 391 
Q 2594 391 2855 752 
Q 3116 1113 3116 1747 
z
" transform="scale(0.015625)"/>
       <path id="DejaVuSans-6c" d="M 603 4863 
L 1178 4863 
L 1178 0 
L 603 0 
L 603 4863 
z
" transform="scale(0.015625)"/>
      </defs>
      <use xlink:href="#DejaVuSans-4f"/>
      <use xlink:href="#DejaVuSans-72" transform="translate(78.710938 0)"/>
      <use xlink:href="#DejaVuSans-64" transform="translate(118.074219 0)"/>
      <use xlink:href="#DejaVuSans-65" transform="translate(181.550781 0)"/>
      <use xlink:href="#DejaVuSans-72" transform="translate(243.074219 0)"/>
      <use xlink:href="#DejaVuSans-65" transform="translate(281.9375 0)"/>
      <use xlink:href="#DejaVuSans-64" transform="translate(343.460938 0)"/>
      <use xlink:href="#DejaVuSans-20" transform="translate(406.9375 0)"/>
      <use xlink:href="#DejaVuSans-73" transform="translate(438.724609 0)"/>
      <use xlink:href="#DejaVuSans-61" transform="translate(490.824219 0)"/>
      <use xlink:href="#DejaVuSans-6d" transform="translate(552.103516 0)"/>
      <use xlink:href="#DejaVuSans-70" transform="translate(649.515625 0)"/>
      <use xlink:href="#DejaVuSans-6c" transform="translate(712.992188 0)"/>
      <use xlink:href="#DejaVuSans-65" transform="translate(740.775391 0)"/>
      <use xlink:href="#DejaVuSans-73" transform="translate(802.298828 0)"/>
     </g>
    </g>
   </g>
   <g id="matplotlib.axis_2">
    <g id="ytick_1">
     <g id="line2d_7">
      <defs>
       <path id="m88c68be531" d="M 0 0 
L -3.5 0 
" style="stroke: #000000; stroke-width: 0.8"/>
      </defs>
      <g>
       <use xlink:href="#m88c68be531" x="44.57" y="246.017136" style="stroke: #000000; stroke-width: 0.8"/>
      </g>
     </g>
     <g id="text_8">
      <!-- 0 -->
      <g transform="translate(31.2075 249.816355) scale(0.1 -0.1)">
       <use xlink:href="#DejaVuSans-30"/>
      </g>
     </g>
    </g>
    <g id="ytick_2">
     <g id="line2d_8">
      <g>
       <use xlink:href="#m88c68be531" x="44.57" y="213.964964" style="stroke: #000000; stroke-width: 0.8"/>
      </g>
     </g>
     <g id="text_9">
      <!-- 5 -->
      <g transform="translate(31.2075 217.764183) scale(0.1 -0.1)">
       <defs>
        <path id="DejaVuSans-35" d="M 691 4666 
L 3169 4666 
L 3169 4134 
L 1269 4134 
L 1269 2991 
Q 1406 3038 1543 3061 
Q 1681 3084 1819 3084 
Q 2600 3084 3056 2656 
Q 3513 2228 3513 1497 
Q 3513 744 3044 326 
Q 2575 -91 1722 -91 
Q 1428 -91 1123 -41 
Q 819 9 494 109 
L 494 744 
Q 775 591 1075 516 
Q 1375 441 1709 441 
Q 2250 441 2565 725 
Q 2881 1009 2881 1497 
Q 2881 1984 2565 2268 
Q 2250 2553 1709 2553 
Q 1456 2553 1204 2497 
Q 953 2441 691 2322 
L 691 4666 
z
" transform="scale(0.015625)"/>
       </defs>
       <use xlink:href="#DejaVuSans-35"/>
      </g>
     </g>
    </g>
    <g id="ytick_3">
     <g id="line2d_9">
      <g>
       <use xlink:href="#m88c68be531" x="44.57" y="181.912793" style="stroke: #000000; stroke-width: 0.8"/>
      </g>
     </g>
     <g id="text_10">
      <!-- 10 -->
      <g transform="translate(24.845 185.712012) scale(0.1 -0.1)">
       <use xlink:href="#DejaVuSans-31"/>
       <use xlink:href="#DejaVuSans-30" transform="translate(63.623047 0)"/>
      </g>
     </g>
    </g>
    <g id="ytick_4">
     <g id="line2d_10">
      <g>
       <use xlink:href="#m88c68be531" x="44.57" y="149.860622" style="stroke: #000000; stroke-width: 0.8"/>
      </g>
     </g>
     <g id="text_11">
      <!-- 15 -->
      <g transform="translate(24.845 153.65984) scale(0.1 -0.1)">
       <use xlink:href="#DejaVuSans-31"/>
       <use xlink:href="#DejaVuSans-35" transform="translate(63.623047 0)"/>
      </g>
     </g>
    </g>
    <g id="ytick_5">
     <g id="line2d_11">
      <g>
       <use xlink:href="#m88c68be531" x="44.57" y="117.80845" style="stroke: #000000; stroke-width: 0.8"/>
      </g>
     </g>
     <g id="text_12">
      <!-- 20 -->
      <g transform="translate(24.845 121.607669) scale(0.1 -0.1)">
       <use xlink:href="#DejaVuSans-32"/>
       <use xlink:href="#DejaVuSans-30" transform="translate(63.623047 0)"/>
      </g>
     </g>
    </g>
    <g id="ytick_6">
     <g id="line2d_12">
      <g>
       <use xlink:href="#m88c68be531" x="44.57" y="85.756279" style="stroke: #000000; stroke-width: 0.8"/>
      </g>
     </g>
     <g id="text_13">
      <!-- 25 -->
      <g transform="translate(24.845 89.555497) scale(0.1 -0.1)">
       <use xlink:href="#DejaVuSans-32"/>
       <use xlink:href="#DejaVuSans-35" transform="translate(63.623047 0)"/>
      </g>
     </g>
    </g>
    <g id="ytick_7">
     <g id="line2d_13">
      <g>
       <use xlink:href="#m88c68be531" x="44.57" y="53.704107" style="stroke: #000000; stroke-width: 0.8"/>
      </g>
     </g>
     <g id="text_14">
      <!-- 30 -->
      <g transform="translate(24.845 57.503326) scale(0.1 -0.1)">
       <defs>
        <path id="DejaVuSans-33" d="M 2597 2516 
Q 3050 2419 3304 2112 
Q 3559 1806 3559 1356 
Q 3559 666 3084 287 
Q 2609 -91 1734 -91 
Q 1441 -91 1130 -33 
Q 819 25 488 141 
L 488 750 
Q 750 597 1062 519 
Q 1375 441 1716 441 
Q 2309 441 2620 675 
Q 2931 909 2931 1356 
Q 2931 1769 2642 2001 
Q 2353 2234 1838 2234 
L 1294 2234 
L 1294 2753 
L 1863 2753 
Q 2328 2753 2575 2939 
Q 2822 3125 2822 3475 
Q 2822 3834 2567 4026 
Q 2313 4219 1838 4219 
Q 1578 4219 1281 4162 
Q 984 4106 628 3988 
L 628 4550 
Q 988 4650 1302 4700 
Q 1616 4750 1894 4750 
Q 2613 4750 3031 4423 
Q 3450 4097 3450 3541 
Q 3450 3153 3228 2886 
Q 3006 2619 2597 2516 
z
" transform="scale(0.015625)"/>
       </defs>
       <use xlink:href="#DejaVuSans-33"/>
       <use xlink:href="#DejaVuSans-30" transform="translate(63.623047 0)"/>
      </g>
     </g>
    </g>
    <g id="text_15">
     <!-- Scores -->
     <g transform="translate(18.765313 157.002656) rotate(-90) scale(0.1 -0.1)">
      <defs>
       <path id="DejaVuSans-53" d="M 3425 4513 
L 3425 3897 
Q 3066 4069 2747 4153 
Q 2428 4238 2131 4238 
Q 1616 4238 1336 4038 
Q 1056 3838 1056 3469 
Q 1056 3159 1242 3001 
Q 1428 2844 1947 2747 
L 2328 2669 
Q 3034 2534 3370 2195 
Q 3706 1856 3706 1288 
Q 3706 609 3251 259 
Q 2797 -91 1919 -91 
Q 1588 -91 1214 -16 
Q 841 59 441 206 
L 441 856 
Q 825 641 1194 531 
Q 1563 422 1919 422 
Q 2459 422 2753 634 
Q 3047 847 3047 1241 
Q 3047 1584 2836 1778 
Q 2625 1972 2144 2069 
L 1759 2144 
Q 1053 2284 737 2584 
Q 422 2884 422 3419 
Q 422 4038 858 4394 
Q 1294 4750 2059 4750 
Q 2388 4750 2728 4690 
Q 3069 4631 3425 4513 
z
" transform="scale(0.015625)"/>
       <path id="DejaVuSans-63" d="M 3122 3366 
L 3122 2828 
Q 2878 2963 2633 3030 
Q 2388 3097 2138 3097 
Q 1578 3097 1268 2742 
Q 959 2388 959 1747 
Q 959 1106 1268 751 
Q 1578 397 2138 397 
Q 2388 397 2633 464 
Q 2878 531 3122 666 
L 3122 134 
Q 2881 22 2623 -34 
Q 2366 -91 2075 -91 
Q 1284 -91 818 406 
Q 353 903 353 1747 
Q 353 2603 823 3093 
Q 1294 3584 2113 3584 
Q 2378 3584 2631 3529 
Q 2884 3475 3122 3366 
z
" transform="scale(0.015625)"/>
       <path id="DejaVuSans-6f" d="M 1959 3097 
Q 1497 3097 1228 2736 
Q 959 2375 959 1747 
Q 959 1119 1226 758 
Q 1494 397 1959 397 
Q 2419 397 2687 759 
Q 2956 1122 2956 1747 
Q 2956 2369 2687 2733 
Q 2419 3097 1959 3097 
z
M 1959 3584 
Q 2709 3584 3137 3096 
Q 3566 2609 3566 1747 
Q 3566 888 3137 398 
Q 2709 -91 1959 -91 
Q 1206 -91 779 398 
Q 353 888 353 1747 
Q 353 2609 779 3096 
Q 1206 3584 1959 3584 
z
" transform="scale(0.015625)"/>
      </defs>
      <use xlink:href="#DejaVuSans-53"/>
      <use xlink:href="#DejaVuSans-63" transform="translate(63.476562 0)"/>
      <use xlink:href="#DejaVuSans-6f" transform="translate(118.457031 0)"/>
      <use xlink:href="#DejaVuSans-72" transform="translate(179.638672 0)"/>
      <use xlink:href="#DejaVuSans-65" transform="translate(218.501953 0)"/>
      <use xlink:href="#DejaVuSans-73" transform="translate(280.025391 0)"/>
     </g>
    </g>
   </g>
   <g id="line2d_14">
    <path d="M 54.881811 236.435966 
L 55.356202 232.586065 
L 55.376828 232.574937 
L 55.521207 231.843674 
L 55.727464 230.892484 
L 55.913095 229.608405 
L 56.016224 229.438896 
L 56.243106 228.952875 
L 56.428738 228.676326 
L 56.65562 228.204075 
L 56.779374 228.106322 
L 57.191888 227.236732 
L 57.295016 227.172259 
L 57.583776 226.68228 
L 57.790033 226.514699 
L 58.161295 226.246465 
L 58.346926 226.120304 
L 59.52259 225.022769 
L 59.605093 224.904866 
L 60.409495 224.228804 
L 60.533249 224.112263 
L 60.945763 223.862097 
L 64.63776 221.453269 
L 65.009023 221.318016 
L 65.524665 220.986512 
L 65.710296 220.880159 
L 66.019681 220.664338 
L 70.124192 218.838213 
L 70.474829 218.729614 
L 70.825466 218.596893 
L 71.072974 218.485509 
L 71.237979 218.322662 
L 73.05304 217.684908 
L 73.300548 217.555889 
L 73.589307 217.428968 
L 73.857441 217.329349 
L 74.249329 217.206765 
L 74.703094 217.058596 
L 74.991854 216.94568 
L 75.177485 216.831734 
L 75.672502 216.655137 
L 79.220119 215.498852 
L 79.385125 215.4266 
L 85.180942 213.509533 
L 85.407825 213.422529 
L 86.789746 212.98662 
L 87.552896 212.763363 
L 87.759153 212.678541 
L 88.006661 212.568633 
L 91.368648 211.73568 
L 91.636782 211.654618 
L 92.358681 211.466284 
L 99.660173 209.482629 
L 100.15519 209.361078 
L 100.732709 209.198469 
L 101.227725 209.085685 
L 102.650898 208.702428 
L 103.249042 208.521653 
L 108.776726 206.989074 
L 108.962357 206.891852 
L 109.457374 206.760052 
L 110.323652 206.537298 
L 110.777417 206.425449 
L 112.716232 206.060512 
L 114.63442 205.545327 
L 115.21194 205.399637 
L 117.068251 204.974259 
L 117.64577 204.83209 
L 119.027691 204.47747 
L 119.89397 204.24646 
L 120.120853 204.155406 
L 120.822126 203.953772 
L 121.523399 203.775732 
L 121.85341 203.667943 
L 123.255957 203.337253 
L 123.936604 203.12356 
L 124.534749 202.989589 
L 125.875419 202.62957 
L 126.432312 202.504617 
L 127.525474 202.209976 
L 127.937987 202.121786 
L 128.412378 202.001121 
L 128.618635 201.942658 
L 129.402411 201.777674 
L 129.897427 201.651627 
L 136.456395 200.00475 
L 136.992663 199.892828 
L 138.725221 199.400074 
L 138.993354 199.316594 
L 144.644792 197.872746 
L 145.139809 197.735401 
L 146.418601 197.390592 
L 148.378041 196.879021 
L 148.831806 196.759129 
L 150.337481 196.303936 
L 150.626241 196.221169 
L 155.865165 194.783281 
L 157.205834 194.430275 
L 157.865856 194.250936 
L 158.154616 194.120958 
L 160.774078 193.215993 
L 161.186591 193.08132 
L 162.259127 192.758498 
L 162.568512 192.634364 
L 163.207909 192.46644 
L 163.434791 192.374175 
L 164.878589 191.926364 
L 165.517985 191.644753 
L 165.847996 191.512018 
L 166.095504 191.421141 
L 166.590521 191.299385 
L 166.796778 191.232663 
L 167.374297 191.03024 
L 171.478808 189.811074 
L 171.746942 189.70234 
L 171.911948 189.597457 
L 172.200707 189.513513 
L 172.633847 189.395933 
L 173.974516 188.981898 
L 174.304527 188.866213 
L 174.572661 188.768813 
L 174.737666 188.722644 
L 175.91333 188.32489 
L 176.758984 188.070796 
L 177.336503 187.874676 
L 177.54276 187.793538 
L 179.151563 187.278136 
L 179.522825 187.178585 
L 179.894088 187.069899 
L 181.956656 186.300183 
L 182.575427 186.135187 
L 185.628028 185.112997 
L 191.939488 182.831366 
L 192.145745 182.748192 
L 192.620135 182.591333 
L 192.991398 182.418841 
L 193.259532 182.275156 
L 193.50704 182.159343 
L 193.878302 182.007613 
L 194.208313 181.905769 
L 194.55895 181.795457 
L 194.765207 181.725556 
L 195.342726 181.574565 
L 200.58165 178.983061 
L 201.20042 178.718916 
L 201.592308 178.460353 
L 201.922319 178.294238 
L 202.25233 178.094334 
L 202.520464 178.033028 
L 203.056732 177.780401 
L 203.283614 177.651542 
L 203.572374 177.523422 
L 203.799257 177.391762 
L 204.727412 177.043172 
L 205.057423 176.871359 
L 205.531814 176.728897 
L 205.738071 176.600735 
L 206.047456 176.463053 
L 206.294964 176.332604 
L 206.707478 176.123505 
L 207.016863 176.014844 
L 207.284997 175.881436 
L 208.006896 175.479109 
L 208.192527 175.325368 
L 208.728795 175.09618 
L 209.100058 174.955375 
L 209.450694 174.781061 
L 209.698202 174.662436 
L 210.048839 174.528441 
L 210.172593 174.417842 
L 210.337599 174.355772 
L 211.018246 174.021781 
L 211.203877 173.898601 
L 211.760771 173.634163 
L 212.070156 173.446553 
L 212.358916 173.335129 
L 212.668301 173.158058 
L 212.895184 173.038729 
L 213.122066 172.898383 
L 213.493328 172.691919 
L 213.720211 172.470403 
L 213.905842 172.348868 
L 214.338982 172.09827 
L 214.524613 171.989555 
L 216.360299 171.109374 
L 216.731561 170.873535 
L 216.958444 170.733195 
L 217.30908 170.448374 
L 217.783471 170.176221 
L 218.299113 169.90386 
L 218.773504 169.658796 
L 218.938509 169.542407 
L 219.309772 169.374788 
L 219.454151 169.264844 
L 219.619157 169.124466 
L 224.156808 166.064725 
L 224.486819 165.848565 
L 224.651824 165.732244 
L 224.899332 165.585845 
L 224.981835 165.486538 
L 225.229343 165.361273 
L 225.414974 165.249965 
L 225.662483 165.088496 
L 225.971868 164.946346 
L 226.19875 164.82459 
L 228.467576 163.262685 
L 228.632581 163.067219 
L 228.921341 162.88571 
L 229.230726 162.664171 
L 229.395732 162.420194 
L 229.581363 162.326817 
L 229.78762 162.172342 
L 229.931999 162.069104 
L 230.798278 161.501787 
L 231.190166 161.09175 
L 231.643931 160.669163 
L 231.870814 160.521321 
L 232.015194 160.425743 
L 232.180199 160.32245 
L 232.427707 160.201893 
L 232.633964 160.024419 
L 233.520869 159.253125 
L 233.665248 159.088215 
L 233.830254 158.905923 
L 234.139639 158.419994 
L 234.552153 158.123913 
L 234.861538 157.757313 
L 235.067795 157.551179 
L 235.274052 157.424808 
L 235.459683 157.253551 
L 235.66594 157.076866 
L 235.872197 156.944778 
L 236.119705 156.704684 
L 236.305336 156.600046 
L 236.57347 156.243026 
L 236.759101 156.114221 
L 236.924107 156.006612 
L 237.439749 155.613711 
L 238.367904 154.628245 
L 238.471033 154.498413 
L 238.801044 154.218178 
L 238.883547 154.182109 
L 239.048552 153.930051 
L 239.131055 153.826232 
L 239.337312 153.574614 
L 239.399189 153.46234 
L 239.564194 153.256756 
L 239.708574 153.183168 
L 239.914831 152.782455 
L 240.100462 152.497354 
L 240.20359 152.271522 
L 240.677981 151.491364 
L 240.966741 151.270589 
L 241.193623 151.053041 
L 241.379254 150.917432 
L 241.647388 150.496984 
L 241.812394 150.358857 
L 243.256192 148.111907 
L 243.462449 147.836434 
L 243.64808 147.491782 
L 243.79246 147.286485 
L 244.019342 147.004245 
L 245.421889 144.692401 
L 245.525017 144.580096 
L 245.669397 144.258504 
L 245.710648 144.115828 
L 246.102536 143.530842 
L 246.494424 142.922448 
L 246.741933 142.570826 
L 246.865687 142.522518 
L 247.010066 142.267879 
L 247.154446 142.102327 
L 247.340077 141.863425 
L 247.401955 141.740679 
L 247.649463 141.179536 
L 247.793843 141.041665 
L 248.701373 139.105652 
L 248.76325 138.99484 
L 250.207048 136.416595 
L 250.475182 136.143494 
L 250.887695 135.332714 
L 251.032075 135.128255 
L 251.423963 133.91247 
L 251.568343 133.658077 
L 251.815851 132.915547 
L 252.022108 132.598026 
L 252.207739 132.236182 
L 252.269616 132.167381 
L 252.475873 131.358777 
L 252.929638 130.373238 
L 252.970889 130.235501 
L 253.44528 128.740319 
L 253.775291 127.6262 
L 253.857794 127.413109 
L 254.311559 125.709152 
L 254.35281 125.667372 
L 254.600319 124.93372 
L 255.115961 123.733903 
L 255.26034 123.147903 
L 256.126619 119.4344 
L 256.147245 119.432236 
L 256.580384 117.559253 
L 256.621636 117.312587 
L 256.869144 116.481693 
L 257.054775 115.536478 
L 257.859177 110.676651 
L 258.003557 109.026199 
L 258.663578 103.486689 
L 258.931712 100.616453 
L 258.993589 99.857992 
L 259.158595 98.321739 
L 259.344226 96.792541 
L 260.004248 89.821318 
L 260.189879 86.424529 
L 260.210505 86.412351 
L 260.354885 81.846851 
L 260.66427 77.824484 
L 261.118035 44.355284 
L 261.118035 44.355284 
" clip-path="url(#p4cec6510e7)" style="fill: none; stroke: #1f77b4; stroke-width: 1.5; stroke-linecap: square"/>
   </g>
   <g id="line2d_15">
    <path d="M 54.881811 235.998732 
L 54.902437 235.923036 
L 55.067442 232.084093 
L 55.211822 230.651005 
L 55.376828 230.225821 
L 55.45933 230.111774 
L 55.74809 229.495574 
L 55.871844 228.985501 
L 56.098727 227.965628 
L 56.243106 227.447639 
L 56.325609 227.270651 
L 56.531866 226.522639 
L 56.738123 225.922972 
L 56.903128 225.717051 
L 57.047508 225.586768 
L 57.274391 225.055442 
L 57.377519 224.920594 
L 60.265115 220.633624 
L 60.43012 220.453838 
L 60.636377 220.26325 
L 60.71888 220.201477 
L 60.904511 219.974423 
L 61.028265 219.867617 
L 62.637069 218.25847 
L 62.781449 218.012782 
L 63.750856 217.11668 
L 63.998364 216.960392 
L 64.204621 216.796753 
L 64.390252 216.499871 
L 64.575883 216.237046 
L 64.78214 216.075388 
L 65.050274 215.884834 
L 65.174028 215.763228 
L 65.400911 215.563767 
L 65.607167 215.457491 
L 67.607859 213.804431 
L 67.752239 213.63632 
L 69.216662 212.546555 
L 69.361042 212.414076 
L 69.959187 212.044899 
L 72.537398 210.20974 
L 72.702403 210.115134 
L 72.949911 209.969105 
L 73.218045 209.740366 
L 73.444928 209.51267 
L 73.713062 209.369579 
L 73.898693 209.264806 
L 74.290581 209.002061 
L 74.558715 208.660539 
L 75.033105 208.466779 
L 77.446311 206.911302 
L 77.982578 206.591968 
L 78.291964 206.477588 
L 78.49822 206.367983 
L 78.993237 205.967019 
L 79.281996 205.795316 
L 79.673884 205.376534 
L 79.98327 205.214754 
L 80.12765 205.106457 
L 80.725794 204.810574 
L 80.993928 204.649665 
L 81.200185 204.487615 
L 81.447693 204.30942 
L 83.407133 202.8598 
L 83.654642 202.70465 
L 84.232161 202.413475 
L 84.397166 202.173588 
L 84.603423 202.031845 
L 84.768429 201.801847 
L 85.036563 201.63184 
L 85.242819 201.360513 
L 85.304696 201.252506 
L 85.57283 201.02164 
L 86.047221 200.694331 
L 86.500986 200.344173 
L 86.76912 200.062135 
L 87.387891 199.622365 
L 87.511645 199.53166 
L 87.717902 199.356301 
L 87.862281 199.251076 
L 88.006661 199.110855 
L 88.212918 198.984972 
L 88.542929 198.695032 
L 89.01732 198.312846 
L 89.718593 197.682083 
L 89.904224 197.483856 
L 90.296112 197.035788 
L 90.461118 196.902557 
L 91.183017 196.15533 
L 91.533653 195.786275 
L 91.698659 195.460385 
L 91.925541 195.141806 
L 92.090547 194.779014 
L 92.874323 194.001073 
L 93.059954 193.715653 
L 93.658099 193.238008 
L 94.091238 192.680056 
L 94.214992 192.562433 
L 94.957517 191.873837 
L 95.287528 191.370784 
L 95.390656 191.253626 
L 95.596913 191.012309 
L 95.65879 190.975402 
L 95.80317 190.643465 
L 98.319504 187.098113 
L 98.463883 186.986249 
L 98.608263 186.786222 
L 99.206408 185.948732 
L 99.268285 185.829825 
L 100.15519 183.424971 
L 100.299569 182.936181 
L 100.547078 182.417771 
L 100.897714 181.719583 
L 101.145223 181.318106 
L 101.310228 180.832757 
L 101.722742 179.713339 
L 101.784619 179.631577 
L 102.25901 178.207513 
L 102.320887 178.126087 
L 102.857154 176.367353 
L 103.125288 175.17711 
L 103.414048 174.454847 
L 103.702807 173.477407 
L 103.78531 173.375331 
L 103.92969 172.576056 
L 104.342204 171.17054 
L 104.589712 170.177627 
L 104.857846 168.84763 
L 104.9816 167.826987 
L 105.084728 167.556876 
L 105.290985 165.659543 
L 105.827253 159.548094 
L 106.342895 147.225925 
L 106.425398 132.023886 
L 106.425398 132.023886 
" clip-path="url(#p4cec6510e7)" style="fill: none; stroke: #ff7f0e; stroke-width: 1.5; stroke-linecap: square"/>
   </g>
   <g id="patch_3">
    <path d="M 44.57 246.04 
L 44.57 34.75125 
" style="fill: none; stroke: #000000; stroke-width: 0.8; stroke-linejoin: miter; stroke-linecap: square"/>
   </g>
   <g id="patch_4">
    <path d="M 271.429846 246.04 
L 271.429846 34.75125 
" style="fill: none; stroke: #000000; stroke-width: 0.8; stroke-linejoin: miter; stroke-linecap: square"/>
   </g>
   <g id="patch_5">
    <path d="M 44.57 246.04 
L 271.429846 246.04 
" style="fill: none; stroke: #000000; stroke-width: 0.8; stroke-linejoin: miter; stroke-linecap: square"/>
   </g>
   <g id="patch_6">
    <path d="M 44.57 34.75125 
L 271.429846 34.75125 
" style="fill: none; stroke: #000000; stroke-width: 0.8; stroke-linejoin: miter; stroke-linecap: square"/>
   </g>
   <g id="legend_1">
    <g id="patch_7">
     <path d="M 51.57 72.1075 
L 151.759063 72.1075 
Q 153.759063 72.1075 153.759063 70.1075 
L 153.759063 41.75125 
Q 153.759063 39.75125 151.759063 39.75125 
L 51.57 39.75125 
Q 49.57 39.75125 49.57 41.75125 
L 49.57 70.1075 
Q 49.57 72.1075 51.57 72.1075 
z
" style="fill: #ffffff; opacity: 0.8; stroke: #cccccc; stroke-linejoin: miter"/>
    </g>
    <g id="line2d_16">
     <path d="M 53.57 47.849687 
L 63.57 47.849687 
L 73.57 47.849687 
" style="fill: none; stroke: #1f77b4; stroke-width: 1.5; stroke-linecap: square"/>
    </g>
    <g id="text_16">
     <!-- ID samples -->
     <g transform="translate(81.57 51.349687) scale(0.1 -0.1)">
      <defs>
       <path id="DejaVuSans-49" d="M 628 4666 
L 1259 4666 
L 1259 0 
L 628 0 
L 628 4666 
z
" transform="scale(0.015625)"/>
       <path id="DejaVuSans-44" d="M 1259 4147 
L 1259 519 
L 2022 519 
Q 2988 519 3436 956 
Q 3884 1394 3884 2338 
Q 3884 3275 3436 3711 
Q 2988 4147 2022 4147 
L 1259 4147 
z
M 628 4666 
L 1925 4666 
Q 3281 4666 3915 4102 
Q 4550 3538 4550 2338 
Q 4550 1131 3912 565 
Q 3275 0 1925 0 
L 628 0 
L 628 4666 
z
" transform="scale(0.015625)"/>
      </defs>
      <use xlink:href="#DejaVuSans-49"/>
      <use xlink:href="#DejaVuSans-44" transform="translate(29.492188 0)"/>
      <use xlink:href="#DejaVuSans-20" transform="translate(106.494141 0)"/>
      <use xlink:href="#DejaVuSans-73" transform="translate(138.28125 0)"/>
      <use xlink:href="#DejaVuSans-61" transform="translate(190.380859 0)"/>
      <use xlink:href="#DejaVuSans-6d" transform="translate(251.660156 0)"/>
      <use xlink:href="#DejaVuSans-70" transform="translate(349.072266 0)"/>
      <use xlink:href="#DejaVuSans-6c" transform="translate(412.548828 0)"/>
      <use xlink:href="#DejaVuSans-65" transform="translate(440.332031 0)"/>
      <use xlink:href="#DejaVuSans-73" transform="translate(501.855469 0)"/>
     </g>
    </g>
    <g id="line2d_17">
     <path d="M 53.57 62.527812 
L 63.57 62.527812 
L 73.57 62.527812 
" style="fill: none; stroke: #ff7f0e; stroke-width: 1.5; stroke-linecap: square"/>
    </g>
    <g id="text_17">
     <!-- OOD samples -->
     <g transform="translate(81.57 66.027812) scale(0.1 -0.1)">
      <use xlink:href="#DejaVuSans-4f"/>
      <use xlink:href="#DejaVuSans-4f" transform="translate(78.710938 0)"/>
      <use xlink:href="#DejaVuSans-44" transform="translate(157.421875 0)"/>
      <use xlink:href="#DejaVuSans-20" transform="translate(234.423828 0)"/>
      <use xlink:href="#DejaVuSans-73" transform="translate(266.210938 0)"/>
      <use xlink:href="#DejaVuSans-61" transform="translate(318.310547 0)"/>
      <use xlink:href="#DejaVuSans-6d" transform="translate(379.589844 0)"/>
      <use xlink:href="#DejaVuSans-70" transform="translate(477.001953 0)"/>
      <use xlink:href="#DejaVuSans-6c" transform="translate(540.478516 0)"/>
      <use xlink:href="#DejaVuSans-65" transform="translate(568.261719 0)"/>
      <use xlink:href="#DejaVuSans-73" transform="translate(629.785156 0)"/>
     </g>
    </g>
   </g>
  </g>
  <g id="axes_2">
   <g id="patch_8">
    <path d="M 338.340154 246.04 
L 565.2 246.04 
L 565.2 34.75125 
L 338.340154 34.75125 
z
" style="fill: #ffffff"/>
   </g>
   <g id="patch_9">
    <path d="M 348.651965 246.04 
L 356.901414 246.04 
L 356.901414 239.585783 
L 348.651965 239.585783 
z
" clip-path="url(#pdeea3f2b3f)" style="fill: #1f77b4; opacity: 0.5"/>
   </g>
   <g id="patch_10">
    <path d="M 356.901414 246.04 
L 365.150863 246.04 
L 365.150863 207.933597 
L 356.901414 207.933597 
z
" clip-path="url(#pdeea3f2b3f)" style="fill: #1f77b4; opacity: 0.5"/>
   </g>
   <g id="patch_11">
    <path d="M 365.150863 246.04 
L 373.400314 246.04 
L 373.400314 159.394367 
L 365.150863 159.394367 
z
" clip-path="url(#pdeea3f2b3f)" style="fill: #1f77b4; opacity: 0.5"/>
   </g>
   <g id="patch_12">
    <path d="M 373.400314 246.04 
L 381.649763 246.04 
L 381.649763 123.851951 
L 373.400314 123.851951 
z
" clip-path="url(#pdeea3f2b3f)" style="fill: #1f77b4; opacity: 0.5"/>
   </g>
   <g id="patch_13">
    <path d="M 381.649763 246.04 
L 389.899212 246.04 
L 389.899212 117.044079 
L 381.649763 117.044079 
z
" clip-path="url(#pdeea3f2b3f)" style="fill: #1f77b4; opacity: 0.5"/>
   </g>
   <g id="patch_14">
    <path d="M 389.899212 246.04 
L 398.148662 246.04 
L 398.148662 136.141487 
L 389.899212 136.141487 
z
" clip-path="url(#pdeea3f2b3f)" style="fill: #1f77b4; opacity: 0.5"/>
   </g>
   <g id="patch_15">
    <path d="M 398.148662 246.04 
L 406.398111 246.04 
L 406.398111 148.607851 
L 398.148662 148.607851 
z
" clip-path="url(#pdeea3f2b3f)" style="fill: #1f77b4; opacity: 0.5"/>
   </g>
   <g id="patch_16">
    <path d="M 406.398111 246.04 
L 414.64756 246.04 
L 414.64756 174.955202 
L 406.398111 174.955202 
z
" clip-path="url(#pdeea3f2b3f)" style="fill: #1f77b4; opacity: 0.5"/>
   </g>
   <g id="patch_17">
    <path d="M 414.64756 246.04 
L 422.897009 246.04 
L 422.897009 187.863635 
L 414.64756 187.863635 
z
" clip-path="url(#pdeea3f2b3f)" style="fill: #1f77b4; opacity: 0.5"/>
   </g>
   <g id="patch_18">
    <path d="M 422.897009 246.04 
L 431.146458 246.04 
L 431.146458 200.506827 
L 422.897009 200.506827 
z
" clip-path="url(#pdeea3f2b3f)" style="fill: #1f77b4; opacity: 0.5"/>
   </g>
   <g id="patch_19">
    <path d="M 431.146458 246.04 
L 439.395907 246.04 
L 439.395907 215.537195 
L 431.146458 215.537195 
z
" clip-path="url(#pdeea3f2b3f)" style="fill: #1f77b4; opacity: 0.5"/>
   </g>
   <g id="patch_20">
    <path d="M 439.395907 246.04 
L 447.645356 246.04 
L 447.645356 223.052379 
L 439.395907 223.052379 
z
" clip-path="url(#pdeea3f2b3f)" style="fill: #1f77b4; opacity: 0.5"/>
   </g>
   <g id="patch_21">
    <path d="M 447.645356 246.04 
L 455.894799 246.04 
L 455.894799 227.207818 
L 447.645356 227.207818 
z
" clip-path="url(#pdeea3f2b3f)" style="fill: #1f77b4; opacity: 0.5"/>
   </g>
   <g id="patch_22">
    <path d="M 455.894799 246.04 
L 464.144255 246.04 
L 464.144255 231.805369 
L 455.894799 231.805369 
z
" clip-path="url(#pdeea3f2b3f)" style="fill: #1f77b4; opacity: 0.5"/>
   </g>
   <g id="patch_23">
    <path d="M 464.144255 246.04 
L 472.393697 246.04 
L 472.393697 236.226046 
L 464.144255 236.226046 
z
" clip-path="url(#pdeea3f2b3f)" style="fill: #1f77b4; opacity: 0.5"/>
   </g>
   <g id="patch_24">
    <path d="M 472.393697 246.04 
L 480.643153 246.04 
L 480.643153 238.613236 
L 472.393697 238.613236 
z
" clip-path="url(#pdeea3f2b3f)" style="fill: #1f77b4; opacity: 0.5"/>
   </g>
   <g id="patch_25">
    <path d="M 480.643153 246.04 
L 488.892609 246.04 
L 488.892609 241.707721 
L 480.643153 241.707721 
z
" clip-path="url(#pdeea3f2b3f)" style="fill: #1f77b4; opacity: 0.5"/>
   </g>
   <g id="patch_26">
    <path d="M 488.892609 246.04 
L 497.142051 246.04 
L 497.142051 242.94551 
L 488.892609 242.94551 
z
" clip-path="url(#pdeea3f2b3f)" style="fill: #1f77b4; opacity: 0.5"/>
   </g>
   <g id="patch_27">
    <path d="M 497.142051 246.04 
L 505.391494 246.04 
L 505.391494 242.680268 
L 497.142051 242.680268 
z
" clip-path="url(#pdeea3f2b3f)" style="fill: #1f77b4; opacity: 0.5"/>
   </g>
   <g id="patch_28">
    <path d="M 505.391494 246.04 
L 513.64095 246.04 
L 513.64095 244.625378 
L 505.391494 244.625378 
z
" clip-path="url(#pdeea3f2b3f)" style="fill: #1f77b4; opacity: 0.5"/>
   </g>
   <g id="patch_29">
    <path d="M 513.64095 246.04 
L 521.890405 246.04 
L 521.890405 244.271723 
L 513.64095 244.271723 
z
" clip-path="url(#pdeea3f2b3f)" style="fill: #1f77b4; opacity: 0.5"/>
   </g>
   <g id="patch_30">
    <path d="M 521.890405 246.04 
L 530.139848 246.04 
L 530.139848 245.244274 
L 521.890405 245.244274 
z
" clip-path="url(#pdeea3f2b3f)" style="fill: #1f77b4; opacity: 0.5"/>
   </g>
   <g id="patch_31">
    <path d="M 530.139848 246.04 
L 538.389291 246.04 
L 538.389291 245.59793 
L 530.139848 245.59793 
z
" clip-path="url(#pdeea3f2b3f)" style="fill: #1f77b4; opacity: 0.5"/>
   </g>
   <g id="patch_32">
    <path d="M 538.389291 246.04 
L 546.638746 246.04 
L 546.638746 245.774758 
L 538.389291 245.774758 
z
" clip-path="url(#pdeea3f2b3f)" style="fill: #1f77b4; opacity: 0.5"/>
   </g>
   <g id="patch_33">
    <path d="M 546.638746 246.04 
L 554.888189 246.04 
L 554.888189 245.686344 
L 546.638746 245.686344 
z
" clip-path="url(#pdeea3f2b3f)" style="fill: #1f77b4; opacity: 0.5"/>
   </g>
   <g id="patch_34">
    <path d="M 349.121421 246.04 
L 353.586916 246.04 
L 353.586916 238.199978 
L 349.121421 238.199978 
z
" clip-path="url(#pdeea3f2b3f)" style="fill: #ff7f0e; opacity: 0.5"/>
   </g>
   <g id="patch_35">
    <path d="M 353.586916 246.04 
L 358.052409 246.04 
L 358.052409 212.719894 
L 353.586916 212.719894 
z
" clip-path="url(#pdeea3f2b3f)" style="fill: #ff7f0e; opacity: 0.5"/>
   </g>
   <g id="patch_36">
    <path d="M 358.052409 246.04 
L 362.517902 246.04 
L 362.517902 180.053123 
L 358.052409 180.053123 
z
" clip-path="url(#pdeea3f2b3f)" style="fill: #ff7f0e; opacity: 0.5"/>
   </g>
   <g id="patch_37">
    <path d="M 362.517902 246.04 
L 366.983397 246.04 
L 366.983397 141.506372 
L 362.517902 141.506372 
z
" clip-path="url(#pdeea3f2b3f)" style="fill: #ff7f0e; opacity: 0.5"/>
   </g>
   <g id="patch_38">
    <path d="M 366.983397 246.04 
L 371.448892 246.04 
L 371.448892 105.572938 
L 366.983397 105.572938 
z
" clip-path="url(#pdeea3f2b3f)" style="fill: #ff7f0e; opacity: 0.5"/>
   </g>
   <g id="patch_39">
    <path d="M 371.448892 246.04 
L 375.914386 246.04 
L 375.914386 82.706207 
L 371.448892 82.706207 
z
" clip-path="url(#pdeea3f2b3f)" style="fill: #ff7f0e; opacity: 0.5"/>
   </g>
   <g id="patch_40">
    <path d="M 375.914386 246.04 
L 380.379878 246.04 
L 380.379878 44.812619 
L 375.914386 44.812619 
z
" clip-path="url(#pdeea3f2b3f)" style="fill: #ff7f0e; opacity: 0.5"/>
   </g>
   <g id="patch_41">
    <path d="M 380.379878 246.04 
L 384.845373 246.04 
L 384.845373 51.346119 
L 380.379878 51.346119 
z
" clip-path="url(#pdeea3f2b3f)" style="fill: #ff7f0e; opacity: 0.5"/>
   </g>
   <g id="patch_42">
    <path d="M 384.845373 246.04 
L 389.310868 246.04 
L 389.310868 85.319548 
L 384.845373 85.319548 
z
" clip-path="url(#pdeea3f2b3f)" style="fill: #ff7f0e; opacity: 0.5"/>
   </g>
   <g id="patch_43">
    <path d="M 389.310868 246.04 
L 393.776366 246.04 
L 393.776366 125.826417 
L 389.310868 125.826417 
z
" clip-path="url(#pdeea3f2b3f)" style="fill: #ff7f0e; opacity: 0.5"/>
   </g>
   <g id="patch_44">
    <path d="M 393.776366 246.04 
L 398.241857 246.04 
L 398.241857 135.626275 
L 393.776366 135.626275 
z
" clip-path="url(#pdeea3f2b3f)" style="fill: #ff7f0e; opacity: 0.5"/>
   </g>
   <g id="patch_45">
    <path d="M 398.241857 246.04 
L 402.707349 246.04 
L 402.707349 149.346323 
L 398.241857 149.346323 
z
" clip-path="url(#pdeea3f2b3f)" style="fill: #ff7f0e; opacity: 0.5"/>
   </g>
   <g id="patch_46">
    <path d="M 402.707349 246.04 
L 407.17284 246.04 
L 407.17284 192.466476 
L 402.707349 192.466476 
z
" clip-path="url(#pdeea3f2b3f)" style="fill: #ff7f0e; opacity: 0.5"/>
   </g>
   <g id="patch_47">
    <path d="M 407.17284 246.04 
L 411.638332 246.04 
L 411.638332 191.159805 
L 407.17284 191.159805 
z
" clip-path="url(#pdeea3f2b3f)" style="fill: #ff7f0e; opacity: 0.5"/>
   </g>
   <g id="patch_48">
    <path d="M 411.638332 246.04 
L 416.103837 246.04 
L 416.103837 208.799977 
L 411.638332 208.799977 
z
" clip-path="url(#pdeea3f2b3f)" style="fill: #ff7f0e; opacity: 0.5"/>
   </g>
   <g id="patch_49">
    <path d="M 416.103837 246.04 
L 420.569328 246.04 
L 420.569328 212.066546 
L 416.103837 212.066546 
z
" clip-path="url(#pdeea3f2b3f)" style="fill: #ff7f0e; opacity: 0.5"/>
   </g>
   <g id="patch_50">
    <path d="M 420.569328 246.04 
L 425.03482 246.04 
L 425.03482 227.093266 
L 420.569328 227.093266 
z
" clip-path="url(#pdeea3f2b3f)" style="fill: #ff7f0e; opacity: 0.5"/>
   </g>
   <g id="patch_51">
    <path d="M 425.03482 246.04 
L 429.500311 246.04 
L 429.500311 234.933294 
L 425.03482 234.933294 
z
" clip-path="url(#pdeea3f2b3f)" style="fill: #ff7f0e; opacity: 0.5"/>
   </g>
   <g id="patch_52">
    <path d="M 429.500311 246.04 
L 433.965803 246.04 
L 433.965803 236.239965 
L 429.500311 236.239965 
z
" clip-path="url(#pdeea3f2b3f)" style="fill: #ff7f0e; opacity: 0.5"/>
   </g>
   <g id="patch_53">
    <path d="M 433.965803 246.04 
L 438.431307 246.04 
L 438.431307 241.466664 
L 433.965803 241.466664 
z
" clip-path="url(#pdeea3f2b3f)" style="fill: #ff7f0e; opacity: 0.5"/>
   </g>
   <g id="patch_54">
    <path d="M 438.431307 246.04 
L 442.896799 246.04 
L 442.896799 241.46665 
L 438.431307 241.46665 
z
" clip-path="url(#pdeea3f2b3f)" style="fill: #ff7f0e; opacity: 0.5"/>
   </g>
   <g id="patch_55">
    <path d="M 442.896799 246.04 
L 447.36229 246.04 
L 447.36229 243.426657 
L 442.896799 243.426657 
z
" clip-path="url(#pdeea3f2b3f)" style="fill: #ff7f0e; opacity: 0.5"/>
   </g>
   <g id="patch_56">
    <path d="M 447.36229 246.04 
L 451.827782 246.04 
L 451.827782 244.733329 
L 447.36229 244.733329 
z
" clip-path="url(#pdeea3f2b3f)" style="fill: #ff7f0e; opacity: 0.5"/>
   </g>
   <g id="patch_57">
    <path d="M 451.827782 246.04 
L 456.293273 246.04 
L 456.293273 246.04 
L 451.827782 246.04 
z
" clip-path="url(#pdeea3f2b3f)" style="fill: #ff7f0e; opacity: 0.5"/>
   </g>
   <g id="patch_58">
    <path d="M 456.293273 246.04 
L 460.758778 246.04 
L 460.758778 244.733333 
L 456.293273 244.733333 
z
" clip-path="url(#pdeea3f2b3f)" style="fill: #ff7f0e; opacity: 0.5"/>
   </g>
   <g id="matplotlib.axis_3">
    <g id="xtick_7">
     <g id="line2d_18">
      <g>
       <use xlink:href="#mb1675993ce" x="338.364703" y="246.04" style="stroke: #000000; stroke-width: 0.8"/>
      </g>
     </g>
     <g id="text_18">
      <!-- 0 -->
      <g transform="translate(335.183453 260.638438) scale(0.1 -0.1)">
       <use xlink:href="#DejaVuSans-30"/>
      </g>
     </g>
    </g>
    <g id="xtick_8">
     <g id="line2d_19">
      <g>
       <use xlink:href="#mb1675993ce" x="372.778985" y="246.04" style="stroke: #000000; stroke-width: 0.8"/>
      </g>
     </g>
     <g id="text_19">
      <!-- 5 -->
      <g transform="translate(369.597735 260.638438) scale(0.1 -0.1)">
       <use xlink:href="#DejaVuSans-35"/>
      </g>
     </g>
    </g>
    <g id="xtick_9">
     <g id="line2d_20">
      <g>
       <use xlink:href="#mb1675993ce" x="407.193268" y="246.04" style="stroke: #000000; stroke-width: 0.8"/>
      </g>
     </g>
     <g id="text_20">
      <!-- 10 -->
      <g transform="translate(400.830768 260.638438) scale(0.1 -0.1)">
       <use xlink:href="#DejaVuSans-31"/>
       <use xlink:href="#DejaVuSans-30" transform="translate(63.623047 0)"/>
      </g>
     </g>
    </g>
    <g id="xtick_10">
     <g id="line2d_21">
      <g>
       <use xlink:href="#mb1675993ce" x="441.60755" y="246.04" style="stroke: #000000; stroke-width: 0.8"/>
      </g>
     </g>
     <g id="text_21">
      <!-- 15 -->
      <g transform="translate(435.24505 260.638438) scale(0.1 -0.1)">
       <use xlink:href="#DejaVuSans-31"/>
       <use xlink:href="#DejaVuSans-35" transform="translate(63.623047 0)"/>
      </g>
     </g>
    </g>
    <g id="xtick_11">
     <g id="line2d_22">
      <g>
       <use xlink:href="#mb1675993ce" x="476.021832" y="246.04" style="stroke: #000000; stroke-width: 0.8"/>
      </g>
     </g>
     <g id="text_22">
      <!-- 20 -->
      <g transform="translate(469.659332 260.638438) scale(0.1 -0.1)">
       <use xlink:href="#DejaVuSans-32"/>
       <use xlink:href="#DejaVuSans-30" transform="translate(63.623047 0)"/>
      </g>
     </g>
    </g>
    <g id="xtick_12">
     <g id="line2d_23">
      <g>
       <use xlink:href="#mb1675993ce" x="510.436114" y="246.04" style="stroke: #000000; stroke-width: 0.8"/>
      </g>
     </g>
     <g id="text_23">
      <!-- 25 -->
      <g transform="translate(504.073614 260.638438) scale(0.1 -0.1)">
       <use xlink:href="#DejaVuSans-32"/>
       <use xlink:href="#DejaVuSans-35" transform="translate(63.623047 0)"/>
      </g>
     </g>
    </g>
    <g id="xtick_13">
     <g id="line2d_24">
      <g>
       <use xlink:href="#mb1675993ce" x="544.850397" y="246.04" style="stroke: #000000; stroke-width: 0.8"/>
      </g>
     </g>
     <g id="text_24">
      <!-- 30 -->
      <g transform="translate(538.487897 260.638438) scale(0.1 -0.1)">
       <use xlink:href="#DejaVuSans-33"/>
       <use xlink:href="#DejaVuSans-30" transform="translate(63.623047 0)"/>
      </g>
     </g>
    </g>
    <g id="text_25">
     <!-- Scores -->
     <g transform="translate(435.163046 274.316562) scale(0.1 -0.1)">
      <use xlink:href="#DejaVuSans-53"/>
      <use xlink:href="#DejaVuSans-63" transform="translate(63.476562 0)"/>
      <use xlink:href="#DejaVuSans-6f" transform="translate(118.457031 0)"/>
      <use xlink:href="#DejaVuSans-72" transform="translate(179.638672 0)"/>
      <use xlink:href="#DejaVuSans-65" transform="translate(218.501953 0)"/>
      <use xlink:href="#DejaVuSans-73" transform="translate(280.025391 0)"/>
     </g>
    </g>
   </g>
   <g id="matplotlib.axis_4">
    <g id="ytick_8">
     <g id="line2d_25">
      <g>
       <use xlink:href="#m88c68be531" x="338.340154" y="246.04" style="stroke: #000000; stroke-width: 0.8"/>
      </g>
     </g>
     <g id="text_26">
      <!-- 0.000 -->
      <g transform="translate(302.712029 249.839219) scale(0.1 -0.1)">
       <defs>
        <path id="DejaVuSans-2e" d="M 684 794 
L 1344 794 
L 1344 0 
L 684 0 
L 684 794 
z
" transform="scale(0.015625)"/>
       </defs>
       <use xlink:href="#DejaVuSans-30"/>
       <use xlink:href="#DejaVuSans-2e" transform="translate(63.623047 0)"/>
       <use xlink:href="#DejaVuSans-30" transform="translate(95.410156 0)"/>
       <use xlink:href="#DejaVuSans-30" transform="translate(159.033203 0)"/>
       <use xlink:href="#DejaVuSans-30" transform="translate(222.65625 0)"/>
      </g>
     </g>
    </g>
    <g id="ytick_9">
     <g id="line2d_26">
      <g>
       <use xlink:href="#m88c68be531" x="338.340154" y="219.547867" style="stroke: #000000; stroke-width: 0.8"/>
      </g>
     </g>
     <g id="text_27">
      <!-- 0.025 -->
      <g transform="translate(302.712029 223.347085) scale(0.1 -0.1)">
       <use xlink:href="#DejaVuSans-30"/>
       <use xlink:href="#DejaVuSans-2e" transform="translate(63.623047 0)"/>
       <use xlink:href="#DejaVuSans-30" transform="translate(95.410156 0)"/>
       <use xlink:href="#DejaVuSans-32" transform="translate(159.033203 0)"/>
       <use xlink:href="#DejaVuSans-35" transform="translate(222.65625 0)"/>
      </g>
     </g>
    </g>
    <g id="ytick_10">
     <g id="line2d_27">
      <g>
       <use xlink:href="#m88c68be531" x="338.340154" y="193.055733" style="stroke: #000000; stroke-width: 0.8"/>
      </g>
     </g>
     <g id="text_28">
      <!-- 0.050 -->
      <g transform="translate(302.712029 196.854952) scale(0.1 -0.1)">
       <use xlink:href="#DejaVuSans-30"/>
       <use xlink:href="#DejaVuSans-2e" transform="translate(63.623047 0)"/>
       <use xlink:href="#DejaVuSans-30" transform="translate(95.410156 0)"/>
       <use xlink:href="#DejaVuSans-35" transform="translate(159.033203 0)"/>
       <use xlink:href="#DejaVuSans-30" transform="translate(222.65625 0)"/>
      </g>
     </g>
    </g>
    <g id="ytick_11">
     <g id="line2d_28">
      <g>
       <use xlink:href="#m88c68be531" x="338.340154" y="166.5636" style="stroke: #000000; stroke-width: 0.8"/>
      </g>
     </g>
     <g id="text_29">
      <!-- 0.075 -->
      <g transform="translate(302.712029 170.362819) scale(0.1 -0.1)">
       <defs>
        <path id="DejaVuSans-37" d="M 525 4666 
L 3525 4666 
L 3525 4397 
L 1831 0 
L 1172 0 
L 2766 4134 
L 525 4134 
L 525 4666 
z
" transform="scale(0.015625)"/>
       </defs>
       <use xlink:href="#DejaVuSans-30"/>
       <use xlink:href="#DejaVuSans-2e" transform="translate(63.623047 0)"/>
       <use xlink:href="#DejaVuSans-30" transform="translate(95.410156 0)"/>
       <use xlink:href="#DejaVuSans-37" transform="translate(159.033203 0)"/>
       <use xlink:href="#DejaVuSans-35" transform="translate(222.65625 0)"/>
      </g>
     </g>
    </g>
    <g id="ytick_12">
     <g id="line2d_29">
      <g>
       <use xlink:href="#m88c68be531" x="338.340154" y="140.071466" style="stroke: #000000; stroke-width: 0.8"/>
      </g>
     </g>
     <g id="text_30">
      <!-- 0.100 -->
      <g transform="translate(302.712029 143.870685) scale(0.1 -0.1)">
       <use xlink:href="#DejaVuSans-30"/>
       <use xlink:href="#DejaVuSans-2e" transform="translate(63.623047 0)"/>
       <use xlink:href="#DejaVuSans-31" transform="translate(95.410156 0)"/>
       <use xlink:href="#DejaVuSans-30" transform="translate(159.033203 0)"/>
       <use xlink:href="#DejaVuSans-30" transform="translate(222.65625 0)"/>
      </g>
     </g>
    </g>
    <g id="ytick_13">
     <g id="line2d_30">
      <g>
       <use xlink:href="#m88c68be531" x="338.340154" y="113.579333" style="stroke: #000000; stroke-width: 0.8"/>
      </g>
     </g>
     <g id="text_31">
      <!-- 0.125 -->
      <g transform="translate(302.712029 117.378552) scale(0.1 -0.1)">
       <use xlink:href="#DejaVuSans-30"/>
       <use xlink:href="#DejaVuSans-2e" transform="translate(63.623047 0)"/>
       <use xlink:href="#DejaVuSans-31" transform="translate(95.410156 0)"/>
       <use xlink:href="#DejaVuSans-32" transform="translate(159.033203 0)"/>
       <use xlink:href="#DejaVuSans-35" transform="translate(222.65625 0)"/>
      </g>
     </g>
    </g>
    <g id="ytick_14">
     <g id="line2d_31">
      <g>
       <use xlink:href="#m88c68be531" x="338.340154" y="87.0872" style="stroke: #000000; stroke-width: 0.8"/>
      </g>
     </g>
     <g id="text_32">
      <!-- 0.150 -->
      <g transform="translate(302.712029 90.886418) scale(0.1 -0.1)">
       <use xlink:href="#DejaVuSans-30"/>
       <use xlink:href="#DejaVuSans-2e" transform="translate(63.623047 0)"/>
       <use xlink:href="#DejaVuSans-31" transform="translate(95.410156 0)"/>
       <use xlink:href="#DejaVuSans-35" transform="translate(159.033203 0)"/>
       <use xlink:href="#DejaVuSans-30" transform="translate(222.65625 0)"/>
      </g>
     </g>
    </g>
    <g id="ytick_15">
     <g id="line2d_32">
      <g>
       <use xlink:href="#m88c68be531" x="338.340154" y="60.595066" style="stroke: #000000; stroke-width: 0.8"/>
      </g>
     </g>
     <g id="text_33">
      <!-- 0.175 -->
      <g transform="translate(302.712029 64.394285) scale(0.1 -0.1)">
       <use xlink:href="#DejaVuSans-30"/>
       <use xlink:href="#DejaVuSans-2e" transform="translate(63.623047 0)"/>
       <use xlink:href="#DejaVuSans-31" transform="translate(95.410156 0)"/>
       <use xlink:href="#DejaVuSans-37" transform="translate(159.033203 0)"/>
       <use xlink:href="#DejaVuSans-35" transform="translate(222.65625 0)"/>
      </g>
     </g>
    </g>
    <g id="text_34">
     <!-- Density -->
     <g transform="translate(296.632341 159.404219) rotate(-90) scale(0.1 -0.1)">
      <defs>
       <path id="DejaVuSans-6e" d="M 3513 2113 
L 3513 0 
L 2938 0 
L 2938 2094 
Q 2938 2591 2744 2837 
Q 2550 3084 2163 3084 
Q 1697 3084 1428 2787 
Q 1159 2491 1159 1978 
L 1159 0 
L 581 0 
L 581 3500 
L 1159 3500 
L 1159 2956 
Q 1366 3272 1645 3428 
Q 1925 3584 2291 3584 
Q 2894 3584 3203 3211 
Q 3513 2838 3513 2113 
z
" transform="scale(0.015625)"/>
       <path id="DejaVuSans-69" d="M 603 3500 
L 1178 3500 
L 1178 0 
L 603 0 
L 603 3500 
z
M 603 4863 
L 1178 4863 
L 1178 4134 
L 603 4134 
L 603 4863 
z
" transform="scale(0.015625)"/>
       <path id="DejaVuSans-74" d="M 1172 4494 
L 1172 3500 
L 2356 3500 
L 2356 3053 
L 1172 3053 
L 1172 1153 
Q 1172 725 1289 603 
Q 1406 481 1766 481 
L 2356 481 
L 2356 0 
L 1766 0 
Q 1100 0 847 248 
Q 594 497 594 1153 
L 594 3053 
L 172 3053 
L 172 3500 
L 594 3500 
L 594 4494 
L 1172 4494 
z
" transform="scale(0.015625)"/>
       <path id="DejaVuSans-79" d="M 2059 -325 
Q 1816 -950 1584 -1140 
Q 1353 -1331 966 -1331 
L 506 -1331 
L 506 -850 
L 844 -850 
Q 1081 -850 1212 -737 
Q 1344 -625 1503 -206 
L 1606 56 
L 191 3500 
L 800 3500 
L 1894 763 
L 2988 3500 
L 3597 3500 
L 2059 -325 
z
" transform="scale(0.015625)"/>
      </defs>
      <use xlink:href="#DejaVuSans-44"/>
      <use xlink:href="#DejaVuSans-65" transform="translate(77.001953 0)"/>
      <use xlink:href="#DejaVuSans-6e" transform="translate(138.525391 0)"/>
      <use xlink:href="#DejaVuSans-73" transform="translate(201.904297 0)"/>
      <use xlink:href="#DejaVuSans-69" transform="translate(254.003906 0)"/>
      <use xlink:href="#DejaVuSans-74" transform="translate(281.787109 0)"/>
      <use xlink:href="#DejaVuSans-79" transform="translate(320.996094 0)"/>
     </g>
    </g>
   </g>
   <g id="patch_59">
    <path d="M 338.340154 246.04 
L 338.340154 34.75125 
" style="fill: none; stroke: #000000; stroke-width: 0.8; stroke-linejoin: miter; stroke-linecap: square"/>
   </g>
   <g id="patch_60">
    <path d="M 565.2 246.04 
L 565.2 34.75125 
" style="fill: none; stroke: #000000; stroke-width: 0.8; stroke-linejoin: miter; stroke-linecap: square"/>
   </g>
   <g id="patch_61">
    <path d="M 338.340154 246.04 
L 565.2 246.04 
" style="fill: none; stroke: #000000; stroke-width: 0.8; stroke-linejoin: miter; stroke-linecap: square"/>
   </g>
   <g id="patch_62">
    <path d="M 338.340154 34.75125 
L 565.2 34.75125 
" style="fill: none; stroke: #000000; stroke-width: 0.8; stroke-linejoin: miter; stroke-linecap: square"/>
   </g>
   <g id="legend_2">
    <g id="patch_63">
     <path d="M 458.010937 72.1075 
L 558.2 72.1075 
Q 560.2 72.1075 560.2 70.1075 
L 560.2 41.75125 
Q 560.2 39.75125 558.2 39.75125 
L 458.010937 39.75125 
Q 456.010937 39.75125 456.010937 41.75125 
L 456.010937 70.1075 
Q 456.010937 72.1075 458.010937 72.1075 
z
" style="fill: #ffffff; opacity: 0.8; stroke: #cccccc; stroke-linejoin: miter"/>
    </g>
    <g id="patch_64">
     <path d="M 460.010937 51.349687 
L 480.010937 51.349687 
L 480.010937 44.349687 
L 460.010937 44.349687 
z
" style="fill: #1f77b4; opacity: 0.5"/>
    </g>
    <g id="text_35">
     <!-- ID samples -->
     <g transform="translate(488.010937 51.349687) scale(0.1 -0.1)">
      <use xlink:href="#DejaVuSans-49"/>
      <use xlink:href="#DejaVuSans-44" transform="translate(29.492188 0)"/>
      <use xlink:href="#DejaVuSans-20" transform="translate(106.494141 0)"/>
      <use xlink:href="#DejaVuSans-73" transform="translate(138.28125 0)"/>
      <use xlink:href="#DejaVuSans-61" transform="translate(190.380859 0)"/>
      <use xlink:href="#DejaVuSans-6d" transform="translate(251.660156 0)"/>
      <use xlink:href="#DejaVuSans-70" transform="translate(349.072266 0)"/>
      <use xlink:href="#DejaVuSans-6c" transform="translate(412.548828 0)"/>
      <use xlink:href="#DejaVuSans-65" transform="translate(440.332031 0)"/>
      <use xlink:href="#DejaVuSans-73" transform="translate(501.855469 0)"/>
     </g>
    </g>
    <g id="patch_65">
     <path d="M 460.010937 66.027812 
L 480.010937 66.027812 
L 480.010937 59.027812 
L 460.010937 59.027812 
z
" style="fill: #ff7f0e; opacity: 0.5"/>
    </g>
    <g id="text_36">
     <!-- OOD samples -->
     <g transform="translate(488.010937 66.027812) scale(0.1 -0.1)">
      <use xlink:href="#DejaVuSans-4f"/>
      <use xlink:href="#DejaVuSans-4f" transform="translate(78.710938 0)"/>
      <use xlink:href="#DejaVuSans-44" transform="translate(157.421875 0)"/>
      <use xlink:href="#DejaVuSans-20" transform="translate(234.423828 0)"/>
      <use xlink:href="#DejaVuSans-73" transform="translate(266.210938 0)"/>
      <use xlink:href="#DejaVuSans-61" transform="translate(318.310547 0)"/>
      <use xlink:href="#DejaVuSans-6d" transform="translate(379.589844 0)"/>
      <use xlink:href="#DejaVuSans-70" transform="translate(477.001953 0)"/>
      <use xlink:href="#DejaVuSans-6c" transform="translate(540.478516 0)"/>
      <use xlink:href="#DejaVuSans-65" transform="translate(568.261719 0)"/>
      <use xlink:href="#DejaVuSans-73" transform="translate(629.785156 0)"/>
     </g>
    </g>
   </g>
  </g>
  <g id="text_37">
   <!-- Scores using max_logit - RLargeCNNskip -->
   <g transform="translate(166.539375 14.878125) scale(0.12 -0.12)">
    <defs>
     <path id="DejaVuSans-75" d="M 544 1381 
L 544 3500 
L 1119 3500 
L 1119 1403 
Q 1119 906 1312 657 
Q 1506 409 1894 409 
Q 2359 409 2629 706 
Q 2900 1003 2900 1516 
L 2900 3500 
L 3475 3500 
L 3475 0 
L 2900 0 
L 2900 538 
Q 2691 219 2414 64 
Q 2138 -91 1772 -91 
Q 1169 -91 856 284 
Q 544 659 544 1381 
z
M 1991 3584 
L 1991 3584 
z
" transform="scale(0.015625)"/>
     <path id="DejaVuSans-67" d="M 2906 1791 
Q 2906 2416 2648 2759 
Q 2391 3103 1925 3103 
Q 1463 3103 1205 2759 
Q 947 2416 947 1791 
Q 947 1169 1205 825 
Q 1463 481 1925 481 
Q 2391 481 2648 825 
Q 2906 1169 2906 1791 
z
M 3481 434 
Q 3481 -459 3084 -895 
Q 2688 -1331 1869 -1331 
Q 1566 -1331 1297 -1286 
Q 1028 -1241 775 -1147 
L 775 -588 
Q 1028 -725 1275 -790 
Q 1522 -856 1778 -856 
Q 2344 -856 2625 -561 
Q 2906 -266 2906 331 
L 2906 616 
Q 2728 306 2450 153 
Q 2172 0 1784 0 
Q 1141 0 747 490 
Q 353 981 353 1791 
Q 353 2603 747 3093 
Q 1141 3584 1784 3584 
Q 2172 3584 2450 3431 
Q 2728 3278 2906 2969 
L 2906 3500 
L 3481 3500 
L 3481 434 
z
" transform="scale(0.015625)"/>
     <path id="DejaVuSans-78" d="M 3513 3500 
L 2247 1797 
L 3578 0 
L 2900 0 
L 1881 1375 
L 863 0 
L 184 0 
L 1544 1831 
L 300 3500 
L 978 3500 
L 1906 2253 
L 2834 3500 
L 3513 3500 
z
" transform="scale(0.015625)"/>
     <path id="DejaVuSans-5f" d="M 3263 -1063 
L 3263 -1509 
L -63 -1509 
L -63 -1063 
L 3263 -1063 
z
" transform="scale(0.015625)"/>
     <path id="DejaVuSans-2d" d="M 313 2009 
L 1997 2009 
L 1997 1497 
L 313 1497 
L 313 2009 
z
" transform="scale(0.015625)"/>
     <path id="DejaVuSans-52" d="M 2841 2188 
Q 3044 2119 3236 1894 
Q 3428 1669 3622 1275 
L 4263 0 
L 3584 0 
L 2988 1197 
Q 2756 1666 2539 1819 
Q 2322 1972 1947 1972 
L 1259 1972 
L 1259 0 
L 628 0 
L 628 4666 
L 2053 4666 
Q 2853 4666 3247 4331 
Q 3641 3997 3641 3322 
Q 3641 2881 3436 2590 
Q 3231 2300 2841 2188 
z
M 1259 4147 
L 1259 2491 
L 2053 2491 
Q 2509 2491 2742 2702 
Q 2975 2913 2975 3322 
Q 2975 3731 2742 3939 
Q 2509 4147 2053 4147 
L 1259 4147 
z
" transform="scale(0.015625)"/>
     <path id="DejaVuSans-4c" d="M 628 4666 
L 1259 4666 
L 1259 531 
L 3531 531 
L 3531 0 
L 628 0 
L 628 4666 
z
" transform="scale(0.015625)"/>
     <path id="DejaVuSans-43" d="M 4122 4306 
L 4122 3641 
Q 3803 3938 3442 4084 
Q 3081 4231 2675 4231 
Q 1875 4231 1450 3742 
Q 1025 3253 1025 2328 
Q 1025 1406 1450 917 
Q 1875 428 2675 428 
Q 3081 428 3442 575 
Q 3803 722 4122 1019 
L 4122 359 
Q 3791 134 3420 21 
Q 3050 -91 2638 -91 
Q 1578 -91 968 557 
Q 359 1206 359 2328 
Q 359 3453 968 4101 
Q 1578 4750 2638 4750 
Q 3056 4750 3426 4639 
Q 3797 4528 4122 4306 
z
" transform="scale(0.015625)"/>
     <path id="DejaVuSans-4e" d="M 628 4666 
L 1478 4666 
L 3547 763 
L 3547 4666 
L 4159 4666 
L 4159 0 
L 3309 0 
L 1241 3903 
L 1241 0 
L 628 0 
L 628 4666 
z
" transform="scale(0.015625)"/>
     <path id="DejaVuSans-6b" d="M 581 4863 
L 1159 4863 
L 1159 1991 
L 2875 3500 
L 3609 3500 
L 1753 1863 
L 3688 0 
L 2938 0 
L 1159 1709 
L 1159 0 
L 581 0 
L 581 4863 
z
" transform="scale(0.015625)"/>
    </defs>
    <use xlink:href="#DejaVuSans-53"/>
    <use xlink:href="#DejaVuSans-63" transform="translate(63.476562 0)"/>
    <use xlink:href="#DejaVuSans-6f" transform="translate(118.457031 0)"/>
    <use xlink:href="#DejaVuSans-72" transform="translate(179.638672 0)"/>
    <use xlink:href="#DejaVuSans-65" transform="translate(218.501953 0)"/>
    <use xlink:href="#DejaVuSans-73" transform="translate(280.025391 0)"/>
    <use xlink:href="#DejaVuSans-20" transform="translate(332.125 0)"/>
    <use xlink:href="#DejaVuSans-75" transform="translate(363.912109 0)"/>
    <use xlink:href="#DejaVuSans-73" transform="translate(427.291016 0)"/>
    <use xlink:href="#DejaVuSans-69" transform="translate(479.390625 0)"/>
    <use xlink:href="#DejaVuSans-6e" transform="translate(507.173828 0)"/>
    <use xlink:href="#DejaVuSans-67" transform="translate(570.552734 0)"/>
    <use xlink:href="#DejaVuSans-20" transform="translate(634.029297 0)"/>
    <use xlink:href="#DejaVuSans-6d" transform="translate(665.816406 0)"/>
    <use xlink:href="#DejaVuSans-61" transform="translate(763.228516 0)"/>
    <use xlink:href="#DejaVuSans-78" transform="translate(824.507812 0)"/>
    <use xlink:href="#DejaVuSans-5f" transform="translate(883.6875 0)"/>
    <use xlink:href="#DejaVuSans-6c" transform="translate(933.6875 0)"/>
    <use xlink:href="#DejaVuSans-6f" transform="translate(961.470703 0)"/>
    <use xlink:href="#DejaVuSans-67" transform="translate(1022.652344 0)"/>
    <use xlink:href="#DejaVuSans-69" transform="translate(1086.128906 0)"/>
    <use xlink:href="#DejaVuSans-74" transform="translate(1113.912109 0)"/>
    <use xlink:href="#DejaVuSans-20" transform="translate(1153.121094 0)"/>
    <use xlink:href="#DejaVuSans-2d" transform="translate(1184.908203 0)"/>
    <use xlink:href="#DejaVuSans-20" transform="translate(1220.992188 0)"/>
    <use xlink:href="#DejaVuSans-52" transform="translate(1252.779297 0)"/>
    <use xlink:href="#DejaVuSans-4c" transform="translate(1322.261719 0)"/>
    <use xlink:href="#DejaVuSans-61" transform="translate(1377.974609 0)"/>
    <use xlink:href="#DejaVuSans-72" transform="translate(1439.253906 0)"/>
    <use xlink:href="#DejaVuSans-67" transform="translate(1478.617188 0)"/>
    <use xlink:href="#DejaVuSans-65" transform="translate(1542.09375 0)"/>
    <use xlink:href="#DejaVuSans-43" transform="translate(1603.617188 0)"/>
    <use xlink:href="#DejaVuSans-4e" transform="translate(1673.441406 0)"/>
    <use xlink:href="#DejaVuSans-4e" transform="translate(1748.246094 0)"/>
    <use xlink:href="#DejaVuSans-73" transform="translate(1823.050781 0)"/>
    <use xlink:href="#DejaVuSans-6b" transform="translate(1875.150391 0)"/>
    <use xlink:href="#DejaVuSans-69" transform="translate(1933.060547 0)"/>
    <use xlink:href="#DejaVuSans-70" transform="translate(1960.84375 0)"/>
   </g>
  </g>
 </g>
 <defs>
  <clipPath id="p4cec6510e7">
   <rect x="44.57" y="34.75125" width="226.859846" height="211.28875"/>
  </clipPath>
  <clipPath id="pdeea3f2b3f">
   <rect x="338.340154" y="34.75125" width="226.859846" height="211.28875"/>
  </clipPath>
 </defs>
</svg>
