<?xml version="1.0" encoding="utf-8" standalone="no"?>
<!DOCTYPE svg PUBLIC "-//W3C//DTD SVG 1.1//EN"
  "http://www.w3.org/Graphics/SVG/1.1/DTD/svg11.dtd">
<svg xmlns:xlink="http://www.w3.org/1999/xlink" width="576pt" height="288pt" viewBox="0 0 576 288" xmlns="http://www.w3.org/2000/svg" version="1.1">
 <metadata>
  <rdf:RDF xmlns:dc="http://purl.org/dc/elements/1.1/" xmlns:cc="http://creativecommons.org/ns#" xmlns:rdf="http://www.w3.org/1999/02/22-rdf-syntax-ns#">
   <cc:Work>
    <dc:type rdf:resource="http://purl.org/dc/dcmitype/StillImage"/>
    <dc:date>2025-05-30T23:34:33.404936</dc:date>
    <dc:format>image/svg+xml</dc:format>
    <dc:creator>
     <cc:Agent>
      <dc:title>Matplotlib v3.10.1, https://matplotlib.org/</dc:title>
     </cc:Agent>
    </dc:creator>
   </cc:Work>
  </rdf:RDF>
 </metadata>
 <defs>
  <style type="text/css">*{stroke-linejoin: round; stroke-linecap: butt}</style>
 </defs>
 <g id="figure_1">
  <g id="patch_1">
   <path d="M 0 288 
L 576 288 
L 576 0 
L 0 0 
z
" style="fill: #ffffff"/>
  </g>
  <g id="axes_1">
   <g id="patch_2">
    <path d="M 47.72 246.04 
L 280.834846 246.04 
L 280.834846 34.75125 
L 47.72 34.75125 
z
" style="fill: #ffffff"/>
   </g>
   <g id="matplotlib.axis_1">
    <g id="xtick_1">
     <g id="line2d_1">
      <defs>
       <path id="m521ef6c253" d="M 0 0 
L 0 3.5 
" style="stroke: #000000; stroke-width: 0.8"/>
      </defs>
      <g>
       <use xlink:href="#m521ef6c253" x="58.316129" y="246.04" style="stroke: #000000; stroke-width: 0.8"/>
      </g>
     </g>
     <g id="text_1">
      <!-- 0 -->
      <g transform="translate(55.134879 260.638438) scale(0.1 -0.1)">
       <defs>
        <path id="DejaVuSans-30" d="M 2034 4250 
Q 1547 4250 1301 3770 
Q 1056 3291 1056 2328 
Q 1056 1369 1301 889 
Q 1547 409 2034 409 
Q 2525 409 2770 889 
Q 3016 1369 3016 2328 
Q 3016 3291 2770 3770 
Q 2525 4250 2034 4250 
z
M 2034 4750 
Q 2819 4750 3233 4129 
Q 3647 3509 3647 2328 
Q 3647 1150 3233 529 
Q 2819 -91 2034 -91 
Q 1250 -91 836 529 
Q 422 1150 422 2328 
Q 422 3509 836 4129 
Q 1250 4750 2034 4750 
z
" transform="scale(0.015625)"/>
       </defs>
       <use xlink:href="#DejaVuSans-30"/>
      </g>
     </g>
    </g>
    <g id="xtick_2">
     <g id="line2d_2">
      <g>
       <use xlink:href="#m521ef6c253" x="100.704886" y="246.04" style="stroke: #000000; stroke-width: 0.8"/>
      </g>
     </g>
     <g id="text_2">
      <!-- 2000 -->
      <g transform="translate(87.979886 260.638438) scale(0.1 -0.1)">
       <defs>
        <path id="DejaVuSans-32" d="M 1228 531 
L 3431 531 
L 3431 0 
L 469 0 
L 469 531 
Q 828 903 1448 1529 
Q 2069 2156 2228 2338 
Q 2531 2678 2651 2914 
Q 2772 3150 2772 3378 
Q 2772 3750 2511 3984 
Q 2250 4219 1831 4219 
Q 1534 4219 1204 4116 
Q 875 4013 500 3803 
L 500 4441 
Q 881 4594 1212 4672 
Q 1544 4750 1819 4750 
Q 2544 4750 2975 4387 
Q 3406 4025 3406 3419 
Q 3406 3131 3298 2873 
Q 3191 2616 2906 2266 
Q 2828 2175 2409 1742 
Q 1991 1309 1228 531 
z
" transform="scale(0.015625)"/>
       </defs>
       <use xlink:href="#DejaVuSans-32"/>
       <use xlink:href="#DejaVuSans-30" transform="translate(63.623047 0)"/>
       <use xlink:href="#DejaVuSans-30" transform="translate(127.246094 0)"/>
       <use xlink:href="#DejaVuSans-30" transform="translate(190.869141 0)"/>
      </g>
     </g>
    </g>
    <g id="xtick_3">
     <g id="line2d_3">
      <g>
       <use xlink:href="#m521ef6c253" x="143.093642" y="246.04" style="stroke: #000000; stroke-width: 0.8"/>
      </g>
     </g>
     <g id="text_3">
      <!-- 4000 -->
      <g transform="translate(130.368642 260.638438) scale(0.1 -0.1)">
       <defs>
        <path id="DejaVuSans-34" d="M 2419 4116 
L 825 1625 
L 2419 1625 
L 2419 4116 
z
M 2253 4666 
L 3047 4666 
L 3047 1625 
L 3713 1625 
L 3713 1100 
L 3047 1100 
L 3047 0 
L 2419 0 
L 2419 1100 
L 313 1100 
L 313 1709 
L 2253 4666 
z
" transform="scale(0.015625)"/>
       </defs>
       <use xlink:href="#DejaVuSans-34"/>
       <use xlink:href="#DejaVuSans-30" transform="translate(63.623047 0)"/>
       <use xlink:href="#DejaVuSans-30" transform="translate(127.246094 0)"/>
       <use xlink:href="#DejaVuSans-30" transform="translate(190.869141 0)"/>
      </g>
     </g>
    </g>
    <g id="xtick_4">
     <g id="line2d_4">
      <g>
       <use xlink:href="#m521ef6c253" x="185.482398" y="246.04" style="stroke: #000000; stroke-width: 0.8"/>
      </g>
     </g>
     <g id="text_4">
      <!-- 6000 -->
      <g transform="translate(172.757398 260.638438) scale(0.1 -0.1)">
       <defs>
        <path id="DejaVuSans-36" d="M 2113 2584 
Q 1688 2584 1439 2293 
Q 1191 2003 1191 1497 
Q 1191 994 1439 701 
Q 1688 409 2113 409 
Q 2538 409 2786 701 
Q 3034 994 3034 1497 
Q 3034 2003 2786 2293 
Q 2538 2584 2113 2584 
z
M 3366 4563 
L 3366 3988 
Q 3128 4100 2886 4159 
Q 2644 4219 2406 4219 
Q 1781 4219 1451 3797 
Q 1122 3375 1075 2522 
Q 1259 2794 1537 2939 
Q 1816 3084 2150 3084 
Q 2853 3084 3261 2657 
Q 3669 2231 3669 1497 
Q 3669 778 3244 343 
Q 2819 -91 2113 -91 
Q 1303 -91 875 529 
Q 447 1150 447 2328 
Q 447 3434 972 4092 
Q 1497 4750 2381 4750 
Q 2619 4750 2861 4703 
Q 3103 4656 3366 4563 
z
" transform="scale(0.015625)"/>
       </defs>
       <use xlink:href="#DejaVuSans-36"/>
       <use xlink:href="#DejaVuSans-30" transform="translate(63.623047 0)"/>
       <use xlink:href="#DejaVuSans-30" transform="translate(127.246094 0)"/>
       <use xlink:href="#DejaVuSans-30" transform="translate(190.869141 0)"/>
      </g>
     </g>
    </g>
    <g id="xtick_5">
     <g id="line2d_5">
      <g>
       <use xlink:href="#m521ef6c253" x="227.871155" y="246.04" style="stroke: #000000; stroke-width: 0.8"/>
      </g>
     </g>
     <g id="text_5">
      <!-- 8000 -->
      <g transform="translate(215.146155 260.638438) scale(0.1 -0.1)">
       <defs>
        <path id="DejaVuSans-38" d="M 2034 2216 
Q 1584 2216 1326 1975 
Q 1069 1734 1069 1313 
Q 1069 891 1326 650 
Q 1584 409 2034 409 
Q 2484 409 2743 651 
Q 3003 894 3003 1313 
Q 3003 1734 2745 1975 
Q 2488 2216 2034 2216 
z
M 1403 2484 
Q 997 2584 770 2862 
Q 544 3141 544 3541 
Q 544 4100 942 4425 
Q 1341 4750 2034 4750 
Q 2731 4750 3128 4425 
Q 3525 4100 3525 3541 
Q 3525 3141 3298 2862 
Q 3072 2584 2669 2484 
Q 3125 2378 3379 2068 
Q 3634 1759 3634 1313 
Q 3634 634 3220 271 
Q 2806 -91 2034 -91 
Q 1263 -91 848 271 
Q 434 634 434 1313 
Q 434 1759 690 2068 
Q 947 2378 1403 2484 
z
M 1172 3481 
Q 1172 3119 1398 2916 
Q 1625 2713 2034 2713 
Q 2441 2713 2670 2916 
Q 2900 3119 2900 3481 
Q 2900 3844 2670 4047 
Q 2441 4250 2034 4250 
Q 1625 4250 1398 4047 
Q 1172 3844 1172 3481 
z
" transform="scale(0.015625)"/>
       </defs>
       <use xlink:href="#DejaVuSans-38"/>
       <use xlink:href="#DejaVuSans-30" transform="translate(63.623047 0)"/>
       <use xlink:href="#DejaVuSans-30" transform="translate(127.246094 0)"/>
       <use xlink:href="#DejaVuSans-30" transform="translate(190.869141 0)"/>
      </g>
     </g>
    </g>
    <g id="xtick_6">
     <g id="line2d_6">
      <g>
       <use xlink:href="#m521ef6c253" x="270.259911" y="246.04" style="stroke: #000000; stroke-width: 0.8"/>
      </g>
     </g>
     <g id="text_6">
      <!-- 10000 -->
      <g transform="translate(254.353661 260.638438) scale(0.1 -0.1)">
       <defs>
        <path id="DejaVuSans-31" d="M 794 531 
L 1825 531 
L 1825 4091 
L 703 3866 
L 703 4441 
L 1819 4666 
L 2450 4666 
L 2450 531 
L 3481 531 
L 3481 0 
L 794 0 
L 794 531 
z
" transform="scale(0.015625)"/>
       </defs>
       <use xlink:href="#DejaVuSans-31"/>
       <use xlink:href="#DejaVuSans-30" transform="translate(63.623047 0)"/>
       <use xlink:href="#DejaVuSans-30" transform="translate(127.246094 0)"/>
       <use xlink:href="#DejaVuSans-30" transform="translate(190.869141 0)"/>
       <use xlink:href="#DejaVuSans-30" transform="translate(254.492188 0)"/>
      </g>
     </g>
    </g>
    <g id="text_7">
     <!-- Ordered samples -->
     <g transform="translate(121.556329 274.316562) scale(0.1 -0.1)">
      <defs>
       <path id="DejaVuSans-4f" d="M 2522 4238 
Q 1834 4238 1429 3725 
Q 1025 3213 1025 2328 
Q 1025 1447 1429 934 
Q 1834 422 2522 422 
Q 3209 422 3611 934 
Q 4013 1447 4013 2328 
Q 4013 3213 3611 3725 
Q 3209 4238 2522 4238 
z
M 2522 4750 
Q 3503 4750 4090 4092 
Q 4678 3434 4678 2328 
Q 4678 1225 4090 567 
Q 3503 -91 2522 -91 
Q 1538 -91 948 565 
Q 359 1222 359 2328 
Q 359 3434 948 4092 
Q 1538 4750 2522 4750 
z
" transform="scale(0.015625)"/>
       <path id="DejaVuSans-72" d="M 2631 2963 
Q 2534 3019 2420 3045 
Q 2306 3072 2169 3072 
Q 1681 3072 1420 2755 
Q 1159 2438 1159 1844 
L 1159 0 
L 581 0 
L 581 3500 
L 1159 3500 
L 1159 2956 
Q 1341 3275 1631 3429 
Q 1922 3584 2338 3584 
Q 2397 3584 2469 3576 
Q 2541 3569 2628 3553 
L 2631 2963 
z
" transform="scale(0.015625)"/>
       <path id="DejaVuSans-64" d="M 2906 2969 
L 2906 4863 
L 3481 4863 
L 3481 0 
L 2906 0 
L 2906 525 
Q 2725 213 2448 61 
Q 2172 -91 1784 -91 
Q 1150 -91 751 415 
Q 353 922 353 1747 
Q 353 2572 751 3078 
Q 1150 3584 1784 3584 
Q 2172 3584 2448 3432 
Q 2725 3281 2906 2969 
z
M 947 1747 
Q 947 1113 1208 752 
Q 1469 391 1925 391 
Q 2381 391 2643 752 
Q 2906 1113 2906 1747 
Q 2906 2381 2643 2742 
Q 2381 3103 1925 3103 
Q 1469 3103 1208 2742 
Q 947 2381 947 1747 
z
" transform="scale(0.015625)"/>
       <path id="DejaVuSans-65" d="M 3597 1894 
L 3597 1613 
L 953 1613 
Q 991 1019 1311 708 
Q 1631 397 2203 397 
Q 2534 397 2845 478 
Q 3156 559 3463 722 
L 3463 178 
Q 3153 47 2828 -22 
Q 2503 -91 2169 -91 
Q 1331 -91 842 396 
Q 353 884 353 1716 
Q 353 2575 817 3079 
Q 1281 3584 2069 3584 
Q 2775 3584 3186 3129 
Q 3597 2675 3597 1894 
z
M 3022 2063 
Q 3016 2534 2758 2815 
Q 2500 3097 2075 3097 
Q 1594 3097 1305 2825 
Q 1016 2553 972 2059 
L 3022 2063 
z
" transform="scale(0.015625)"/>
       <path id="DejaVuSans-20" transform="scale(0.015625)"/>
       <path id="DejaVuSans-73" d="M 2834 3397 
L 2834 2853 
Q 2591 2978 2328 3040 
Q 2066 3103 1784 3103 
Q 1356 3103 1142 2972 
Q 928 2841 928 2578 
Q 928 2378 1081 2264 
Q 1234 2150 1697 2047 
L 1894 2003 
Q 2506 1872 2764 1633 
Q 3022 1394 3022 966 
Q 3022 478 2636 193 
Q 2250 -91 1575 -91 
Q 1294 -91 989 -36 
Q 684 19 347 128 
L 347 722 
Q 666 556 975 473 
Q 1284 391 1588 391 
Q 1994 391 2212 530 
Q 2431 669 2431 922 
Q 2431 1156 2273 1281 
Q 2116 1406 1581 1522 
L 1381 1569 
Q 847 1681 609 1914 
Q 372 2147 372 2553 
Q 372 3047 722 3315 
Q 1072 3584 1716 3584 
Q 2034 3584 2315 3537 
Q 2597 3491 2834 3397 
z
" transform="scale(0.015625)"/>
       <path id="DejaVuSans-61" d="M 2194 1759 
Q 1497 1759 1228 1600 
Q 959 1441 959 1056 
Q 959 750 1161 570 
Q 1363 391 1709 391 
Q 2188 391 2477 730 
Q 2766 1069 2766 1631 
L 2766 1759 
L 2194 1759 
z
M 3341 1997 
L 3341 0 
L 2766 0 
L 2766 531 
Q 2569 213 2275 61 
Q 1981 -91 1556 -91 
Q 1019 -91 701 211 
Q 384 513 384 1019 
Q 384 1609 779 1909 
Q 1175 2209 1959 2209 
L 2766 2209 
L 2766 2266 
Q 2766 2663 2505 2880 
Q 2244 3097 1772 3097 
Q 1472 3097 1187 3025 
Q 903 2953 641 2809 
L 641 3341 
Q 956 3463 1253 3523 
Q 1550 3584 1831 3584 
Q 2591 3584 2966 3190 
Q 3341 2797 3341 1997 
z
" transform="scale(0.015625)"/>
       <path id="DejaVuSans-6d" d="M 3328 2828 
Q 3544 3216 3844 3400 
Q 4144 3584 4550 3584 
Q 5097 3584 5394 3201 
Q 5691 2819 5691 2113 
L 5691 0 
L 5113 0 
L 5113 2094 
Q 5113 2597 4934 2840 
Q 4756 3084 4391 3084 
Q 3944 3084 3684 2787 
Q 3425 2491 3425 1978 
L 3425 0 
L 2847 0 
L 2847 2094 
Q 2847 2600 2669 2842 
Q 2491 3084 2119 3084 
Q 1678 3084 1418 2786 
Q 1159 2488 1159 1978 
L 1159 0 
L 581 0 
L 581 3500 
L 1159 3500 
L 1159 2956 
Q 1356 3278 1631 3431 
Q 1906 3584 2284 3584 
Q 2666 3584 2933 3390 
Q 3200 3197 3328 2828 
z
" transform="scale(0.015625)"/>
       <path id="DejaVuSans-70" d="M 1159 525 
L 1159 -1331 
L 581 -1331 
L 581 3500 
L 1159 3500 
L 1159 2969 
Q 1341 3281 1617 3432 
Q 1894 3584 2278 3584 
Q 2916 3584 3314 3078 
Q 3713 2572 3713 1747 
Q 3713 922 3314 415 
Q 2916 -91 2278 -91 
Q 1894 -91 1617 61 
Q 1341 213 1159 525 
z
M 3116 1747 
Q 3116 2381 2855 2742 
Q 2594 3103 2138 3103 
Q 1681 3103 1420 2742 
Q 1159 2381 1159 1747 
Q 1159 1113 1420 752 
Q 1681 391 2138 391 
Q 2594 391 2855 752 
Q 3116 1113 3116 1747 
z
" transform="scale(0.015625)"/>
       <path id="DejaVuSans-6c" d="M 603 4863 
L 1178 4863 
L 1178 0 
L 603 0 
L 603 4863 
z
" transform="scale(0.015625)"/>
      </defs>
      <use xlink:href="#DejaVuSans-4f"/>
      <use xlink:href="#DejaVuSans-72" transform="translate(78.710938 0)"/>
      <use xlink:href="#DejaVuSans-64" transform="translate(118.074219 0)"/>
      <use xlink:href="#DejaVuSans-65" transform="translate(181.550781 0)"/>
      <use xlink:href="#DejaVuSans-72" transform="translate(243.074219 0)"/>
      <use xlink:href="#DejaVuSans-65" transform="translate(281.9375 0)"/>
      <use xlink:href="#DejaVuSans-64" transform="translate(343.460938 0)"/>
      <use xlink:href="#DejaVuSans-20" transform="translate(406.9375 0)"/>
      <use xlink:href="#DejaVuSans-73" transform="translate(438.724609 0)"/>
      <use xlink:href="#DejaVuSans-61" transform="translate(490.824219 0)"/>
      <use xlink:href="#DejaVuSans-6d" transform="translate(552.103516 0)"/>
      <use xlink:href="#DejaVuSans-70" transform="translate(649.515625 0)"/>
      <use xlink:href="#DejaVuSans-6c" transform="translate(712.992188 0)"/>
      <use xlink:href="#DejaVuSans-65" transform="translate(740.775391 0)"/>
      <use xlink:href="#DejaVuSans-73" transform="translate(802.298828 0)"/>
     </g>
    </g>
   </g>
   <g id="matplotlib.axis_2">
    <g id="ytick_1">
     <g id="line2d_7">
      <defs>
       <path id="m3d4a6aaf0b" d="M 0 0 
L -3.5 0 
" style="stroke: #000000; stroke-width: 0.8"/>
      </defs>
      <g>
       <use xlink:href="#m3d4a6aaf0b" x="47.72" y="236.717794" style="stroke: #000000; stroke-width: 0.8"/>
      </g>
     </g>
     <g id="text_8">
      <!-- 0.2 -->
      <g transform="translate(24.816875 240.517012) scale(0.1 -0.1)">
       <defs>
        <path id="DejaVuSans-2e" d="M 684 794 
L 1344 794 
L 1344 0 
L 684 0 
L 684 794 
z
" transform="scale(0.015625)"/>
       </defs>
       <use xlink:href="#DejaVuSans-30"/>
       <use xlink:href="#DejaVuSans-2e" transform="translate(63.623047 0)"/>
       <use xlink:href="#DejaVuSans-32" transform="translate(95.410156 0)"/>
      </g>
     </g>
    </g>
    <g id="ytick_2">
     <g id="line2d_8">
      <g>
       <use xlink:href="#m3d4a6aaf0b" x="47.72" y="212.67248" style="stroke: #000000; stroke-width: 0.8"/>
      </g>
     </g>
     <g id="text_9">
      <!-- 0.3 -->
      <g transform="translate(24.816875 216.471699) scale(0.1 -0.1)">
       <defs>
        <path id="DejaVuSans-33" d="M 2597 2516 
Q 3050 2419 3304 2112 
Q 3559 1806 3559 1356 
Q 3559 666 3084 287 
Q 2609 -91 1734 -91 
Q 1441 -91 1130 -33 
Q 819 25 488 141 
L 488 750 
Q 750 597 1062 519 
Q 1375 441 1716 441 
Q 2309 441 2620 675 
Q 2931 909 2931 1356 
Q 2931 1769 2642 2001 
Q 2353 2234 1838 2234 
L 1294 2234 
L 1294 2753 
L 1863 2753 
Q 2328 2753 2575 2939 
Q 2822 3125 2822 3475 
Q 2822 3834 2567 4026 
Q 2313 4219 1838 4219 
Q 1578 4219 1281 4162 
Q 984 4106 628 3988 
L 628 4550 
Q 988 4650 1302 4700 
Q 1616 4750 1894 4750 
Q 2613 4750 3031 4423 
Q 3450 4097 3450 3541 
Q 3450 3153 3228 2886 
Q 3006 2619 2597 2516 
z
" transform="scale(0.015625)"/>
       </defs>
       <use xlink:href="#DejaVuSans-30"/>
       <use xlink:href="#DejaVuSans-2e" transform="translate(63.623047 0)"/>
       <use xlink:href="#DejaVuSans-33" transform="translate(95.410156 0)"/>
      </g>
     </g>
    </g>
    <g id="ytick_3">
     <g id="line2d_9">
      <g>
       <use xlink:href="#m3d4a6aaf0b" x="47.72" y="188.627166" style="stroke: #000000; stroke-width: 0.8"/>
      </g>
     </g>
     <g id="text_10">
      <!-- 0.4 -->
      <g transform="translate(24.816875 192.426385) scale(0.1 -0.1)">
       <use xlink:href="#DejaVuSans-30"/>
       <use xlink:href="#DejaVuSans-2e" transform="translate(63.623047 0)"/>
       <use xlink:href="#DejaVuSans-34" transform="translate(95.410156 0)"/>
      </g>
     </g>
    </g>
    <g id="ytick_4">
     <g id="line2d_10">
      <g>
       <use xlink:href="#m3d4a6aaf0b" x="47.72" y="164.581852" style="stroke: #000000; stroke-width: 0.8"/>
      </g>
     </g>
     <g id="text_11">
      <!-- 0.5 -->
      <g transform="translate(24.816875 168.381071) scale(0.1 -0.1)">
       <defs>
        <path id="DejaVuSans-35" d="M 691 4666 
L 3169 4666 
L 3169 4134 
L 1269 4134 
L 1269 2991 
Q 1406 3038 1543 3061 
Q 1681 3084 1819 3084 
Q 2600 3084 3056 2656 
Q 3513 2228 3513 1497 
Q 3513 744 3044 326 
Q 2575 -91 1722 -91 
Q 1428 -91 1123 -41 
Q 819 9 494 109 
L 494 744 
Q 775 591 1075 516 
Q 1375 441 1709 441 
Q 2250 441 2565 725 
Q 2881 1009 2881 1497 
Q 2881 1984 2565 2268 
Q 2250 2553 1709 2553 
Q 1456 2553 1204 2497 
Q 953 2441 691 2322 
L 691 4666 
z
" transform="scale(0.015625)"/>
       </defs>
       <use xlink:href="#DejaVuSans-30"/>
       <use xlink:href="#DejaVuSans-2e" transform="translate(63.623047 0)"/>
       <use xlink:href="#DejaVuSans-35" transform="translate(95.410156 0)"/>
      </g>
     </g>
    </g>
    <g id="ytick_5">
     <g id="line2d_11">
      <g>
       <use xlink:href="#m3d4a6aaf0b" x="47.72" y="140.536539" style="stroke: #000000; stroke-width: 0.8"/>
      </g>
     </g>
     <g id="text_12">
      <!-- 0.6 -->
      <g transform="translate(24.816875 144.335758) scale(0.1 -0.1)">
       <use xlink:href="#DejaVuSans-30"/>
       <use xlink:href="#DejaVuSans-2e" transform="translate(63.623047 0)"/>
       <use xlink:href="#DejaVuSans-36" transform="translate(95.410156 0)"/>
      </g>
     </g>
    </g>
    <g id="ytick_6">
     <g id="line2d_12">
      <g>
       <use xlink:href="#m3d4a6aaf0b" x="47.72" y="116.491225" style="stroke: #000000; stroke-width: 0.8"/>
      </g>
     </g>
     <g id="text_13">
      <!-- 0.7 -->
      <g transform="translate(24.816875 120.290444) scale(0.1 -0.1)">
       <defs>
        <path id="DejaVuSans-37" d="M 525 4666 
L 3525 4666 
L 3525 4397 
L 1831 0 
L 1172 0 
L 2766 4134 
L 525 4134 
L 525 4666 
z
" transform="scale(0.015625)"/>
       </defs>
       <use xlink:href="#DejaVuSans-30"/>
       <use xlink:href="#DejaVuSans-2e" transform="translate(63.623047 0)"/>
       <use xlink:href="#DejaVuSans-37" transform="translate(95.410156 0)"/>
      </g>
     </g>
    </g>
    <g id="ytick_7">
     <g id="line2d_13">
      <g>
       <use xlink:href="#m3d4a6aaf0b" x="47.72" y="92.445911" style="stroke: #000000; stroke-width: 0.8"/>
      </g>
     </g>
     <g id="text_14">
      <!-- 0.8 -->
      <g transform="translate(24.816875 96.24513) scale(0.1 -0.1)">
       <use xlink:href="#DejaVuSans-30"/>
       <use xlink:href="#DejaVuSans-2e" transform="translate(63.623047 0)"/>
       <use xlink:href="#DejaVuSans-38" transform="translate(95.410156 0)"/>
      </g>
     </g>
    </g>
    <g id="ytick_8">
     <g id="line2d_14">
      <g>
       <use xlink:href="#m3d4a6aaf0b" x="47.72" y="68.400598" style="stroke: #000000; stroke-width: 0.8"/>
      </g>
     </g>
     <g id="text_15">
      <!-- 0.9 -->
      <g transform="translate(24.816875 72.199817) scale(0.1 -0.1)">
       <defs>
        <path id="DejaVuSans-39" d="M 703 97 
L 703 672 
Q 941 559 1184 500 
Q 1428 441 1663 441 
Q 2288 441 2617 861 
Q 2947 1281 2994 2138 
Q 2813 1869 2534 1725 
Q 2256 1581 1919 1581 
Q 1219 1581 811 2004 
Q 403 2428 403 3163 
Q 403 3881 828 4315 
Q 1253 4750 1959 4750 
Q 2769 4750 3195 4129 
Q 3622 3509 3622 2328 
Q 3622 1225 3098 567 
Q 2575 -91 1691 -91 
Q 1453 -91 1209 -44 
Q 966 3 703 97 
z
M 1959 2075 
Q 2384 2075 2632 2365 
Q 2881 2656 2881 3163 
Q 2881 3666 2632 3958 
Q 2384 4250 1959 4250 
Q 1534 4250 1286 3958 
Q 1038 3666 1038 3163 
Q 1038 2656 1286 2365 
Q 1534 2075 1959 2075 
z
" transform="scale(0.015625)"/>
       </defs>
       <use xlink:href="#DejaVuSans-30"/>
       <use xlink:href="#DejaVuSans-2e" transform="translate(63.623047 0)"/>
       <use xlink:href="#DejaVuSans-39" transform="translate(95.410156 0)"/>
      </g>
     </g>
    </g>
    <g id="ytick_9">
     <g id="line2d_15">
      <g>
       <use xlink:href="#m3d4a6aaf0b" x="47.72" y="44.355284" style="stroke: #000000; stroke-width: 0.8"/>
      </g>
     </g>
     <g id="text_16">
      <!-- 1.0 -->
      <g transform="translate(24.816875 48.154503) scale(0.1 -0.1)">
       <use xlink:href="#DejaVuSans-31"/>
       <use xlink:href="#DejaVuSans-2e" transform="translate(63.623047 0)"/>
       <use xlink:href="#DejaVuSans-30" transform="translate(95.410156 0)"/>
      </g>
     </g>
    </g>
    <g id="text_17">
     <!-- Scores -->
     <g transform="translate(18.737187 157.002656) rotate(-90) scale(0.1 -0.1)">
      <defs>
       <path id="DejaVuSans-53" d="M 3425 4513 
L 3425 3897 
Q 3066 4069 2747 4153 
Q 2428 4238 2131 4238 
Q 1616 4238 1336 4038 
Q 1056 3838 1056 3469 
Q 1056 3159 1242 3001 
Q 1428 2844 1947 2747 
L 2328 2669 
Q 3034 2534 3370 2195 
Q 3706 1856 3706 1288 
Q 3706 609 3251 259 
Q 2797 -91 1919 -91 
Q 1588 -91 1214 -16 
Q 841 59 441 206 
L 441 856 
Q 825 641 1194 531 
Q 1563 422 1919 422 
Q 2459 422 2753 634 
Q 3047 847 3047 1241 
Q 3047 1584 2836 1778 
Q 2625 1972 2144 2069 
L 1759 2144 
Q 1053 2284 737 2584 
Q 422 2884 422 3419 
Q 422 4038 858 4394 
Q 1294 4750 2059 4750 
Q 2388 4750 2728 4690 
Q 3069 4631 3425 4513 
z
" transform="scale(0.015625)"/>
       <path id="DejaVuSans-63" d="M 3122 3366 
L 3122 2828 
Q 2878 2963 2633 3030 
Q 2388 3097 2138 3097 
Q 1578 3097 1268 2742 
Q 959 2388 959 1747 
Q 959 1106 1268 751 
Q 1578 397 2138 397 
Q 2388 397 2633 464 
Q 2878 531 3122 666 
L 3122 134 
Q 2881 22 2623 -34 
Q 2366 -91 2075 -91 
Q 1284 -91 818 406 
Q 353 903 353 1747 
Q 353 2603 823 3093 
Q 1294 3584 2113 3584 
Q 2378 3584 2631 3529 
Q 2884 3475 3122 3366 
z
" transform="scale(0.015625)"/>
       <path id="DejaVuSans-6f" d="M 1959 3097 
Q 1497 3097 1228 2736 
Q 959 2375 959 1747 
Q 959 1119 1226 758 
Q 1494 397 1959 397 
Q 2419 397 2687 759 
Q 2956 1122 2956 1747 
Q 2956 2369 2687 2733 
Q 2419 3097 1959 3097 
z
M 1959 3584 
Q 2709 3584 3137 3096 
Q 3566 2609 3566 1747 
Q 3566 888 3137 398 
Q 2709 -91 1959 -91 
Q 1206 -91 779 398 
Q 353 888 353 1747 
Q 353 2609 779 3096 
Q 1206 3584 1959 3584 
z
" transform="scale(0.015625)"/>
      </defs>
      <use xlink:href="#DejaVuSans-53"/>
      <use xlink:href="#DejaVuSans-63" transform="translate(63.476562 0)"/>
      <use xlink:href="#DejaVuSans-6f" transform="translate(118.457031 0)"/>
      <use xlink:href="#DejaVuSans-72" transform="translate(179.638672 0)"/>
      <use xlink:href="#DejaVuSans-65" transform="translate(218.501953 0)"/>
      <use xlink:href="#DejaVuSans-73" transform="translate(280.025391 0)"/>
     </g>
    </g>
   </g>
   <g id="line2d_16">
    <path d="M 58.316129 236.435966 
L 58.485684 227.775092 
L 58.506879 227.6496 
L 58.634045 224.063663 
L 58.655239 223.907121 
L 58.824794 220.512772 
L 59.291071 213.39822 
L 59.354654 212.811506 
L 59.503015 212.005381 
L 59.630181 209.420468 
L 59.67257 209.345432 
L 59.842125 207.973776 
L 59.884513 207.649705 
L 60.032874 205.575761 
L 60.117652 205.443461 
L 60.371984 204.183847 
L 60.414373 204.13185 
L 60.817066 202.260791 
L 60.965427 201.955538 
L 61.113787 201.084231 
L 61.219759 200.59499 
L 61.389314 199.513101 
L 61.601258 198.991992 
L 61.792007 197.820993 
L 61.813202 197.800089 
L 62.025146 196.755851 
L 62.131117 196.476632 
L 62.300672 196.064247 
L 62.449033 195.723938 
L 62.597394 194.614151 
L 63.06367 193.053383 
L 63.339197 192.007224 
L 63.381586 191.971666 
L 63.74189 190.288251 
L 64.123389 189.602731 
L 64.42011 188.638673 
L 64.441305 188.63001 
L 64.738026 187.408569 
L 64.822803 187.263628 
L 64.94997 186.951567 
L 65.204302 185.867959 
L 65.267885 185.756842 
L 65.43744 185.422824 
L 65.62819 184.913991 
L 65.670579 184.852829 
L 65.946106 183.627475 
L 66.369993 182.300757 
L 66.497159 182.184452 
L 66.730298 181.465875 
L 67.302546 180.116828 
L 67.344934 179.992289 
L 67.790016 178.651612 
L 67.8536 178.552513 
L 68.023155 178.137469 
L 68.065543 178.098923 
L 68.213904 177.287445 
L 68.489431 176.305551 
L 68.786152 175.847081 
L 68.955707 175.384576 
L 68.976902 175.382261 
L 69.21004 174.552016 
L 69.3584 174.236924 
L 69.845871 172.52751 
L 69.88826 172.440048 
L 70.079009 171.993832 
L 70.206176 171.903984 
L 70.587674 170.692246 
L 70.778424 170.029213 
L 71.414255 168.71561 
L 71.520227 168.625174 
L 71.965309 167.758245 
L 71.986503 167.757772 
L 72.219641 167.044857 
L 72.240836 167.042348 
L 72.368002 166.877787 
L 73.152194 165.61383 
L 73.427721 165.150372 
L 73.554887 165.046471 
L 73.703248 164.655262 
L 75.335215 162.565323 
L 75.50477 162.062781 
L 75.971046 161.364061 
L 76.119407 161.222818 
L 76.924793 159.823946 
L 77.073154 159.668385 
L 77.327487 159.243939 
L 77.497042 158.926955 
L 77.560625 158.858706 
L 77.793763 158.452089 
L 78.048095 158.094173 
L 78.260039 157.534217 
L 78.683927 156.866082 
L 78.789899 156.778627 
L 79.001842 156.212121 
L 79.065426 156.008648 
L 79.658868 154.889582 
L 79.934395 154.50624 
L 80.2947 153.669617 
L 80.739781 152.985674 
L 80.824559 152.816411 
L 80.97292 152.549361 
L 81.206058 152.325264 
L 81.375613 151.930844 
L 81.587557 151.366617 
L 81.7995 150.924829 
L 81.884278 150.852122 
L 82.032639 150.485664 
L 82.075027 150.420123 
L 82.202194 149.960564 
L 84.152076 146.919215 
L 84.321631 146.43274 
L 84.618353 145.771986 
L 86.92854 141.692634 
L 87.013317 141.53981 
L 87.182872 141.249872 
L 87.521983 140.604682 
L 88.687673 138.558428 
L 88.899617 138.080122 
L 89.005589 137.937517 
L 89.387088 137.010515 
L 89.471865 136.930141 
L 89.620226 136.751519 
L 89.853364 136.358676 
L 90.065308 136.129204 
L 90.213669 135.790522 
L 91.040249 134.635797 
L 91.18861 134.295724 
L 91.273387 134.132969 
L 91.442942 133.641334 
L 91.612497 133.438563 
L 91.654886 133.311638 
L 91.803247 133.022373 
L 91.909219 132.898901 
L 92.20594 132.50676 
L 92.417884 132.101147 
L 92.608633 131.781555 
L 93.138493 130.869243 
L 93.965073 129.695729 
L 94.219406 129.042542 
L 94.346572 128.910902 
L 94.664488 128.294764 
L 94.961209 127.549063 
L 95.045987 127.470323 
L 95.215542 127.286556 
L 95.872568 125.763052 
L 96.063317 125.533336 
L 96.932286 123.865163 
L 97.038258 123.714518 
L 97.758867 122.610386 
L 97.82245 122.503439 
L 98.479476 121.623003 
L 98.585448 121.505092 
L 98.776197 121.261088 
L 99.051724 120.890402 
L 99.475612 120.368884 
L 99.857111 120.097907 
L 99.941888 119.95685 
L 100.090249 119.637129 
L 100.344581 119.340268 
L 100.556525 119.060863 
L 100.72608 118.819524 
L 100.91683 118.441328 
L 101.107579 118.043727 
L 101.25594 117.571727 
L 101.340717 117.470255 
L 101.59505 117.122687 
L 101.679827 117.053133 
L 102.103715 116.047849 
L 102.209687 115.947625 
L 102.358047 115.76661 
L 102.442825 115.591285 
L 102.803129 115.031931 
L 103.078656 114.503076 
L 103.332989 113.881004 
L 103.587321 113.398513 
L 104.011209 112.872725 
L 104.541068 111.740559 
L 105.007345 111.029901 
L 105.134511 110.773771 
L 105.579593 110.116256 
L 105.621981 110.036254 
L 105.833925 109.722238 
L 105.982286 109.611565 
L 109.267415 104.565797 
L 109.458164 104.422046 
L 110.11519 103.287902 
L 110.284745 102.97218 
L 110.899382 101.870484 
L 111.259686 101.263404 
L 111.598796 101.072328 
L 112.616126 99.745102 
L 112.743293 99.639889 
L 112.934042 99.261679 
L 113.103597 98.993066 
L 113.930178 97.861072 
L 114.18451 97.474406 
L 114.269288 97.395665 
L 114.460037 97.063475 
L 114.587203 96.953261 
L 115.032285 96.433277 
L 115.117063 96.31551 
L 115.307812 95.844256 
L 115.350201 95.746869 
L 115.519756 95.580387 
L 115.964838 95.238709 
L 116.113199 94.975958 
L 116.325142 94.710198 
L 116.452309 94.563423 
L 117.236501 93.420407 
L 117.321278 93.242846 
L 117.596805 92.781854 
L 117.681583 92.666896 
L 117.808749 92.506419 
L 118.402192 91.34384 
L 118.529358 91.001574 
L 118.677718 90.644275 
L 119.864604 88.947953 
L 119.906992 88.926168 
L 120.055353 88.631471 
L 120.246102 88.330339 
L 120.373269 88.112921 
L 120.458046 88.019661 
L 120.648796 87.879235 
L 120.712379 87.81067 
L 120.881934 87.578361 
L 121.115072 87.366575 
L 121.772098 86.187013 
L 121.899264 86.067311 
L 122.153596 85.704851 
L 122.450318 85.33921 
L 123.192121 84.649678 
L 123.340482 84.450733 
L 123.57362 84.116293 
L 124.06109 83.575628 
L 124.25184 83.276474 
L 124.315423 82.992282 
L 124.760505 82.414468 
L 124.908866 82.335512 
L 125.163198 81.981867 
L 128.045634 78.13385 
L 128.278772 78.015452 
L 128.617882 77.396706 
L 128.787437 77.213383 
L 129.889544 76.078064 
L 129.953128 75.975733 
L 130.228655 75.670803 
L 130.355821 75.491149 
L 130.54657 75.308042 
L 130.652542 75.207201 
L 132.77198 73.100322 
L 133.026312 72.714716 
L 134.022448 71.670736 
L 134.213198 71.416813 
L 134.31917 71.299677 
L 134.488725 71.121299 
L 134.65828 71.004808 
L 135.781582 69.875809 
L 136.396219 69.256762 
L 136.650551 69.07321 
L 136.947272 68.790624 
L 137.03205 68.738297 
L 137.180411 68.541918 
L 138.324907 67.382492 
L 138.536851 67.206996 
L 139.236265 66.59993 
L 139.363432 66.473692 
L 141.546452 64.475422 
L 141.694813 64.35056 
L 141.885563 64.078021 
L 142.288256 63.82804 
L 142.5002 63.586658 
L 142.64856 63.421566 
L 142.881698 63.222708 
L 143.051253 63.079444 
L 143.263197 62.938731 
L 143.475141 62.817023 
L 143.877834 62.511677 
L 144.068583 62.380997 
L 144.852775 61.799342 
L 145.170691 61.464587 
L 145.467412 61.282425 
L 145.785328 61.064993 
L 146.124438 60.867768 
L 146.442354 60.630228 
L 146.56952 60.520444 
L 146.823853 60.407334 
L 147.92596 59.668571 
L 148.180293 59.507248 
L 148.434625 59.219244 
L 148.646569 59.060989 
L 150.638841 57.918002 
L 151.274672 57.623162 
L 151.50781 57.473692 
L 151.910503 57.199447 
L 155.174438 55.613798 
L 155.365187 55.437699 
L 155.661908 55.285764 
L 156.700433 54.71827 
L 156.869988 54.6131 
L 157.209098 54.429535 
L 157.950901 54.10034 
L 166.51343 50.831111 
L 167.085678 50.629114 
L 167.255233 50.568532 
L 169.90453 49.810735 
L 170.731111 49.603994 
L 171.006638 49.550636 
L 172.596217 49.19143 
L 173.592352 48.941535 
L 173.846685 48.871537 
L 174.546099 48.745042 
L 175.838956 48.490188 
L 178.08556 48.059651 
L 178.61542 47.944965 
L 178.912141 47.877533 
L 179.717528 47.737293 
L 181.942937 47.319153 
L 183.362961 47.115551 
L 183.638488 47.059613 
L 185.630759 46.78809 
L 185.948675 46.735721 
L 187.495864 46.470562 
L 188.937082 46.302518 
L 189.403358 46.246909 
L 192.052656 45.974499 
L 193.981344 45.793197 
L 205.362725 45.057931 
L 211.424317 44.836628 
L 217.231577 44.678731 
L 223.717057 44.552422 
L 246.670568 44.379419 
L 255.233097 44.363138 
L 270.238717 44.355284 
L 270.238717 44.355284 
" clip-path="url(#p77ad648f7a)" style="fill: none; stroke: #1f77b4; stroke-width: 1.5; stroke-linecap: square"/>
   </g>
   <g id="line2d_17">
    <path d="M 58.316129 232.869865 
L 58.485684 224.041312 
L 58.697628 219.312306 
L 59.948096 208.20835 
L 59.969291 208.16817 
L 60.117652 206.843215 
L 60.202429 206.224075 
L 60.371984 204.198157 
L 60.520345 203.258816 
L 60.711094 201.614427 
L 61.02901 199.512907 
L 61.198565 198.211644 
L 61.240954 198.12004 
L 61.431703 197.259912 
L 61.474092 196.989314 
L 61.643647 196.231259 
L 61.940368 195.511608 
L 62.109923 194.370541 
L 62.152312 194.304284 
L 62.491422 192.604042 
L 62.703366 191.86975 
L 62.72456 191.855146 
L 62.894115 191.327237 
L 62.978893 191.170551 
L 63.169642 190.098673 
L 63.275614 189.958289 
L 63.657113 188.356245 
L 63.805473 188.241781 
L 64.038611 187.522803 
L 64.059806 187.513114 
L 64.208167 187.144693 
L 64.27175 187.040047 
L 64.462499 186.212295 
L 64.504888 186.049754 
L 65.077136 183.745808 
L 65.09833 183.737926 
L 65.310274 182.2521 
L 65.479829 181.955998 
L 65.670579 180.982646 
L 65.734162 180.769463 
L 65.903717 180.079099 
L 65.946106 179.988133 
L 66.158049 179.352382 
L 66.242827 179.239015 
L 66.412382 178.770734 
L 66.899853 177.521883 
L 66.942241 177.483831 
L 67.154185 176.542827 
L 67.281351 176.287815 
L 67.493295 175.634321 
L 68.171515 174.102775 
L 68.213904 174.066938 
L 68.404653 173.561609 
L 68.510625 173.418366 
L 68.637792 173.232894 
L 68.87093 172.634922 
L 69.01929 172.386862 
L 69.167651 171.802147 
L 69.273623 171.601798 
L 69.421984 171.270504 
L 69.443178 171.270447 
L 69.591539 170.6691 
L 70.036621 169.462328 
L 70.863201 167.506523 
L 71.075145 166.701402 
L 71.181117 166.615502 
L 71.393061 165.909953 
L 71.499033 165.710572 
L 71.710976 165.242556 
L 71.859337 164.601058 
L 72.219641 163.632837 
L 72.410391 162.956948 
L 73.448915 160.139066 
L 73.47011 160.133147 
L 73.639665 159.576702 
L 73.745637 159.267802 
L 74.656995 157.140313 
L 74.784161 156.949954 
L 74.847744 156.770501 
L 74.974911 156.159852 
L 75.144466 155.794741 
L 75.314021 155.066698 
L 76.86121 150.72385 
L 77.073154 150.24014 
L 77.157932 150.14572 
L 77.454653 149.622211 
L 77.645402 148.904974 
L 77.772569 148.730767 
L 78.154067 147.447684 
L 78.238845 147.292338 
L 78.514372 146.086662 
L 78.683927 145.423343 
L 78.705121 145.410702 
L 78.895871 144.578823 
L 79.023037 144.184274 
L 79.234981 143.294091 
L 79.319758 143.152604 
L 79.489313 142.743795 
L 80.040367 141.080896 
L 80.10395 140.947478 
L 80.803365 137.895897 
L 81.100086 137.020304 
L 81.142475 136.983069 
L 81.290835 136.59861 
L 81.31203 136.588649 
L 81.46039 135.796613 
L 81.545168 135.587206 
L 81.863084 134.63991 
L 81.884278 134.638248 
L 82.032639 134.169301 
L 82.732053 132.198519 
L 82.795636 131.971298 
L 82.943997 131.262144 
L 83.00758 131.130618 
L 83.177135 130.461007 
L 83.304301 129.999513 
L 83.558634 128.735964 
L 83.706994 128.48336 
L 84.258048 126.765956 
L 84.745519 124.874173 
L 84.787908 124.758728 
L 84.978657 124.311895 
L 85.021046 124.251614 
L 85.190601 123.437392 
L 85.529711 122.446426 
L 85.762849 121.702044 
L 85.932404 121.212932 
L 86.05957 120.948117 
L 86.186737 120.674101 
L 86.441069 120.253969 
L 86.695402 119.332815 
L 86.801374 119.221512 
L 87.055706 118.1943 
L 87.140484 118.085849 
L 87.310039 117.578821 
L 87.373622 117.321001 
L 87.521983 117.086025 
L 87.818704 116.402985 
L 88.009453 115.624865 
L 88.094231 115.554251 
L 88.560507 113.989484 
L 88.730062 113.817843 
L 89.026783 112.908684 
L 89.090366 112.787951 
L 89.217533 112.169964 
L 90.489195 108.336192 
L 90.828306 107.838495 
L 91.019055 106.746229 
L 91.273387 105.890731 
L 91.464137 104.80887 
L 91.633692 104.267775 
L 91.845636 103.291471 
L 91.888024 103.226675 
L 92.057579 102.769323 
L 92.078774 102.755249 
L 92.248329 102.176919 
L 92.290718 102.032709 
L 92.311912 101.99159 
L 92.439078 101.225223 
L 92.502661 101.112272 
L 92.756994 100.164273 
L 92.799383 100.147877 
L 93.011326 99.051613 
L 93.477603 97.497409 
L 93.647158 96.394007 
L 93.731935 96.186493 
L 93.90149 95.58364 
L 94.007462 95.138685 
L 94.155823 94.452822 
L 94.494933 93.473565 
L 94.706877 92.598202 
L 94.77046 92.530697 
L 95.300319 90.703409 
L 95.363902 90.634686 
L 95.618235 89.374706 
L 96.042123 87.764707 
L 96.211678 87.165481 
L 96.317649 86.939851 
L 96.762731 85.793051 
L 96.868703 85.544131 
L 97.546923 82.989014 
L 97.610507 82.866933 
L 100.153832 73.473373 
L 100.323387 72.602438 
L 100.598914 71.326177 
L 100.662497 71.168266 
L 100.832052 70.740208 
L 100.959218 70.365151 
L 101.361911 68.624156 
L 101.637438 67.711185 
L 101.93416 66.957803 
L 102.103715 66.442319 
L 102.252075 66.098219 
L 102.591185 65.296366 
L 102.654769 65.233161 
L 104.795401 59.644765 
L 104.922567 59.564864 
L 105.070928 59.071623 
L 105.304066 58.322727 
L 105.876314 56.638616 
L 105.939897 56.550904 
L 106.19423 55.898334 
L 106.236618 55.873525 
L 106.406173 55.2393 
L 106.448562 55.220123 
L 106.660506 54.529057 
L 107.042005 53.36192 
L 107.253949 52.738731 
L 107.296337 52.69069 
L 107.465892 52.277136 
L 107.783808 51.50538 
L 107.953363 51.139954 
L 108.525611 49.862474 
L 108.737555 49.384613 
L 108.843527 49.290666 
L 108.928304 49.047593 
L 109.161443 48.553349 
L 109.309803 48.289008 
L 110.878187 45.060353 
L 111.026548 44.849671 
L 111.28088 44.513066 
L 111.28088 44.513066 
" clip-path="url(#p77ad648f7a)" style="fill: none; stroke: #ff7f0e; stroke-width: 1.5; stroke-linecap: square"/>
   </g>
   <g id="patch_3">
    <path d="M 47.72 246.04 
L 47.72 34.75125 
" style="fill: none; stroke: #000000; stroke-width: 0.8; stroke-linejoin: miter; stroke-linecap: square"/>
   </g>
   <g id="patch_4">
    <path d="M 280.834846 246.04 
L 280.834846 34.75125 
" style="fill: none; stroke: #000000; stroke-width: 0.8; stroke-linejoin: miter; stroke-linecap: square"/>
   </g>
   <g id="patch_5">
    <path d="M 47.72 246.04 
L 280.834846 246.04 
" style="fill: none; stroke: #000000; stroke-width: 0.8; stroke-linejoin: miter; stroke-linecap: square"/>
   </g>
   <g id="patch_6">
    <path d="M 47.72 34.75125 
L 280.834846 34.75125 
" style="fill: none; stroke: #000000; stroke-width: 0.8; stroke-linejoin: miter; stroke-linecap: square"/>
   </g>
   <g id="legend_1">
    <g id="patch_7">
     <path d="M 173.645784 241.04 
L 273.834846 241.04 
Q 275.834846 241.04 275.834846 239.04 
L 275.834846 210.68375 
Q 275.834846 208.68375 273.834846 208.68375 
L 173.645784 208.68375 
Q 171.645784 208.68375 171.645784 210.68375 
L 171.645784 239.04 
Q 171.645784 241.04 173.645784 241.04 
z
" style="fill: #ffffff; opacity: 0.8; stroke: #cccccc; stroke-linejoin: miter"/>
    </g>
    <g id="line2d_18">
     <path d="M 175.645784 216.782187 
L 185.645784 216.782187 
L 195.645784 216.782187 
" style="fill: none; stroke: #1f77b4; stroke-width: 1.5; stroke-linecap: square"/>
    </g>
    <g id="text_18">
     <!-- ID samples -->
     <g transform="translate(203.645784 220.282187) scale(0.1 -0.1)">
      <defs>
       <path id="DejaVuSans-49" d="M 628 4666 
L 1259 4666 
L 1259 0 
L 628 0 
L 628 4666 
z
" transform="scale(0.015625)"/>
       <path id="DejaVuSans-44" d="M 1259 4147 
L 1259 519 
L 2022 519 
Q 2988 519 3436 956 
Q 3884 1394 3884 2338 
Q 3884 3275 3436 3711 
Q 2988 4147 2022 4147 
L 1259 4147 
z
M 628 4666 
L 1925 4666 
Q 3281 4666 3915 4102 
Q 4550 3538 4550 2338 
Q 4550 1131 3912 565 
Q 3275 0 1925 0 
L 628 0 
L 628 4666 
z
" transform="scale(0.015625)"/>
      </defs>
      <use xlink:href="#DejaVuSans-49"/>
      <use xlink:href="#DejaVuSans-44" transform="translate(29.492188 0)"/>
      <use xlink:href="#DejaVuSans-20" transform="translate(106.494141 0)"/>
      <use xlink:href="#DejaVuSans-73" transform="translate(138.28125 0)"/>
      <use xlink:href="#DejaVuSans-61" transform="translate(190.380859 0)"/>
      <use xlink:href="#DejaVuSans-6d" transform="translate(251.660156 0)"/>
      <use xlink:href="#DejaVuSans-70" transform="translate(349.072266 0)"/>
      <use xlink:href="#DejaVuSans-6c" transform="translate(412.548828 0)"/>
      <use xlink:href="#DejaVuSans-65" transform="translate(440.332031 0)"/>
      <use xlink:href="#DejaVuSans-73" transform="translate(501.855469 0)"/>
     </g>
    </g>
    <g id="line2d_19">
     <path d="M 175.645784 231.460312 
L 185.645784 231.460312 
L 195.645784 231.460312 
" style="fill: none; stroke: #ff7f0e; stroke-width: 1.5; stroke-linecap: square"/>
    </g>
    <g id="text_19">
     <!-- OOD samples -->
     <g transform="translate(203.645784 234.960312) scale(0.1 -0.1)">
      <use xlink:href="#DejaVuSans-4f"/>
      <use xlink:href="#DejaVuSans-4f" transform="translate(78.710938 0)"/>
      <use xlink:href="#DejaVuSans-44" transform="translate(157.421875 0)"/>
      <use xlink:href="#DejaVuSans-20" transform="translate(234.423828 0)"/>
      <use xlink:href="#DejaVuSans-73" transform="translate(266.210938 0)"/>
      <use xlink:href="#DejaVuSans-61" transform="translate(318.310547 0)"/>
      <use xlink:href="#DejaVuSans-6d" transform="translate(379.589844 0)"/>
      <use xlink:href="#DejaVuSans-70" transform="translate(477.001953 0)"/>
      <use xlink:href="#DejaVuSans-6c" transform="translate(540.478516 0)"/>
      <use xlink:href="#DejaVuSans-65" transform="translate(568.261719 0)"/>
      <use xlink:href="#DejaVuSans-73" transform="translate(629.785156 0)"/>
     </g>
    </g>
   </g>
  </g>
  <g id="axes_2">
   <g id="patch_8">
    <path d="M 332.085154 246.04 
L 565.2 246.04 
L 565.2 34.75125 
L 332.085154 34.75125 
z
" style="fill: #ffffff"/>
   </g>
   <g id="patch_9">
    <path d="M 342.681283 246.04 
L 351.158185 246.04 
L 351.158185 245.761402 
L 342.681283 245.761402 
z
" clip-path="url(#pc6c7ee5cf2)" style="fill: #1f77b4; opacity: 0.5"/>
   </g>
   <g id="patch_10">
    <path d="M 351.158185 246.04 
L 359.635091 246.04 
L 359.635091 245.403205 
L 351.158185 245.403205 
z
" clip-path="url(#pc6c7ee5cf2)" style="fill: #1f77b4; opacity: 0.5"/>
   </g>
   <g id="patch_11">
    <path d="M 359.635091 246.04 
L 368.111997 246.04 
L 368.111997 245.084808 
L 359.635091 245.084808 
z
" clip-path="url(#pc6c7ee5cf2)" style="fill: #1f77b4; opacity: 0.5"/>
   </g>
   <g id="patch_12">
    <path d="M 368.111997 246.04 
L 376.588903 246.04 
L 376.588903 244.686811 
L 368.111997 244.686811 
z
" clip-path="url(#pc6c7ee5cf2)" style="fill: #1f77b4; opacity: 0.5"/>
   </g>
   <g id="patch_13">
    <path d="M 376.588903 246.04 
L 385.065801 246.04 
L 385.065801 242.736623 
L 376.588903 242.736623 
z
" clip-path="url(#pc6c7ee5cf2)" style="fill: #1f77b4; opacity: 0.5"/>
   </g>
   <g id="patch_14">
    <path d="M 385.065801 246.04 
L 393.542707 246.04 
L 393.542707 242.418229 
L 385.065801 242.418229 
z
" clip-path="url(#pc6c7ee5cf2)" style="fill: #1f77b4; opacity: 0.5"/>
   </g>
   <g id="patch_15">
    <path d="M 393.542707 246.04 
L 402.019612 246.04 
L 402.019612 241.264038 
L 393.542707 241.264038 
z
" clip-path="url(#pc6c7ee5cf2)" style="fill: #1f77b4; opacity: 0.5"/>
   </g>
   <g id="patch_16">
    <path d="M 402.019612 246.04 
L 410.49651 246.04 
L 410.49651 240.706838 
L 402.019612 240.706838 
z
" clip-path="url(#pc6c7ee5cf2)" style="fill: #1f77b4; opacity: 0.5"/>
   </g>
   <g id="patch_17">
    <path d="M 410.49651 246.04 
L 418.973424 246.04 
L 418.973424 240.348651 
L 410.49651 240.348651 
z
" clip-path="url(#pc6c7ee5cf2)" style="fill: #1f77b4; opacity: 0.5"/>
   </g>
   <g id="patch_18">
    <path d="M 418.973424 246.04 
L 427.450322 246.04 
L 427.450322 236.687066 
L 418.973424 236.687066 
z
" clip-path="url(#pc6c7ee5cf2)" style="fill: #1f77b4; opacity: 0.5"/>
   </g>
   <g id="patch_19">
    <path d="M 427.450322 246.04 
L 435.92722 246.04 
L 435.92722 238.000457 
L 427.450322 238.000457 
z
" clip-path="url(#pc6c7ee5cf2)" style="fill: #1f77b4; opacity: 0.5"/>
   </g>
   <g id="patch_20">
    <path d="M 435.92722 246.04 
L 444.404134 246.04 
L 444.404134 238.478067 
L 435.92722 238.478067 
z
" clip-path="url(#pc6c7ee5cf2)" style="fill: #1f77b4; opacity: 0.5"/>
   </g>
   <g id="patch_21">
    <path d="M 444.404134 246.04 
L 452.881032 246.04 
L 452.881032 238.000457 
L 444.404134 238.000457 
z
" clip-path="url(#pc6c7ee5cf2)" style="fill: #1f77b4; opacity: 0.5"/>
   </g>
   <g id="patch_22">
    <path d="M 452.881032 246.04 
L 461.35793 246.04 
L 461.35793 237.244262 
L 452.881032 237.244262 
z
" clip-path="url(#pc6c7ee5cf2)" style="fill: #1f77b4; opacity: 0.5"/>
   </g>
   <g id="patch_23">
    <path d="M 461.35793 246.04 
L 469.834844 246.04 
L 469.834844 237.682075 
L 461.35793 237.682075 
z
" clip-path="url(#pc6c7ee5cf2)" style="fill: #1f77b4; opacity: 0.5"/>
   </g>
   <g id="patch_24">
    <path d="M 469.834844 246.04 
L 478.311742 246.04 
L 478.311742 237.244262 
L 469.834844 237.244262 
z
" clip-path="url(#pc6c7ee5cf2)" style="fill: #1f77b4; opacity: 0.5"/>
   </g>
   <g id="patch_25">
    <path d="M 478.311742 246.04 
L 486.788639 246.04 
L 486.788639 236.925864 
L 478.311742 236.925864 
z
" clip-path="url(#pc6c7ee5cf2)" style="fill: #1f77b4; opacity: 0.5"/>
   </g>
   <g id="patch_26">
    <path d="M 486.788639 246.04 
L 495.265553 246.04 
L 495.265553 236.010489 
L 486.788639 236.010489 
z
" clip-path="url(#pc6c7ee5cf2)" style="fill: #1f77b4; opacity: 0.5"/>
   </g>
   <g id="patch_27">
    <path d="M 495.265553 246.04 
L 503.742451 246.04 
L 503.742451 236.527867 
L 495.265553 236.527867 
z
" clip-path="url(#pc6c7ee5cf2)" style="fill: #1f77b4; opacity: 0.5"/>
   </g>
   <g id="patch_28">
    <path d="M 503.742451 246.04 
L 512.219365 246.04 
L 512.219365 235.294096 
L 503.742451 235.294096 
z
" clip-path="url(#pc6c7ee5cf2)" style="fill: #1f77b4; opacity: 0.5"/>
   </g>
   <g id="patch_29">
    <path d="M 512.219365 246.04 
L 520.696263 246.04 
L 520.696263 234.139884 
L 512.219365 234.139884 
z
" clip-path="url(#pc6c7ee5cf2)" style="fill: #1f77b4; opacity: 0.5"/>
   </g>
   <g id="patch_30">
    <path d="M 520.696263 246.04 
L 529.173161 246.04 
L 529.173161 232.030499 
L 520.696263 232.030499 
z
" clip-path="url(#pc6c7ee5cf2)" style="fill: #1f77b4; opacity: 0.5"/>
   </g>
   <g id="patch_31">
    <path d="M 529.173161 246.04 
L 537.650075 246.04 
L 537.650075 228.289358 
L 529.173161 228.289358 
z
" clip-path="url(#pc6c7ee5cf2)" style="fill: #1f77b4; opacity: 0.5"/>
   </g>
   <g id="patch_32">
    <path d="M 537.650075 246.04 
L 546.126973 246.04 
L 546.126973 217.225003 
L 537.650075 217.225003 
z
" clip-path="url(#pc6c7ee5cf2)" style="fill: #1f77b4; opacity: 0.5"/>
   </g>
   <g id="patch_33">
    <path d="M 546.126973 246.04 
L 554.603871 246.04 
L 554.603871 44.812619 
L 546.126973 44.812619 
z
" clip-path="url(#pc6c7ee5cf2)" style="fill: #1f77b4; opacity: 0.5"/>
   </g>
   <g id="patch_34">
    <path d="M 346.615762 246.04 
L 354.928323 246.04 
L 354.928323 245.065923 
L 346.615762 245.065923 
z
" clip-path="url(#pc6c7ee5cf2)" style="fill: #ff7f0e; opacity: 0.5"/>
   </g>
   <g id="patch_35">
    <path d="M 354.928323 246.04 
L 363.240885 246.04 
L 363.240885 242.955422 
L 354.928323 242.955422 
z
" clip-path="url(#pc6c7ee5cf2)" style="fill: #ff7f0e; opacity: 0.5"/>
   </g>
   <g id="patch_36">
    <path d="M 363.240885 246.04 
L 371.55345 246.04 
L 371.55345 240.033194 
L 363.240885 240.033194 
z
" clip-path="url(#pc6c7ee5cf2)" style="fill: #ff7f0e; opacity: 0.5"/>
   </g>
   <g id="patch_37">
    <path d="M 371.55345 246.04 
L 379.866007 246.04 
L 379.866007 238.734418 
L 371.55345 238.734418 
z
" clip-path="url(#pc6c7ee5cf2)" style="fill: #ff7f0e; opacity: 0.5"/>
   </g>
   <g id="patch_38">
    <path d="M 379.866007 246.04 
L 388.178564 246.04 
L 388.178564 235.487493 
L 379.866007 235.487493 
z
" clip-path="url(#pc6c7ee5cf2)" style="fill: #ff7f0e; opacity: 0.5"/>
   </g>
   <g id="patch_39">
    <path d="M 388.178564 246.04 
L 396.49113 246.04 
L 396.49113 230.292427 
L 388.178564 230.292427 
z
" clip-path="url(#pc6c7ee5cf2)" style="fill: #ff7f0e; opacity: 0.5"/>
   </g>
   <g id="patch_40">
    <path d="M 396.49113 246.04 
L 404.803695 246.04 
L 404.803695 231.591196 
L 396.49113 231.591196 
z
" clip-path="url(#pc6c7ee5cf2)" style="fill: #ff7f0e; opacity: 0.5"/>
   </g>
   <g id="patch_41">
    <path d="M 404.803695 246.04 
L 413.116252 246.04 
L 413.116252 222.98683 
L 404.803695 222.98683 
z
" clip-path="url(#pc6c7ee5cf2)" style="fill: #ff7f0e; opacity: 0.5"/>
   </g>
   <g id="patch_42">
    <path d="M 413.116252 246.04 
L 421.428809 246.04 
L 421.428809 224.447947 
L 413.116252 224.447947 
z
" clip-path="url(#pc6c7ee5cf2)" style="fill: #ff7f0e; opacity: 0.5"/>
   </g>
   <g id="patch_43">
    <path d="M 421.428809 246.04 
L 429.741367 246.04 
L 429.741367 224.772639 
L 421.428809 224.772639 
z
" clip-path="url(#pc6c7ee5cf2)" style="fill: #ff7f0e; opacity: 0.5"/>
   </g>
   <g id="patch_44">
    <path d="M 429.741367 246.04 
L 438.05394 246.04 
L 438.05394 224.935026 
L 429.741367 224.935026 
z
" clip-path="url(#pc6c7ee5cf2)" style="fill: #ff7f0e; opacity: 0.5"/>
   </g>
   <g id="patch_45">
    <path d="M 438.05394 246.04 
L 446.366497 246.04 
L 446.366497 228.019564 
L 438.05394 228.019564 
z
" clip-path="url(#pc6c7ee5cf2)" style="fill: #ff7f0e; opacity: 0.5"/>
   </g>
   <g id="patch_46">
    <path d="M 446.366497 246.04 
L 454.679054 246.04 
L 454.679054 229.480681 
L 446.366497 229.480681 
z
" clip-path="url(#pc6c7ee5cf2)" style="fill: #ff7f0e; opacity: 0.5"/>
   </g>
   <g id="patch_47">
    <path d="M 454.679054 246.04 
L 462.991627 246.04 
L 462.991627 228.344291 
L 454.679054 228.344291 
z
" clip-path="url(#pc6c7ee5cf2)" style="fill: #ff7f0e; opacity: 0.5"/>
   </g>
   <g id="patch_48">
    <path d="M 462.991627 246.04 
L 471.304185 246.04 
L 471.304185 227.532526 
L 462.991627 227.532526 
z
" clip-path="url(#pc6c7ee5cf2)" style="fill: #ff7f0e; opacity: 0.5"/>
   </g>
   <g id="patch_49">
    <path d="M 471.304185 246.04 
L 479.616742 246.04 
L 479.616742 225.58437 
L 471.304185 225.58437 
z
" clip-path="url(#pc6c7ee5cf2)" style="fill: #ff7f0e; opacity: 0.5"/>
   </g>
   <g id="patch_50">
    <path d="M 479.616742 246.04 
L 487.929299 246.04 
L 487.929299 228.344257 
L 479.616742 228.344257 
z
" clip-path="url(#pc6c7ee5cf2)" style="fill: #ff7f0e; opacity: 0.5"/>
   </g>
   <g id="patch_51">
    <path d="M 487.929299 246.04 
L 496.241857 246.04 
L 496.241857 230.617105 
L 487.929299 230.617105 
z
" clip-path="url(#pc6c7ee5cf2)" style="fill: #ff7f0e; opacity: 0.5"/>
   </g>
   <g id="patch_52">
    <path d="M 496.241857 246.04 
L 504.55443 246.04 
L 504.55443 230.292442 
L 496.241857 230.292442 
z
" clip-path="url(#pc6c7ee5cf2)" style="fill: #ff7f0e; opacity: 0.5"/>
   </g>
   <g id="patch_53">
    <path d="M 504.55443 246.04 
L 512.866987 246.04 
L 512.866987 228.181911 
L 504.55443 228.181911 
z
" clip-path="url(#pc6c7ee5cf2)" style="fill: #ff7f0e; opacity: 0.5"/>
   </g>
   <g id="patch_54">
    <path d="M 512.866987 246.04 
L 521.179544 246.04 
L 521.179544 230.292412 
L 512.866987 230.292412 
z
" clip-path="url(#pc6c7ee5cf2)" style="fill: #ff7f0e; opacity: 0.5"/>
   </g>
   <g id="patch_55">
    <path d="M 521.179544 246.04 
L 529.492117 246.04 
L 529.492117 231.104172 
L 521.179544 231.104172 
z
" clip-path="url(#pc6c7ee5cf2)" style="fill: #ff7f0e; opacity: 0.5"/>
   </g>
   <g id="patch_56">
    <path d="M 529.492117 246.04 
L 537.804675 246.04 
L 537.804675 222.824484 
L 529.492117 222.824484 
z
" clip-path="url(#pc6c7ee5cf2)" style="fill: #ff7f0e; opacity: 0.5"/>
   </g>
   <g id="patch_57">
    <path d="M 537.804675 246.04 
L 546.117232 246.04 
L 546.117232 225.746717 
L 537.804675 225.746717 
z
" clip-path="url(#pc6c7ee5cf2)" style="fill: #ff7f0e; opacity: 0.5"/>
   </g>
   <g id="patch_58">
    <path d="M 546.117232 246.04 
L 554.429789 246.04 
L 554.429789 217.467057 
L 546.117232 217.467057 
z
" clip-path="url(#pc6c7ee5cf2)" style="fill: #ff7f0e; opacity: 0.5"/>
   </g>
   <g id="matplotlib.axis_3">
    <g id="xtick_7">
     <g id="line2d_20">
      <g>
       <use xlink:href="#m521ef6c253" x="342.370343" y="246.04" style="stroke: #000000; stroke-width: 0.8"/>
      </g>
     </g>
     <g id="text_20">
      <!-- 0.2 -->
      <g transform="translate(334.41878 260.638438) scale(0.1 -0.1)">
       <use xlink:href="#DejaVuSans-30"/>
       <use xlink:href="#DejaVuSans-2e" transform="translate(63.623047 0)"/>
       <use xlink:href="#DejaVuSans-32" transform="translate(95.410156 0)"/>
      </g>
     </g>
    </g>
    <g id="xtick_8">
     <g id="line2d_21">
      <g>
       <use xlink:href="#m521ef6c253" x="395.428725" y="246.04" style="stroke: #000000; stroke-width: 0.8"/>
      </g>
     </g>
     <g id="text_21">
      <!-- 0.4 -->
      <g transform="translate(387.477162 260.638438) scale(0.1 -0.1)">
       <use xlink:href="#DejaVuSans-30"/>
       <use xlink:href="#DejaVuSans-2e" transform="translate(63.623047 0)"/>
       <use xlink:href="#DejaVuSans-34" transform="translate(95.410156 0)"/>
      </g>
     </g>
    </g>
    <g id="xtick_9">
     <g id="line2d_22">
      <g>
       <use xlink:href="#m521ef6c253" x="448.487107" y="246.04" style="stroke: #000000; stroke-width: 0.8"/>
      </g>
     </g>
     <g id="text_22">
      <!-- 0.6 -->
      <g transform="translate(440.535544 260.638438) scale(0.1 -0.1)">
       <use xlink:href="#DejaVuSans-30"/>
       <use xlink:href="#DejaVuSans-2e" transform="translate(63.623047 0)"/>
       <use xlink:href="#DejaVuSans-36" transform="translate(95.410156 0)"/>
      </g>
     </g>
    </g>
    <g id="xtick_10">
     <g id="line2d_23">
      <g>
       <use xlink:href="#m521ef6c253" x="501.545489" y="246.04" style="stroke: #000000; stroke-width: 0.8"/>
      </g>
     </g>
     <g id="text_23">
      <!-- 0.8 -->
      <g transform="translate(493.593926 260.638438) scale(0.1 -0.1)">
       <use xlink:href="#DejaVuSans-30"/>
       <use xlink:href="#DejaVuSans-2e" transform="translate(63.623047 0)"/>
       <use xlink:href="#DejaVuSans-38" transform="translate(95.410156 0)"/>
      </g>
     </g>
    </g>
    <g id="xtick_11">
     <g id="line2d_24">
      <g>
       <use xlink:href="#m521ef6c253" x="554.603871" y="246.04" style="stroke: #000000; stroke-width: 0.8"/>
      </g>
     </g>
     <g id="text_24">
      <!-- 1.0 -->
      <g transform="translate(546.652308 260.638438) scale(0.1 -0.1)">
       <use xlink:href="#DejaVuSans-31"/>
       <use xlink:href="#DejaVuSans-2e" transform="translate(63.623047 0)"/>
       <use xlink:href="#DejaVuSans-30" transform="translate(95.410156 0)"/>
      </g>
     </g>
    </g>
    <g id="text_25">
     <!-- Scores -->
     <g transform="translate(432.035546 274.316562) scale(0.1 -0.1)">
      <use xlink:href="#DejaVuSans-53"/>
      <use xlink:href="#DejaVuSans-63" transform="translate(63.476562 0)"/>
      <use xlink:href="#DejaVuSans-6f" transform="translate(118.457031 0)"/>
      <use xlink:href="#DejaVuSans-72" transform="translate(179.638672 0)"/>
      <use xlink:href="#DejaVuSans-65" transform="translate(218.501953 0)"/>
      <use xlink:href="#DejaVuSans-73" transform="translate(280.025391 0)"/>
     </g>
    </g>
   </g>
   <g id="matplotlib.axis_4">
    <g id="ytick_10">
     <g id="line2d_25">
      <g>
       <use xlink:href="#m3d4a6aaf0b" x="332.085154" y="246.04" style="stroke: #000000; stroke-width: 0.8"/>
      </g>
     </g>
     <g id="text_26">
      <!-- 0 -->
      <g transform="translate(318.722654 249.839219) scale(0.1 -0.1)">
       <use xlink:href="#DejaVuSans-30"/>
      </g>
     </g>
    </g>
    <g id="ytick_11">
     <g id="line2d_26">
      <g>
       <use xlink:href="#m3d4a6aaf0b" x="332.085154" y="220.605515" style="stroke: #000000; stroke-width: 0.8"/>
      </g>
     </g>
     <g id="text_27">
      <!-- 2 -->
      <g transform="translate(318.722654 224.404733) scale(0.1 -0.1)">
       <use xlink:href="#DejaVuSans-32"/>
      </g>
     </g>
    </g>
    <g id="ytick_12">
     <g id="line2d_27">
      <g>
       <use xlink:href="#m3d4a6aaf0b" x="332.085154" y="195.171029" style="stroke: #000000; stroke-width: 0.8"/>
      </g>
     </g>
     <g id="text_28">
      <!-- 4 -->
      <g transform="translate(318.722654 198.970248) scale(0.1 -0.1)">
       <use xlink:href="#DejaVuSans-34"/>
      </g>
     </g>
    </g>
    <g id="ytick_13">
     <g id="line2d_28">
      <g>
       <use xlink:href="#m3d4a6aaf0b" x="332.085154" y="169.736544" style="stroke: #000000; stroke-width: 0.8"/>
      </g>
     </g>
     <g id="text_29">
      <!-- 6 -->
      <g transform="translate(318.722654 173.535763) scale(0.1 -0.1)">
       <use xlink:href="#DejaVuSans-36"/>
      </g>
     </g>
    </g>
    <g id="ytick_14">
     <g id="line2d_29">
      <g>
       <use xlink:href="#m3d4a6aaf0b" x="332.085154" y="144.302059" style="stroke: #000000; stroke-width: 0.8"/>
      </g>
     </g>
     <g id="text_30">
      <!-- 8 -->
      <g transform="translate(318.722654 148.101277) scale(0.1 -0.1)">
       <use xlink:href="#DejaVuSans-38"/>
      </g>
     </g>
    </g>
    <g id="ytick_15">
     <g id="line2d_30">
      <g>
       <use xlink:href="#m3d4a6aaf0b" x="332.085154" y="118.867573" style="stroke: #000000; stroke-width: 0.8"/>
      </g>
     </g>
     <g id="text_31">
      <!-- 10 -->
      <g transform="translate(312.360154 122.666792) scale(0.1 -0.1)">
       <use xlink:href="#DejaVuSans-31"/>
       <use xlink:href="#DejaVuSans-30" transform="translate(63.623047 0)"/>
      </g>
     </g>
    </g>
    <g id="ytick_16">
     <g id="line2d_31">
      <g>
       <use xlink:href="#m3d4a6aaf0b" x="332.085154" y="93.433088" style="stroke: #000000; stroke-width: 0.8"/>
      </g>
     </g>
     <g id="text_32">
      <!-- 12 -->
      <g transform="translate(312.360154 97.232307) scale(0.1 -0.1)">
       <use xlink:href="#DejaVuSans-31"/>
       <use xlink:href="#DejaVuSans-32" transform="translate(63.623047 0)"/>
      </g>
     </g>
    </g>
    <g id="ytick_17">
     <g id="line2d_32">
      <g>
       <use xlink:href="#m3d4a6aaf0b" x="332.085154" y="67.998602" style="stroke: #000000; stroke-width: 0.8"/>
      </g>
     </g>
     <g id="text_33">
      <!-- 14 -->
      <g transform="translate(312.360154 71.797821) scale(0.1 -0.1)">
       <use xlink:href="#DejaVuSans-31"/>
       <use xlink:href="#DejaVuSans-34" transform="translate(63.623047 0)"/>
      </g>
     </g>
    </g>
    <g id="ytick_18">
     <g id="line2d_33">
      <g>
       <use xlink:href="#m3d4a6aaf0b" x="332.085154" y="42.564117" style="stroke: #000000; stroke-width: 0.8"/>
      </g>
     </g>
     <g id="text_34">
      <!-- 16 -->
      <g transform="translate(312.360154 46.363336) scale(0.1 -0.1)">
       <use xlink:href="#DejaVuSans-31"/>
       <use xlink:href="#DejaVuSans-36" transform="translate(63.623047 0)"/>
      </g>
     </g>
    </g>
    <g id="text_35">
     <!-- Density -->
     <g transform="translate(306.280466 159.404219) rotate(-90) scale(0.1 -0.1)">
      <defs>
       <path id="DejaVuSans-6e" d="M 3513 2113 
L 3513 0 
L 2938 0 
L 2938 2094 
Q 2938 2591 2744 2837 
Q 2550 3084 2163 3084 
Q 1697 3084 1428 2787 
Q 1159 2491 1159 1978 
L 1159 0 
L 581 0 
L 581 3500 
L 1159 3500 
L 1159 2956 
Q 1366 3272 1645 3428 
Q 1925 3584 2291 3584 
Q 2894 3584 3203 3211 
Q 3513 2838 3513 2113 
z
" transform="scale(0.015625)"/>
       <path id="DejaVuSans-69" d="M 603 3500 
L 1178 3500 
L 1178 0 
L 603 0 
L 603 3500 
z
M 603 4863 
L 1178 4863 
L 1178 4134 
L 603 4134 
L 603 4863 
z
" transform="scale(0.015625)"/>
       <path id="DejaVuSans-74" d="M 1172 4494 
L 1172 3500 
L 2356 3500 
L 2356 3053 
L 1172 3053 
L 1172 1153 
Q 1172 725 1289 603 
Q 1406 481 1766 481 
L 2356 481 
L 2356 0 
L 1766 0 
Q 1100 0 847 248 
Q 594 497 594 1153 
L 594 3053 
L 172 3053 
L 172 3500 
L 594 3500 
L 594 4494 
L 1172 4494 
z
" transform="scale(0.015625)"/>
       <path id="DejaVuSans-79" d="M 2059 -325 
Q 1816 -950 1584 -1140 
Q 1353 -1331 966 -1331 
L 506 -1331 
L 506 -850 
L 844 -850 
Q 1081 -850 1212 -737 
Q 1344 -625 1503 -206 
L 1606 56 
L 191 3500 
L 800 3500 
L 1894 763 
L 2988 3500 
L 3597 3500 
L 2059 -325 
z
" transform="scale(0.015625)"/>
      </defs>
      <use xlink:href="#DejaVuSans-44"/>
      <use xlink:href="#DejaVuSans-65" transform="translate(77.001953 0)"/>
      <use xlink:href="#DejaVuSans-6e" transform="translate(138.525391 0)"/>
      <use xlink:href="#DejaVuSans-73" transform="translate(201.904297 0)"/>
      <use xlink:href="#DejaVuSans-69" transform="translate(254.003906 0)"/>
      <use xlink:href="#DejaVuSans-74" transform="translate(281.787109 0)"/>
      <use xlink:href="#DejaVuSans-79" transform="translate(320.996094 0)"/>
     </g>
    </g>
   </g>
   <g id="patch_59">
    <path d="M 332.085154 246.04 
L 332.085154 34.75125 
" style="fill: none; stroke: #000000; stroke-width: 0.8; stroke-linejoin: miter; stroke-linecap: square"/>
   </g>
   <g id="patch_60">
    <path d="M 565.2 246.04 
L 565.2 34.75125 
" style="fill: none; stroke: #000000; stroke-width: 0.8; stroke-linejoin: miter; stroke-linecap: square"/>
   </g>
   <g id="patch_61">
    <path d="M 332.085154 246.04 
L 565.2 246.04 
" style="fill: none; stroke: #000000; stroke-width: 0.8; stroke-linejoin: miter; stroke-linecap: square"/>
   </g>
   <g id="patch_62">
    <path d="M 332.085154 34.75125 
L 565.2 34.75125 
" style="fill: none; stroke: #000000; stroke-width: 0.8; stroke-linejoin: miter; stroke-linecap: square"/>
   </g>
   <g id="legend_2">
    <g id="patch_63">
     <path d="M 339.085154 72.1075 
L 439.274216 72.1075 
Q 441.274216 72.1075 441.274216 70.1075 
L 441.274216 41.75125 
Q 441.274216 39.75125 439.274216 39.75125 
L 339.085154 39.75125 
Q 337.085154 39.75125 337.085154 41.75125 
L 337.085154 70.1075 
Q 337.085154 72.1075 339.085154 72.1075 
z
" style="fill: #ffffff; opacity: 0.8; stroke: #cccccc; stroke-linejoin: miter"/>
    </g>
    <g id="patch_64">
     <path d="M 341.085154 51.349687 
L 361.085154 51.349687 
L 361.085154 44.349687 
L 341.085154 44.349687 
z
" style="fill: #1f77b4; opacity: 0.5"/>
    </g>
    <g id="text_36">
     <!-- ID samples -->
     <g transform="translate(369.085154 51.349687) scale(0.1 -0.1)">
      <use xlink:href="#DejaVuSans-49"/>
      <use xlink:href="#DejaVuSans-44" transform="translate(29.492188 0)"/>
      <use xlink:href="#DejaVuSans-20" transform="translate(106.494141 0)"/>
      <use xlink:href="#DejaVuSans-73" transform="translate(138.28125 0)"/>
      <use xlink:href="#DejaVuSans-61" transform="translate(190.380859 0)"/>
      <use xlink:href="#DejaVuSans-6d" transform="translate(251.660156 0)"/>
      <use xlink:href="#DejaVuSans-70" transform="translate(349.072266 0)"/>
      <use xlink:href="#DejaVuSans-6c" transform="translate(412.548828 0)"/>
      <use xlink:href="#DejaVuSans-65" transform="translate(440.332031 0)"/>
      <use xlink:href="#DejaVuSans-73" transform="translate(501.855469 0)"/>
     </g>
    </g>
    <g id="patch_65">
     <path d="M 341.085154 66.027812 
L 361.085154 66.027812 
L 361.085154 59.027812 
L 341.085154 59.027812 
z
" style="fill: #ff7f0e; opacity: 0.5"/>
    </g>
    <g id="text_37">
     <!-- OOD samples -->
     <g transform="translate(369.085154 66.027812) scale(0.1 -0.1)">
      <use xlink:href="#DejaVuSans-4f"/>
      <use xlink:href="#DejaVuSans-4f" transform="translate(78.710938 0)"/>
      <use xlink:href="#DejaVuSans-44" transform="translate(157.421875 0)"/>
      <use xlink:href="#DejaVuSans-20" transform="translate(234.423828 0)"/>
      <use xlink:href="#DejaVuSans-73" transform="translate(266.210938 0)"/>
      <use xlink:href="#DejaVuSans-61" transform="translate(318.310547 0)"/>
      <use xlink:href="#DejaVuSans-6d" transform="translate(379.589844 0)"/>
      <use xlink:href="#DejaVuSans-70" transform="translate(477.001953 0)"/>
      <use xlink:href="#DejaVuSans-6c" transform="translate(540.478516 0)"/>
      <use xlink:href="#DejaVuSans-65" transform="translate(568.261719 0)"/>
      <use xlink:href="#DejaVuSans-73" transform="translate(629.785156 0)"/>
     </g>
    </g>
   </g>
  </g>
  <g id="text_38">
   <!-- Scores using max_softmax -->
   <g transform="translate(207.75 14.878125) scale(0.12 -0.12)">
    <defs>
     <path id="DejaVuSans-75" d="M 544 1381 
L 544 3500 
L 1119 3500 
L 1119 1403 
Q 1119 906 1312 657 
Q 1506 409 1894 409 
Q 2359 409 2629 706 
Q 2900 1003 2900 1516 
L 2900 3500 
L 3475 3500 
L 3475 0 
L 2900 0 
L 2900 538 
Q 2691 219 2414 64 
Q 2138 -91 1772 -91 
Q 1169 -91 856 284 
Q 544 659 544 1381 
z
M 1991 3584 
L 1991 3584 
z
" transform="scale(0.015625)"/>
     <path id="DejaVuSans-67" d="M 2906 1791 
Q 2906 2416 2648 2759 
Q 2391 3103 1925 3103 
Q 1463 3103 1205 2759 
Q 947 2416 947 1791 
Q 947 1169 1205 825 
Q 1463 481 1925 481 
Q 2391 481 2648 825 
Q 2906 1169 2906 1791 
z
M 3481 434 
Q 3481 -459 3084 -895 
Q 2688 -1331 1869 -1331 
Q 1566 -1331 1297 -1286 
Q 1028 -1241 775 -1147 
L 775 -588 
Q 1028 -725 1275 -790 
Q 1522 -856 1778 -856 
Q 2344 -856 2625 -561 
Q 2906 -266 2906 331 
L 2906 616 
Q 2728 306 2450 153 
Q 2172 0 1784 0 
Q 1141 0 747 490 
Q 353 981 353 1791 
Q 353 2603 747 3093 
Q 1141 3584 1784 3584 
Q 2172 3584 2450 3431 
Q 2728 3278 2906 2969 
L 2906 3500 
L 3481 3500 
L 3481 434 
z
" transform="scale(0.015625)"/>
     <path id="DejaVuSans-78" d="M 3513 3500 
L 2247 1797 
L 3578 0 
L 2900 0 
L 1881 1375 
L 863 0 
L 184 0 
L 1544 1831 
L 300 3500 
L 978 3500 
L 1906 2253 
L 2834 3500 
L 3513 3500 
z
" transform="scale(0.015625)"/>
     <path id="DejaVuSans-5f" d="M 3263 -1063 
L 3263 -1509 
L -63 -1509 
L -63 -1063 
L 3263 -1063 
z
" transform="scale(0.015625)"/>
     <path id="DejaVuSans-66" d="M 2375 4863 
L 2375 4384 
L 1825 4384 
Q 1516 4384 1395 4259 
Q 1275 4134 1275 3809 
L 1275 3500 
L 2222 3500 
L 2222 3053 
L 1275 3053 
L 1275 0 
L 697 0 
L 697 3053 
L 147 3053 
L 147 3500 
L 697 3500 
L 697 3744 
Q 697 4328 969 4595 
Q 1241 4863 1831 4863 
L 2375 4863 
z
" transform="scale(0.015625)"/>
    </defs>
    <use xlink:href="#DejaVuSans-53"/>
    <use xlink:href="#DejaVuSans-63" transform="translate(63.476562 0)"/>
    <use xlink:href="#DejaVuSans-6f" transform="translate(118.457031 0)"/>
    <use xlink:href="#DejaVuSans-72" transform="translate(179.638672 0)"/>
    <use xlink:href="#DejaVuSans-65" transform="translate(218.501953 0)"/>
    <use xlink:href="#DejaVuSans-73" transform="translate(280.025391 0)"/>
    <use xlink:href="#DejaVuSans-20" transform="translate(332.125 0)"/>
    <use xlink:href="#DejaVuSans-75" transform="translate(363.912109 0)"/>
    <use xlink:href="#DejaVuSans-73" transform="translate(427.291016 0)"/>
    <use xlink:href="#DejaVuSans-69" transform="translate(479.390625 0)"/>
    <use xlink:href="#DejaVuSans-6e" transform="translate(507.173828 0)"/>
    <use xlink:href="#DejaVuSans-67" transform="translate(570.552734 0)"/>
    <use xlink:href="#DejaVuSans-20" transform="translate(634.029297 0)"/>
    <use xlink:href="#DejaVuSans-6d" transform="translate(665.816406 0)"/>
    <use xlink:href="#DejaVuSans-61" transform="translate(763.228516 0)"/>
    <use xlink:href="#DejaVuSans-78" transform="translate(824.507812 0)"/>
    <use xlink:href="#DejaVuSans-5f" transform="translate(883.6875 0)"/>
    <use xlink:href="#DejaVuSans-73" transform="translate(933.6875 0)"/>
    <use xlink:href="#DejaVuSans-6f" transform="translate(985.787109 0)"/>
    <use xlink:href="#DejaVuSans-66" transform="translate(1046.96875 0)"/>
    <use xlink:href="#DejaVuSans-74" transform="translate(1080.423828 0)"/>
    <use xlink:href="#DejaVuSans-6d" transform="translate(1119.632812 0)"/>
    <use xlink:href="#DejaVuSans-61" transform="translate(1217.044922 0)"/>
    <use xlink:href="#DejaVuSans-78" transform="translate(1278.324219 0)"/>
   </g>
  </g>
 </g>
 <defs>
  <clipPath id="p77ad648f7a">
   <rect x="47.72" y="34.75125" width="233.114846" height="211.28875"/>
  </clipPath>
  <clipPath id="pc6c7ee5cf2">
   <rect x="332.085154" y="34.75125" width="233.114846" height="211.28875"/>
  </clipPath>
 </defs>
</svg>
