<?xml version="1.0" encoding="utf-8" standalone="no"?>
<!DOCTYPE svg PUBLIC "-//W3C//DTD SVG 1.1//EN"
  "http://www.w3.org/Graphics/SVG/1.1/DTD/svg11.dtd">
<svg xmlns:xlink="http://www.w3.org/1999/xlink" width="576pt" height="288pt" viewBox="0 0 576 288" xmlns="http://www.w3.org/2000/svg" version="1.1">
 <metadata>
  <rdf:RDF xmlns:dc="http://purl.org/dc/elements/1.1/" xmlns:cc="http://creativecommons.org/ns#" xmlns:rdf="http://www.w3.org/1999/02/22-rdf-syntax-ns#">
   <cc:Work>
    <dc:type rdf:resource="http://purl.org/dc/dcmitype/StillImage"/>
    <dc:date>2025-05-30T23:34:38.823105</dc:date>
    <dc:format>image/svg+xml</dc:format>
    <dc:creator>
     <cc:Agent>
      <dc:title>Matplotlib v3.10.1, https://matplotlib.org/</dc:title>
     </cc:Agent>
    </dc:creator>
   </cc:Work>
  </rdf:RDF>
 </metadata>
 <defs>
  <style type="text/css">*{stroke-linejoin: round; stroke-linecap: butt}</style>
 </defs>
 <g id="figure_1">
  <g id="patch_1">
   <path d="M 0 288 
L 576 288 
L 576 0 
L 0 0 
z
" style="fill: #ffffff"/>
  </g>
  <g id="axes_1">
   <g id="patch_2">
    <path d="M 60.32 246.04 
L 284.029846 246.04 
L 284.029846 34.56 
L 60.32 34.56 
z
" style="fill: #ffffff"/>
   </g>
   <g id="matplotlib.axis_1">
    <g id="xtick_1">
     <g id="line2d_1">
      <defs>
       <path id="m41484d30bb" d="M 0 0 
L 0 3.5 
" style="stroke: #000000; stroke-width: 0.8"/>
      </defs>
      <g>
       <use xlink:href="#m41484d30bb" x="70.488629" y="246.04" style="stroke: #000000; stroke-width: 0.8"/>
      </g>
     </g>
     <g id="text_1">
      <!-- 0 -->
      <g transform="translate(67.307379 260.638438) scale(0.1 -0.1)">
       <defs>
        <path id="DejaVuSans-30" d="M 2034 4250 
Q 1547 4250 1301 3770 
Q 1056 3291 1056 2328 
Q 1056 1369 1301 889 
Q 1547 409 2034 409 
Q 2525 409 2770 889 
Q 3016 1369 3016 2328 
Q 3016 3291 2770 3770 
Q 2525 4250 2034 4250 
z
M 2034 4750 
Q 2819 4750 3233 4129 
Q 3647 3509 3647 2328 
Q 3647 1150 3233 529 
Q 2819 -91 2034 -91 
Q 1250 -91 836 529 
Q 422 1150 422 2328 
Q 422 3509 836 4129 
Q 1250 4750 2034 4750 
z
" transform="scale(0.015625)"/>
       </defs>
       <use xlink:href="#DejaVuSans-30"/>
      </g>
     </g>
    </g>
    <g id="xtick_2">
     <g id="line2d_2">
      <g>
       <use xlink:href="#m41484d30bb" x="111.167215" y="246.04" style="stroke: #000000; stroke-width: 0.8"/>
      </g>
     </g>
     <g id="text_2">
      <!-- 2000 -->
      <g transform="translate(98.442215 260.638438) scale(0.1 -0.1)">
       <defs>
        <path id="DejaVuSans-32" d="M 1228 531 
L 3431 531 
L 3431 0 
L 469 0 
L 469 531 
Q 828 903 1448 1529 
Q 2069 2156 2228 2338 
Q 2531 2678 2651 2914 
Q 2772 3150 2772 3378 
Q 2772 3750 2511 3984 
Q 2250 4219 1831 4219 
Q 1534 4219 1204 4116 
Q 875 4013 500 3803 
L 500 4441 
Q 881 4594 1212 4672 
Q 1544 4750 1819 4750 
Q 2544 4750 2975 4387 
Q 3406 4025 3406 3419 
Q 3406 3131 3298 2873 
Q 3191 2616 2906 2266 
Q 2828 2175 2409 1742 
Q 1991 1309 1228 531 
z
" transform="scale(0.015625)"/>
       </defs>
       <use xlink:href="#DejaVuSans-32"/>
       <use xlink:href="#DejaVuSans-30" transform="translate(63.623047 0)"/>
       <use xlink:href="#DejaVuSans-30" transform="translate(127.246094 0)"/>
       <use xlink:href="#DejaVuSans-30" transform="translate(190.869141 0)"/>
      </g>
     </g>
    </g>
    <g id="xtick_3">
     <g id="line2d_3">
      <g>
       <use xlink:href="#m41484d30bb" x="151.8458" y="246.04" style="stroke: #000000; stroke-width: 0.8"/>
      </g>
     </g>
     <g id="text_3">
      <!-- 4000 -->
      <g transform="translate(139.1208 260.638438) scale(0.1 -0.1)">
       <defs>
        <path id="DejaVuSans-34" d="M 2419 4116 
L 825 1625 
L 2419 1625 
L 2419 4116 
z
M 2253 4666 
L 3047 4666 
L 3047 1625 
L 3713 1625 
L 3713 1100 
L 3047 1100 
L 3047 0 
L 2419 0 
L 2419 1100 
L 313 1100 
L 313 1709 
L 2253 4666 
z
" transform="scale(0.015625)"/>
       </defs>
       <use xlink:href="#DejaVuSans-34"/>
       <use xlink:href="#DejaVuSans-30" transform="translate(63.623047 0)"/>
       <use xlink:href="#DejaVuSans-30" transform="translate(127.246094 0)"/>
       <use xlink:href="#DejaVuSans-30" transform="translate(190.869141 0)"/>
      </g>
     </g>
    </g>
    <g id="xtick_4">
     <g id="line2d_4">
      <g>
       <use xlink:href="#m41484d30bb" x="192.524385" y="246.04" style="stroke: #000000; stroke-width: 0.8"/>
      </g>
     </g>
     <g id="text_4">
      <!-- 6000 -->
      <g transform="translate(179.799385 260.638438) scale(0.1 -0.1)">
       <defs>
        <path id="DejaVuSans-36" d="M 2113 2584 
Q 1688 2584 1439 2293 
Q 1191 2003 1191 1497 
Q 1191 994 1439 701 
Q 1688 409 2113 409 
Q 2538 409 2786 701 
Q 3034 994 3034 1497 
Q 3034 2003 2786 2293 
Q 2538 2584 2113 2584 
z
M 3366 4563 
L 3366 3988 
Q 3128 4100 2886 4159 
Q 2644 4219 2406 4219 
Q 1781 4219 1451 3797 
Q 1122 3375 1075 2522 
Q 1259 2794 1537 2939 
Q 1816 3084 2150 3084 
Q 2853 3084 3261 2657 
Q 3669 2231 3669 1497 
Q 3669 778 3244 343 
Q 2819 -91 2113 -91 
Q 1303 -91 875 529 
Q 447 1150 447 2328 
Q 447 3434 972 4092 
Q 1497 4750 2381 4750 
Q 2619 4750 2861 4703 
Q 3103 4656 3366 4563 
z
" transform="scale(0.015625)"/>
       </defs>
       <use xlink:href="#DejaVuSans-36"/>
       <use xlink:href="#DejaVuSans-30" transform="translate(63.623047 0)"/>
       <use xlink:href="#DejaVuSans-30" transform="translate(127.246094 0)"/>
       <use xlink:href="#DejaVuSans-30" transform="translate(190.869141 0)"/>
      </g>
     </g>
    </g>
    <g id="xtick_5">
     <g id="line2d_5">
      <g>
       <use xlink:href="#m41484d30bb" x="233.202971" y="246.04" style="stroke: #000000; stroke-width: 0.8"/>
      </g>
     </g>
     <g id="text_5">
      <!-- 8000 -->
      <g transform="translate(220.477971 260.638438) scale(0.1 -0.1)">
       <defs>
        <path id="DejaVuSans-38" d="M 2034 2216 
Q 1584 2216 1326 1975 
Q 1069 1734 1069 1313 
Q 1069 891 1326 650 
Q 1584 409 2034 409 
Q 2484 409 2743 651 
Q 3003 894 3003 1313 
Q 3003 1734 2745 1975 
Q 2488 2216 2034 2216 
z
M 1403 2484 
Q 997 2584 770 2862 
Q 544 3141 544 3541 
Q 544 4100 942 4425 
Q 1341 4750 2034 4750 
Q 2731 4750 3128 4425 
Q 3525 4100 3525 3541 
Q 3525 3141 3298 2862 
Q 3072 2584 2669 2484 
Q 3125 2378 3379 2068 
Q 3634 1759 3634 1313 
Q 3634 634 3220 271 
Q 2806 -91 2034 -91 
Q 1263 -91 848 271 
Q 434 634 434 1313 
Q 434 1759 690 2068 
Q 947 2378 1403 2484 
z
M 1172 3481 
Q 1172 3119 1398 2916 
Q 1625 2713 2034 2713 
Q 2441 2713 2670 2916 
Q 2900 3119 2900 3481 
Q 2900 3844 2670 4047 
Q 2441 4250 2034 4250 
Q 1625 4250 1398 4047 
Q 1172 3844 1172 3481 
z
" transform="scale(0.015625)"/>
       </defs>
       <use xlink:href="#DejaVuSans-38"/>
       <use xlink:href="#DejaVuSans-30" transform="translate(63.623047 0)"/>
       <use xlink:href="#DejaVuSans-30" transform="translate(127.246094 0)"/>
       <use xlink:href="#DejaVuSans-30" transform="translate(190.869141 0)"/>
      </g>
     </g>
    </g>
    <g id="xtick_6">
     <g id="line2d_6">
      <g>
       <use xlink:href="#m41484d30bb" x="273.881556" y="246.04" style="stroke: #000000; stroke-width: 0.8"/>
      </g>
     </g>
     <g id="text_6">
      <!-- 10000 -->
      <g transform="translate(257.975306 260.638438) scale(0.1 -0.1)">
       <defs>
        <path id="DejaVuSans-31" d="M 794 531 
L 1825 531 
L 1825 4091 
L 703 3866 
L 703 4441 
L 1819 4666 
L 2450 4666 
L 2450 531 
L 3481 531 
L 3481 0 
L 794 0 
L 794 531 
z
" transform="scale(0.015625)"/>
       </defs>
       <use xlink:href="#DejaVuSans-31"/>
       <use xlink:href="#DejaVuSans-30" transform="translate(63.623047 0)"/>
       <use xlink:href="#DejaVuSans-30" transform="translate(127.246094 0)"/>
       <use xlink:href="#DejaVuSans-30" transform="translate(190.869141 0)"/>
       <use xlink:href="#DejaVuSans-30" transform="translate(254.492188 0)"/>
      </g>
     </g>
    </g>
    <g id="text_7">
     <!-- Ordered samples -->
     <g transform="translate(129.453829 274.316562) scale(0.1 -0.1)">
      <defs>
       <path id="DejaVuSans-4f" d="M 2522 4238 
Q 1834 4238 1429 3725 
Q 1025 3213 1025 2328 
Q 1025 1447 1429 934 
Q 1834 422 2522 422 
Q 3209 422 3611 934 
Q 4013 1447 4013 2328 
Q 4013 3213 3611 3725 
Q 3209 4238 2522 4238 
z
M 2522 4750 
Q 3503 4750 4090 4092 
Q 4678 3434 4678 2328 
Q 4678 1225 4090 567 
Q 3503 -91 2522 -91 
Q 1538 -91 948 565 
Q 359 1222 359 2328 
Q 359 3434 948 4092 
Q 1538 4750 2522 4750 
z
" transform="scale(0.015625)"/>
       <path id="DejaVuSans-72" d="M 2631 2963 
Q 2534 3019 2420 3045 
Q 2306 3072 2169 3072 
Q 1681 3072 1420 2755 
Q 1159 2438 1159 1844 
L 1159 0 
L 581 0 
L 581 3500 
L 1159 3500 
L 1159 2956 
Q 1341 3275 1631 3429 
Q 1922 3584 2338 3584 
Q 2397 3584 2469 3576 
Q 2541 3569 2628 3553 
L 2631 2963 
z
" transform="scale(0.015625)"/>
       <path id="DejaVuSans-64" d="M 2906 2969 
L 2906 4863 
L 3481 4863 
L 3481 0 
L 2906 0 
L 2906 525 
Q 2725 213 2448 61 
Q 2172 -91 1784 -91 
Q 1150 -91 751 415 
Q 353 922 353 1747 
Q 353 2572 751 3078 
Q 1150 3584 1784 3584 
Q 2172 3584 2448 3432 
Q 2725 3281 2906 2969 
z
M 947 1747 
Q 947 1113 1208 752 
Q 1469 391 1925 391 
Q 2381 391 2643 752 
Q 2906 1113 2906 1747 
Q 2906 2381 2643 2742 
Q 2381 3103 1925 3103 
Q 1469 3103 1208 2742 
Q 947 2381 947 1747 
z
" transform="scale(0.015625)"/>
       <path id="DejaVuSans-65" d="M 3597 1894 
L 3597 1613 
L 953 1613 
Q 991 1019 1311 708 
Q 1631 397 2203 397 
Q 2534 397 2845 478 
Q 3156 559 3463 722 
L 3463 178 
Q 3153 47 2828 -22 
Q 2503 -91 2169 -91 
Q 1331 -91 842 396 
Q 353 884 353 1716 
Q 353 2575 817 3079 
Q 1281 3584 2069 3584 
Q 2775 3584 3186 3129 
Q 3597 2675 3597 1894 
z
M 3022 2063 
Q 3016 2534 2758 2815 
Q 2500 3097 2075 3097 
Q 1594 3097 1305 2825 
Q 1016 2553 972 2059 
L 3022 2063 
z
" transform="scale(0.015625)"/>
       <path id="DejaVuSans-20" transform="scale(0.015625)"/>
       <path id="DejaVuSans-73" d="M 2834 3397 
L 2834 2853 
Q 2591 2978 2328 3040 
Q 2066 3103 1784 3103 
Q 1356 3103 1142 2972 
Q 928 2841 928 2578 
Q 928 2378 1081 2264 
Q 1234 2150 1697 2047 
L 1894 2003 
Q 2506 1872 2764 1633 
Q 3022 1394 3022 966 
Q 3022 478 2636 193 
Q 2250 -91 1575 -91 
Q 1294 -91 989 -36 
Q 684 19 347 128 
L 347 722 
Q 666 556 975 473 
Q 1284 391 1588 391 
Q 1994 391 2212 530 
Q 2431 669 2431 922 
Q 2431 1156 2273 1281 
Q 2116 1406 1581 1522 
L 1381 1569 
Q 847 1681 609 1914 
Q 372 2147 372 2553 
Q 372 3047 722 3315 
Q 1072 3584 1716 3584 
Q 2034 3584 2315 3537 
Q 2597 3491 2834 3397 
z
" transform="scale(0.015625)"/>
       <path id="DejaVuSans-61" d="M 2194 1759 
Q 1497 1759 1228 1600 
Q 959 1441 959 1056 
Q 959 750 1161 570 
Q 1363 391 1709 391 
Q 2188 391 2477 730 
Q 2766 1069 2766 1631 
L 2766 1759 
L 2194 1759 
z
M 3341 1997 
L 3341 0 
L 2766 0 
L 2766 531 
Q 2569 213 2275 61 
Q 1981 -91 1556 -91 
Q 1019 -91 701 211 
Q 384 513 384 1019 
Q 384 1609 779 1909 
Q 1175 2209 1959 2209 
L 2766 2209 
L 2766 2266 
Q 2766 2663 2505 2880 
Q 2244 3097 1772 3097 
Q 1472 3097 1187 3025 
Q 903 2953 641 2809 
L 641 3341 
Q 956 3463 1253 3523 
Q 1550 3584 1831 3584 
Q 2591 3584 2966 3190 
Q 3341 2797 3341 1997 
z
" transform="scale(0.015625)"/>
       <path id="DejaVuSans-6d" d="M 3328 2828 
Q 3544 3216 3844 3400 
Q 4144 3584 4550 3584 
Q 5097 3584 5394 3201 
Q 5691 2819 5691 2113 
L 5691 0 
L 5113 0 
L 5113 2094 
Q 5113 2597 4934 2840 
Q 4756 3084 4391 3084 
Q 3944 3084 3684 2787 
Q 3425 2491 3425 1978 
L 3425 0 
L 2847 0 
L 2847 2094 
Q 2847 2600 2669 2842 
Q 2491 3084 2119 3084 
Q 1678 3084 1418 2786 
Q 1159 2488 1159 1978 
L 1159 0 
L 581 0 
L 581 3500 
L 1159 3500 
L 1159 2956 
Q 1356 3278 1631 3431 
Q 1906 3584 2284 3584 
Q 2666 3584 2933 3390 
Q 3200 3197 3328 2828 
z
" transform="scale(0.015625)"/>
       <path id="DejaVuSans-70" d="M 1159 525 
L 1159 -1331 
L 581 -1331 
L 581 3500 
L 1159 3500 
L 1159 2969 
Q 1341 3281 1617 3432 
Q 1894 3584 2278 3584 
Q 2916 3584 3314 3078 
Q 3713 2572 3713 1747 
Q 3713 922 3314 415 
Q 2916 -91 2278 -91 
Q 1894 -91 1617 61 
Q 1341 213 1159 525 
z
M 3116 1747 
Q 3116 2381 2855 2742 
Q 2594 3103 2138 3103 
Q 1681 3103 1420 2742 
Q 1159 2381 1159 1747 
Q 1159 1113 1420 752 
Q 1681 391 2138 391 
Q 2594 391 2855 752 
Q 3116 1113 3116 1747 
z
" transform="scale(0.015625)"/>
       <path id="DejaVuSans-6c" d="M 603 4863 
L 1178 4863 
L 1178 0 
L 603 0 
L 603 4863 
z
" transform="scale(0.015625)"/>
      </defs>
      <use xlink:href="#DejaVuSans-4f"/>
      <use xlink:href="#DejaVuSans-72" transform="translate(78.710938 0)"/>
      <use xlink:href="#DejaVuSans-64" transform="translate(118.074219 0)"/>
      <use xlink:href="#DejaVuSans-65" transform="translate(181.550781 0)"/>
      <use xlink:href="#DejaVuSans-72" transform="translate(243.074219 0)"/>
      <use xlink:href="#DejaVuSans-65" transform="translate(281.9375 0)"/>
      <use xlink:href="#DejaVuSans-64" transform="translate(343.460938 0)"/>
      <use xlink:href="#DejaVuSans-20" transform="translate(406.9375 0)"/>
      <use xlink:href="#DejaVuSans-73" transform="translate(438.724609 0)"/>
      <use xlink:href="#DejaVuSans-61" transform="translate(490.824219 0)"/>
      <use xlink:href="#DejaVuSans-6d" transform="translate(552.103516 0)"/>
      <use xlink:href="#DejaVuSans-70" transform="translate(649.515625 0)"/>
      <use xlink:href="#DejaVuSans-6c" transform="translate(712.992188 0)"/>
      <use xlink:href="#DejaVuSans-65" transform="translate(740.775391 0)"/>
      <use xlink:href="#DejaVuSans-73" transform="translate(802.298828 0)"/>
     </g>
    </g>
   </g>
   <g id="matplotlib.axis_2">
    <g id="ytick_1">
     <g id="line2d_7">
      <defs>
       <path id="m2f03eb80f0" d="M 0 0 
L -3.5 0 
" style="stroke: #000000; stroke-width: 0.8"/>
      </defs>
      <g>
       <use xlink:href="#m2f03eb80f0" x="60.32" y="240.259997" style="stroke: #000000; stroke-width: 0.8"/>
      </g>
     </g>
     <g id="text_8">
      <!-- 0.000 -->
      <g transform="translate(24.691875 244.059216) scale(0.1 -0.1)">
       <defs>
        <path id="DejaVuSans-2e" d="M 684 794 
L 1344 794 
L 1344 0 
L 684 0 
L 684 794 
z
" transform="scale(0.015625)"/>
       </defs>
       <use xlink:href="#DejaVuSans-30"/>
       <use xlink:href="#DejaVuSans-2e" transform="translate(63.623047 0)"/>
       <use xlink:href="#DejaVuSans-30" transform="translate(95.410156 0)"/>
       <use xlink:href="#DejaVuSans-30" transform="translate(159.033203 0)"/>
       <use xlink:href="#DejaVuSans-30" transform="translate(222.65625 0)"/>
      </g>
     </g>
    </g>
    <g id="ytick_2">
     <g id="line2d_8">
      <g>
       <use xlink:href="#m2f03eb80f0" x="60.32" y="210.624261" style="stroke: #000000; stroke-width: 0.8"/>
      </g>
     </g>
     <g id="text_9">
      <!-- 0.002 -->
      <g transform="translate(24.691875 214.42348) scale(0.1 -0.1)">
       <use xlink:href="#DejaVuSans-30"/>
       <use xlink:href="#DejaVuSans-2e" transform="translate(63.623047 0)"/>
       <use xlink:href="#DejaVuSans-30" transform="translate(95.410156 0)"/>
       <use xlink:href="#DejaVuSans-30" transform="translate(159.033203 0)"/>
       <use xlink:href="#DejaVuSans-32" transform="translate(222.65625 0)"/>
      </g>
     </g>
    </g>
    <g id="ytick_3">
     <g id="line2d_9">
      <g>
       <use xlink:href="#m2f03eb80f0" x="60.32" y="180.988525" style="stroke: #000000; stroke-width: 0.8"/>
      </g>
     </g>
     <g id="text_10">
      <!-- 0.004 -->
      <g transform="translate(24.691875 184.787744) scale(0.1 -0.1)">
       <use xlink:href="#DejaVuSans-30"/>
       <use xlink:href="#DejaVuSans-2e" transform="translate(63.623047 0)"/>
       <use xlink:href="#DejaVuSans-30" transform="translate(95.410156 0)"/>
       <use xlink:href="#DejaVuSans-30" transform="translate(159.033203 0)"/>
       <use xlink:href="#DejaVuSans-34" transform="translate(222.65625 0)"/>
      </g>
     </g>
    </g>
    <g id="ytick_4">
     <g id="line2d_10">
      <g>
       <use xlink:href="#m2f03eb80f0" x="60.32" y="151.352789" style="stroke: #000000; stroke-width: 0.8"/>
      </g>
     </g>
     <g id="text_11">
      <!-- 0.006 -->
      <g transform="translate(24.691875 155.152007) scale(0.1 -0.1)">
       <use xlink:href="#DejaVuSans-30"/>
       <use xlink:href="#DejaVuSans-2e" transform="translate(63.623047 0)"/>
       <use xlink:href="#DejaVuSans-30" transform="translate(95.410156 0)"/>
       <use xlink:href="#DejaVuSans-30" transform="translate(159.033203 0)"/>
       <use xlink:href="#DejaVuSans-36" transform="translate(222.65625 0)"/>
      </g>
     </g>
    </g>
    <g id="ytick_5">
     <g id="line2d_11">
      <g>
       <use xlink:href="#m2f03eb80f0" x="60.32" y="121.717052" style="stroke: #000000; stroke-width: 0.8"/>
      </g>
     </g>
     <g id="text_12">
      <!-- 0.008 -->
      <g transform="translate(24.691875 125.516271) scale(0.1 -0.1)">
       <use xlink:href="#DejaVuSans-30"/>
       <use xlink:href="#DejaVuSans-2e" transform="translate(63.623047 0)"/>
       <use xlink:href="#DejaVuSans-30" transform="translate(95.410156 0)"/>
       <use xlink:href="#DejaVuSans-30" transform="translate(159.033203 0)"/>
       <use xlink:href="#DejaVuSans-38" transform="translate(222.65625 0)"/>
      </g>
     </g>
    </g>
    <g id="ytick_6">
     <g id="line2d_12">
      <g>
       <use xlink:href="#m2f03eb80f0" x="60.32" y="92.081316" style="stroke: #000000; stroke-width: 0.8"/>
      </g>
     </g>
     <g id="text_13">
      <!-- 0.010 -->
      <g transform="translate(24.691875 95.880535) scale(0.1 -0.1)">
       <use xlink:href="#DejaVuSans-30"/>
       <use xlink:href="#DejaVuSans-2e" transform="translate(63.623047 0)"/>
       <use xlink:href="#DejaVuSans-30" transform="translate(95.410156 0)"/>
       <use xlink:href="#DejaVuSans-31" transform="translate(159.033203 0)"/>
       <use xlink:href="#DejaVuSans-30" transform="translate(222.65625 0)"/>
      </g>
     </g>
    </g>
    <g id="ytick_7">
     <g id="line2d_13">
      <g>
       <use xlink:href="#m2f03eb80f0" x="60.32" y="62.44558" style="stroke: #000000; stroke-width: 0.8"/>
      </g>
     </g>
     <g id="text_14">
      <!-- 0.012 -->
      <g transform="translate(24.691875 66.244799) scale(0.1 -0.1)">
       <use xlink:href="#DejaVuSans-30"/>
       <use xlink:href="#DejaVuSans-2e" transform="translate(63.623047 0)"/>
       <use xlink:href="#DejaVuSans-30" transform="translate(95.410156 0)"/>
       <use xlink:href="#DejaVuSans-31" transform="translate(159.033203 0)"/>
       <use xlink:href="#DejaVuSans-32" transform="translate(222.65625 0)"/>
      </g>
     </g>
    </g>
    <g id="text_15">
     <!-- Scores -->
     <g transform="translate(18.612188 156.907031) rotate(-90) scale(0.1 -0.1)">
      <defs>
       <path id="DejaVuSans-53" d="M 3425 4513 
L 3425 3897 
Q 3066 4069 2747 4153 
Q 2428 4238 2131 4238 
Q 1616 4238 1336 4038 
Q 1056 3838 1056 3469 
Q 1056 3159 1242 3001 
Q 1428 2844 1947 2747 
L 2328 2669 
Q 3034 2534 3370 2195 
Q 3706 1856 3706 1288 
Q 3706 609 3251 259 
Q 2797 -91 1919 -91 
Q 1588 -91 1214 -16 
Q 841 59 441 206 
L 441 856 
Q 825 641 1194 531 
Q 1563 422 1919 422 
Q 2459 422 2753 634 
Q 3047 847 3047 1241 
Q 3047 1584 2836 1778 
Q 2625 1972 2144 2069 
L 1759 2144 
Q 1053 2284 737 2584 
Q 422 2884 422 3419 
Q 422 4038 858 4394 
Q 1294 4750 2059 4750 
Q 2388 4750 2728 4690 
Q 3069 4631 3425 4513 
z
" transform="scale(0.015625)"/>
       <path id="DejaVuSans-63" d="M 3122 3366 
L 3122 2828 
Q 2878 2963 2633 3030 
Q 2388 3097 2138 3097 
Q 1578 3097 1268 2742 
Q 959 2388 959 1747 
Q 959 1106 1268 751 
Q 1578 397 2138 397 
Q 2388 397 2633 464 
Q 2878 531 3122 666 
L 3122 134 
Q 2881 22 2623 -34 
Q 2366 -91 2075 -91 
Q 1284 -91 818 406 
Q 353 903 353 1747 
Q 353 2603 823 3093 
Q 1294 3584 2113 3584 
Q 2378 3584 2631 3529 
Q 2884 3475 3122 3366 
z
" transform="scale(0.015625)"/>
       <path id="DejaVuSans-6f" d="M 1959 3097 
Q 1497 3097 1228 2736 
Q 959 2375 959 1747 
Q 959 1119 1226 758 
Q 1494 397 1959 397 
Q 2419 397 2687 759 
Q 2956 1122 2956 1747 
Q 2956 2369 2687 2733 
Q 2419 3097 1959 3097 
z
M 1959 3584 
Q 2709 3584 3137 3096 
Q 3566 2609 3566 1747 
Q 3566 888 3137 398 
Q 2709 -91 1959 -91 
Q 1206 -91 779 398 
Q 353 888 353 1747 
Q 353 2609 779 3096 
Q 1206 3584 1959 3584 
z
" transform="scale(0.015625)"/>
      </defs>
      <use xlink:href="#DejaVuSans-53"/>
      <use xlink:href="#DejaVuSans-63" transform="translate(63.476562 0)"/>
      <use xlink:href="#DejaVuSans-6f" transform="translate(118.457031 0)"/>
      <use xlink:href="#DejaVuSans-72" transform="translate(179.638672 0)"/>
      <use xlink:href="#DejaVuSans-65" transform="translate(218.501953 0)"/>
      <use xlink:href="#DejaVuSans-73" transform="translate(280.025391 0)"/>
     </g>
    </g>
   </g>
   <g id="line2d_14">
    <path d="M 70.488629 236.427273 
L 70.549647 236.288943 
L 70.610665 236.104889 
L 70.793719 235.114485 
L 71.241183 234.187769 
L 71.505594 233.736678 
L 71.647969 233.503331 
L 71.810683 233.136771 
L 71.953058 232.853302 
L 72.176791 232.540577 
L 72.420862 232.414273 
L 72.786969 232.086059 
L 72.949684 231.96043 
L 73.132737 231.804325 
L 73.315791 231.691735 
L 73.661559 231.502975 
L 73.844613 231.352966 
L 74.414113 231.034963 
L 74.678524 230.829191 
L 75.044631 230.718092 
L 75.207345 230.564093 
L 75.573453 230.414062 
L 75.919221 230.180385 
L 76.529399 230.020365 
L 77.180257 229.745928 
L 77.627721 229.527953 
L 77.851453 229.451898 
L 78.380275 229.236456 
L 78.624346 229.18748 
L 79.275204 228.982618 
L 79.865043 228.751018 
L 80.373526 228.562713 
L 80.698954 228.456193 
L 82.021008 227.997579 
L 82.427794 227.882327 
L 84.949866 227.229215 
L 85.295634 227.103617 
L 85.478688 227.040814 
L 88.427886 226.392325 
L 89.038064 226.191305 
L 90.807583 225.774714 
L 90.990636 225.715714 
L 91.377083 225.621105 
L 92.149976 225.478292 
L 92.638119 225.407797 
L 95.322906 224.884657 
L 95.953424 224.780127 
L 96.400888 224.619249 
L 96.604281 224.567072 
L 98.63821 224.156394 
L 99.024657 224.084196 
L 100.204336 223.88883 
L 101.302658 223.664442 
L 102.136569 223.530876 
L 109.641768 222.258816 
L 110.292625 222.142454 
L 111.553661 221.938395 
L 112.509608 221.757354 
L 113.119787 221.631256 
L 114.075734 221.462404 
L 117.126627 220.942029 
L 117.289342 220.891985 
L 117.655449 220.823381 
L 118.306306 220.706724 
L 119.506325 220.531189 
L 120.747022 220.321816 
L 121.763986 220.155992 
L 121.967379 220.114668 
L 128.801381 219.072075 
L 129.98106 218.890264 
L 130.5709 218.777499 
L 131.364132 218.655062 
L 132.177704 218.527477 
L 133.072633 218.389046 
L 133.662472 218.285254 
L 134.048919 218.213376 
L 134.720116 218.092672 
L 135.147241 218.031646 
L 138.360849 217.496386 
L 140.008332 217.244825 
L 140.577832 217.129188 
L 141.452422 217.012409 
L 145.784691 216.375332 
L 146.720298 216.233607 
L 147.371156 216.129476 
L 150.076282 215.686051 
L 150.259335 215.617728 
L 151.906818 215.337734 
L 152.903443 215.20719 
L 153.228872 215.16042 
L 154.571265 214.981126 
L 161.91375 213.889094 
L 162.605286 213.779608 
L 165.330751 213.370537 
L 166.022287 213.262797 
L 166.429073 213.187801 
L 168.401984 212.922027 
L 168.951145 212.810573 
L 170.456253 212.62404 
L 172.693575 212.243572 
L 173.873254 212.067902 
L 175.541076 211.749657 
L 176.700416 211.596409 
L 177.14788 211.518384 
L 183.981882 210.430536 
L 184.978508 210.25144 
L 185.425972 210.160866 
L 186.07683 210.050064 
L 186.910741 209.912082 
L 188.619241 209.653956 
L 194.456618 208.512609 
L 194.863404 208.426834 
L 195.982065 208.207877 
L 196.348172 208.121884 
L 197.202423 207.916699 
L 197.609209 207.811617 
L 198.504137 207.638556 
L 198.910923 207.542924 
L 200.070263 207.275424 
L 200.904174 207.101103 
L 201.432996 206.98654 
L 202.714371 206.754155 
L 203.466925 206.627359 
L 203.751675 206.581273 
L 204.158461 206.477699 
L 204.402532 206.393224 
L 205.012711 206.255156 
L 205.175425 206.176292 
L 205.805944 206.03051 
L 206.294087 205.919611 
L 207.229694 205.70736 
L 207.433087 205.666857 
L 208.083944 205.553723 
L 208.368694 205.48804 
L 209.019552 205.359868 
L 210.077195 205.064643 
L 210.361945 205.003132 
L 211.439928 204.783633 
L 212.477232 204.552158 
L 213.534875 204.340125 
L 215.080661 203.972991 
L 215.812876 203.800391 
L 216.219661 203.678674 
L 216.748483 203.565836 
L 217.195947 203.440385 
L 219.250216 203.0131 
L 219.595984 202.92739 
L 220.511252 202.707287 
L 222.01636 202.329772 
L 222.829931 202.124052 
L 227.46729 200.771437 
L 229.114773 200.32744 
L 229.318166 200.221068 
L 229.745291 200.105211 
L 230.233434 199.959505 
L 234.626721 198.518618 
L 235.053846 198.368444 
L 235.786061 198.158232 
L 235.948775 198.091001 
L 236.213186 197.95344 
L 236.3759 197.876898 
L 236.68099 197.769584 
L 237.148794 197.567856 
L 237.392865 197.459572 
L 238.857294 196.917182 
L 239.060687 196.836279 
L 239.487812 196.706515 
L 239.691205 196.637869 
L 240.036973 196.478646 
L 240.260705 196.393857 
L 240.850545 196.142462 
L 241.074277 196.073365 
L 244.14551 194.838 
L 244.348903 194.7427 
L 244.653993 194.628027 
L 244.816707 194.529655 
L 245.284511 194.39363 
L 248.721851 192.671111 
L 248.965923 192.470401 
L 249.230333 192.350577 
L 249.698137 192.076543 
L 252.952424 190.121905 
L 253.094799 190.020428 
L 254.21346 189.299802 
L 254.579567 189.123362 
L 254.721942 189.004339 
L 254.966014 188.836746 
L 255.311782 188.51686 
L 255.759246 188.113401 
L 255.9423 187.862592 
L 256.593157 187.513102 
L 256.79655 187.383593 
L 256.877907 187.275445 
L 257.203336 187.028517 
L 258.545729 185.88054 
L 258.789801 185.658163 
L 259.440658 184.958423 
L 259.745748 184.690002 
L 259.847444 184.611396 
L 260.030498 184.448274 
L 260.233891 184.194405 
L 260.498302 183.90429 
L 260.681355 183.747416 
L 261.189837 183.20237 
L 261.332213 183.100704 
L 261.535605 182.612162 
L 261.616963 182.509558 
L 261.800016 182.290103 
L 261.922052 182.190479 
L 262.084766 182.046108 
L 262.349177 181.733244 
L 262.674606 181.373272 
L 262.979695 181.029019 
L 263.12207 180.948936 
L 263.162749 180.864569 
L 263.366142 180.533957 
L 263.467838 180.447416 
L 263.71191 180.135434 
L 263.99666 179.873637 
L 264.118696 179.833106 
L 264.28141 179.562801 
L 264.444124 179.396246 
L 264.606839 179.120718 
L 264.830571 178.632025 
L 264.891589 178.578156 
L 265.033964 178.363135 
L 265.176339 178.248372 
L 265.359392 177.739462 
L 265.522107 177.457709 
L 265.7255 177.077879 
L 265.928893 176.622576 
L 266.030589 176.435017 
L 266.417036 175.800103 
L 267.962822 171.768198 
L 268.125536 171.303076 
L 268.186554 171.165143 
L 268.349268 170.715442 
L 268.410286 170.522335 
L 268.613679 170.012693 
L 268.674697 169.911407 
L 268.87809 169.238867 
L 268.959447 169.163276 
L 269.366233 167.639243 
L 269.630644 167.00495 
L 270.057769 165.766823 
L 270.505234 163.78714 
L 270.627269 163.273814 
L 270.89168 161.826654 
L 271.400162 159.482612 
L 271.623895 157.644258 
L 271.664573 157.463068 
L 272.010341 155.62915 
L 272.417127 152.376281 
L 272.457806 152.195836 
L 272.803574 147.115591 
L 272.823913 147.089674 
L 273.49511 130.998043 
L 273.75952 111.246258 
L 273.861217 87.118486 
L 273.861217 87.118486 
" clip-path="url(#pa251b23c80)" style="fill: none; stroke: #1f77b4; stroke-width: 1.5; stroke-linecap: square"/>
   </g>
   <g id="line2d_15">
    <path d="M 70.488629 234.01647 
L 70.651344 232.029698 
L 71.017451 229.712122 
L 71.05813 229.632091 
L 71.241183 229.243526 
L 71.363219 229.026527 
L 71.505594 228.342294 
L 71.668308 228.108939 
L 71.932719 227.405335 
L 72.339505 226.974561 
L 72.48188 226.652473 
L 72.949684 226.145814 
L 73.031041 226.081819 
L 73.173416 225.942034 
L 73.254773 225.8001 
L 73.702238 225.130076 
L 74.007327 224.884778 
L 74.109023 224.762582 
L 74.312416 224.534121 
L 74.414113 224.404644 
L 74.597166 224.074306 
L 74.719202 223.952131 
L 74.861577 223.818599 
L 75.248024 223.273219 
L 75.37006 223.15801 
L 75.695488 222.944674 
L 75.898881 222.744952 
L 76.305667 222.507116 
L 76.610756 222.192716 
L 76.875167 221.893971 
L 77.159917 221.706648 
L 77.322632 221.605413 
L 79.437918 220.215991 
L 79.641311 219.991201 
L 79.885383 219.78995 
L 80.719294 219.218734 
L 81.044722 219.03172 
L 81.939651 218.531119 
L 82.143044 218.314792 
L 82.610848 217.844293 
L 82.997294 217.593449 
L 83.200687 217.457105 
L 83.444759 217.250711 
L 83.587134 217.0822 
L 84.624438 216.414126 
L 85.98717 215.651692 
L 86.312599 215.422546 
L 86.57701 215.287428 
L 87.817707 214.589534 
L 87.980421 214.445729 
L 88.183814 214.325177 
L 88.407546 214.176425 
L 88.692296 214.067408 
L 90.055029 213.134578 
L 90.278761 213.025194 
L 90.868601 212.633474 
L 91.010976 212.502055 
L 91.214369 212.318326 
L 91.641494 211.973755 
L 91.74319 211.887602 
L 91.966922 211.64855 
L 92.251673 211.503832 
L 93.614405 210.607793 
L 93.75678 210.406296 
L 93.960173 210.287714 
L 94.183905 210.159838 
L 94.91612 209.649264 
L 95.058495 209.581474 
L 95.322906 209.435537 
L 95.505959 209.279888 
L 95.689013 209.148965 
L 95.912745 209.013133 
L 96.07546 208.859278 
L 96.421228 208.67106 
L 96.583942 208.563594 
L 96.705978 208.505233 
L 96.848353 208.398544 
L 97.621246 207.931972 
L 97.844978 207.779532 
L 98.028032 207.668316 
L 98.3738 207.369068 
L 98.516175 207.260254 
L 100.590783 205.913563 
L 100.814515 205.785528 
L 101.384015 205.316518 
L 101.506051 205.195528 
L 101.668765 205.036339 
L 102.258605 204.650416 
L 102.482337 204.413897 
L 102.828105 204.141864 
L 102.990819 203.988671 
L 103.275569 203.815523 
L 103.499301 203.599384 
L 103.946766 203.209949 
L 104.41457 202.98809 
L 104.536605 202.886282 
L 104.780677 202.608408 
L 105.492552 202.081464 
L 105.716284 201.773371 
L 105.858659 201.63007 
L 106.001034 201.416742 
L 106.265445 201.316039 
L 106.468838 201.148132 
L 107.85191 199.760061 
L 108.014624 199.576146 
L 108.177339 199.448452 
L 108.767178 198.737158 
L 108.909553 198.693705 
L 109.092607 198.409151 
L 110.801107 196.568334 
L 110.963822 196.286916 
L 112.224858 194.552001 
L 113.343519 192.742976 
L 113.567251 192.305012 
L 115.255413 188.699558 
L 115.33677 188.583709 
L 115.926609 187.20477 
L 116.089324 186.826983 
L 116.47577 185.977117 
L 116.679163 185.352454 
L 116.821538 184.958337 
L 117.085949 183.720823 
L 117.126627 183.663673 
L 117.269003 183.47893 
L 117.370699 183.377781 
L 117.574092 182.722036 
L 117.61477 182.70363 
L 117.757146 182.170717 
L 118.245289 180.39118 
L 118.550378 178.748002 
L 118.631735 178.389783 
L 118.957164 176.400979 
L 119.099539 174.62349 
L 119.140217 174.524046 
L 119.282592 173.287595 
L 119.547003 170.646158 
L 119.709718 167.837483 
L 119.852093 166.868073 
L 119.913111 166.674484 
L 120.075825 164.243893 
L 120.116503 164.148085 
L 120.482611 155.863844 
L 120.665664 153.316883 
L 120.869057 142.864524 
L 120.950414 135.610779 
L 121.09279 122.476887 
L 121.153807 115.725821 
L 121.316522 44.172727 
L 121.316522 44.172727 
" clip-path="url(#pa251b23c80)" style="fill: none; stroke: #ff7f0e; stroke-width: 1.5; stroke-linecap: square"/>
   </g>
   <g id="patch_3">
    <path d="M 60.32 246.04 
L 60.32 34.56 
" style="fill: none; stroke: #000000; stroke-width: 0.8; stroke-linejoin: miter; stroke-linecap: square"/>
   </g>
   <g id="patch_4">
    <path d="M 284.029846 246.04 
L 284.029846 34.56 
" style="fill: none; stroke: #000000; stroke-width: 0.8; stroke-linejoin: miter; stroke-linecap: square"/>
   </g>
   <g id="patch_5">
    <path d="M 60.32 246.04 
L 284.029846 246.04 
" style="fill: none; stroke: #000000; stroke-width: 0.8; stroke-linejoin: miter; stroke-linecap: square"/>
   </g>
   <g id="patch_6">
    <path d="M 60.32 34.56 
L 284.029846 34.56 
" style="fill: none; stroke: #000000; stroke-width: 0.8; stroke-linejoin: miter; stroke-linecap: square"/>
   </g>
   <g id="legend_1">
    <g id="patch_7">
     <path d="M 176.840784 71.91625 
L 277.029846 71.91625 
Q 279.029846 71.91625 279.029846 69.91625 
L 279.029846 41.56 
Q 279.029846 39.56 277.029846 39.56 
L 176.840784 39.56 
Q 174.840784 39.56 174.840784 41.56 
L 174.840784 69.91625 
Q 174.840784 71.91625 176.840784 71.91625 
z
" style="fill: #ffffff; opacity: 0.8; stroke: #cccccc; stroke-linejoin: miter"/>
    </g>
    <g id="line2d_16">
     <path d="M 178.840784 47.658437 
L 188.840784 47.658437 
L 198.840784 47.658437 
" style="fill: none; stroke: #1f77b4; stroke-width: 1.5; stroke-linecap: square"/>
    </g>
    <g id="text_16">
     <!-- ID samples -->
     <g transform="translate(206.840784 51.158437) scale(0.1 -0.1)">
      <defs>
       <path id="DejaVuSans-49" d="M 628 4666 
L 1259 4666 
L 1259 0 
L 628 0 
L 628 4666 
z
" transform="scale(0.015625)"/>
       <path id="DejaVuSans-44" d="M 1259 4147 
L 1259 519 
L 2022 519 
Q 2988 519 3436 956 
Q 3884 1394 3884 2338 
Q 3884 3275 3436 3711 
Q 2988 4147 2022 4147 
L 1259 4147 
z
M 628 4666 
L 1925 4666 
Q 3281 4666 3915 4102 
Q 4550 3538 4550 2338 
Q 4550 1131 3912 565 
Q 3275 0 1925 0 
L 628 0 
L 628 4666 
z
" transform="scale(0.015625)"/>
      </defs>
      <use xlink:href="#DejaVuSans-49"/>
      <use xlink:href="#DejaVuSans-44" transform="translate(29.492188 0)"/>
      <use xlink:href="#DejaVuSans-20" transform="translate(106.494141 0)"/>
      <use xlink:href="#DejaVuSans-73" transform="translate(138.28125 0)"/>
      <use xlink:href="#DejaVuSans-61" transform="translate(190.380859 0)"/>
      <use xlink:href="#DejaVuSans-6d" transform="translate(251.660156 0)"/>
      <use xlink:href="#DejaVuSans-70" transform="translate(349.072266 0)"/>
      <use xlink:href="#DejaVuSans-6c" transform="translate(412.548828 0)"/>
      <use xlink:href="#DejaVuSans-65" transform="translate(440.332031 0)"/>
      <use xlink:href="#DejaVuSans-73" transform="translate(501.855469 0)"/>
     </g>
    </g>
    <g id="line2d_17">
     <path d="M 178.840784 62.336562 
L 188.840784 62.336562 
L 198.840784 62.336562 
" style="fill: none; stroke: #ff7f0e; stroke-width: 1.5; stroke-linecap: square"/>
    </g>
    <g id="text_17">
     <!-- OOD samples -->
     <g transform="translate(206.840784 65.836562) scale(0.1 -0.1)">
      <use xlink:href="#DejaVuSans-4f"/>
      <use xlink:href="#DejaVuSans-4f" transform="translate(78.710938 0)"/>
      <use xlink:href="#DejaVuSans-44" transform="translate(157.421875 0)"/>
      <use xlink:href="#DejaVuSans-20" transform="translate(234.423828 0)"/>
      <use xlink:href="#DejaVuSans-73" transform="translate(266.210938 0)"/>
      <use xlink:href="#DejaVuSans-61" transform="translate(318.310547 0)"/>
      <use xlink:href="#DejaVuSans-6d" transform="translate(379.589844 0)"/>
      <use xlink:href="#DejaVuSans-70" transform="translate(477.001953 0)"/>
      <use xlink:href="#DejaVuSans-6c" transform="translate(540.478516 0)"/>
      <use xlink:href="#DejaVuSans-65" transform="translate(568.261719 0)"/>
      <use xlink:href="#DejaVuSans-73" transform="translate(629.785156 0)"/>
     </g>
    </g>
   </g>
  </g>
  <g id="axes_2">
   <g id="patch_8">
    <path d="M 341.490154 246.04 
L 565.2 246.04 
L 565.2 34.56 
L 341.490154 34.56 
z
" style="fill: #ffffff"/>
   </g>
   <g id="patch_9">
    <path d="M 351.658783 246.04 
L 357.976515 246.04 
L 357.976515 220.021094 
L 351.658783 220.021094 
z
" clip-path="url(#pe5622a1652)" style="fill: #1f77b4; opacity: 0.5"/>
   </g>
   <g id="patch_10">
    <path d="M 357.976515 246.04 
L 364.294247 246.04 
L 364.294247 133.85321 
L 357.976515 133.85321 
z
" clip-path="url(#pe5622a1652)" style="fill: #1f77b4; opacity: 0.5"/>
   </g>
   <g id="patch_11">
    <path d="M 364.294247 246.04 
L 370.611979 246.04 
L 370.611979 64.329002 
L 364.294247 64.329002 
z
" clip-path="url(#pe5622a1652)" style="fill: #1f77b4; opacity: 0.5"/>
   </g>
   <g id="patch_12">
    <path d="M 370.611979 246.04 
L 376.929711 246.04 
L 376.929711 44.630476 
L 370.611979 44.630476 
z
" clip-path="url(#pe5622a1652)" style="fill: #1f77b4; opacity: 0.5"/>
   </g>
   <g id="patch_13">
    <path d="M 376.929711 246.04 
L 383.247443 246.04 
L 383.247443 76.759087 
L 376.929711 76.759087 
z
" clip-path="url(#pe5622a1652)" style="fill: #1f77b4; opacity: 0.5"/>
   </g>
   <g id="patch_14">
    <path d="M 383.247443 246.04 
L 389.565172 246.04 
L 389.565172 120.053672 
L 383.247443 120.053672 
z
" clip-path="url(#pe5622a1652)" style="fill: #1f77b4; opacity: 0.5"/>
   </g>
   <g id="patch_15">
    <path d="M 389.565172 246.04 
L 395.882902 246.04 
L 395.882902 160.504132 
L 389.565172 160.504132 
z
" clip-path="url(#pe5622a1652)" style="fill: #1f77b4; opacity: 0.5"/>
   </g>
   <g id="patch_16">
    <path d="M 395.882902 246.04 
L 402.200636 246.04 
L 402.200636 191.895405 
L 395.882902 191.895405 
z
" clip-path="url(#pe5622a1652)" style="fill: #1f77b4; opacity: 0.5"/>
   </g>
   <g id="patch_17">
    <path d="M 402.200636 246.04 
L 408.51837 246.04 
L 408.51837 213.068681 
L 402.200636 213.068681 
z
" clip-path="url(#pe5622a1652)" style="fill: #1f77b4; opacity: 0.5"/>
   </g>
   <g id="patch_18">
    <path d="M 408.51837 246.04 
L 414.836107 246.04 
L 414.836107 223.391982 
L 408.51837 223.391982 
z
" clip-path="url(#pe5622a1652)" style="fill: #1f77b4; opacity: 0.5"/>
   </g>
   <g id="patch_19">
    <path d="M 414.836107 246.04 
L 421.153833 246.04 
L 421.153833 233.293884 
L 414.836107 233.293884 
z
" clip-path="url(#pe5622a1652)" style="fill: #1f77b4; opacity: 0.5"/>
   </g>
   <g id="patch_20">
    <path d="M 421.153833 246.04 
L 427.471567 246.04 
L 427.471567 235.822051 
L 421.153833 235.822051 
z
" clip-path="url(#pe5622a1652)" style="fill: #1f77b4; opacity: 0.5"/>
   </g>
   <g id="patch_21">
    <path d="M 427.471567 246.04 
L 433.7893 246.04 
L 433.7893 240.140978 
L 427.471567 240.140978 
z
" clip-path="url(#pe5622a1652)" style="fill: #1f77b4; opacity: 0.5"/>
   </g>
   <g id="patch_22">
    <path d="M 433.7893 246.04 
L 440.107027 246.04 
L 440.107027 241.405049 
L 433.7893 241.405049 
z
" clip-path="url(#pe5622a1652)" style="fill: #1f77b4; opacity: 0.5"/>
   </g>
   <g id="patch_23">
    <path d="M 440.107027 246.04 
L 446.42476 246.04 
L 446.42476 243.406508 
L 440.107027 243.406508 
z
" clip-path="url(#pe5622a1652)" style="fill: #1f77b4; opacity: 0.5"/>
   </g>
   <g id="patch_24">
    <path d="M 446.42476 246.04 
L 452.742494 246.04 
L 452.742494 244.775924 
L 446.42476 244.775924 
z
" clip-path="url(#pe5622a1652)" style="fill: #1f77b4; opacity: 0.5"/>
   </g>
   <g id="patch_25">
    <path d="M 452.742494 246.04 
L 459.060228 246.04 
L 459.060228 244.143886 
L 452.742494 244.143886 
z
" clip-path="url(#pe5622a1652)" style="fill: #1f77b4; opacity: 0.5"/>
   </g>
   <g id="patch_26">
    <path d="M 459.060228 246.04 
L 465.377961 246.04 
L 465.377961 245.618641 
L 459.060228 245.618641 
z
" clip-path="url(#pe5622a1652)" style="fill: #1f77b4; opacity: 0.5"/>
   </g>
   <g id="patch_27">
    <path d="M 465.377961 246.04 
L 471.69568 246.04 
L 471.69568 245.40796 
L 465.377961 245.40796 
z
" clip-path="url(#pe5622a1652)" style="fill: #1f77b4; opacity: 0.5"/>
   </g>
   <g id="patch_28">
    <path d="M 471.69568 246.04 
L 478.013421 246.04 
L 478.013421 245.723981 
L 471.69568 245.723981 
z
" clip-path="url(#pe5622a1652)" style="fill: #1f77b4; opacity: 0.5"/>
   </g>
   <g id="patch_29">
    <path d="M 478.013421 246.04 
L 484.331147 246.04 
L 484.331147 245.723981 
L 478.013421 245.723981 
z
" clip-path="url(#pe5622a1652)" style="fill: #1f77b4; opacity: 0.5"/>
   </g>
   <g id="patch_30">
    <path d="M 484.331147 246.04 
L 490.648874 246.04 
L 490.648874 245.82932 
L 484.331147 245.82932 
z
" clip-path="url(#pe5622a1652)" style="fill: #1f77b4; opacity: 0.5"/>
   </g>
   <g id="patch_31">
    <path d="M 490.648874 246.04 
L 496.966615 246.04 
L 496.966615 245.93466 
L 490.648874 245.93466 
z
" clip-path="url(#pe5622a1652)" style="fill: #1f77b4; opacity: 0.5"/>
   </g>
   <g id="patch_32">
    <path d="M 496.966615 246.04 
L 503.284341 246.04 
L 503.284341 246.04 
L 496.966615 246.04 
z
" clip-path="url(#pe5622a1652)" style="fill: #1f77b4; opacity: 0.5"/>
   </g>
   <g id="patch_33">
    <path d="M 503.284341 246.04 
L 509.602067 246.04 
L 509.602067 245.82932 
L 503.284341 245.82932 
z
" clip-path="url(#pe5622a1652)" style="fill: #1f77b4; opacity: 0.5"/>
   </g>
   <g id="patch_34">
    <path d="M 354.209002 246.04 
L 362.241897 246.04 
L 362.241897 209.586947 
L 354.209002 209.586947 
z
" clip-path="url(#pe5622a1652)" style="fill: #ff7f0e; opacity: 0.5"/>
   </g>
   <g id="patch_35">
    <path d="M 362.241897 246.04 
L 370.274793 246.04 
L 370.274793 103.873124 
L 362.241897 103.873124 
z
" clip-path="url(#pe5622a1652)" style="fill: #ff7f0e; opacity: 0.5"/>
   </g>
   <g id="patch_36">
    <path d="M 370.274793 246.04 
L 378.307688 246.04 
L 378.307688 63.774733 
L 370.274793 63.774733 
z
" clip-path="url(#pe5622a1652)" style="fill: #ff7f0e; opacity: 0.5"/>
   </g>
   <g id="patch_37">
    <path d="M 378.307688 246.04 
L 386.340584 246.04 
L 386.340584 70.071209 
L 378.307688 70.071209 
z
" clip-path="url(#pe5622a1652)" style="fill: #ff7f0e; opacity: 0.5"/>
   </g>
   <g id="patch_38">
    <path d="M 386.340584 246.04 
L 394.373481 246.04 
L 394.373481 118.785733 
L 386.340584 118.785733 
z
" clip-path="url(#pe5622a1652)" style="fill: #ff7f0e; opacity: 0.5"/>
   </g>
   <g id="patch_39">
    <path d="M 394.373481 246.04 
L 402.406373 246.04 
L 402.406373 178.104749 
L 394.373481 178.104749 
z
" clip-path="url(#pe5622a1652)" style="fill: #ff7f0e; opacity: 0.5"/>
   </g>
   <g id="patch_40">
    <path d="M 402.406373 246.04 
L 410.439266 246.04 
L 410.439266 200.97076 
L 402.406373 200.97076 
z
" clip-path="url(#pe5622a1652)" style="fill: #ff7f0e; opacity: 0.5"/>
   </g>
   <g id="patch_41">
    <path d="M 410.439266 246.04 
L 418.472166 246.04 
L 418.472166 227.813486 
L 410.439266 227.813486 
z
" clip-path="url(#pe5622a1652)" style="fill: #ff7f0e; opacity: 0.5"/>
   </g>
   <g id="patch_42">
    <path d="M 418.472166 246.04 
L 426.505059 246.04 
L 426.505059 235.435473 
L 418.472166 235.435473 
z
" clip-path="url(#pe5622a1652)" style="fill: #ff7f0e; opacity: 0.5"/>
   </g>
   <g id="patch_43">
    <path d="M 426.505059 246.04 
L 434.537959 246.04 
L 434.537959 238.418003 
L 426.505059 238.418003 
z
" clip-path="url(#pe5622a1652)" style="fill: #ff7f0e; opacity: 0.5"/>
   </g>
   <g id="patch_44">
    <path d="M 434.537959 246.04 
L 442.570851 246.04 
L 442.570851 241.400519 
L 434.537959 241.400519 
z
" clip-path="url(#pe5622a1652)" style="fill: #ff7f0e; opacity: 0.5"/>
   </g>
   <g id="patch_45">
    <path d="M 442.570851 246.04 
L 450.603744 246.04 
L 450.603744 243.388868 
L 442.570851 243.388868 
z
" clip-path="url(#pe5622a1652)" style="fill: #ff7f0e; opacity: 0.5"/>
   </g>
   <g id="patch_46">
    <path d="M 450.603744 246.04 
L 458.636644 246.04 
L 458.636644 244.383044 
L 450.603744 244.383044 
z
" clip-path="url(#pe5622a1652)" style="fill: #ff7f0e; opacity: 0.5"/>
   </g>
   <g id="patch_47">
    <path d="M 458.636644 246.04 
L 466.669537 246.04 
L 466.669537 245.708609 
L 458.636644 245.708609 
z
" clip-path="url(#pe5622a1652)" style="fill: #ff7f0e; opacity: 0.5"/>
   </g>
   <g id="patch_48">
    <path d="M 466.669537 246.04 
L 474.702429 246.04 
L 474.702429 243.72026 
L 466.669537 243.72026 
z
" clip-path="url(#pe5622a1652)" style="fill: #ff7f0e; opacity: 0.5"/>
   </g>
   <g id="patch_49">
    <path d="M 474.702429 246.04 
L 482.735322 246.04 
L 482.735322 245.377217 
L 474.702429 245.377217 
z
" clip-path="url(#pe5622a1652)" style="fill: #ff7f0e; opacity: 0.5"/>
   </g>
   <g id="patch_50">
    <path d="M 482.735322 246.04 
L 490.768215 246.04 
L 490.768215 245.045826 
L 482.735322 245.045826 
z
" clip-path="url(#pe5622a1652)" style="fill: #ff7f0e; opacity: 0.5"/>
   </g>
   <g id="patch_51">
    <path d="M 490.768215 246.04 
L 498.801107 246.04 
L 498.801107 245.708609 
L 490.768215 245.708609 
z
" clip-path="url(#pe5622a1652)" style="fill: #ff7f0e; opacity: 0.5"/>
   </g>
   <g id="patch_52">
    <path d="M 498.801107 246.04 
L 506.834015 246.04 
L 506.834015 245.708609 
L 498.801107 245.708609 
z
" clip-path="url(#pe5622a1652)" style="fill: #ff7f0e; opacity: 0.5"/>
   </g>
   <g id="patch_53">
    <path d="M 506.834015 246.04 
L 514.866907 246.04 
L 514.866907 245.708609 
L 506.834015 245.708609 
z
" clip-path="url(#pe5622a1652)" style="fill: #ff7f0e; opacity: 0.5"/>
   </g>
   <g id="patch_54">
    <path d="M 514.866907 246.04 
L 522.8998 246.04 
L 522.8998 245.708609 
L 514.866907 245.708609 
z
" clip-path="url(#pe5622a1652)" style="fill: #ff7f0e; opacity: 0.5"/>
   </g>
   <g id="patch_55">
    <path d="M 522.8998 246.04 
L 530.932693 246.04 
L 530.932693 246.04 
L 522.8998 246.04 
z
" clip-path="url(#pe5622a1652)" style="fill: #ff7f0e; opacity: 0.5"/>
   </g>
   <g id="patch_56">
    <path d="M 530.932693 246.04 
L 538.965585 246.04 
L 538.965585 246.04 
L 530.932693 246.04 
z
" clip-path="url(#pe5622a1652)" style="fill: #ff7f0e; opacity: 0.5"/>
   </g>
   <g id="patch_57">
    <path d="M 538.965585 246.04 
L 546.998478 246.04 
L 546.998478 246.04 
L 538.965585 246.04 
z
" clip-path="url(#pe5622a1652)" style="fill: #ff7f0e; opacity: 0.5"/>
   </g>
   <g id="patch_58">
    <path d="M 546.998478 246.04 
L 555.031371 246.04 
L 555.031371 245.708609 
L 546.998478 245.708609 
z
" clip-path="url(#pe5622a1652)" style="fill: #ff7f0e; opacity: 0.5"/>
   </g>
   <g id="matplotlib.axis_3">
    <g id="xtick_7">
     <g id="line2d_18">
      <g>
       <use xlink:href="#m41484d30bb" x="347.604413" y="246.04" style="stroke: #000000; stroke-width: 0.8"/>
      </g>
     </g>
     <g id="text_18">
      <!-- 0.0000 -->
      <g transform="translate(330.1091 260.638438) scale(0.1 -0.1)">
       <use xlink:href="#DejaVuSans-30"/>
       <use xlink:href="#DejaVuSans-2e" transform="translate(63.623047 0)"/>
       <use xlink:href="#DejaVuSans-30" transform="translate(95.410156 0)"/>
       <use xlink:href="#DejaVuSans-30" transform="translate(159.033203 0)"/>
       <use xlink:href="#DejaVuSans-30" transform="translate(222.65625 0)"/>
       <use xlink:href="#DejaVuSans-30" transform="translate(286.279297 0)"/>
      </g>
     </g>
    </g>
    <g id="xtick_8">
     <g id="line2d_19">
      <g>
       <use xlink:href="#m41484d30bb" x="386.791369" y="246.04" style="stroke: #000000; stroke-width: 0.8"/>
      </g>
     </g>
     <g id="text_19">
      <!-- 0.0025 -->
      <g transform="translate(369.296057 260.638438) scale(0.1 -0.1)">
       <defs>
        <path id="DejaVuSans-35" d="M 691 4666 
L 3169 4666 
L 3169 4134 
L 1269 4134 
L 1269 2991 
Q 1406 3038 1543 3061 
Q 1681 3084 1819 3084 
Q 2600 3084 3056 2656 
Q 3513 2228 3513 1497 
Q 3513 744 3044 326 
Q 2575 -91 1722 -91 
Q 1428 -91 1123 -41 
Q 819 9 494 109 
L 494 744 
Q 775 591 1075 516 
Q 1375 441 1709 441 
Q 2250 441 2565 725 
Q 2881 1009 2881 1497 
Q 2881 1984 2565 2268 
Q 2250 2553 1709 2553 
Q 1456 2553 1204 2497 
Q 953 2441 691 2322 
L 691 4666 
z
" transform="scale(0.015625)"/>
       </defs>
       <use xlink:href="#DejaVuSans-30"/>
       <use xlink:href="#DejaVuSans-2e" transform="translate(63.623047 0)"/>
       <use xlink:href="#DejaVuSans-30" transform="translate(95.410156 0)"/>
       <use xlink:href="#DejaVuSans-30" transform="translate(159.033203 0)"/>
       <use xlink:href="#DejaVuSans-32" transform="translate(222.65625 0)"/>
       <use xlink:href="#DejaVuSans-35" transform="translate(286.279297 0)"/>
      </g>
     </g>
    </g>
    <g id="xtick_9">
     <g id="line2d_20">
      <g>
       <use xlink:href="#m41484d30bb" x="425.978325" y="246.04" style="stroke: #000000; stroke-width: 0.8"/>
      </g>
     </g>
     <g id="text_20">
      <!-- 0.0050 -->
      <g transform="translate(408.483013 260.638438) scale(0.1 -0.1)">
       <use xlink:href="#DejaVuSans-30"/>
       <use xlink:href="#DejaVuSans-2e" transform="translate(63.623047 0)"/>
       <use xlink:href="#DejaVuSans-30" transform="translate(95.410156 0)"/>
       <use xlink:href="#DejaVuSans-30" transform="translate(159.033203 0)"/>
       <use xlink:href="#DejaVuSans-35" transform="translate(222.65625 0)"/>
       <use xlink:href="#DejaVuSans-30" transform="translate(286.279297 0)"/>
      </g>
     </g>
    </g>
    <g id="xtick_10">
     <g id="line2d_21">
      <g>
       <use xlink:href="#m41484d30bb" x="465.165281" y="246.04" style="stroke: #000000; stroke-width: 0.8"/>
      </g>
     </g>
     <g id="text_21">
      <!-- 0.0075 -->
      <g transform="translate(447.669969 260.638438) scale(0.1 -0.1)">
       <defs>
        <path id="DejaVuSans-37" d="M 525 4666 
L 3525 4666 
L 3525 4397 
L 1831 0 
L 1172 0 
L 2766 4134 
L 525 4134 
L 525 4666 
z
" transform="scale(0.015625)"/>
       </defs>
       <use xlink:href="#DejaVuSans-30"/>
       <use xlink:href="#DejaVuSans-2e" transform="translate(63.623047 0)"/>
       <use xlink:href="#DejaVuSans-30" transform="translate(95.410156 0)"/>
       <use xlink:href="#DejaVuSans-30" transform="translate(159.033203 0)"/>
       <use xlink:href="#DejaVuSans-37" transform="translate(222.65625 0)"/>
       <use xlink:href="#DejaVuSans-35" transform="translate(286.279297 0)"/>
      </g>
     </g>
    </g>
    <g id="xtick_11">
     <g id="line2d_22">
      <g>
       <use xlink:href="#m41484d30bb" x="504.352238" y="246.04" style="stroke: #000000; stroke-width: 0.8"/>
      </g>
     </g>
     <g id="text_22">
      <!-- 0.0100 -->
      <g transform="translate(486.856925 260.638438) scale(0.1 -0.1)">
       <use xlink:href="#DejaVuSans-30"/>
       <use xlink:href="#DejaVuSans-2e" transform="translate(63.623047 0)"/>
       <use xlink:href="#DejaVuSans-30" transform="translate(95.410156 0)"/>
       <use xlink:href="#DejaVuSans-31" transform="translate(159.033203 0)"/>
       <use xlink:href="#DejaVuSans-30" transform="translate(222.65625 0)"/>
       <use xlink:href="#DejaVuSans-30" transform="translate(286.279297 0)"/>
      </g>
     </g>
    </g>
    <g id="xtick_12">
     <g id="line2d_23">
      <g>
       <use xlink:href="#m41484d30bb" x="543.539194" y="246.04" style="stroke: #000000; stroke-width: 0.8"/>
      </g>
     </g>
     <g id="text_23">
      <!-- 0.0125 -->
      <g transform="translate(526.043881 260.638438) scale(0.1 -0.1)">
       <use xlink:href="#DejaVuSans-30"/>
       <use xlink:href="#DejaVuSans-2e" transform="translate(63.623047 0)"/>
       <use xlink:href="#DejaVuSans-30" transform="translate(95.410156 0)"/>
       <use xlink:href="#DejaVuSans-31" transform="translate(159.033203 0)"/>
       <use xlink:href="#DejaVuSans-32" transform="translate(222.65625 0)"/>
       <use xlink:href="#DejaVuSans-35" transform="translate(286.279297 0)"/>
      </g>
     </g>
    </g>
    <g id="text_24">
     <!-- Scores -->
     <g transform="translate(436.738046 274.316562) scale(0.1 -0.1)">
      <use xlink:href="#DejaVuSans-53"/>
      <use xlink:href="#DejaVuSans-63" transform="translate(63.476562 0)"/>
      <use xlink:href="#DejaVuSans-6f" transform="translate(118.457031 0)"/>
      <use xlink:href="#DejaVuSans-72" transform="translate(179.638672 0)"/>
      <use xlink:href="#DejaVuSans-65" transform="translate(218.501953 0)"/>
      <use xlink:href="#DejaVuSans-73" transform="translate(280.025391 0)"/>
     </g>
    </g>
   </g>
   <g id="matplotlib.axis_4">
    <g id="ytick_8">
     <g id="line2d_24">
      <g>
       <use xlink:href="#m2f03eb80f0" x="341.490154" y="246.04" style="stroke: #000000; stroke-width: 0.8"/>
      </g>
     </g>
     <g id="text_25">
      <!-- 0 -->
      <g transform="translate(328.127654 249.839219) scale(0.1 -0.1)">
       <use xlink:href="#DejaVuSans-30"/>
      </g>
     </g>
    </g>
    <g id="ytick_9">
     <g id="line2d_25">
      <g>
       <use xlink:href="#m2f03eb80f0" x="341.490154" y="203.582758" style="stroke: #000000; stroke-width: 0.8"/>
      </g>
     </g>
     <g id="text_26">
      <!-- 100 -->
      <g transform="translate(315.402654 207.381977) scale(0.1 -0.1)">
       <use xlink:href="#DejaVuSans-31"/>
       <use xlink:href="#DejaVuSans-30" transform="translate(63.623047 0)"/>
       <use xlink:href="#DejaVuSans-30" transform="translate(127.246094 0)"/>
      </g>
     </g>
    </g>
    <g id="ytick_10">
     <g id="line2d_26">
      <g>
       <use xlink:href="#m2f03eb80f0" x="341.490154" y="161.125517" style="stroke: #000000; stroke-width: 0.8"/>
      </g>
     </g>
     <g id="text_27">
      <!-- 200 -->
      <g transform="translate(315.402654 164.924735) scale(0.1 -0.1)">
       <use xlink:href="#DejaVuSans-32"/>
       <use xlink:href="#DejaVuSans-30" transform="translate(63.623047 0)"/>
       <use xlink:href="#DejaVuSans-30" transform="translate(127.246094 0)"/>
      </g>
     </g>
    </g>
    <g id="ytick_11">
     <g id="line2d_27">
      <g>
       <use xlink:href="#m2f03eb80f0" x="341.490154" y="118.668275" style="stroke: #000000; stroke-width: 0.8"/>
      </g>
     </g>
     <g id="text_28">
      <!-- 300 -->
      <g transform="translate(315.402654 122.467494) scale(0.1 -0.1)">
       <defs>
        <path id="DejaVuSans-33" d="M 2597 2516 
Q 3050 2419 3304 2112 
Q 3559 1806 3559 1356 
Q 3559 666 3084 287 
Q 2609 -91 1734 -91 
Q 1441 -91 1130 -33 
Q 819 25 488 141 
L 488 750 
Q 750 597 1062 519 
Q 1375 441 1716 441 
Q 2309 441 2620 675 
Q 2931 909 2931 1356 
Q 2931 1769 2642 2001 
Q 2353 2234 1838 2234 
L 1294 2234 
L 1294 2753 
L 1863 2753 
Q 2328 2753 2575 2939 
Q 2822 3125 2822 3475 
Q 2822 3834 2567 4026 
Q 2313 4219 1838 4219 
Q 1578 4219 1281 4162 
Q 984 4106 628 3988 
L 628 4550 
Q 988 4650 1302 4700 
Q 1616 4750 1894 4750 
Q 2613 4750 3031 4423 
Q 3450 4097 3450 3541 
Q 3450 3153 3228 2886 
Q 3006 2619 2597 2516 
z
" transform="scale(0.015625)"/>
       </defs>
       <use xlink:href="#DejaVuSans-33"/>
       <use xlink:href="#DejaVuSans-30" transform="translate(63.623047 0)"/>
       <use xlink:href="#DejaVuSans-30" transform="translate(127.246094 0)"/>
      </g>
     </g>
    </g>
    <g id="ytick_12">
     <g id="line2d_28">
      <g>
       <use xlink:href="#m2f03eb80f0" x="341.490154" y="76.211033" style="stroke: #000000; stroke-width: 0.8"/>
      </g>
     </g>
     <g id="text_29">
      <!-- 400 -->
      <g transform="translate(315.402654 80.010252) scale(0.1 -0.1)">
       <use xlink:href="#DejaVuSans-34"/>
       <use xlink:href="#DejaVuSans-30" transform="translate(63.623047 0)"/>
       <use xlink:href="#DejaVuSans-30" transform="translate(127.246094 0)"/>
      </g>
     </g>
    </g>
    <g id="text_30">
     <!-- Density -->
     <g transform="translate(309.322966 159.308594) rotate(-90) scale(0.1 -0.1)">
      <defs>
       <path id="DejaVuSans-6e" d="M 3513 2113 
L 3513 0 
L 2938 0 
L 2938 2094 
Q 2938 2591 2744 2837 
Q 2550 3084 2163 3084 
Q 1697 3084 1428 2787 
Q 1159 2491 1159 1978 
L 1159 0 
L 581 0 
L 581 3500 
L 1159 3500 
L 1159 2956 
Q 1366 3272 1645 3428 
Q 1925 3584 2291 3584 
Q 2894 3584 3203 3211 
Q 3513 2838 3513 2113 
z
" transform="scale(0.015625)"/>
       <path id="DejaVuSans-69" d="M 603 3500 
L 1178 3500 
L 1178 0 
L 603 0 
L 603 3500 
z
M 603 4863 
L 1178 4863 
L 1178 4134 
L 603 4134 
L 603 4863 
z
" transform="scale(0.015625)"/>
       <path id="DejaVuSans-74" d="M 1172 4494 
L 1172 3500 
L 2356 3500 
L 2356 3053 
L 1172 3053 
L 1172 1153 
Q 1172 725 1289 603 
Q 1406 481 1766 481 
L 2356 481 
L 2356 0 
L 1766 0 
Q 1100 0 847 248 
Q 594 497 594 1153 
L 594 3053 
L 172 3053 
L 172 3500 
L 594 3500 
L 594 4494 
L 1172 4494 
z
" transform="scale(0.015625)"/>
       <path id="DejaVuSans-79" d="M 2059 -325 
Q 1816 -950 1584 -1140 
Q 1353 -1331 966 -1331 
L 506 -1331 
L 506 -850 
L 844 -850 
Q 1081 -850 1212 -737 
Q 1344 -625 1503 -206 
L 1606 56 
L 191 3500 
L 800 3500 
L 1894 763 
L 2988 3500 
L 3597 3500 
L 2059 -325 
z
" transform="scale(0.015625)"/>
      </defs>
      <use xlink:href="#DejaVuSans-44"/>
      <use xlink:href="#DejaVuSans-65" transform="translate(77.001953 0)"/>
      <use xlink:href="#DejaVuSans-6e" transform="translate(138.525391 0)"/>
      <use xlink:href="#DejaVuSans-73" transform="translate(201.904297 0)"/>
      <use xlink:href="#DejaVuSans-69" transform="translate(254.003906 0)"/>
      <use xlink:href="#DejaVuSans-74" transform="translate(281.787109 0)"/>
      <use xlink:href="#DejaVuSans-79" transform="translate(320.996094 0)"/>
     </g>
    </g>
   </g>
   <g id="patch_59">
    <path d="M 341.490154 246.04 
L 341.490154 34.56 
" style="fill: none; stroke: #000000; stroke-width: 0.8; stroke-linejoin: miter; stroke-linecap: square"/>
   </g>
   <g id="patch_60">
    <path d="M 565.2 246.04 
L 565.2 34.56 
" style="fill: none; stroke: #000000; stroke-width: 0.8; stroke-linejoin: miter; stroke-linecap: square"/>
   </g>
   <g id="patch_61">
    <path d="M 341.490154 246.04 
L 565.2 246.04 
" style="fill: none; stroke: #000000; stroke-width: 0.8; stroke-linejoin: miter; stroke-linecap: square"/>
   </g>
   <g id="patch_62">
    <path d="M 341.490154 34.56 
L 565.2 34.56 
" style="fill: none; stroke: #000000; stroke-width: 0.8; stroke-linejoin: miter; stroke-linecap: square"/>
   </g>
   <g id="legend_2">
    <g id="patch_63">
     <path d="M 458.010938 71.91625 
L 558.2 71.91625 
Q 560.2 71.91625 560.2 69.91625 
L 560.2 41.56 
Q 560.2 39.56 558.2 39.56 
L 458.010938 39.56 
Q 456.010938 39.56 456.010938 41.56 
L 456.010938 69.91625 
Q 456.010938 71.91625 458.010938 71.91625 
z
" style="fill: #ffffff; opacity: 0.8; stroke: #cccccc; stroke-linejoin: miter"/>
    </g>
    <g id="patch_64">
     <path d="M 460.010938 51.158437 
L 480.010938 51.158437 
L 480.010938 44.158437 
L 460.010938 44.158437 
z
" style="fill: #1f77b4; opacity: 0.5"/>
    </g>
    <g id="text_31">
     <!-- ID samples -->
     <g transform="translate(488.010938 51.158437) scale(0.1 -0.1)">
      <use xlink:href="#DejaVuSans-49"/>
      <use xlink:href="#DejaVuSans-44" transform="translate(29.492188 0)"/>
      <use xlink:href="#DejaVuSans-20" transform="translate(106.494141 0)"/>
      <use xlink:href="#DejaVuSans-73" transform="translate(138.28125 0)"/>
      <use xlink:href="#DejaVuSans-61" transform="translate(190.380859 0)"/>
      <use xlink:href="#DejaVuSans-6d" transform="translate(251.660156 0)"/>
      <use xlink:href="#DejaVuSans-70" transform="translate(349.072266 0)"/>
      <use xlink:href="#DejaVuSans-6c" transform="translate(412.548828 0)"/>
      <use xlink:href="#DejaVuSans-65" transform="translate(440.332031 0)"/>
      <use xlink:href="#DejaVuSans-73" transform="translate(501.855469 0)"/>
     </g>
    </g>
    <g id="patch_65">
     <path d="M 460.010938 65.836562 
L 480.010938 65.836562 
L 480.010938 58.836562 
L 460.010938 58.836562 
z
" style="fill: #ff7f0e; opacity: 0.5"/>
    </g>
    <g id="text_32">
     <!-- OOD samples -->
     <g transform="translate(488.010938 65.836562) scale(0.1 -0.1)">
      <use xlink:href="#DejaVuSans-4f"/>
      <use xlink:href="#DejaVuSans-4f" transform="translate(78.710938 0)"/>
      <use xlink:href="#DejaVuSans-44" transform="translate(157.421875 0)"/>
      <use xlink:href="#DejaVuSans-20" transform="translate(234.423828 0)"/>
      <use xlink:href="#DejaVuSans-73" transform="translate(266.210938 0)"/>
      <use xlink:href="#DejaVuSans-61" transform="translate(318.310547 0)"/>
      <use xlink:href="#DejaVuSans-6d" transform="translate(379.589844 0)"/>
      <use xlink:href="#DejaVuSans-70" transform="translate(477.001953 0)"/>
      <use xlink:href="#DejaVuSans-6c" transform="translate(540.478516 0)"/>
      <use xlink:href="#DejaVuSans-65" transform="translate(568.261719 0)"/>
      <use xlink:href="#DejaVuSans-73" transform="translate(629.785156 0)"/>
     </g>
    </g>
   </g>
  </g>
  <g id="text_33">
   <!-- Scores using mse -->
   <g transform="translate(235.389375 14.878125) scale(0.12 -0.12)">
    <defs>
     <path id="DejaVuSans-75" d="M 544 1381 
L 544 3500 
L 1119 3500 
L 1119 1403 
Q 1119 906 1312 657 
Q 1506 409 1894 409 
Q 2359 409 2629 706 
Q 2900 1003 2900 1516 
L 2900 3500 
L 3475 3500 
L 3475 0 
L 2900 0 
L 2900 538 
Q 2691 219 2414 64 
Q 2138 -91 1772 -91 
Q 1169 -91 856 284 
Q 544 659 544 1381 
z
M 1991 3584 
L 1991 3584 
z
" transform="scale(0.015625)"/>
     <path id="DejaVuSans-67" d="M 2906 1791 
Q 2906 2416 2648 2759 
Q 2391 3103 1925 3103 
Q 1463 3103 1205 2759 
Q 947 2416 947 1791 
Q 947 1169 1205 825 
Q 1463 481 1925 481 
Q 2391 481 2648 825 
Q 2906 1169 2906 1791 
z
M 3481 434 
Q 3481 -459 3084 -895 
Q 2688 -1331 1869 -1331 
Q 1566 -1331 1297 -1286 
Q 1028 -1241 775 -1147 
L 775 -588 
Q 1028 -725 1275 -790 
Q 1522 -856 1778 -856 
Q 2344 -856 2625 -561 
Q 2906 -266 2906 331 
L 2906 616 
Q 2728 306 2450 153 
Q 2172 0 1784 0 
Q 1141 0 747 490 
Q 353 981 353 1791 
Q 353 2603 747 3093 
Q 1141 3584 1784 3584 
Q 2172 3584 2450 3431 
Q 2728 3278 2906 2969 
L 2906 3500 
L 3481 3500 
L 3481 434 
z
" transform="scale(0.015625)"/>
    </defs>
    <use xlink:href="#DejaVuSans-53"/>
    <use xlink:href="#DejaVuSans-63" transform="translate(63.476562 0)"/>
    <use xlink:href="#DejaVuSans-6f" transform="translate(118.457031 0)"/>
    <use xlink:href="#DejaVuSans-72" transform="translate(179.638672 0)"/>
    <use xlink:href="#DejaVuSans-65" transform="translate(218.501953 0)"/>
    <use xlink:href="#DejaVuSans-73" transform="translate(280.025391 0)"/>
    <use xlink:href="#DejaVuSans-20" transform="translate(332.125 0)"/>
    <use xlink:href="#DejaVuSans-75" transform="translate(363.912109 0)"/>
    <use xlink:href="#DejaVuSans-73" transform="translate(427.291016 0)"/>
    <use xlink:href="#DejaVuSans-69" transform="translate(479.390625 0)"/>
    <use xlink:href="#DejaVuSans-6e" transform="translate(507.173828 0)"/>
    <use xlink:href="#DejaVuSans-67" transform="translate(570.552734 0)"/>
    <use xlink:href="#DejaVuSans-20" transform="translate(634.029297 0)"/>
    <use xlink:href="#DejaVuSans-6d" transform="translate(665.816406 0)"/>
    <use xlink:href="#DejaVuSans-73" transform="translate(763.228516 0)"/>
    <use xlink:href="#DejaVuSans-65" transform="translate(815.328125 0)"/>
   </g>
  </g>
 </g>
 <defs>
  <clipPath id="pa251b23c80">
   <rect x="60.32" y="34.56" width="223.709846" height="211.48"/>
  </clipPath>
  <clipPath id="pe5622a1652">
   <rect x="341.490154" y="34.56" width="223.709846" height="211.48"/>
  </clipPath>
 </defs>
</svg>
